  0
SECTION
  2
HEADER
  9
$ANGBASE
  50
0.0
  9
$ANGDIR
  70
1
  9
$MEASUREMENT
  70
0
  0
ENDSEC
  0
SECTION
  2
TABLES
  0
TABLE
  2
LTYPE
  70
4
  0
LTYPE
  5
40F
  2
CONTINUOUS
  70
0
  3
Solid line
  72
65
  73
0
  40
0.0
  0
LTYPE
  5
410
  2
DASHDOT
 70
0
  3
Dash Dot ____ _ ____ _
 72
65
 73
4
 40
2.0
 49
1.25
 49
-0.25
 49
0.25
 49
-0.25
  0
LTYPE
  5
411
  2
DASHED
 70
0
  3
Dashed __ __ __ __ __
 72
65
 73
2
 40
0.75
 49
0.5
 49
-0.25
  0
LTYPE
  5
43B
  2
DOTTED
 70
0
  3
Dotted .  .  .  .
 72
65
 73
2
 40
0.2
 49
0.0
 49
-0.2
  0
ENDTAB
  0
TABLE
  2
STYLE
  70
4
  0
STYLE
  2
KICAD
  70
0
  40
0
  41
1
  42
1
  50
0
  71
0
  3
isocp.shx
  0
STYLE
  2
KICADB
  70
0
  40
0
  41
1
  42
1
  50
0
  71
0
  3
isocp.shx
  0
STYLE
  2
KICADI
  70
0
  40
0
  41
1
  42
1
  50
15
  71
0
  3
isocp.shx
  0
STYLE
  2
KICADBI
  70
0
  40
0
  41
1
  42
1
  50
15
  71
0
  3
isocp.shx
  0
ENDTAB
  0
TABLE
  2
LAYER
  70
30
  0
LAYER
  2
BLACK
  70
0
  62
7
  6
CONTINUOUS
  0
LAYER
  2
GRAY1
  70
0
  62
251
  6
CONTINUOUS
  0
LAYER
  2
GRAY2
  70
0
  62
8
  6
CONTINUOUS
  0
LAYER
  2
GRAY3
  70
0
  62
9
  6
CONTINUOUS
  0
LAYER
  2
WHITE
  70
0
  62
7
  6
CONTINUOUS
  0
LAYER
  2
LYELLOW
  70
0
  62
51
  6
CONTINUOUS
  0
LAYER
  2
BLUE1
  70
0
  62
178
  6
CONTINUOUS
  0
LAYER
  2
GREEN1
  70
0
  62
98
  6
CONTINUOUS
  0
LAYER
  2
CYAN1
  70
0
  62
138
  6
CONTINUOUS
  0
LAYER
  2
RED1
  70
0
  62
18
  6
CONTINUOUS
  0
LAYER
  2
MAGENTA1
  70
0
  62
228
  6
CONTINUOUS
  0
LAYER
  2
BROWN1
  70
0
  62
58
  6
CONTINUOUS
  0
LAYER
  2
BLUE2
  70
0
  62
5
  6
CONTINUOUS
  0
LAYER
  2
GREEN2
  70
0
  62
3
  6
CONTINUOUS
  0
LAYER
  2
CYAN2
  70
0
  62
4
  6
CONTINUOUS
  0
LAYER
  2
RED2
  70
0
  62
1
  6
CONTINUOUS
  0
LAYER
  2
MAGENTA2
  70
0
  62
6
  6
CONTINUOUS
  0
LAYER
  2
BROWN2
  70
0
  62
54
  6
CONTINUOUS
  0
LAYER
  2
BLUE3
  70
0
  62
171
  6
CONTINUOUS
  0
LAYER
  2
GREEN3
  70
0
  62
91
  6
CONTINUOUS
  0
LAYER
  2
CYAN3
  70
0
  62
131
  6
CONTINUOUS
  0
LAYER
  2
RED3
  70
0
  62
11
  6
CONTINUOUS
  0
LAYER
  2
MAGENTA3
  70
0
  62
221
  6
CONTINUOUS
  0
LAYER
  2
YELLOW3
  70
0
  62
2
  6
CONTINUOUS
  0
LAYER
  2
BLUE4
  70
0
  62
5
  6
CONTINUOUS
  0
LAYER
  2
GREEN4
  70
0
  62
3
  6
CONTINUOUS
  0
LAYER
  2
CYAN4
  70
0
  62
4
  6
CONTINUOUS
  0
LAYER
  2
RED4
  70
0
  62
1
  6
CONTINUOUS
  0
LAYER
  2
MAGENTA4
  70
0
  62
6
  6
CONTINUOUS
  0
LAYER
  2
YELLOW4
  70
0
  62
2
  6
CONTINUOUS
  0
ENDTAB
  0
ENDSEC
  0
SECTION
  2
ENTITIES
0
LINE
8
RED2
6
CONTINUOUS
10
6.969
20
-6.536
11
6.969
21
-7.796
0
LINE
8
RED2
6
CONTINUOUS
10
6.969
20
-7.796
11
11.221
21
-7.796
0
LINE
8
RED2
6
CONTINUOUS
10
11.221
20
-7.796
11
11.221
21
-6.536
0
LINE
8
RED2
6
CONTINUOUS
10
11.221
20
-6.536
11
6.969
21
-6.536
0
LINE
8
RED2
6
CONTINUOUS
10
0.394
20
-0.394
11
0.394
21
-7.874
0
LINE
8
RED2
6
CONTINUOUS
10
0.394
20
-7.874
11
11.299
21
-7.874
0
LINE
8
RED2
6
CONTINUOUS
10
11.299
20
-7.874
11
11.299
21
-0.394
0
LINE
8
RED2
6
CONTINUOUS
10
11.299
20
-0.394
11
0.394
21
-0.394
0
LINE
8
RED2
6
CONTINUOUS
10
0.472
20
-0.472
11
0.472
21
-7.796
0
LINE
8
RED2
6
CONTINUOUS
10
0.472
20
-7.796
11
11.221
21
-7.796
0
LINE
8
RED2
6
CONTINUOUS
10
11.221
20
-7.796
11
11.221
21
-0.472
0
LINE
8
RED2
6
CONTINUOUS
10
11.221
20
-0.472
11
0.472
21
-0.472
0
LINE
8
RED2
6
CONTINUOUS
10
2.362
20
-0.472
11
2.362
21
-0.394
0
LINE
8
RED2
6
CONTINUOUS
10
4.331
20
-0.472
11
4.331
21
-0.394
0
LINE
8
RED2
6
CONTINUOUS
10
6.299
20
-0.472
11
6.299
21
-0.394
0
LINE
8
RED2
6
CONTINUOUS
10
8.268
20
-0.472
11
8.268
21
-0.394
0
LINE
8
RED2
6
CONTINUOUS
10
10.236
20
-0.472
11
10.236
21
-0.394
0
LINE
8
RED2
6
CONTINUOUS
10
1.419
20
-0.456
11
1.39
21
-0.456
0
LINE
8
RED2
6
CONTINUOUS
10
1.405
20
-0.456
11
1.405
21
-0.405
0
LINE
8
RED2
6
CONTINUOUS
10
1.405
20
-0.405
11
1.4
21
-0.412
0
LINE
8
RED2
6
CONTINUOUS
10
1.4
20
-0.412
11
1.395
21
-0.417
0
LINE
8
RED2
6
CONTINUOUS
10
1.395
20
-0.417
11
1.39
21
-0.419
0
LINE
8
RED2
6
CONTINUOUS
10
3.358
20
-0.409
11
3.361
21
-0.407
0
LINE
8
RED2
6
CONTINUOUS
10
3.361
20
-0.407
11
3.366
21
-0.405
0
LINE
8
RED2
6
CONTINUOUS
10
3.366
20
-0.405
11
3.378
21
-0.405
0
LINE
8
RED2
6
CONTINUOUS
10
3.378
20
-0.405
11
3.383
21
-0.407
0
LINE
8
RED2
6
CONTINUOUS
10
3.383
20
-0.407
11
3.385
21
-0.409
0
LINE
8
RED2
6
CONTINUOUS
10
3.385
20
-0.409
11
3.387
21
-0.414
0
LINE
8
RED2
6
CONTINUOUS
10
3.387
20
-0.414
11
3.387
21
-0.419
0
LINE
8
RED2
6
CONTINUOUS
10
3.387
20
-0.419
11
3.385
21
-0.426
0
LINE
8
RED2
6
CONTINUOUS
10
3.385
20
-0.426
11
3.356
21
-0.456
0
LINE
8
RED2
6
CONTINUOUS
10
3.356
20
-0.456
11
3.387
21
-0.456
0
LINE
8
RED2
6
CONTINUOUS
10
5.325
20
-0.405
11
5.356
21
-0.405
0
LINE
8
RED2
6
CONTINUOUS
10
5.356
20
-0.405
11
5.339
21
-0.424
0
LINE
8
RED2
6
CONTINUOUS
10
5.339
20
-0.424
11
5.347
21
-0.424
0
LINE
8
RED2
6
CONTINUOUS
10
5.347
20
-0.424
11
5.352
21
-0.426
0
LINE
8
RED2
6
CONTINUOUS
10
5.352
20
-0.426
11
5.354
21
-0.429
0
LINE
8
RED2
6
CONTINUOUS
10
5.354
20
-0.429
11
5.356
21
-0.434
0
LINE
8
RED2
6
CONTINUOUS
10
5.356
20
-0.434
11
5.356
21
-0.446
0
LINE
8
RED2
6
CONTINUOUS
10
5.356
20
-0.446
11
5.354
21
-0.451
0
LINE
8
RED2
6
CONTINUOUS
10
5.354
20
-0.451
11
5.352
21
-0.453
0
LINE
8
RED2
6
CONTINUOUS
10
5.352
20
-0.453
11
5.347
21
-0.456
0
LINE
8
RED2
6
CONTINUOUS
10
5.347
20
-0.456
11
5.332
21
-0.456
0
LINE
8
RED2
6
CONTINUOUS
10
5.332
20
-0.456
11
5.327
21
-0.453
0
LINE
8
RED2
6
CONTINUOUS
10
5.327
20
-0.453
11
5.325
21
-0.451
0
LINE
8
RED2
6
CONTINUOUS
10
7.32
20
-0.422
11
7.32
21
-0.456
0
LINE
8
RED2
6
CONTINUOUS
10
7.307
20
-0.402
11
7.295
21
-0.439
0
LINE
8
RED2
6
CONTINUOUS
10
7.295
20
-0.439
11
7.327
21
-0.439
0
LINE
8
RED2
6
CONTINUOUS
10
9.291
20
-0.405
11
9.267
21
-0.405
0
LINE
8
RED2
6
CONTINUOUS
10
9.267
20
-0.405
11
9.264
21
-0.429
0
LINE
8
RED2
6
CONTINUOUS
10
9.264
20
-0.429
11
9.267
21
-0.426
0
LINE
8
RED2
6
CONTINUOUS
10
9.267
20
-0.426
11
9.272
21
-0.424
0
LINE
8
RED2
6
CONTINUOUS
10
9.272
20
-0.424
11
9.284
21
-0.424
0
LINE
8
RED2
6
CONTINUOUS
10
9.284
20
-0.424
11
9.289
21
-0.426
0
LINE
8
RED2
6
CONTINUOUS
10
9.289
20
-0.426
11
9.291
21
-0.429
0
LINE
8
RED2
6
CONTINUOUS
10
9.291
20
-0.429
11
9.293
21
-0.434
0
LINE
8
RED2
6
CONTINUOUS
10
9.293
20
-0.434
11
9.293
21
-0.446
0
LINE
8
RED2
6
CONTINUOUS
10
9.293
20
-0.446
11
9.291
21
-0.451
0
LINE
8
RED2
6
CONTINUOUS
10
9.291
20
-0.451
11
9.289
21
-0.453
0
LINE
8
RED2
6
CONTINUOUS
10
9.289
20
-0.453
11
9.284
21
-0.456
0
LINE
8
RED2
6
CONTINUOUS
10
9.284
20
-0.456
11
9.272
21
-0.456
0
LINE
8
RED2
6
CONTINUOUS
10
9.272
20
-0.456
11
9.267
21
-0.453
0
LINE
8
RED2
6
CONTINUOUS
10
9.267
20
-0.453
11
9.264
21
-0.451
0
LINE
8
RED2
6
CONTINUOUS
10
11.257
20
-0.405
11
11.247
21
-0.405
0
LINE
8
RED2
6
CONTINUOUS
10
11.247
20
-0.405
11
11.242
21
-0.407
0
LINE
8
RED2
6
CONTINUOUS
10
11.242
20
-0.407
11
11.24
21
-0.409
0
LINE
8
RED2
6
CONTINUOUS
10
11.24
20
-0.409
11
11.235
21
-0.417
0
LINE
8
RED2
6
CONTINUOUS
10
11.235
20
-0.417
11
11.232
21
-0.426
0
LINE
8
RED2
6
CONTINUOUS
10
11.232
20
-0.426
11
11.232
21
-0.446
0
LINE
8
RED2
6
CONTINUOUS
10
11.232
20
-0.446
11
11.235
21
-0.451
0
LINE
8
RED2
6
CONTINUOUS
10
11.235
20
-0.451
11
11.237
21
-0.453
0
LINE
8
RED2
6
CONTINUOUS
10
11.237
20
-0.453
11
11.242
21
-0.456
0
LINE
8
RED2
6
CONTINUOUS
10
11.242
20
-0.456
11
11.252
21
-0.456
0
LINE
8
RED2
6
CONTINUOUS
10
11.252
20
-0.456
11
11.257
21
-0.453
0
LINE
8
RED2
6
CONTINUOUS
10
11.257
20
-0.453
11
11.259
21
-0.451
0
LINE
8
RED2
6
CONTINUOUS
10
11.259
20
-0.451
11
11.261
21
-0.446
0
LINE
8
RED2
6
CONTINUOUS
10
11.261
20
-0.446
11
11.261
21
-0.434
0
LINE
8
RED2
6
CONTINUOUS
10
11.261
20
-0.434
11
11.259
21
-0.429
0
LINE
8
RED2
6
CONTINUOUS
10
11.259
20
-0.429
11
11.257
21
-0.426
0
LINE
8
RED2
6
CONTINUOUS
10
11.257
20
-0.426
11
11.252
21
-0.424
0
LINE
8
RED2
6
CONTINUOUS
10
11.252
20
-0.424
11
11.242
21
-0.424
0
LINE
8
RED2
6
CONTINUOUS
10
11.242
20
-0.424
11
11.237
21
-0.426
0
LINE
8
RED2
6
CONTINUOUS
10
11.237
20
-0.426
11
11.235
21
-0.429
0
LINE
8
RED2
6
CONTINUOUS
10
11.235
20
-0.429
11
11.232
21
-0.434
0
LINE
8
RED2
6
CONTINUOUS
10
2.362
20
-7.796
11
2.362
21
-7.874
0
LINE
8
RED2
6
CONTINUOUS
10
4.331
20
-7.796
11
4.331
21
-7.874
0
LINE
8
RED2
6
CONTINUOUS
10
6.299
20
-7.796
11
6.299
21
-7.874
0
LINE
8
RED2
6
CONTINUOUS
10
8.268
20
-7.796
11
8.268
21
-7.874
0
LINE
8
RED2
6
CONTINUOUS
10
10.236
20
-7.796
11
10.236
21
-7.874
0
LINE
8
RED2
6
CONTINUOUS
10
1.419
20
-7.858
11
1.39
21
-7.858
0
LINE
8
RED2
6
CONTINUOUS
10
1.405
20
-7.858
11
1.405
21
-7.807
0
LINE
8
RED2
6
CONTINUOUS
10
1.405
20
-7.807
11
1.4
21
-7.814
0
LINE
8
RED2
6
CONTINUOUS
10
1.4
20
-7.814
11
1.395
21
-7.819
0
LINE
8
RED2
6
CONTINUOUS
10
1.395
20
-7.819
11
1.39
21
-7.821
0
LINE
8
RED2
6
CONTINUOUS
10
3.358
20
-7.811
11
3.361
21
-7.809
0
LINE
8
RED2
6
CONTINUOUS
10
3.361
20
-7.809
11
3.366
21
-7.807
0
LINE
8
RED2
6
CONTINUOUS
10
3.366
20
-7.807
11
3.378
21
-7.807
0
LINE
8
RED2
6
CONTINUOUS
10
3.378
20
-7.807
11
3.383
21
-7.809
0
LINE
8
RED2
6
CONTINUOUS
10
3.383
20
-7.809
11
3.385
21
-7.811
0
LINE
8
RED2
6
CONTINUOUS
10
3.385
20
-7.811
11
3.387
21
-7.816
0
LINE
8
RED2
6
CONTINUOUS
10
3.387
20
-7.816
11
3.387
21
-7.821
0
LINE
8
RED2
6
CONTINUOUS
10
3.387
20
-7.821
11
3.385
21
-7.828
0
LINE
8
RED2
6
CONTINUOUS
10
3.385
20
-7.828
11
3.356
21
-7.858
0
LINE
8
RED2
6
CONTINUOUS
10
3.356
20
-7.858
11
3.387
21
-7.858
0
LINE
8
RED2
6
CONTINUOUS
10
5.325
20
-7.807
11
5.356
21
-7.807
0
LINE
8
RED2
6
CONTINUOUS
10
5.356
20
-7.807
11
5.339
21
-7.826
0
LINE
8
RED2
6
CONTINUOUS
10
5.339
20
-7.826
11
5.347
21
-7.826
0
LINE
8
RED2
6
CONTINUOUS
10
5.347
20
-7.826
11
5.352
21
-7.828
0
LINE
8
RED2
6
CONTINUOUS
10
5.352
20
-7.828
11
5.354
21
-7.831
0
LINE
8
RED2
6
CONTINUOUS
10
5.354
20
-7.831
11
5.356
21
-7.836
0
LINE
8
RED2
6
CONTINUOUS
10
5.356
20
-7.836
11
5.356
21
-7.848
0
LINE
8
RED2
6
CONTINUOUS
10
5.356
20
-7.848
11
5.354
21
-7.853
0
LINE
8
RED2
6
CONTINUOUS
10
5.354
20
-7.853
11
5.352
21
-7.855
0
LINE
8
RED2
6
CONTINUOUS
10
5.352
20
-7.855
11
5.347
21
-7.858
0
LINE
8
RED2
6
CONTINUOUS
10
5.347
20
-7.858
11
5.332
21
-7.858
0
LINE
8
RED2
6
CONTINUOUS
10
5.332
20
-7.858
11
5.327
21
-7.855
0
LINE
8
RED2
6
CONTINUOUS
10
5.327
20
-7.855
11
5.325
21
-7.853
0
LINE
8
RED2
6
CONTINUOUS
10
7.32
20
-7.824
11
7.32
21
-7.858
0
LINE
8
RED2
6
CONTINUOUS
10
7.307
20
-7.804
11
7.295
21
-7.841
0
LINE
8
RED2
6
CONTINUOUS
10
7.295
20
-7.841
11
7.327
21
-7.841
0
LINE
8
RED2
6
CONTINUOUS
10
9.291
20
-7.807
11
9.267
21
-7.807
0
LINE
8
RED2
6
CONTINUOUS
10
9.267
20
-7.807
11
9.264
21
-7.831
0
LINE
8
RED2
6
CONTINUOUS
10
9.264
20
-7.831
11
9.267
21
-7.828
0
LINE
8
RED2
6
CONTINUOUS
10
9.267
20
-7.828
11
9.272
21
-7.826
0
LINE
8
RED2
6
CONTINUOUS
10
9.272
20
-7.826
11
9.284
21
-7.826
0
LINE
8
RED2
6
CONTINUOUS
10
9.284
20
-7.826
11
9.289
21
-7.828
0
LINE
8
RED2
6
CONTINUOUS
10
9.289
20
-7.828
11
9.291
21
-7.831
0
LINE
8
RED2
6
CONTINUOUS
10
9.291
20
-7.831
11
9.293
21
-7.836
0
LINE
8
RED2
6
CONTINUOUS
10
9.293
20
-7.836
11
9.293
21
-7.848
0
LINE
8
RED2
6
CONTINUOUS
10
9.293
20
-7.848
11
9.291
21
-7.853
0
LINE
8
RED2
6
CONTINUOUS
10
9.291
20
-7.853
11
9.289
21
-7.855
0
LINE
8
RED2
6
CONTINUOUS
10
9.289
20
-7.855
11
9.284
21
-7.858
0
LINE
8
RED2
6
CONTINUOUS
10
9.284
20
-7.858
11
9.272
21
-7.858
0
LINE
8
RED2
6
CONTINUOUS
10
9.272
20
-7.858
11
9.267
21
-7.855
0
LINE
8
RED2
6
CONTINUOUS
10
9.267
20
-7.855
11
9.264
21
-7.853
0
LINE
8
RED2
6
CONTINUOUS
10
11.257
20
-7.807
11
11.247
21
-7.807
0
LINE
8
RED2
6
CONTINUOUS
10
11.247
20
-7.807
11
11.242
21
-7.809
0
LINE
8
RED2
6
CONTINUOUS
10
11.242
20
-7.809
11
11.24
21
-7.811
0
LINE
8
RED2
6
CONTINUOUS
10
11.24
20
-7.811
11
11.235
21
-7.819
0
LINE
8
RED2
6
CONTINUOUS
10
11.235
20
-7.819
11
11.232
21
-7.828
0
LINE
8
RED2
6
CONTINUOUS
10
11.232
20
-7.828
11
11.232
21
-7.848
0
LINE
8
RED2
6
CONTINUOUS
10
11.232
20
-7.848
11
11.235
21
-7.853
0
LINE
8
RED2
6
CONTINUOUS
10
11.235
20
-7.853
11
11.237
21
-7.855
0
LINE
8
RED2
6
CONTINUOUS
10
11.237
20
-7.855
11
11.242
21
-7.858
0
LINE
8
RED2
6
CONTINUOUS
10
11.242
20
-7.858
11
11.252
21
-7.858
0
LINE
8
RED2
6
CONTINUOUS
10
11.252
20
-7.858
11
11.257
21
-7.855
0
LINE
8
RED2
6
CONTINUOUS
10
11.257
20
-7.855
11
11.259
21
-7.853
0
LINE
8
RED2
6
CONTINUOUS
10
11.259
20
-7.853
11
11.261
21
-7.848
0
LINE
8
RED2
6
CONTINUOUS
10
11.261
20
-7.848
11
11.261
21
-7.836
0
LINE
8
RED2
6
CONTINUOUS
10
11.261
20
-7.836
11
11.259
21
-7.831
0
LINE
8
RED2
6
CONTINUOUS
10
11.259
20
-7.831
11
11.257
21
-7.828
0
LINE
8
RED2
6
CONTINUOUS
10
11.257
20
-7.828
11
11.252
21
-7.826
0
LINE
8
RED2
6
CONTINUOUS
10
11.252
20
-7.826
11
11.242
21
-7.826
0
LINE
8
RED2
6
CONTINUOUS
10
11.242
20
-7.826
11
11.237
21
-7.828
0
LINE
8
RED2
6
CONTINUOUS
10
11.237
20
-7.828
11
11.235
21
-7.831
0
LINE
8
RED2
6
CONTINUOUS
10
11.235
20
-7.831
11
11.232
21
-7.836
0
LINE
8
RED2
6
CONTINUOUS
10
0.394
20
-2.362
11
0.472
21
-2.362
0
LINE
8
RED2
6
CONTINUOUS
10
0.394
20
-4.331
11
0.472
21
-4.331
0
LINE
8
RED2
6
CONTINUOUS
10
0.394
20
-6.299
11
0.472
21
-6.299
0
LINE
8
RED2
6
CONTINUOUS
10
0.42
20
-1.386
11
0.445
21
-1.386
0
LINE
8
RED2
6
CONTINUOUS
10
0.416
20
-1.401
11
0.433
21
-1.35
0
LINE
8
RED2
6
CONTINUOUS
10
0.433
20
-1.35
11
0.45
21
-1.401
0
LINE
8
RED2
6
CONTINUOUS
10
0.436
20
-3.342
11
0.443
21
-3.344
0
LINE
8
RED2
6
CONTINUOUS
10
0.443
20
-3.344
11
0.446
21
-3.347
0
LINE
8
RED2
6
CONTINUOUS
10
0.446
20
-3.347
11
0.448
21
-3.352
0
LINE
8
RED2
6
CONTINUOUS
10
0.448
20
-3.352
11
0.448
21
-3.359
0
LINE
8
RED2
6
CONTINUOUS
10
0.448
20
-3.359
11
0.446
21
-3.364
0
LINE
8
RED2
6
CONTINUOUS
10
0.446
20
-3.364
11
0.443
21
-3.366
0
LINE
8
RED2
6
CONTINUOUS
10
0.443
20
-3.366
11
0.439
21
-3.369
0
LINE
8
RED2
6
CONTINUOUS
10
0.439
20
-3.369
11
0.419
21
-3.369
0
LINE
8
RED2
6
CONTINUOUS
10
0.419
20
-3.369
11
0.419
21
-3.318
0
LINE
8
RED2
6
CONTINUOUS
10
0.419
20
-3.318
11
0.436
21
-3.318
0
LINE
8
RED2
6
CONTINUOUS
10
0.436
20
-3.318
11
0.441
21
-3.32
0
LINE
8
RED2
6
CONTINUOUS
10
0.441
20
-3.32
11
0.443
21
-3.322
0
LINE
8
RED2
6
CONTINUOUS
10
0.443
20
-3.322
11
0.446
21
-3.327
0
LINE
8
RED2
6
CONTINUOUS
10
0.446
20
-3.327
11
0.446
21
-3.332
0
LINE
8
RED2
6
CONTINUOUS
10
0.446
20
-3.332
11
0.443
21
-3.337
0
LINE
8
RED2
6
CONTINUOUS
10
0.443
20
-3.337
11
0.441
21
-3.339
0
LINE
8
RED2
6
CONTINUOUS
10
0.441
20
-3.339
11
0.436
21
-3.342
0
LINE
8
RED2
6
CONTINUOUS
10
0.436
20
-3.342
11
0.419
21
-3.342
0
LINE
8
RED2
6
CONTINUOUS
10
0.448
20
-5.333
11
0.446
21
-5.335
0
LINE
8
RED2
6
CONTINUOUS
10
0.446
20
-5.335
11
0.439
21
-5.338
0
LINE
8
RED2
6
CONTINUOUS
10
0.439
20
-5.338
11
0.434
21
-5.338
0
LINE
8
RED2
6
CONTINUOUS
10
0.434
20
-5.338
11
0.426
21
-5.335
0
LINE
8
RED2
6
CONTINUOUS
10
0.426
20
-5.335
11
0.422
21
-5.33
0
LINE
8
RED2
6
CONTINUOUS
10
0.422
20
-5.33
11
0.419
21
-5.325
0
LINE
8
RED2
6
CONTINUOUS
10
0.419
20
-5.325
11
0.417
21
-5.316
0
LINE
8
RED2
6
CONTINUOUS
10
0.417
20
-5.316
11
0.417
21
-5.308
0
LINE
8
RED2
6
CONTINUOUS
10
0.417
20
-5.308
11
0.419
21
-5.299
0
LINE
8
RED2
6
CONTINUOUS
10
0.419
20
-5.299
11
0.422
21
-5.294
0
LINE
8
RED2
6
CONTINUOUS
10
0.422
20
-5.294
11
0.426
21
-5.289
0
LINE
8
RED2
6
CONTINUOUS
10
0.426
20
-5.289
11
0.434
21
-5.287
0
LINE
8
RED2
6
CONTINUOUS
10
0.434
20
-5.287
11
0.439
21
-5.287
0
LINE
8
RED2
6
CONTINUOUS
10
0.439
20
-5.287
11
0.446
21
-5.289
0
LINE
8
RED2
6
CONTINUOUS
10
0.446
20
-5.289
11
0.448
21
-5.291
0
LINE
8
RED2
6
CONTINUOUS
10
0.419
20
-7.306
11
0.419
21
-7.255
0
LINE
8
RED2
6
CONTINUOUS
10
0.419
20
-7.255
11
0.431
21
-7.255
0
LINE
8
RED2
6
CONTINUOUS
10
0.431
20
-7.255
11
0.439
21
-7.257
0
LINE
8
RED2
6
CONTINUOUS
10
0.439
20
-7.257
11
0.443
21
-7.262
0
LINE
8
RED2
6
CONTINUOUS
10
0.443
20
-7.262
11
0.446
21
-7.267
0
LINE
8
RED2
6
CONTINUOUS
10
0.446
20
-7.267
11
0.448
21
-7.276
0
LINE
8
RED2
6
CONTINUOUS
10
0.448
20
-7.276
11
0.448
21
-7.284
0
LINE
8
RED2
6
CONTINUOUS
10
0.448
20
-7.284
11
0.446
21
-7.293
0
LINE
8
RED2
6
CONTINUOUS
10
0.446
20
-7.293
11
0.443
21
-7.298
0
LINE
8
RED2
6
CONTINUOUS
10
0.443
20
-7.298
11
0.439
21
-7.303
0
LINE
8
RED2
6
CONTINUOUS
10
0.439
20
-7.303
11
0.431
21
-7.306
0
LINE
8
RED2
6
CONTINUOUS
10
0.431
20
-7.306
11
0.419
21
-7.306
0
LINE
8
RED2
6
CONTINUOUS
10
11.299
20
-2.362
11
11.221
21
-2.362
0
LINE
8
RED2
6
CONTINUOUS
10
11.299
20
-4.331
11
11.221
21
-4.331
0
LINE
8
RED2
6
CONTINUOUS
10
11.299
20
-6.299
11
11.221
21
-6.299
0
LINE
8
RED2
6
CONTINUOUS
10
11.247
20
-1.386
11
11.272
21
-1.386
0
LINE
8
RED2
6
CONTINUOUS
10
11.243
20
-1.401
11
11.26
21
-1.35
0
LINE
8
RED2
6
CONTINUOUS
10
11.26
20
-1.35
11
11.277
21
-1.401
0
LINE
8
RED2
6
CONTINUOUS
10
11.263
20
-3.342
11
11.27
21
-3.344
0
LINE
8
RED2
6
CONTINUOUS
10
11.27
20
-3.344
11
11.273
21
-3.347
0
LINE
8
RED2
6
CONTINUOUS
10
11.273
20
-3.347
11
11.275
21
-3.352
0
LINE
8
RED2
6
CONTINUOUS
10
11.275
20
-3.352
11
11.275
21
-3.359
0
LINE
8
RED2
6
CONTINUOUS
10
11.275
20
-3.359
11
11.273
21
-3.364
0
LINE
8
RED2
6
CONTINUOUS
10
11.273
20
-3.364
11
11.27
21
-3.366
0
LINE
8
RED2
6
CONTINUOUS
10
11.27
20
-3.366
11
11.266
21
-3.369
0
LINE
8
RED2
6
CONTINUOUS
10
11.266
20
-3.369
11
11.246
21
-3.369
0
LINE
8
RED2
6
CONTINUOUS
10
11.246
20
-3.369
11
11.246
21
-3.318
0
LINE
8
RED2
6
CONTINUOUS
10
11.246
20
-3.318
11
11.263
21
-3.318
0
LINE
8
RED2
6
CONTINUOUS
10
11.263
20
-3.318
11
11.268
21
-3.32
0
LINE
8
RED2
6
CONTINUOUS
10
11.268
20
-3.32
11
11.27
21
-3.322
0
LINE
8
RED2
6
CONTINUOUS
10
11.27
20
-3.322
11
11.273
21
-3.327
0
LINE
8
RED2
6
CONTINUOUS
10
11.273
20
-3.327
11
11.273
21
-3.332
0
LINE
8
RED2
6
CONTINUOUS
10
11.273
20
-3.332
11
11.27
21
-3.337
0
LINE
8
RED2
6
CONTINUOUS
10
11.27
20
-3.337
11
11.268
21
-3.339
0
LINE
8
RED2
6
CONTINUOUS
10
11.268
20
-3.339
11
11.263
21
-3.342
0
LINE
8
RED2
6
CONTINUOUS
10
11.263
20
-3.342
11
11.246
21
-3.342
0
LINE
8
RED2
6
CONTINUOUS
10
11.275
20
-5.333
11
11.273
21
-5.335
0
LINE
8
RED2
6
CONTINUOUS
10
11.273
20
-5.335
11
11.266
21
-5.338
0
LINE
8
RED2
6
CONTINUOUS
10
11.266
20
-5.338
11
11.261
21
-5.338
0
LINE
8
RED2
6
CONTINUOUS
10
11.261
20
-5.338
11
11.253
21
-5.335
0
LINE
8
RED2
6
CONTINUOUS
10
11.253
20
-5.335
11
11.249
21
-5.33
0
LINE
8
RED2
6
CONTINUOUS
10
11.249
20
-5.33
11
11.246
21
-5.325
0
LINE
8
RED2
6
CONTINUOUS
10
11.246
20
-5.325
11
11.244
21
-5.316
0
LINE
8
RED2
6
CONTINUOUS
10
11.244
20
-5.316
11
11.244
21
-5.308
0
LINE
8
RED2
6
CONTINUOUS
10
11.244
20
-5.308
11
11.246
21
-5.299
0
LINE
8
RED2
6
CONTINUOUS
10
11.246
20
-5.299
11
11.249
21
-5.294
0
LINE
8
RED2
6
CONTINUOUS
10
11.249
20
-5.294
11
11.253
21
-5.289
0
LINE
8
RED2
6
CONTINUOUS
10
11.253
20
-5.289
11
11.261
21
-5.287
0
LINE
8
RED2
6
CONTINUOUS
10
11.261
20
-5.287
11
11.266
21
-5.287
0
LINE
8
RED2
6
CONTINUOUS
10
11.266
20
-5.287
11
11.273
21
-5.289
0
LINE
8
RED2
6
CONTINUOUS
10
11.273
20
-5.289
11
11.275
21
-5.291
0
LINE
8
RED2
6
CONTINUOUS
10
11.246
20
-7.306
11
11.246
21
-7.255
0
LINE
8
RED2
6
CONTINUOUS
10
11.246
20
-7.255
11
11.258
21
-7.255
0
LINE
8
RED2
6
CONTINUOUS
10
11.258
20
-7.255
11
11.266
21
-7.257
0
LINE
8
RED2
6
CONTINUOUS
10
11.266
20
-7.257
11
11.27
21
-7.262
0
LINE
8
RED2
6
CONTINUOUS
10
11.27
20
-7.262
11
11.273
21
-7.267
0
LINE
8
RED2
6
CONTINUOUS
10
11.273
20
-7.267
11
11.275
21
-7.276
0
LINE
8
RED2
6
CONTINUOUS
10
11.275
20
-7.276
11
11.275
21
-7.284
0
LINE
8
RED2
6
CONTINUOUS
10
11.275
20
-7.284
11
11.273
21
-7.293
0
LINE
8
RED2
6
CONTINUOUS
10
11.273
20
-7.293
11
11.27
21
-7.298
0
LINE
8
RED2
6
CONTINUOUS
10
11.27
20
-7.298
11
11.266
21
-7.303
0
LINE
8
RED2
6
CONTINUOUS
10
11.266
20
-7.303
11
11.258
21
-7.306
0
LINE
8
RED2
6
CONTINUOUS
10
11.258
20
-7.306
11
11.246
21
-7.306
0
LINE
8
RED2
6
CONTINUOUS
10
7.891
20
-7.629
11
7.891
21
-7.57
0
LINE
8
RED2
6
CONTINUOUS
10
7.891
20
-7.57
11
7.905
21
-7.57
0
LINE
8
RED2
6
CONTINUOUS
10
7.905
20
-7.57
11
7.913
21
-7.573
0
LINE
8
RED2
6
CONTINUOUS
10
7.913
20
-7.573
11
7.919
21
-7.579
0
LINE
8
RED2
6
CONTINUOUS
10
7.919
20
-7.579
11
7.921
21
-7.584
0
LINE
8
RED2
6
CONTINUOUS
10
7.921
20
-7.584
11
7.924
21
-7.595
0
LINE
8
RED2
6
CONTINUOUS
10
7.924
20
-7.595
11
7.924
21
-7.604
0
LINE
8
RED2
6
CONTINUOUS
10
7.924
20
-7.604
11
7.921
21
-7.615
0
LINE
8
RED2
6
CONTINUOUS
10
7.921
20
-7.615
11
7.919
21
-7.621
0
LINE
8
RED2
6
CONTINUOUS
10
7.919
20
-7.621
11
7.913
21
-7.626
0
LINE
8
RED2
6
CONTINUOUS
10
7.913
20
-7.626
11
7.905
21
-7.629
0
LINE
8
RED2
6
CONTINUOUS
10
7.905
20
-7.629
11
7.891
21
-7.629
0
LINE
8
RED2
6
CONTINUOUS
10
7.975
20
-7.629
11
7.975
21
-7.598
0
LINE
8
RED2
6
CONTINUOUS
10
7.975
20
-7.598
11
7.972
21
-7.593
0
LINE
8
RED2
6
CONTINUOUS
10
7.972
20
-7.593
11
7.966
21
-7.59
0
LINE
8
RED2
6
CONTINUOUS
10
7.966
20
-7.59
11
7.955
21
-7.59
0
LINE
8
RED2
6
CONTINUOUS
10
7.955
20
-7.59
11
7.95
21
-7.593
0
LINE
8
RED2
6
CONTINUOUS
10
7.975
20
-7.626
11
7.969
21
-7.629
0
LINE
8
RED2
6
CONTINUOUS
10
7.969
20
-7.629
11
7.955
21
-7.629
0
LINE
8
RED2
6
CONTINUOUS
10
7.955
20
-7.629
11
7.95
21
-7.626
0
LINE
8
RED2
6
CONTINUOUS
10
7.95
20
-7.626
11
7.947
21
-7.621
0
LINE
8
RED2
6
CONTINUOUS
10
7.947
20
-7.621
11
7.947
21
-7.615
0
LINE
8
RED2
6
CONTINUOUS
10
7.947
20
-7.615
11
7.95
21
-7.61
0
LINE
8
RED2
6
CONTINUOUS
10
7.95
20
-7.61
11
7.955
21
-7.607
0
LINE
8
RED2
6
CONTINUOUS
10
7.955
20
-7.607
11
7.969
21
-7.607
0
LINE
8
RED2
6
CONTINUOUS
10
7.969
20
-7.607
11
7.975
21
-7.604
0
LINE
8
RED2
6
CONTINUOUS
10
7.995
20
-7.59
11
8.017
21
-7.59
0
LINE
8
RED2
6
CONTINUOUS
10
8.003
20
-7.57
11
8.003
21
-7.621
0
LINE
8
RED2
6
CONTINUOUS
10
8.003
20
-7.621
11
8.006
21
-7.626
0
LINE
8
RED2
6
CONTINUOUS
10
8.006
20
-7.626
11
8.011
21
-7.629
0
LINE
8
RED2
6
CONTINUOUS
10
8.011
20
-7.629
11
8.017
21
-7.629
0
LINE
8
RED2
6
CONTINUOUS
10
8.059
20
-7.626
11
8.054
21
-7.629
0
LINE
8
RED2
6
CONTINUOUS
10
8.054
20
-7.629
11
8.042
21
-7.629
0
LINE
8
RED2
6
CONTINUOUS
10
8.042
20
-7.629
11
8.037
21
-7.626
0
LINE
8
RED2
6
CONTINUOUS
10
8.037
20
-7.626
11
8.034
21
-7.621
0
LINE
8
RED2
6
CONTINUOUS
10
8.034
20
-7.621
11
8.034
21
-7.598
0
LINE
8
RED2
6
CONTINUOUS
10
8.034
20
-7.598
11
8.037
21
-7.593
0
LINE
8
RED2
6
CONTINUOUS
10
8.037
20
-7.593
11
8.042
21
-7.59
0
LINE
8
RED2
6
CONTINUOUS
10
8.042
20
-7.59
11
8.054
21
-7.59
0
LINE
8
RED2
6
CONTINUOUS
10
8.054
20
-7.59
11
8.059
21
-7.593
0
LINE
8
RED2
6
CONTINUOUS
10
8.059
20
-7.593
11
8.062
21
-7.598
0
LINE
8
RED2
6
CONTINUOUS
10
8.062
20
-7.598
11
8.062
21
-7.604
0
LINE
8
RED2
6
CONTINUOUS
10
8.062
20
-7.604
11
8.034
21
-7.61
0
LINE
8
RED2
6
CONTINUOUS
10
8.087
20
-7.624
11
8.09
21
-7.626
0
LINE
8
RED2
6
CONTINUOUS
10
8.09
20
-7.626
11
8.087
21
-7.629
0
LINE
8
RED2
6
CONTINUOUS
10
8.087
20
-7.629
11
8.084
21
-7.626
0
LINE
8
RED2
6
CONTINUOUS
10
8.084
20
-7.626
11
8.087
21
-7.624
0
LINE
8
RED2
6
CONTINUOUS
10
8.087
20
-7.624
11
8.087
21
-7.629
0
LINE
8
RED2
6
CONTINUOUS
10
8.087
20
-7.593
11
8.09
21
-7.595
0
LINE
8
RED2
6
CONTINUOUS
10
8.09
20
-7.595
11
8.087
21
-7.598
0
LINE
8
RED2
6
CONTINUOUS
10
8.087
20
-7.598
11
8.084
21
-7.595
0
LINE
8
RED2
6
CONTINUOUS
10
8.084
20
-7.595
11
8.087
21
-7.593
0
LINE
8
RED2
6
CONTINUOUS
10
8.087
20
-7.593
11
8.087
21
-7.598
0
LINE
8
RED2
6
CONTINUOUS
10
6.969
20
-7.658
11
11.221
21
-7.658
0
LINE
8
RED2
6
CONTINUOUS
10
7.025
20
-7.739
11
7.025
21
-7.68
0
LINE
8
RED2
6
CONTINUOUS
10
7.058
20
-7.739
11
7.033
21
-7.705
0
LINE
8
RED2
6
CONTINUOUS
10
7.058
20
-7.68
11
7.025
21
-7.714
0
LINE
8
RED2
6
CONTINUOUS
10
7.084
20
-7.739
11
7.084
21
-7.7
0
LINE
8
RED2
6
CONTINUOUS
10
7.084
20
-7.68
11
7.081
21
-7.683
0
LINE
8
RED2
6
CONTINUOUS
10
7.081
20
-7.683
11
7.084
21
-7.686
0
LINE
8
RED2
6
CONTINUOUS
10
7.084
20
-7.686
11
7.086
21
-7.683
0
LINE
8
RED2
6
CONTINUOUS
10
7.086
20
-7.683
11
7.084
21
-7.68
0
LINE
8
RED2
6
CONTINUOUS
10
7.084
20
-7.68
11
7.084
21
-7.686
0
LINE
8
RED2
6
CONTINUOUS
10
7.145
20
-7.734
11
7.143
21
-7.736
0
LINE
8
RED2
6
CONTINUOUS
10
7.143
20
-7.736
11
7.134
21
-7.739
0
LINE
8
RED2
6
CONTINUOUS
10
7.134
20
-7.739
11
7.129
21
-7.739
0
LINE
8
RED2
6
CONTINUOUS
10
7.129
20
-7.739
11
7.12
21
-7.736
0
LINE
8
RED2
6
CONTINUOUS
10
7.12
20
-7.736
11
7.114
21
-7.731
0
LINE
8
RED2
6
CONTINUOUS
10
7.114
20
-7.731
11
7.112
21
-7.725
0
LINE
8
RED2
6
CONTINUOUS
10
7.112
20
-7.725
11
7.109
21
-7.714
0
LINE
8
RED2
6
CONTINUOUS
10
7.109
20
-7.714
11
7.109
21
-7.705
0
LINE
8
RED2
6
CONTINUOUS
10
7.109
20
-7.705
11
7.112
21
-7.694
0
LINE
8
RED2
6
CONTINUOUS
10
7.112
20
-7.694
11
7.114
21
-7.689
0
LINE
8
RED2
6
CONTINUOUS
10
7.114
20
-7.689
11
7.12
21
-7.683
0
LINE
8
RED2
6
CONTINUOUS
10
7.12
20
-7.683
11
7.129
21
-7.68
0
LINE
8
RED2
6
CONTINUOUS
10
7.129
20
-7.68
11
7.134
21
-7.68
0
LINE
8
RED2
6
CONTINUOUS
10
7.134
20
-7.68
11
7.143
21
-7.683
0
LINE
8
RED2
6
CONTINUOUS
10
7.143
20
-7.683
11
7.145
21
-7.686
0
LINE
8
RED2
6
CONTINUOUS
10
7.196
20
-7.739
11
7.196
21
-7.708
0
LINE
8
RED2
6
CONTINUOUS
10
7.196
20
-7.708
11
7.193
21
-7.703
0
LINE
8
RED2
6
CONTINUOUS
10
7.193
20
-7.703
11
7.188
21
-7.7
0
LINE
8
RED2
6
CONTINUOUS
10
7.188
20
-7.7
11
7.176
21
-7.7
0
LINE
8
RED2
6
CONTINUOUS
10
7.176
20
-7.7
11
7.171
21
-7.703
0
LINE
8
RED2
6
CONTINUOUS
10
7.196
20
-7.736
11
7.19
21
-7.739
0
LINE
8
RED2
6
CONTINUOUS
10
7.19
20
-7.739
11
7.176
21
-7.739
0
LINE
8
RED2
6
CONTINUOUS
10
7.176
20
-7.739
11
7.171
21
-7.736
0
LINE
8
RED2
6
CONTINUOUS
10
7.171
20
-7.736
11
7.168
21
-7.731
0
LINE
8
RED2
6
CONTINUOUS
10
7.168
20
-7.731
11
7.168
21
-7.725
0
LINE
8
RED2
6
CONTINUOUS
10
7.168
20
-7.725
11
7.171
21
-7.72
0
LINE
8
RED2
6
CONTINUOUS
10
7.171
20
-7.72
11
7.176
21
-7.717
0
LINE
8
RED2
6
CONTINUOUS
10
7.176
20
-7.717
11
7.19
21
-7.717
0
LINE
8
RED2
6
CONTINUOUS
10
7.19
20
-7.717
11
7.196
21
-7.714
0
LINE
8
RED2
6
CONTINUOUS
10
7.249
20
-7.739
11
7.249
21
-7.68
0
LINE
8
RED2
6
CONTINUOUS
10
7.249
20
-7.736
11
7.244
21
-7.739
0
LINE
8
RED2
6
CONTINUOUS
10
7.244
20
-7.739
11
7.232
21
-7.739
0
LINE
8
RED2
6
CONTINUOUS
10
7.232
20
-7.739
11
7.227
21
-7.736
0
LINE
8
RED2
6
CONTINUOUS
10
7.227
20
-7.736
11
7.224
21
-7.734
0
LINE
8
RED2
6
CONTINUOUS
10
7.224
20
-7.734
11
7.221
21
-7.728
0
LINE
8
RED2
6
CONTINUOUS
10
7.221
20
-7.728
11
7.221
21
-7.711
0
LINE
8
RED2
6
CONTINUOUS
10
7.221
20
-7.711
11
7.224
21
-7.705
0
LINE
8
RED2
6
CONTINUOUS
10
7.224
20
-7.705
11
7.227
21
-7.703
0
LINE
8
RED2
6
CONTINUOUS
10
7.227
20
-7.703
11
7.232
21
-7.7
0
LINE
8
RED2
6
CONTINUOUS
10
7.232
20
-7.7
11
7.244
21
-7.7
0
LINE
8
RED2
6
CONTINUOUS
10
7.244
20
-7.7
11
7.249
21
-7.703
0
LINE
8
RED2
6
CONTINUOUS
10
7.322
20
-7.708
11
7.342
21
-7.708
0
LINE
8
RED2
6
CONTINUOUS
10
7.35
20
-7.739
11
7.322
21
-7.739
0
LINE
8
RED2
6
CONTINUOUS
10
7.322
20
-7.739
11
7.322
21
-7.68
0
LINE
8
RED2
6
CONTINUOUS
10
7.322
20
-7.68
11
7.35
21
-7.68
0
LINE
8
RED2
6
CONTINUOUS
10
7.376
20
-7.734
11
7.379
21
-7.736
0
LINE
8
RED2
6
CONTINUOUS
10
7.379
20
-7.736
11
7.376
21
-7.739
0
LINE
8
RED2
6
CONTINUOUS
10
7.376
20
-7.739
11
7.373
21
-7.736
0
LINE
8
RED2
6
CONTINUOUS
10
7.373
20
-7.736
11
7.376
21
-7.734
0
LINE
8
RED2
6
CONTINUOUS
10
7.376
20
-7.734
11
7.376
21
-7.739
0
LINE
8
RED2
6
CONTINUOUS
10
7.404
20
-7.739
11
7.404
21
-7.68
0
LINE
8
RED2
6
CONTINUOUS
10
7.404
20
-7.68
11
7.418
21
-7.68
0
LINE
8
RED2
6
CONTINUOUS
10
7.418
20
-7.68
11
7.426
21
-7.683
0
LINE
8
RED2
6
CONTINUOUS
10
7.426
20
-7.683
11
7.432
21
-7.689
0
LINE
8
RED2
6
CONTINUOUS
10
7.432
20
-7.689
11
7.435
21
-7.694
0
LINE
8
RED2
6
CONTINUOUS
10
7.435
20
-7.694
11
7.438
21
-7.705
0
LINE
8
RED2
6
CONTINUOUS
10
7.438
20
-7.705
11
7.438
21
-7.714
0
LINE
8
RED2
6
CONTINUOUS
10
7.438
20
-7.714
11
7.435
21
-7.725
0
LINE
8
RED2
6
CONTINUOUS
10
7.435
20
-7.725
11
7.432
21
-7.731
0
LINE
8
RED2
6
CONTINUOUS
10
7.432
20
-7.731
11
7.426
21
-7.736
0
LINE
8
RED2
6
CONTINUOUS
10
7.426
20
-7.736
11
7.418
21
-7.739
0
LINE
8
RED2
6
CONTINUOUS
10
7.418
20
-7.739
11
7.404
21
-7.739
0
LINE
8
RED2
6
CONTINUOUS
10
7.463
20
-7.734
11
7.466
21
-7.736
0
LINE
8
RED2
6
CONTINUOUS
10
7.466
20
-7.736
11
7.463
21
-7.739
0
LINE
8
RED2
6
CONTINUOUS
10
7.463
20
-7.739
11
7.46
21
-7.736
0
LINE
8
RED2
6
CONTINUOUS
10
7.46
20
-7.736
11
7.463
21
-7.734
0
LINE
8
RED2
6
CONTINUOUS
10
7.463
20
-7.734
11
7.463
21
-7.739
0
LINE
8
RED2
6
CONTINUOUS
10
7.488
20
-7.722
11
7.516
21
-7.722
0
LINE
8
RED2
6
CONTINUOUS
10
7.483
20
-7.739
11
7.502
21
-7.68
0
LINE
8
RED2
6
CONTINUOUS
10
7.502
20
-7.68
11
7.522
21
-7.739
0
LINE
8
RED2
6
CONTINUOUS
10
7.542
20
-7.734
11
7.544
21
-7.736
0
LINE
8
RED2
6
CONTINUOUS
10
7.544
20
-7.736
11
7.542
21
-7.739
0
LINE
8
RED2
6
CONTINUOUS
10
7.542
20
-7.739
11
7.539
21
-7.736
0
LINE
8
RED2
6
CONTINUOUS
10
7.539
20
-7.736
11
7.542
21
-7.734
0
LINE
8
RED2
6
CONTINUOUS
10
7.542
20
-7.734
11
7.542
21
-7.739
0
LINE
8
RED2
6
CONTINUOUS
10
7.66
20
-7.739
11
7.66
21
-7.68
0
LINE
8
RED2
6
CONTINUOUS
10
7.665
20
-7.717
11
7.682
21
-7.739
0
LINE
8
RED2
6
CONTINUOUS
10
7.682
20
-7.7
11
7.66
21
-7.722
0
LINE
8
RED2
6
CONTINUOUS
10
7.707
20
-7.739
11
7.707
21
-7.7
0
LINE
8
RED2
6
CONTINUOUS
10
7.707
20
-7.68
11
7.704
21
-7.683
0
LINE
8
RED2
6
CONTINUOUS
10
7.704
20
-7.683
11
7.707
21
-7.686
0
LINE
8
RED2
6
CONTINUOUS
10
7.707
20
-7.686
11
7.71
21
-7.683
0
LINE
8
RED2
6
CONTINUOUS
10
7.71
20
-7.683
11
7.707
21
-7.68
0
LINE
8
RED2
6
CONTINUOUS
10
7.707
20
-7.68
11
7.707
21
-7.686
0
LINE
8
RED2
6
CONTINUOUS
10
7.761
20
-7.736
11
7.755
21
-7.739
0
LINE
8
RED2
6
CONTINUOUS
10
7.755
20
-7.739
11
7.744
21
-7.739
0
LINE
8
RED2
6
CONTINUOUS
10
7.744
20
-7.739
11
7.738
21
-7.736
0
LINE
8
RED2
6
CONTINUOUS
10
7.738
20
-7.736
11
7.735
21
-7.734
0
LINE
8
RED2
6
CONTINUOUS
10
7.735
20
-7.734
11
7.733
21
-7.728
0
LINE
8
RED2
6
CONTINUOUS
10
7.733
20
-7.728
11
7.733
21
-7.711
0
LINE
8
RED2
6
CONTINUOUS
10
7.733
20
-7.711
11
7.735
21
-7.705
0
LINE
8
RED2
6
CONTINUOUS
10
7.735
20
-7.705
11
7.738
21
-7.703
0
LINE
8
RED2
6
CONTINUOUS
10
7.738
20
-7.703
11
7.744
21
-7.7
0
LINE
8
RED2
6
CONTINUOUS
10
7.744
20
-7.7
11
7.755
21
-7.7
0
LINE
8
RED2
6
CONTINUOUS
10
7.755
20
-7.7
11
7.761
21
-7.703
0
LINE
8
RED2
6
CONTINUOUS
10
7.811
20
-7.739
11
7.811
21
-7.708
0
LINE
8
RED2
6
CONTINUOUS
10
7.811
20
-7.708
11
7.808
21
-7.703
0
LINE
8
RED2
6
CONTINUOUS
10
7.808
20
-7.703
11
7.803
21
-7.7
0
LINE
8
RED2
6
CONTINUOUS
10
7.803
20
-7.7
11
7.792
21
-7.7
0
LINE
8
RED2
6
CONTINUOUS
10
7.792
20
-7.7
11
7.786
21
-7.703
0
LINE
8
RED2
6
CONTINUOUS
10
7.811
20
-7.736
11
7.806
21
-7.739
0
LINE
8
RED2
6
CONTINUOUS
10
7.806
20
-7.739
11
7.792
21
-7.739
0
LINE
8
RED2
6
CONTINUOUS
10
7.792
20
-7.739
11
7.786
21
-7.736
0
LINE
8
RED2
6
CONTINUOUS
10
7.786
20
-7.736
11
7.783
21
-7.731
0
LINE
8
RED2
6
CONTINUOUS
10
7.783
20
-7.731
11
7.783
21
-7.725
0
LINE
8
RED2
6
CONTINUOUS
10
7.783
20
-7.725
11
7.786
21
-7.72
0
LINE
8
RED2
6
CONTINUOUS
10
7.786
20
-7.72
11
7.792
21
-7.717
0
LINE
8
RED2
6
CONTINUOUS
10
7.792
20
-7.717
11
7.806
21
-7.717
0
LINE
8
RED2
6
CONTINUOUS
10
7.806
20
-7.717
11
7.811
21
-7.714
0
LINE
8
RED2
6
CONTINUOUS
10
7.865
20
-7.739
11
7.865
21
-7.68
0
LINE
8
RED2
6
CONTINUOUS
10
7.865
20
-7.736
11
7.859
21
-7.739
0
LINE
8
RED2
6
CONTINUOUS
10
7.859
20
-7.739
11
7.848
21
-7.739
0
LINE
8
RED2
6
CONTINUOUS
10
7.848
20
-7.739
11
7.842
21
-7.736
0
LINE
8
RED2
6
CONTINUOUS
10
7.842
20
-7.736
11
7.839
21
-7.734
0
LINE
8
RED2
6
CONTINUOUS
10
7.839
20
-7.734
11
7.837
21
-7.728
0
LINE
8
RED2
6
CONTINUOUS
10
7.837
20
-7.728
11
7.837
21
-7.711
0
LINE
8
RED2
6
CONTINUOUS
10
7.837
20
-7.711
11
7.839
21
-7.705
0
LINE
8
RED2
6
CONTINUOUS
10
7.839
20
-7.705
11
7.842
21
-7.703
0
LINE
8
RED2
6
CONTINUOUS
10
7.842
20
-7.703
11
7.848
21
-7.7
0
LINE
8
RED2
6
CONTINUOUS
10
7.848
20
-7.7
11
7.859
21
-7.7
0
LINE
8
RED2
6
CONTINUOUS
10
7.859
20
-7.7
11
7.865
21
-7.703
0
LINE
8
RED2
6
CONTINUOUS
10
7.966
20
-7.68
11
7.938
21
-7.68
0
LINE
8
RED2
6
CONTINUOUS
10
7.938
20
-7.68
11
7.935
21
-7.708
0
LINE
8
RED2
6
CONTINUOUS
10
7.935
20
-7.708
11
7.938
21
-7.705
0
LINE
8
RED2
6
CONTINUOUS
10
7.938
20
-7.705
11
7.943
21
-7.703
0
LINE
8
RED2
6
CONTINUOUS
10
7.943
20
-7.703
11
7.957
21
-7.703
0
LINE
8
RED2
6
CONTINUOUS
10
7.957
20
-7.703
11
7.963
21
-7.705
0
LINE
8
RED2
6
CONTINUOUS
10
7.963
20
-7.705
11
7.966
21
-7.708
0
LINE
8
RED2
6
CONTINUOUS
10
7.966
20
-7.708
11
7.969
21
-7.714
0
LINE
8
RED2
6
CONTINUOUS
10
7.969
20
-7.714
11
7.969
21
-7.728
0
LINE
8
RED2
6
CONTINUOUS
10
7.969
20
-7.728
11
7.966
21
-7.734
0
LINE
8
RED2
6
CONTINUOUS
10
7.966
20
-7.734
11
7.963
21
-7.736
0
LINE
8
RED2
6
CONTINUOUS
10
7.963
20
-7.736
11
7.957
21
-7.739
0
LINE
8
RED2
6
CONTINUOUS
10
7.957
20
-7.739
11
7.943
21
-7.739
0
LINE
8
RED2
6
CONTINUOUS
10
7.943
20
-7.739
11
7.938
21
-7.736
0
LINE
8
RED2
6
CONTINUOUS
10
7.938
20
-7.736
11
7.935
21
-7.734
0
LINE
8
RED2
6
CONTINUOUS
10
7.994
20
-7.734
11
7.997
21
-7.736
0
LINE
8
RED2
6
CONTINUOUS
10
7.997
20
-7.736
11
7.994
21
-7.739
0
LINE
8
RED2
6
CONTINUOUS
10
7.994
20
-7.739
11
7.991
21
-7.736
0
LINE
8
RED2
6
CONTINUOUS
10
7.991
20
-7.736
11
7.994
21
-7.734
0
LINE
8
RED2
6
CONTINUOUS
10
7.994
20
-7.734
11
7.994
21
-7.739
0
LINE
8
RED2
6
CONTINUOUS
10
8.053
20
-7.739
11
8.019
21
-7.739
0
LINE
8
RED2
6
CONTINUOUS
10
8.036
20
-7.739
11
8.036
21
-7.68
0
LINE
8
RED2
6
CONTINUOUS
10
8.036
20
-7.68
11
8.03
21
-7.689
0
LINE
8
RED2
6
CONTINUOUS
10
8.03
20
-7.689
11
8.025
21
-7.694
0
LINE
8
RED2
6
CONTINUOUS
10
8.025
20
-7.694
11
8.019
21
-7.697
0
LINE
8
RED2
6
CONTINUOUS
10
8.078
20
-7.734
11
8.081
21
-7.736
0
LINE
8
RED2
6
CONTINUOUS
10
8.081
20
-7.736
11
8.078
21
-7.739
0
LINE
8
RED2
6
CONTINUOUS
10
8.078
20
-7.739
11
8.075
21
-7.736
0
LINE
8
RED2
6
CONTINUOUS
10
8.075
20
-7.736
11
8.078
21
-7.734
0
LINE
8
RED2
6
CONTINUOUS
10
8.078
20
-7.734
11
8.078
21
-7.739
0
LINE
8
RED2
6
CONTINUOUS
10
8.132
20
-7.7
11
8.132
21
-7.739
0
LINE
8
RED2
6
CONTINUOUS
10
8.117
20
-7.677
11
8.103
21
-7.72
0
LINE
8
RED2
6
CONTINUOUS
10
8.103
20
-7.72
11
8.14
21
-7.72
0
LINE
8
RED2
6
CONTINUOUS
10
8.162
20
-7.717
11
8.207
21
-7.717
0
LINE
8
RED2
6
CONTINUOUS
10
8.185
20
-7.739
11
8.185
21
-7.694
0
LINE
8
RED2
6
CONTINUOUS
10
8.261
20
-7.739
11
8.261
21
-7.68
0
LINE
8
RED2
6
CONTINUOUS
10
8.261
20
-7.736
11
8.255
21
-7.739
0
LINE
8
RED2
6
CONTINUOUS
10
8.255
20
-7.739
11
8.244
21
-7.739
0
LINE
8
RED2
6
CONTINUOUS
10
8.244
20
-7.739
11
8.238
21
-7.736
0
LINE
8
RED2
6
CONTINUOUS
10
8.238
20
-7.736
11
8.235
21
-7.734
0
LINE
8
RED2
6
CONTINUOUS
10
8.235
20
-7.734
11
8.233
21
-7.728
0
LINE
8
RED2
6
CONTINUOUS
10
8.233
20
-7.728
11
8.233
21
-7.711
0
LINE
8
RED2
6
CONTINUOUS
10
8.233
20
-7.711
11
8.235
21
-7.705
0
LINE
8
RED2
6
CONTINUOUS
10
8.235
20
-7.705
11
8.238
21
-7.703
0
LINE
8
RED2
6
CONTINUOUS
10
8.238
20
-7.703
11
8.244
21
-7.7
0
LINE
8
RED2
6
CONTINUOUS
10
8.244
20
-7.7
11
8.255
21
-7.7
0
LINE
8
RED2
6
CONTINUOUS
10
8.255
20
-7.7
11
8.261
21
-7.703
0
LINE
8
RED2
6
CONTINUOUS
10
8.28
20
-7.7
11
8.303
21
-7.7
0
LINE
8
RED2
6
CONTINUOUS
10
8.289
20
-7.739
11
8.289
21
-7.689
0
LINE
8
RED2
6
CONTINUOUS
10
8.289
20
-7.689
11
8.292
21
-7.683
0
LINE
8
RED2
6
CONTINUOUS
10
8.292
20
-7.683
11
8.297
21
-7.68
0
LINE
8
RED2
6
CONTINUOUS
10
8.297
20
-7.68
11
8.303
21
-7.68
0
LINE
8
RED2
6
CONTINUOUS
10
8.32
20
-7.736
11
8.325
21
-7.739
0
LINE
8
RED2
6
CONTINUOUS
10
8.325
20
-7.739
11
8.337
21
-7.739
0
LINE
8
RED2
6
CONTINUOUS
10
8.337
20
-7.739
11
8.342
21
-7.736
0
LINE
8
RED2
6
CONTINUOUS
10
8.342
20
-7.736
11
8.345
21
-7.731
0
LINE
8
RED2
6
CONTINUOUS
10
8.345
20
-7.731
11
8.345
21
-7.728
0
LINE
8
RED2
6
CONTINUOUS
10
8.345
20
-7.728
11
8.342
21
-7.722
0
LINE
8
RED2
6
CONTINUOUS
10
8.342
20
-7.722
11
8.337
21
-7.72
0
LINE
8
RED2
6
CONTINUOUS
10
8.337
20
-7.72
11
8.328
21
-7.72
0
LINE
8
RED2
6
CONTINUOUS
10
8.328
20
-7.72
11
8.323
21
-7.717
0
LINE
8
RED2
6
CONTINUOUS
10
8.323
20
-7.717
11
8.32
21
-7.711
0
LINE
8
RED2
6
CONTINUOUS
10
8.32
20
-7.711
11
8.32
21
-7.708
0
LINE
8
RED2
6
CONTINUOUS
10
8.32
20
-7.708
11
8.323
21
-7.703
0
LINE
8
RED2
6
CONTINUOUS
10
8.323
20
-7.703
11
8.328
21
-7.7
0
LINE
8
RED2
6
CONTINUOUS
10
8.328
20
-7.7
11
8.337
21
-7.7
0
LINE
8
RED2
6
CONTINUOUS
10
8.337
20
-7.7
11
8.342
21
-7.703
0
LINE
8
RED2
6
CONTINUOUS
10
8.396
20
-7.7
11
8.396
21
-7.748
0
LINE
8
RED2
6
CONTINUOUS
10
8.396
20
-7.748
11
8.393
21
-7.753
0
LINE
8
RED2
6
CONTINUOUS
10
8.393
20
-7.753
11
8.39
21
-7.756
0
LINE
8
RED2
6
CONTINUOUS
10
8.39
20
-7.756
11
8.384
21
-7.759
0
LINE
8
RED2
6
CONTINUOUS
10
8.384
20
-7.759
11
8.376
21
-7.759
0
LINE
8
RED2
6
CONTINUOUS
10
8.376
20
-7.759
11
8.37
21
-7.756
0
LINE
8
RED2
6
CONTINUOUS
10
8.396
20
-7.736
11
8.39
21
-7.739
0
LINE
8
RED2
6
CONTINUOUS
10
8.39
20
-7.739
11
8.379
21
-7.739
0
LINE
8
RED2
6
CONTINUOUS
10
8.379
20
-7.739
11
8.373
21
-7.736
0
LINE
8
RED2
6
CONTINUOUS
10
8.373
20
-7.736
11
8.37
21
-7.734
0
LINE
8
RED2
6
CONTINUOUS
10
8.37
20
-7.734
11
8.368
21
-7.728
0
LINE
8
RED2
6
CONTINUOUS
10
8.368
20
-7.728
11
8.368
21
-7.711
0
LINE
8
RED2
6
CONTINUOUS
10
8.368
20
-7.711
11
8.37
21
-7.705
0
LINE
8
RED2
6
CONTINUOUS
10
8.37
20
-7.705
11
8.373
21
-7.703
0
LINE
8
RED2
6
CONTINUOUS
10
8.373
20
-7.703
11
8.379
21
-7.7
0
LINE
8
RED2
6
CONTINUOUS
10
8.379
20
-7.7
11
8.39
21
-7.7
0
LINE
8
RED2
6
CONTINUOUS
10
8.39
20
-7.7
11
8.396
21
-7.703
0
LINE
8
RED2
6
CONTINUOUS
10
8.455
20
-7.739
11
8.421
21
-7.739
0
LINE
8
RED2
6
CONTINUOUS
10
8.438
20
-7.739
11
8.438
21
-7.68
0
LINE
8
RED2
6
CONTINUOUS
10
8.438
20
-7.68
11
8.432
21
-7.689
0
LINE
8
RED2
6
CONTINUOUS
10
8.432
20
-7.689
11
8.427
21
-7.694
0
LINE
8
RED2
6
CONTINUOUS
10
8.427
20
-7.694
11
8.421
21
-7.697
0
LINE
8
RED2
6
CONTINUOUS
10
8.48
20
-7.717
11
8.525
21
-7.717
0
LINE
8
RED2
6
CONTINUOUS
10
8.584
20
-7.739
11
8.55
21
-7.739
0
LINE
8
RED2
6
CONTINUOUS
10
8.567
20
-7.739
11
8.567
21
-7.68
0
LINE
8
RED2
6
CONTINUOUS
10
8.567
20
-7.68
11
8.561
21
-7.689
0
LINE
8
RED2
6
CONTINUOUS
10
8.561
20
-7.689
11
8.556
21
-7.694
0
LINE
8
RED2
6
CONTINUOUS
10
8.556
20
-7.694
11
8.55
21
-7.697
0
LINE
8
RED2
6
CONTINUOUS
10
6.969
20
-7.54
11
11.221
21
-7.54
0
LINE
8
RED2
6
CONTINUOUS
10
10.409
20
-7.629
11
10.389
21
-7.601
0
LINE
8
RED2
6
CONTINUOUS
10
10.375
20
-7.629
11
10.375
21
-7.57
0
LINE
8
RED2
6
CONTINUOUS
10
10.375
20
-7.57
11
10.398
21
-7.57
0
LINE
8
RED2
6
CONTINUOUS
10
10.398
20
-7.57
11
10.403
21
-7.573
0
LINE
8
RED2
6
CONTINUOUS
10
10.403
20
-7.573
11
10.406
21
-7.576
0
LINE
8
RED2
6
CONTINUOUS
10
10.406
20
-7.576
11
10.409
21
-7.581
0
LINE
8
RED2
6
CONTINUOUS
10
10.409
20
-7.581
11
10.409
21
-7.59
0
LINE
8
RED2
6
CONTINUOUS
10
10.409
20
-7.59
11
10.406
21
-7.595
0
LINE
8
RED2
6
CONTINUOUS
10
10.406
20
-7.595
11
10.403
21
-7.598
0
LINE
8
RED2
6
CONTINUOUS
10
10.403
20
-7.598
11
10.398
21
-7.601
0
LINE
8
RED2
6
CONTINUOUS
10
10.398
20
-7.601
11
10.375
21
-7.601
0
LINE
8
RED2
6
CONTINUOUS
10
10.457
20
-7.626
11
10.451
21
-7.629
0
LINE
8
RED2
6
CONTINUOUS
10
10.451
20
-7.629
11
10.44
21
-7.629
0
LINE
8
RED2
6
CONTINUOUS
10
10.44
20
-7.629
11
10.434
21
-7.626
0
LINE
8
RED2
6
CONTINUOUS
10
10.434
20
-7.626
11
10.432
21
-7.621
0
LINE
8
RED2
6
CONTINUOUS
10
10.432
20
-7.621
11
10.432
21
-7.598
0
LINE
8
RED2
6
CONTINUOUS
10
10.432
20
-7.598
11
10.434
21
-7.593
0
LINE
8
RED2
6
CONTINUOUS
10
10.434
20
-7.593
11
10.44
21
-7.59
0
LINE
8
RED2
6
CONTINUOUS
10
10.44
20
-7.59
11
10.451
21
-7.59
0
LINE
8
RED2
6
CONTINUOUS
10
10.451
20
-7.59
11
10.457
21
-7.593
0
LINE
8
RED2
6
CONTINUOUS
10
10.457
20
-7.593
11
10.46
21
-7.598
0
LINE
8
RED2
6
CONTINUOUS
10
10.46
20
-7.598
11
10.46
21
-7.604
0
LINE
8
RED2
6
CONTINUOUS
10
10.46
20
-7.604
11
10.432
21
-7.61
0
LINE
8
RED2
6
CONTINUOUS
10
10.479
20
-7.59
11
10.493
21
-7.629
0
LINE
8
RED2
6
CONTINUOUS
10
10.493
20
-7.629
11
10.507
21
-7.59
0
LINE
8
RED2
6
CONTINUOUS
10
10.53
20
-7.624
11
10.533
21
-7.626
0
LINE
8
RED2
6
CONTINUOUS
10
10.533
20
-7.626
11
10.53
21
-7.629
0
LINE
8
RED2
6
CONTINUOUS
10
10.53
20
-7.629
11
10.527
21
-7.626
0
LINE
8
RED2
6
CONTINUOUS
10
10.527
20
-7.626
11
10.53
21
-7.624
0
LINE
8
RED2
6
CONTINUOUS
10
10.53
20
-7.624
11
10.53
21
-7.629
0
LINE
8
RED2
6
CONTINUOUS
10
10.53
20
-7.593
11
10.533
21
-7.595
0
LINE
8
RED2
6
CONTINUOUS
10
10.533
20
-7.595
11
10.53
21
-7.598
0
LINE
8
RED2
6
CONTINUOUS
10
10.53
20
-7.598
11
10.527
21
-7.595
0
LINE
8
RED2
6
CONTINUOUS
10
10.527
20
-7.595
11
10.53
21
-7.593
0
LINE
8
RED2
6
CONTINUOUS
10
10.53
20
-7.593
11
10.53
21
-7.598
0
LINE
8
RED2
6
CONTINUOUS
10
7.022
20
-7.626
11
7.03
21
-7.629
0
LINE
8
RED2
6
CONTINUOUS
10
7.03
20
-7.629
11
7.044
21
-7.629
0
LINE
8
RED2
6
CONTINUOUS
10
7.044
20
-7.629
11
7.05
21
-7.626
0
LINE
8
RED2
6
CONTINUOUS
10
7.05
20
-7.626
11
7.053
21
-7.624
0
LINE
8
RED2
6
CONTINUOUS
10
7.053
20
-7.624
11
7.055
21
-7.618
0
LINE
8
RED2
6
CONTINUOUS
10
7.055
20
-7.618
11
7.055
21
-7.612
0
LINE
8
RED2
6
CONTINUOUS
10
7.055
20
-7.612
11
7.053
21
-7.607
0
LINE
8
RED2
6
CONTINUOUS
10
7.053
20
-7.607
11
7.05
21
-7.604
0
LINE
8
RED2
6
CONTINUOUS
10
7.05
20
-7.604
11
7.044
21
-7.601
0
LINE
8
RED2
6
CONTINUOUS
10
7.044
20
-7.601
11
7.033
21
-7.598
0
LINE
8
RED2
6
CONTINUOUS
10
7.033
20
-7.598
11
7.027
21
-7.595
0
LINE
8
RED2
6
CONTINUOUS
10
7.027
20
-7.595
11
7.025
21
-7.593
0
LINE
8
RED2
6
CONTINUOUS
10
7.025
20
-7.593
11
7.022
21
-7.587
0
LINE
8
RED2
6
CONTINUOUS
10
7.022
20
-7.587
11
7.022
21
-7.581
0
LINE
8
RED2
6
CONTINUOUS
10
7.022
20
-7.581
11
7.025
21
-7.576
0
LINE
8
RED2
6
CONTINUOUS
10
7.025
20
-7.576
11
7.027
21
-7.573
0
LINE
8
RED2
6
CONTINUOUS
10
7.027
20
-7.573
11
7.033
21
-7.57
0
LINE
8
RED2
6
CONTINUOUS
10
7.033
20
-7.57
11
7.047
21
-7.57
0
LINE
8
RED2
6
CONTINUOUS
10
7.047
20
-7.57
11
7.055
21
-7.573
0
LINE
8
RED2
6
CONTINUOUS
10
7.081
20
-7.629
11
7.081
21
-7.59
0
LINE
8
RED2
6
CONTINUOUS
10
7.081
20
-7.57
11
7.078
21
-7.573
0
LINE
8
RED2
6
CONTINUOUS
10
7.078
20
-7.573
11
7.081
21
-7.576
0
LINE
8
RED2
6
CONTINUOUS
10
7.081
20
-7.576
11
7.084
21
-7.573
0
LINE
8
RED2
6
CONTINUOUS
10
7.084
20
-7.573
11
7.081
21
-7.57
0
LINE
8
RED2
6
CONTINUOUS
10
7.081
20
-7.57
11
7.081
21
-7.576
0
LINE
8
RED2
6
CONTINUOUS
10
7.103
20
-7.59
11
7.134
21
-7.59
0
LINE
8
RED2
6
CONTINUOUS
10
7.134
20
-7.59
11
7.103
21
-7.629
0
LINE
8
RED2
6
CONTINUOUS
10
7.103
20
-7.629
11
7.134
21
-7.629
0
LINE
8
RED2
6
CONTINUOUS
10
7.179
20
-7.626
11
7.173
21
-7.629
0
LINE
8
RED2
6
CONTINUOUS
10
7.173
20
-7.629
11
7.162
21
-7.629
0
LINE
8
RED2
6
CONTINUOUS
10
7.162
20
-7.629
11
7.157
21
-7.626
0
LINE
8
RED2
6
CONTINUOUS
10
7.157
20
-7.626
11
7.154
21
-7.621
0
LINE
8
RED2
6
CONTINUOUS
10
7.154
20
-7.621
11
7.154
21
-7.598
0
LINE
8
RED2
6
CONTINUOUS
10
7.154
20
-7.598
11
7.157
21
-7.593
0
LINE
8
RED2
6
CONTINUOUS
10
7.157
20
-7.593
11
7.162
21
-7.59
0
LINE
8
RED2
6
CONTINUOUS
10
7.162
20
-7.59
11
7.173
21
-7.59
0
LINE
8
RED2
6
CONTINUOUS
10
7.173
20
-7.59
11
7.179
21
-7.593
0
LINE
8
RED2
6
CONTINUOUS
10
7.179
20
-7.593
11
7.182
21
-7.598
0
LINE
8
RED2
6
CONTINUOUS
10
7.182
20
-7.598
11
7.182
21
-7.604
0
LINE
8
RED2
6
CONTINUOUS
10
7.182
20
-7.604
11
7.154
21
-7.61
0
LINE
8
RED2
6
CONTINUOUS
10
7.207
20
-7.624
11
7.21
21
-7.626
0
LINE
8
RED2
6
CONTINUOUS
10
7.21
20
-7.626
11
7.207
21
-7.629
0
LINE
8
RED2
6
CONTINUOUS
10
7.207
20
-7.629
11
7.204
21
-7.626
0
LINE
8
RED2
6
CONTINUOUS
10
7.204
20
-7.626
11
7.207
21
-7.624
0
LINE
8
RED2
6
CONTINUOUS
10
7.207
20
-7.624
11
7.207
21
-7.629
0
LINE
8
RED2
6
CONTINUOUS
10
7.207
20
-7.593
11
7.21
21
-7.595
0
LINE
8
RED2
6
CONTINUOUS
10
7.21
20
-7.595
11
7.207
21
-7.598
0
LINE
8
RED2
6
CONTINUOUS
10
7.207
20
-7.598
11
7.204
21
-7.595
0
LINE
8
RED2
6
CONTINUOUS
10
7.204
20
-7.595
11
7.207
21
-7.593
0
LINE
8
RED2
6
CONTINUOUS
10
7.207
20
-7.593
11
7.207
21
-7.598
0
LINE
8
RED2
6
CONTINUOUS
10
7.277
20
-7.612
11
7.306
21
-7.612
0
LINE
8
RED2
6
CONTINUOUS
10
7.272
20
-7.629
11
7.291
21
-7.57
0
LINE
8
RED2
6
CONTINUOUS
10
7.291
20
-7.57
11
7.311
21
-7.629
0
LINE
8
RED2
6
CONTINUOUS
10
7.356
20
-7.59
11
7.356
21
-7.629
0
LINE
8
RED2
6
CONTINUOUS
10
7.342
20
-7.567
11
7.328
21
-7.61
0
LINE
8
RED2
6
CONTINUOUS
10
7.328
20
-7.61
11
7.365
21
-7.61
0
LINE
8
RED2
6
CONTINUOUS
10
10.371
20
-7.739
11
10.371
21
-7.68
0
LINE
8
RED2
6
CONTINUOUS
10
10.424
20
-7.739
11
10.424
21
-7.68
0
LINE
8
RED2
6
CONTINUOUS
10
10.424
20
-7.736
11
10.418
21
-7.739
0
LINE
8
RED2
6
CONTINUOUS
10
10.418
20
-7.739
11
10.407
21
-7.739
0
LINE
8
RED2
6
CONTINUOUS
10
10.407
20
-7.739
11
10.401
21
-7.736
0
LINE
8
RED2
6
CONTINUOUS
10
10.401
20
-7.736
11
10.399
21
-7.734
0
LINE
8
RED2
6
CONTINUOUS
10
10.399
20
-7.734
11
10.396
21
-7.728
0
LINE
8
RED2
6
CONTINUOUS
10
10.396
20
-7.728
11
10.396
21
-7.711
0
LINE
8
RED2
6
CONTINUOUS
10
10.396
20
-7.711
11
10.399
21
-7.705
0
LINE
8
RED2
6
CONTINUOUS
10
10.399
20
-7.705
11
10.401
21
-7.703
0
LINE
8
RED2
6
CONTINUOUS
10
10.401
20
-7.703
11
10.407
21
-7.7
0
LINE
8
RED2
6
CONTINUOUS
10
10.407
20
-7.7
11
10.418
21
-7.7
0
LINE
8
RED2
6
CONTINUOUS
10
10.418
20
-7.7
11
10.424
21
-7.703
0
LINE
8
RED2
6
CONTINUOUS
10
10.452
20
-7.734
11
10.455
21
-7.736
0
LINE
8
RED2
6
CONTINUOUS
10
10.455
20
-7.736
11
10.452
21
-7.739
0
LINE
8
RED2
6
CONTINUOUS
10
10.452
20
-7.739
11
10.449
21
-7.736
0
LINE
8
RED2
6
CONTINUOUS
10
10.449
20
-7.736
11
10.452
21
-7.734
0
LINE
8
RED2
6
CONTINUOUS
10
10.452
20
-7.734
11
10.452
21
-7.739
0
LINE
8
RED2
6
CONTINUOUS
10
10.452
20
-7.703
11
10.455
21
-7.705
0
LINE
8
RED2
6
CONTINUOUS
10
10.455
20
-7.705
11
10.452
21
-7.708
0
LINE
8
RED2
6
CONTINUOUS
10
10.452
20
-7.708
11
10.449
21
-7.705
0
LINE
8
RED2
6
CONTINUOUS
10
10.449
20
-7.705
11
10.452
21
-7.703
0
LINE
8
RED2
6
CONTINUOUS
10
10.452
20
-7.703
11
10.452
21
-7.708
0
LINE
8
RED2
6
CONTINUOUS
10
10.519
20
-7.68
11
10.556
21
-7.68
0
LINE
8
RED2
6
CONTINUOUS
10
10.556
20
-7.68
11
10.536
21
-7.703
0
LINE
8
RED2
6
CONTINUOUS
10
10.536
20
-7.703
11
10.545
21
-7.703
0
LINE
8
RED2
6
CONTINUOUS
10
10.545
20
-7.703
11
10.55
21
-7.705
0
LINE
8
RED2
6
CONTINUOUS
10
10.55
20
-7.705
11
10.553
21
-7.708
0
LINE
8
RED2
6
CONTINUOUS
10
10.553
20
-7.708
11
10.556
21
-7.714
0
LINE
8
RED2
6
CONTINUOUS
10
10.556
20
-7.714
11
10.556
21
-7.728
0
LINE
8
RED2
6
CONTINUOUS
10
10.556
20
-7.728
11
10.553
21
-7.734
0
LINE
8
RED2
6
CONTINUOUS
10
10.553
20
-7.734
11
10.55
21
-7.736
0
LINE
8
RED2
6
CONTINUOUS
10
10.55
20
-7.736
11
10.545
21
-7.739
0
LINE
8
RED2
6
CONTINUOUS
10
10.545
20
-7.739
11
10.528
21
-7.739
0
LINE
8
RED2
6
CONTINUOUS
10
10.528
20
-7.739
11
10.522
21
-7.736
0
LINE
8
RED2
6
CONTINUOUS
10
10.522
20
-7.736
11
10.519
21
-7.734
0
LINE
8
RED2
6
CONTINUOUS
10
10.623
20
-7.677
11
10.573
21
-7.753
0
LINE
8
RED2
6
CONTINUOUS
10
10.668
20
-7.7
11
10.668
21
-7.739
0
LINE
8
RED2
6
CONTINUOUS
10
10.654
20
-7.677
11
10.64
21
-7.72
0
LINE
8
RED2
6
CONTINUOUS
10
10.64
20
-7.72
11
10.677
21
-7.72
0
LINE
8
RED2
6
CONTINUOUS
10
6.969
20
-7.382
11
11.221
21
-7.382
0
LINE
8
RED2
6
CONTINUOUS
10
7.036
20
-7.409
11
7.081
21
-7.409
0
LINE
8
RED2
6
CONTINUOUS
10
7.048
20
-7.488
11
7.058
21
-7.409
0
LINE
8
RED2
6
CONTINUOUS
10
7.097
20
-7.488
11
7.104
21
-7.436
0
LINE
8
RED2
6
CONTINUOUS
10
7.107
20
-7.409
11
7.103
21
-7.413
0
LINE
8
RED2
6
CONTINUOUS
10
7.103
20
-7.413
11
7.106
21
-7.417
0
LINE
8
RED2
6
CONTINUOUS
10
7.106
20
-7.417
11
7.111
21
-7.413
0
LINE
8
RED2
6
CONTINUOUS
10
7.111
20
-7.413
11
7.107
21
-7.409
0
LINE
8
RED2
6
CONTINUOUS
10
7.107
20
-7.409
11
7.106
21
-7.417
0
LINE
8
RED2
6
CONTINUOUS
10
7.13
20
-7.436
11
7.16
21
-7.436
0
LINE
8
RED2
6
CONTINUOUS
10
7.145
20
-7.409
11
7.136
21
-7.477
0
LINE
8
RED2
6
CONTINUOUS
10
7.136
20
-7.477
11
7.139
21
-7.484
0
LINE
8
RED2
6
CONTINUOUS
10
7.139
20
-7.484
11
7.146
21
-7.488
0
LINE
8
RED2
6
CONTINUOUS
10
7.146
20
-7.488
11
7.154
21
-7.488
0
LINE
8
RED2
6
CONTINUOUS
10
7.191
20
-7.488
11
7.184
21
-7.484
0
LINE
8
RED2
6
CONTINUOUS
10
7.184
20
-7.484
11
7.182
21
-7.477
0
LINE
8
RED2
6
CONTINUOUS
10
7.182
20
-7.477
11
7.19
21
-7.409
0
LINE
8
RED2
6
CONTINUOUS
10
7.252
20
-7.484
11
7.244
21
-7.488
0
LINE
8
RED2
6
CONTINUOUS
10
7.244
20
-7.488
11
7.229
21
-7.488
0
LINE
8
RED2
6
CONTINUOUS
10
7.229
20
-7.488
11
7.222
21
-7.484
0
LINE
8
RED2
6
CONTINUOUS
10
7.222
20
-7.484
11
7.219
21
-7.477
0
LINE
8
RED2
6
CONTINUOUS
10
7.219
20
-7.477
11
7.223
21
-7.447
0
LINE
8
RED2
6
CONTINUOUS
10
7.223
20
-7.447
11
7.228
21
-7.439
0
LINE
8
RED2
6
CONTINUOUS
10
7.228
20
-7.439
11
7.236
21
-7.436
0
LINE
8
RED2
6
CONTINUOUS
10
7.236
20
-7.436
11
7.251
21
-7.436
0
LINE
8
RED2
6
CONTINUOUS
10
7.251
20
-7.436
11
7.258
21
-7.439
0
LINE
8
RED2
6
CONTINUOUS
10
7.258
20
-7.439
11
7.261
21
-7.447
0
LINE
8
RED2
6
CONTINUOUS
10
7.261
20
-7.447
11
7.26
21
-7.454
0
LINE
8
RED2
6
CONTINUOUS
10
7.26
20
-7.454
11
7.221
21
-7.462
0
LINE
8
RED2
6
CONTINUOUS
10
7.29
20
-7.481
11
7.293
21
-7.484
0
LINE
8
RED2
6
CONTINUOUS
10
7.293
20
-7.484
11
7.289
21
-7.488
0
LINE
8
RED2
6
CONTINUOUS
10
7.289
20
-7.488
11
7.286
21
-7.484
0
LINE
8
RED2
6
CONTINUOUS
10
7.286
20
-7.484
11
7.29
21
-7.481
0
LINE
8
RED2
6
CONTINUOUS
10
7.29
20
-7.481
11
7.289
21
-7.488
0
LINE
8
RED2
6
CONTINUOUS
10
7.295
20
-7.439
11
7.299
21
-7.443
0
LINE
8
RED2
6
CONTINUOUS
10
7.299
20
-7.443
11
7.294
21
-7.447
0
LINE
8
RED2
6
CONTINUOUS
10
7.294
20
-7.447
11
7.291
21
-7.443
0
LINE
8
RED2
6
CONTINUOUS
10
7.291
20
-7.443
11
7.295
21
-7.439
0
LINE
8
RED2
6
CONTINUOUS
10
7.295
20
-7.439
11
7.294
21
-7.447
0
LINE
8
RED2
6
CONTINUOUS
10
7.386
20
-7.466
11
7.424
21
-7.466
0
LINE
8
RED2
6
CONTINUOUS
10
7.376
20
-7.488
11
7.412
21
-7.409
0
LINE
8
RED2
6
CONTINUOUS
10
7.412
20
-7.409
11
7.428
21
-7.488
0
LINE
8
RED2
6
CONTINUOUS
10
7.455
20
-7.488
11
7.465
21
-7.409
0
LINE
8
RED2
6
CONTINUOUS
10
7.465
20
-7.409
11
7.484
21
-7.466
0
LINE
8
RED2
6
CONTINUOUS
10
7.484
20
-7.466
11
7.517
21
-7.409
0
LINE
8
RED2
6
CONTINUOUS
10
7.517
20
-7.409
11
7.507
21
-7.488
0
LINE
8
RED2
6
CONTINUOUS
10
7.669
20
-7.488
11
7.665
21
-7.488
0
LINE
8
RED2
6
CONTINUOUS
10
7.665
20
-7.488
11
7.658
21
-7.484
0
LINE
8
RED2
6
CONTINUOUS
10
7.658
20
-7.484
11
7.648
21
-7.473
0
LINE
8
RED2
6
CONTINUOUS
10
7.648
20
-7.473
11
7.633
21
-7.451
0
LINE
8
RED2
6
CONTINUOUS
10
7.633
20
-7.451
11
7.626
21
-7.439
0
LINE
8
RED2
6
CONTINUOUS
10
7.626
20
-7.439
11
7.624
21
-7.428
0
LINE
8
RED2
6
CONTINUOUS
10
7.624
20
-7.428
11
7.625
21
-7.421
0
LINE
8
RED2
6
CONTINUOUS
10
7.625
20
-7.421
11
7.63
21
-7.413
0
LINE
8
RED2
6
CONTINUOUS
10
7.63
20
-7.413
11
7.638
21
-7.409
0
LINE
8
RED2
6
CONTINUOUS
10
7.638
20
-7.409
11
7.641
21
-7.409
0
LINE
8
RED2
6
CONTINUOUS
10
7.641
20
-7.409
11
7.648
21
-7.413
0
LINE
8
RED2
6
CONTINUOUS
10
7.648
20
-7.413
11
7.651
21
-7.421
0
LINE
8
RED2
6
CONTINUOUS
10
7.651
20
-7.421
11
7.651
21
-7.424
0
LINE
8
RED2
6
CONTINUOUS
10
7.651
20
-7.424
11
7.646
21
-7.432
0
LINE
8
RED2
6
CONTINUOUS
10
7.646
20
-7.432
11
7.642
21
-7.436
0
LINE
8
RED2
6
CONTINUOUS
10
7.642
20
-7.436
11
7.617
21
-7.451
0
LINE
8
RED2
6
CONTINUOUS
10
7.617
20
-7.451
11
7.613
21
-7.454
0
LINE
8
RED2
6
CONTINUOUS
10
7.613
20
-7.454
11
7.609
21
-7.462
0
LINE
8
RED2
6
CONTINUOUS
10
7.609
20
-7.462
11
7.607
21
-7.473
0
LINE
8
RED2
6
CONTINUOUS
10
7.607
20
-7.473
11
7.61
21
-7.481
0
LINE
8
RED2
6
CONTINUOUS
10
7.61
20
-7.481
11
7.613
21
-7.484
0
LINE
8
RED2
6
CONTINUOUS
10
7.613
20
-7.484
11
7.62
21
-7.488
0
LINE
8
RED2
6
CONTINUOUS
10
7.62
20
-7.488
11
7.632
21
-7.488
0
LINE
8
RED2
6
CONTINUOUS
10
7.632
20
-7.488
11
7.64
21
-7.484
0
LINE
8
RED2
6
CONTINUOUS
10
7.64
20
-7.484
11
7.644
21
-7.481
0
LINE
8
RED2
6
CONTINUOUS
10
7.644
20
-7.481
11
7.657
21
-7.466
0
LINE
8
RED2
6
CONTINUOUS
10
7.657
20
-7.466
11
7.662
21
-7.454
0
LINE
8
RED2
6
CONTINUOUS
10
7.662
20
-7.454
11
7.663
21
-7.447
0
LINE
8
RED2
6
CONTINUOUS
10
7.795
20
-7.447
11
7.768
21
-7.447
0
LINE
8
RED2
6
CONTINUOUS
10
7.763
20
-7.488
11
7.773
21
-7.409
0
LINE
8
RED2
6
CONTINUOUS
10
7.773
20
-7.409
11
7.811
21
-7.409
0
LINE
8
RED2
6
CONTINUOUS
10
7.831
20
-7.488
11
7.841
21
-7.409
0
LINE
8
RED2
6
CONTINUOUS
10
7.841
20
-7.409
11
7.86
21
-7.466
0
LINE
8
RED2
6
CONTINUOUS
10
7.86
20
-7.466
11
7.893
21
-7.409
0
LINE
8
RED2
6
CONTINUOUS
10
7.893
20
-7.409
11
7.884
21
-7.488
0
LINE
8
RED2
6
CONTINUOUS
10
7.98
20
-7.409
11
8.025
21
-7.409
0
LINE
8
RED2
6
CONTINUOUS
10
7.993
20
-7.488
11
8.003
21
-7.409
0
LINE
8
RED2
6
CONTINUOUS
10
8.042
20
-7.488
11
8.048
21
-7.436
0
LINE
8
RED2
6
CONTINUOUS
10
8.046
20
-7.451
11
8.051
21
-7.443
0
LINE
8
RED2
6
CONTINUOUS
10
8.051
20
-7.443
11
8.055
21
-7.439
0
LINE
8
RED2
6
CONTINUOUS
10
8.055
20
-7.439
11
8.063
21
-7.436
0
LINE
8
RED2
6
CONTINUOUS
10
8.063
20
-7.436
11
8.071
21
-7.436
0
LINE
8
RED2
6
CONTINUOUS
10
8.124
20
-7.488
11
8.13
21
-7.447
0
LINE
8
RED2
6
CONTINUOUS
10
8.13
20
-7.447
11
8.127
21
-7.439
0
LINE
8
RED2
6
CONTINUOUS
10
8.127
20
-7.439
11
8.12
21
-7.436
0
LINE
8
RED2
6
CONTINUOUS
10
8.12
20
-7.436
11
8.105
21
-7.436
0
LINE
8
RED2
6
CONTINUOUS
10
8.105
20
-7.436
11
8.097
21
-7.439
0
LINE
8
RED2
6
CONTINUOUS
10
8.125
20
-7.484
11
8.117
21
-7.488
0
LINE
8
RED2
6
CONTINUOUS
10
8.117
20
-7.488
11
8.098
21
-7.488
0
LINE
8
RED2
6
CONTINUOUS
10
8.098
20
-7.488
11
8.091
21
-7.484
0
LINE
8
RED2
6
CONTINUOUS
10
8.091
20
-7.484
11
8.088
21
-7.477
0
LINE
8
RED2
6
CONTINUOUS
10
8.088
20
-7.477
11
8.089
21
-7.469
0
LINE
8
RED2
6
CONTINUOUS
10
8.089
20
-7.469
11
8.094
21
-7.462
0
LINE
8
RED2
6
CONTINUOUS
10
8.094
20
-7.462
11
8.102
21
-7.458
0
LINE
8
RED2
6
CONTINUOUS
10
8.102
20
-7.458
11
8.121
21
-7.458
0
LINE
8
RED2
6
CONTINUOUS
10
8.121
20
-7.458
11
8.129
21
-7.454
0
LINE
8
RED2
6
CONTINUOUS
10
8.169
20
-7.436
11
8.162
21
-7.488
0
LINE
8
RED2
6
CONTINUOUS
10
8.168
20
-7.443
11
8.172
21
-7.439
0
LINE
8
RED2
6
CONTINUOUS
10
8.172
20
-7.439
11
8.18
21
-7.436
0
LINE
8
RED2
6
CONTINUOUS
10
8.18
20
-7.436
11
8.191
21
-7.436
0
LINE
8
RED2
6
CONTINUOUS
10
8.191
20
-7.436
11
8.198
21
-7.439
0
LINE
8
RED2
6
CONTINUOUS
10
8.198
20
-7.439
11
8.201
21
-7.447
0
LINE
8
RED2
6
CONTINUOUS
10
8.201
20
-7.447
11
8.196
21
-7.488
0
LINE
8
RED2
6
CONTINUOUS
10
8.23
20
-7.484
11
8.237
21
-7.488
0
LINE
8
RED2
6
CONTINUOUS
10
8.237
20
-7.488
11
8.252
21
-7.488
0
LINE
8
RED2
6
CONTINUOUS
10
8.252
20
-7.488
11
8.26
21
-7.484
0
LINE
8
RED2
6
CONTINUOUS
10
8.26
20
-7.484
11
8.265
21
-7.477
0
LINE
8
RED2
6
CONTINUOUS
10
8.265
20
-7.477
11
8.265
21
-7.473
0
LINE
8
RED2
6
CONTINUOUS
10
8.265
20
-7.473
11
8.263
21
-7.466
0
LINE
8
RED2
6
CONTINUOUS
10
8.263
20
-7.466
11
8.256
21
-7.462
0
LINE
8
RED2
6
CONTINUOUS
10
8.256
20
-7.462
11
8.244
21
-7.462
0
LINE
8
RED2
6
CONTINUOUS
10
8.244
20
-7.462
11
8.237
21
-7.458
0
LINE
8
RED2
6
CONTINUOUS
10
8.237
20
-7.458
11
8.234
21
-7.451
0
LINE
8
RED2
6
CONTINUOUS
10
8.234
20
-7.451
11
8.235
21
-7.447
0
LINE
8
RED2
6
CONTINUOUS
10
8.235
20
-7.447
11
8.24
21
-7.439
0
LINE
8
RED2
6
CONTINUOUS
10
8.24
20
-7.439
11
8.248
21
-7.436
0
LINE
8
RED2
6
CONTINUOUS
10
8.248
20
-7.436
11
8.259
21
-7.436
0
LINE
8
RED2
6
CONTINUOUS
10
8.259
20
-7.436
11
8.266
21
-7.439
0
LINE
8
RED2
6
CONTINUOUS
10
8.332
20
-7.484
11
8.324
21
-7.488
0
LINE
8
RED2
6
CONTINUOUS
10
8.324
20
-7.488
11
8.309
21
-7.488
0
LINE
8
RED2
6
CONTINUOUS
10
8.309
20
-7.488
11
8.302
21
-7.484
0
LINE
8
RED2
6
CONTINUOUS
10
8.302
20
-7.484
11
8.298
21
-7.481
0
LINE
8
RED2
6
CONTINUOUS
10
8.298
20
-7.481
11
8.296
21
-7.473
0
LINE
8
RED2
6
CONTINUOUS
10
8.296
20
-7.473
11
8.298
21
-7.451
0
LINE
8
RED2
6
CONTINUOUS
10
8.298
20
-7.451
11
8.303
21
-7.443
0
LINE
8
RED2
6
CONTINUOUS
10
8.303
20
-7.443
11
8.307
21
-7.439
0
LINE
8
RED2
6
CONTINUOUS
10
8.307
20
-7.439
11
8.315
21
-7.436
0
LINE
8
RED2
6
CONTINUOUS
10
8.315
20
-7.436
11
8.33
21
-7.436
0
LINE
8
RED2
6
CONTINUOUS
10
8.33
20
-7.436
11
8.337
21
-7.439
0
LINE
8
RED2
6
CONTINUOUS
10
8.396
20
-7.484
11
8.388
21
-7.488
0
LINE
8
RED2
6
CONTINUOUS
10
8.388
20
-7.488
11
8.373
21
-7.488
0
LINE
8
RED2
6
CONTINUOUS
10
8.373
20
-7.488
11
8.366
21
-7.484
0
LINE
8
RED2
6
CONTINUOUS
10
8.366
20
-7.484
11
8.363
21
-7.477
0
LINE
8
RED2
6
CONTINUOUS
10
8.363
20
-7.477
11
8.367
21
-7.447
0
LINE
8
RED2
6
CONTINUOUS
10
8.367
20
-7.447
11
8.371
21
-7.439
0
LINE
8
RED2
6
CONTINUOUS
10
8.371
20
-7.439
11
8.379
21
-7.436
0
LINE
8
RED2
6
CONTINUOUS
10
8.379
20
-7.436
11
8.394
21
-7.436
0
LINE
8
RED2
6
CONTINUOUS
10
8.394
20
-7.436
11
8.401
21
-7.439
0
LINE
8
RED2
6
CONTINUOUS
10
8.401
20
-7.439
11
8.404
21
-7.447
0
LINE
8
RED2
6
CONTINUOUS
10
8.404
20
-7.447
11
8.403
21
-7.454
0
LINE
8
RED2
6
CONTINUOUS
10
8.403
20
-7.454
11
8.365
21
-7.462
0
LINE
8
RED2
6
CONTINUOUS
10
8.433
20
-7.488
11
8.439
21
-7.436
0
LINE
8
RED2
6
CONTINUOUS
10
8.443
20
-7.409
11
8.438
21
-7.413
0
LINE
8
RED2
6
CONTINUOUS
10
8.438
20
-7.413
11
8.442
21
-7.417
0
LINE
8
RED2
6
CONTINUOUS
10
8.442
20
-7.417
11
8.446
21
-7.413
0
LINE
8
RED2
6
CONTINUOUS
10
8.446
20
-7.413
11
8.443
21
-7.409
0
LINE
8
RED2
6
CONTINUOUS
10
8.443
20
-7.409
11
8.442
21
-7.417
0
LINE
8
RED2
6
CONTINUOUS
10
8.47
20
-7.436
11
8.482
21
-7.488
0
LINE
8
RED2
6
CONTINUOUS
10
8.482
20
-7.488
11
8.507
21
-7.436
0
LINE
8
RED2
6
CONTINUOUS
10
8.561
20
-7.484
11
8.553
21
-7.488
0
LINE
8
RED2
6
CONTINUOUS
10
8.553
20
-7.488
11
8.538
21
-7.488
0
LINE
8
RED2
6
CONTINUOUS
10
8.538
20
-7.488
11
8.531
21
-7.484
0
LINE
8
RED2
6
CONTINUOUS
10
8.531
20
-7.484
11
8.528
21
-7.477
0
LINE
8
RED2
6
CONTINUOUS
10
8.528
20
-7.477
11
8.532
21
-7.447
0
LINE
8
RED2
6
CONTINUOUS
10
8.532
20
-7.447
11
8.537
21
-7.439
0
LINE
8
RED2
6
CONTINUOUS
10
8.537
20
-7.439
11
8.545
21
-7.436
0
LINE
8
RED2
6
CONTINUOUS
10
8.545
20
-7.436
11
8.56
21
-7.436
0
LINE
8
RED2
6
CONTINUOUS
10
8.56
20
-7.436
11
8.567
21
-7.439
0
LINE
8
RED2
6
CONTINUOUS
10
8.567
20
-7.439
11
8.57
21
-7.447
0
LINE
8
RED2
6
CONTINUOUS
10
8.57
20
-7.447
11
8.569
21
-7.454
0
LINE
8
RED2
6
CONTINUOUS
10
8.569
20
-7.454
11
8.53
21
-7.462
0
LINE
8
RED2
6
CONTINUOUS
10
8.598
20
-7.488
11
8.605
21
-7.436
0
LINE
8
RED2
6
CONTINUOUS
10
8.603
20
-7.451
11
8.608
21
-7.443
0
LINE
8
RED2
6
CONTINUOUS
10
8.608
20
-7.443
11
8.612
21
-7.439
0
LINE
8
RED2
6
CONTINUOUS
10
8.612
20
-7.439
11
8.62
21
-7.436
0
LINE
8
RED2
6
CONTINUOUS
10
8.62
20
-7.436
11
8.628
21
-7.436
0
LINE
8
RED2
6
CONTINUOUS
10
7.044
20
-7.306
11
7.025
21
-7.306
0
LINE
8
RED2
6
CONTINUOUS
10
7.025
20
-7.337
11
7.025
21
-7.278
0
LINE
8
RED2
6
CONTINUOUS
10
7.025
20
-7.278
11
7.053
21
-7.278
0
LINE
8
RED2
6
CONTINUOUS
10
7.075
20
-7.337
11
7.075
21
-7.298
0
LINE
8
RED2
6
CONTINUOUS
10
7.075
20
-7.278
11
7.072
21
-7.281
0
LINE
8
RED2
6
CONTINUOUS
10
7.072
20
-7.281
11
7.075
21
-7.284
0
LINE
8
RED2
6
CONTINUOUS
10
7.075
20
-7.284
11
7.078
21
-7.281
0
LINE
8
RED2
6
CONTINUOUS
10
7.078
20
-7.281
11
7.075
21
-7.278
0
LINE
8
RED2
6
CONTINUOUS
10
7.075
20
-7.278
11
7.075
21
-7.284
0
LINE
8
RED2
6
CONTINUOUS
10
7.112
20
-7.337
11
7.106
21
-7.334
0
LINE
8
RED2
6
CONTINUOUS
10
7.106
20
-7.334
11
7.103
21
-7.329
0
LINE
8
RED2
6
CONTINUOUS
10
7.103
20
-7.329
11
7.103
21
-7.278
0
LINE
8
RED2
6
CONTINUOUS
10
7.157
20
-7.334
11
7.151
21
-7.337
0
LINE
8
RED2
6
CONTINUOUS
10
7.151
20
-7.337
11
7.14
21
-7.337
0
LINE
8
RED2
6
CONTINUOUS
10
7.14
20
-7.337
11
7.134
21
-7.334
0
LINE
8
RED2
6
CONTINUOUS
10
7.134
20
-7.334
11
7.131
21
-7.329
0
LINE
8
RED2
6
CONTINUOUS
10
7.131
20
-7.329
11
7.131
21
-7.306
0
LINE
8
RED2
6
CONTINUOUS
10
7.131
20
-7.306
11
7.134
21
-7.301
0
LINE
8
RED2
6
CONTINUOUS
10
7.134
20
-7.301
11
7.14
21
-7.298
0
LINE
8
RED2
6
CONTINUOUS
10
7.14
20
-7.298
11
7.151
21
-7.298
0
LINE
8
RED2
6
CONTINUOUS
10
7.151
20
-7.298
11
7.157
21
-7.301
0
LINE
8
RED2
6
CONTINUOUS
10
7.157
20
-7.301
11
7.159
21
-7.306
0
LINE
8
RED2
6
CONTINUOUS
10
7.159
20
-7.306
11
7.159
21
-7.312
0
LINE
8
RED2
6
CONTINUOUS
10
7.159
20
-7.312
11
7.131
21
-7.318
0
LINE
8
RED2
6
CONTINUOUS
10
7.185
20
-7.332
11
7.188
21
-7.334
0
LINE
8
RED2
6
CONTINUOUS
10
7.188
20
-7.334
11
7.185
21
-7.337
0
LINE
8
RED2
6
CONTINUOUS
10
7.185
20
-7.337
11
7.182
21
-7.334
0
LINE
8
RED2
6
CONTINUOUS
10
7.182
20
-7.334
11
7.185
21
-7.332
0
LINE
8
RED2
6
CONTINUOUS
10
7.185
20
-7.332
11
7.185
21
-7.337
0
LINE
8
RED2
6
CONTINUOUS
10
7.185
20
-7.301
11
7.188
21
-7.303
0
LINE
8
RED2
6
CONTINUOUS
10
7.188
20
-7.303
11
7.185
21
-7.306
0
LINE
8
RED2
6
CONTINUOUS
10
7.185
20
-7.306
11
7.182
21
-7.303
0
LINE
8
RED2
6
CONTINUOUS
10
7.182
20
-7.303
11
7.185
21
-7.301
0
LINE
8
RED2
6
CONTINUOUS
10
7.185
20
-7.301
11
7.185
21
-7.306
0
LINE
8
RED2
6
CONTINUOUS
10
7.255
20
-7.32
11
7.283
21
-7.32
0
LINE
8
RED2
6
CONTINUOUS
10
7.249
20
-7.337
11
7.269
21
-7.278
0
LINE
8
RED2
6
CONTINUOUS
10
7.269
20
-7.278
11
7.289
21
-7.337
0
LINE
8
RED2
6
CONTINUOUS
10
7.308
20
-7.337
11
7.308
21
-7.278
0
LINE
8
RED2
6
CONTINUOUS
10
7.308
20
-7.278
11
7.322
21
-7.278
0
LINE
8
RED2
6
CONTINUOUS
10
7.322
20
-7.278
11
7.331
21
-7.281
0
LINE
8
RED2
6
CONTINUOUS
10
7.331
20
-7.281
11
7.336
21
-7.287
0
LINE
8
RED2
6
CONTINUOUS
10
7.336
20
-7.287
11
7.339
21
-7.292
0
LINE
8
RED2
6
CONTINUOUS
10
7.339
20
-7.292
11
7.342
21
-7.303
0
LINE
8
RED2
6
CONTINUOUS
10
7.342
20
-7.303
11
7.342
21
-7.312
0
LINE
8
RED2
6
CONTINUOUS
10
7.342
20
-7.312
11
7.339
21
-7.323
0
LINE
8
RED2
6
CONTINUOUS
10
7.339
20
-7.323
11
7.336
21
-7.329
0
LINE
8
RED2
6
CONTINUOUS
10
7.336
20
-7.329
11
7.331
21
-7.334
0
LINE
8
RED2
6
CONTINUOUS
10
7.331
20
-7.334
11
7.322
21
-7.337
0
LINE
8
RED2
6
CONTINUOUS
10
7.322
20
-7.337
11
7.308
21
-7.337
0
LINE
8
RED2
6
CONTINUOUS
10
7.37
20
-7.337
11
7.381
21
-7.337
0
LINE
8
RED2
6
CONTINUOUS
10
7.381
20
-7.337
11
7.387
21
-7.334
0
LINE
8
RED2
6
CONTINUOUS
10
7.387
20
-7.334
11
7.39
21
-7.332
0
LINE
8
RED2
6
CONTINUOUS
10
7.39
20
-7.332
11
7.395
21
-7.323
0
LINE
8
RED2
6
CONTINUOUS
10
7.395
20
-7.323
11
7.398
21
-7.312
0
LINE
8
RED2
6
CONTINUOUS
10
7.398
20
-7.312
11
7.398
21
-7.289
0
LINE
8
RED2
6
CONTINUOUS
10
7.398
20
-7.289
11
7.395
21
-7.284
0
LINE
8
RED2
6
CONTINUOUS
10
7.395
20
-7.284
11
7.393
21
-7.281
0
LINE
8
RED2
6
CONTINUOUS
10
7.393
20
-7.281
11
7.387
21
-7.278
0
LINE
8
RED2
6
CONTINUOUS
10
7.387
20
-7.278
11
7.376
21
-7.278
0
LINE
8
RED2
6
CONTINUOUS
10
7.376
20
-7.278
11
7.37
21
-7.281
0
LINE
8
RED2
6
CONTINUOUS
10
7.37
20
-7.281
11
7.367
21
-7.284
0
LINE
8
RED2
6
CONTINUOUS
10
7.367
20
-7.284
11
7.365
21
-7.289
0
LINE
8
RED2
6
CONTINUOUS
10
7.365
20
-7.289
11
7.365
21
-7.303
0
LINE
8
RED2
6
CONTINUOUS
10
7.365
20
-7.303
11
7.367
21
-7.309
0
LINE
8
RED2
6
CONTINUOUS
10
7.367
20
-7.309
11
7.37
21
-7.312
0
LINE
8
RED2
6
CONTINUOUS
10
7.37
20
-7.312
11
7.376
21
-7.315
0
LINE
8
RED2
6
CONTINUOUS
10
7.376
20
-7.315
11
7.387
21
-7.315
0
LINE
8
RED2
6
CONTINUOUS
10
7.387
20
-7.315
11
7.393
21
-7.312
0
LINE
8
RED2
6
CONTINUOUS
10
7.393
20
-7.312
11
7.395
21
-7.309
0
LINE
8
RED2
6
CONTINUOUS
10
7.395
20
-7.309
11
7.398
21
-7.303
0
LINE
8
RED2
6
CONTINUOUS
10
7.432
20
-7.303
11
7.426
21
-7.301
0
LINE
8
RED2
6
CONTINUOUS
10
7.426
20
-7.301
11
7.424
21
-7.298
0
LINE
8
RED2
6
CONTINUOUS
10
7.424
20
-7.298
11
7.421
21
-7.292
0
LINE
8
RED2
6
CONTINUOUS
10
7.421
20
-7.292
11
7.421
21
-7.289
0
LINE
8
RED2
6
CONTINUOUS
10
7.421
20
-7.289
11
7.424
21
-7.284
0
LINE
8
RED2
6
CONTINUOUS
10
7.424
20
-7.284
11
7.426
21
-7.281
0
LINE
8
RED2
6
CONTINUOUS
10
7.426
20
-7.281
11
7.432
21
-7.278
0
LINE
8
RED2
6
CONTINUOUS
10
7.432
20
-7.278
11
7.443
21
-7.278
0
LINE
8
RED2
6
CONTINUOUS
10
7.443
20
-7.278
11
7.449
21
-7.281
0
LINE
8
RED2
6
CONTINUOUS
10
7.449
20
-7.281
11
7.452
21
-7.284
0
LINE
8
RED2
6
CONTINUOUS
10
7.452
20
-7.284
11
7.454
21
-7.289
0
LINE
8
RED2
6
CONTINUOUS
10
7.454
20
-7.289
11
7.454
21
-7.292
0
LINE
8
RED2
6
CONTINUOUS
10
7.454
20
-7.292
11
7.452
21
-7.298
0
LINE
8
RED2
6
CONTINUOUS
10
7.452
20
-7.298
11
7.449
21
-7.301
0
LINE
8
RED2
6
CONTINUOUS
10
7.449
20
-7.301
11
7.443
21
-7.303
0
LINE
8
RED2
6
CONTINUOUS
10
7.443
20
-7.303
11
7.432
21
-7.303
0
LINE
8
RED2
6
CONTINUOUS
10
7.432
20
-7.303
11
7.426
21
-7.306
0
LINE
8
RED2
6
CONTINUOUS
10
7.426
20
-7.306
11
7.424
21
-7.309
0
LINE
8
RED2
6
CONTINUOUS
10
7.424
20
-7.309
11
7.421
21
-7.315
0
LINE
8
RED2
6
CONTINUOUS
10
7.421
20
-7.315
11
7.421
21
-7.326
0
LINE
8
RED2
6
CONTINUOUS
10
7.421
20
-7.326
11
7.424
21
-7.332
0
LINE
8
RED2
6
CONTINUOUS
10
7.424
20
-7.332
11
7.426
21
-7.334
0
LINE
8
RED2
6
CONTINUOUS
10
7.426
20
-7.334
11
7.432
21
-7.337
0
LINE
8
RED2
6
CONTINUOUS
10
7.432
20
-7.337
11
7.443
21
-7.337
0
LINE
8
RED2
6
CONTINUOUS
10
7.443
20
-7.337
11
7.449
21
-7.334
0
LINE
8
RED2
6
CONTINUOUS
10
7.449
20
-7.334
11
7.452
21
-7.332
0
LINE
8
RED2
6
CONTINUOUS
10
7.452
20
-7.332
11
7.454
21
-7.326
0
LINE
8
RED2
6
CONTINUOUS
10
7.454
20
-7.326
11
7.454
21
-7.315
0
LINE
8
RED2
6
CONTINUOUS
10
7.454
20
-7.315
11
7.452
21
-7.309
0
LINE
8
RED2
6
CONTINUOUS
10
7.452
20
-7.309
11
7.449
21
-7.306
0
LINE
8
RED2
6
CONTINUOUS
10
7.449
20
-7.306
11
7.443
21
-7.303
0
LINE
8
RED2
6
CONTINUOUS
10
7.474
20
-7.278
11
7.511
21
-7.278
0
LINE
8
RED2
6
CONTINUOUS
10
7.511
20
-7.278
11
7.491
21
-7.301
0
LINE
8
RED2
6
CONTINUOUS
10
7.491
20
-7.301
11
7.499
21
-7.301
0
LINE
8
RED2
6
CONTINUOUS
10
7.499
20
-7.301
11
7.505
21
-7.303
0
LINE
8
RED2
6
CONTINUOUS
10
7.505
20
-7.303
11
7.508
21
-7.306
0
LINE
8
RED2
6
CONTINUOUS
10
7.508
20
-7.306
11
7.511
21
-7.312
0
LINE
8
RED2
6
CONTINUOUS
10
7.511
20
-7.312
11
7.511
21
-7.326
0
LINE
8
RED2
6
CONTINUOUS
10
7.511
20
-7.326
11
7.508
21
-7.332
0
LINE
8
RED2
6
CONTINUOUS
10
7.508
20
-7.332
11
7.505
21
-7.334
0
LINE
8
RED2
6
CONTINUOUS
10
7.505
20
-7.334
11
7.499
21
-7.337
0
LINE
8
RED2
6
CONTINUOUS
10
7.499
20
-7.337
11
7.483
21
-7.337
0
LINE
8
RED2
6
CONTINUOUS
10
7.483
20
-7.337
11
7.477
21
-7.334
0
LINE
8
RED2
6
CONTINUOUS
10
7.477
20
-7.334
11
7.474
21
-7.332
0
LINE
8
RED2
6
CONTINUOUS
10
7.53
20
-7.278
11
7.567
21
-7.278
0
LINE
8
RED2
6
CONTINUOUS
10
7.567
20
-7.278
11
7.547
21
-7.301
0
LINE
8
RED2
6
CONTINUOUS
10
7.547
20
-7.301
11
7.556
21
-7.301
0
LINE
8
RED2
6
CONTINUOUS
10
7.556
20
-7.301
11
7.561
21
-7.303
0
LINE
8
RED2
6
CONTINUOUS
10
7.561
20
-7.303
11
7.564
21
-7.306
0
LINE
8
RED2
6
CONTINUOUS
10
7.564
20
-7.306
11
7.567
21
-7.312
0
LINE
8
RED2
6
CONTINUOUS
10
7.567
20
-7.312
11
7.567
21
-7.326
0
LINE
8
RED2
6
CONTINUOUS
10
7.567
20
-7.326
11
7.564
21
-7.332
0
LINE
8
RED2
6
CONTINUOUS
10
7.564
20
-7.332
11
7.561
21
-7.334
0
LINE
8
RED2
6
CONTINUOUS
10
7.561
20
-7.334
11
7.556
21
-7.337
0
LINE
8
RED2
6
CONTINUOUS
10
7.556
20
-7.337
11
7.539
21
-7.337
0
LINE
8
RED2
6
CONTINUOUS
10
7.539
20
-7.337
11
7.533
21
-7.334
0
LINE
8
RED2
6
CONTINUOUS
10
7.533
20
-7.334
11
7.53
21
-7.332
0
LINE
8
RED2
6
CONTINUOUS
10
7.586
20
-7.278
11
7.623
21
-7.278
0
LINE
8
RED2
6
CONTINUOUS
10
7.623
20
-7.278
11
7.603
21
-7.301
0
LINE
8
RED2
6
CONTINUOUS
10
7.603
20
-7.301
11
7.612
21
-7.301
0
LINE
8
RED2
6
CONTINUOUS
10
7.612
20
-7.301
11
7.617
21
-7.303
0
LINE
8
RED2
6
CONTINUOUS
10
7.617
20
-7.303
11
7.62
21
-7.306
0
LINE
8
RED2
6
CONTINUOUS
10
7.62
20
-7.306
11
7.623
21
-7.312
0
LINE
8
RED2
6
CONTINUOUS
10
7.623
20
-7.312
11
7.623
21
-7.326
0
LINE
8
RED2
6
CONTINUOUS
10
7.623
20
-7.326
11
7.62
21
-7.332
0
LINE
8
RED2
6
CONTINUOUS
10
7.62
20
-7.332
11
7.617
21
-7.334
0
LINE
8
RED2
6
CONTINUOUS
10
7.617
20
-7.334
11
7.612
21
-7.337
0
LINE
8
RED2
6
CONTINUOUS
10
7.612
20
-7.337
11
7.595
21
-7.337
0
LINE
8
RED2
6
CONTINUOUS
10
7.595
20
-7.337
11
7.589
21
-7.334
0
LINE
8
RED2
6
CONTINUOUS
10
7.589
20
-7.334
11
7.586
21
-7.332
0
LINE
8
RED2
6
CONTINUOUS
10
7.685
20
-7.298
11
7.707
21
-7.298
0
LINE
8
RED2
6
CONTINUOUS
10
7.693
20
-7.337
11
7.693
21
-7.287
0
LINE
8
RED2
6
CONTINUOUS
10
7.693
20
-7.287
11
7.696
21
-7.281
0
LINE
8
RED2
6
CONTINUOUS
10
7.696
20
-7.281
11
7.702
21
-7.278
0
LINE
8
RED2
6
CONTINUOUS
10
7.702
20
-7.278
11
7.707
21
-7.278
0
LINE
8
RED2
6
CONTINUOUS
10
7.727
20
-7.337
11
7.727
21
-7.298
0
LINE
8
RED2
6
CONTINUOUS
10
7.727
20
-7.278
11
7.724
21
-7.281
0
LINE
8
RED2
6
CONTINUOUS
10
7.724
20
-7.281
11
7.727
21
-7.284
0
LINE
8
RED2
6
CONTINUOUS
10
7.727
20
-7.284
11
7.73
21
-7.281
0
LINE
8
RED2
6
CONTINUOUS
10
7.73
20
-7.281
11
7.727
21
-7.278
0
LINE
8
RED2
6
CONTINUOUS
10
7.727
20
-7.278
11
7.727
21
-7.284
0
LINE
8
RED2
6
CONTINUOUS
10
7.763
20
-7.337
11
7.758
21
-7.334
0
LINE
8
RED2
6
CONTINUOUS
10
7.758
20
-7.334
11
7.755
21
-7.329
0
LINE
8
RED2
6
CONTINUOUS
10
7.755
20
-7.329
11
7.755
21
-7.278
0
LINE
8
RED2
6
CONTINUOUS
10
7.778
20
-7.298
11
7.8
21
-7.298
0
LINE
8
RED2
6
CONTINUOUS
10
7.786
20
-7.278
11
7.786
21
-7.329
0
LINE
8
RED2
6
CONTINUOUS
10
7.786
20
-7.329
11
7.789
21
-7.334
0
LINE
8
RED2
6
CONTINUOUS
10
7.789
20
-7.334
11
7.794
21
-7.337
0
LINE
8
RED2
6
CONTINUOUS
10
7.794
20
-7.337
11
7.8
21
-7.337
0
LINE
8
RED2
6
CONTINUOUS
10
7.842
20
-7.334
11
7.837
21
-7.337
0
LINE
8
RED2
6
CONTINUOUS
10
7.837
20
-7.337
11
7.825
21
-7.337
0
LINE
8
RED2
6
CONTINUOUS
10
7.825
20
-7.337
11
7.82
21
-7.334
0
LINE
8
RED2
6
CONTINUOUS
10
7.82
20
-7.334
11
7.817
21
-7.329
0
LINE
8
RED2
6
CONTINUOUS
10
7.817
20
-7.329
11
7.817
21
-7.306
0
LINE
8
RED2
6
CONTINUOUS
10
7.817
20
-7.306
11
7.82
21
-7.301
0
LINE
8
RED2
6
CONTINUOUS
10
7.82
20
-7.301
11
7.825
21
-7.298
0
LINE
8
RED2
6
CONTINUOUS
10
7.825
20
-7.298
11
7.837
21
-7.298
0
LINE
8
RED2
6
CONTINUOUS
10
7.837
20
-7.298
11
7.842
21
-7.301
0
LINE
8
RED2
6
CONTINUOUS
10
7.842
20
-7.301
11
7.845
21
-7.306
0
LINE
8
RED2
6
CONTINUOUS
10
7.845
20
-7.306
11
7.845
21
-7.312
0
LINE
8
RED2
6
CONTINUOUS
10
7.845
20
-7.312
11
7.817
21
-7.318
0
LINE
8
RED2
6
CONTINUOUS
10
7.87
20
-7.337
11
7.87
21
-7.298
0
LINE
8
RED2
6
CONTINUOUS
10
7.87
20
-7.309
11
7.873
21
-7.303
0
LINE
8
RED2
6
CONTINUOUS
10
7.873
20
-7.303
11
7.876
21
-7.301
0
LINE
8
RED2
6
CONTINUOUS
10
7.876
20
-7.301
11
7.881
21
-7.298
0
LINE
8
RED2
6
CONTINUOUS
10
7.881
20
-7.298
11
7.887
21
-7.298
0
LINE
8
RED2
6
CONTINUOUS
10
7.907
20
-7.332
11
7.91
21
-7.334
0
LINE
8
RED2
6
CONTINUOUS
10
7.91
20
-7.334
11
7.907
21
-7.337
0
LINE
8
RED2
6
CONTINUOUS
10
7.907
20
-7.337
11
7.904
21
-7.334
0
LINE
8
RED2
6
CONTINUOUS
10
7.904
20
-7.334
11
7.907
21
-7.332
0
LINE
8
RED2
6
CONTINUOUS
10
7.907
20
-7.332
11
7.907
21
-7.337
0
LINE
8
RED2
6
CONTINUOUS
10
7.932
20
-7.334
11
7.938
21
-7.337
0
LINE
8
RED2
6
CONTINUOUS
10
7.938
20
-7.337
11
7.949
21
-7.337
0
LINE
8
RED2
6
CONTINUOUS
10
7.949
20
-7.337
11
7.955
21
-7.334
0
LINE
8
RED2
6
CONTINUOUS
10
7.955
20
-7.334
11
7.957
21
-7.329
0
LINE
8
RED2
6
CONTINUOUS
10
7.957
20
-7.329
11
7.957
21
-7.326
0
LINE
8
RED2
6
CONTINUOUS
10
7.957
20
-7.326
11
7.955
21
-7.32
0
LINE
8
RED2
6
CONTINUOUS
10
7.955
20
-7.32
11
7.949
21
-7.318
0
LINE
8
RED2
6
CONTINUOUS
10
7.949
20
-7.318
11
7.94
21
-7.318
0
LINE
8
RED2
6
CONTINUOUS
10
7.94
20
-7.318
11
7.935
21
-7.315
0
LINE
8
RED2
6
CONTINUOUS
10
7.935
20
-7.315
11
7.932
21
-7.309
0
LINE
8
RED2
6
CONTINUOUS
10
7.932
20
-7.309
11
7.932
21
-7.306
0
LINE
8
RED2
6
CONTINUOUS
10
7.932
20
-7.306
11
7.935
21
-7.301
0
LINE
8
RED2
6
CONTINUOUS
10
7.935
20
-7.301
11
7.94
21
-7.298
0
LINE
8
RED2
6
CONTINUOUS
10
7.94
20
-7.298
11
7.949
21
-7.298
0
LINE
8
RED2
6
CONTINUOUS
10
7.949
20
-7.298
11
7.955
21
-7.301
0
LINE
8
RED2
6
CONTINUOUS
10
8.008
20
-7.334
11
8.002
21
-7.337
0
LINE
8
RED2
6
CONTINUOUS
10
8.002
20
-7.337
11
7.991
21
-7.337
0
LINE
8
RED2
6
CONTINUOUS
10
7.991
20
-7.337
11
7.985
21
-7.334
0
LINE
8
RED2
6
CONTINUOUS
10
7.985
20
-7.334
11
7.983
21
-7.332
0
LINE
8
RED2
6
CONTINUOUS
10
7.983
20
-7.332
11
7.98
21
-7.326
0
LINE
8
RED2
6
CONTINUOUS
10
7.98
20
-7.326
11
7.98
21
-7.309
0
LINE
8
RED2
6
CONTINUOUS
10
7.98
20
-7.309
11
7.983
21
-7.303
0
LINE
8
RED2
6
CONTINUOUS
10
7.983
20
-7.303
11
7.985
21
-7.301
0
LINE
8
RED2
6
CONTINUOUS
10
7.985
20
-7.301
11
7.991
21
-7.298
0
LINE
8
RED2
6
CONTINUOUS
10
7.991
20
-7.298
11
8.002
21
-7.298
0
LINE
8
RED2
6
CONTINUOUS
10
8.002
20
-7.298
11
8.008
21
-7.301
0
LINE
8
RED2
6
CONTINUOUS
10
8.033
20
-7.337
11
8.033
21
-7.278
0
LINE
8
RED2
6
CONTINUOUS
10
8.058
20
-7.337
11
8.058
21
-7.306
0
LINE
8
RED2
6
CONTINUOUS
10
8.058
20
-7.306
11
8.056
21
-7.301
0
LINE
8
RED2
6
CONTINUOUS
10
8.056
20
-7.301
11
8.05
21
-7.298
0
LINE
8
RED2
6
CONTINUOUS
10
8.05
20
-7.298
11
8.042
21
-7.298
0
LINE
8
RED2
6
CONTINUOUS
10
8.042
20
-7.298
11
8.036
21
-7.301
0
LINE
8
RED2
6
CONTINUOUS
10
8.036
20
-7.301
11
8.033
21
-7.303
0
LINE
8
RED2
6
CONTINUOUS
10
6.969
20
-7.146
11
11.221
21
-7.146
0
LINE
8
RED2
6
CONTINUOUS
10
7.022
20
-7.228
11
7.03
21
-7.231
0
LINE
8
RED2
6
CONTINUOUS
10
7.03
20
-7.231
11
7.044
21
-7.231
0
LINE
8
RED2
6
CONTINUOUS
10
7.044
20
-7.231
11
7.05
21
-7.228
0
LINE
8
RED2
6
CONTINUOUS
10
7.05
20
-7.228
11
7.053
21
-7.226
0
LINE
8
RED2
6
CONTINUOUS
10
7.053
20
-7.226
11
7.055
21
-7.22
0
LINE
8
RED2
6
CONTINUOUS
10
7.055
20
-7.22
11
7.055
21
-7.214
0
LINE
8
RED2
6
CONTINUOUS
10
7.055
20
-7.214
11
7.053
21
-7.209
0
LINE
8
RED2
6
CONTINUOUS
10
7.053
20
-7.209
11
7.05
21
-7.206
0
LINE
8
RED2
6
CONTINUOUS
10
7.05
20
-7.206
11
7.044
21
-7.203
0
LINE
8
RED2
6
CONTINUOUS
10
7.044
20
-7.203
11
7.033
21
-7.2
0
LINE
8
RED2
6
CONTINUOUS
10
7.033
20
-7.2
11
7.027
21
-7.197
0
LINE
8
RED2
6
CONTINUOUS
10
7.027
20
-7.197
11
7.025
21
-7.195
0
LINE
8
RED2
6
CONTINUOUS
10
7.025
20
-7.195
11
7.022
21
-7.189
0
LINE
8
RED2
6
CONTINUOUS
10
7.022
20
-7.189
11
7.022
21
-7.183
0
LINE
8
RED2
6
CONTINUOUS
10
7.022
20
-7.183
11
7.025
21
-7.178
0
LINE
8
RED2
6
CONTINUOUS
10
7.025
20
-7.178
11
7.027
21
-7.175
0
LINE
8
RED2
6
CONTINUOUS
10
7.027
20
-7.175
11
7.033
21
-7.172
0
LINE
8
RED2
6
CONTINUOUS
10
7.033
20
-7.172
11
7.047
21
-7.172
0
LINE
8
RED2
6
CONTINUOUS
10
7.047
20
-7.172
11
7.055
21
-7.175
0
LINE
8
RED2
6
CONTINUOUS
10
7.081
20
-7.231
11
7.081
21
-7.172
0
LINE
8
RED2
6
CONTINUOUS
10
7.106
20
-7.231
11
7.106
21
-7.2
0
LINE
8
RED2
6
CONTINUOUS
10
7.106
20
-7.2
11
7.103
21
-7.195
0
LINE
8
RED2
6
CONTINUOUS
10
7.103
20
-7.195
11
7.098
21
-7.192
0
LINE
8
RED2
6
CONTINUOUS
10
7.098
20
-7.192
11
7.089
21
-7.192
0
LINE
8
RED2
6
CONTINUOUS
10
7.089
20
-7.192
11
7.084
21
-7.195
0
LINE
8
RED2
6
CONTINUOUS
10
7.084
20
-7.195
11
7.081
21
-7.197
0
LINE
8
RED2
6
CONTINUOUS
10
7.157
20
-7.228
11
7.151
21
-7.231
0
LINE
8
RED2
6
CONTINUOUS
10
7.151
20
-7.231
11
7.14
21
-7.231
0
LINE
8
RED2
6
CONTINUOUS
10
7.14
20
-7.231
11
7.134
21
-7.228
0
LINE
8
RED2
6
CONTINUOUS
10
7.134
20
-7.228
11
7.131
21
-7.223
0
LINE
8
RED2
6
CONTINUOUS
10
7.131
20
-7.223
11
7.131
21
-7.2
0
LINE
8
RED2
6
CONTINUOUS
10
7.131
20
-7.2
11
7.134
21
-7.195
0
LINE
8
RED2
6
CONTINUOUS
10
7.134
20
-7.195
11
7.14
21
-7.192
0
LINE
8
RED2
6
CONTINUOUS
10
7.14
20
-7.192
11
7.151
21
-7.192
0
LINE
8
RED2
6
CONTINUOUS
10
7.151
20
-7.192
11
7.157
21
-7.195
0
LINE
8
RED2
6
CONTINUOUS
10
7.157
20
-7.195
11
7.159
21
-7.2
0
LINE
8
RED2
6
CONTINUOUS
10
7.159
20
-7.2
11
7.159
21
-7.206
0
LINE
8
RED2
6
CONTINUOUS
10
7.159
20
-7.206
11
7.131
21
-7.212
0
LINE
8
RED2
6
CONTINUOUS
10
7.207
20
-7.228
11
7.202
21
-7.231
0
LINE
8
RED2
6
CONTINUOUS
10
7.202
20
-7.231
11
7.19
21
-7.231
0
LINE
8
RED2
6
CONTINUOUS
10
7.19
20
-7.231
11
7.185
21
-7.228
0
LINE
8
RED2
6
CONTINUOUS
10
7.185
20
-7.228
11
7.182
21
-7.223
0
LINE
8
RED2
6
CONTINUOUS
10
7.182
20
-7.223
11
7.182
21
-7.2
0
LINE
8
RED2
6
CONTINUOUS
10
7.182
20
-7.2
11
7.185
21
-7.195
0
LINE
8
RED2
6
CONTINUOUS
10
7.185
20
-7.195
11
7.19
21
-7.192
0
LINE
8
RED2
6
CONTINUOUS
10
7.19
20
-7.192
11
7.202
21
-7.192
0
LINE
8
RED2
6
CONTINUOUS
10
7.202
20
-7.192
11
7.207
21
-7.195
0
LINE
8
RED2
6
CONTINUOUS
10
7.207
20
-7.195
11
7.21
21
-7.2
0
LINE
8
RED2
6
CONTINUOUS
10
7.21
20
-7.2
11
7.21
21
-7.206
0
LINE
8
RED2
6
CONTINUOUS
10
7.21
20
-7.206
11
7.182
21
-7.212
0
LINE
8
RED2
6
CONTINUOUS
10
7.227
20
-7.192
11
7.249
21
-7.192
0
LINE
8
RED2
6
CONTINUOUS
10
7.235
20
-7.172
11
7.235
21
-7.223
0
LINE
8
RED2
6
CONTINUOUS
10
7.235
20
-7.223
11
7.238
21
-7.228
0
LINE
8
RED2
6
CONTINUOUS
10
7.238
20
-7.228
11
7.244
21
-7.231
0
LINE
8
RED2
6
CONTINUOUS
10
7.244
20
-7.231
11
7.249
21
-7.231
0
LINE
8
RED2
6
CONTINUOUS
10
7.269
20
-7.226
11
7.272
21
-7.228
0
LINE
8
RED2
6
CONTINUOUS
10
7.272
20
-7.228
11
7.269
21
-7.231
0
LINE
8
RED2
6
CONTINUOUS
10
7.269
20
-7.231
11
7.266
21
-7.228
0
LINE
8
RED2
6
CONTINUOUS
10
7.266
20
-7.228
11
7.269
21
-7.226
0
LINE
8
RED2
6
CONTINUOUS
10
7.269
20
-7.226
11
7.269
21
-7.231
0
LINE
8
RED2
6
CONTINUOUS
10
7.269
20
-7.195
11
7.272
21
-7.197
0
LINE
8
RED2
6
CONTINUOUS
10
7.272
20
-7.197
11
7.269
21
-7.2
0
LINE
8
RED2
6
CONTINUOUS
10
7.269
20
-7.2
11
7.266
21
-7.197
0
LINE
8
RED2
6
CONTINUOUS
10
7.266
20
-7.197
11
7.269
21
-7.195
0
LINE
8
RED2
6
CONTINUOUS
10
7.269
20
-7.195
11
7.269
21
-7.2
0
LINE
8
RED2
6
CONTINUOUS
10
7.384
20
-7.169
11
7.334
21
-7.245
0
LINE
8
RED2
6
CONTINUOUS
10
7.401
20
-7.214
11
7.429
21
-7.214
0
LINE
8
RED2
6
CONTINUOUS
10
7.395
20
-7.231
11
7.415
21
-7.172
0
LINE
8
RED2
6
CONTINUOUS
10
7.415
20
-7.172
11
7.435
21
-7.231
0
LINE
8
RED2
6
CONTINUOUS
10
7.454
20
-7.231
11
7.454
21
-7.172
0
LINE
8
RED2
6
CONTINUOUS
10
7.454
20
-7.172
11
7.468
21
-7.172
0
LINE
8
RED2
6
CONTINUOUS
10
7.468
20
-7.172
11
7.477
21
-7.175
0
LINE
8
RED2
6
CONTINUOUS
10
7.477
20
-7.175
11
7.483
21
-7.181
0
LINE
8
RED2
6
CONTINUOUS
10
7.483
20
-7.181
11
7.485
21
-7.186
0
LINE
8
RED2
6
CONTINUOUS
10
7.485
20
-7.186
11
7.488
21
-7.197
0
LINE
8
RED2
6
CONTINUOUS
10
7.488
20
-7.197
11
7.488
21
-7.206
0
LINE
8
RED2
6
CONTINUOUS
10
7.488
20
-7.206
11
7.485
21
-7.217
0
LINE
8
RED2
6
CONTINUOUS
10
7.485
20
-7.217
11
7.483
21
-7.223
0
LINE
8
RED2
6
CONTINUOUS
10
7.483
20
-7.223
11
7.477
21
-7.228
0
LINE
8
RED2
6
CONTINUOUS
10
7.477
20
-7.228
11
7.468
21
-7.231
0
LINE
8
RED2
6
CONTINUOUS
10
7.468
20
-7.231
11
7.454
21
-7.231
0
LINE
8
RED2
6
CONTINUOUS
10
7.516
20
-7.231
11
7.527
21
-7.231
0
LINE
8
RED2
6
CONTINUOUS
10
7.527
20
-7.231
11
7.533
21
-7.228
0
LINE
8
RED2
6
CONTINUOUS
10
7.533
20
-7.228
11
7.536
21
-7.226
0
LINE
8
RED2
6
CONTINUOUS
10
7.536
20
-7.226
11
7.542
21
-7.217
0
LINE
8
RED2
6
CONTINUOUS
10
7.542
20
-7.217
11
7.544
21
-7.206
0
LINE
8
RED2
6
CONTINUOUS
10
7.544
20
-7.206
11
7.544
21
-7.183
0
LINE
8
RED2
6
CONTINUOUS
10
7.544
20
-7.183
11
7.542
21
-7.178
0
LINE
8
RED2
6
CONTINUOUS
10
7.542
20
-7.178
11
7.539
21
-7.175
0
LINE
8
RED2
6
CONTINUOUS
10
7.539
20
-7.175
11
7.533
21
-7.172
0
LINE
8
RED2
6
CONTINUOUS
10
7.533
20
-7.172
11
7.522
21
-7.172
0
LINE
8
RED2
6
CONTINUOUS
10
7.522
20
-7.172
11
7.516
21
-7.175
0
LINE
8
RED2
6
CONTINUOUS
10
7.516
20
-7.175
11
7.513
21
-7.178
0
LINE
8
RED2
6
CONTINUOUS
10
7.513
20
-7.178
11
7.511
21
-7.183
0
LINE
8
RED2
6
CONTINUOUS
10
7.511
20
-7.183
11
7.511
21
-7.197
0
LINE
8
RED2
6
CONTINUOUS
10
7.511
20
-7.197
11
7.513
21
-7.203
0
LINE
8
RED2
6
CONTINUOUS
10
7.513
20
-7.203
11
7.516
21
-7.206
0
LINE
8
RED2
6
CONTINUOUS
10
7.516
20
-7.206
11
7.522
21
-7.209
0
LINE
8
RED2
6
CONTINUOUS
10
7.522
20
-7.209
11
7.533
21
-7.209
0
LINE
8
RED2
6
CONTINUOUS
10
7.533
20
-7.209
11
7.539
21
-7.206
0
LINE
8
RED2
6
CONTINUOUS
10
7.539
20
-7.206
11
7.542
21
-7.203
0
LINE
8
RED2
6
CONTINUOUS
10
7.542
20
-7.203
11
7.544
21
-7.197
0
LINE
8
RED2
6
CONTINUOUS
10
7.578
20
-7.197
11
7.572
21
-7.195
0
LINE
8
RED2
6
CONTINUOUS
10
7.572
20
-7.195
11
7.57
21
-7.192
0
LINE
8
RED2
6
CONTINUOUS
10
7.57
20
-7.192
11
7.567
21
-7.186
0
LINE
8
RED2
6
CONTINUOUS
10
7.567
20
-7.186
11
7.567
21
-7.183
0
LINE
8
RED2
6
CONTINUOUS
10
7.567
20
-7.183
11
7.57
21
-7.178
0
LINE
8
RED2
6
CONTINUOUS
10
7.57
20
-7.178
11
7.572
21
-7.175
0
LINE
8
RED2
6
CONTINUOUS
10
7.572
20
-7.175
11
7.578
21
-7.172
0
LINE
8
RED2
6
CONTINUOUS
10
7.578
20
-7.172
11
7.589
21
-7.172
0
LINE
8
RED2
6
CONTINUOUS
10
7.589
20
-7.172
11
7.595
21
-7.175
0
LINE
8
RED2
6
CONTINUOUS
10
7.595
20
-7.175
11
7.598
21
-7.178
0
LINE
8
RED2
6
CONTINUOUS
10
7.598
20
-7.178
11
7.601
21
-7.183
0
LINE
8
RED2
6
CONTINUOUS
10
7.601
20
-7.183
11
7.601
21
-7.186
0
LINE
8
RED2
6
CONTINUOUS
10
7.601
20
-7.186
11
7.598
21
-7.192
0
LINE
8
RED2
6
CONTINUOUS
10
7.598
20
-7.192
11
7.595
21
-7.195
0
LINE
8
RED2
6
CONTINUOUS
10
7.595
20
-7.195
11
7.589
21
-7.197
0
LINE
8
RED2
6
CONTINUOUS
10
7.589
20
-7.197
11
7.578
21
-7.197
0
LINE
8
RED2
6
CONTINUOUS
10
7.578
20
-7.197
11
7.572
21
-7.2
0
LINE
8
RED2
6
CONTINUOUS
10
7.572
20
-7.2
11
7.57
21
-7.203
0
LINE
8
RED2
6
CONTINUOUS
10
7.57
20
-7.203
11
7.567
21
-7.209
0
LINE
8
RED2
6
CONTINUOUS
10
7.567
20
-7.209
11
7.567
21
-7.22
0
LINE
8
RED2
6
CONTINUOUS
10
7.567
20
-7.22
11
7.57
21
-7.226
0
LINE
8
RED2
6
CONTINUOUS
10
7.57
20
-7.226
11
7.572
21
-7.228
0
LINE
8
RED2
6
CONTINUOUS
10
7.572
20
-7.228
11
7.578
21
-7.231
0
LINE
8
RED2
6
CONTINUOUS
10
7.578
20
-7.231
11
7.589
21
-7.231
0
LINE
8
RED2
6
CONTINUOUS
10
7.589
20
-7.231
11
7.595
21
-7.228
0
LINE
8
RED2
6
CONTINUOUS
10
7.595
20
-7.228
11
7.598
21
-7.226
0
LINE
8
RED2
6
CONTINUOUS
10
7.598
20
-7.226
11
7.601
21
-7.22
0
LINE
8
RED2
6
CONTINUOUS
10
7.601
20
-7.22
11
7.601
21
-7.209
0
LINE
8
RED2
6
CONTINUOUS
10
7.601
20
-7.209
11
7.598
21
-7.203
0
LINE
8
RED2
6
CONTINUOUS
10
7.598
20
-7.203
11
7.595
21
-7.2
0
LINE
8
RED2
6
CONTINUOUS
10
7.595
20
-7.2
11
7.589
21
-7.197
0
LINE
8
RED2
6
CONTINUOUS
10
7.62
20
-7.172
11
7.657
21
-7.172
0
LINE
8
RED2
6
CONTINUOUS
10
7.657
20
-7.172
11
7.637
21
-7.195
0
LINE
8
RED2
6
CONTINUOUS
10
7.637
20
-7.195
11
7.645
21
-7.195
0
LINE
8
RED2
6
CONTINUOUS
10
7.645
20
-7.195
11
7.651
21
-7.197
0
LINE
8
RED2
6
CONTINUOUS
10
7.651
20
-7.197
11
7.654
21
-7.2
0
LINE
8
RED2
6
CONTINUOUS
10
7.654
20
-7.2
11
7.657
21
-7.206
0
LINE
8
RED2
6
CONTINUOUS
10
7.657
20
-7.206
11
7.657
21
-7.22
0
LINE
8
RED2
6
CONTINUOUS
10
7.657
20
-7.22
11
7.654
21
-7.226
0
LINE
8
RED2
6
CONTINUOUS
10
7.654
20
-7.226
11
7.651
21
-7.228
0
LINE
8
RED2
6
CONTINUOUS
10
7.651
20
-7.228
11
7.645
21
-7.231
0
LINE
8
RED2
6
CONTINUOUS
10
7.645
20
-7.231
11
7.629
21
-7.231
0
LINE
8
RED2
6
CONTINUOUS
10
7.629
20
-7.231
11
7.623
21
-7.228
0
LINE
8
RED2
6
CONTINUOUS
10
7.623
20
-7.228
11
7.62
21
-7.226
0
LINE
8
RED2
6
CONTINUOUS
10
7.676
20
-7.172
11
7.713
21
-7.172
0
LINE
8
RED2
6
CONTINUOUS
10
7.713
20
-7.172
11
7.693
21
-7.195
0
LINE
8
RED2
6
CONTINUOUS
10
7.693
20
-7.195
11
7.702
21
-7.195
0
LINE
8
RED2
6
CONTINUOUS
10
7.702
20
-7.195
11
7.707
21
-7.197
0
LINE
8
RED2
6
CONTINUOUS
10
7.707
20
-7.197
11
7.71
21
-7.2
0
LINE
8
RED2
6
CONTINUOUS
10
7.71
20
-7.2
11
7.713
21
-7.206
0
LINE
8
RED2
6
CONTINUOUS
10
7.713
20
-7.206
11
7.713
21
-7.22
0
LINE
8
RED2
6
CONTINUOUS
10
7.713
20
-7.22
11
7.71
21
-7.226
0
LINE
8
RED2
6
CONTINUOUS
10
7.71
20
-7.226
11
7.707
21
-7.228
0
LINE
8
RED2
6
CONTINUOUS
10
7.707
20
-7.228
11
7.702
21
-7.231
0
LINE
8
RED2
6
CONTINUOUS
10
7.702
20
-7.231
11
7.685
21
-7.231
0
LINE
8
RED2
6
CONTINUOUS
10
7.685
20
-7.231
11
7.679
21
-7.228
0
LINE
8
RED2
6
CONTINUOUS
10
7.679
20
-7.228
11
7.676
21
-7.226
0
LINE
8
RED2
6
CONTINUOUS
10
7.803
20
-7.2
11
7.783
21
-7.2
0
LINE
8
RED2
6
CONTINUOUS
10
7.783
20
-7.231
11
7.783
21
-7.172
0
LINE
8
RED2
6
CONTINUOUS
10
7.783
20
-7.172
11
7.811
21
-7.172
0
LINE
8
RED2
6
CONTINUOUS
10
7.834
20
-7.231
11
7.834
21
-7.192
0
LINE
8
RED2
6
CONTINUOUS
10
7.834
20
-7.172
11
7.831
21
-7.175
0
LINE
8
RED2
6
CONTINUOUS
10
7.831
20
-7.175
11
7.834
21
-7.178
0
LINE
8
RED2
6
CONTINUOUS
10
7.834
20
-7.178
11
7.837
21
-7.175
0
LINE
8
RED2
6
CONTINUOUS
10
7.837
20
-7.175
11
7.834
21
-7.172
0
LINE
8
RED2
6
CONTINUOUS
10
7.834
20
-7.172
11
7.834
21
-7.178
0
LINE
8
RED2
6
CONTINUOUS
10
7.87
20
-7.231
11
7.865
21
-7.228
0
LINE
8
RED2
6
CONTINUOUS
10
7.865
20
-7.228
11
7.862
21
-7.223
0
LINE
8
RED2
6
CONTINUOUS
10
7.862
20
-7.223
11
7.862
21
-7.172
0
LINE
8
RED2
6
CONTINUOUS
10
7.884
20
-7.192
11
7.907
21
-7.192
0
LINE
8
RED2
6
CONTINUOUS
10
7.893
20
-7.172
11
7.893
21
-7.223
0
LINE
8
RED2
6
CONTINUOUS
10
7.893
20
-7.223
11
7.896
21
-7.228
0
LINE
8
RED2
6
CONTINUOUS
10
7.896
20
-7.228
11
7.901
21
-7.231
0
LINE
8
RED2
6
CONTINUOUS
10
7.901
20
-7.231
11
7.907
21
-7.231
0
LINE
8
RED2
6
CONTINUOUS
10
7.949
20
-7.228
11
7.943
21
-7.231
0
LINE
8
RED2
6
CONTINUOUS
10
7.943
20
-7.231
11
7.932
21
-7.231
0
LINE
8
RED2
6
CONTINUOUS
10
7.932
20
-7.231
11
7.926
21
-7.228
0
LINE
8
RED2
6
CONTINUOUS
10
7.926
20
-7.228
11
7.924
21
-7.223
0
LINE
8
RED2
6
CONTINUOUS
10
7.924
20
-7.223
11
7.924
21
-7.2
0
LINE
8
RED2
6
CONTINUOUS
10
7.924
20
-7.2
11
7.926
21
-7.195
0
LINE
8
RED2
6
CONTINUOUS
10
7.926
20
-7.195
11
7.932
21
-7.192
0
LINE
8
RED2
6
CONTINUOUS
10
7.932
20
-7.192
11
7.943
21
-7.192
0
LINE
8
RED2
6
CONTINUOUS
10
7.943
20
-7.192
11
7.949
21
-7.195
0
LINE
8
RED2
6
CONTINUOUS
10
7.949
20
-7.195
11
7.952
21
-7.2
0
LINE
8
RED2
6
CONTINUOUS
10
7.952
20
-7.2
11
7.952
21
-7.206
0
LINE
8
RED2
6
CONTINUOUS
10
7.952
20
-7.206
11
7.924
21
-7.212
0
LINE
8
RED2
6
CONTINUOUS
10
7.977
20
-7.231
11
7.977
21
-7.192
0
LINE
8
RED2
6
CONTINUOUS
10
7.977
20
-7.203
11
7.98
21
-7.197
0
LINE
8
RED2
6
CONTINUOUS
10
7.98
20
-7.197
11
7.983
21
-7.195
0
LINE
8
RED2
6
CONTINUOUS
10
7.983
20
-7.195
11
7.988
21
-7.192
0
LINE
8
RED2
6
CONTINUOUS
10
7.988
20
-7.192
11
7.994
21
-7.192
0
LINE
8
RED2
6
CONTINUOUS
10
8.056
20
-7.169
11
8.005
21
-7.245
0
LINE
8
RED2
6
CONTINUOUS
10
7.049
20
-7.082
11
7.029
21
-7.082
0
LINE
8
RED2
6
CONTINUOUS
10
7.029
20
-7.113
11
7.029
21
-7.054
0
LINE
8
RED2
6
CONTINUOUS
10
7.029
20
-7.054
11
7.057
21
-7.054
0
LINE
8
RED2
6
CONTINUOUS
10
7.105
20
-7.074
11
7.105
21
-7.113
0
LINE
8
RED2
6
CONTINUOUS
10
7.091
20
-7.051
11
7.077
21
-7.094
0
LINE
8
RED2
6
CONTINUOUS
10
7.077
20
-7.094
11
7.114
21
-7.094
0
LINE
8
RED2
6
CONTINUOUS
10
7.136
20
-7.113
11
7.136
21
-7.054
0
LINE
8
RED2
6
CONTINUOUS
10
7.184
20
-7.082
11
7.164
21
-7.082
0
LINE
8
RED2
6
CONTINUOUS
10
7.164
20
-7.113
11
7.164
21
-7.054
0
LINE
8
RED2
6
CONTINUOUS
10
7.164
20
-7.054
11
7.192
21
-7.054
0
LINE
8
RED2
6
CONTINUOUS
10
7.234
20
-7.082
11
7.243
21
-7.085
0
LINE
8
RED2
6
CONTINUOUS
10
7.243
20
-7.085
11
7.246
21
-7.088
0
LINE
8
RED2
6
CONTINUOUS
10
7.246
20
-7.088
11
7.248
21
-7.094
0
LINE
8
RED2
6
CONTINUOUS
10
7.248
20
-7.094
11
7.248
21
-7.102
0
LINE
8
RED2
6
CONTINUOUS
10
7.248
20
-7.102
11
7.246
21
-7.108
0
LINE
8
RED2
6
CONTINUOUS
10
7.246
20
-7.108
11
7.243
21
-7.11
0
LINE
8
RED2
6
CONTINUOUS
10
7.243
20
-7.11
11
7.237
21
-7.113
0
LINE
8
RED2
6
CONTINUOUS
10
7.237
20
-7.113
11
7.215
21
-7.113
0
LINE
8
RED2
6
CONTINUOUS
10
7.215
20
-7.113
11
7.215
21
-7.054
0
LINE
8
RED2
6
CONTINUOUS
10
7.215
20
-7.054
11
7.234
21
-7.054
0
LINE
8
RED2
6
CONTINUOUS
10
7.234
20
-7.054
11
7.24
21
-7.057
0
LINE
8
RED2
6
CONTINUOUS
10
7.24
20
-7.057
11
7.243
21
-7.06
0
LINE
8
RED2
6
CONTINUOUS
10
7.243
20
-7.06
11
7.246
21
-7.065
0
LINE
8
RED2
6
CONTINUOUS
10
7.246
20
-7.065
11
7.246
21
-7.071
0
LINE
8
RED2
6
CONTINUOUS
10
7.246
20
-7.071
11
7.243
21
-7.077
0
LINE
8
RED2
6
CONTINUOUS
10
7.243
20
-7.077
11
7.24
21
-7.079
0
LINE
8
RED2
6
CONTINUOUS
10
7.24
20
-7.079
11
7.234
21
-7.082
0
LINE
8
RED2
6
CONTINUOUS
10
7.234
20
-7.082
11
7.215
21
-7.082
0
LINE
8
RED2
6
CONTINUOUS
10
7.756
20
-7.54
11
7.756
21
-7.658
0
LINE
8
RED2
6
CONTINUOUS
10
10.276
20
-7.54
11
10.276
21
-7.796
0
LINE
8
RED2
6
CONTINUOUS
10
4.98
20
-1.73
11
4.98
21
-1.57
0
LINE
8
RED2
6
CONTINUOUS
10
4.92
20
-1.73
11
4.92
21
-1.57
0
LINE
8
RED2
6
CONTINUOUS
10
4.91
20
-1.65
11
4.8
21
-1.65
0
LINE
8
RED2
6
CONTINUOUS
10
4.99
20
-1.65
11
5.1
21
-1.65
0
LINE
8
CYAN2
6
CONTINUOUS
10
4.916
20
-1.916
11
4.914
21
-1.919
0
LINE
8
CYAN2
6
CONTINUOUS
10
4.914
20
-1.919
11
4.907
21
-1.921
0
LINE
8
CYAN2
6
CONTINUOUS
10
4.907
20
-1.921
11
4.902
21
-1.921
0
LINE
8
CYAN2
6
CONTINUOUS
10
4.902
20
-1.921
11
4.895
21
-1.919
0
LINE
8
CYAN2
6
CONTINUOUS
10
4.895
20
-1.919
11
4.89
21
-1.914
0
LINE
8
CYAN2
6
CONTINUOUS
10
4.89
20
-1.914
11
4.888
21
-1.909
0
LINE
8
CYAN2
6
CONTINUOUS
10
4.888
20
-1.909
11
4.885
21
-1.9
0
LINE
8
CYAN2
6
CONTINUOUS
10
4.885
20
-1.9
11
4.885
21
-1.893
0
LINE
8
CYAN2
6
CONTINUOUS
10
4.885
20
-1.893
11
4.888
21
-1.883
0
LINE
8
CYAN2
6
CONTINUOUS
10
4.888
20
-1.883
11
4.89
21
-1.878
0
LINE
8
CYAN2
6
CONTINUOUS
10
4.89
20
-1.878
11
4.895
21
-1.874
0
LINE
8
CYAN2
6
CONTINUOUS
10
4.895
20
-1.874
11
4.902
21
-1.871
0
LINE
8
CYAN2
6
CONTINUOUS
10
4.902
20
-1.871
11
4.907
21
-1.871
0
LINE
8
CYAN2
6
CONTINUOUS
10
4.907
20
-1.871
11
4.914
21
-1.874
0
LINE
8
CYAN2
6
CONTINUOUS
10
4.914
20
-1.874
11
4.916
21
-1.876
0
LINE
8
CYAN2
6
CONTINUOUS
10
4.964
20
-1.921
11
4.935
21
-1.921
0
LINE
8
CYAN2
6
CONTINUOUS
10
4.95
20
-1.921
11
4.95
21
-1.871
0
LINE
8
CYAN2
6
CONTINUOUS
10
4.95
20
-1.871
11
4.945
21
-1.878
0
LINE
8
CYAN2
6
CONTINUOUS
10
4.945
20
-1.878
11
4.94
21
-1.883
0
LINE
8
CYAN2
6
CONTINUOUS
10
4.94
20
-1.883
11
4.935
21
-1.885
0
LINE
8
CYAN2
6
CONTINUOUS
10
5.007
20
-1.871
11
4.997
21
-1.871
0
LINE
8
CYAN2
6
CONTINUOUS
10
4.997
20
-1.871
11
4.993
21
-1.874
0
LINE
8
CYAN2
6
CONTINUOUS
10
4.993
20
-1.874
11
4.99
21
-1.876
0
LINE
8
CYAN2
6
CONTINUOUS
10
4.99
20
-1.876
11
4.985
21
-1.883
0
LINE
8
CYAN2
6
CONTINUOUS
10
4.985
20
-1.883
11
4.983
21
-1.893
0
LINE
8
CYAN2
6
CONTINUOUS
10
4.983
20
-1.893
11
4.983
21
-1.912
0
LINE
8
CYAN2
6
CONTINUOUS
10
4.983
20
-1.912
11
4.985
21
-1.916
0
LINE
8
CYAN2
6
CONTINUOUS
10
4.985
20
-1.916
11
4.988
21
-1.919
0
LINE
8
CYAN2
6
CONTINUOUS
10
4.988
20
-1.919
11
4.993
21
-1.921
0
LINE
8
CYAN2
6
CONTINUOUS
10
4.993
20
-1.921
11
5.002
21
-1.921
0
LINE
8
CYAN2
6
CONTINUOUS
10
5.002
20
-1.921
11
5.007
21
-1.919
0
LINE
8
CYAN2
6
CONTINUOUS
10
5.007
20
-1.919
11
5.009
21
-1.916
0
LINE
8
CYAN2
6
CONTINUOUS
10
5.009
20
-1.916
11
5.012
21
-1.912
0
LINE
8
CYAN2
6
CONTINUOUS
10
5.012
20
-1.912
11
5.012
21
-1.9
0
LINE
8
CYAN2
6
CONTINUOUS
10
5.012
20
-1.9
11
5.009
21
-1.895
0
LINE
8
CYAN2
6
CONTINUOUS
10
5.009
20
-1.895
11
5.007
21
-1.893
0
LINE
8
CYAN2
6
CONTINUOUS
10
5.007
20
-1.893
11
5.002
21
-1.89
0
LINE
8
CYAN2
6
CONTINUOUS
10
5.002
20
-1.89
11
4.993
21
-1.89
0
LINE
8
CYAN2
6
CONTINUOUS
10
4.993
20
-1.89
11
4.988
21
-1.893
0
LINE
8
CYAN2
6
CONTINUOUS
10
4.988
20
-1.893
11
4.985
21
-1.895
0
LINE
8
CYAN2
6
CONTINUOUS
10
4.985
20
-1.895
11
4.983
21
-1.9
0
LINE
8
CYAN2
6
CONTINUOUS
10
4.894
20
-1.83
11
4.865
21
-1.83
0
LINE
8
CYAN2
6
CONTINUOUS
10
4.879
20
-1.83
11
4.879
21
-1.78
0
LINE
8
CYAN2
6
CONTINUOUS
10
4.879
20
-1.78
11
4.875
21
-1.787
0
LINE
8
CYAN2
6
CONTINUOUS
10
4.875
20
-1.787
11
4.87
21
-1.792
0
LINE
8
CYAN2
6
CONTINUOUS
10
4.87
20
-1.792
11
4.865
21
-1.794
0
LINE
8
CYAN2
6
CONTINUOUS
10
4.925
20
-1.78
11
4.929
21
-1.78
0
LINE
8
CYAN2
6
CONTINUOUS
10
4.929
20
-1.78
11
4.934
21
-1.783
0
LINE
8
CYAN2
6
CONTINUOUS
10
4.934
20
-1.783
11
4.936
21
-1.785
0
LINE
8
CYAN2
6
CONTINUOUS
10
4.936
20
-1.785
11
4.939
21
-1.79
0
LINE
8
CYAN2
6
CONTINUOUS
10
4.939
20
-1.79
11
4.941
21
-1.799
0
LINE
8
CYAN2
6
CONTINUOUS
10
4.941
20
-1.799
11
4.941
21
-1.811
0
LINE
8
CYAN2
6
CONTINUOUS
10
4.941
20
-1.811
11
4.939
21
-1.821
0
LINE
8
CYAN2
6
CONTINUOUS
10
4.939
20
-1.821
11
4.936
21
-1.825
0
LINE
8
CYAN2
6
CONTINUOUS
10
4.936
20
-1.825
11
4.934
21
-1.828
0
LINE
8
CYAN2
6
CONTINUOUS
10
4.934
20
-1.828
11
4.929
21
-1.83
0
LINE
8
CYAN2
6
CONTINUOUS
10
4.929
20
-1.83
11
4.925
21
-1.83
0
LINE
8
CYAN2
6
CONTINUOUS
10
4.925
20
-1.83
11
4.92
21
-1.828
0
LINE
8
CYAN2
6
CONTINUOUS
10
4.92
20
-1.828
11
4.917
21
-1.825
0
LINE
8
CYAN2
6
CONTINUOUS
10
4.917
20
-1.825
11
4.915
21
-1.821
0
LINE
8
CYAN2
6
CONTINUOUS
10
4.915
20
-1.821
11
4.913
21
-1.811
0
LINE
8
CYAN2
6
CONTINUOUS
10
4.913
20
-1.811
11
4.913
21
-1.799
0
LINE
8
CYAN2
6
CONTINUOUS
10
4.913
20
-1.799
11
4.915
21
-1.79
0
LINE
8
CYAN2
6
CONTINUOUS
10
4.915
20
-1.79
11
4.917
21
-1.785
0
LINE
8
CYAN2
6
CONTINUOUS
10
4.917
20
-1.785
11
4.92
21
-1.783
0
LINE
8
CYAN2
6
CONTINUOUS
10
4.92
20
-1.783
11
4.925
21
-1.78
0
LINE
8
CYAN2
6
CONTINUOUS
10
4.972
20
-1.78
11
4.977
21
-1.78
0
LINE
8
CYAN2
6
CONTINUOUS
10
4.977
20
-1.78
11
4.982
21
-1.783
0
LINE
8
CYAN2
6
CONTINUOUS
10
4.982
20
-1.783
11
4.984
21
-1.785
0
LINE
8
CYAN2
6
CONTINUOUS
10
4.984
20
-1.785
11
4.986
21
-1.79
0
LINE
8
CYAN2
6
CONTINUOUS
10
4.986
20
-1.79
11
4.989
21
-1.799
0
LINE
8
CYAN2
6
CONTINUOUS
10
4.989
20
-1.799
11
4.989
21
-1.811
0
LINE
8
CYAN2
6
CONTINUOUS
10
4.989
20
-1.811
11
4.986
21
-1.821
0
LINE
8
CYAN2
6
CONTINUOUS
10
4.986
20
-1.821
11
4.984
21
-1.825
0
LINE
8
CYAN2
6
CONTINUOUS
10
4.984
20
-1.825
11
4.982
21
-1.828
0
LINE
8
CYAN2
6
CONTINUOUS
10
4.982
20
-1.828
11
4.977
21
-1.83
0
LINE
8
CYAN2
6
CONTINUOUS
10
4.977
20
-1.83
11
4.972
21
-1.83
0
LINE
8
CYAN2
6
CONTINUOUS
10
4.972
20
-1.83
11
4.967
21
-1.828
0
LINE
8
CYAN2
6
CONTINUOUS
10
4.967
20
-1.828
11
4.965
21
-1.825
0
LINE
8
CYAN2
6
CONTINUOUS
10
4.965
20
-1.825
11
4.963
21
-1.821
0
LINE
8
CYAN2
6
CONTINUOUS
10
4.963
20
-1.821
11
4.96
21
-1.811
0
LINE
8
CYAN2
6
CONTINUOUS
10
4.96
20
-1.811
11
4.96
21
-1.799
0
LINE
8
CYAN2
6
CONTINUOUS
10
4.96
20
-1.799
11
4.963
21
-1.79
0
LINE
8
CYAN2
6
CONTINUOUS
10
4.963
20
-1.79
11
4.965
21
-1.785
0
LINE
8
CYAN2
6
CONTINUOUS
10
4.965
20
-1.785
11
4.967
21
-1.783
0
LINE
8
CYAN2
6
CONTINUOUS
10
4.967
20
-1.783
11
4.972
21
-1.78
0
LINE
8
CYAN2
6
CONTINUOUS
10
5.01
20
-1.797
11
5.01
21
-1.83
0
LINE
8
CYAN2
6
CONTINUOUS
10
5.01
20
-1.802
11
5.013
21
-1.799
0
LINE
8
CYAN2
6
CONTINUOUS
10
5.013
20
-1.799
11
5.017
21
-1.797
0
LINE
8
CYAN2
6
CONTINUOUS
10
5.017
20
-1.797
11
5.025
21
-1.797
0
LINE
8
CYAN2
6
CONTINUOUS
10
5.025
20
-1.797
11
5.029
21
-1.799
0
LINE
8
CYAN2
6
CONTINUOUS
10
5.029
20
-1.799
11
5.032
21
-1.804
0
LINE
8
CYAN2
6
CONTINUOUS
10
5.032
20
-1.804
11
5.032
21
-1.83
0
LINE
8
RED2
6
CONTINUOUS
10
4.15
20
-1.69
11
4.15
21
-1.61
0
LINE
8
RED2
6
CONTINUOUS
10
4.15
20
-1.61
11
3.95
21
-1.61
0
LINE
8
RED2
6
CONTINUOUS
10
3.95
20
-1.61
11
3.95
21
-1.69
0
LINE
8
RED2
6
CONTINUOUS
10
3.95
20
-1.69
11
4.15
21
-1.69
0
LINE
8
RED2
6
CONTINUOUS
10
3.95
20
-1.65
11
3.9
21
-1.65
0
LINE
8
RED2
6
CONTINUOUS
10
4.15
20
-1.65
11
4.2
21
-1.65
0
LINE
8
CYAN2
6
CONTINUOUS
10
4.016
20
-1.876
11
4
21
-1.852
0
LINE
8
CYAN2
6
CONTINUOUS
10
3.988
20
-1.876
11
3.988
21
-1.826
0
LINE
8
CYAN2
6
CONTINUOUS
10
3.988
20
-1.826
11
4.007
21
-1.826
0
LINE
8
CYAN2
6
CONTINUOUS
10
4.007
20
-1.826
11
4.012
21
-1.829
0
LINE
8
CYAN2
6
CONTINUOUS
10
4.012
20
-1.829
11
4.014
21
-1.831
0
LINE
8
CYAN2
6
CONTINUOUS
10
4.014
20
-1.831
11
4.016
21
-1.836
0
LINE
8
CYAN2
6
CONTINUOUS
10
4.016
20
-1.836
11
4.016
21
-1.843
0
LINE
8
CYAN2
6
CONTINUOUS
10
4.016
20
-1.843
11
4.014
21
-1.848
0
LINE
8
CYAN2
6
CONTINUOUS
10
4.014
20
-1.848
11
4.012
21
-1.85
0
LINE
8
CYAN2
6
CONTINUOUS
10
4.012
20
-1.85
11
4.007
21
-1.852
0
LINE
8
CYAN2
6
CONTINUOUS
10
4.007
20
-1.852
11
3.988
21
-1.852
0
LINE
8
CYAN2
6
CONTINUOUS
10
4.064
20
-1.876
11
4.035
21
-1.876
0
LINE
8
CYAN2
6
CONTINUOUS
10
4.05
20
-1.876
11
4.05
21
-1.826
0
LINE
8
CYAN2
6
CONTINUOUS
10
4.05
20
-1.826
11
4.045
21
-1.833
0
LINE
8
CYAN2
6
CONTINUOUS
10
4.045
20
-1.833
11
4.04
21
-1.838
0
LINE
8
CYAN2
6
CONTINUOUS
10
4.04
20
-1.838
11
4.035
21
-1.84
0
LINE
8
CYAN2
6
CONTINUOUS
10
4.088
20
-1.876
11
4.097
21
-1.876
0
LINE
8
CYAN2
6
CONTINUOUS
10
4.097
20
-1.876
11
4.102
21
-1.874
0
LINE
8
CYAN2
6
CONTINUOUS
10
4.102
20
-1.874
11
4.104
21
-1.871
0
LINE
8
CYAN2
6
CONTINUOUS
10
4.104
20
-1.871
11
4.109
21
-1.864
0
LINE
8
CYAN2
6
CONTINUOUS
10
4.109
20
-1.864
11
4.112
21
-1.855
0
LINE
8
CYAN2
6
CONTINUOUS
10
4.112
20
-1.855
11
4.112
21
-1.836
0
LINE
8
CYAN2
6
CONTINUOUS
10
4.112
20
-1.836
11
4.109
21
-1.831
0
LINE
8
CYAN2
6
CONTINUOUS
10
4.109
20
-1.831
11
4.107
21
-1.829
0
LINE
8
CYAN2
6
CONTINUOUS
10
4.107
20
-1.829
11
4.102
21
-1.826
0
LINE
8
CYAN2
6
CONTINUOUS
10
4.102
20
-1.826
11
4.093
21
-1.826
0
LINE
8
CYAN2
6
CONTINUOUS
10
4.093
20
-1.826
11
4.088
21
-1.829
0
LINE
8
CYAN2
6
CONTINUOUS
10
4.088
20
-1.829
11
4.085
21
-1.831
0
LINE
8
CYAN2
6
CONTINUOUS
10
4.085
20
-1.831
11
4.083
21
-1.836
0
LINE
8
CYAN2
6
CONTINUOUS
10
4.083
20
-1.836
11
4.083
21
-1.848
0
LINE
8
CYAN2
6
CONTINUOUS
10
4.083
20
-1.848
11
4.085
21
-1.852
0
LINE
8
CYAN2
6
CONTINUOUS
10
4.085
20
-1.852
11
4.088
21
-1.855
0
LINE
8
CYAN2
6
CONTINUOUS
10
4.088
20
-1.855
11
4.093
21
-1.857
0
LINE
8
CYAN2
6
CONTINUOUS
10
4.093
20
-1.857
11
4.102
21
-1.857
0
LINE
8
CYAN2
6
CONTINUOUS
10
4.102
20
-1.857
11
4.107
21
-1.855
0
LINE
8
CYAN2
6
CONTINUOUS
10
4.107
20
-1.855
11
4.109
21
-1.852
0
LINE
8
CYAN2
6
CONTINUOUS
10
4.109
20
-1.852
11
4.112
21
-1.848
0
LINE
8
CYAN2
6
CONTINUOUS
10
4.065
20
-1.785
11
4.048
21
-1.761
0
LINE
8
CYAN2
6
CONTINUOUS
10
4.036
20
-1.785
11
4.036
21
-1.735
0
LINE
8
CYAN2
6
CONTINUOUS
10
4.036
20
-1.735
11
4.055
21
-1.735
0
LINE
8
CYAN2
6
CONTINUOUS
10
4.055
20
-1.735
11
4.06
21
-1.738
0
LINE
8
CYAN2
6
CONTINUOUS
10
4.06
20
-1.738
11
4.063
21
-1.74
0
LINE
8
CYAN2
6
CONTINUOUS
10
4.063
20
-1.74
11
4.065
21
-1.745
0
LINE
8
CYAN2
6
CONTINUOUS
10
4.065
20
-1.745
11
4.065
21
-1.752
0
LINE
8
CYAN2
6
CONTINUOUS
10
4.065
20
-1.752
11
4.063
21
-1.757
0
LINE
8
CYAN2
6
CONTINUOUS
10
4.063
20
-1.757
11
4.06
21
-1.759
0
LINE
8
CYAN2
6
CONTINUOUS
10
4.06
20
-1.759
11
4.055
21
-1.761
0
LINE
8
CYAN2
6
CONTINUOUS
10
4.055
20
-1.761
11
4.036
21
-1.761
0
LINE
8
RED2
6
CONTINUOUS
10
4.45
20
-2.1
11
4.45
21
-2.15
0
LINE
8
RED2
6
CONTINUOUS
10
4.45
20
-2.15
11
4.5
21
-2.15
0
LINE
8
RED2
6
CONTINUOUS
10
4.5
20
-2.15
11
4.45
21
-2.2
0
LINE
8
RED2
6
CONTINUOUS
10
4.45
20
-2.2
11
4.4
21
-2.15
0
LINE
8
RED2
6
CONTINUOUS
10
4.4
20
-2.15
11
4.45
21
-2.15
0
LINE
8
CYAN2
6
CONTINUOUS
10
4.416
20
-2.25
11
4.412
21
-2.247
0
LINE
8
CYAN2
6
CONTINUOUS
10
4.412
20
-2.247
11
4.405
21
-2.247
0
LINE
8
CYAN2
6
CONTINUOUS
10
4.405
20
-2.247
11
4.397
21
-2.25
0
LINE
8
CYAN2
6
CONTINUOUS
10
4.397
20
-2.25
11
4.393
21
-2.254
0
LINE
8
CYAN2
6
CONTINUOUS
10
4.393
20
-2.254
11
4.39
21
-2.259
0
LINE
8
CYAN2
6
CONTINUOUS
10
4.39
20
-2.259
11
4.388
21
-2.269
0
LINE
8
CYAN2
6
CONTINUOUS
10
4.388
20
-2.269
11
4.388
21
-2.276
0
LINE
8
CYAN2
6
CONTINUOUS
10
4.388
20
-2.276
11
4.39
21
-2.285
0
LINE
8
CYAN2
6
CONTINUOUS
10
4.39
20
-2.285
11
4.393
21
-2.29
0
LINE
8
CYAN2
6
CONTINUOUS
10
4.393
20
-2.29
11
4.397
21
-2.295
0
LINE
8
CYAN2
6
CONTINUOUS
10
4.397
20
-2.295
11
4.405
21
-2.297
0
LINE
8
CYAN2
6
CONTINUOUS
10
4.405
20
-2.297
11
4.409
21
-2.297
0
LINE
8
CYAN2
6
CONTINUOUS
10
4.409
20
-2.297
11
4.416
21
-2.295
0
LINE
8
CYAN2
6
CONTINUOUS
10
4.416
20
-2.295
11
4.419
21
-2.292
0
LINE
8
CYAN2
6
CONTINUOUS
10
4.419
20
-2.292
11
4.419
21
-2.276
0
LINE
8
CYAN2
6
CONTINUOUS
10
4.419
20
-2.276
11
4.409
21
-2.276
0
LINE
8
CYAN2
6
CONTINUOUS
10
4.44
20
-2.297
11
4.44
21
-2.247
0
LINE
8
CYAN2
6
CONTINUOUS
10
4.44
20
-2.247
11
4.469
21
-2.297
0
LINE
8
CYAN2
6
CONTINUOUS
10
4.469
20
-2.297
11
4.469
21
-2.247
0
LINE
8
CYAN2
6
CONTINUOUS
10
4.493
20
-2.297
11
4.493
21
-2.247
0
LINE
8
CYAN2
6
CONTINUOUS
10
4.493
20
-2.247
11
4.505
21
-2.247
0
LINE
8
CYAN2
6
CONTINUOUS
10
4.505
20
-2.247
11
4.512
21
-2.25
0
LINE
8
CYAN2
6
CONTINUOUS
10
4.512
20
-2.25
11
4.516
21
-2.254
0
LINE
8
CYAN2
6
CONTINUOUS
10
4.516
20
-2.254
11
4.519
21
-2.259
0
LINE
8
CYAN2
6
CONTINUOUS
10
4.519
20
-2.259
11
4.521
21
-2.269
0
LINE
8
CYAN2
6
CONTINUOUS
10
4.521
20
-2.269
11
4.521
21
-2.276
0
LINE
8
CYAN2
6
CONTINUOUS
10
4.521
20
-2.276
11
4.519
21
-2.285
0
LINE
8
CYAN2
6
CONTINUOUS
10
4.519
20
-2.285
11
4.516
21
-2.29
0
LINE
8
CYAN2
6
CONTINUOUS
10
4.516
20
-2.29
11
4.512
21
-2.295
0
LINE
8
CYAN2
6
CONTINUOUS
10
4.512
20
-2.295
11
4.505
21
-2.297
0
LINE
8
CYAN2
6
CONTINUOUS
10
4.505
20
-2.297
11
4.493
21
-2.297
0
LINE
8
RED2
6
CONTINUOUS
10
4.53
20
-1.92
11
4.37
21
-1.92
0
LINE
8
RED2
6
CONTINUOUS
10
4.53
20
-1.98
11
4.37
21
-1.98
0
LINE
8
RED2
6
CONTINUOUS
10
4.45
20
-1.99
11
4.45
21
-2.1
0
LINE
8
RED2
6
CONTINUOUS
10
4.45
20
-1.91
11
4.45
21
-1.8
0
LINE
8
CYAN2
6
CONTINUOUS
10
4.716
20
-1.982
11
4.719
21
-1.984
0
LINE
8
CYAN2
6
CONTINUOUS
10
4.719
20
-1.984
11
4.721
21
-1.991
0
LINE
8
CYAN2
6
CONTINUOUS
10
4.721
20
-1.991
11
4.721
21
-1.996
0
LINE
8
CYAN2
6
CONTINUOUS
10
4.721
20
-1.996
11
4.719
21
-2.003
0
LINE
8
CYAN2
6
CONTINUOUS
10
4.719
20
-2.003
11
4.714
21
-2.008
0
LINE
8
CYAN2
6
CONTINUOUS
10
4.714
20
-2.008
11
4.709
21
-2.01
0
LINE
8
CYAN2
6
CONTINUOUS
10
4.709
20
-2.01
11
4.7
21
-2.013
0
LINE
8
CYAN2
6
CONTINUOUS
10
4.7
20
-2.013
11
4.693
21
-2.013
0
LINE
8
CYAN2
6
CONTINUOUS
10
4.693
20
-2.013
11
4.683
21
-2.01
0
LINE
8
CYAN2
6
CONTINUOUS
10
4.683
20
-2.01
11
4.678
21
-2.008
0
LINE
8
CYAN2
6
CONTINUOUS
10
4.678
20
-2.008
11
4.674
21
-2.003
0
LINE
8
CYAN2
6
CONTINUOUS
10
4.674
20
-2.003
11
4.671
21
-1.996
0
LINE
8
CYAN2
6
CONTINUOUS
10
4.671
20
-1.996
11
4.671
21
-1.991
0
LINE
8
CYAN2
6
CONTINUOUS
10
4.671
20
-1.991
11
4.674
21
-1.984
0
LINE
8
CYAN2
6
CONTINUOUS
10
4.674
20
-1.984
11
4.676
21
-1.982
0
LINE
8
CYAN2
6
CONTINUOUS
10
4.721
20
-1.934
11
4.721
21
-1.963
0
LINE
8
CYAN2
6
CONTINUOUS
10
4.721
20
-1.948
11
4.671
21
-1.948
0
LINE
8
CYAN2
6
CONTINUOUS
10
4.671
20
-1.948
11
4.678
21
-1.953
0
LINE
8
CYAN2
6
CONTINUOUS
10
4.678
20
-1.953
11
4.683
21
-1.958
0
LINE
8
CYAN2
6
CONTINUOUS
10
4.683
20
-1.958
11
4.685
21
-1.963
0
LINE
8
CYAN2
6
CONTINUOUS
10
4.671
20
-1.917
11
4.671
21
-1.884
0
LINE
8
CYAN2
6
CONTINUOUS
10
4.671
20
-1.884
11
4.721
21
-1.905
0
LINE
8
CYAN2
6
CONTINUOUS
10
4.63
20
-2.005
11
4.63
21
-2.034
0
LINE
8
CYAN2
6
CONTINUOUS
10
4.63
20
-2.02
11
4.58
21
-2.02
0
LINE
8
CYAN2
6
CONTINUOUS
10
4.58
20
-2.02
11
4.587
21
-2.025
0
LINE
8
CYAN2
6
CONTINUOUS
10
4.587
20
-2.025
11
4.592
21
-2.029
0
LINE
8
CYAN2
6
CONTINUOUS
10
4.592
20
-2.029
11
4.594
21
-2.034
0
LINE
8
CYAN2
6
CONTINUOUS
10
4.58
20
-1.975
11
4.58
21
-1.97
0
LINE
8
CYAN2
6
CONTINUOUS
10
4.58
20
-1.97
11
4.583
21
-1.965
0
LINE
8
CYAN2
6
CONTINUOUS
10
4.583
20
-1.965
11
4.585
21
-1.963
0
LINE
8
CYAN2
6
CONTINUOUS
10
4.585
20
-1.963
11
4.59
21
-1.96
0
LINE
8
CYAN2
6
CONTINUOUS
10
4.59
20
-1.96
11
4.599
21
-1.958
0
LINE
8
CYAN2
6
CONTINUOUS
10
4.599
20
-1.958
11
4.611
21
-1.958
0
LINE
8
CYAN2
6
CONTINUOUS
10
4.611
20
-1.958
11
4.621
21
-1.96
0
LINE
8
CYAN2
6
CONTINUOUS
10
4.621
20
-1.96
11
4.625
21
-1.963
0
LINE
8
CYAN2
6
CONTINUOUS
10
4.625
20
-1.963
11
4.628
21
-1.965
0
LINE
8
CYAN2
6
CONTINUOUS
10
4.628
20
-1.965
11
4.63
21
-1.97
0
LINE
8
CYAN2
6
CONTINUOUS
10
4.63
20
-1.97
11
4.63
21
-1.975
0
LINE
8
CYAN2
6
CONTINUOUS
10
4.63
20
-1.975
11
4.628
21
-1.979
0
LINE
8
CYAN2
6
CONTINUOUS
10
4.628
20
-1.979
11
4.625
21
-1.982
0
LINE
8
CYAN2
6
CONTINUOUS
10
4.625
20
-1.982
11
4.621
21
-1.984
0
LINE
8
CYAN2
6
CONTINUOUS
10
4.621
20
-1.984
11
4.611
21
-1.986
0
LINE
8
CYAN2
6
CONTINUOUS
10
4.611
20
-1.986
11
4.599
21
-1.986
0
LINE
8
CYAN2
6
CONTINUOUS
10
4.599
20
-1.986
11
4.59
21
-1.984
0
LINE
8
CYAN2
6
CONTINUOUS
10
4.59
20
-1.984
11
4.585
21
-1.982
0
LINE
8
CYAN2
6
CONTINUOUS
10
4.585
20
-1.982
11
4.583
21
-1.979
0
LINE
8
CYAN2
6
CONTINUOUS
10
4.583
20
-1.979
11
4.58
21
-1.975
0
LINE
8
CYAN2
6
CONTINUOUS
10
4.58
20
-1.927
11
4.58
21
-1.922
0
LINE
8
CYAN2
6
CONTINUOUS
10
4.58
20
-1.922
11
4.583
21
-1.917
0
LINE
8
CYAN2
6
CONTINUOUS
10
4.583
20
-1.917
11
4.585
21
-1.915
0
LINE
8
CYAN2
6
CONTINUOUS
10
4.585
20
-1.915
11
4.59
21
-1.913
0
LINE
8
CYAN2
6
CONTINUOUS
10
4.59
20
-1.913
11
4.599
21
-1.91
0
LINE
8
CYAN2
6
CONTINUOUS
10
4.599
20
-1.91
11
4.611
21
-1.91
0
LINE
8
CYAN2
6
CONTINUOUS
10
4.611
20
-1.91
11
4.621
21
-1.913
0
LINE
8
CYAN2
6
CONTINUOUS
10
4.621
20
-1.913
11
4.625
21
-1.915
0
LINE
8
CYAN2
6
CONTINUOUS
10
4.625
20
-1.915
11
4.628
21
-1.917
0
LINE
8
CYAN2
6
CONTINUOUS
10
4.628
20
-1.917
11
4.63
21
-1.922
0
LINE
8
CYAN2
6
CONTINUOUS
10
4.63
20
-1.922
11
4.63
21
-1.927
0
LINE
8
CYAN2
6
CONTINUOUS
10
4.63
20
-1.927
11
4.628
21
-1.932
0
LINE
8
CYAN2
6
CONTINUOUS
10
4.628
20
-1.932
11
4.625
21
-1.934
0
LINE
8
CYAN2
6
CONTINUOUS
10
4.625
20
-1.934
11
4.621
21
-1.936
0
LINE
8
CYAN2
6
CONTINUOUS
10
4.621
20
-1.936
11
4.611
21
-1.939
0
LINE
8
CYAN2
6
CONTINUOUS
10
4.611
20
-1.939
11
4.599
21
-1.939
0
LINE
8
CYAN2
6
CONTINUOUS
10
4.599
20
-1.939
11
4.59
21
-1.936
0
LINE
8
CYAN2
6
CONTINUOUS
10
4.59
20
-1.936
11
4.585
21
-1.934
0
LINE
8
CYAN2
6
CONTINUOUS
10
4.585
20
-1.934
11
4.583
21
-1.932
0
LINE
8
CYAN2
6
CONTINUOUS
10
4.583
20
-1.932
11
4.58
21
-1.927
0
LINE
8
CYAN2
6
CONTINUOUS
10
4.597
20
-1.889
11
4.63
21
-1.889
0
LINE
8
CYAN2
6
CONTINUOUS
10
4.602
20
-1.889
11
4.599
21
-1.886
0
LINE
8
CYAN2
6
CONTINUOUS
10
4.599
20
-1.886
11
4.597
21
-1.882
0
LINE
8
CYAN2
6
CONTINUOUS
10
4.597
20
-1.882
11
4.597
21
-1.875
0
LINE
8
CYAN2
6
CONTINUOUS
10
4.597
20
-1.875
11
4.599
21
-1.87
0
LINE
8
CYAN2
6
CONTINUOUS
10
4.599
20
-1.87
11
4.604
21
-1.867
0
LINE
8
CYAN2
6
CONTINUOUS
10
4.604
20
-1.867
11
4.63
21
-1.867
0
LINE
8
GREEN2
6
CONTINUOUS
10
3.75
20
-1.65
11
3.9
21
-1.65
0
LINE
8
GREEN2
6
CONTINUOUS
10
4.2
20
-1.65
11
4.45
21
-1.65
0
LINE
8
GREEN2
6
CONTINUOUS
10
5.1
20
-1.65
11
5.3
21
-1.65
0
LINE
8
GREEN2
6
CONTINUOUS
10
4.45
20
-1.8
11
4.45
21
-1.65
0
LINE
8
GREEN2
6
CONTINUOUS
10
4.45
20
-1.65
11
4.8
21
-1.65
0
LINE
8
BROWN2
6
CONTINUOUS
10
5.374
20
-1.672
11
5.374
21
-1.622
0
LINE
8
BROWN2
6
CONTINUOUS
10
5.398
20
-1.672
11
5.398
21
-1.622
0
LINE
8
BROWN2
6
CONTINUOUS
10
5.398
20
-1.622
11
5.427
21
-1.672
0
LINE
8
BROWN2
6
CONTINUOUS
10
5.427
20
-1.672
11
5.427
21
-1.622
0
LINE
8
BROWN2
6
CONTINUOUS
10
5.439
20
-1.677
11
5.477
21
-1.677
0
LINE
8
BROWN2
6
CONTINUOUS
10
5.486
20
-1.658
11
5.51
21
-1.658
0
LINE
8
BROWN2
6
CONTINUOUS
10
5.482
20
-1.672
11
5.498
21
-1.622
0
LINE
8
BROWN2
6
CONTINUOUS
10
5.498
20
-1.622
11
5.515
21
-1.672
0
LINE
8
BROWN2
6
CONTINUOUS
10
5.52
20
-1.677
11
5.558
21
-1.677
0
LINE
8
BROWN2
6
CONTINUOUS
10
5.579
20
-1.622
11
5.589
21
-1.622
0
LINE
8
BROWN2
6
CONTINUOUS
10
5.589
20
-1.622
11
5.593
21
-1.625
0
LINE
8
BROWN2
6
CONTINUOUS
10
5.593
20
-1.625
11
5.598
21
-1.629
0
LINE
8
BROWN2
6
CONTINUOUS
10
5.598
20
-1.629
11
5.601
21
-1.639
0
LINE
8
BROWN2
6
CONTINUOUS
10
5.601
20
-1.639
11
5.601
21
-1.655
0
LINE
8
BROWN2
6
CONTINUOUS
10
5.601
20
-1.655
11
5.598
21
-1.665
0
LINE
8
BROWN2
6
CONTINUOUS
10
5.598
20
-1.665
11
5.593
21
-1.67
0
LINE
8
BROWN2
6
CONTINUOUS
10
5.593
20
-1.67
11
5.589
21
-1.672
0
LINE
8
BROWN2
6
CONTINUOUS
10
5.589
20
-1.672
11
5.579
21
-1.672
0
LINE
8
BROWN2
6
CONTINUOUS
10
5.579
20
-1.672
11
5.574
21
-1.67
0
LINE
8
BROWN2
6
CONTINUOUS
10
5.574
20
-1.67
11
5.57
21
-1.665
0
LINE
8
BROWN2
6
CONTINUOUS
10
5.57
20
-1.665
11
5.567
21
-1.655
0
LINE
8
BROWN2
6
CONTINUOUS
10
5.567
20
-1.655
11
5.567
21
-1.639
0
LINE
8
BROWN2
6
CONTINUOUS
10
5.567
20
-1.639
11
5.57
21
-1.629
0
LINE
8
BROWN2
6
CONTINUOUS
10
5.57
20
-1.629
11
5.574
21
-1.625
0
LINE
8
BROWN2
6
CONTINUOUS
10
5.574
20
-1.625
11
5.579
21
-1.622
0
LINE
8
BROWN2
6
CONTINUOUS
10
5.643
20
-1.639
11
5.643
21
-1.672
0
LINE
8
BROWN2
6
CONTINUOUS
10
5.622
20
-1.639
11
5.622
21
-1.665
0
LINE
8
BROWN2
6
CONTINUOUS
10
5.622
20
-1.665
11
5.624
21
-1.67
0
LINE
8
BROWN2
6
CONTINUOUS
10
5.624
20
-1.67
11
5.629
21
-1.672
0
LINE
8
BROWN2
6
CONTINUOUS
10
5.629
20
-1.672
11
5.636
21
-1.672
0
LINE
8
BROWN2
6
CONTINUOUS
10
5.636
20
-1.672
11
5.641
21
-1.67
0
LINE
8
BROWN2
6
CONTINUOUS
10
5.641
20
-1.67
11
5.643
21
-1.667
0
LINE
8
BROWN2
6
CONTINUOUS
10
5.66
20
-1.639
11
5.679
21
-1.639
0
LINE
8
BROWN2
6
CONTINUOUS
10
5.667
20
-1.622
11
5.667
21
-1.665
0
LINE
8
BROWN2
6
CONTINUOUS
10
5.667
20
-1.665
11
5.67
21
-1.67
0
LINE
8
BROWN2
6
CONTINUOUS
10
5.67
20
-1.67
11
5.674
21
-1.672
0
LINE
8
BROWN2
6
CONTINUOUS
10
5.674
20
-1.672
11
5.679
21
-1.672
0
LINE
8
BROWN2
6
CONTINUOUS
10
5.3
20
-1.65
11
5.325
21
-1.675
0
LINE
8
BROWN2
6
CONTINUOUS
10
5.325
20
-1.675
11
5.35
21
-1.675
0
LINE
8
BROWN2
6
CONTINUOUS
10
5.35
20
-1.675
11
5.35
21
-1.625
0
LINE
8
BROWN2
6
CONTINUOUS
10
5.35
20
-1.625
11
5.325
21
-1.625
0
LINE
8
BROWN2
6
CONTINUOUS
10
5.325
20
-1.625
11
5.3
21
-1.65
0
LINE
8
BROWN2
6
CONTINUOUS
10
3.42
20
-1.672
11
3.42
21
-1.622
0
LINE
8
BROWN2
6
CONTINUOUS
10
3.42
20
-1.622
11
3.437
21
-1.658
0
LINE
8
BROWN2
6
CONTINUOUS
10
3.437
20
-1.658
11
3.453
21
-1.622
0
LINE
8
BROWN2
6
CONTINUOUS
10
3.453
20
-1.622
11
3.453
21
-1.672
0
LINE
8
BROWN2
6
CONTINUOUS
10
3.506
20
-1.667
11
3.503
21
-1.67
0
LINE
8
BROWN2
6
CONTINUOUS
10
3.503
20
-1.67
11
3.496
21
-1.672
0
LINE
8
BROWN2
6
CONTINUOUS
10
3.496
20
-1.672
11
3.491
21
-1.672
0
LINE
8
BROWN2
6
CONTINUOUS
10
3.491
20
-1.672
11
3.484
21
-1.67
0
LINE
8
BROWN2
6
CONTINUOUS
10
3.484
20
-1.67
11
3.479
21
-1.665
0
LINE
8
BROWN2
6
CONTINUOUS
10
3.479
20
-1.665
11
3.477
21
-1.66
0
LINE
8
BROWN2
6
CONTINUOUS
10
3.477
20
-1.66
11
3.475
21
-1.651
0
LINE
8
BROWN2
6
CONTINUOUS
10
3.475
20
-1.651
11
3.475
21
-1.644
0
LINE
8
BROWN2
6
CONTINUOUS
10
3.475
20
-1.644
11
3.477
21
-1.634
0
LINE
8
BROWN2
6
CONTINUOUS
10
3.477
20
-1.634
11
3.479
21
-1.629
0
LINE
8
BROWN2
6
CONTINUOUS
10
3.479
20
-1.629
11
3.484
21
-1.625
0
LINE
8
BROWN2
6
CONTINUOUS
10
3.484
20
-1.625
11
3.491
21
-1.622
0
LINE
8
BROWN2
6
CONTINUOUS
10
3.491
20
-1.622
11
3.496
21
-1.622
0
LINE
8
BROWN2
6
CONTINUOUS
10
3.496
20
-1.622
11
3.503
21
-1.625
0
LINE
8
BROWN2
6
CONTINUOUS
10
3.503
20
-1.625
11
3.506
21
-1.627
0
LINE
8
BROWN2
6
CONTINUOUS
10
3.534
20
-1.672
11
3.529
21
-1.67
0
LINE
8
BROWN2
6
CONTINUOUS
10
3.529
20
-1.67
11
3.527
21
-1.665
0
LINE
8
BROWN2
6
CONTINUOUS
10
3.527
20
-1.665
11
3.527
21
-1.622
0
LINE
8
BROWN2
6
CONTINUOUS
10
3.553
20
-1.672
11
3.553
21
-1.622
0
LINE
8
BROWN2
6
CONTINUOUS
10
3.558
20
-1.653
11
3.572
21
-1.672
0
LINE
8
BROWN2
6
CONTINUOUS
10
3.572
20
-1.639
11
3.553
21
-1.658
0
LINE
8
BROWN2
6
CONTINUOUS
10
3.582
20
-1.677
11
3.62
21
-1.677
0
LINE
8
BROWN2
6
CONTINUOUS
10
3.648
20
-1.646
11
3.632
21
-1.646
0
LINE
8
BROWN2
6
CONTINUOUS
10
3.632
20
-1.672
11
3.632
21
-1.622
0
LINE
8
BROWN2
6
CONTINUOUS
10
3.632
20
-1.622
11
3.656
21
-1.622
0
LINE
8
BROWN2
6
CONTINUOUS
10
3.675
20
-1.672
11
3.675
21
-1.639
0
LINE
8
BROWN2
6
CONTINUOUS
10
3.675
20
-1.622
11
3.672
21
-1.625
0
LINE
8
BROWN2
6
CONTINUOUS
10
3.672
20
-1.625
11
3.675
21
-1.627
0
LINE
8
BROWN2
6
CONTINUOUS
10
3.675
20
-1.627
11
3.677
21
-1.625
0
LINE
8
BROWN2
6
CONTINUOUS
10
3.677
20
-1.625
11
3.675
21
-1.622
0
LINE
8
BROWN2
6
CONTINUOUS
10
3.675
20
-1.622
11
3.675
21
-1.627
0
LINE
8
BROWN2
6
CONTINUOUS
10
3.75
20
-1.65
11
3.725
21
-1.625
0
LINE
8
BROWN2
6
CONTINUOUS
10
3.725
20
-1.625
11
3.7
21
-1.625
0
LINE
8
BROWN2
6
CONTINUOUS
10
3.7
20
-1.625
11
3.7
21
-1.675
0
LINE
8
BROWN2
6
CONTINUOUS
10
3.7
20
-1.675
11
3.725
21
-1.675
0
LINE
8
BROWN2
6
CONTINUOUS
10
3.725
20
-1.675
11
3.75
21
-1.65
0
POLYLINE
8
GREEN2
66
1
70
1
40
0.02
41
0.02
0
VERTEX
8
GREEN2
10
4.44
 20
-1.65
42
1.0
0
VERTEX
8
GREEN2
10
4.46
 20
-1.65
42
1.0
0
SEQEND
  0
ENDSEC
  0
EOF
