  0
SECTION
  2
HEADER
  9
$ANGBASE
  50
0.0
  9
$ANGDIR
  70
1
  9
$MEASUREMENT
  70
0
  0
ENDSEC
  0
SECTION
  2
TABLES
  0
TABLE
  2
LTYPE
  70
4
  0
LTYPE
  5
40F
  2
CONTINUOUS
  70
0
  3
Solid line
  72
65
  73
0
  40
0.0
  0
LTYPE
  5
410
  2
DASHDOT
 70
0
  3
Dash Dot ____ _ ____ _
 72
65
 73
4
 40
2.0
 49
1.25
 49
-0.25
 49
0.25
 49
-0.25
  0
LTYPE
  5
411
  2
DASHED
 70
0
  3
Dashed __ __ __ __ __
 72
65
 73
2
 40
0.75
 49
0.5
 49
-0.25
  0
LTYPE
  5
43B
  2
DOTTED
 70
0
  3
Dotted .  .  .  .
 72
65
 73
2
 40
0.2
 49
0.0
 49
-0.2
  0
ENDTAB
  0
TABLE
  2
STYLE
  70
4
  0
STYLE
  2
KICAD
  70
0
  40
0
  41
1
  42
1
  50
0
  71
0
  3
isocp.shx
  0
STYLE
  2
KICADB
  70
0
  40
0
  41
1
  42
1
  50
0
  71
0
  3
isocp.shx
  0
STYLE
  2
KICADI
  70
0
  40
0
  41
1
  42
1
  50
15
  71
0
  3
isocp.shx
  0
STYLE
  2
KICADBI
  70
0
  40
0
  41
1
  42
1
  50
15
  71
0
  3
isocp.shx
  0
ENDTAB
  0
TABLE
  2
LAYER
  70
30
  0
LAYER
  2
BLACK
  70
0
  62
7
  6
CONTINUOUS
  0
LAYER
  2
GRAY1
  70
0
  62
251
  6
CONTINUOUS
  0
LAYER
  2
GRAY2
  70
0
  62
8
  6
CONTINUOUS
  0
LAYER
  2
GRAY3
  70
0
  62
9
  6
CONTINUOUS
  0
LAYER
  2
WHITE
  70
0
  62
7
  6
CONTINUOUS
  0
LAYER
  2
LYELLOW
  70
0
  62
51
  6
CONTINUOUS
  0
LAYER
  2
BLUE1
  70
0
  62
178
  6
CONTINUOUS
  0
LAYER
  2
GREEN1
  70
0
  62
98
  6
CONTINUOUS
  0
LAYER
  2
CYAN1
  70
0
  62
138
  6
CONTINUOUS
  0
LAYER
  2
RED1
  70
0
  62
18
  6
CONTINUOUS
  0
LAYER
  2
MAGENTA1
  70
0
  62
228
  6
CONTINUOUS
  0
LAYER
  2
BROWN1
  70
0
  62
58
  6
CONTINUOUS
  0
LAYER
  2
BLUE2
  70
0
  62
5
  6
CONTINUOUS
  0
LAYER
  2
GREEN2
  70
0
  62
3
  6
CONTINUOUS
  0
LAYER
  2
CYAN2
  70
0
  62
4
  6
CONTINUOUS
  0
LAYER
  2
RED2
  70
0
  62
1
  6
CONTINUOUS
  0
LAYER
  2
MAGENTA2
  70
0
  62
6
  6
CONTINUOUS
  0
LAYER
  2
BROWN2
  70
0
  62
54
  6
CONTINUOUS
  0
LAYER
  2
BLUE3
  70
0
  62
171
  6
CONTINUOUS
  0
LAYER
  2
GREEN3
  70
0
  62
91
  6
CONTINUOUS
  0
LAYER
  2
CYAN3
  70
0
  62
131
  6
CONTINUOUS
  0
LAYER
  2
RED3
  70
0
  62
11
  6
CONTINUOUS
  0
LAYER
  2
MAGENTA3
  70
0
  62
221
  6
CONTINUOUS
  0
LAYER
  2
YELLOW3
  70
0
  62
2
  6
CONTINUOUS
  0
LAYER
  2
BLUE4
  70
0
  62
5
  6
CONTINUOUS
  0
LAYER
  2
GREEN4
  70
0
  62
3
  6
CONTINUOUS
  0
LAYER
  2
CYAN4
  70
0
  62
4
  6
CONTINUOUS
  0
LAYER
  2
RED4
  70
0
  62
1
  6
CONTINUOUS
  0
LAYER
  2
MAGENTA4
  70
0
  62
6
  6
CONTINUOUS
  0
LAYER
  2
YELLOW4
  70
0
  62
2
  6
CONTINUOUS
  0
ENDTAB
  0
ENDSEC
  0
SECTION
  2
ENTITIES
0
LINE
8
RED2
6
CONTINUOUS
10
6.969
20
-6.536
11
6.969
21
-7.796
0
LINE
8
RED2
6
CONTINUOUS
10
6.969
20
-7.796
11
11.221
21
-7.796
0
LINE
8
RED2
6
CONTINUOUS
10
11.221
20
-7.796
11
11.221
21
-6.536
0
LINE
8
RED2
6
CONTINUOUS
10
11.221
20
-6.536
11
6.969
21
-6.536
0
LINE
8
RED2
6
CONTINUOUS
10
0.394
20
-0.394
11
0.394
21
-7.874
0
LINE
8
RED2
6
CONTINUOUS
10
0.394
20
-7.874
11
11.299
21
-7.874
0
LINE
8
RED2
6
CONTINUOUS
10
11.299
20
-7.874
11
11.299
21
-0.394
0
LINE
8
RED2
6
CONTINUOUS
10
11.299
20
-0.394
11
0.394
21
-0.394
0
LINE
8
RED2
6
CONTINUOUS
10
0.472
20
-0.472
11
0.472
21
-7.796
0
LINE
8
RED2
6
CONTINUOUS
10
0.472
20
-7.796
11
11.221
21
-7.796
0
LINE
8
RED2
6
CONTINUOUS
10
11.221
20
-7.796
11
11.221
21
-0.472
0
LINE
8
RED2
6
CONTINUOUS
10
11.221
20
-0.472
11
0.472
21
-0.472
0
LINE
8
RED2
6
CONTINUOUS
10
2.362
20
-0.472
11
2.362
21
-0.394
0
LINE
8
RED2
6
CONTINUOUS
10
4.331
20
-0.472
11
4.331
21
-0.394
0
LINE
8
RED2
6
CONTINUOUS
10
6.299
20
-0.472
11
6.299
21
-0.394
0
LINE
8
RED2
6
CONTINUOUS
10
8.268
20
-0.472
11
8.268
21
-0.394
0
LINE
8
RED2
6
CONTINUOUS
10
10.236
20
-0.472
11
10.236
21
-0.394
0
LINE
8
RED2
6
CONTINUOUS
10
1.419
20
-0.456
11
1.39
21
-0.456
0
LINE
8
RED2
6
CONTINUOUS
10
1.405
20
-0.456
11
1.405
21
-0.405
0
LINE
8
RED2
6
CONTINUOUS
10
1.405
20
-0.405
11
1.4
21
-0.412
0
LINE
8
RED2
6
CONTINUOUS
10
1.4
20
-0.412
11
1.395
21
-0.417
0
LINE
8
RED2
6
CONTINUOUS
10
1.395
20
-0.417
11
1.39
21
-0.419
0
LINE
8
RED2
6
CONTINUOUS
10
3.358
20
-0.409
11
3.361
21
-0.407
0
LINE
8
RED2
6
CONTINUOUS
10
3.361
20
-0.407
11
3.366
21
-0.405
0
LINE
8
RED2
6
CONTINUOUS
10
3.366
20
-0.405
11
3.378
21
-0.405
0
LINE
8
RED2
6
CONTINUOUS
10
3.378
20
-0.405
11
3.383
21
-0.407
0
LINE
8
RED2
6
CONTINUOUS
10
3.383
20
-0.407
11
3.385
21
-0.409
0
LINE
8
RED2
6
CONTINUOUS
10
3.385
20
-0.409
11
3.387
21
-0.414
0
LINE
8
RED2
6
CONTINUOUS
10
3.387
20
-0.414
11
3.387
21
-0.419
0
LINE
8
RED2
6
CONTINUOUS
10
3.387
20
-0.419
11
3.385
21
-0.426
0
LINE
8
RED2
6
CONTINUOUS
10
3.385
20
-0.426
11
3.356
21
-0.456
0
LINE
8
RED2
6
CONTINUOUS
10
3.356
20
-0.456
11
3.387
21
-0.456
0
LINE
8
RED2
6
CONTINUOUS
10
5.325
20
-0.405
11
5.356
21
-0.405
0
LINE
8
RED2
6
CONTINUOUS
10
5.356
20
-0.405
11
5.339
21
-0.424
0
LINE
8
RED2
6
CONTINUOUS
10
5.339
20
-0.424
11
5.347
21
-0.424
0
LINE
8
RED2
6
CONTINUOUS
10
5.347
20
-0.424
11
5.352
21
-0.426
0
LINE
8
RED2
6
CONTINUOUS
10
5.352
20
-0.426
11
5.354
21
-0.429
0
LINE
8
RED2
6
CONTINUOUS
10
5.354
20
-0.429
11
5.356
21
-0.434
0
LINE
8
RED2
6
CONTINUOUS
10
5.356
20
-0.434
11
5.356
21
-0.446
0
LINE
8
RED2
6
CONTINUOUS
10
5.356
20
-0.446
11
5.354
21
-0.451
0
LINE
8
RED2
6
CONTINUOUS
10
5.354
20
-0.451
11
5.352
21
-0.453
0
LINE
8
RED2
6
CONTINUOUS
10
5.352
20
-0.453
11
5.347
21
-0.456
0
LINE
8
RED2
6
CONTINUOUS
10
5.347
20
-0.456
11
5.332
21
-0.456
0
LINE
8
RED2
6
CONTINUOUS
10
5.332
20
-0.456
11
5.327
21
-0.453
0
LINE
8
RED2
6
CONTINUOUS
10
5.327
20
-0.453
11
5.325
21
-0.451
0
LINE
8
RED2
6
CONTINUOUS
10
7.32
20
-0.422
11
7.32
21
-0.456
0
LINE
8
RED2
6
CONTINUOUS
10
7.307
20
-0.402
11
7.295
21
-0.439
0
LINE
8
RED2
6
CONTINUOUS
10
7.295
20
-0.439
11
7.327
21
-0.439
0
LINE
8
RED2
6
CONTINUOUS
10
9.291
20
-0.405
11
9.267
21
-0.405
0
LINE
8
RED2
6
CONTINUOUS
10
9.267
20
-0.405
11
9.264
21
-0.429
0
LINE
8
RED2
6
CONTINUOUS
10
9.264
20
-0.429
11
9.267
21
-0.426
0
LINE
8
RED2
6
CONTINUOUS
10
9.267
20
-0.426
11
9.272
21
-0.424
0
LINE
8
RED2
6
CONTINUOUS
10
9.272
20
-0.424
11
9.284
21
-0.424
0
LINE
8
RED2
6
CONTINUOUS
10
9.284
20
-0.424
11
9.289
21
-0.426
0
LINE
8
RED2
6
CONTINUOUS
10
9.289
20
-0.426
11
9.291
21
-0.429
0
LINE
8
RED2
6
CONTINUOUS
10
9.291
20
-0.429
11
9.293
21
-0.434
0
LINE
8
RED2
6
CONTINUOUS
10
9.293
20
-0.434
11
9.293
21
-0.446
0
LINE
8
RED2
6
CONTINUOUS
10
9.293
20
-0.446
11
9.291
21
-0.451
0
LINE
8
RED2
6
CONTINUOUS
10
9.291
20
-0.451
11
9.289
21
-0.453
0
LINE
8
RED2
6
CONTINUOUS
10
9.289
20
-0.453
11
9.284
21
-0.456
0
LINE
8
RED2
6
CONTINUOUS
10
9.284
20
-0.456
11
9.272
21
-0.456
0
LINE
8
RED2
6
CONTINUOUS
10
9.272
20
-0.456
11
9.267
21
-0.453
0
LINE
8
RED2
6
CONTINUOUS
10
9.267
20
-0.453
11
9.264
21
-0.451
0
LINE
8
RED2
6
CONTINUOUS
10
11.257
20
-0.405
11
11.247
21
-0.405
0
LINE
8
RED2
6
CONTINUOUS
10
11.247
20
-0.405
11
11.242
21
-0.407
0
LINE
8
RED2
6
CONTINUOUS
10
11.242
20
-0.407
11
11.24
21
-0.409
0
LINE
8
RED2
6
CONTINUOUS
10
11.24
20
-0.409
11
11.235
21
-0.417
0
LINE
8
RED2
6
CONTINUOUS
10
11.235
20
-0.417
11
11.232
21
-0.426
0
LINE
8
RED2
6
CONTINUOUS
10
11.232
20
-0.426
11
11.232
21
-0.446
0
LINE
8
RED2
6
CONTINUOUS
10
11.232
20
-0.446
11
11.235
21
-0.451
0
LINE
8
RED2
6
CONTINUOUS
10
11.235
20
-0.451
11
11.237
21
-0.453
0
LINE
8
RED2
6
CONTINUOUS
10
11.237
20
-0.453
11
11.242
21
-0.456
0
LINE
8
RED2
6
CONTINUOUS
10
11.242
20
-0.456
11
11.252
21
-0.456
0
LINE
8
RED2
6
CONTINUOUS
10
11.252
20
-0.456
11
11.257
21
-0.453
0
LINE
8
RED2
6
CONTINUOUS
10
11.257
20
-0.453
11
11.259
21
-0.451
0
LINE
8
RED2
6
CONTINUOUS
10
11.259
20
-0.451
11
11.261
21
-0.446
0
LINE
8
RED2
6
CONTINUOUS
10
11.261
20
-0.446
11
11.261
21
-0.434
0
LINE
8
RED2
6
CONTINUOUS
10
11.261
20
-0.434
11
11.259
21
-0.429
0
LINE
8
RED2
6
CONTINUOUS
10
11.259
20
-0.429
11
11.257
21
-0.426
0
LINE
8
RED2
6
CONTINUOUS
10
11.257
20
-0.426
11
11.252
21
-0.424
0
LINE
8
RED2
6
CONTINUOUS
10
11.252
20
-0.424
11
11.242
21
-0.424
0
LINE
8
RED2
6
CONTINUOUS
10
11.242
20
-0.424
11
11.237
21
-0.426
0
LINE
8
RED2
6
CONTINUOUS
10
11.237
20
-0.426
11
11.235
21
-0.429
0
LINE
8
RED2
6
CONTINUOUS
10
11.235
20
-0.429
11
11.232
21
-0.434
0
LINE
8
RED2
6
CONTINUOUS
10
2.362
20
-7.796
11
2.362
21
-7.874
0
LINE
8
RED2
6
CONTINUOUS
10
4.331
20
-7.796
11
4.331
21
-7.874
0
LINE
8
RED2
6
CONTINUOUS
10
6.299
20
-7.796
11
6.299
21
-7.874
0
LINE
8
RED2
6
CONTINUOUS
10
8.268
20
-7.796
11
8.268
21
-7.874
0
LINE
8
RED2
6
CONTINUOUS
10
10.236
20
-7.796
11
10.236
21
-7.874
0
LINE
8
RED2
6
CONTINUOUS
10
1.419
20
-7.858
11
1.39
21
-7.858
0
LINE
8
RED2
6
CONTINUOUS
10
1.405
20
-7.858
11
1.405
21
-7.807
0
LINE
8
RED2
6
CONTINUOUS
10
1.405
20
-7.807
11
1.4
21
-7.814
0
LINE
8
RED2
6
CONTINUOUS
10
1.4
20
-7.814
11
1.395
21
-7.819
0
LINE
8
RED2
6
CONTINUOUS
10
1.395
20
-7.819
11
1.39
21
-7.821
0
LINE
8
RED2
6
CONTINUOUS
10
3.358
20
-7.811
11
3.361
21
-7.809
0
LINE
8
RED2
6
CONTINUOUS
10
3.361
20
-7.809
11
3.366
21
-7.807
0
LINE
8
RED2
6
CONTINUOUS
10
3.366
20
-7.807
11
3.378
21
-7.807
0
LINE
8
RED2
6
CONTINUOUS
10
3.378
20
-7.807
11
3.383
21
-7.809
0
LINE
8
RED2
6
CONTINUOUS
10
3.383
20
-7.809
11
3.385
21
-7.811
0
LINE
8
RED2
6
CONTINUOUS
10
3.385
20
-7.811
11
3.387
21
-7.816
0
LINE
8
RED2
6
CONTINUOUS
10
3.387
20
-7.816
11
3.387
21
-7.821
0
LINE
8
RED2
6
CONTINUOUS
10
3.387
20
-7.821
11
3.385
21
-7.828
0
LINE
8
RED2
6
CONTINUOUS
10
3.385
20
-7.828
11
3.356
21
-7.858
0
LINE
8
RED2
6
CONTINUOUS
10
3.356
20
-7.858
11
3.387
21
-7.858
0
LINE
8
RED2
6
CONTINUOUS
10
5.325
20
-7.807
11
5.356
21
-7.807
0
LINE
8
RED2
6
CONTINUOUS
10
5.356
20
-7.807
11
5.339
21
-7.826
0
LINE
8
RED2
6
CONTINUOUS
10
5.339
20
-7.826
11
5.347
21
-7.826
0
LINE
8
RED2
6
CONTINUOUS
10
5.347
20
-7.826
11
5.352
21
-7.828
0
LINE
8
RED2
6
CONTINUOUS
10
5.352
20
-7.828
11
5.354
21
-7.831
0
LINE
8
RED2
6
CONTINUOUS
10
5.354
20
-7.831
11
5.356
21
-7.836
0
LINE
8
RED2
6
CONTINUOUS
10
5.356
20
-7.836
11
5.356
21
-7.848
0
LINE
8
RED2
6
CONTINUOUS
10
5.356
20
-7.848
11
5.354
21
-7.853
0
LINE
8
RED2
6
CONTINUOUS
10
5.354
20
-7.853
11
5.352
21
-7.855
0
LINE
8
RED2
6
CONTINUOUS
10
5.352
20
-7.855
11
5.347
21
-7.858
0
LINE
8
RED2
6
CONTINUOUS
10
5.347
20
-7.858
11
5.332
21
-7.858
0
LINE
8
RED2
6
CONTINUOUS
10
5.332
20
-7.858
11
5.327
21
-7.855
0
LINE
8
RED2
6
CONTINUOUS
10
5.327
20
-7.855
11
5.325
21
-7.853
0
LINE
8
RED2
6
CONTINUOUS
10
7.32
20
-7.824
11
7.32
21
-7.858
0
LINE
8
RED2
6
CONTINUOUS
10
7.307
20
-7.804
11
7.295
21
-7.841
0
LINE
8
RED2
6
CONTINUOUS
10
7.295
20
-7.841
11
7.327
21
-7.841
0
LINE
8
RED2
6
CONTINUOUS
10
9.291
20
-7.807
11
9.267
21
-7.807
0
LINE
8
RED2
6
CONTINUOUS
10
9.267
20
-7.807
11
9.264
21
-7.831
0
LINE
8
RED2
6
CONTINUOUS
10
9.264
20
-7.831
11
9.267
21
-7.828
0
LINE
8
RED2
6
CONTINUOUS
10
9.267
20
-7.828
11
9.272
21
-7.826
0
LINE
8
RED2
6
CONTINUOUS
10
9.272
20
-7.826
11
9.284
21
-7.826
0
LINE
8
RED2
6
CONTINUOUS
10
9.284
20
-7.826
11
9.289
21
-7.828
0
LINE
8
RED2
6
CONTINUOUS
10
9.289
20
-7.828
11
9.291
21
-7.831
0
LINE
8
RED2
6
CONTINUOUS
10
9.291
20
-7.831
11
9.293
21
-7.836
0
LINE
8
RED2
6
CONTINUOUS
10
9.293
20
-7.836
11
9.293
21
-7.848
0
LINE
8
RED2
6
CONTINUOUS
10
9.293
20
-7.848
11
9.291
21
-7.853
0
LINE
8
RED2
6
CONTINUOUS
10
9.291
20
-7.853
11
9.289
21
-7.855
0
LINE
8
RED2
6
CONTINUOUS
10
9.289
20
-7.855
11
9.284
21
-7.858
0
LINE
8
RED2
6
CONTINUOUS
10
9.284
20
-7.858
11
9.272
21
-7.858
0
LINE
8
RED2
6
CONTINUOUS
10
9.272
20
-7.858
11
9.267
21
-7.855
0
LINE
8
RED2
6
CONTINUOUS
10
9.267
20
-7.855
11
9.264
21
-7.853
0
LINE
8
RED2
6
CONTINUOUS
10
11.257
20
-7.807
11
11.247
21
-7.807
0
LINE
8
RED2
6
CONTINUOUS
10
11.247
20
-7.807
11
11.242
21
-7.809
0
LINE
8
RED2
6
CONTINUOUS
10
11.242
20
-7.809
11
11.24
21
-7.811
0
LINE
8
RED2
6
CONTINUOUS
10
11.24
20
-7.811
11
11.235
21
-7.819
0
LINE
8
RED2
6
CONTINUOUS
10
11.235
20
-7.819
11
11.232
21
-7.828
0
LINE
8
RED2
6
CONTINUOUS
10
11.232
20
-7.828
11
11.232
21
-7.848
0
LINE
8
RED2
6
CONTINUOUS
10
11.232
20
-7.848
11
11.235
21
-7.853
0
LINE
8
RED2
6
CONTINUOUS
10
11.235
20
-7.853
11
11.237
21
-7.855
0
LINE
8
RED2
6
CONTINUOUS
10
11.237
20
-7.855
11
11.242
21
-7.858
0
LINE
8
RED2
6
CONTINUOUS
10
11.242
20
-7.858
11
11.252
21
-7.858
0
LINE
8
RED2
6
CONTINUOUS
10
11.252
20
-7.858
11
11.257
21
-7.855
0
LINE
8
RED2
6
CONTINUOUS
10
11.257
20
-7.855
11
11.259
21
-7.853
0
LINE
8
RED2
6
CONTINUOUS
10
11.259
20
-7.853
11
11.261
21
-7.848
0
LINE
8
RED2
6
CONTINUOUS
10
11.261
20
-7.848
11
11.261
21
-7.836
0
LINE
8
RED2
6
CONTINUOUS
10
11.261
20
-7.836
11
11.259
21
-7.831
0
LINE
8
RED2
6
CONTINUOUS
10
11.259
20
-7.831
11
11.257
21
-7.828
0
LINE
8
RED2
6
CONTINUOUS
10
11.257
20
-7.828
11
11.252
21
-7.826
0
LINE
8
RED2
6
CONTINUOUS
10
11.252
20
-7.826
11
11.242
21
-7.826
0
LINE
8
RED2
6
CONTINUOUS
10
11.242
20
-7.826
11
11.237
21
-7.828
0
LINE
8
RED2
6
CONTINUOUS
10
11.237
20
-7.828
11
11.235
21
-7.831
0
LINE
8
RED2
6
CONTINUOUS
10
11.235
20
-7.831
11
11.232
21
-7.836
0
LINE
8
RED2
6
CONTINUOUS
10
0.394
20
-2.362
11
0.472
21
-2.362
0
LINE
8
RED2
6
CONTINUOUS
10
0.394
20
-4.331
11
0.472
21
-4.331
0
LINE
8
RED2
6
CONTINUOUS
10
0.394
20
-6.299
11
0.472
21
-6.299
0
LINE
8
RED2
6
CONTINUOUS
10
0.42
20
-1.386
11
0.445
21
-1.386
0
LINE
8
RED2
6
CONTINUOUS
10
0.416
20
-1.401
11
0.433
21
-1.35
0
LINE
8
RED2
6
CONTINUOUS
10
0.433
20
-1.35
11
0.45
21
-1.401
0
LINE
8
RED2
6
CONTINUOUS
10
0.436
20
-3.342
11
0.443
21
-3.344
0
LINE
8
RED2
6
CONTINUOUS
10
0.443
20
-3.344
11
0.446
21
-3.347
0
LINE
8
RED2
6
CONTINUOUS
10
0.446
20
-3.347
11
0.448
21
-3.352
0
LINE
8
RED2
6
CONTINUOUS
10
0.448
20
-3.352
11
0.448
21
-3.359
0
LINE
8
RED2
6
CONTINUOUS
10
0.448
20
-3.359
11
0.446
21
-3.364
0
LINE
8
RED2
6
CONTINUOUS
10
0.446
20
-3.364
11
0.443
21
-3.366
0
LINE
8
RED2
6
CONTINUOUS
10
0.443
20
-3.366
11
0.439
21
-3.369
0
LINE
8
RED2
6
CONTINUOUS
10
0.439
20
-3.369
11
0.419
21
-3.369
0
LINE
8
RED2
6
CONTINUOUS
10
0.419
20
-3.369
11
0.419
21
-3.318
0
LINE
8
RED2
6
CONTINUOUS
10
0.419
20
-3.318
11
0.436
21
-3.318
0
LINE
8
RED2
6
CONTINUOUS
10
0.436
20
-3.318
11
0.441
21
-3.32
0
LINE
8
RED2
6
CONTINUOUS
10
0.441
20
-3.32
11
0.443
21
-3.322
0
LINE
8
RED2
6
CONTINUOUS
10
0.443
20
-3.322
11
0.446
21
-3.327
0
LINE
8
RED2
6
CONTINUOUS
10
0.446
20
-3.327
11
0.446
21
-3.332
0
LINE
8
RED2
6
CONTINUOUS
10
0.446
20
-3.332
11
0.443
21
-3.337
0
LINE
8
RED2
6
CONTINUOUS
10
0.443
20
-3.337
11
0.441
21
-3.339
0
LINE
8
RED2
6
CONTINUOUS
10
0.441
20
-3.339
11
0.436
21
-3.342
0
LINE
8
RED2
6
CONTINUOUS
10
0.436
20
-3.342
11
0.419
21
-3.342
0
LINE
8
RED2
6
CONTINUOUS
10
0.448
20
-5.333
11
0.446
21
-5.335
0
LINE
8
RED2
6
CONTINUOUS
10
0.446
20
-5.335
11
0.439
21
-5.338
0
LINE
8
RED2
6
CONTINUOUS
10
0.439
20
-5.338
11
0.434
21
-5.338
0
LINE
8
RED2
6
CONTINUOUS
10
0.434
20
-5.338
11
0.426
21
-5.335
0
LINE
8
RED2
6
CONTINUOUS
10
0.426
20
-5.335
11
0.422
21
-5.33
0
LINE
8
RED2
6
CONTINUOUS
10
0.422
20
-5.33
11
0.419
21
-5.325
0
LINE
8
RED2
6
CONTINUOUS
10
0.419
20
-5.325
11
0.417
21
-5.316
0
LINE
8
RED2
6
CONTINUOUS
10
0.417
20
-5.316
11
0.417
21
-5.308
0
LINE
8
RED2
6
CONTINUOUS
10
0.417
20
-5.308
11
0.419
21
-5.299
0
LINE
8
RED2
6
CONTINUOUS
10
0.419
20
-5.299
11
0.422
21
-5.294
0
LINE
8
RED2
6
CONTINUOUS
10
0.422
20
-5.294
11
0.426
21
-5.289
0
LINE
8
RED2
6
CONTINUOUS
10
0.426
20
-5.289
11
0.434
21
-5.287
0
LINE
8
RED2
6
CONTINUOUS
10
0.434
20
-5.287
11
0.439
21
-5.287
0
LINE
8
RED2
6
CONTINUOUS
10
0.439
20
-5.287
11
0.446
21
-5.289
0
LINE
8
RED2
6
CONTINUOUS
10
0.446
20
-5.289
11
0.448
21
-5.291
0
LINE
8
RED2
6
CONTINUOUS
10
0.419
20
-7.306
11
0.419
21
-7.255
0
LINE
8
RED2
6
CONTINUOUS
10
0.419
20
-7.255
11
0.431
21
-7.255
0
LINE
8
RED2
6
CONTINUOUS
10
0.431
20
-7.255
11
0.439
21
-7.257
0
LINE
8
RED2
6
CONTINUOUS
10
0.439
20
-7.257
11
0.443
21
-7.262
0
LINE
8
RED2
6
CONTINUOUS
10
0.443
20
-7.262
11
0.446
21
-7.267
0
LINE
8
RED2
6
CONTINUOUS
10
0.446
20
-7.267
11
0.448
21
-7.276
0
LINE
8
RED2
6
CONTINUOUS
10
0.448
20
-7.276
11
0.448
21
-7.284
0
LINE
8
RED2
6
CONTINUOUS
10
0.448
20
-7.284
11
0.446
21
-7.293
0
LINE
8
RED2
6
CONTINUOUS
10
0.446
20
-7.293
11
0.443
21
-7.298
0
LINE
8
RED2
6
CONTINUOUS
10
0.443
20
-7.298
11
0.439
21
-7.303
0
LINE
8
RED2
6
CONTINUOUS
10
0.439
20
-7.303
11
0.431
21
-7.306
0
LINE
8
RED2
6
CONTINUOUS
10
0.431
20
-7.306
11
0.419
21
-7.306
0
LINE
8
RED2
6
CONTINUOUS
10
11.299
20
-2.362
11
11.221
21
-2.362
0
LINE
8
RED2
6
CONTINUOUS
10
11.299
20
-4.331
11
11.221
21
-4.331
0
LINE
8
RED2
6
CONTINUOUS
10
11.299
20
-6.299
11
11.221
21
-6.299
0
LINE
8
RED2
6
CONTINUOUS
10
11.247
20
-1.386
11
11.272
21
-1.386
0
LINE
8
RED2
6
CONTINUOUS
10
11.243
20
-1.401
11
11.26
21
-1.35
0
LINE
8
RED2
6
CONTINUOUS
10
11.26
20
-1.35
11
11.277
21
-1.401
0
LINE
8
RED2
6
CONTINUOUS
10
11.263
20
-3.342
11
11.27
21
-3.344
0
LINE
8
RED2
6
CONTINUOUS
10
11.27
20
-3.344
11
11.273
21
-3.347
0
LINE
8
RED2
6
CONTINUOUS
10
11.273
20
-3.347
11
11.275
21
-3.352
0
LINE
8
RED2
6
CONTINUOUS
10
11.275
20
-3.352
11
11.275
21
-3.359
0
LINE
8
RED2
6
CONTINUOUS
10
11.275
20
-3.359
11
11.273
21
-3.364
0
LINE
8
RED2
6
CONTINUOUS
10
11.273
20
-3.364
11
11.27
21
-3.366
0
LINE
8
RED2
6
CONTINUOUS
10
11.27
20
-3.366
11
11.266
21
-3.369
0
LINE
8
RED2
6
CONTINUOUS
10
11.266
20
-3.369
11
11.246
21
-3.369
0
LINE
8
RED2
6
CONTINUOUS
10
11.246
20
-3.369
11
11.246
21
-3.318
0
LINE
8
RED2
6
CONTINUOUS
10
11.246
20
-3.318
11
11.263
21
-3.318
0
LINE
8
RED2
6
CONTINUOUS
10
11.263
20
-3.318
11
11.268
21
-3.32
0
LINE
8
RED2
6
CONTINUOUS
10
11.268
20
-3.32
11
11.27
21
-3.322
0
LINE
8
RED2
6
CONTINUOUS
10
11.27
20
-3.322
11
11.273
21
-3.327
0
LINE
8
RED2
6
CONTINUOUS
10
11.273
20
-3.327
11
11.273
21
-3.332
0
LINE
8
RED2
6
CONTINUOUS
10
11.273
20
-3.332
11
11.27
21
-3.337
0
LINE
8
RED2
6
CONTINUOUS
10
11.27
20
-3.337
11
11.268
21
-3.339
0
LINE
8
RED2
6
CONTINUOUS
10
11.268
20
-3.339
11
11.263
21
-3.342
0
LINE
8
RED2
6
CONTINUOUS
10
11.263
20
-3.342
11
11.246
21
-3.342
0
LINE
8
RED2
6
CONTINUOUS
10
11.275
20
-5.333
11
11.273
21
-5.335
0
LINE
8
RED2
6
CONTINUOUS
10
11.273
20
-5.335
11
11.266
21
-5.338
0
LINE
8
RED2
6
CONTINUOUS
10
11.266
20
-5.338
11
11.261
21
-5.338
0
LINE
8
RED2
6
CONTINUOUS
10
11.261
20
-5.338
11
11.253
21
-5.335
0
LINE
8
RED2
6
CONTINUOUS
10
11.253
20
-5.335
11
11.249
21
-5.33
0
LINE
8
RED2
6
CONTINUOUS
10
11.249
20
-5.33
11
11.246
21
-5.325
0
LINE
8
RED2
6
CONTINUOUS
10
11.246
20
-5.325
11
11.244
21
-5.316
0
LINE
8
RED2
6
CONTINUOUS
10
11.244
20
-5.316
11
11.244
21
-5.308
0
LINE
8
RED2
6
CONTINUOUS
10
11.244
20
-5.308
11
11.246
21
-5.299
0
LINE
8
RED2
6
CONTINUOUS
10
11.246
20
-5.299
11
11.249
21
-5.294
0
LINE
8
RED2
6
CONTINUOUS
10
11.249
20
-5.294
11
11.253
21
-5.289
0
LINE
8
RED2
6
CONTINUOUS
10
11.253
20
-5.289
11
11.261
21
-5.287
0
LINE
8
RED2
6
CONTINUOUS
10
11.261
20
-5.287
11
11.266
21
-5.287
0
LINE
8
RED2
6
CONTINUOUS
10
11.266
20
-5.287
11
11.273
21
-5.289
0
LINE
8
RED2
6
CONTINUOUS
10
11.273
20
-5.289
11
11.275
21
-5.291
0
LINE
8
RED2
6
CONTINUOUS
10
11.246
20
-7.306
11
11.246
21
-7.255
0
LINE
8
RED2
6
CONTINUOUS
10
11.246
20
-7.255
11
11.258
21
-7.255
0
LINE
8
RED2
6
CONTINUOUS
10
11.258
20
-7.255
11
11.266
21
-7.257
0
LINE
8
RED2
6
CONTINUOUS
10
11.266
20
-7.257
11
11.27
21
-7.262
0
LINE
8
RED2
6
CONTINUOUS
10
11.27
20
-7.262
11
11.273
21
-7.267
0
LINE
8
RED2
6
CONTINUOUS
10
11.273
20
-7.267
11
11.275
21
-7.276
0
LINE
8
RED2
6
CONTINUOUS
10
11.275
20
-7.276
11
11.275
21
-7.284
0
LINE
8
RED2
6
CONTINUOUS
10
11.275
20
-7.284
11
11.273
21
-7.293
0
LINE
8
RED2
6
CONTINUOUS
10
11.273
20
-7.293
11
11.27
21
-7.298
0
LINE
8
RED2
6
CONTINUOUS
10
11.27
20
-7.298
11
11.266
21
-7.303
0
LINE
8
RED2
6
CONTINUOUS
10
11.266
20
-7.303
11
11.258
21
-7.306
0
LINE
8
RED2
6
CONTINUOUS
10
11.258
20
-7.306
11
11.246
21
-7.306
0
LINE
8
RED2
6
CONTINUOUS
10
7.891
20
-7.629
11
7.891
21
-7.57
0
LINE
8
RED2
6
CONTINUOUS
10
7.891
20
-7.57
11
7.905
21
-7.57
0
LINE
8
RED2
6
CONTINUOUS
10
7.905
20
-7.57
11
7.913
21
-7.573
0
LINE
8
RED2
6
CONTINUOUS
10
7.913
20
-7.573
11
7.919
21
-7.579
0
LINE
8
RED2
6
CONTINUOUS
10
7.919
20
-7.579
11
7.921
21
-7.584
0
LINE
8
RED2
6
CONTINUOUS
10
7.921
20
-7.584
11
7.924
21
-7.595
0
LINE
8
RED2
6
CONTINUOUS
10
7.924
20
-7.595
11
7.924
21
-7.604
0
LINE
8
RED2
6
CONTINUOUS
10
7.924
20
-7.604
11
7.921
21
-7.615
0
LINE
8
RED2
6
CONTINUOUS
10
7.921
20
-7.615
11
7.919
21
-7.621
0
LINE
8
RED2
6
CONTINUOUS
10
7.919
20
-7.621
11
7.913
21
-7.626
0
LINE
8
RED2
6
CONTINUOUS
10
7.913
20
-7.626
11
7.905
21
-7.629
0
LINE
8
RED2
6
CONTINUOUS
10
7.905
20
-7.629
11
7.891
21
-7.629
0
LINE
8
RED2
6
CONTINUOUS
10
7.975
20
-7.629
11
7.975
21
-7.598
0
LINE
8
RED2
6
CONTINUOUS
10
7.975
20
-7.598
11
7.972
21
-7.593
0
LINE
8
RED2
6
CONTINUOUS
10
7.972
20
-7.593
11
7.966
21
-7.59
0
LINE
8
RED2
6
CONTINUOUS
10
7.966
20
-7.59
11
7.955
21
-7.59
0
LINE
8
RED2
6
CONTINUOUS
10
7.955
20
-7.59
11
7.95
21
-7.593
0
LINE
8
RED2
6
CONTINUOUS
10
7.975
20
-7.626
11
7.969
21
-7.629
0
LINE
8
RED2
6
CONTINUOUS
10
7.969
20
-7.629
11
7.955
21
-7.629
0
LINE
8
RED2
6
CONTINUOUS
10
7.955
20
-7.629
11
7.95
21
-7.626
0
LINE
8
RED2
6
CONTINUOUS
10
7.95
20
-7.626
11
7.947
21
-7.621
0
LINE
8
RED2
6
CONTINUOUS
10
7.947
20
-7.621
11
7.947
21
-7.615
0
LINE
8
RED2
6
CONTINUOUS
10
7.947
20
-7.615
11
7.95
21
-7.61
0
LINE
8
RED2
6
CONTINUOUS
10
7.95
20
-7.61
11
7.955
21
-7.607
0
LINE
8
RED2
6
CONTINUOUS
10
7.955
20
-7.607
11
7.969
21
-7.607
0
LINE
8
RED2
6
CONTINUOUS
10
7.969
20
-7.607
11
7.975
21
-7.604
0
LINE
8
RED2
6
CONTINUOUS
10
7.995
20
-7.59
11
8.017
21
-7.59
0
LINE
8
RED2
6
CONTINUOUS
10
8.003
20
-7.57
11
8.003
21
-7.621
0
LINE
8
RED2
6
CONTINUOUS
10
8.003
20
-7.621
11
8.006
21
-7.626
0
LINE
8
RED2
6
CONTINUOUS
10
8.006
20
-7.626
11
8.011
21
-7.629
0
LINE
8
RED2
6
CONTINUOUS
10
8.011
20
-7.629
11
8.017
21
-7.629
0
LINE
8
RED2
6
CONTINUOUS
10
8.059
20
-7.626
11
8.054
21
-7.629
0
LINE
8
RED2
6
CONTINUOUS
10
8.054
20
-7.629
11
8.042
21
-7.629
0
LINE
8
RED2
6
CONTINUOUS
10
8.042
20
-7.629
11
8.037
21
-7.626
0
LINE
8
RED2
6
CONTINUOUS
10
8.037
20
-7.626
11
8.034
21
-7.621
0
LINE
8
RED2
6
CONTINUOUS
10
8.034
20
-7.621
11
8.034
21
-7.598
0
LINE
8
RED2
6
CONTINUOUS
10
8.034
20
-7.598
11
8.037
21
-7.593
0
LINE
8
RED2
6
CONTINUOUS
10
8.037
20
-7.593
11
8.042
21
-7.59
0
LINE
8
RED2
6
CONTINUOUS
10
8.042
20
-7.59
11
8.054
21
-7.59
0
LINE
8
RED2
6
CONTINUOUS
10
8.054
20
-7.59
11
8.059
21
-7.593
0
LINE
8
RED2
6
CONTINUOUS
10
8.059
20
-7.593
11
8.062
21
-7.598
0
LINE
8
RED2
6
CONTINUOUS
10
8.062
20
-7.598
11
8.062
21
-7.604
0
LINE
8
RED2
6
CONTINUOUS
10
8.062
20
-7.604
11
8.034
21
-7.61
0
LINE
8
RED2
6
CONTINUOUS
10
8.087
20
-7.624
11
8.09
21
-7.626
0
LINE
8
RED2
6
CONTINUOUS
10
8.09
20
-7.626
11
8.087
21
-7.629
0
LINE
8
RED2
6
CONTINUOUS
10
8.087
20
-7.629
11
8.084
21
-7.626
0
LINE
8
RED2
6
CONTINUOUS
10
8.084
20
-7.626
11
8.087
21
-7.624
0
LINE
8
RED2
6
CONTINUOUS
10
8.087
20
-7.624
11
8.087
21
-7.629
0
LINE
8
RED2
6
CONTINUOUS
10
8.087
20
-7.593
11
8.09
21
-7.595
0
LINE
8
RED2
6
CONTINUOUS
10
8.09
20
-7.595
11
8.087
21
-7.598
0
LINE
8
RED2
6
CONTINUOUS
10
8.087
20
-7.598
11
8.084
21
-7.595
0
LINE
8
RED2
6
CONTINUOUS
10
8.084
20
-7.595
11
8.087
21
-7.593
0
LINE
8
RED2
6
CONTINUOUS
10
8.087
20
-7.593
11
8.087
21
-7.598
0
LINE
8
RED2
6
CONTINUOUS
10
6.969
20
-7.658
11
11.221
21
-7.658
0
LINE
8
RED2
6
CONTINUOUS
10
7.025
20
-7.739
11
7.025
21
-7.68
0
LINE
8
RED2
6
CONTINUOUS
10
7.058
20
-7.739
11
7.033
21
-7.705
0
LINE
8
RED2
6
CONTINUOUS
10
7.058
20
-7.68
11
7.025
21
-7.714
0
LINE
8
RED2
6
CONTINUOUS
10
7.084
20
-7.739
11
7.084
21
-7.7
0
LINE
8
RED2
6
CONTINUOUS
10
7.084
20
-7.68
11
7.081
21
-7.683
0
LINE
8
RED2
6
CONTINUOUS
10
7.081
20
-7.683
11
7.084
21
-7.686
0
LINE
8
RED2
6
CONTINUOUS
10
7.084
20
-7.686
11
7.086
21
-7.683
0
LINE
8
RED2
6
CONTINUOUS
10
7.086
20
-7.683
11
7.084
21
-7.68
0
LINE
8
RED2
6
CONTINUOUS
10
7.084
20
-7.68
11
7.084
21
-7.686
0
LINE
8
RED2
6
CONTINUOUS
10
7.145
20
-7.734
11
7.143
21
-7.736
0
LINE
8
RED2
6
CONTINUOUS
10
7.143
20
-7.736
11
7.134
21
-7.739
0
LINE
8
RED2
6
CONTINUOUS
10
7.134
20
-7.739
11
7.129
21
-7.739
0
LINE
8
RED2
6
CONTINUOUS
10
7.129
20
-7.739
11
7.12
21
-7.736
0
LINE
8
RED2
6
CONTINUOUS
10
7.12
20
-7.736
11
7.114
21
-7.731
0
LINE
8
RED2
6
CONTINUOUS
10
7.114
20
-7.731
11
7.112
21
-7.725
0
LINE
8
RED2
6
CONTINUOUS
10
7.112
20
-7.725
11
7.109
21
-7.714
0
LINE
8
RED2
6
CONTINUOUS
10
7.109
20
-7.714
11
7.109
21
-7.705
0
LINE
8
RED2
6
CONTINUOUS
10
7.109
20
-7.705
11
7.112
21
-7.694
0
LINE
8
RED2
6
CONTINUOUS
10
7.112
20
-7.694
11
7.114
21
-7.689
0
LINE
8
RED2
6
CONTINUOUS
10
7.114
20
-7.689
11
7.12
21
-7.683
0
LINE
8
RED2
6
CONTINUOUS
10
7.12
20
-7.683
11
7.129
21
-7.68
0
LINE
8
RED2
6
CONTINUOUS
10
7.129
20
-7.68
11
7.134
21
-7.68
0
LINE
8
RED2
6
CONTINUOUS
10
7.134
20
-7.68
11
7.143
21
-7.683
0
LINE
8
RED2
6
CONTINUOUS
10
7.143
20
-7.683
11
7.145
21
-7.686
0
LINE
8
RED2
6
CONTINUOUS
10
7.196
20
-7.739
11
7.196
21
-7.708
0
LINE
8
RED2
6
CONTINUOUS
10
7.196
20
-7.708
11
7.193
21
-7.703
0
LINE
8
RED2
6
CONTINUOUS
10
7.193
20
-7.703
11
7.188
21
-7.7
0
LINE
8
RED2
6
CONTINUOUS
10
7.188
20
-7.7
11
7.176
21
-7.7
0
LINE
8
RED2
6
CONTINUOUS
10
7.176
20
-7.7
11
7.171
21
-7.703
0
LINE
8
RED2
6
CONTINUOUS
10
7.196
20
-7.736
11
7.19
21
-7.739
0
LINE
8
RED2
6
CONTINUOUS
10
7.19
20
-7.739
11
7.176
21
-7.739
0
LINE
8
RED2
6
CONTINUOUS
10
7.176
20
-7.739
11
7.171
21
-7.736
0
LINE
8
RED2
6
CONTINUOUS
10
7.171
20
-7.736
11
7.168
21
-7.731
0
LINE
8
RED2
6
CONTINUOUS
10
7.168
20
-7.731
11
7.168
21
-7.725
0
LINE
8
RED2
6
CONTINUOUS
10
7.168
20
-7.725
11
7.171
21
-7.72
0
LINE
8
RED2
6
CONTINUOUS
10
7.171
20
-7.72
11
7.176
21
-7.717
0
LINE
8
RED2
6
CONTINUOUS
10
7.176
20
-7.717
11
7.19
21
-7.717
0
LINE
8
RED2
6
CONTINUOUS
10
7.19
20
-7.717
11
7.196
21
-7.714
0
LINE
8
RED2
6
CONTINUOUS
10
7.249
20
-7.739
11
7.249
21
-7.68
0
LINE
8
RED2
6
CONTINUOUS
10
7.249
20
-7.736
11
7.244
21
-7.739
0
LINE
8
RED2
6
CONTINUOUS
10
7.244
20
-7.739
11
7.232
21
-7.739
0
LINE
8
RED2
6
CONTINUOUS
10
7.232
20
-7.739
11
7.227
21
-7.736
0
LINE
8
RED2
6
CONTINUOUS
10
7.227
20
-7.736
11
7.224
21
-7.734
0
LINE
8
RED2
6
CONTINUOUS
10
7.224
20
-7.734
11
7.221
21
-7.728
0
LINE
8
RED2
6
CONTINUOUS
10
7.221
20
-7.728
11
7.221
21
-7.711
0
LINE
8
RED2
6
CONTINUOUS
10
7.221
20
-7.711
11
7.224
21
-7.705
0
LINE
8
RED2
6
CONTINUOUS
10
7.224
20
-7.705
11
7.227
21
-7.703
0
LINE
8
RED2
6
CONTINUOUS
10
7.227
20
-7.703
11
7.232
21
-7.7
0
LINE
8
RED2
6
CONTINUOUS
10
7.232
20
-7.7
11
7.244
21
-7.7
0
LINE
8
RED2
6
CONTINUOUS
10
7.244
20
-7.7
11
7.249
21
-7.703
0
LINE
8
RED2
6
CONTINUOUS
10
7.322
20
-7.708
11
7.342
21
-7.708
0
LINE
8
RED2
6
CONTINUOUS
10
7.35
20
-7.739
11
7.322
21
-7.739
0
LINE
8
RED2
6
CONTINUOUS
10
7.322
20
-7.739
11
7.322
21
-7.68
0
LINE
8
RED2
6
CONTINUOUS
10
7.322
20
-7.68
11
7.35
21
-7.68
0
LINE
8
RED2
6
CONTINUOUS
10
7.376
20
-7.734
11
7.379
21
-7.736
0
LINE
8
RED2
6
CONTINUOUS
10
7.379
20
-7.736
11
7.376
21
-7.739
0
LINE
8
RED2
6
CONTINUOUS
10
7.376
20
-7.739
11
7.373
21
-7.736
0
LINE
8
RED2
6
CONTINUOUS
10
7.373
20
-7.736
11
7.376
21
-7.734
0
LINE
8
RED2
6
CONTINUOUS
10
7.376
20
-7.734
11
7.376
21
-7.739
0
LINE
8
RED2
6
CONTINUOUS
10
7.404
20
-7.739
11
7.404
21
-7.68
0
LINE
8
RED2
6
CONTINUOUS
10
7.404
20
-7.68
11
7.418
21
-7.68
0
LINE
8
RED2
6
CONTINUOUS
10
7.418
20
-7.68
11
7.426
21
-7.683
0
LINE
8
RED2
6
CONTINUOUS
10
7.426
20
-7.683
11
7.432
21
-7.689
0
LINE
8
RED2
6
CONTINUOUS
10
7.432
20
-7.689
11
7.435
21
-7.694
0
LINE
8
RED2
6
CONTINUOUS
10
7.435
20
-7.694
11
7.438
21
-7.705
0
LINE
8
RED2
6
CONTINUOUS
10
7.438
20
-7.705
11
7.438
21
-7.714
0
LINE
8
RED2
6
CONTINUOUS
10
7.438
20
-7.714
11
7.435
21
-7.725
0
LINE
8
RED2
6
CONTINUOUS
10
7.435
20
-7.725
11
7.432
21
-7.731
0
LINE
8
RED2
6
CONTINUOUS
10
7.432
20
-7.731
11
7.426
21
-7.736
0
LINE
8
RED2
6
CONTINUOUS
10
7.426
20
-7.736
11
7.418
21
-7.739
0
LINE
8
RED2
6
CONTINUOUS
10
7.418
20
-7.739
11
7.404
21
-7.739
0
LINE
8
RED2
6
CONTINUOUS
10
7.463
20
-7.734
11
7.466
21
-7.736
0
LINE
8
RED2
6
CONTINUOUS
10
7.466
20
-7.736
11
7.463
21
-7.739
0
LINE
8
RED2
6
CONTINUOUS
10
7.463
20
-7.739
11
7.46
21
-7.736
0
LINE
8
RED2
6
CONTINUOUS
10
7.46
20
-7.736
11
7.463
21
-7.734
0
LINE
8
RED2
6
CONTINUOUS
10
7.463
20
-7.734
11
7.463
21
-7.739
0
LINE
8
RED2
6
CONTINUOUS
10
7.488
20
-7.722
11
7.516
21
-7.722
0
LINE
8
RED2
6
CONTINUOUS
10
7.483
20
-7.739
11
7.502
21
-7.68
0
LINE
8
RED2
6
CONTINUOUS
10
7.502
20
-7.68
11
7.522
21
-7.739
0
LINE
8
RED2
6
CONTINUOUS
10
7.542
20
-7.734
11
7.544
21
-7.736
0
LINE
8
RED2
6
CONTINUOUS
10
7.544
20
-7.736
11
7.542
21
-7.739
0
LINE
8
RED2
6
CONTINUOUS
10
7.542
20
-7.739
11
7.539
21
-7.736
0
LINE
8
RED2
6
CONTINUOUS
10
7.539
20
-7.736
11
7.542
21
-7.734
0
LINE
8
RED2
6
CONTINUOUS
10
7.542
20
-7.734
11
7.542
21
-7.739
0
LINE
8
RED2
6
CONTINUOUS
10
7.66
20
-7.739
11
7.66
21
-7.68
0
LINE
8
RED2
6
CONTINUOUS
10
7.665
20
-7.717
11
7.682
21
-7.739
0
LINE
8
RED2
6
CONTINUOUS
10
7.682
20
-7.7
11
7.66
21
-7.722
0
LINE
8
RED2
6
CONTINUOUS
10
7.707
20
-7.739
11
7.707
21
-7.7
0
LINE
8
RED2
6
CONTINUOUS
10
7.707
20
-7.68
11
7.704
21
-7.683
0
LINE
8
RED2
6
CONTINUOUS
10
7.704
20
-7.683
11
7.707
21
-7.686
0
LINE
8
RED2
6
CONTINUOUS
10
7.707
20
-7.686
11
7.71
21
-7.683
0
LINE
8
RED2
6
CONTINUOUS
10
7.71
20
-7.683
11
7.707
21
-7.68
0
LINE
8
RED2
6
CONTINUOUS
10
7.707
20
-7.68
11
7.707
21
-7.686
0
LINE
8
RED2
6
CONTINUOUS
10
7.761
20
-7.736
11
7.755
21
-7.739
0
LINE
8
RED2
6
CONTINUOUS
10
7.755
20
-7.739
11
7.744
21
-7.739
0
LINE
8
RED2
6
CONTINUOUS
10
7.744
20
-7.739
11
7.738
21
-7.736
0
LINE
8
RED2
6
CONTINUOUS
10
7.738
20
-7.736
11
7.735
21
-7.734
0
LINE
8
RED2
6
CONTINUOUS
10
7.735
20
-7.734
11
7.733
21
-7.728
0
LINE
8
RED2
6
CONTINUOUS
10
7.733
20
-7.728
11
7.733
21
-7.711
0
LINE
8
RED2
6
CONTINUOUS
10
7.733
20
-7.711
11
7.735
21
-7.705
0
LINE
8
RED2
6
CONTINUOUS
10
7.735
20
-7.705
11
7.738
21
-7.703
0
LINE
8
RED2
6
CONTINUOUS
10
7.738
20
-7.703
11
7.744
21
-7.7
0
LINE
8
RED2
6
CONTINUOUS
10
7.744
20
-7.7
11
7.755
21
-7.7
0
LINE
8
RED2
6
CONTINUOUS
10
7.755
20
-7.7
11
7.761
21
-7.703
0
LINE
8
RED2
6
CONTINUOUS
10
7.811
20
-7.739
11
7.811
21
-7.708
0
LINE
8
RED2
6
CONTINUOUS
10
7.811
20
-7.708
11
7.808
21
-7.703
0
LINE
8
RED2
6
CONTINUOUS
10
7.808
20
-7.703
11
7.803
21
-7.7
0
LINE
8
RED2
6
CONTINUOUS
10
7.803
20
-7.7
11
7.792
21
-7.7
0
LINE
8
RED2
6
CONTINUOUS
10
7.792
20
-7.7
11
7.786
21
-7.703
0
LINE
8
RED2
6
CONTINUOUS
10
7.811
20
-7.736
11
7.806
21
-7.739
0
LINE
8
RED2
6
CONTINUOUS
10
7.806
20
-7.739
11
7.792
21
-7.739
0
LINE
8
RED2
6
CONTINUOUS
10
7.792
20
-7.739
11
7.786
21
-7.736
0
LINE
8
RED2
6
CONTINUOUS
10
7.786
20
-7.736
11
7.783
21
-7.731
0
LINE
8
RED2
6
CONTINUOUS
10
7.783
20
-7.731
11
7.783
21
-7.725
0
LINE
8
RED2
6
CONTINUOUS
10
7.783
20
-7.725
11
7.786
21
-7.72
0
LINE
8
RED2
6
CONTINUOUS
10
7.786
20
-7.72
11
7.792
21
-7.717
0
LINE
8
RED2
6
CONTINUOUS
10
7.792
20
-7.717
11
7.806
21
-7.717
0
LINE
8
RED2
6
CONTINUOUS
10
7.806
20
-7.717
11
7.811
21
-7.714
0
LINE
8
RED2
6
CONTINUOUS
10
7.865
20
-7.739
11
7.865
21
-7.68
0
LINE
8
RED2
6
CONTINUOUS
10
7.865
20
-7.736
11
7.859
21
-7.739
0
LINE
8
RED2
6
CONTINUOUS
10
7.859
20
-7.739
11
7.848
21
-7.739
0
LINE
8
RED2
6
CONTINUOUS
10
7.848
20
-7.739
11
7.842
21
-7.736
0
LINE
8
RED2
6
CONTINUOUS
10
7.842
20
-7.736
11
7.839
21
-7.734
0
LINE
8
RED2
6
CONTINUOUS
10
7.839
20
-7.734
11
7.837
21
-7.728
0
LINE
8
RED2
6
CONTINUOUS
10
7.837
20
-7.728
11
7.837
21
-7.711
0
LINE
8
RED2
6
CONTINUOUS
10
7.837
20
-7.711
11
7.839
21
-7.705
0
LINE
8
RED2
6
CONTINUOUS
10
7.839
20
-7.705
11
7.842
21
-7.703
0
LINE
8
RED2
6
CONTINUOUS
10
7.842
20
-7.703
11
7.848
21
-7.7
0
LINE
8
RED2
6
CONTINUOUS
10
7.848
20
-7.7
11
7.859
21
-7.7
0
LINE
8
RED2
6
CONTINUOUS
10
7.859
20
-7.7
11
7.865
21
-7.703
0
LINE
8
RED2
6
CONTINUOUS
10
7.966
20
-7.68
11
7.938
21
-7.68
0
LINE
8
RED2
6
CONTINUOUS
10
7.938
20
-7.68
11
7.935
21
-7.708
0
LINE
8
RED2
6
CONTINUOUS
10
7.935
20
-7.708
11
7.938
21
-7.705
0
LINE
8
RED2
6
CONTINUOUS
10
7.938
20
-7.705
11
7.943
21
-7.703
0
LINE
8
RED2
6
CONTINUOUS
10
7.943
20
-7.703
11
7.957
21
-7.703
0
LINE
8
RED2
6
CONTINUOUS
10
7.957
20
-7.703
11
7.963
21
-7.705
0
LINE
8
RED2
6
CONTINUOUS
10
7.963
20
-7.705
11
7.966
21
-7.708
0
LINE
8
RED2
6
CONTINUOUS
10
7.966
20
-7.708
11
7.969
21
-7.714
0
LINE
8
RED2
6
CONTINUOUS
10
7.969
20
-7.714
11
7.969
21
-7.728
0
LINE
8
RED2
6
CONTINUOUS
10
7.969
20
-7.728
11
7.966
21
-7.734
0
LINE
8
RED2
6
CONTINUOUS
10
7.966
20
-7.734
11
7.963
21
-7.736
0
LINE
8
RED2
6
CONTINUOUS
10
7.963
20
-7.736
11
7.957
21
-7.739
0
LINE
8
RED2
6
CONTINUOUS
10
7.957
20
-7.739
11
7.943
21
-7.739
0
LINE
8
RED2
6
CONTINUOUS
10
7.943
20
-7.739
11
7.938
21
-7.736
0
LINE
8
RED2
6
CONTINUOUS
10
7.938
20
-7.736
11
7.935
21
-7.734
0
LINE
8
RED2
6
CONTINUOUS
10
7.994
20
-7.734
11
7.997
21
-7.736
0
LINE
8
RED2
6
CONTINUOUS
10
7.997
20
-7.736
11
7.994
21
-7.739
0
LINE
8
RED2
6
CONTINUOUS
10
7.994
20
-7.739
11
7.991
21
-7.736
0
LINE
8
RED2
6
CONTINUOUS
10
7.991
20
-7.736
11
7.994
21
-7.734
0
LINE
8
RED2
6
CONTINUOUS
10
7.994
20
-7.734
11
7.994
21
-7.739
0
LINE
8
RED2
6
CONTINUOUS
10
8.053
20
-7.739
11
8.019
21
-7.739
0
LINE
8
RED2
6
CONTINUOUS
10
8.036
20
-7.739
11
8.036
21
-7.68
0
LINE
8
RED2
6
CONTINUOUS
10
8.036
20
-7.68
11
8.03
21
-7.689
0
LINE
8
RED2
6
CONTINUOUS
10
8.03
20
-7.689
11
8.025
21
-7.694
0
LINE
8
RED2
6
CONTINUOUS
10
8.025
20
-7.694
11
8.019
21
-7.697
0
LINE
8
RED2
6
CONTINUOUS
10
8.078
20
-7.734
11
8.081
21
-7.736
0
LINE
8
RED2
6
CONTINUOUS
10
8.081
20
-7.736
11
8.078
21
-7.739
0
LINE
8
RED2
6
CONTINUOUS
10
8.078
20
-7.739
11
8.075
21
-7.736
0
LINE
8
RED2
6
CONTINUOUS
10
8.075
20
-7.736
11
8.078
21
-7.734
0
LINE
8
RED2
6
CONTINUOUS
10
8.078
20
-7.734
11
8.078
21
-7.739
0
LINE
8
RED2
6
CONTINUOUS
10
8.132
20
-7.7
11
8.132
21
-7.739
0
LINE
8
RED2
6
CONTINUOUS
10
8.117
20
-7.677
11
8.103
21
-7.72
0
LINE
8
RED2
6
CONTINUOUS
10
8.103
20
-7.72
11
8.14
21
-7.72
0
LINE
8
RED2
6
CONTINUOUS
10
8.162
20
-7.717
11
8.207
21
-7.717
0
LINE
8
RED2
6
CONTINUOUS
10
8.185
20
-7.739
11
8.185
21
-7.694
0
LINE
8
RED2
6
CONTINUOUS
10
8.261
20
-7.739
11
8.261
21
-7.68
0
LINE
8
RED2
6
CONTINUOUS
10
8.261
20
-7.736
11
8.255
21
-7.739
0
LINE
8
RED2
6
CONTINUOUS
10
8.255
20
-7.739
11
8.244
21
-7.739
0
LINE
8
RED2
6
CONTINUOUS
10
8.244
20
-7.739
11
8.238
21
-7.736
0
LINE
8
RED2
6
CONTINUOUS
10
8.238
20
-7.736
11
8.235
21
-7.734
0
LINE
8
RED2
6
CONTINUOUS
10
8.235
20
-7.734
11
8.233
21
-7.728
0
LINE
8
RED2
6
CONTINUOUS
10
8.233
20
-7.728
11
8.233
21
-7.711
0
LINE
8
RED2
6
CONTINUOUS
10
8.233
20
-7.711
11
8.235
21
-7.705
0
LINE
8
RED2
6
CONTINUOUS
10
8.235
20
-7.705
11
8.238
21
-7.703
0
LINE
8
RED2
6
CONTINUOUS
10
8.238
20
-7.703
11
8.244
21
-7.7
0
LINE
8
RED2
6
CONTINUOUS
10
8.244
20
-7.7
11
8.255
21
-7.7
0
LINE
8
RED2
6
CONTINUOUS
10
8.255
20
-7.7
11
8.261
21
-7.703
0
LINE
8
RED2
6
CONTINUOUS
10
8.28
20
-7.7
11
8.303
21
-7.7
0
LINE
8
RED2
6
CONTINUOUS
10
8.289
20
-7.739
11
8.289
21
-7.689
0
LINE
8
RED2
6
CONTINUOUS
10
8.289
20
-7.689
11
8.292
21
-7.683
0
LINE
8
RED2
6
CONTINUOUS
10
8.292
20
-7.683
11
8.297
21
-7.68
0
LINE
8
RED2
6
CONTINUOUS
10
8.297
20
-7.68
11
8.303
21
-7.68
0
LINE
8
RED2
6
CONTINUOUS
10
8.32
20
-7.736
11
8.325
21
-7.739
0
LINE
8
RED2
6
CONTINUOUS
10
8.325
20
-7.739
11
8.337
21
-7.739
0
LINE
8
RED2
6
CONTINUOUS
10
8.337
20
-7.739
11
8.342
21
-7.736
0
LINE
8
RED2
6
CONTINUOUS
10
8.342
20
-7.736
11
8.345
21
-7.731
0
LINE
8
RED2
6
CONTINUOUS
10
8.345
20
-7.731
11
8.345
21
-7.728
0
LINE
8
RED2
6
CONTINUOUS
10
8.345
20
-7.728
11
8.342
21
-7.722
0
LINE
8
RED2
6
CONTINUOUS
10
8.342
20
-7.722
11
8.337
21
-7.72
0
LINE
8
RED2
6
CONTINUOUS
10
8.337
20
-7.72
11
8.328
21
-7.72
0
LINE
8
RED2
6
CONTINUOUS
10
8.328
20
-7.72
11
8.323
21
-7.717
0
LINE
8
RED2
6
CONTINUOUS
10
8.323
20
-7.717
11
8.32
21
-7.711
0
LINE
8
RED2
6
CONTINUOUS
10
8.32
20
-7.711
11
8.32
21
-7.708
0
LINE
8
RED2
6
CONTINUOUS
10
8.32
20
-7.708
11
8.323
21
-7.703
0
LINE
8
RED2
6
CONTINUOUS
10
8.323
20
-7.703
11
8.328
21
-7.7
0
LINE
8
RED2
6
CONTINUOUS
10
8.328
20
-7.7
11
8.337
21
-7.7
0
LINE
8
RED2
6
CONTINUOUS
10
8.337
20
-7.7
11
8.342
21
-7.703
0
LINE
8
RED2
6
CONTINUOUS
10
8.396
20
-7.7
11
8.396
21
-7.748
0
LINE
8
RED2
6
CONTINUOUS
10
8.396
20
-7.748
11
8.393
21
-7.753
0
LINE
8
RED2
6
CONTINUOUS
10
8.393
20
-7.753
11
8.39
21
-7.756
0
LINE
8
RED2
6
CONTINUOUS
10
8.39
20
-7.756
11
8.384
21
-7.759
0
LINE
8
RED2
6
CONTINUOUS
10
8.384
20
-7.759
11
8.376
21
-7.759
0
LINE
8
RED2
6
CONTINUOUS
10
8.376
20
-7.759
11
8.37
21
-7.756
0
LINE
8
RED2
6
CONTINUOUS
10
8.396
20
-7.736
11
8.39
21
-7.739
0
LINE
8
RED2
6
CONTINUOUS
10
8.39
20
-7.739
11
8.379
21
-7.739
0
LINE
8
RED2
6
CONTINUOUS
10
8.379
20
-7.739
11
8.373
21
-7.736
0
LINE
8
RED2
6
CONTINUOUS
10
8.373
20
-7.736
11
8.37
21
-7.734
0
LINE
8
RED2
6
CONTINUOUS
10
8.37
20
-7.734
11
8.368
21
-7.728
0
LINE
8
RED2
6
CONTINUOUS
10
8.368
20
-7.728
11
8.368
21
-7.711
0
LINE
8
RED2
6
CONTINUOUS
10
8.368
20
-7.711
11
8.37
21
-7.705
0
LINE
8
RED2
6
CONTINUOUS
10
8.37
20
-7.705
11
8.373
21
-7.703
0
LINE
8
RED2
6
CONTINUOUS
10
8.373
20
-7.703
11
8.379
21
-7.7
0
LINE
8
RED2
6
CONTINUOUS
10
8.379
20
-7.7
11
8.39
21
-7.7
0
LINE
8
RED2
6
CONTINUOUS
10
8.39
20
-7.7
11
8.396
21
-7.703
0
LINE
8
RED2
6
CONTINUOUS
10
8.455
20
-7.739
11
8.421
21
-7.739
0
LINE
8
RED2
6
CONTINUOUS
10
8.438
20
-7.739
11
8.438
21
-7.68
0
LINE
8
RED2
6
CONTINUOUS
10
8.438
20
-7.68
11
8.432
21
-7.689
0
LINE
8
RED2
6
CONTINUOUS
10
8.432
20
-7.689
11
8.427
21
-7.694
0
LINE
8
RED2
6
CONTINUOUS
10
8.427
20
-7.694
11
8.421
21
-7.697
0
LINE
8
RED2
6
CONTINUOUS
10
8.48
20
-7.717
11
8.525
21
-7.717
0
LINE
8
RED2
6
CONTINUOUS
10
8.584
20
-7.739
11
8.55
21
-7.739
0
LINE
8
RED2
6
CONTINUOUS
10
8.567
20
-7.739
11
8.567
21
-7.68
0
LINE
8
RED2
6
CONTINUOUS
10
8.567
20
-7.68
11
8.561
21
-7.689
0
LINE
8
RED2
6
CONTINUOUS
10
8.561
20
-7.689
11
8.556
21
-7.694
0
LINE
8
RED2
6
CONTINUOUS
10
8.556
20
-7.694
11
8.55
21
-7.697
0
LINE
8
RED2
6
CONTINUOUS
10
6.969
20
-7.54
11
11.221
21
-7.54
0
LINE
8
RED2
6
CONTINUOUS
10
10.409
20
-7.629
11
10.389
21
-7.601
0
LINE
8
RED2
6
CONTINUOUS
10
10.375
20
-7.629
11
10.375
21
-7.57
0
LINE
8
RED2
6
CONTINUOUS
10
10.375
20
-7.57
11
10.398
21
-7.57
0
LINE
8
RED2
6
CONTINUOUS
10
10.398
20
-7.57
11
10.403
21
-7.573
0
LINE
8
RED2
6
CONTINUOUS
10
10.403
20
-7.573
11
10.406
21
-7.576
0
LINE
8
RED2
6
CONTINUOUS
10
10.406
20
-7.576
11
10.409
21
-7.581
0
LINE
8
RED2
6
CONTINUOUS
10
10.409
20
-7.581
11
10.409
21
-7.59
0
LINE
8
RED2
6
CONTINUOUS
10
10.409
20
-7.59
11
10.406
21
-7.595
0
LINE
8
RED2
6
CONTINUOUS
10
10.406
20
-7.595
11
10.403
21
-7.598
0
LINE
8
RED2
6
CONTINUOUS
10
10.403
20
-7.598
11
10.398
21
-7.601
0
LINE
8
RED2
6
CONTINUOUS
10
10.398
20
-7.601
11
10.375
21
-7.601
0
LINE
8
RED2
6
CONTINUOUS
10
10.457
20
-7.626
11
10.451
21
-7.629
0
LINE
8
RED2
6
CONTINUOUS
10
10.451
20
-7.629
11
10.44
21
-7.629
0
LINE
8
RED2
6
CONTINUOUS
10
10.44
20
-7.629
11
10.434
21
-7.626
0
LINE
8
RED2
6
CONTINUOUS
10
10.434
20
-7.626
11
10.432
21
-7.621
0
LINE
8
RED2
6
CONTINUOUS
10
10.432
20
-7.621
11
10.432
21
-7.598
0
LINE
8
RED2
6
CONTINUOUS
10
10.432
20
-7.598
11
10.434
21
-7.593
0
LINE
8
RED2
6
CONTINUOUS
10
10.434
20
-7.593
11
10.44
21
-7.59
0
LINE
8
RED2
6
CONTINUOUS
10
10.44
20
-7.59
11
10.451
21
-7.59
0
LINE
8
RED2
6
CONTINUOUS
10
10.451
20
-7.59
11
10.457
21
-7.593
0
LINE
8
RED2
6
CONTINUOUS
10
10.457
20
-7.593
11
10.46
21
-7.598
0
LINE
8
RED2
6
CONTINUOUS
10
10.46
20
-7.598
11
10.46
21
-7.604
0
LINE
8
RED2
6
CONTINUOUS
10
10.46
20
-7.604
11
10.432
21
-7.61
0
LINE
8
RED2
6
CONTINUOUS
10
10.479
20
-7.59
11
10.493
21
-7.629
0
LINE
8
RED2
6
CONTINUOUS
10
10.493
20
-7.629
11
10.507
21
-7.59
0
LINE
8
RED2
6
CONTINUOUS
10
10.53
20
-7.624
11
10.533
21
-7.626
0
LINE
8
RED2
6
CONTINUOUS
10
10.533
20
-7.626
11
10.53
21
-7.629
0
LINE
8
RED2
6
CONTINUOUS
10
10.53
20
-7.629
11
10.527
21
-7.626
0
LINE
8
RED2
6
CONTINUOUS
10
10.527
20
-7.626
11
10.53
21
-7.624
0
LINE
8
RED2
6
CONTINUOUS
10
10.53
20
-7.624
11
10.53
21
-7.629
0
LINE
8
RED2
6
CONTINUOUS
10
10.53
20
-7.593
11
10.533
21
-7.595
0
LINE
8
RED2
6
CONTINUOUS
10
10.533
20
-7.595
11
10.53
21
-7.598
0
LINE
8
RED2
6
CONTINUOUS
10
10.53
20
-7.598
11
10.527
21
-7.595
0
LINE
8
RED2
6
CONTINUOUS
10
10.527
20
-7.595
11
10.53
21
-7.593
0
LINE
8
RED2
6
CONTINUOUS
10
10.53
20
-7.593
11
10.53
21
-7.598
0
LINE
8
RED2
6
CONTINUOUS
10
7.022
20
-7.626
11
7.03
21
-7.629
0
LINE
8
RED2
6
CONTINUOUS
10
7.03
20
-7.629
11
7.044
21
-7.629
0
LINE
8
RED2
6
CONTINUOUS
10
7.044
20
-7.629
11
7.05
21
-7.626
0
LINE
8
RED2
6
CONTINUOUS
10
7.05
20
-7.626
11
7.053
21
-7.624
0
LINE
8
RED2
6
CONTINUOUS
10
7.053
20
-7.624
11
7.055
21
-7.618
0
LINE
8
RED2
6
CONTINUOUS
10
7.055
20
-7.618
11
7.055
21
-7.612
0
LINE
8
RED2
6
CONTINUOUS
10
7.055
20
-7.612
11
7.053
21
-7.607
0
LINE
8
RED2
6
CONTINUOUS
10
7.053
20
-7.607
11
7.05
21
-7.604
0
LINE
8
RED2
6
CONTINUOUS
10
7.05
20
-7.604
11
7.044
21
-7.601
0
LINE
8
RED2
6
CONTINUOUS
10
7.044
20
-7.601
11
7.033
21
-7.598
0
LINE
8
RED2
6
CONTINUOUS
10
7.033
20
-7.598
11
7.027
21
-7.595
0
LINE
8
RED2
6
CONTINUOUS
10
7.027
20
-7.595
11
7.025
21
-7.593
0
LINE
8
RED2
6
CONTINUOUS
10
7.025
20
-7.593
11
7.022
21
-7.587
0
LINE
8
RED2
6
CONTINUOUS
10
7.022
20
-7.587
11
7.022
21
-7.581
0
LINE
8
RED2
6
CONTINUOUS
10
7.022
20
-7.581
11
7.025
21
-7.576
0
LINE
8
RED2
6
CONTINUOUS
10
7.025
20
-7.576
11
7.027
21
-7.573
0
LINE
8
RED2
6
CONTINUOUS
10
7.027
20
-7.573
11
7.033
21
-7.57
0
LINE
8
RED2
6
CONTINUOUS
10
7.033
20
-7.57
11
7.047
21
-7.57
0
LINE
8
RED2
6
CONTINUOUS
10
7.047
20
-7.57
11
7.055
21
-7.573
0
LINE
8
RED2
6
CONTINUOUS
10
7.081
20
-7.629
11
7.081
21
-7.59
0
LINE
8
RED2
6
CONTINUOUS
10
7.081
20
-7.57
11
7.078
21
-7.573
0
LINE
8
RED2
6
CONTINUOUS
10
7.078
20
-7.573
11
7.081
21
-7.576
0
LINE
8
RED2
6
CONTINUOUS
10
7.081
20
-7.576
11
7.084
21
-7.573
0
LINE
8
RED2
6
CONTINUOUS
10
7.084
20
-7.573
11
7.081
21
-7.57
0
LINE
8
RED2
6
CONTINUOUS
10
7.081
20
-7.57
11
7.081
21
-7.576
0
LINE
8
RED2
6
CONTINUOUS
10
7.103
20
-7.59
11
7.134
21
-7.59
0
LINE
8
RED2
6
CONTINUOUS
10
7.134
20
-7.59
11
7.103
21
-7.629
0
LINE
8
RED2
6
CONTINUOUS
10
7.103
20
-7.629
11
7.134
21
-7.629
0
LINE
8
RED2
6
CONTINUOUS
10
7.179
20
-7.626
11
7.173
21
-7.629
0
LINE
8
RED2
6
CONTINUOUS
10
7.173
20
-7.629
11
7.162
21
-7.629
0
LINE
8
RED2
6
CONTINUOUS
10
7.162
20
-7.629
11
7.157
21
-7.626
0
LINE
8
RED2
6
CONTINUOUS
10
7.157
20
-7.626
11
7.154
21
-7.621
0
LINE
8
RED2
6
CONTINUOUS
10
7.154
20
-7.621
11
7.154
21
-7.598
0
LINE
8
RED2
6
CONTINUOUS
10
7.154
20
-7.598
11
7.157
21
-7.593
0
LINE
8
RED2
6
CONTINUOUS
10
7.157
20
-7.593
11
7.162
21
-7.59
0
LINE
8
RED2
6
CONTINUOUS
10
7.162
20
-7.59
11
7.173
21
-7.59
0
LINE
8
RED2
6
CONTINUOUS
10
7.173
20
-7.59
11
7.179
21
-7.593
0
LINE
8
RED2
6
CONTINUOUS
10
7.179
20
-7.593
11
7.182
21
-7.598
0
LINE
8
RED2
6
CONTINUOUS
10
7.182
20
-7.598
11
7.182
21
-7.604
0
LINE
8
RED2
6
CONTINUOUS
10
7.182
20
-7.604
11
7.154
21
-7.61
0
LINE
8
RED2
6
CONTINUOUS
10
7.207
20
-7.624
11
7.21
21
-7.626
0
LINE
8
RED2
6
CONTINUOUS
10
7.21
20
-7.626
11
7.207
21
-7.629
0
LINE
8
RED2
6
CONTINUOUS
10
7.207
20
-7.629
11
7.204
21
-7.626
0
LINE
8
RED2
6
CONTINUOUS
10
7.204
20
-7.626
11
7.207
21
-7.624
0
LINE
8
RED2
6
CONTINUOUS
10
7.207
20
-7.624
11
7.207
21
-7.629
0
LINE
8
RED2
6
CONTINUOUS
10
7.207
20
-7.593
11
7.21
21
-7.595
0
LINE
8
RED2
6
CONTINUOUS
10
7.21
20
-7.595
11
7.207
21
-7.598
0
LINE
8
RED2
6
CONTINUOUS
10
7.207
20
-7.598
11
7.204
21
-7.595
0
LINE
8
RED2
6
CONTINUOUS
10
7.204
20
-7.595
11
7.207
21
-7.593
0
LINE
8
RED2
6
CONTINUOUS
10
7.207
20
-7.593
11
7.207
21
-7.598
0
LINE
8
RED2
6
CONTINUOUS
10
7.277
20
-7.612
11
7.306
21
-7.612
0
LINE
8
RED2
6
CONTINUOUS
10
7.272
20
-7.629
11
7.291
21
-7.57
0
LINE
8
RED2
6
CONTINUOUS
10
7.291
20
-7.57
11
7.311
21
-7.629
0
LINE
8
RED2
6
CONTINUOUS
10
7.356
20
-7.59
11
7.356
21
-7.629
0
LINE
8
RED2
6
CONTINUOUS
10
7.342
20
-7.567
11
7.328
21
-7.61
0
LINE
8
RED2
6
CONTINUOUS
10
7.328
20
-7.61
11
7.365
21
-7.61
0
LINE
8
RED2
6
CONTINUOUS
10
10.371
20
-7.739
11
10.371
21
-7.68
0
LINE
8
RED2
6
CONTINUOUS
10
10.424
20
-7.739
11
10.424
21
-7.68
0
LINE
8
RED2
6
CONTINUOUS
10
10.424
20
-7.736
11
10.418
21
-7.739
0
LINE
8
RED2
6
CONTINUOUS
10
10.418
20
-7.739
11
10.407
21
-7.739
0
LINE
8
RED2
6
CONTINUOUS
10
10.407
20
-7.739
11
10.401
21
-7.736
0
LINE
8
RED2
6
CONTINUOUS
10
10.401
20
-7.736
11
10.399
21
-7.734
0
LINE
8
RED2
6
CONTINUOUS
10
10.399
20
-7.734
11
10.396
21
-7.728
0
LINE
8
RED2
6
CONTINUOUS
10
10.396
20
-7.728
11
10.396
21
-7.711
0
LINE
8
RED2
6
CONTINUOUS
10
10.396
20
-7.711
11
10.399
21
-7.705
0
LINE
8
RED2
6
CONTINUOUS
10
10.399
20
-7.705
11
10.401
21
-7.703
0
LINE
8
RED2
6
CONTINUOUS
10
10.401
20
-7.703
11
10.407
21
-7.7
0
LINE
8
RED2
6
CONTINUOUS
10
10.407
20
-7.7
11
10.418
21
-7.7
0
LINE
8
RED2
6
CONTINUOUS
10
10.418
20
-7.7
11
10.424
21
-7.703
0
LINE
8
RED2
6
CONTINUOUS
10
10.452
20
-7.734
11
10.455
21
-7.736
0
LINE
8
RED2
6
CONTINUOUS
10
10.455
20
-7.736
11
10.452
21
-7.739
0
LINE
8
RED2
6
CONTINUOUS
10
10.452
20
-7.739
11
10.449
21
-7.736
0
LINE
8
RED2
6
CONTINUOUS
10
10.449
20
-7.736
11
10.452
21
-7.734
0
LINE
8
RED2
6
CONTINUOUS
10
10.452
20
-7.734
11
10.452
21
-7.739
0
LINE
8
RED2
6
CONTINUOUS
10
10.452
20
-7.703
11
10.455
21
-7.705
0
LINE
8
RED2
6
CONTINUOUS
10
10.455
20
-7.705
11
10.452
21
-7.708
0
LINE
8
RED2
6
CONTINUOUS
10
10.452
20
-7.708
11
10.449
21
-7.705
0
LINE
8
RED2
6
CONTINUOUS
10
10.449
20
-7.705
11
10.452
21
-7.703
0
LINE
8
RED2
6
CONTINUOUS
10
10.452
20
-7.703
11
10.452
21
-7.708
0
LINE
8
RED2
6
CONTINUOUS
10
10.522
20
-7.686
11
10.525
21
-7.683
0
LINE
8
RED2
6
CONTINUOUS
10
10.525
20
-7.683
11
10.531
21
-7.68
0
LINE
8
RED2
6
CONTINUOUS
10
10.531
20
-7.68
11
10.545
21
-7.68
0
LINE
8
RED2
6
CONTINUOUS
10
10.545
20
-7.68
11
10.55
21
-7.683
0
LINE
8
RED2
6
CONTINUOUS
10
10.55
20
-7.683
11
10.553
21
-7.686
0
LINE
8
RED2
6
CONTINUOUS
10
10.553
20
-7.686
11
10.556
21
-7.691
0
LINE
8
RED2
6
CONTINUOUS
10
10.556
20
-7.691
11
10.556
21
-7.697
0
LINE
8
RED2
6
CONTINUOUS
10
10.556
20
-7.697
11
10.553
21
-7.705
0
LINE
8
RED2
6
CONTINUOUS
10
10.553
20
-7.705
11
10.519
21
-7.739
0
LINE
8
RED2
6
CONTINUOUS
10
10.519
20
-7.739
11
10.556
21
-7.739
0
LINE
8
RED2
6
CONTINUOUS
10
10.623
20
-7.677
11
10.573
21
-7.753
0
LINE
8
RED2
6
CONTINUOUS
10
10.668
20
-7.7
11
10.668
21
-7.739
0
LINE
8
RED2
6
CONTINUOUS
10
10.654
20
-7.677
11
10.64
21
-7.72
0
LINE
8
RED2
6
CONTINUOUS
10
10.64
20
-7.72
11
10.677
21
-7.72
0
LINE
8
RED2
6
CONTINUOUS
10
6.969
20
-7.382
11
11.221
21
-7.382
0
LINE
8
RED2
6
CONTINUOUS
10
7.036
20
-7.409
11
7.081
21
-7.409
0
LINE
8
RED2
6
CONTINUOUS
10
7.048
20
-7.488
11
7.058
21
-7.409
0
LINE
8
RED2
6
CONTINUOUS
10
7.097
20
-7.488
11
7.104
21
-7.436
0
LINE
8
RED2
6
CONTINUOUS
10
7.107
20
-7.409
11
7.103
21
-7.413
0
LINE
8
RED2
6
CONTINUOUS
10
7.103
20
-7.413
11
7.106
21
-7.417
0
LINE
8
RED2
6
CONTINUOUS
10
7.106
20
-7.417
11
7.111
21
-7.413
0
LINE
8
RED2
6
CONTINUOUS
10
7.111
20
-7.413
11
7.107
21
-7.409
0
LINE
8
RED2
6
CONTINUOUS
10
7.107
20
-7.409
11
7.106
21
-7.417
0
LINE
8
RED2
6
CONTINUOUS
10
7.13
20
-7.436
11
7.16
21
-7.436
0
LINE
8
RED2
6
CONTINUOUS
10
7.145
20
-7.409
11
7.136
21
-7.477
0
LINE
8
RED2
6
CONTINUOUS
10
7.136
20
-7.477
11
7.139
21
-7.484
0
LINE
8
RED2
6
CONTINUOUS
10
7.139
20
-7.484
11
7.146
21
-7.488
0
LINE
8
RED2
6
CONTINUOUS
10
7.146
20
-7.488
11
7.154
21
-7.488
0
LINE
8
RED2
6
CONTINUOUS
10
7.191
20
-7.488
11
7.184
21
-7.484
0
LINE
8
RED2
6
CONTINUOUS
10
7.184
20
-7.484
11
7.182
21
-7.477
0
LINE
8
RED2
6
CONTINUOUS
10
7.182
20
-7.477
11
7.19
21
-7.409
0
LINE
8
RED2
6
CONTINUOUS
10
7.252
20
-7.484
11
7.244
21
-7.488
0
LINE
8
RED2
6
CONTINUOUS
10
7.244
20
-7.488
11
7.229
21
-7.488
0
LINE
8
RED2
6
CONTINUOUS
10
7.229
20
-7.488
11
7.222
21
-7.484
0
LINE
8
RED2
6
CONTINUOUS
10
7.222
20
-7.484
11
7.219
21
-7.477
0
LINE
8
RED2
6
CONTINUOUS
10
7.219
20
-7.477
11
7.223
21
-7.447
0
LINE
8
RED2
6
CONTINUOUS
10
7.223
20
-7.447
11
7.228
21
-7.439
0
LINE
8
RED2
6
CONTINUOUS
10
7.228
20
-7.439
11
7.236
21
-7.436
0
LINE
8
RED2
6
CONTINUOUS
10
7.236
20
-7.436
11
7.251
21
-7.436
0
LINE
8
RED2
6
CONTINUOUS
10
7.251
20
-7.436
11
7.258
21
-7.439
0
LINE
8
RED2
6
CONTINUOUS
10
7.258
20
-7.439
11
7.261
21
-7.447
0
LINE
8
RED2
6
CONTINUOUS
10
7.261
20
-7.447
11
7.26
21
-7.454
0
LINE
8
RED2
6
CONTINUOUS
10
7.26
20
-7.454
11
7.221
21
-7.462
0
LINE
8
RED2
6
CONTINUOUS
10
7.29
20
-7.481
11
7.293
21
-7.484
0
LINE
8
RED2
6
CONTINUOUS
10
7.293
20
-7.484
11
7.289
21
-7.488
0
LINE
8
RED2
6
CONTINUOUS
10
7.289
20
-7.488
11
7.286
21
-7.484
0
LINE
8
RED2
6
CONTINUOUS
10
7.286
20
-7.484
11
7.29
21
-7.481
0
LINE
8
RED2
6
CONTINUOUS
10
7.29
20
-7.481
11
7.289
21
-7.488
0
LINE
8
RED2
6
CONTINUOUS
10
7.295
20
-7.439
11
7.299
21
-7.443
0
LINE
8
RED2
6
CONTINUOUS
10
7.299
20
-7.443
11
7.294
21
-7.447
0
LINE
8
RED2
6
CONTINUOUS
10
7.294
20
-7.447
11
7.291
21
-7.443
0
LINE
8
RED2
6
CONTINUOUS
10
7.291
20
-7.443
11
7.295
21
-7.439
0
LINE
8
RED2
6
CONTINUOUS
10
7.295
20
-7.439
11
7.294
21
-7.447
0
LINE
8
RED2
6
CONTINUOUS
10
7.386
20
-7.466
11
7.424
21
-7.466
0
LINE
8
RED2
6
CONTINUOUS
10
7.376
20
-7.488
11
7.412
21
-7.409
0
LINE
8
RED2
6
CONTINUOUS
10
7.412
20
-7.409
11
7.428
21
-7.488
0
LINE
8
RED2
6
CONTINUOUS
10
7.455
20
-7.488
11
7.465
21
-7.409
0
LINE
8
RED2
6
CONTINUOUS
10
7.465
20
-7.409
11
7.484
21
-7.466
0
LINE
8
RED2
6
CONTINUOUS
10
7.484
20
-7.466
11
7.517
21
-7.409
0
LINE
8
RED2
6
CONTINUOUS
10
7.517
20
-7.409
11
7.507
21
-7.488
0
LINE
8
RED2
6
CONTINUOUS
10
7.669
20
-7.488
11
7.665
21
-7.488
0
LINE
8
RED2
6
CONTINUOUS
10
7.665
20
-7.488
11
7.658
21
-7.484
0
LINE
8
RED2
6
CONTINUOUS
10
7.658
20
-7.484
11
7.648
21
-7.473
0
LINE
8
RED2
6
CONTINUOUS
10
7.648
20
-7.473
11
7.633
21
-7.451
0
LINE
8
RED2
6
CONTINUOUS
10
7.633
20
-7.451
11
7.626
21
-7.439
0
LINE
8
RED2
6
CONTINUOUS
10
7.626
20
-7.439
11
7.624
21
-7.428
0
LINE
8
RED2
6
CONTINUOUS
10
7.624
20
-7.428
11
7.625
21
-7.421
0
LINE
8
RED2
6
CONTINUOUS
10
7.625
20
-7.421
11
7.63
21
-7.413
0
LINE
8
RED2
6
CONTINUOUS
10
7.63
20
-7.413
11
7.638
21
-7.409
0
LINE
8
RED2
6
CONTINUOUS
10
7.638
20
-7.409
11
7.641
21
-7.409
0
LINE
8
RED2
6
CONTINUOUS
10
7.641
20
-7.409
11
7.648
21
-7.413
0
LINE
8
RED2
6
CONTINUOUS
10
7.648
20
-7.413
11
7.651
21
-7.421
0
LINE
8
RED2
6
CONTINUOUS
10
7.651
20
-7.421
11
7.651
21
-7.424
0
LINE
8
RED2
6
CONTINUOUS
10
7.651
20
-7.424
11
7.646
21
-7.432
0
LINE
8
RED2
6
CONTINUOUS
10
7.646
20
-7.432
11
7.642
21
-7.436
0
LINE
8
RED2
6
CONTINUOUS
10
7.642
20
-7.436
11
7.617
21
-7.451
0
LINE
8
RED2
6
CONTINUOUS
10
7.617
20
-7.451
11
7.613
21
-7.454
0
LINE
8
RED2
6
CONTINUOUS
10
7.613
20
-7.454
11
7.609
21
-7.462
0
LINE
8
RED2
6
CONTINUOUS
10
7.609
20
-7.462
11
7.607
21
-7.473
0
LINE
8
RED2
6
CONTINUOUS
10
7.607
20
-7.473
11
7.61
21
-7.481
0
LINE
8
RED2
6
CONTINUOUS
10
7.61
20
-7.481
11
7.613
21
-7.484
0
LINE
8
RED2
6
CONTINUOUS
10
7.613
20
-7.484
11
7.62
21
-7.488
0
LINE
8
RED2
6
CONTINUOUS
10
7.62
20
-7.488
11
7.632
21
-7.488
0
LINE
8
RED2
6
CONTINUOUS
10
7.632
20
-7.488
11
7.64
21
-7.484
0
LINE
8
RED2
6
CONTINUOUS
10
7.64
20
-7.484
11
7.644
21
-7.481
0
LINE
8
RED2
6
CONTINUOUS
10
7.644
20
-7.481
11
7.657
21
-7.466
0
LINE
8
RED2
6
CONTINUOUS
10
7.657
20
-7.466
11
7.662
21
-7.454
0
LINE
8
RED2
6
CONTINUOUS
10
7.662
20
-7.454
11
7.663
21
-7.447
0
LINE
8
RED2
6
CONTINUOUS
10
7.795
20
-7.447
11
7.768
21
-7.447
0
LINE
8
RED2
6
CONTINUOUS
10
7.763
20
-7.488
11
7.773
21
-7.409
0
LINE
8
RED2
6
CONTINUOUS
10
7.773
20
-7.409
11
7.811
21
-7.409
0
LINE
8
RED2
6
CONTINUOUS
10
7.831
20
-7.488
11
7.841
21
-7.409
0
LINE
8
RED2
6
CONTINUOUS
10
7.841
20
-7.409
11
7.86
21
-7.466
0
LINE
8
RED2
6
CONTINUOUS
10
7.86
20
-7.466
11
7.893
21
-7.409
0
LINE
8
RED2
6
CONTINUOUS
10
7.893
20
-7.409
11
7.884
21
-7.488
0
LINE
8
RED2
6
CONTINUOUS
10
7.98
20
-7.409
11
8.025
21
-7.409
0
LINE
8
RED2
6
CONTINUOUS
10
7.993
20
-7.488
11
8.003
21
-7.409
0
LINE
8
RED2
6
CONTINUOUS
10
8.042
20
-7.488
11
8.048
21
-7.436
0
LINE
8
RED2
6
CONTINUOUS
10
8.046
20
-7.451
11
8.051
21
-7.443
0
LINE
8
RED2
6
CONTINUOUS
10
8.051
20
-7.443
11
8.055
21
-7.439
0
LINE
8
RED2
6
CONTINUOUS
10
8.055
20
-7.439
11
8.063
21
-7.436
0
LINE
8
RED2
6
CONTINUOUS
10
8.063
20
-7.436
11
8.071
21
-7.436
0
LINE
8
RED2
6
CONTINUOUS
10
8.124
20
-7.488
11
8.13
21
-7.447
0
LINE
8
RED2
6
CONTINUOUS
10
8.13
20
-7.447
11
8.127
21
-7.439
0
LINE
8
RED2
6
CONTINUOUS
10
8.127
20
-7.439
11
8.12
21
-7.436
0
LINE
8
RED2
6
CONTINUOUS
10
8.12
20
-7.436
11
8.105
21
-7.436
0
LINE
8
RED2
6
CONTINUOUS
10
8.105
20
-7.436
11
8.097
21
-7.439
0
LINE
8
RED2
6
CONTINUOUS
10
8.125
20
-7.484
11
8.117
21
-7.488
0
LINE
8
RED2
6
CONTINUOUS
10
8.117
20
-7.488
11
8.098
21
-7.488
0
LINE
8
RED2
6
CONTINUOUS
10
8.098
20
-7.488
11
8.091
21
-7.484
0
LINE
8
RED2
6
CONTINUOUS
10
8.091
20
-7.484
11
8.088
21
-7.477
0
LINE
8
RED2
6
CONTINUOUS
10
8.088
20
-7.477
11
8.089
21
-7.469
0
LINE
8
RED2
6
CONTINUOUS
10
8.089
20
-7.469
11
8.094
21
-7.462
0
LINE
8
RED2
6
CONTINUOUS
10
8.094
20
-7.462
11
8.102
21
-7.458
0
LINE
8
RED2
6
CONTINUOUS
10
8.102
20
-7.458
11
8.121
21
-7.458
0
LINE
8
RED2
6
CONTINUOUS
10
8.121
20
-7.458
11
8.129
21
-7.454
0
LINE
8
RED2
6
CONTINUOUS
10
8.169
20
-7.436
11
8.162
21
-7.488
0
LINE
8
RED2
6
CONTINUOUS
10
8.168
20
-7.443
11
8.172
21
-7.439
0
LINE
8
RED2
6
CONTINUOUS
10
8.172
20
-7.439
11
8.18
21
-7.436
0
LINE
8
RED2
6
CONTINUOUS
10
8.18
20
-7.436
11
8.191
21
-7.436
0
LINE
8
RED2
6
CONTINUOUS
10
8.191
20
-7.436
11
8.198
21
-7.439
0
LINE
8
RED2
6
CONTINUOUS
10
8.198
20
-7.439
11
8.201
21
-7.447
0
LINE
8
RED2
6
CONTINUOUS
10
8.201
20
-7.447
11
8.196
21
-7.488
0
LINE
8
RED2
6
CONTINUOUS
10
8.23
20
-7.484
11
8.237
21
-7.488
0
LINE
8
RED2
6
CONTINUOUS
10
8.237
20
-7.488
11
8.252
21
-7.488
0
LINE
8
RED2
6
CONTINUOUS
10
8.252
20
-7.488
11
8.26
21
-7.484
0
LINE
8
RED2
6
CONTINUOUS
10
8.26
20
-7.484
11
8.265
21
-7.477
0
LINE
8
RED2
6
CONTINUOUS
10
8.265
20
-7.477
11
8.265
21
-7.473
0
LINE
8
RED2
6
CONTINUOUS
10
8.265
20
-7.473
11
8.263
21
-7.466
0
LINE
8
RED2
6
CONTINUOUS
10
8.263
20
-7.466
11
8.256
21
-7.462
0
LINE
8
RED2
6
CONTINUOUS
10
8.256
20
-7.462
11
8.244
21
-7.462
0
LINE
8
RED2
6
CONTINUOUS
10
8.244
20
-7.462
11
8.237
21
-7.458
0
LINE
8
RED2
6
CONTINUOUS
10
8.237
20
-7.458
11
8.234
21
-7.451
0
LINE
8
RED2
6
CONTINUOUS
10
8.234
20
-7.451
11
8.235
21
-7.447
0
LINE
8
RED2
6
CONTINUOUS
10
8.235
20
-7.447
11
8.24
21
-7.439
0
LINE
8
RED2
6
CONTINUOUS
10
8.24
20
-7.439
11
8.248
21
-7.436
0
LINE
8
RED2
6
CONTINUOUS
10
8.248
20
-7.436
11
8.259
21
-7.436
0
LINE
8
RED2
6
CONTINUOUS
10
8.259
20
-7.436
11
8.266
21
-7.439
0
LINE
8
RED2
6
CONTINUOUS
10
8.332
20
-7.484
11
8.324
21
-7.488
0
LINE
8
RED2
6
CONTINUOUS
10
8.324
20
-7.488
11
8.309
21
-7.488
0
LINE
8
RED2
6
CONTINUOUS
10
8.309
20
-7.488
11
8.302
21
-7.484
0
LINE
8
RED2
6
CONTINUOUS
10
8.302
20
-7.484
11
8.298
21
-7.481
0
LINE
8
RED2
6
CONTINUOUS
10
8.298
20
-7.481
11
8.296
21
-7.473
0
LINE
8
RED2
6
CONTINUOUS
10
8.296
20
-7.473
11
8.298
21
-7.451
0
LINE
8
RED2
6
CONTINUOUS
10
8.298
20
-7.451
11
8.303
21
-7.443
0
LINE
8
RED2
6
CONTINUOUS
10
8.303
20
-7.443
11
8.307
21
-7.439
0
LINE
8
RED2
6
CONTINUOUS
10
8.307
20
-7.439
11
8.315
21
-7.436
0
LINE
8
RED2
6
CONTINUOUS
10
8.315
20
-7.436
11
8.33
21
-7.436
0
LINE
8
RED2
6
CONTINUOUS
10
8.33
20
-7.436
11
8.337
21
-7.439
0
LINE
8
RED2
6
CONTINUOUS
10
8.396
20
-7.484
11
8.388
21
-7.488
0
LINE
8
RED2
6
CONTINUOUS
10
8.388
20
-7.488
11
8.373
21
-7.488
0
LINE
8
RED2
6
CONTINUOUS
10
8.373
20
-7.488
11
8.366
21
-7.484
0
LINE
8
RED2
6
CONTINUOUS
10
8.366
20
-7.484
11
8.363
21
-7.477
0
LINE
8
RED2
6
CONTINUOUS
10
8.363
20
-7.477
11
8.367
21
-7.447
0
LINE
8
RED2
6
CONTINUOUS
10
8.367
20
-7.447
11
8.371
21
-7.439
0
LINE
8
RED2
6
CONTINUOUS
10
8.371
20
-7.439
11
8.379
21
-7.436
0
LINE
8
RED2
6
CONTINUOUS
10
8.379
20
-7.436
11
8.394
21
-7.436
0
LINE
8
RED2
6
CONTINUOUS
10
8.394
20
-7.436
11
8.401
21
-7.439
0
LINE
8
RED2
6
CONTINUOUS
10
8.401
20
-7.439
11
8.404
21
-7.447
0
LINE
8
RED2
6
CONTINUOUS
10
8.404
20
-7.447
11
8.403
21
-7.454
0
LINE
8
RED2
6
CONTINUOUS
10
8.403
20
-7.454
11
8.365
21
-7.462
0
LINE
8
RED2
6
CONTINUOUS
10
8.433
20
-7.488
11
8.439
21
-7.436
0
LINE
8
RED2
6
CONTINUOUS
10
8.443
20
-7.409
11
8.438
21
-7.413
0
LINE
8
RED2
6
CONTINUOUS
10
8.438
20
-7.413
11
8.442
21
-7.417
0
LINE
8
RED2
6
CONTINUOUS
10
8.442
20
-7.417
11
8.446
21
-7.413
0
LINE
8
RED2
6
CONTINUOUS
10
8.446
20
-7.413
11
8.443
21
-7.409
0
LINE
8
RED2
6
CONTINUOUS
10
8.443
20
-7.409
11
8.442
21
-7.417
0
LINE
8
RED2
6
CONTINUOUS
10
8.47
20
-7.436
11
8.482
21
-7.488
0
LINE
8
RED2
6
CONTINUOUS
10
8.482
20
-7.488
11
8.507
21
-7.436
0
LINE
8
RED2
6
CONTINUOUS
10
8.561
20
-7.484
11
8.553
21
-7.488
0
LINE
8
RED2
6
CONTINUOUS
10
8.553
20
-7.488
11
8.538
21
-7.488
0
LINE
8
RED2
6
CONTINUOUS
10
8.538
20
-7.488
11
8.531
21
-7.484
0
LINE
8
RED2
6
CONTINUOUS
10
8.531
20
-7.484
11
8.528
21
-7.477
0
LINE
8
RED2
6
CONTINUOUS
10
8.528
20
-7.477
11
8.532
21
-7.447
0
LINE
8
RED2
6
CONTINUOUS
10
8.532
20
-7.447
11
8.537
21
-7.439
0
LINE
8
RED2
6
CONTINUOUS
10
8.537
20
-7.439
11
8.545
21
-7.436
0
LINE
8
RED2
6
CONTINUOUS
10
8.545
20
-7.436
11
8.56
21
-7.436
0
LINE
8
RED2
6
CONTINUOUS
10
8.56
20
-7.436
11
8.567
21
-7.439
0
LINE
8
RED2
6
CONTINUOUS
10
8.567
20
-7.439
11
8.57
21
-7.447
0
LINE
8
RED2
6
CONTINUOUS
10
8.57
20
-7.447
11
8.569
21
-7.454
0
LINE
8
RED2
6
CONTINUOUS
10
8.569
20
-7.454
11
8.53
21
-7.462
0
LINE
8
RED2
6
CONTINUOUS
10
8.598
20
-7.488
11
8.605
21
-7.436
0
LINE
8
RED2
6
CONTINUOUS
10
8.603
20
-7.451
11
8.608
21
-7.443
0
LINE
8
RED2
6
CONTINUOUS
10
8.608
20
-7.443
11
8.612
21
-7.439
0
LINE
8
RED2
6
CONTINUOUS
10
8.612
20
-7.439
11
8.62
21
-7.436
0
LINE
8
RED2
6
CONTINUOUS
10
8.62
20
-7.436
11
8.628
21
-7.436
0
LINE
8
RED2
6
CONTINUOUS
10
7.044
20
-7.306
11
7.025
21
-7.306
0
LINE
8
RED2
6
CONTINUOUS
10
7.025
20
-7.337
11
7.025
21
-7.278
0
LINE
8
RED2
6
CONTINUOUS
10
7.025
20
-7.278
11
7.053
21
-7.278
0
LINE
8
RED2
6
CONTINUOUS
10
7.075
20
-7.337
11
7.075
21
-7.298
0
LINE
8
RED2
6
CONTINUOUS
10
7.075
20
-7.278
11
7.072
21
-7.281
0
LINE
8
RED2
6
CONTINUOUS
10
7.072
20
-7.281
11
7.075
21
-7.284
0
LINE
8
RED2
6
CONTINUOUS
10
7.075
20
-7.284
11
7.078
21
-7.281
0
LINE
8
RED2
6
CONTINUOUS
10
7.078
20
-7.281
11
7.075
21
-7.278
0
LINE
8
RED2
6
CONTINUOUS
10
7.075
20
-7.278
11
7.075
21
-7.284
0
LINE
8
RED2
6
CONTINUOUS
10
7.112
20
-7.337
11
7.106
21
-7.334
0
LINE
8
RED2
6
CONTINUOUS
10
7.106
20
-7.334
11
7.103
21
-7.329
0
LINE
8
RED2
6
CONTINUOUS
10
7.103
20
-7.329
11
7.103
21
-7.278
0
LINE
8
RED2
6
CONTINUOUS
10
7.157
20
-7.334
11
7.151
21
-7.337
0
LINE
8
RED2
6
CONTINUOUS
10
7.151
20
-7.337
11
7.14
21
-7.337
0
LINE
8
RED2
6
CONTINUOUS
10
7.14
20
-7.337
11
7.134
21
-7.334
0
LINE
8
RED2
6
CONTINUOUS
10
7.134
20
-7.334
11
7.131
21
-7.329
0
LINE
8
RED2
6
CONTINUOUS
10
7.131
20
-7.329
11
7.131
21
-7.306
0
LINE
8
RED2
6
CONTINUOUS
10
7.131
20
-7.306
11
7.134
21
-7.301
0
LINE
8
RED2
6
CONTINUOUS
10
7.134
20
-7.301
11
7.14
21
-7.298
0
LINE
8
RED2
6
CONTINUOUS
10
7.14
20
-7.298
11
7.151
21
-7.298
0
LINE
8
RED2
6
CONTINUOUS
10
7.151
20
-7.298
11
7.157
21
-7.301
0
LINE
8
RED2
6
CONTINUOUS
10
7.157
20
-7.301
11
7.159
21
-7.306
0
LINE
8
RED2
6
CONTINUOUS
10
7.159
20
-7.306
11
7.159
21
-7.312
0
LINE
8
RED2
6
CONTINUOUS
10
7.159
20
-7.312
11
7.131
21
-7.318
0
LINE
8
RED2
6
CONTINUOUS
10
7.185
20
-7.332
11
7.188
21
-7.334
0
LINE
8
RED2
6
CONTINUOUS
10
7.188
20
-7.334
11
7.185
21
-7.337
0
LINE
8
RED2
6
CONTINUOUS
10
7.185
20
-7.337
11
7.182
21
-7.334
0
LINE
8
RED2
6
CONTINUOUS
10
7.182
20
-7.334
11
7.185
21
-7.332
0
LINE
8
RED2
6
CONTINUOUS
10
7.185
20
-7.332
11
7.185
21
-7.337
0
LINE
8
RED2
6
CONTINUOUS
10
7.185
20
-7.301
11
7.188
21
-7.303
0
LINE
8
RED2
6
CONTINUOUS
10
7.188
20
-7.303
11
7.185
21
-7.306
0
LINE
8
RED2
6
CONTINUOUS
10
7.185
20
-7.306
11
7.182
21
-7.303
0
LINE
8
RED2
6
CONTINUOUS
10
7.182
20
-7.303
11
7.185
21
-7.301
0
LINE
8
RED2
6
CONTINUOUS
10
7.185
20
-7.301
11
7.185
21
-7.306
0
LINE
8
RED2
6
CONTINUOUS
10
7.255
20
-7.334
11
7.263
21
-7.337
0
LINE
8
RED2
6
CONTINUOUS
10
7.263
20
-7.337
11
7.277
21
-7.337
0
LINE
8
RED2
6
CONTINUOUS
10
7.277
20
-7.337
11
7.283
21
-7.334
0
LINE
8
RED2
6
CONTINUOUS
10
7.283
20
-7.334
11
7.286
21
-7.332
0
LINE
8
RED2
6
CONTINUOUS
10
7.286
20
-7.332
11
7.289
21
-7.326
0
LINE
8
RED2
6
CONTINUOUS
10
7.289
20
-7.326
11
7.289
21
-7.32
0
LINE
8
RED2
6
CONTINUOUS
10
7.289
20
-7.32
11
7.286
21
-7.315
0
LINE
8
RED2
6
CONTINUOUS
10
7.286
20
-7.315
11
7.283
21
-7.312
0
LINE
8
RED2
6
CONTINUOUS
10
7.283
20
-7.312
11
7.277
21
-7.309
0
LINE
8
RED2
6
CONTINUOUS
10
7.277
20
-7.309
11
7.266
21
-7.306
0
LINE
8
RED2
6
CONTINUOUS
10
7.266
20
-7.306
11
7.261
21
-7.303
0
LINE
8
RED2
6
CONTINUOUS
10
7.261
20
-7.303
11
7.258
21
-7.301
0
LINE
8
RED2
6
CONTINUOUS
10
7.258
20
-7.301
11
7.255
21
-7.295
0
LINE
8
RED2
6
CONTINUOUS
10
7.255
20
-7.295
11
7.255
21
-7.289
0
LINE
8
RED2
6
CONTINUOUS
10
7.255
20
-7.289
11
7.258
21
-7.284
0
LINE
8
RED2
6
CONTINUOUS
10
7.258
20
-7.284
11
7.261
21
-7.281
0
LINE
8
RED2
6
CONTINUOUS
10
7.261
20
-7.281
11
7.266
21
-7.278
0
LINE
8
RED2
6
CONTINUOUS
10
7.266
20
-7.278
11
7.28
21
-7.278
0
LINE
8
RED2
6
CONTINUOUS
10
7.28
20
-7.278
11
7.289
21
-7.281
0
LINE
8
RED2
6
CONTINUOUS
10
7.314
20
-7.337
11
7.314
21
-7.298
0
LINE
8
RED2
6
CONTINUOUS
10
7.314
20
-7.278
11
7.311
21
-7.281
0
LINE
8
RED2
6
CONTINUOUS
10
7.311
20
-7.281
11
7.314
21
-7.284
0
LINE
8
RED2
6
CONTINUOUS
10
7.314
20
-7.284
11
7.317
21
-7.281
0
LINE
8
RED2
6
CONTINUOUS
10
7.317
20
-7.281
11
7.314
21
-7.278
0
LINE
8
RED2
6
CONTINUOUS
10
7.314
20
-7.278
11
7.314
21
-7.284
0
LINE
8
RED2
6
CONTINUOUS
10
7.37
20
-7.278
11
7.342
21
-7.278
0
LINE
8
RED2
6
CONTINUOUS
10
7.342
20
-7.278
11
7.339
21
-7.306
0
LINE
8
RED2
6
CONTINUOUS
10
7.339
20
-7.306
11
7.342
21
-7.303
0
LINE
8
RED2
6
CONTINUOUS
10
7.342
20
-7.303
11
7.348
21
-7.301
0
LINE
8
RED2
6
CONTINUOUS
10
7.348
20
-7.301
11
7.362
21
-7.301
0
LINE
8
RED2
6
CONTINUOUS
10
7.362
20
-7.301
11
7.367
21
-7.303
0
LINE
8
RED2
6
CONTINUOUS
10
7.367
20
-7.303
11
7.37
21
-7.306
0
LINE
8
RED2
6
CONTINUOUS
10
7.37
20
-7.306
11
7.373
21
-7.312
0
LINE
8
RED2
6
CONTINUOUS
10
7.373
20
-7.312
11
7.373
21
-7.326
0
LINE
8
RED2
6
CONTINUOUS
10
7.373
20
-7.326
11
7.37
21
-7.332
0
LINE
8
RED2
6
CONTINUOUS
10
7.37
20
-7.332
11
7.367
21
-7.334
0
LINE
8
RED2
6
CONTINUOUS
10
7.367
20
-7.334
11
7.362
21
-7.337
0
LINE
8
RED2
6
CONTINUOUS
10
7.362
20
-7.337
11
7.348
21
-7.337
0
LINE
8
RED2
6
CONTINUOUS
10
7.348
20
-7.337
11
7.342
21
-7.334
0
LINE
8
RED2
6
CONTINUOUS
10
7.342
20
-7.334
11
7.339
21
-7.332
0
LINE
8
RED2
6
CONTINUOUS
10
7.393
20
-7.278
11
7.429
21
-7.278
0
LINE
8
RED2
6
CONTINUOUS
10
7.429
20
-7.278
11
7.409
21
-7.301
0
LINE
8
RED2
6
CONTINUOUS
10
7.409
20
-7.301
11
7.418
21
-7.301
0
LINE
8
RED2
6
CONTINUOUS
10
7.418
20
-7.301
11
7.424
21
-7.303
0
LINE
8
RED2
6
CONTINUOUS
10
7.424
20
-7.303
11
7.426
21
-7.306
0
LINE
8
RED2
6
CONTINUOUS
10
7.426
20
-7.306
11
7.429
21
-7.312
0
LINE
8
RED2
6
CONTINUOUS
10
7.429
20
-7.312
11
7.429
21
-7.326
0
LINE
8
RED2
6
CONTINUOUS
10
7.429
20
-7.326
11
7.426
21
-7.332
0
LINE
8
RED2
6
CONTINUOUS
10
7.426
20
-7.332
11
7.424
21
-7.334
0
LINE
8
RED2
6
CONTINUOUS
10
7.424
20
-7.334
11
7.418
21
-7.337
0
LINE
8
RED2
6
CONTINUOUS
10
7.418
20
-7.337
11
7.401
21
-7.337
0
LINE
8
RED2
6
CONTINUOUS
10
7.401
20
-7.337
11
7.395
21
-7.334
0
LINE
8
RED2
6
CONTINUOUS
10
7.395
20
-7.334
11
7.393
21
-7.332
0
LINE
8
RED2
6
CONTINUOUS
10
7.483
20
-7.278
11
7.454
21
-7.278
0
LINE
8
RED2
6
CONTINUOUS
10
7.454
20
-7.278
11
7.452
21
-7.306
0
LINE
8
RED2
6
CONTINUOUS
10
7.452
20
-7.306
11
7.454
21
-7.303
0
LINE
8
RED2
6
CONTINUOUS
10
7.454
20
-7.303
11
7.46
21
-7.301
0
LINE
8
RED2
6
CONTINUOUS
10
7.46
20
-7.301
11
7.474
21
-7.301
0
LINE
8
RED2
6
CONTINUOUS
10
7.474
20
-7.301
11
7.48
21
-7.303
0
LINE
8
RED2
6
CONTINUOUS
10
7.48
20
-7.303
11
7.483
21
-7.306
0
LINE
8
RED2
6
CONTINUOUS
10
7.483
20
-7.306
11
7.485
21
-7.312
0
LINE
8
RED2
6
CONTINUOUS
10
7.485
20
-7.312
11
7.485
21
-7.326
0
LINE
8
RED2
6
CONTINUOUS
10
7.485
20
-7.326
11
7.483
21
-7.332
0
LINE
8
RED2
6
CONTINUOUS
10
7.483
20
-7.332
11
7.48
21
-7.334
0
LINE
8
RED2
6
CONTINUOUS
10
7.48
20
-7.334
11
7.474
21
-7.337
0
LINE
8
RED2
6
CONTINUOUS
10
7.474
20
-7.337
11
7.46
21
-7.337
0
LINE
8
RED2
6
CONTINUOUS
10
7.46
20
-7.337
11
7.454
21
-7.334
0
LINE
8
RED2
6
CONTINUOUS
10
7.454
20
-7.334
11
7.452
21
-7.332
0
LINE
8
RED2
6
CONTINUOUS
10
7.542
20
-7.337
11
7.508
21
-7.337
0
LINE
8
RED2
6
CONTINUOUS
10
7.525
20
-7.337
11
7.525
21
-7.278
0
LINE
8
RED2
6
CONTINUOUS
10
7.525
20
-7.278
11
7.519
21
-7.287
0
LINE
8
RED2
6
CONTINUOUS
10
7.519
20
-7.287
11
7.513
21
-7.292
0
LINE
8
RED2
6
CONTINUOUS
10
7.513
20
-7.292
11
7.508
21
-7.295
0
LINE
8
RED2
6
CONTINUOUS
10
7.553
20
-7.343
11
7.598
21
-7.343
0
LINE
8
RED2
6
CONTINUOUS
10
7.631
20
-7.306
11
7.612
21
-7.306
0
LINE
8
RED2
6
CONTINUOUS
10
7.612
20
-7.337
11
7.612
21
-7.278
0
LINE
8
RED2
6
CONTINUOUS
10
7.612
20
-7.278
11
7.64
21
-7.278
0
LINE
8
RED2
6
CONTINUOUS
10
7.662
20
-7.337
11
7.662
21
-7.298
0
LINE
8
RED2
6
CONTINUOUS
10
7.662
20
-7.278
11
7.66
21
-7.281
0
LINE
8
RED2
6
CONTINUOUS
10
7.66
20
-7.281
11
7.662
21
-7.284
0
LINE
8
RED2
6
CONTINUOUS
10
7.662
20
-7.284
11
7.665
21
-7.281
0
LINE
8
RED2
6
CONTINUOUS
10
7.665
20
-7.281
11
7.662
21
-7.278
0
LINE
8
RED2
6
CONTINUOUS
10
7.662
20
-7.278
11
7.662
21
-7.284
0
LINE
8
RED2
6
CONTINUOUS
10
7.699
20
-7.337
11
7.693
21
-7.334
0
LINE
8
RED2
6
CONTINUOUS
10
7.693
20
-7.334
11
7.69
21
-7.329
0
LINE
8
RED2
6
CONTINUOUS
10
7.69
20
-7.329
11
7.69
21
-7.278
0
LINE
8
RED2
6
CONTINUOUS
10
7.713
20
-7.298
11
7.735
21
-7.298
0
LINE
8
RED2
6
CONTINUOUS
10
7.721
20
-7.278
11
7.721
21
-7.329
0
LINE
8
RED2
6
CONTINUOUS
10
7.721
20
-7.329
11
7.724
21
-7.334
0
LINE
8
RED2
6
CONTINUOUS
10
7.724
20
-7.334
11
7.73
21
-7.337
0
LINE
8
RED2
6
CONTINUOUS
10
7.73
20
-7.337
11
7.735
21
-7.337
0
LINE
8
RED2
6
CONTINUOUS
10
7.778
20
-7.334
11
7.772
21
-7.337
0
LINE
8
RED2
6
CONTINUOUS
10
7.772
20
-7.337
11
7.761
21
-7.337
0
LINE
8
RED2
6
CONTINUOUS
10
7.761
20
-7.337
11
7.755
21
-7.334
0
LINE
8
RED2
6
CONTINUOUS
10
7.755
20
-7.334
11
7.752
21
-7.329
0
LINE
8
RED2
6
CONTINUOUS
10
7.752
20
-7.329
11
7.752
21
-7.306
0
LINE
8
RED2
6
CONTINUOUS
10
7.752
20
-7.306
11
7.755
21
-7.301
0
LINE
8
RED2
6
CONTINUOUS
10
7.755
20
-7.301
11
7.761
21
-7.298
0
LINE
8
RED2
6
CONTINUOUS
10
7.761
20
-7.298
11
7.772
21
-7.298
0
LINE
8
RED2
6
CONTINUOUS
10
7.772
20
-7.298
11
7.778
21
-7.301
0
LINE
8
RED2
6
CONTINUOUS
10
7.778
20
-7.301
11
7.78
21
-7.306
0
LINE
8
RED2
6
CONTINUOUS
10
7.78
20
-7.306
11
7.78
21
-7.312
0
LINE
8
RED2
6
CONTINUOUS
10
7.78
20
-7.312
11
7.752
21
-7.318
0
LINE
8
RED2
6
CONTINUOUS
10
7.806
20
-7.337
11
7.806
21
-7.298
0
LINE
8
RED2
6
CONTINUOUS
10
7.806
20
-7.309
11
7.808
21
-7.303
0
LINE
8
RED2
6
CONTINUOUS
10
7.808
20
-7.303
11
7.811
21
-7.301
0
LINE
8
RED2
6
CONTINUOUS
10
7.811
20
-7.301
11
7.817
21
-7.298
0
LINE
8
RED2
6
CONTINUOUS
10
7.817
20
-7.298
11
7.822
21
-7.298
0
LINE
8
RED2
6
CONTINUOUS
10
7.842
20
-7.332
11
7.845
21
-7.334
0
LINE
8
RED2
6
CONTINUOUS
10
7.845
20
-7.334
11
7.842
21
-7.337
0
LINE
8
RED2
6
CONTINUOUS
10
7.842
20
-7.337
11
7.839
21
-7.334
0
LINE
8
RED2
6
CONTINUOUS
10
7.839
20
-7.334
11
7.842
21
-7.332
0
LINE
8
RED2
6
CONTINUOUS
10
7.842
20
-7.332
11
7.842
21
-7.337
0
LINE
8
RED2
6
CONTINUOUS
10
7.867
20
-7.334
11
7.873
21
-7.337
0
LINE
8
RED2
6
CONTINUOUS
10
7.873
20
-7.337
11
7.884
21
-7.337
0
LINE
8
RED2
6
CONTINUOUS
10
7.884
20
-7.337
11
7.89
21
-7.334
0
LINE
8
RED2
6
CONTINUOUS
10
7.89
20
-7.334
11
7.893
21
-7.329
0
LINE
8
RED2
6
CONTINUOUS
10
7.893
20
-7.329
11
7.893
21
-7.326
0
LINE
8
RED2
6
CONTINUOUS
10
7.893
20
-7.326
11
7.89
21
-7.32
0
LINE
8
RED2
6
CONTINUOUS
10
7.89
20
-7.32
11
7.884
21
-7.318
0
LINE
8
RED2
6
CONTINUOUS
10
7.884
20
-7.318
11
7.876
21
-7.318
0
LINE
8
RED2
6
CONTINUOUS
10
7.876
20
-7.318
11
7.87
21
-7.315
0
LINE
8
RED2
6
CONTINUOUS
10
7.87
20
-7.315
11
7.867
21
-7.309
0
LINE
8
RED2
6
CONTINUOUS
10
7.867
20
-7.309
11
7.867
21
-7.306
0
LINE
8
RED2
6
CONTINUOUS
10
7.867
20
-7.306
11
7.87
21
-7.301
0
LINE
8
RED2
6
CONTINUOUS
10
7.87
20
-7.301
11
7.876
21
-7.298
0
LINE
8
RED2
6
CONTINUOUS
10
7.876
20
-7.298
11
7.884
21
-7.298
0
LINE
8
RED2
6
CONTINUOUS
10
7.884
20
-7.298
11
7.89
21
-7.301
0
LINE
8
RED2
6
CONTINUOUS
10
7.943
20
-7.334
11
7.938
21
-7.337
0
LINE
8
RED2
6
CONTINUOUS
10
7.938
20
-7.337
11
7.926
21
-7.337
0
LINE
8
RED2
6
CONTINUOUS
10
7.926
20
-7.337
11
7.921
21
-7.334
0
LINE
8
RED2
6
CONTINUOUS
10
7.921
20
-7.334
11
7.918
21
-7.332
0
LINE
8
RED2
6
CONTINUOUS
10
7.918
20
-7.332
11
7.915
21
-7.326
0
LINE
8
RED2
6
CONTINUOUS
10
7.915
20
-7.326
11
7.915
21
-7.309
0
LINE
8
RED2
6
CONTINUOUS
10
7.915
20
-7.309
11
7.918
21
-7.303
0
LINE
8
RED2
6
CONTINUOUS
10
7.918
20
-7.303
11
7.921
21
-7.301
0
LINE
8
RED2
6
CONTINUOUS
10
7.921
20
-7.301
11
7.926
21
-7.298
0
LINE
8
RED2
6
CONTINUOUS
10
7.926
20
-7.298
11
7.938
21
-7.298
0
LINE
8
RED2
6
CONTINUOUS
10
7.938
20
-7.298
11
7.943
21
-7.301
0
LINE
8
RED2
6
CONTINUOUS
10
7.969
20
-7.337
11
7.969
21
-7.278
0
LINE
8
RED2
6
CONTINUOUS
10
7.994
20
-7.337
11
7.994
21
-7.306
0
LINE
8
RED2
6
CONTINUOUS
10
7.994
20
-7.306
11
7.991
21
-7.301
0
LINE
8
RED2
6
CONTINUOUS
10
7.991
20
-7.301
11
7.985
21
-7.298
0
LINE
8
RED2
6
CONTINUOUS
10
7.985
20
-7.298
11
7.977
21
-7.298
0
LINE
8
RED2
6
CONTINUOUS
10
7.977
20
-7.298
11
7.971
21
-7.301
0
LINE
8
RED2
6
CONTINUOUS
10
7.971
20
-7.301
11
7.969
21
-7.303
0
LINE
8
RED2
6
CONTINUOUS
10
6.969
20
-7.146
11
11.221
21
-7.146
0
LINE
8
RED2
6
CONTINUOUS
10
7.022
20
-7.228
11
7.03
21
-7.231
0
LINE
8
RED2
6
CONTINUOUS
10
7.03
20
-7.231
11
7.044
21
-7.231
0
LINE
8
RED2
6
CONTINUOUS
10
7.044
20
-7.231
11
7.05
21
-7.228
0
LINE
8
RED2
6
CONTINUOUS
10
7.05
20
-7.228
11
7.053
21
-7.226
0
LINE
8
RED2
6
CONTINUOUS
10
7.053
20
-7.226
11
7.055
21
-7.22
0
LINE
8
RED2
6
CONTINUOUS
10
7.055
20
-7.22
11
7.055
21
-7.214
0
LINE
8
RED2
6
CONTINUOUS
10
7.055
20
-7.214
11
7.053
21
-7.209
0
LINE
8
RED2
6
CONTINUOUS
10
7.053
20
-7.209
11
7.05
21
-7.206
0
LINE
8
RED2
6
CONTINUOUS
10
7.05
20
-7.206
11
7.044
21
-7.203
0
LINE
8
RED2
6
CONTINUOUS
10
7.044
20
-7.203
11
7.033
21
-7.2
0
LINE
8
RED2
6
CONTINUOUS
10
7.033
20
-7.2
11
7.027
21
-7.197
0
LINE
8
RED2
6
CONTINUOUS
10
7.027
20
-7.197
11
7.025
21
-7.195
0
LINE
8
RED2
6
CONTINUOUS
10
7.025
20
-7.195
11
7.022
21
-7.189
0
LINE
8
RED2
6
CONTINUOUS
10
7.022
20
-7.189
11
7.022
21
-7.183
0
LINE
8
RED2
6
CONTINUOUS
10
7.022
20
-7.183
11
7.025
21
-7.178
0
LINE
8
RED2
6
CONTINUOUS
10
7.025
20
-7.178
11
7.027
21
-7.175
0
LINE
8
RED2
6
CONTINUOUS
10
7.027
20
-7.175
11
7.033
21
-7.172
0
LINE
8
RED2
6
CONTINUOUS
10
7.033
20
-7.172
11
7.047
21
-7.172
0
LINE
8
RED2
6
CONTINUOUS
10
7.047
20
-7.172
11
7.055
21
-7.175
0
LINE
8
RED2
6
CONTINUOUS
10
7.081
20
-7.231
11
7.081
21
-7.172
0
LINE
8
RED2
6
CONTINUOUS
10
7.106
20
-7.231
11
7.106
21
-7.2
0
LINE
8
RED2
6
CONTINUOUS
10
7.106
20
-7.2
11
7.103
21
-7.195
0
LINE
8
RED2
6
CONTINUOUS
10
7.103
20
-7.195
11
7.098
21
-7.192
0
LINE
8
RED2
6
CONTINUOUS
10
7.098
20
-7.192
11
7.089
21
-7.192
0
LINE
8
RED2
6
CONTINUOUS
10
7.089
20
-7.192
11
7.084
21
-7.195
0
LINE
8
RED2
6
CONTINUOUS
10
7.084
20
-7.195
11
7.081
21
-7.197
0
LINE
8
RED2
6
CONTINUOUS
10
7.157
20
-7.228
11
7.151
21
-7.231
0
LINE
8
RED2
6
CONTINUOUS
10
7.151
20
-7.231
11
7.14
21
-7.231
0
LINE
8
RED2
6
CONTINUOUS
10
7.14
20
-7.231
11
7.134
21
-7.228
0
LINE
8
RED2
6
CONTINUOUS
10
7.134
20
-7.228
11
7.131
21
-7.223
0
LINE
8
RED2
6
CONTINUOUS
10
7.131
20
-7.223
11
7.131
21
-7.2
0
LINE
8
RED2
6
CONTINUOUS
10
7.131
20
-7.2
11
7.134
21
-7.195
0
LINE
8
RED2
6
CONTINUOUS
10
7.134
20
-7.195
11
7.14
21
-7.192
0
LINE
8
RED2
6
CONTINUOUS
10
7.14
20
-7.192
11
7.151
21
-7.192
0
LINE
8
RED2
6
CONTINUOUS
10
7.151
20
-7.192
11
7.157
21
-7.195
0
LINE
8
RED2
6
CONTINUOUS
10
7.157
20
-7.195
11
7.159
21
-7.2
0
LINE
8
RED2
6
CONTINUOUS
10
7.159
20
-7.2
11
7.159
21
-7.206
0
LINE
8
RED2
6
CONTINUOUS
10
7.159
20
-7.206
11
7.131
21
-7.212
0
LINE
8
RED2
6
CONTINUOUS
10
7.207
20
-7.228
11
7.202
21
-7.231
0
LINE
8
RED2
6
CONTINUOUS
10
7.202
20
-7.231
11
7.19
21
-7.231
0
LINE
8
RED2
6
CONTINUOUS
10
7.19
20
-7.231
11
7.185
21
-7.228
0
LINE
8
RED2
6
CONTINUOUS
10
7.185
20
-7.228
11
7.182
21
-7.223
0
LINE
8
RED2
6
CONTINUOUS
10
7.182
20
-7.223
11
7.182
21
-7.2
0
LINE
8
RED2
6
CONTINUOUS
10
7.182
20
-7.2
11
7.185
21
-7.195
0
LINE
8
RED2
6
CONTINUOUS
10
7.185
20
-7.195
11
7.19
21
-7.192
0
LINE
8
RED2
6
CONTINUOUS
10
7.19
20
-7.192
11
7.202
21
-7.192
0
LINE
8
RED2
6
CONTINUOUS
10
7.202
20
-7.192
11
7.207
21
-7.195
0
LINE
8
RED2
6
CONTINUOUS
10
7.207
20
-7.195
11
7.21
21
-7.2
0
LINE
8
RED2
6
CONTINUOUS
10
7.21
20
-7.2
11
7.21
21
-7.206
0
LINE
8
RED2
6
CONTINUOUS
10
7.21
20
-7.206
11
7.182
21
-7.212
0
LINE
8
RED2
6
CONTINUOUS
10
7.227
20
-7.192
11
7.249
21
-7.192
0
LINE
8
RED2
6
CONTINUOUS
10
7.235
20
-7.172
11
7.235
21
-7.223
0
LINE
8
RED2
6
CONTINUOUS
10
7.235
20
-7.223
11
7.238
21
-7.228
0
LINE
8
RED2
6
CONTINUOUS
10
7.238
20
-7.228
11
7.244
21
-7.231
0
LINE
8
RED2
6
CONTINUOUS
10
7.244
20
-7.231
11
7.249
21
-7.231
0
LINE
8
RED2
6
CONTINUOUS
10
7.269
20
-7.226
11
7.272
21
-7.228
0
LINE
8
RED2
6
CONTINUOUS
10
7.272
20
-7.228
11
7.269
21
-7.231
0
LINE
8
RED2
6
CONTINUOUS
10
7.269
20
-7.231
11
7.266
21
-7.228
0
LINE
8
RED2
6
CONTINUOUS
10
7.266
20
-7.228
11
7.269
21
-7.226
0
LINE
8
RED2
6
CONTINUOUS
10
7.269
20
-7.226
11
7.269
21
-7.231
0
LINE
8
RED2
6
CONTINUOUS
10
7.269
20
-7.195
11
7.272
21
-7.197
0
LINE
8
RED2
6
CONTINUOUS
10
7.272
20
-7.197
11
7.269
21
-7.2
0
LINE
8
RED2
6
CONTINUOUS
10
7.269
20
-7.2
11
7.266
21
-7.197
0
LINE
8
RED2
6
CONTINUOUS
10
7.266
20
-7.197
11
7.269
21
-7.195
0
LINE
8
RED2
6
CONTINUOUS
10
7.269
20
-7.195
11
7.269
21
-7.2
0
LINE
8
RED2
6
CONTINUOUS
10
7.384
20
-7.169
11
7.334
21
-7.245
0
LINE
8
RED2
6
CONTINUOUS
10
7.401
20
-7.228
11
7.409
21
-7.231
0
LINE
8
RED2
6
CONTINUOUS
10
7.409
20
-7.231
11
7.424
21
-7.231
0
LINE
8
RED2
6
CONTINUOUS
10
7.424
20
-7.231
11
7.429
21
-7.228
0
LINE
8
RED2
6
CONTINUOUS
10
7.429
20
-7.228
11
7.432
21
-7.226
0
LINE
8
RED2
6
CONTINUOUS
10
7.432
20
-7.226
11
7.435
21
-7.22
0
LINE
8
RED2
6
CONTINUOUS
10
7.435
20
-7.22
11
7.435
21
-7.214
0
LINE
8
RED2
6
CONTINUOUS
10
7.435
20
-7.214
11
7.432
21
-7.209
0
LINE
8
RED2
6
CONTINUOUS
10
7.432
20
-7.209
11
7.429
21
-7.206
0
LINE
8
RED2
6
CONTINUOUS
10
7.429
20
-7.206
11
7.424
21
-7.203
0
LINE
8
RED2
6
CONTINUOUS
10
7.424
20
-7.203
11
7.412
21
-7.2
0
LINE
8
RED2
6
CONTINUOUS
10
7.412
20
-7.2
11
7.407
21
-7.197
0
LINE
8
RED2
6
CONTINUOUS
10
7.407
20
-7.197
11
7.404
21
-7.195
0
LINE
8
RED2
6
CONTINUOUS
10
7.404
20
-7.195
11
7.401
21
-7.189
0
LINE
8
RED2
6
CONTINUOUS
10
7.401
20
-7.189
11
7.401
21
-7.183
0
LINE
8
RED2
6
CONTINUOUS
10
7.401
20
-7.183
11
7.404
21
-7.178
0
LINE
8
RED2
6
CONTINUOUS
10
7.404
20
-7.178
11
7.407
21
-7.175
0
LINE
8
RED2
6
CONTINUOUS
10
7.407
20
-7.175
11
7.412
21
-7.172
0
LINE
8
RED2
6
CONTINUOUS
10
7.412
20
-7.172
11
7.426
21
-7.172
0
LINE
8
RED2
6
CONTINUOUS
10
7.426
20
-7.172
11
7.435
21
-7.175
0
LINE
8
RED2
6
CONTINUOUS
10
7.46
20
-7.231
11
7.46
21
-7.192
0
LINE
8
RED2
6
CONTINUOUS
10
7.46
20
-7.172
11
7.457
21
-7.175
0
LINE
8
RED2
6
CONTINUOUS
10
7.457
20
-7.175
11
7.46
21
-7.178
0
LINE
8
RED2
6
CONTINUOUS
10
7.46
20
-7.178
11
7.463
21
-7.175
0
LINE
8
RED2
6
CONTINUOUS
10
7.463
20
-7.175
11
7.46
21
-7.172
0
LINE
8
RED2
6
CONTINUOUS
10
7.46
20
-7.172
11
7.46
21
-7.178
0
LINE
8
RED2
6
CONTINUOUS
10
7.516
20
-7.172
11
7.488
21
-7.172
0
LINE
8
RED2
6
CONTINUOUS
10
7.488
20
-7.172
11
7.485
21
-7.2
0
LINE
8
RED2
6
CONTINUOUS
10
7.485
20
-7.2
11
7.488
21
-7.197
0
LINE
8
RED2
6
CONTINUOUS
10
7.488
20
-7.197
11
7.494
21
-7.195
0
LINE
8
RED2
6
CONTINUOUS
10
7.494
20
-7.195
11
7.508
21
-7.195
0
LINE
8
RED2
6
CONTINUOUS
10
7.508
20
-7.195
11
7.513
21
-7.197
0
LINE
8
RED2
6
CONTINUOUS
10
7.513
20
-7.197
11
7.516
21
-7.2
0
LINE
8
RED2
6
CONTINUOUS
10
7.516
20
-7.2
11
7.519
21
-7.206
0
LINE
8
RED2
6
CONTINUOUS
10
7.519
20
-7.206
11
7.519
21
-7.22
0
LINE
8
RED2
6
CONTINUOUS
10
7.519
20
-7.22
11
7.516
21
-7.226
0
LINE
8
RED2
6
CONTINUOUS
10
7.516
20
-7.226
11
7.513
21
-7.228
0
LINE
8
RED2
6
CONTINUOUS
10
7.513
20
-7.228
11
7.508
21
-7.231
0
LINE
8
RED2
6
CONTINUOUS
10
7.508
20
-7.231
11
7.494
21
-7.231
0
LINE
8
RED2
6
CONTINUOUS
10
7.494
20
-7.231
11
7.488
21
-7.228
0
LINE
8
RED2
6
CONTINUOUS
10
7.488
20
-7.228
11
7.485
21
-7.226
0
LINE
8
RED2
6
CONTINUOUS
10
7.539
20
-7.172
11
7.575
21
-7.172
0
LINE
8
RED2
6
CONTINUOUS
10
7.575
20
-7.172
11
7.556
21
-7.195
0
LINE
8
RED2
6
CONTINUOUS
10
7.556
20
-7.195
11
7.564
21
-7.195
0
LINE
8
RED2
6
CONTINUOUS
10
7.564
20
-7.195
11
7.57
21
-7.197
0
LINE
8
RED2
6
CONTINUOUS
10
7.57
20
-7.197
11
7.572
21
-7.2
0
LINE
8
RED2
6
CONTINUOUS
10
7.572
20
-7.2
11
7.575
21
-7.206
0
LINE
8
RED2
6
CONTINUOUS
10
7.575
20
-7.206
11
7.575
21
-7.22
0
LINE
8
RED2
6
CONTINUOUS
10
7.575
20
-7.22
11
7.572
21
-7.226
0
LINE
8
RED2
6
CONTINUOUS
10
7.572
20
-7.226
11
7.57
21
-7.228
0
LINE
8
RED2
6
CONTINUOUS
10
7.57
20
-7.228
11
7.564
21
-7.231
0
LINE
8
RED2
6
CONTINUOUS
10
7.564
20
-7.231
11
7.547
21
-7.231
0
LINE
8
RED2
6
CONTINUOUS
10
7.547
20
-7.231
11
7.542
21
-7.228
0
LINE
8
RED2
6
CONTINUOUS
10
7.542
20
-7.228
11
7.539
21
-7.226
0
LINE
8
RED2
6
CONTINUOUS
10
7.629
20
-7.172
11
7.601
21
-7.172
0
LINE
8
RED2
6
CONTINUOUS
10
7.601
20
-7.172
11
7.598
21
-7.2
0
LINE
8
RED2
6
CONTINUOUS
10
7.598
20
-7.2
11
7.601
21
-7.197
0
LINE
8
RED2
6
CONTINUOUS
10
7.601
20
-7.197
11
7.606
21
-7.195
0
LINE
8
RED2
6
CONTINUOUS
10
7.606
20
-7.195
11
7.62
21
-7.195
0
LINE
8
RED2
6
CONTINUOUS
10
7.62
20
-7.195
11
7.626
21
-7.197
0
LINE
8
RED2
6
CONTINUOUS
10
7.626
20
-7.197
11
7.629
21
-7.2
0
LINE
8
RED2
6
CONTINUOUS
10
7.629
20
-7.2
11
7.631
21
-7.206
0
LINE
8
RED2
6
CONTINUOUS
10
7.631
20
-7.206
11
7.631
21
-7.22
0
LINE
8
RED2
6
CONTINUOUS
10
7.631
20
-7.22
11
7.629
21
-7.226
0
LINE
8
RED2
6
CONTINUOUS
10
7.629
20
-7.226
11
7.626
21
-7.228
0
LINE
8
RED2
6
CONTINUOUS
10
7.626
20
-7.228
11
7.62
21
-7.231
0
LINE
8
RED2
6
CONTINUOUS
10
7.62
20
-7.231
11
7.606
21
-7.231
0
LINE
8
RED2
6
CONTINUOUS
10
7.606
20
-7.231
11
7.601
21
-7.228
0
LINE
8
RED2
6
CONTINUOUS
10
7.601
20
-7.228
11
7.598
21
-7.226
0
LINE
8
RED2
6
CONTINUOUS
10
7.688
20
-7.231
11
7.654
21
-7.231
0
LINE
8
RED2
6
CONTINUOUS
10
7.671
20
-7.231
11
7.671
21
-7.172
0
LINE
8
RED2
6
CONTINUOUS
10
7.671
20
-7.172
11
7.665
21
-7.181
0
LINE
8
RED2
6
CONTINUOUS
10
7.665
20
-7.181
11
7.66
21
-7.186
0
LINE
8
RED2
6
CONTINUOUS
10
7.66
20
-7.186
11
7.654
21
-7.189
0
LINE
8
RED2
6
CONTINUOUS
10
7.783
20
-7.231
11
7.783
21
-7.2
0
LINE
8
RED2
6
CONTINUOUS
10
7.783
20
-7.2
11
7.78
21
-7.195
0
LINE
8
RED2
6
CONTINUOUS
10
7.78
20
-7.195
11
7.775
21
-7.192
0
LINE
8
RED2
6
CONTINUOUS
10
7.775
20
-7.192
11
7.763
21
-7.192
0
LINE
8
RED2
6
CONTINUOUS
10
7.763
20
-7.192
11
7.758
21
-7.195
0
LINE
8
RED2
6
CONTINUOUS
10
7.783
20
-7.228
11
7.778
21
-7.231
0
LINE
8
RED2
6
CONTINUOUS
10
7.778
20
-7.231
11
7.763
21
-7.231
0
LINE
8
RED2
6
CONTINUOUS
10
7.763
20
-7.231
11
7.758
21
-7.228
0
LINE
8
RED2
6
CONTINUOUS
10
7.758
20
-7.228
11
7.755
21
-7.223
0
LINE
8
RED2
6
CONTINUOUS
10
7.755
20
-7.223
11
7.755
21
-7.217
0
LINE
8
RED2
6
CONTINUOUS
10
7.755
20
-7.217
11
7.758
21
-7.212
0
LINE
8
RED2
6
CONTINUOUS
10
7.758
20
-7.212
11
7.763
21
-7.209
0
LINE
8
RED2
6
CONTINUOUS
10
7.763
20
-7.209
11
7.778
21
-7.209
0
LINE
8
RED2
6
CONTINUOUS
10
7.778
20
-7.209
11
7.783
21
-7.206
0
LINE
8
RED2
6
CONTINUOUS
10
7.803
20
-7.192
11
7.825
21
-7.192
0
LINE
8
RED2
6
CONTINUOUS
10
7.811
20
-7.172
11
7.811
21
-7.223
0
LINE
8
RED2
6
CONTINUOUS
10
7.811
20
-7.223
11
7.814
21
-7.228
0
LINE
8
RED2
6
CONTINUOUS
10
7.814
20
-7.228
11
7.82
21
-7.231
0
LINE
8
RED2
6
CONTINUOUS
10
7.82
20
-7.231
11
7.825
21
-7.231
0
LINE
8
RED2
6
CONTINUOUS
10
7.867
20
-7.228
11
7.862
21
-7.231
0
LINE
8
RED2
6
CONTINUOUS
10
7.862
20
-7.231
11
7.851
21
-7.231
0
LINE
8
RED2
6
CONTINUOUS
10
7.851
20
-7.231
11
7.845
21
-7.228
0
LINE
8
RED2
6
CONTINUOUS
10
7.845
20
-7.228
11
7.842
21
-7.223
0
LINE
8
RED2
6
CONTINUOUS
10
7.842
20
-7.223
11
7.842
21
-7.2
0
LINE
8
RED2
6
CONTINUOUS
10
7.842
20
-7.2
11
7.845
21
-7.195
0
LINE
8
RED2
6
CONTINUOUS
10
7.845
20
-7.195
11
7.851
21
-7.192
0
LINE
8
RED2
6
CONTINUOUS
10
7.851
20
-7.192
11
7.862
21
-7.192
0
LINE
8
RED2
6
CONTINUOUS
10
7.862
20
-7.192
11
7.867
21
-7.195
0
LINE
8
RED2
6
CONTINUOUS
10
7.867
20
-7.195
11
7.87
21
-7.2
0
LINE
8
RED2
6
CONTINUOUS
10
7.87
20
-7.2
11
7.87
21
-7.206
0
LINE
8
RED2
6
CONTINUOUS
10
7.87
20
-7.206
11
7.842
21
-7.212
0
LINE
8
RED2
6
CONTINUOUS
10
7.896
20
-7.192
11
7.896
21
-7.231
0
LINE
8
RED2
6
CONTINUOUS
10
7.896
20
-7.197
11
7.898
21
-7.195
0
LINE
8
RED2
6
CONTINUOUS
10
7.898
20
-7.195
11
7.904
21
-7.192
0
LINE
8
RED2
6
CONTINUOUS
10
7.904
20
-7.192
11
7.912
21
-7.192
0
LINE
8
RED2
6
CONTINUOUS
10
7.912
20
-7.192
11
7.918
21
-7.195
0
LINE
8
RED2
6
CONTINUOUS
10
7.918
20
-7.195
11
7.921
21
-7.2
0
LINE
8
RED2
6
CONTINUOUS
10
7.921
20
-7.2
11
7.921
21
-7.231
0
LINE
8
RED2
6
CONTINUOUS
10
7.974
20
-7.192
11
7.974
21
-7.231
0
LINE
8
RED2
6
CONTINUOUS
10
7.949
20
-7.192
11
7.949
21
-7.223
0
LINE
8
RED2
6
CONTINUOUS
10
7.949
20
-7.223
11
7.952
21
-7.228
0
LINE
8
RED2
6
CONTINUOUS
10
7.952
20
-7.228
11
7.957
21
-7.231
0
LINE
8
RED2
6
CONTINUOUS
10
7.957
20
-7.231
11
7.966
21
-7.231
0
LINE
8
RED2
6
CONTINUOUS
10
7.966
20
-7.231
11
7.971
21
-7.228
0
LINE
8
RED2
6
CONTINUOUS
10
7.971
20
-7.228
11
7.974
21
-7.226
0
LINE
8
RED2
6
CONTINUOUS
10
8.028
20
-7.231
11
8.028
21
-7.2
0
LINE
8
RED2
6
CONTINUOUS
10
8.028
20
-7.2
11
8.025
21
-7.195
0
LINE
8
RED2
6
CONTINUOUS
10
8.025
20
-7.195
11
8.019
21
-7.192
0
LINE
8
RED2
6
CONTINUOUS
10
8.019
20
-7.192
11
8.008
21
-7.192
0
LINE
8
RED2
6
CONTINUOUS
10
8.008
20
-7.192
11
8.002
21
-7.195
0
LINE
8
RED2
6
CONTINUOUS
10
8.028
20
-7.228
11
8.022
21
-7.231
0
LINE
8
RED2
6
CONTINUOUS
10
8.022
20
-7.231
11
8.008
21
-7.231
0
LINE
8
RED2
6
CONTINUOUS
10
8.008
20
-7.231
11
8.002
21
-7.228
0
LINE
8
RED2
6
CONTINUOUS
10
8.002
20
-7.228
11
7.999
21
-7.223
0
LINE
8
RED2
6
CONTINUOUS
10
7.999
20
-7.223
11
7.999
21
-7.217
0
LINE
8
RED2
6
CONTINUOUS
10
7.999
20
-7.217
11
8.002
21
-7.212
0
LINE
8
RED2
6
CONTINUOUS
10
8.002
20
-7.212
11
8.008
21
-7.209
0
LINE
8
RED2
6
CONTINUOUS
10
8.008
20
-7.209
11
8.022
21
-7.209
0
LINE
8
RED2
6
CONTINUOUS
10
8.022
20
-7.209
11
8.028
21
-7.206
0
LINE
8
RED2
6
CONTINUOUS
10
8.047
20
-7.192
11
8.07
21
-7.192
0
LINE
8
RED2
6
CONTINUOUS
10
8.056
20
-7.172
11
8.056
21
-7.223
0
LINE
8
RED2
6
CONTINUOUS
10
8.056
20
-7.223
11
8.058
21
-7.228
0
LINE
8
RED2
6
CONTINUOUS
10
8.058
20
-7.228
11
8.064
21
-7.231
0
LINE
8
RED2
6
CONTINUOUS
10
8.064
20
-7.231
11
8.07
21
-7.231
0
LINE
8
RED2
6
CONTINUOUS
10
8.098
20
-7.231
11
8.092
21
-7.228
0
LINE
8
RED2
6
CONTINUOUS
10
8.092
20
-7.228
11
8.089
21
-7.226
0
LINE
8
RED2
6
CONTINUOUS
10
8.089
20
-7.226
11
8.087
21
-7.22
0
LINE
8
RED2
6
CONTINUOUS
10
8.087
20
-7.22
11
8.087
21
-7.203
0
LINE
8
RED2
6
CONTINUOUS
10
8.087
20
-7.203
11
8.089
21
-7.197
0
LINE
8
RED2
6
CONTINUOUS
10
8.089
20
-7.197
11
8.092
21
-7.195
0
LINE
8
RED2
6
CONTINUOUS
10
8.092
20
-7.195
11
8.098
21
-7.192
0
LINE
8
RED2
6
CONTINUOUS
10
8.098
20
-7.192
11
8.106
21
-7.192
0
LINE
8
RED2
6
CONTINUOUS
10
8.106
20
-7.192
11
8.112
21
-7.195
0
LINE
8
RED2
6
CONTINUOUS
10
8.112
20
-7.195
11
8.115
21
-7.197
0
LINE
8
RED2
6
CONTINUOUS
10
8.115
20
-7.197
11
8.117
21
-7.203
0
LINE
8
RED2
6
CONTINUOUS
10
8.117
20
-7.203
11
8.117
21
-7.22
0
LINE
8
RED2
6
CONTINUOUS
10
8.117
20
-7.22
11
8.115
21
-7.226
0
LINE
8
RED2
6
CONTINUOUS
10
8.115
20
-7.226
11
8.112
21
-7.228
0
LINE
8
RED2
6
CONTINUOUS
10
8.112
20
-7.228
11
8.106
21
-7.231
0
LINE
8
RED2
6
CONTINUOUS
10
8.106
20
-7.231
11
8.098
21
-7.231
0
LINE
8
RED2
6
CONTINUOUS
10
8.143
20
-7.231
11
8.143
21
-7.192
0
LINE
8
RED2
6
CONTINUOUS
10
8.143
20
-7.203
11
8.146
21
-7.197
0
LINE
8
RED2
6
CONTINUOUS
10
8.146
20
-7.197
11
8.148
21
-7.195
0
LINE
8
RED2
6
CONTINUOUS
10
8.148
20
-7.195
11
8.154
21
-7.192
0
LINE
8
RED2
6
CONTINUOUS
10
8.154
20
-7.192
11
8.16
21
-7.192
0
LINE
8
RED2
6
CONTINUOUS
10
8.221
20
-7.169
11
8.171
21
-7.245
0
LINE
8
RED2
6
CONTINUOUS
10
7.049
20
-7.082
11
7.029
21
-7.082
0
LINE
8
RED2
6
CONTINUOUS
10
7.029
20
-7.113
11
7.029
21
-7.054
0
LINE
8
RED2
6
CONTINUOUS
10
7.029
20
-7.054
11
7.057
21
-7.054
0
LINE
8
RED2
6
CONTINUOUS
10
7.105
20
-7.074
11
7.105
21
-7.113
0
LINE
8
RED2
6
CONTINUOUS
10
7.091
20
-7.051
11
7.077
21
-7.094
0
LINE
8
RED2
6
CONTINUOUS
10
7.077
20
-7.094
11
7.114
21
-7.094
0
LINE
8
RED2
6
CONTINUOUS
10
7.136
20
-7.113
11
7.136
21
-7.054
0
LINE
8
RED2
6
CONTINUOUS
10
7.184
20
-7.082
11
7.164
21
-7.082
0
LINE
8
RED2
6
CONTINUOUS
10
7.164
20
-7.113
11
7.164
21
-7.054
0
LINE
8
RED2
6
CONTINUOUS
10
7.164
20
-7.054
11
7.192
21
-7.054
0
LINE
8
RED2
6
CONTINUOUS
10
7.234
20
-7.082
11
7.243
21
-7.085
0
LINE
8
RED2
6
CONTINUOUS
10
7.243
20
-7.085
11
7.246
21
-7.088
0
LINE
8
RED2
6
CONTINUOUS
10
7.246
20
-7.088
11
7.248
21
-7.094
0
LINE
8
RED2
6
CONTINUOUS
10
7.248
20
-7.094
11
7.248
21
-7.102
0
LINE
8
RED2
6
CONTINUOUS
10
7.248
20
-7.102
11
7.246
21
-7.108
0
LINE
8
RED2
6
CONTINUOUS
10
7.246
20
-7.108
11
7.243
21
-7.11
0
LINE
8
RED2
6
CONTINUOUS
10
7.243
20
-7.11
11
7.237
21
-7.113
0
LINE
8
RED2
6
CONTINUOUS
10
7.237
20
-7.113
11
7.215
21
-7.113
0
LINE
8
RED2
6
CONTINUOUS
10
7.215
20
-7.113
11
7.215
21
-7.054
0
LINE
8
RED2
6
CONTINUOUS
10
7.215
20
-7.054
11
7.234
21
-7.054
0
LINE
8
RED2
6
CONTINUOUS
10
7.234
20
-7.054
11
7.24
21
-7.057
0
LINE
8
RED2
6
CONTINUOUS
10
7.24
20
-7.057
11
7.243
21
-7.06
0
LINE
8
RED2
6
CONTINUOUS
10
7.243
20
-7.06
11
7.246
21
-7.065
0
LINE
8
RED2
6
CONTINUOUS
10
7.246
20
-7.065
11
7.246
21
-7.071
0
LINE
8
RED2
6
CONTINUOUS
10
7.246
20
-7.071
11
7.243
21
-7.077
0
LINE
8
RED2
6
CONTINUOUS
10
7.243
20
-7.077
11
7.24
21
-7.079
0
LINE
8
RED2
6
CONTINUOUS
10
7.24
20
-7.079
11
7.234
21
-7.082
0
LINE
8
RED2
6
CONTINUOUS
10
7.234
20
-7.082
11
7.215
21
-7.082
0
LINE
8
RED2
6
CONTINUOUS
10
7.756
20
-7.54
11
7.756
21
-7.658
0
LINE
8
RED2
6
CONTINUOUS
10
10.276
20
-7.54
11
10.276
21
-7.796
0
LINE
8
RED2
6
CONTINUOUS
10
3.97
20
-1.02
11
3.97
21
-1.18
0
LINE
8
RED2
6
CONTINUOUS
10
4.03
20
-1.02
11
4.03
21
-1.18
0
LINE
8
RED2
6
CONTINUOUS
10
4.04
20
-1.1
11
4.15
21
-1.1
0
LINE
8
RED2
6
CONTINUOUS
10
3.96
20
-1.1
11
3.85
21
-1.1
0
LINE
8
CYAN2
6
CONTINUOUS
10
3.991
20
-0.867
11
3.989
21
-0.87
0
LINE
8
CYAN2
6
CONTINUOUS
10
3.989
20
-0.87
11
3.982
21
-0.872
0
LINE
8
CYAN2
6
CONTINUOUS
10
3.982
20
-0.872
11
3.977
21
-0.872
0
LINE
8
CYAN2
6
CONTINUOUS
10
3.977
20
-0.872
11
3.97
21
-0.87
0
LINE
8
CYAN2
6
CONTINUOUS
10
3.97
20
-0.87
11
3.965
21
-0.865
0
LINE
8
CYAN2
6
CONTINUOUS
10
3.965
20
-0.865
11
3.963
21
-0.86
0
LINE
8
CYAN2
6
CONTINUOUS
10
3.963
20
-0.86
11
3.96
21
-0.851
0
LINE
8
CYAN2
6
CONTINUOUS
10
3.96
20
-0.851
11
3.96
21
-0.844
0
LINE
8
CYAN2
6
CONTINUOUS
10
3.96
20
-0.844
11
3.963
21
-0.834
0
LINE
8
CYAN2
6
CONTINUOUS
10
3.963
20
-0.834
11
3.965
21
-0.829
0
LINE
8
CYAN2
6
CONTINUOUS
10
3.965
20
-0.829
11
3.97
21
-0.825
0
LINE
8
CYAN2
6
CONTINUOUS
10
3.97
20
-0.825
11
3.977
21
-0.822
0
LINE
8
CYAN2
6
CONTINUOUS
10
3.977
20
-0.822
11
3.982
21
-0.822
0
LINE
8
CYAN2
6
CONTINUOUS
10
3.982
20
-0.822
11
3.989
21
-0.825
0
LINE
8
CYAN2
6
CONTINUOUS
10
3.989
20
-0.825
11
3.991
21
-0.827
0
LINE
8
CYAN2
6
CONTINUOUS
10
4.01
20
-0.827
11
4.013
21
-0.825
0
LINE
8
CYAN2
6
CONTINUOUS
10
4.013
20
-0.825
11
4.017
21
-0.822
0
LINE
8
CYAN2
6
CONTINUOUS
10
4.017
20
-0.822
11
4.029
21
-0.822
0
LINE
8
CYAN2
6
CONTINUOUS
10
4.029
20
-0.822
11
4.034
21
-0.825
0
LINE
8
CYAN2
6
CONTINUOUS
10
4.034
20
-0.825
11
4.036
21
-0.827
0
LINE
8
CYAN2
6
CONTINUOUS
10
4.036
20
-0.827
11
4.039
21
-0.832
0
LINE
8
CYAN2
6
CONTINUOUS
10
4.039
20
-0.832
11
4.039
21
-0.836
0
LINE
8
CYAN2
6
CONTINUOUS
10
4.039
20
-0.836
11
4.036
21
-0.844
0
LINE
8
CYAN2
6
CONTINUOUS
10
4.036
20
-0.844
11
4.008
21
-0.872
0
LINE
8
CYAN2
6
CONTINUOUS
10
4.008
20
-0.872
11
4.039
21
-0.872
0
LINE
8
CYAN2
6
CONTINUOUS
10
3.944
20
-0.963
11
3.915
21
-0.963
0
LINE
8
CYAN2
6
CONTINUOUS
10
3.929
20
-0.963
11
3.929
21
-0.913
0
LINE
8
CYAN2
6
CONTINUOUS
10
3.929
20
-0.913
11
3.925
21
-0.92
0
LINE
8
CYAN2
6
CONTINUOUS
10
3.925
20
-0.92
11
3.92
21
-0.925
0
LINE
8
CYAN2
6
CONTINUOUS
10
3.92
20
-0.925
11
3.915
21
-0.927
0
LINE
8
CYAN2
6
CONTINUOUS
10
3.975
20
-0.913
11
3.979
21
-0.913
0
LINE
8
CYAN2
6
CONTINUOUS
10
3.979
20
-0.913
11
3.984
21
-0.916
0
LINE
8
CYAN2
6
CONTINUOUS
10
3.984
20
-0.916
11
3.986
21
-0.918
0
LINE
8
CYAN2
6
CONTINUOUS
10
3.986
20
-0.918
11
3.989
21
-0.923
0
LINE
8
CYAN2
6
CONTINUOUS
10
3.989
20
-0.923
11
3.991
21
-0.932
0
LINE
8
CYAN2
6
CONTINUOUS
10
3.991
20
-0.932
11
3.991
21
-0.944
0
LINE
8
CYAN2
6
CONTINUOUS
10
3.991
20
-0.944
11
3.989
21
-0.954
0
LINE
8
CYAN2
6
CONTINUOUS
10
3.989
20
-0.954
11
3.986
21
-0.958
0
LINE
8
CYAN2
6
CONTINUOUS
10
3.986
20
-0.958
11
3.984
21
-0.961
0
LINE
8
CYAN2
6
CONTINUOUS
10
3.984
20
-0.961
11
3.979
21
-0.963
0
LINE
8
CYAN2
6
CONTINUOUS
10
3.979
20
-0.963
11
3.975
21
-0.963
0
LINE
8
CYAN2
6
CONTINUOUS
10
3.975
20
-0.963
11
3.97
21
-0.961
0
LINE
8
CYAN2
6
CONTINUOUS
10
3.97
20
-0.961
11
3.967
21
-0.958
0
LINE
8
CYAN2
6
CONTINUOUS
10
3.967
20
-0.958
11
3.965
21
-0.954
0
LINE
8
CYAN2
6
CONTINUOUS
10
3.965
20
-0.954
11
3.963
21
-0.944
0
LINE
8
CYAN2
6
CONTINUOUS
10
3.963
20
-0.944
11
3.963
21
-0.932
0
LINE
8
CYAN2
6
CONTINUOUS
10
3.963
20
-0.932
11
3.965
21
-0.923
0
LINE
8
CYAN2
6
CONTINUOUS
10
3.965
20
-0.923
11
3.967
21
-0.918
0
LINE
8
CYAN2
6
CONTINUOUS
10
3.967
20
-0.918
11
3.97
21
-0.916
0
LINE
8
CYAN2
6
CONTINUOUS
10
3.97
20
-0.916
11
3.975
21
-0.913
0
LINE
8
CYAN2
6
CONTINUOUS
10
4.022
20
-0.913
11
4.027
21
-0.913
0
LINE
8
CYAN2
6
CONTINUOUS
10
4.027
20
-0.913
11
4.032
21
-0.916
0
LINE
8
CYAN2
6
CONTINUOUS
10
4.032
20
-0.916
11
4.034
21
-0.918
0
LINE
8
CYAN2
6
CONTINUOUS
10
4.034
20
-0.918
11
4.036
21
-0.923
0
LINE
8
CYAN2
6
CONTINUOUS
10
4.036
20
-0.923
11
4.039
21
-0.932
0
LINE
8
CYAN2
6
CONTINUOUS
10
4.039
20
-0.932
11
4.039
21
-0.944
0
LINE
8
CYAN2
6
CONTINUOUS
10
4.039
20
-0.944
11
4.036
21
-0.954
0
LINE
8
CYAN2
6
CONTINUOUS
10
4.036
20
-0.954
11
4.034
21
-0.958
0
LINE
8
CYAN2
6
CONTINUOUS
10
4.034
20
-0.958
11
4.032
21
-0.961
0
LINE
8
CYAN2
6
CONTINUOUS
10
4.032
20
-0.961
11
4.027
21
-0.963
0
LINE
8
CYAN2
6
CONTINUOUS
10
4.027
20
-0.963
11
4.022
21
-0.963
0
LINE
8
CYAN2
6
CONTINUOUS
10
4.022
20
-0.963
11
4.017
21
-0.961
0
LINE
8
CYAN2
6
CONTINUOUS
10
4.017
20
-0.961
11
4.015
21
-0.958
0
LINE
8
CYAN2
6
CONTINUOUS
10
4.015
20
-0.958
11
4.013
21
-0.954
0
LINE
8
CYAN2
6
CONTINUOUS
10
4.013
20
-0.954
11
4.01
21
-0.944
0
LINE
8
CYAN2
6
CONTINUOUS
10
4.01
20
-0.944
11
4.01
21
-0.932
0
LINE
8
CYAN2
6
CONTINUOUS
10
4.01
20
-0.932
11
4.013
21
-0.923
0
LINE
8
CYAN2
6
CONTINUOUS
10
4.013
20
-0.923
11
4.015
21
-0.918
0
LINE
8
CYAN2
6
CONTINUOUS
10
4.015
20
-0.918
11
4.017
21
-0.916
0
LINE
8
CYAN2
6
CONTINUOUS
10
4.017
20
-0.916
11
4.022
21
-0.913
0
LINE
8
CYAN2
6
CONTINUOUS
10
4.06
20
-0.93
11
4.06
21
-0.963
0
LINE
8
CYAN2
6
CONTINUOUS
10
4.06
20
-0.935
11
4.063
21
-0.932
0
LINE
8
CYAN2
6
CONTINUOUS
10
4.063
20
-0.932
11
4.067
21
-0.93
0
LINE
8
CYAN2
6
CONTINUOUS
10
4.067
20
-0.93
11
4.074
21
-0.93
0
LINE
8
CYAN2
6
CONTINUOUS
10
4.074
20
-0.93
11
4.079
21
-0.932
0
LINE
8
CYAN2
6
CONTINUOUS
10
4.079
20
-0.932
11
4.082
21
-0.937
0
LINE
8
CYAN2
6
CONTINUOUS
10
4.082
20
-0.937
11
4.082
21
-0.963
0
LINE
8
RED2
6
CONTINUOUS
10
3.5
20
-1.06
11
3.5
21
-1.14
0
LINE
8
RED2
6
CONTINUOUS
10
3.5
20
-1.14
11
3.7
21
-1.14
0
LINE
8
RED2
6
CONTINUOUS
10
3.7
20
-1.14
11
3.7
21
-1.06
0
LINE
8
RED2
6
CONTINUOUS
10
3.7
20
-1.06
11
3.5
21
-1.06
0
LINE
8
RED2
6
CONTINUOUS
10
3.7
20
-1.1
11
3.75
21
-1.1
0
LINE
8
RED2
6
CONTINUOUS
10
3.5
20
-1.1
11
3.45
21
-1.1
0
LINE
8
CYAN2
6
CONTINUOUS
10
3.591
20
-0.917
11
3.575
21
-0.893
0
LINE
8
CYAN2
6
CONTINUOUS
10
3.563
20
-0.917
11
3.563
21
-0.867
0
LINE
8
CYAN2
6
CONTINUOUS
10
3.563
20
-0.867
11
3.582
21
-0.867
0
LINE
8
CYAN2
6
CONTINUOUS
10
3.582
20
-0.867
11
3.586
21
-0.87
0
LINE
8
CYAN2
6
CONTINUOUS
10
3.586
20
-0.87
11
3.589
21
-0.872
0
LINE
8
CYAN2
6
CONTINUOUS
10
3.589
20
-0.872
11
3.591
21
-0.877
0
LINE
8
CYAN2
6
CONTINUOUS
10
3.591
20
-0.877
11
3.591
21
-0.884
0
LINE
8
CYAN2
6
CONTINUOUS
10
3.591
20
-0.884
11
3.589
21
-0.889
0
LINE
8
CYAN2
6
CONTINUOUS
10
3.589
20
-0.889
11
3.586
21
-0.891
0
LINE
8
CYAN2
6
CONTINUOUS
10
3.586
20
-0.891
11
3.582
21
-0.893
0
LINE
8
CYAN2
6
CONTINUOUS
10
3.582
20
-0.893
11
3.563
21
-0.893
0
LINE
8
CYAN2
6
CONTINUOUS
10
3.608
20
-0.867
11
3.639
21
-0.867
0
LINE
8
CYAN2
6
CONTINUOUS
10
3.639
20
-0.867
11
3.622
21
-0.886
0
LINE
8
CYAN2
6
CONTINUOUS
10
3.622
20
-0.886
11
3.629
21
-0.886
0
LINE
8
CYAN2
6
CONTINUOUS
10
3.629
20
-0.886
11
3.634
21
-0.889
0
LINE
8
CYAN2
6
CONTINUOUS
10
3.634
20
-0.889
11
3.636
21
-0.891
0
LINE
8
CYAN2
6
CONTINUOUS
10
3.636
20
-0.891
11
3.639
21
-0.896
0
LINE
8
CYAN2
6
CONTINUOUS
10
3.639
20
-0.896
11
3.639
21
-0.908
0
LINE
8
CYAN2
6
CONTINUOUS
10
3.639
20
-0.908
11
3.636
21
-0.912
0
LINE
8
CYAN2
6
CONTINUOUS
10
3.636
20
-0.912
11
3.634
21
-0.915
0
LINE
8
CYAN2
6
CONTINUOUS
10
3.634
20
-0.915
11
3.629
21
-0.917
0
LINE
8
CYAN2
6
CONTINUOUS
10
3.629
20
-0.917
11
3.615
21
-0.917
0
LINE
8
CYAN2
6
CONTINUOUS
10
3.615
20
-0.917
11
3.61
21
-0.915
0
LINE
8
CYAN2
6
CONTINUOUS
10
3.61
20
-0.915
11
3.608
21
-0.912
0
LINE
8
CYAN2
6
CONTINUOUS
10
3.566
20
-1.008
11
3.538
21
-1.008
0
LINE
8
CYAN2
6
CONTINUOUS
10
3.552
20
-1.008
11
3.552
21
-0.958
0
LINE
8
CYAN2
6
CONTINUOUS
10
3.552
20
-0.958
11
3.547
21
-0.965
0
LINE
8
CYAN2
6
CONTINUOUS
10
3.547
20
-0.965
11
3.542
21
-0.97
0
LINE
8
CYAN2
6
CONTINUOUS
10
3.542
20
-0.97
11
3.538
21
-0.972
0
LINE
8
CYAN2
6
CONTINUOUS
10
3.597
20
-0.958
11
3.602
21
-0.958
0
LINE
8
CYAN2
6
CONTINUOUS
10
3.602
20
-0.958
11
3.607
21
-0.961
0
LINE
8
CYAN2
6
CONTINUOUS
10
3.607
20
-0.961
11
3.609
21
-0.963
0
LINE
8
CYAN2
6
CONTINUOUS
10
3.609
20
-0.963
11
3.611
21
-0.968
0
LINE
8
CYAN2
6
CONTINUOUS
10
3.611
20
-0.968
11
3.614
21
-0.977
0
LINE
8
CYAN2
6
CONTINUOUS
10
3.614
20
-0.977
11
3.614
21
-0.989
0
LINE
8
CYAN2
6
CONTINUOUS
10
3.614
20
-0.989
11
3.611
21
-0.999
0
LINE
8
CYAN2
6
CONTINUOUS
10
3.611
20
-0.999
11
3.609
21
-1.003
0
LINE
8
CYAN2
6
CONTINUOUS
10
3.609
20
-1.003
11
3.607
21
-1.006
0
LINE
8
CYAN2
6
CONTINUOUS
10
3.607
20
-1.006
11
3.602
21
-1.008
0
LINE
8
CYAN2
6
CONTINUOUS
10
3.602
20
-1.008
11
3.597
21
-1.008
0
LINE
8
CYAN2
6
CONTINUOUS
10
3.597
20
-1.008
11
3.592
21
-1.006
0
LINE
8
CYAN2
6
CONTINUOUS
10
3.592
20
-1.006
11
3.59
21
-1.003
0
LINE
8
CYAN2
6
CONTINUOUS
10
3.59
20
-1.003
11
3.588
21
-0.999
0
LINE
8
CYAN2
6
CONTINUOUS
10
3.588
20
-0.999
11
3.585
21
-0.989
0
LINE
8
CYAN2
6
CONTINUOUS
10
3.585
20
-0.989
11
3.585
21
-0.977
0
LINE
8
CYAN2
6
CONTINUOUS
10
3.585
20
-0.977
11
3.588
21
-0.968
0
LINE
8
CYAN2
6
CONTINUOUS
10
3.588
20
-0.968
11
3.59
21
-0.963
0
LINE
8
CYAN2
6
CONTINUOUS
10
3.59
20
-0.963
11
3.592
21
-0.961
0
LINE
8
CYAN2
6
CONTINUOUS
10
3.592
20
-0.961
11
3.597
21
-0.958
0
LINE
8
CYAN2
6
CONTINUOUS
10
3.645
20
-0.958
11
3.65
21
-0.958
0
LINE
8
CYAN2
6
CONTINUOUS
10
3.65
20
-0.958
11
3.654
21
-0.961
0
LINE
8
CYAN2
6
CONTINUOUS
10
3.654
20
-0.961
11
3.657
21
-0.963
0
LINE
8
CYAN2
6
CONTINUOUS
10
3.657
20
-0.963
11
3.659
21
-0.968
0
LINE
8
CYAN2
6
CONTINUOUS
10
3.659
20
-0.968
11
3.661
21
-0.977
0
LINE
8
CYAN2
6
CONTINUOUS
10
3.661
20
-0.977
11
3.661
21
-0.989
0
LINE
8
CYAN2
6
CONTINUOUS
10
3.661
20
-0.989
11
3.659
21
-0.999
0
LINE
8
CYAN2
6
CONTINUOUS
10
3.659
20
-0.999
11
3.657
21
-1.003
0
LINE
8
CYAN2
6
CONTINUOUS
10
3.657
20
-1.003
11
3.654
21
-1.006
0
LINE
8
CYAN2
6
CONTINUOUS
10
3.654
20
-1.006
11
3.65
21
-1.008
0
LINE
8
CYAN2
6
CONTINUOUS
10
3.65
20
-1.008
11
3.645
21
-1.008
0
LINE
8
CYAN2
6
CONTINUOUS
10
3.645
20
-1.008
11
3.64
21
-1.006
0
LINE
8
CYAN2
6
CONTINUOUS
10
3.64
20
-1.006
11
3.638
21
-1.003
0
LINE
8
CYAN2
6
CONTINUOUS
10
3.638
20
-1.003
11
3.635
21
-0.999
0
LINE
8
CYAN2
6
CONTINUOUS
10
3.635
20
-0.999
11
3.633
21
-0.989
0
LINE
8
CYAN2
6
CONTINUOUS
10
3.633
20
-0.989
11
3.633
21
-0.977
0
LINE
8
CYAN2
6
CONTINUOUS
10
3.633
20
-0.977
11
3.635
21
-0.968
0
LINE
8
CYAN2
6
CONTINUOUS
10
3.635
20
-0.968
11
3.638
21
-0.963
0
LINE
8
CYAN2
6
CONTINUOUS
10
3.638
20
-0.963
11
3.64
21
-0.961
0
LINE
8
CYAN2
6
CONTINUOUS
10
3.64
20
-0.961
11
3.645
21
-0.958
0
LINE
8
RED2
6
CONTINUOUS
10
3.76
20
-1.4
11
3.76
21
-1.2
0
LINE
8
RED2
6
CONTINUOUS
10
3.76
20
-1.2
11
3.84
21
-1.2
0
LINE
8
RED2
6
CONTINUOUS
10
3.84
20
-1.2
11
3.84
21
-1.4
0
LINE
8
RED2
6
CONTINUOUS
10
3.84
20
-1.4
11
3.76
21
-1.4
0
LINE
8
RED2
6
CONTINUOUS
10
3.8
20
-1.2
11
3.8
21
-1.15
0
LINE
8
RED2
6
CONTINUOUS
10
3.8
20
-1.4
11
3.8
21
-1.45
0
LINE
8
CYAN2
6
CONTINUOUS
10
3.913
20
-1.278
11
3.897
21
-1.254
0
LINE
8
CYAN2
6
CONTINUOUS
10
3.885
20
-1.278
11
3.885
21
-1.228
0
LINE
8
CYAN2
6
CONTINUOUS
10
3.885
20
-1.228
11
3.904
21
-1.228
0
LINE
8
CYAN2
6
CONTINUOUS
10
3.904
20
-1.228
11
3.908
21
-1.231
0
LINE
8
CYAN2
6
CONTINUOUS
10
3.908
20
-1.231
11
3.911
21
-1.233
0
LINE
8
CYAN2
6
CONTINUOUS
10
3.911
20
-1.233
11
3.913
21
-1.238
0
LINE
8
CYAN2
6
CONTINUOUS
10
3.913
20
-1.238
11
3.913
21
-1.245
0
LINE
8
CYAN2
6
CONTINUOUS
10
3.913
20
-1.245
11
3.911
21
-1.25
0
LINE
8
CYAN2
6
CONTINUOUS
10
3.911
20
-1.25
11
3.908
21
-1.252
0
LINE
8
CYAN2
6
CONTINUOUS
10
3.908
20
-1.252
11
3.904
21
-1.254
0
LINE
8
CYAN2
6
CONTINUOUS
10
3.904
20
-1.254
11
3.885
21
-1.254
0
LINE
8
CYAN2
6
CONTINUOUS
10
3.956
20
-1.245
11
3.956
21
-1.278
0
LINE
8
CYAN2
6
CONTINUOUS
10
3.944
20
-1.226
11
3.932
21
-1.261
0
LINE
8
CYAN2
6
CONTINUOUS
10
3.932
20
-1.261
11
3.963
21
-1.261
0
LINE
8
CYAN2
6
CONTINUOUS
10
3.91
20
-1.369
11
3.882
21
-1.369
0
LINE
8
CYAN2
6
CONTINUOUS
10
3.896
20
-1.369
11
3.896
21
-1.319
0
LINE
8
CYAN2
6
CONTINUOUS
10
3.896
20
-1.319
11
3.891
21
-1.326
0
LINE
8
CYAN2
6
CONTINUOUS
10
3.891
20
-1.326
11
3.886
21
-1.331
0
LINE
8
CYAN2
6
CONTINUOUS
10
3.886
20
-1.331
11
3.882
21
-1.333
0
LINE
8
CYAN2
6
CONTINUOUS
10
3.941
20
-1.319
11
3.946
21
-1.319
0
LINE
8
CYAN2
6
CONTINUOUS
10
3.946
20
-1.319
11
3.951
21
-1.322
0
LINE
8
CYAN2
6
CONTINUOUS
10
3.951
20
-1.322
11
3.953
21
-1.324
0
LINE
8
CYAN2
6
CONTINUOUS
10
3.953
20
-1.324
11
3.955
21
-1.329
0
LINE
8
CYAN2
6
CONTINUOUS
10
3.955
20
-1.329
11
3.958
21
-1.338
0
LINE
8
CYAN2
6
CONTINUOUS
10
3.958
20
-1.338
11
3.958
21
-1.35
0
LINE
8
CYAN2
6
CONTINUOUS
10
3.958
20
-1.35
11
3.955
21
-1.36
0
LINE
8
CYAN2
6
CONTINUOUS
10
3.955
20
-1.36
11
3.953
21
-1.364
0
LINE
8
CYAN2
6
CONTINUOUS
10
3.953
20
-1.364
11
3.951
21
-1.367
0
LINE
8
CYAN2
6
CONTINUOUS
10
3.951
20
-1.367
11
3.946
21
-1.369
0
LINE
8
CYAN2
6
CONTINUOUS
10
3.946
20
-1.369
11
3.941
21
-1.369
0
LINE
8
CYAN2
6
CONTINUOUS
10
3.941
20
-1.369
11
3.936
21
-1.367
0
LINE
8
CYAN2
6
CONTINUOUS
10
3.936
20
-1.367
11
3.934
21
-1.364
0
LINE
8
CYAN2
6
CONTINUOUS
10
3.934
20
-1.364
11
3.932
21
-1.36
0
LINE
8
CYAN2
6
CONTINUOUS
10
3.932
20
-1.36
11
3.929
21
-1.35
0
LINE
8
CYAN2
6
CONTINUOUS
10
3.929
20
-1.35
11
3.929
21
-1.338
0
LINE
8
CYAN2
6
CONTINUOUS
10
3.929
20
-1.338
11
3.932
21
-1.329
0
LINE
8
CYAN2
6
CONTINUOUS
10
3.932
20
-1.329
11
3.934
21
-1.324
0
LINE
8
CYAN2
6
CONTINUOUS
10
3.934
20
-1.324
11
3.936
21
-1.322
0
LINE
8
CYAN2
6
CONTINUOUS
10
3.936
20
-1.322
11
3.941
21
-1.319
0
LINE
8
CYAN2
6
CONTINUOUS
10
3.989
20
-1.319
11
3.994
21
-1.319
0
LINE
8
CYAN2
6
CONTINUOUS
10
3.994
20
-1.319
11
3.998
21
-1.322
0
LINE
8
CYAN2
6
CONTINUOUS
10
3.998
20
-1.322
11
4.001
21
-1.324
0
LINE
8
CYAN2
6
CONTINUOUS
10
4.001
20
-1.324
11
4.003
21
-1.329
0
LINE
8
CYAN2
6
CONTINUOUS
10
4.003
20
-1.329
11
4.005
21
-1.338
0
LINE
8
CYAN2
6
CONTINUOUS
10
4.005
20
-1.338
11
4.005
21
-1.35
0
LINE
8
CYAN2
6
CONTINUOUS
10
4.005
20
-1.35
11
4.003
21
-1.36
0
LINE
8
CYAN2
6
CONTINUOUS
10
4.003
20
-1.36
11
4.001
21
-1.364
0
LINE
8
CYAN2
6
CONTINUOUS
10
4.001
20
-1.364
11
3.998
21
-1.367
0
LINE
8
CYAN2
6
CONTINUOUS
10
3.998
20
-1.367
11
3.994
21
-1.369
0
LINE
8
CYAN2
6
CONTINUOUS
10
3.994
20
-1.369
11
3.989
21
-1.369
0
LINE
8
CYAN2
6
CONTINUOUS
10
3.989
20
-1.369
11
3.984
21
-1.367
0
LINE
8
CYAN2
6
CONTINUOUS
10
3.984
20
-1.367
11
3.982
21
-1.364
0
LINE
8
CYAN2
6
CONTINUOUS
10
3.982
20
-1.364
11
3.979
21
-1.36
0
LINE
8
CYAN2
6
CONTINUOUS
10
3.979
20
-1.36
11
3.977
21
-1.35
0
LINE
8
CYAN2
6
CONTINUOUS
10
3.977
20
-1.35
11
3.977
21
-1.338
0
LINE
8
CYAN2
6
CONTINUOUS
10
3.977
20
-1.338
11
3.979
21
-1.329
0
LINE
8
CYAN2
6
CONTINUOUS
10
3.979
20
-1.329
11
3.982
21
-1.324
0
LINE
8
CYAN2
6
CONTINUOUS
10
3.982
20
-1.324
11
3.984
21
-1.322
0
LINE
8
CYAN2
6
CONTINUOUS
10
3.984
20
-1.322
11
3.989
21
-1.319
0
LINE
8
RED2
6
CONTINUOUS
10
3.8
20
-1.55
11
3.8
21
-1.6
0
LINE
8
RED2
6
CONTINUOUS
10
3.8
20
-1.6
11
3.85
21
-1.6
0
LINE
8
RED2
6
CONTINUOUS
10
3.85
20
-1.6
11
3.8
21
-1.65
0
LINE
8
RED2
6
CONTINUOUS
10
3.8
20
-1.65
11
3.75
21
-1.6
0
LINE
8
RED2
6
CONTINUOUS
10
3.75
20
-1.6
11
3.8
21
-1.6
0
LINE
8
CYAN2
6
CONTINUOUS
10
3.766
20
-1.7
11
3.762
21
-1.697
0
LINE
8
CYAN2
6
CONTINUOUS
10
3.762
20
-1.697
11
3.755
21
-1.697
0
LINE
8
CYAN2
6
CONTINUOUS
10
3.755
20
-1.697
11
3.747
21
-1.7
0
LINE
8
CYAN2
6
CONTINUOUS
10
3.747
20
-1.7
11
3.743
21
-1.704
0
LINE
8
CYAN2
6
CONTINUOUS
10
3.743
20
-1.704
11
3.74
21
-1.709
0
LINE
8
CYAN2
6
CONTINUOUS
10
3.74
20
-1.709
11
3.738
21
-1.719
0
LINE
8
CYAN2
6
CONTINUOUS
10
3.738
20
-1.719
11
3.738
21
-1.726
0
LINE
8
CYAN2
6
CONTINUOUS
10
3.738
20
-1.726
11
3.74
21
-1.735
0
LINE
8
CYAN2
6
CONTINUOUS
10
3.74
20
-1.735
11
3.743
21
-1.74
0
LINE
8
CYAN2
6
CONTINUOUS
10
3.743
20
-1.74
11
3.747
21
-1.745
0
LINE
8
CYAN2
6
CONTINUOUS
10
3.747
20
-1.745
11
3.755
21
-1.747
0
LINE
8
CYAN2
6
CONTINUOUS
10
3.755
20
-1.747
11
3.759
21
-1.747
0
LINE
8
CYAN2
6
CONTINUOUS
10
3.759
20
-1.747
11
3.766
21
-1.745
0
LINE
8
CYAN2
6
CONTINUOUS
10
3.766
20
-1.745
11
3.769
21
-1.742
0
LINE
8
CYAN2
6
CONTINUOUS
10
3.769
20
-1.742
11
3.769
21
-1.726
0
LINE
8
CYAN2
6
CONTINUOUS
10
3.769
20
-1.726
11
3.759
21
-1.726
0
LINE
8
CYAN2
6
CONTINUOUS
10
3.79
20
-1.747
11
3.79
21
-1.697
0
LINE
8
CYAN2
6
CONTINUOUS
10
3.79
20
-1.697
11
3.819
21
-1.747
0
LINE
8
CYAN2
6
CONTINUOUS
10
3.819
20
-1.747
11
3.819
21
-1.697
0
LINE
8
CYAN2
6
CONTINUOUS
10
3.843
20
-1.747
11
3.843
21
-1.697
0
LINE
8
CYAN2
6
CONTINUOUS
10
3.843
20
-1.697
11
3.855
21
-1.697
0
LINE
8
CYAN2
6
CONTINUOUS
10
3.855
20
-1.697
11
3.862
21
-1.7
0
LINE
8
CYAN2
6
CONTINUOUS
10
3.862
20
-1.7
11
3.866
21
-1.704
0
LINE
8
CYAN2
6
CONTINUOUS
10
3.866
20
-1.704
11
3.869
21
-1.709
0
LINE
8
CYAN2
6
CONTINUOUS
10
3.869
20
-1.709
11
3.871
21
-1.719
0
LINE
8
CYAN2
6
CONTINUOUS
10
3.871
20
-1.719
11
3.871
21
-1.726
0
LINE
8
CYAN2
6
CONTINUOUS
10
3.871
20
-1.726
11
3.869
21
-1.735
0
LINE
8
CYAN2
6
CONTINUOUS
10
3.869
20
-1.735
11
3.866
21
-1.74
0
LINE
8
CYAN2
6
CONTINUOUS
10
3.866
20
-1.74
11
3.862
21
-1.745
0
LINE
8
CYAN2
6
CONTINUOUS
10
3.862
20
-1.745
11
3.855
21
-1.747
0
LINE
8
CYAN2
6
CONTINUOUS
10
3.855
20
-1.747
11
3.843
21
-1.747
0
LINE
8
RED2
6
CONTINUOUS
10
3.17
20
-1.02
11
3.17
21
-1.18
0
LINE
8
RED2
6
CONTINUOUS
10
3.23
20
-1.02
11
3.23
21
-1.18
0
LINE
8
RED2
6
CONTINUOUS
10
3.24
20
-1.1
11
3.35
21
-1.1
0
LINE
8
RED2
6
CONTINUOUS
10
3.16
20
-1.1
11
3.05
21
-1.1
0
LINE
8
CYAN2
6
CONTINUOUS
10
3.191
20
-0.867
11
3.189
21
-0.87
0
LINE
8
CYAN2
6
CONTINUOUS
10
3.189
20
-0.87
11
3.182
21
-0.872
0
LINE
8
CYAN2
6
CONTINUOUS
10
3.182
20
-0.872
11
3.177
21
-0.872
0
LINE
8
CYAN2
6
CONTINUOUS
10
3.177
20
-0.872
11
3.17
21
-0.87
0
LINE
8
CYAN2
6
CONTINUOUS
10
3.17
20
-0.87
11
3.165
21
-0.865
0
LINE
8
CYAN2
6
CONTINUOUS
10
3.165
20
-0.865
11
3.163
21
-0.86
0
LINE
8
CYAN2
6
CONTINUOUS
10
3.163
20
-0.86
11
3.16
21
-0.851
0
LINE
8
CYAN2
6
CONTINUOUS
10
3.16
20
-0.851
11
3.16
21
-0.844
0
LINE
8
CYAN2
6
CONTINUOUS
10
3.16
20
-0.844
11
3.163
21
-0.834
0
LINE
8
CYAN2
6
CONTINUOUS
10
3.163
20
-0.834
11
3.165
21
-0.829
0
LINE
8
CYAN2
6
CONTINUOUS
10
3.165
20
-0.829
11
3.17
21
-0.825
0
LINE
8
CYAN2
6
CONTINUOUS
10
3.17
20
-0.825
11
3.177
21
-0.822
0
LINE
8
CYAN2
6
CONTINUOUS
10
3.177
20
-0.822
11
3.182
21
-0.822
0
LINE
8
CYAN2
6
CONTINUOUS
10
3.182
20
-0.822
11
3.189
21
-0.825
0
LINE
8
CYAN2
6
CONTINUOUS
10
3.189
20
-0.825
11
3.191
21
-0.827
0
LINE
8
CYAN2
6
CONTINUOUS
10
3.239
20
-0.872
11
3.21
21
-0.872
0
LINE
8
CYAN2
6
CONTINUOUS
10
3.225
20
-0.872
11
3.225
21
-0.822
0
LINE
8
CYAN2
6
CONTINUOUS
10
3.225
20
-0.822
11
3.22
21
-0.829
0
LINE
8
CYAN2
6
CONTINUOUS
10
3.22
20
-0.829
11
3.215
21
-0.834
0
LINE
8
CYAN2
6
CONTINUOUS
10
3.215
20
-0.834
11
3.21
21
-0.836
0
LINE
8
CYAN2
6
CONTINUOUS
10
3.144
20
-0.963
11
3.115
21
-0.963
0
LINE
8
CYAN2
6
CONTINUOUS
10
3.129
20
-0.963
11
3.129
21
-0.913
0
LINE
8
CYAN2
6
CONTINUOUS
10
3.129
20
-0.913
11
3.125
21
-0.92
0
LINE
8
CYAN2
6
CONTINUOUS
10
3.125
20
-0.92
11
3.12
21
-0.925
0
LINE
8
CYAN2
6
CONTINUOUS
10
3.12
20
-0.925
11
3.115
21
-0.927
0
LINE
8
CYAN2
6
CONTINUOUS
10
3.175
20
-0.913
11
3.179
21
-0.913
0
LINE
8
CYAN2
6
CONTINUOUS
10
3.179
20
-0.913
11
3.184
21
-0.916
0
LINE
8
CYAN2
6
CONTINUOUS
10
3.184
20
-0.916
11
3.186
21
-0.918
0
LINE
8
CYAN2
6
CONTINUOUS
10
3.186
20
-0.918
11
3.189
21
-0.923
0
LINE
8
CYAN2
6
CONTINUOUS
10
3.189
20
-0.923
11
3.191
21
-0.932
0
LINE
8
CYAN2
6
CONTINUOUS
10
3.191
20
-0.932
11
3.191
21
-0.944
0
LINE
8
CYAN2
6
CONTINUOUS
10
3.191
20
-0.944
11
3.189
21
-0.954
0
LINE
8
CYAN2
6
CONTINUOUS
10
3.189
20
-0.954
11
3.186
21
-0.958
0
LINE
8
CYAN2
6
CONTINUOUS
10
3.186
20
-0.958
11
3.184
21
-0.961
0
LINE
8
CYAN2
6
CONTINUOUS
10
3.184
20
-0.961
11
3.179
21
-0.963
0
LINE
8
CYAN2
6
CONTINUOUS
10
3.179
20
-0.963
11
3.175
21
-0.963
0
LINE
8
CYAN2
6
CONTINUOUS
10
3.175
20
-0.963
11
3.17
21
-0.961
0
LINE
8
CYAN2
6
CONTINUOUS
10
3.17
20
-0.961
11
3.167
21
-0.958
0
LINE
8
CYAN2
6
CONTINUOUS
10
3.167
20
-0.958
11
3.165
21
-0.954
0
LINE
8
CYAN2
6
CONTINUOUS
10
3.165
20
-0.954
11
3.163
21
-0.944
0
LINE
8
CYAN2
6
CONTINUOUS
10
3.163
20
-0.944
11
3.163
21
-0.932
0
LINE
8
CYAN2
6
CONTINUOUS
10
3.163
20
-0.932
11
3.165
21
-0.923
0
LINE
8
CYAN2
6
CONTINUOUS
10
3.165
20
-0.923
11
3.167
21
-0.918
0
LINE
8
CYAN2
6
CONTINUOUS
10
3.167
20
-0.918
11
3.17
21
-0.916
0
LINE
8
CYAN2
6
CONTINUOUS
10
3.17
20
-0.916
11
3.175
21
-0.913
0
LINE
8
CYAN2
6
CONTINUOUS
10
3.222
20
-0.913
11
3.227
21
-0.913
0
LINE
8
CYAN2
6
CONTINUOUS
10
3.227
20
-0.913
11
3.232
21
-0.916
0
LINE
8
CYAN2
6
CONTINUOUS
10
3.232
20
-0.916
11
3.234
21
-0.918
0
LINE
8
CYAN2
6
CONTINUOUS
10
3.234
20
-0.918
11
3.236
21
-0.923
0
LINE
8
CYAN2
6
CONTINUOUS
10
3.236
20
-0.923
11
3.239
21
-0.932
0
LINE
8
CYAN2
6
CONTINUOUS
10
3.239
20
-0.932
11
3.239
21
-0.944
0
LINE
8
CYAN2
6
CONTINUOUS
10
3.239
20
-0.944
11
3.236
21
-0.954
0
LINE
8
CYAN2
6
CONTINUOUS
10
3.236
20
-0.954
11
3.234
21
-0.958
0
LINE
8
CYAN2
6
CONTINUOUS
10
3.234
20
-0.958
11
3.232
21
-0.961
0
LINE
8
CYAN2
6
CONTINUOUS
10
3.232
20
-0.961
11
3.227
21
-0.963
0
LINE
8
CYAN2
6
CONTINUOUS
10
3.227
20
-0.963
11
3.222
21
-0.963
0
LINE
8
CYAN2
6
CONTINUOUS
10
3.222
20
-0.963
11
3.217
21
-0.961
0
LINE
8
CYAN2
6
CONTINUOUS
10
3.217
20
-0.961
11
3.215
21
-0.958
0
LINE
8
CYAN2
6
CONTINUOUS
10
3.215
20
-0.958
11
3.213
21
-0.954
0
LINE
8
CYAN2
6
CONTINUOUS
10
3.213
20
-0.954
11
3.21
21
-0.944
0
LINE
8
CYAN2
6
CONTINUOUS
10
3.21
20
-0.944
11
3.21
21
-0.932
0
LINE
8
CYAN2
6
CONTINUOUS
10
3.21
20
-0.932
11
3.213
21
-0.923
0
LINE
8
CYAN2
6
CONTINUOUS
10
3.213
20
-0.923
11
3.215
21
-0.918
0
LINE
8
CYAN2
6
CONTINUOUS
10
3.215
20
-0.918
11
3.217
21
-0.916
0
LINE
8
CYAN2
6
CONTINUOUS
10
3.217
20
-0.916
11
3.222
21
-0.913
0
LINE
8
CYAN2
6
CONTINUOUS
10
3.26
20
-0.93
11
3.26
21
-0.963
0
LINE
8
CYAN2
6
CONTINUOUS
10
3.26
20
-0.935
11
3.263
21
-0.932
0
LINE
8
CYAN2
6
CONTINUOUS
10
3.263
20
-0.932
11
3.267
21
-0.93
0
LINE
8
CYAN2
6
CONTINUOUS
10
3.267
20
-0.93
11
3.274
21
-0.93
0
LINE
8
CYAN2
6
CONTINUOUS
10
3.274
20
-0.93
11
3.279
21
-0.932
0
LINE
8
CYAN2
6
CONTINUOUS
10
3.279
20
-0.932
11
3.282
21
-0.937
0
LINE
8
CYAN2
6
CONTINUOUS
10
3.282
20
-0.937
11
3.282
21
-0.963
0
LINE
8
GREEN2
6
CONTINUOUS
10
3.75
20
-1.1
11
3.8
21
-1.1
0
LINE
8
GREEN2
6
CONTINUOUS
10
3.8
20
-1.15
11
3.8
21
-1.1
0
LINE
8
GREEN2
6
CONTINUOUS
10
3.8
20
-1.1
11
3.85
21
-1.1
0
LINE
8
GREEN2
6
CONTINUOUS
10
3.8
20
-1.45
11
3.8
21
-1.55
0
LINE
8
GREEN2
6
CONTINUOUS
10
4.15
20
-1.1
11
4.25
21
-1.1
0
LINE
8
GREEN2
6
CONTINUOUS
10
3.35
20
-1.1
11
3.45
21
-1.1
0
LINE
8
GREEN2
6
CONTINUOUS
10
2.95
20
-1.1
11
3.05
21
-1.1
0
LINE
8
BROWN2
6
CONTINUOUS
10
2.658
20
-1.117
11
2.656
21
-1.12
0
LINE
8
BROWN2
6
CONTINUOUS
10
2.656
20
-1.12
11
2.648
21
-1.122
0
LINE
8
BROWN2
6
CONTINUOUS
10
2.648
20
-1.122
11
2.644
21
-1.122
0
LINE
8
BROWN2
6
CONTINUOUS
10
2.644
20
-1.122
11
2.637
21
-1.12
0
LINE
8
BROWN2
6
CONTINUOUS
10
2.637
20
-1.12
11
2.632
21
-1.115
0
LINE
8
BROWN2
6
CONTINUOUS
10
2.632
20
-1.115
11
2.629
21
-1.11
0
LINE
8
BROWN2
6
CONTINUOUS
10
2.629
20
-1.11
11
2.627
21
-1.101
0
LINE
8
BROWN2
6
CONTINUOUS
10
2.627
20
-1.101
11
2.627
21
-1.094
0
LINE
8
BROWN2
6
CONTINUOUS
10
2.627
20
-1.094
11
2.629
21
-1.084
0
LINE
8
BROWN2
6
CONTINUOUS
10
2.629
20
-1.084
11
2.632
21
-1.079
0
LINE
8
BROWN2
6
CONTINUOUS
10
2.632
20
-1.079
11
2.637
21
-1.075
0
LINE
8
BROWN2
6
CONTINUOUS
10
2.637
20
-1.075
11
2.644
21
-1.072
0
LINE
8
BROWN2
6
CONTINUOUS
10
2.644
20
-1.072
11
2.648
21
-1.072
0
LINE
8
BROWN2
6
CONTINUOUS
10
2.648
20
-1.072
11
2.656
21
-1.075
0
LINE
8
BROWN2
6
CONTINUOUS
10
2.656
20
-1.075
11
2.658
21
-1.077
0
LINE
8
BROWN2
6
CONTINUOUS
10
2.687
20
-1.122
11
2.682
21
-1.12
0
LINE
8
BROWN2
6
CONTINUOUS
10
2.682
20
-1.12
11
2.679
21
-1.115
0
LINE
8
BROWN2
6
CONTINUOUS
10
2.679
20
-1.115
11
2.679
21
-1.072
0
LINE
8
BROWN2
6
CONTINUOUS
10
2.706
20
-1.122
11
2.706
21
-1.072
0
LINE
8
BROWN2
6
CONTINUOUS
10
2.71
20
-1.103
11
2.725
21
-1.122
0
LINE
8
BROWN2
6
CONTINUOUS
10
2.725
20
-1.089
11
2.706
21
-1.108
0
LINE
8
BROWN2
6
CONTINUOUS
10
2.756
20
-1.072
11
2.76
21
-1.072
0
LINE
8
BROWN2
6
CONTINUOUS
10
2.76
20
-1.072
11
2.765
21
-1.075
0
LINE
8
BROWN2
6
CONTINUOUS
10
2.765
20
-1.075
11
2.767
21
-1.077
0
LINE
8
BROWN2
6
CONTINUOUS
10
2.767
20
-1.077
11
2.77
21
-1.082
0
LINE
8
BROWN2
6
CONTINUOUS
10
2.77
20
-1.082
11
2.772
21
-1.091
0
LINE
8
BROWN2
6
CONTINUOUS
10
2.772
20
-1.091
11
2.772
21
-1.103
0
LINE
8
BROWN2
6
CONTINUOUS
10
2.772
20
-1.103
11
2.77
21
-1.113
0
LINE
8
BROWN2
6
CONTINUOUS
10
2.77
20
-1.113
11
2.767
21
-1.117
0
LINE
8
BROWN2
6
CONTINUOUS
10
2.767
20
-1.117
11
2.765
21
-1.12
0
LINE
8
BROWN2
6
CONTINUOUS
10
2.765
20
-1.12
11
2.76
21
-1.122
0
LINE
8
BROWN2
6
CONTINUOUS
10
2.76
20
-1.122
11
2.756
21
-1.122
0
LINE
8
BROWN2
6
CONTINUOUS
10
2.756
20
-1.122
11
2.751
21
-1.12
0
LINE
8
BROWN2
6
CONTINUOUS
10
2.751
20
-1.12
11
2.748
21
-1.117
0
LINE
8
BROWN2
6
CONTINUOUS
10
2.748
20
-1.117
11
2.746
21
-1.113
0
LINE
8
BROWN2
6
CONTINUOUS
10
2.746
20
-1.113
11
2.744
21
-1.103
0
LINE
8
BROWN2
6
CONTINUOUS
10
2.744
20
-1.103
11
2.744
21
-1.091
0
LINE
8
BROWN2
6
CONTINUOUS
10
2.744
20
-1.091
11
2.746
21
-1.082
0
LINE
8
BROWN2
6
CONTINUOUS
10
2.746
20
-1.082
11
2.748
21
-1.077
0
LINE
8
BROWN2
6
CONTINUOUS
10
2.748
20
-1.077
11
2.751
21
-1.075
0
LINE
8
BROWN2
6
CONTINUOUS
10
2.751
20
-1.075
11
2.756
21
-1.072
0
LINE
8
BROWN2
6
CONTINUOUS
10
2.782
20
-1.127
11
2.82
21
-1.127
0
LINE
8
BROWN2
6
CONTINUOUS
10
2.848
20
-1.096
11
2.832
21
-1.096
0
LINE
8
BROWN2
6
CONTINUOUS
10
2.832
20
-1.122
11
2.832
21
-1.072
0
LINE
8
BROWN2
6
CONTINUOUS
10
2.832
20
-1.072
11
2.856
21
-1.072
0
LINE
8
BROWN2
6
CONTINUOUS
10
2.875
20
-1.122
11
2.875
21
-1.089
0
LINE
8
BROWN2
6
CONTINUOUS
10
2.875
20
-1.072
11
2.872
21
-1.075
0
LINE
8
BROWN2
6
CONTINUOUS
10
2.872
20
-1.075
11
2.875
21
-1.077
0
LINE
8
BROWN2
6
CONTINUOUS
10
2.875
20
-1.077
11
2.877
21
-1.075
0
LINE
8
BROWN2
6
CONTINUOUS
10
2.877
20
-1.075
11
2.875
21
-1.072
0
LINE
8
BROWN2
6
CONTINUOUS
10
2.875
20
-1.072
11
2.875
21
-1.077
0
LINE
8
BROWN2
6
CONTINUOUS
10
2.95
20
-1.1
11
2.925
21
-1.075
0
LINE
8
BROWN2
6
CONTINUOUS
10
2.925
20
-1.075
11
2.9
21
-1.075
0
LINE
8
BROWN2
6
CONTINUOUS
10
2.9
20
-1.075
11
2.9
21
-1.125
0
LINE
8
BROWN2
6
CONTINUOUS
10
2.9
20
-1.125
11
2.925
21
-1.125
0
LINE
8
BROWN2
6
CONTINUOUS
10
2.925
20
-1.125
11
2.95
21
-1.1
0
LINE
8
BROWN2
6
CONTINUOUS
10
4.353
20
-1.117
11
4.351
21
-1.12
0
LINE
8
BROWN2
6
CONTINUOUS
10
4.351
20
-1.12
11
4.343
21
-1.122
0
LINE
8
BROWN2
6
CONTINUOUS
10
4.343
20
-1.122
11
4.339
21
-1.122
0
LINE
8
BROWN2
6
CONTINUOUS
10
4.339
20
-1.122
11
4.332
21
-1.12
0
LINE
8
BROWN2
6
CONTINUOUS
10
4.332
20
-1.12
11
4.327
21
-1.115
0
LINE
8
BROWN2
6
CONTINUOUS
10
4.327
20
-1.115
11
4.324
21
-1.11
0
LINE
8
BROWN2
6
CONTINUOUS
10
4.324
20
-1.11
11
4.322
21
-1.101
0
LINE
8
BROWN2
6
CONTINUOUS
10
4.322
20
-1.101
11
4.322
21
-1.094
0
LINE
8
BROWN2
6
CONTINUOUS
10
4.322
20
-1.094
11
4.324
21
-1.084
0
LINE
8
BROWN2
6
CONTINUOUS
10
4.324
20
-1.084
11
4.327
21
-1.079
0
LINE
8
BROWN2
6
CONTINUOUS
10
4.327
20
-1.079
11
4.332
21
-1.075
0
LINE
8
BROWN2
6
CONTINUOUS
10
4.332
20
-1.075
11
4.339
21
-1.072
0
LINE
8
BROWN2
6
CONTINUOUS
10
4.339
20
-1.072
11
4.343
21
-1.072
0
LINE
8
BROWN2
6
CONTINUOUS
10
4.343
20
-1.072
11
4.351
21
-1.075
0
LINE
8
BROWN2
6
CONTINUOUS
10
4.351
20
-1.075
11
4.353
21
-1.077
0
LINE
8
BROWN2
6
CONTINUOUS
10
4.382
20
-1.122
11
4.377
21
-1.12
0
LINE
8
BROWN2
6
CONTINUOUS
10
4.377
20
-1.12
11
4.374
21
-1.115
0
LINE
8
BROWN2
6
CONTINUOUS
10
4.374
20
-1.115
11
4.374
21
-1.072
0
LINE
8
BROWN2
6
CONTINUOUS
10
4.401
20
-1.122
11
4.401
21
-1.072
0
LINE
8
BROWN2
6
CONTINUOUS
10
4.405
20
-1.103
11
4.42
21
-1.122
0
LINE
8
BROWN2
6
CONTINUOUS
10
4.42
20
-1.089
11
4.401
21
-1.108
0
LINE
8
BROWN2
6
CONTINUOUS
10
4.451
20
-1.072
11
4.455
21
-1.072
0
LINE
8
BROWN2
6
CONTINUOUS
10
4.455
20
-1.072
11
4.46
21
-1.075
0
LINE
8
BROWN2
6
CONTINUOUS
10
4.46
20
-1.075
11
4.463
21
-1.077
0
LINE
8
BROWN2
6
CONTINUOUS
10
4.463
20
-1.077
11
4.465
21
-1.082
0
LINE
8
BROWN2
6
CONTINUOUS
10
4.465
20
-1.082
11
4.467
21
-1.091
0
LINE
8
BROWN2
6
CONTINUOUS
10
4.467
20
-1.091
11
4.467
21
-1.103
0
LINE
8
BROWN2
6
CONTINUOUS
10
4.467
20
-1.103
11
4.465
21
-1.113
0
LINE
8
BROWN2
6
CONTINUOUS
10
4.465
20
-1.113
11
4.463
21
-1.117
0
LINE
8
BROWN2
6
CONTINUOUS
10
4.463
20
-1.117
11
4.46
21
-1.12
0
LINE
8
BROWN2
6
CONTINUOUS
10
4.46
20
-1.12
11
4.455
21
-1.122
0
LINE
8
BROWN2
6
CONTINUOUS
10
4.455
20
-1.122
11
4.451
21
-1.122
0
LINE
8
BROWN2
6
CONTINUOUS
10
4.451
20
-1.122
11
4.446
21
-1.12
0
LINE
8
BROWN2
6
CONTINUOUS
10
4.446
20
-1.12
11
4.443
21
-1.117
0
LINE
8
BROWN2
6
CONTINUOUS
10
4.443
20
-1.117
11
4.441
21
-1.113
0
LINE
8
BROWN2
6
CONTINUOUS
10
4.441
20
-1.113
11
4.439
21
-1.103
0
LINE
8
BROWN2
6
CONTINUOUS
10
4.439
20
-1.103
11
4.439
21
-1.091
0
LINE
8
BROWN2
6
CONTINUOUS
10
4.439
20
-1.091
11
4.441
21
-1.082
0
LINE
8
BROWN2
6
CONTINUOUS
10
4.441
20
-1.082
11
4.443
21
-1.077
0
LINE
8
BROWN2
6
CONTINUOUS
10
4.443
20
-1.077
11
4.446
21
-1.075
0
LINE
8
BROWN2
6
CONTINUOUS
10
4.446
20
-1.075
11
4.451
21
-1.072
0
LINE
8
BROWN2
6
CONTINUOUS
10
4.477
20
-1.127
11
4.515
21
-1.127
0
LINE
8
BROWN2
6
CONTINUOUS
10
4.543
20
-1.096
11
4.527
21
-1.096
0
LINE
8
BROWN2
6
CONTINUOUS
10
4.527
20
-1.122
11
4.527
21
-1.072
0
LINE
8
BROWN2
6
CONTINUOUS
10
4.527
20
-1.072
11
4.551
21
-1.072
0
LINE
8
BROWN2
6
CONTINUOUS
10
4.577
20
-1.122
11
4.572
21
-1.12
0
LINE
8
BROWN2
6
CONTINUOUS
10
4.572
20
-1.12
11
4.57
21
-1.117
0
LINE
8
BROWN2
6
CONTINUOUS
10
4.57
20
-1.117
11
4.567
21
-1.113
0
LINE
8
BROWN2
6
CONTINUOUS
10
4.567
20
-1.113
11
4.567
21
-1.098
0
LINE
8
BROWN2
6
CONTINUOUS
10
4.567
20
-1.098
11
4.57
21
-1.094
0
LINE
8
BROWN2
6
CONTINUOUS
10
4.57
20
-1.094
11
4.572
21
-1.091
0
LINE
8
BROWN2
6
CONTINUOUS
10
4.572
20
-1.091
11
4.577
21
-1.089
0
LINE
8
BROWN2
6
CONTINUOUS
10
4.577
20
-1.089
11
4.584
21
-1.089
0
LINE
8
BROWN2
6
CONTINUOUS
10
4.584
20
-1.089
11
4.589
21
-1.091
0
LINE
8
BROWN2
6
CONTINUOUS
10
4.589
20
-1.091
11
4.591
21
-1.094
0
LINE
8
BROWN2
6
CONTINUOUS
10
4.591
20
-1.094
11
4.593
21
-1.098
0
LINE
8
BROWN2
6
CONTINUOUS
10
4.593
20
-1.098
11
4.593
21
-1.113
0
LINE
8
BROWN2
6
CONTINUOUS
10
4.593
20
-1.113
11
4.591
21
-1.117
0
LINE
8
BROWN2
6
CONTINUOUS
10
4.591
20
-1.117
11
4.589
21
-1.12
0
LINE
8
BROWN2
6
CONTINUOUS
10
4.589
20
-1.12
11
4.584
21
-1.122
0
LINE
8
BROWN2
6
CONTINUOUS
10
4.584
20
-1.122
11
4.577
21
-1.122
0
LINE
8
BROWN2
6
CONTINUOUS
10
4.25
20
-1.1
11
4.275
21
-1.125
0
LINE
8
BROWN2
6
CONTINUOUS
10
4.275
20
-1.125
11
4.3
21
-1.125
0
LINE
8
BROWN2
6
CONTINUOUS
10
4.3
20
-1.125
11
4.3
21
-1.075
0
LINE
8
BROWN2
6
CONTINUOUS
10
4.3
20
-1.075
11
4.275
21
-1.075
0
LINE
8
BROWN2
6
CONTINUOUS
10
4.275
20
-1.075
11
4.25
21
-1.1
0
LINE
8
BLUE3
6
CONTINUOUS
10
7.014
20
-1.306
11
7.014
21
-1.256
0
LINE
8
BLUE3
6
CONTINUOUS
10
7.014
20
-1.256
11
7.043
21
-1.306
0
LINE
8
BLUE3
6
CONTINUOUS
10
7.043
20
-1.306
11
7.043
21
-1.256
0
LINE
8
BLUE3
6
CONTINUOUS
10
7.074
20
-1.306
11
7.069
21
-1.304
0
LINE
8
BLUE3
6
CONTINUOUS
10
7.069
20
-1.304
11
7.067
21
-1.301
0
LINE
8
BLUE3
6
CONTINUOUS
10
7.067
20
-1.301
11
7.064
21
-1.297
0
LINE
8
BLUE3
6
CONTINUOUS
10
7.064
20
-1.297
11
7.064
21
-1.282
0
LINE
8
BLUE3
6
CONTINUOUS
10
7.064
20
-1.282
11
7.067
21
-1.278
0
LINE
8
BLUE3
6
CONTINUOUS
10
7.067
20
-1.278
11
7.069
21
-1.275
0
LINE
8
BLUE3
6
CONTINUOUS
10
7.069
20
-1.275
11
7.074
21
-1.273
0
LINE
8
BLUE3
6
CONTINUOUS
10
7.074
20
-1.273
11
7.081
21
-1.273
0
LINE
8
BLUE3
6
CONTINUOUS
10
7.081
20
-1.273
11
7.086
21
-1.275
0
LINE
8
BLUE3
6
CONTINUOUS
10
7.086
20
-1.275
11
7.088
21
-1.278
0
LINE
8
BLUE3
6
CONTINUOUS
10
7.088
20
-1.278
11
7.091
21
-1.282
0
LINE
8
BLUE3
6
CONTINUOUS
10
7.091
20
-1.282
11
7.091
21
-1.297
0
LINE
8
BLUE3
6
CONTINUOUS
10
7.091
20
-1.297
11
7.088
21
-1.301
0
LINE
8
BLUE3
6
CONTINUOUS
10
7.088
20
-1.301
11
7.086
21
-1.304
0
LINE
8
BLUE3
6
CONTINUOUS
10
7.086
20
-1.304
11
7.081
21
-1.306
0
LINE
8
BLUE3
6
CONTINUOUS
10
7.081
20
-1.306
11
7.074
21
-1.306
0
LINE
8
BLUE3
6
CONTINUOUS
10
7.105
20
-1.273
11
7.124
21
-1.273
0
LINE
8
BLUE3
6
CONTINUOUS
10
7.112
20
-1.256
11
7.112
21
-1.299
0
LINE
8
BLUE3
6
CONTINUOUS
10
7.112
20
-1.299
11
7.114
21
-1.304
0
LINE
8
BLUE3
6
CONTINUOUS
10
7.114
20
-1.304
11
7.119
21
-1.306
0
LINE
8
BLUE3
6
CONTINUOUS
10
7.119
20
-1.306
11
7.124
21
-1.306
0
LINE
8
BLUE3
6
CONTINUOUS
10
7.162
20
-1.306
11
7.162
21
-1.28
0
LINE
8
BLUE3
6
CONTINUOUS
10
7.162
20
-1.28
11
7.16
21
-1.275
0
LINE
8
BLUE3
6
CONTINUOUS
10
7.16
20
-1.275
11
7.155
21
-1.273
0
LINE
8
BLUE3
6
CONTINUOUS
10
7.155
20
-1.273
11
7.145
21
-1.273
0
LINE
8
BLUE3
6
CONTINUOUS
10
7.145
20
-1.273
11
7.141
21
-1.275
0
LINE
8
BLUE3
6
CONTINUOUS
10
7.162
20
-1.304
11
7.157
21
-1.306
0
LINE
8
BLUE3
6
CONTINUOUS
10
7.157
20
-1.306
11
7.145
21
-1.306
0
LINE
8
BLUE3
6
CONTINUOUS
10
7.145
20
-1.306
11
7.141
21
-1.304
0
LINE
8
BLUE3
6
CONTINUOUS
10
7.141
20
-1.304
11
7.138
21
-1.299
0
LINE
8
BLUE3
6
CONTINUOUS
10
7.138
20
-1.299
11
7.138
21
-1.294
0
LINE
8
BLUE3
6
CONTINUOUS
10
7.138
20
-1.294
11
7.141
21
-1.289
0
LINE
8
BLUE3
6
CONTINUOUS
10
7.141
20
-1.289
11
7.145
21
-1.287
0
LINE
8
BLUE3
6
CONTINUOUS
10
7.145
20
-1.287
11
7.157
21
-1.287
0
LINE
8
BLUE3
6
CONTINUOUS
10
7.157
20
-1.287
11
7.162
21
-1.285
0
LINE
8
BLUE3
6
CONTINUOUS
10
7.224
20
-1.301
11
7.226
21
-1.304
0
LINE
8
BLUE3
6
CONTINUOUS
10
7.226
20
-1.304
11
7.224
21
-1.306
0
LINE
8
BLUE3
6
CONTINUOUS
10
7.224
20
-1.306
11
7.222
21
-1.304
0
LINE
8
BLUE3
6
CONTINUOUS
10
7.222
20
-1.304
11
7.224
21
-1.301
0
LINE
8
BLUE3
6
CONTINUOUS
10
7.224
20
-1.301
11
7.224
21
-1.306
0
LINE
8
BLUE3
6
CONTINUOUS
10
7.224
20
-1.275
11
7.226
21
-1.278
0
LINE
8
BLUE3
6
CONTINUOUS
10
7.226
20
-1.278
11
7.224
21
-1.28
0
LINE
8
BLUE3
6
CONTINUOUS
10
7.224
20
-1.28
11
7.222
21
-1.278
0
LINE
8
BLUE3
6
CONTINUOUS
10
7.222
20
-1.278
11
7.224
21
-1.275
0
LINE
8
BLUE3
6
CONTINUOUS
10
7.224
20
-1.275
11
7.224
21
-1.28
0
LINE
8
BLUE3
6
CONTINUOUS
10
7.286
20
-1.306
11
7.286
21
-1.256
0
LINE
8
BLUE3
6
CONTINUOUS
10
7.31
20
-1.306
11
7.31
21
-1.256
0
LINE
8
BLUE3
6
CONTINUOUS
10
7.31
20
-1.256
11
7.338
21
-1.306
0
LINE
8
BLUE3
6
CONTINUOUS
10
7.338
20
-1.306
11
7.338
21
-1.256
0
LINE
8
BLUE3
6
CONTINUOUS
10
7.35
20
-1.311
11
7.388
21
-1.311
0
LINE
8
BLUE3
6
CONTINUOUS
10
7.398
20
-1.292
11
7.422
21
-1.292
0
LINE
8
BLUE3
6
CONTINUOUS
10
7.393
20
-1.306
11
7.41
21
-1.256
0
LINE
8
BLUE3
6
CONTINUOUS
10
7.41
20
-1.256
11
7.426
21
-1.306
0
LINE
8
BLUE3
6
CONTINUOUS
10
7.522
20
-1.306
11
7.519
21
-1.306
0
LINE
8
BLUE3
6
CONTINUOUS
10
7.519
20
-1.306
11
7.514
21
-1.304
0
LINE
8
BLUE3
6
CONTINUOUS
10
7.514
20
-1.304
11
7.507
21
-1.297
0
LINE
8
BLUE3
6
CONTINUOUS
10
7.507
20
-1.297
11
7.495
21
-1.282
0
LINE
8
BLUE3
6
CONTINUOUS
10
7.495
20
-1.282
11
7.491
21
-1.275
0
LINE
8
BLUE3
6
CONTINUOUS
10
7.491
20
-1.275
11
7.488
21
-1.268
0
LINE
8
BLUE3
6
CONTINUOUS
10
7.488
20
-1.268
11
7.488
21
-1.263
0
LINE
8
BLUE3
6
CONTINUOUS
10
7.488
20
-1.263
11
7.491
21
-1.259
0
LINE
8
BLUE3
6
CONTINUOUS
10
7.491
20
-1.259
11
7.495
21
-1.256
0
LINE
8
BLUE3
6
CONTINUOUS
10
7.495
20
-1.256
11
7.498
21
-1.256
0
LINE
8
BLUE3
6
CONTINUOUS
10
7.498
20
-1.256
11
7.503
21
-1.259
0
LINE
8
BLUE3
6
CONTINUOUS
10
7.503
20
-1.259
11
7.505
21
-1.263
0
LINE
8
BLUE3
6
CONTINUOUS
10
7.505
20
-1.263
11
7.505
21
-1.266
0
LINE
8
BLUE3
6
CONTINUOUS
10
7.505
20
-1.266
11
7.503
21
-1.27
0
LINE
8
BLUE3
6
CONTINUOUS
10
7.503
20
-1.27
11
7.5
21
-1.273
0
LINE
8
BLUE3
6
CONTINUOUS
10
7.5
20
-1.273
11
7.486
21
-1.282
0
LINE
8
BLUE3
6
CONTINUOUS
10
7.486
20
-1.282
11
7.483
21
-1.285
0
LINE
8
BLUE3
6
CONTINUOUS
10
7.483
20
-1.285
11
7.481
21
-1.289
0
LINE
8
BLUE3
6
CONTINUOUS
10
7.481
20
-1.289
11
7.481
21
-1.297
0
LINE
8
BLUE3
6
CONTINUOUS
10
7.481
20
-1.297
11
7.483
21
-1.301
0
LINE
8
BLUE3
6
CONTINUOUS
10
7.483
20
-1.301
11
7.486
21
-1.304
0
LINE
8
BLUE3
6
CONTINUOUS
10
7.486
20
-1.304
11
7.491
21
-1.306
0
LINE
8
BLUE3
6
CONTINUOUS
10
7.491
20
-1.306
11
7.498
21
-1.306
0
LINE
8
BLUE3
6
CONTINUOUS
10
7.498
20
-1.306
11
7.503
21
-1.304
0
LINE
8
BLUE3
6
CONTINUOUS
10
7.503
20
-1.304
11
7.505
21
-1.301
0
LINE
8
BLUE3
6
CONTINUOUS
10
7.505
20
-1.301
11
7.512
21
-1.292
0
LINE
8
BLUE3
6
CONTINUOUS
10
7.512
20
-1.292
11
7.514
21
-1.285
0
LINE
8
BLUE3
6
CONTINUOUS
10
7.514
20
-1.285
11
7.514
21
-1.28
0
LINE
8
BLUE3
6
CONTINUOUS
10
7.581
20
-1.306
11
7.581
21
-1.256
0
LINE
8
BLUE3
6
CONTINUOUS
10
7.605
20
-1.306
11
7.605
21
-1.256
0
LINE
8
BLUE3
6
CONTINUOUS
10
7.605
20
-1.256
11
7.633
21
-1.306
0
LINE
8
BLUE3
6
CONTINUOUS
10
7.633
20
-1.306
11
7.633
21
-1.256
0
LINE
8
BLUE3
6
CONTINUOUS
10
7.645
20
-1.311
11
7.683
21
-1.311
0
LINE
8
BLUE3
6
CONTINUOUS
10
7.712
20
-1.28
11
7.719
21
-1.282
0
LINE
8
BLUE3
6
CONTINUOUS
10
7.719
20
-1.282
11
7.722
21
-1.285
0
LINE
8
BLUE3
6
CONTINUOUS
10
7.722
20
-1.285
11
7.724
21
-1.289
0
LINE
8
BLUE3
6
CONTINUOUS
10
7.724
20
-1.289
11
7.724
21
-1.297
0
LINE
8
BLUE3
6
CONTINUOUS
10
7.724
20
-1.297
11
7.722
21
-1.301
0
LINE
8
BLUE3
6
CONTINUOUS
10
7.722
20
-1.301
11
7.719
21
-1.304
0
LINE
8
BLUE3
6
CONTINUOUS
10
7.719
20
-1.304
11
7.714
21
-1.306
0
LINE
8
BLUE3
6
CONTINUOUS
10
7.714
20
-1.306
11
7.695
21
-1.306
0
LINE
8
BLUE3
6
CONTINUOUS
10
7.695
20
-1.306
11
7.695
21
-1.256
0
LINE
8
BLUE3
6
CONTINUOUS
10
7.695
20
-1.256
11
7.712
21
-1.256
0
LINE
8
BLUE3
6
CONTINUOUS
10
7.712
20
-1.256
11
7.717
21
-1.259
0
LINE
8
BLUE3
6
CONTINUOUS
10
7.717
20
-1.259
11
7.719
21
-1.261
0
LINE
8
BLUE3
6
CONTINUOUS
10
7.719
20
-1.261
11
7.722
21
-1.266
0
LINE
8
BLUE3
6
CONTINUOUS
10
7.722
20
-1.266
11
7.722
21
-1.27
0
LINE
8
BLUE3
6
CONTINUOUS
10
7.722
20
-1.27
11
7.719
21
-1.275
0
LINE
8
BLUE3
6
CONTINUOUS
10
7.719
20
-1.275
11
7.717
21
-1.278
0
LINE
8
BLUE3
6
CONTINUOUS
10
7.717
20
-1.278
11
7.712
21
-1.28
0
LINE
8
BLUE3
6
CONTINUOUS
10
7.712
20
-1.28
11
7.695
21
-1.28
0
LINE
8
BLUE3
6
CONTINUOUS
10
7.805
20
-1.306
11
7.805
21
-1.28
0
LINE
8
BLUE3
6
CONTINUOUS
10
7.805
20
-1.28
11
7.803
21
-1.275
0
LINE
8
BLUE3
6
CONTINUOUS
10
7.803
20
-1.275
11
7.798
21
-1.273
0
LINE
8
BLUE3
6
CONTINUOUS
10
7.798
20
-1.273
11
7.788
21
-1.273
0
LINE
8
BLUE3
6
CONTINUOUS
10
7.788
20
-1.273
11
7.783
21
-1.275
0
LINE
8
BLUE3
6
CONTINUOUS
10
7.805
20
-1.304
11
7.8
21
-1.306
0
LINE
8
BLUE3
6
CONTINUOUS
10
7.8
20
-1.306
11
7.788
21
-1.306
0
LINE
8
BLUE3
6
CONTINUOUS
10
7.788
20
-1.306
11
7.783
21
-1.304
0
LINE
8
BLUE3
6
CONTINUOUS
10
7.783
20
-1.304
11
7.781
21
-1.299
0
LINE
8
BLUE3
6
CONTINUOUS
10
7.781
20
-1.299
11
7.781
21
-1.294
0
LINE
8
BLUE3
6
CONTINUOUS
10
7.781
20
-1.294
11
7.783
21
-1.289
0
LINE
8
BLUE3
6
CONTINUOUS
10
7.783
20
-1.289
11
7.788
21
-1.287
0
LINE
8
BLUE3
6
CONTINUOUS
10
7.788
20
-1.287
11
7.8
21
-1.287
0
LINE
8
BLUE3
6
CONTINUOUS
10
7.8
20
-1.287
11
7.805
21
-1.285
0
LINE
8
BLUE3
6
CONTINUOUS
10
7.829
20
-1.306
11
7.829
21
-1.273
0
LINE
8
BLUE3
6
CONTINUOUS
10
7.829
20
-1.282
11
7.831
21
-1.278
0
LINE
8
BLUE3
6
CONTINUOUS
10
7.831
20
-1.278
11
7.833
21
-1.275
0
LINE
8
BLUE3
6
CONTINUOUS
10
7.833
20
-1.275
11
7.838
21
-1.273
0
LINE
8
BLUE3
6
CONTINUOUS
10
7.838
20
-1.273
11
7.843
21
-1.273
0
LINE
8
BLUE3
6
CONTINUOUS
10
7.879
20
-1.304
11
7.874
21
-1.306
0
LINE
8
BLUE3
6
CONTINUOUS
10
7.874
20
-1.306
11
7.864
21
-1.306
0
LINE
8
BLUE3
6
CONTINUOUS
10
7.864
20
-1.306
11
7.86
21
-1.304
0
LINE
8
BLUE3
6
CONTINUOUS
10
7.86
20
-1.304
11
7.857
21
-1.299
0
LINE
8
BLUE3
6
CONTINUOUS
10
7.857
20
-1.299
11
7.857
21
-1.28
0
LINE
8
BLUE3
6
CONTINUOUS
10
7.857
20
-1.28
11
7.86
21
-1.275
0
LINE
8
BLUE3
6
CONTINUOUS
10
7.86
20
-1.275
11
7.864
21
-1.273
0
LINE
8
BLUE3
6
CONTINUOUS
10
7.864
20
-1.273
11
7.874
21
-1.273
0
LINE
8
BLUE3
6
CONTINUOUS
10
7.874
20
-1.273
11
7.879
21
-1.275
0
LINE
8
BLUE3
6
CONTINUOUS
10
7.879
20
-1.275
11
7.881
21
-1.28
0
LINE
8
BLUE3
6
CONTINUOUS
10
7.881
20
-1.28
11
7.881
21
-1.285
0
LINE
8
BLUE3
6
CONTINUOUS
10
7.881
20
-1.285
11
7.857
21
-1.289
0
LINE
8
BLUE3
6
CONTINUOUS
10
7.941
20
-1.306
11
7.941
21
-1.256
0
LINE
8
BLUE3
6
CONTINUOUS
10
7.941
20
-1.275
11
7.945
21
-1.273
0
LINE
8
BLUE3
6
CONTINUOUS
10
7.945
20
-1.273
11
7.955
21
-1.273
0
LINE
8
BLUE3
6
CONTINUOUS
10
7.955
20
-1.273
11
7.96
21
-1.275
0
LINE
8
BLUE3
6
CONTINUOUS
10
7.96
20
-1.275
11
7.962
21
-1.278
0
LINE
8
BLUE3
6
CONTINUOUS
10
7.962
20
-1.278
11
7.964
21
-1.282
0
LINE
8
BLUE3
6
CONTINUOUS
10
7.964
20
-1.282
11
7.964
21
-1.297
0
LINE
8
BLUE3
6
CONTINUOUS
10
7.964
20
-1.297
11
7.962
21
-1.301
0
LINE
8
BLUE3
6
CONTINUOUS
10
7.962
20
-1.301
11
7.96
21
-1.304
0
LINE
8
BLUE3
6
CONTINUOUS
10
7.96
20
-1.304
11
7.955
21
-1.306
0
LINE
8
BLUE3
6
CONTINUOUS
10
7.955
20
-1.306
11
7.945
21
-1.306
0
LINE
8
BLUE3
6
CONTINUOUS
10
7.945
20
-1.306
11
7.941
21
-1.304
0
LINE
8
BLUE3
6
CONTINUOUS
10
7.986
20
-1.306
11
7.986
21
-1.273
0
LINE
8
BLUE3
6
CONTINUOUS
10
7.986
20
-1.256
11
7.983
21
-1.259
0
LINE
8
BLUE3
6
CONTINUOUS
10
7.983
20
-1.259
11
7.986
21
-1.261
0
LINE
8
BLUE3
6
CONTINUOUS
10
7.986
20
-1.261
11
7.988
21
-1.259
0
LINE
8
BLUE3
6
CONTINUOUS
10
7.988
20
-1.259
11
7.986
21
-1.256
0
LINE
8
BLUE3
6
CONTINUOUS
10
7.986
20
-1.256
11
7.986
21
-1.261
0
LINE
8
BLUE3
6
CONTINUOUS
10
8.031
20
-1.306
11
8.031
21
-1.28
0
LINE
8
BLUE3
6
CONTINUOUS
10
8.031
20
-1.28
11
8.029
21
-1.275
0
LINE
8
BLUE3
6
CONTINUOUS
10
8.029
20
-1.275
11
8.024
21
-1.273
0
LINE
8
BLUE3
6
CONTINUOUS
10
8.024
20
-1.273
11
8.014
21
-1.273
0
LINE
8
BLUE3
6
CONTINUOUS
10
8.014
20
-1.273
11
8.01
21
-1.275
0
LINE
8
BLUE3
6
CONTINUOUS
10
8.031
20
-1.304
11
8.026
21
-1.306
0
LINE
8
BLUE3
6
CONTINUOUS
10
8.026
20
-1.306
11
8.014
21
-1.306
0
LINE
8
BLUE3
6
CONTINUOUS
10
8.014
20
-1.306
11
8.01
21
-1.304
0
LINE
8
BLUE3
6
CONTINUOUS
10
8.01
20
-1.304
11
8.007
21
-1.299
0
LINE
8
BLUE3
6
CONTINUOUS
10
8.007
20
-1.299
11
8.007
21
-1.294
0
LINE
8
BLUE3
6
CONTINUOUS
10
8.007
20
-1.294
11
8.01
21
-1.289
0
LINE
8
BLUE3
6
CONTINUOUS
10
8.01
20
-1.289
11
8.014
21
-1.287
0
LINE
8
BLUE3
6
CONTINUOUS
10
8.014
20
-1.287
11
8.026
21
-1.287
0
LINE
8
BLUE3
6
CONTINUOUS
10
8.026
20
-1.287
11
8.031
21
-1.285
0
LINE
8
BLUE3
6
CONTINUOUS
10
8.053
20
-1.304
11
8.057
21
-1.306
0
LINE
8
BLUE3
6
CONTINUOUS
10
8.057
20
-1.306
11
8.067
21
-1.306
0
LINE
8
BLUE3
6
CONTINUOUS
10
8.067
20
-1.306
11
8.072
21
-1.304
0
LINE
8
BLUE3
6
CONTINUOUS
10
8.072
20
-1.304
11
8.074
21
-1.299
0
LINE
8
BLUE3
6
CONTINUOUS
10
8.074
20
-1.299
11
8.074
21
-1.297
0
LINE
8
BLUE3
6
CONTINUOUS
10
8.074
20
-1.297
11
8.072
21
-1.292
0
LINE
8
BLUE3
6
CONTINUOUS
10
8.072
20
-1.292
11
8.067
21
-1.289
0
LINE
8
BLUE3
6
CONTINUOUS
10
8.067
20
-1.289
11
8.06
21
-1.289
0
LINE
8
BLUE3
6
CONTINUOUS
10
8.06
20
-1.289
11
8.055
21
-1.287
0
LINE
8
BLUE3
6
CONTINUOUS
10
8.055
20
-1.287
11
8.053
21
-1.282
0
LINE
8
BLUE3
6
CONTINUOUS
10
8.053
20
-1.282
11
8.053
21
-1.28
0
LINE
8
BLUE3
6
CONTINUOUS
10
8.053
20
-1.28
11
8.055
21
-1.275
0
LINE
8
BLUE3
6
CONTINUOUS
10
8.055
20
-1.275
11
8.06
21
-1.273
0
LINE
8
BLUE3
6
CONTINUOUS
10
8.06
20
-1.273
11
8.067
21
-1.273
0
LINE
8
BLUE3
6
CONTINUOUS
10
8.067
20
-1.273
11
8.072
21
-1.275
0
LINE
8
BLUE3
6
CONTINUOUS
10
8.114
20
-1.304
11
8.11
21
-1.306
0
LINE
8
BLUE3
6
CONTINUOUS
10
8.11
20
-1.306
11
8.1
21
-1.306
0
LINE
8
BLUE3
6
CONTINUOUS
10
8.1
20
-1.306
11
8.095
21
-1.304
0
LINE
8
BLUE3
6
CONTINUOUS
10
8.095
20
-1.304
11
8.093
21
-1.299
0
LINE
8
BLUE3
6
CONTINUOUS
10
8.093
20
-1.299
11
8.093
21
-1.28
0
LINE
8
BLUE3
6
CONTINUOUS
10
8.093
20
-1.28
11
8.095
21
-1.275
0
LINE
8
BLUE3
6
CONTINUOUS
10
8.095
20
-1.275
11
8.1
21
-1.273
0
LINE
8
BLUE3
6
CONTINUOUS
10
8.1
20
-1.273
11
8.11
21
-1.273
0
LINE
8
BLUE3
6
CONTINUOUS
10
8.11
20
-1.273
11
8.114
21
-1.275
0
LINE
8
BLUE3
6
CONTINUOUS
10
8.114
20
-1.275
11
8.117
21
-1.28
0
LINE
8
BLUE3
6
CONTINUOUS
10
8.117
20
-1.28
11
8.117
21
-1.285
0
LINE
8
BLUE3
6
CONTINUOUS
10
8.117
20
-1.285
11
8.093
21
-1.289
0
LINE
8
BLUE3
6
CONTINUOUS
10
8.16
20
-1.306
11
8.16
21
-1.256
0
LINE
8
BLUE3
6
CONTINUOUS
10
8.16
20
-1.304
11
8.155
21
-1.306
0
LINE
8
BLUE3
6
CONTINUOUS
10
8.155
20
-1.306
11
8.145
21
-1.306
0
LINE
8
BLUE3
6
CONTINUOUS
10
8.145
20
-1.306
11
8.141
21
-1.304
0
LINE
8
BLUE3
6
CONTINUOUS
10
8.141
20
-1.304
11
8.138
21
-1.301
0
LINE
8
BLUE3
6
CONTINUOUS
10
8.138
20
-1.301
11
8.136
21
-1.297
0
LINE
8
BLUE3
6
CONTINUOUS
10
8.136
20
-1.297
11
8.136
21
-1.282
0
LINE
8
BLUE3
6
CONTINUOUS
10
8.136
20
-1.282
11
8.138
21
-1.278
0
LINE
8
BLUE3
6
CONTINUOUS
10
8.138
20
-1.278
11
8.141
21
-1.275
0
LINE
8
BLUE3
6
CONTINUOUS
10
8.141
20
-1.275
11
8.145
21
-1.273
0
LINE
8
BLUE3
6
CONTINUOUS
10
8.145
20
-1.273
11
8.155
21
-1.273
0
LINE
8
BLUE3
6
CONTINUOUS
10
8.155
20
-1.273
11
8.16
21
-1.275
0
LINE
8
BLUE3
6
CONTINUOUS
10
8.222
20
-1.306
11
8.222
21
-1.273
0
LINE
8
BLUE3
6
CONTINUOUS
10
8.222
20
-1.256
11
8.219
21
-1.259
0
LINE
8
BLUE3
6
CONTINUOUS
10
8.219
20
-1.259
11
8.222
21
-1.261
0
LINE
8
BLUE3
6
CONTINUOUS
10
8.222
20
-1.261
11
8.224
21
-1.259
0
LINE
8
BLUE3
6
CONTINUOUS
10
8.224
20
-1.259
11
8.222
21
-1.256
0
LINE
8
BLUE3
6
CONTINUOUS
10
8.222
20
-1.256
11
8.222
21
-1.261
0
LINE
8
BLUE3
6
CONTINUOUS
10
8.245
20
-1.273
11
8.245
21
-1.306
0
LINE
8
BLUE3
6
CONTINUOUS
10
8.245
20
-1.278
11
8.248
21
-1.275
0
LINE
8
BLUE3
6
CONTINUOUS
10
8.248
20
-1.275
11
8.253
21
-1.273
0
LINE
8
BLUE3
6
CONTINUOUS
10
8.253
20
-1.273
11
8.26
21
-1.273
0
LINE
8
BLUE3
6
CONTINUOUS
10
8.26
20
-1.273
11
8.264
21
-1.275
0
LINE
8
BLUE3
6
CONTINUOUS
10
8.264
20
-1.275
11
8.267
21
-1.28
0
LINE
8
BLUE3
6
CONTINUOUS
10
8.267
20
-1.28
11
8.267
21
-1.306
0
LINE
8
BLUE3
6
CONTINUOUS
10
8.283
20
-1.273
11
8.303
21
-1.273
0
LINE
8
BLUE3
6
CONTINUOUS
10
8.291
20
-1.256
11
8.291
21
-1.299
0
LINE
8
BLUE3
6
CONTINUOUS
10
8.291
20
-1.299
11
8.293
21
-1.304
0
LINE
8
BLUE3
6
CONTINUOUS
10
8.293
20
-1.304
11
8.298
21
-1.306
0
LINE
8
BLUE3
6
CONTINUOUS
10
8.298
20
-1.306
11
8.303
21
-1.306
0
LINE
8
BLUE3
6
CONTINUOUS
10
8.338
20
-1.304
11
8.333
21
-1.306
0
LINE
8
BLUE3
6
CONTINUOUS
10
8.333
20
-1.306
11
8.324
21
-1.306
0
LINE
8
BLUE3
6
CONTINUOUS
10
8.324
20
-1.306
11
8.319
21
-1.304
0
LINE
8
BLUE3
6
CONTINUOUS
10
8.319
20
-1.304
11
8.317
21
-1.299
0
LINE
8
BLUE3
6
CONTINUOUS
10
8.317
20
-1.299
11
8.317
21
-1.28
0
LINE
8
BLUE3
6
CONTINUOUS
10
8.317
20
-1.28
11
8.319
21
-1.275
0
LINE
8
BLUE3
6
CONTINUOUS
10
8.319
20
-1.275
11
8.324
21
-1.273
0
LINE
8
BLUE3
6
CONTINUOUS
10
8.324
20
-1.273
11
8.333
21
-1.273
0
LINE
8
BLUE3
6
CONTINUOUS
10
8.333
20
-1.273
11
8.338
21
-1.275
0
LINE
8
BLUE3
6
CONTINUOUS
10
8.338
20
-1.275
11
8.341
21
-1.28
0
LINE
8
BLUE3
6
CONTINUOUS
10
8.341
20
-1.28
11
8.341
21
-1.285
0
LINE
8
BLUE3
6
CONTINUOUS
10
8.341
20
-1.285
11
8.317
21
-1.289
0
LINE
8
BLUE3
6
CONTINUOUS
10
8.362
20
-1.306
11
8.362
21
-1.273
0
LINE
8
BLUE3
6
CONTINUOUS
10
8.362
20
-1.282
11
8.364
21
-1.278
0
LINE
8
BLUE3
6
CONTINUOUS
10
8.364
20
-1.278
11
8.367
21
-1.275
0
LINE
8
BLUE3
6
CONTINUOUS
10
8.367
20
-1.275
11
8.372
21
-1.273
0
LINE
8
BLUE3
6
CONTINUOUS
10
8.372
20
-1.273
11
8.376
21
-1.273
0
LINE
8
BLUE3
6
CONTINUOUS
10
8.393
20
-1.273
11
8.393
21
-1.306
0
LINE
8
BLUE3
6
CONTINUOUS
10
8.393
20
-1.278
11
8.395
21
-1.275
0
LINE
8
BLUE3
6
CONTINUOUS
10
8.395
20
-1.275
11
8.4
21
-1.273
0
LINE
8
BLUE3
6
CONTINUOUS
10
8.4
20
-1.273
11
8.407
21
-1.273
0
LINE
8
BLUE3
6
CONTINUOUS
10
8.407
20
-1.273
11
8.412
21
-1.275
0
LINE
8
BLUE3
6
CONTINUOUS
10
8.412
20
-1.275
11
8.414
21
-1.28
0
LINE
8
BLUE3
6
CONTINUOUS
10
8.414
20
-1.28
11
8.414
21
-1.306
0
LINE
8
BLUE3
6
CONTINUOUS
10
8.46
20
-1.306
11
8.46
21
-1.28
0
LINE
8
BLUE3
6
CONTINUOUS
10
8.46
20
-1.28
11
8.457
21
-1.275
0
LINE
8
BLUE3
6
CONTINUOUS
10
8.457
20
-1.275
11
8.453
21
-1.273
0
LINE
8
BLUE3
6
CONTINUOUS
10
8.453
20
-1.273
11
8.443
21
-1.273
0
LINE
8
BLUE3
6
CONTINUOUS
10
8.443
20
-1.273
11
8.438
21
-1.275
0
LINE
8
BLUE3
6
CONTINUOUS
10
8.46
20
-1.304
11
8.455
21
-1.306
0
LINE
8
BLUE3
6
CONTINUOUS
10
8.455
20
-1.306
11
8.443
21
-1.306
0
LINE
8
BLUE3
6
CONTINUOUS
10
8.443
20
-1.306
11
8.438
21
-1.304
0
LINE
8
BLUE3
6
CONTINUOUS
10
8.438
20
-1.304
11
8.436
21
-1.299
0
LINE
8
BLUE3
6
CONTINUOUS
10
8.436
20
-1.299
11
8.436
21
-1.294
0
LINE
8
BLUE3
6
CONTINUOUS
10
8.436
20
-1.294
11
8.438
21
-1.289
0
LINE
8
BLUE3
6
CONTINUOUS
10
8.438
20
-1.289
11
8.443
21
-1.287
0
LINE
8
BLUE3
6
CONTINUOUS
10
8.443
20
-1.287
11
8.455
21
-1.287
0
LINE
8
BLUE3
6
CONTINUOUS
10
8.455
20
-1.287
11
8.46
21
-1.285
0
LINE
8
BLUE3
6
CONTINUOUS
10
8.491
20
-1.306
11
8.486
21
-1.304
0
LINE
8
BLUE3
6
CONTINUOUS
10
8.486
20
-1.304
11
8.483
21
-1.299
0
LINE
8
BLUE3
6
CONTINUOUS
10
8.483
20
-1.299
11
8.483
21
-1.256
0
LINE
8
BLUE3
6
CONTINUOUS
10
8.517
20
-1.306
11
8.512
21
-1.304
0
LINE
8
BLUE3
6
CONTINUOUS
10
8.512
20
-1.304
11
8.51
21
-1.299
0
LINE
8
BLUE3
6
CONTINUOUS
10
8.51
20
-1.299
11
8.51
21
-1.256
0
LINE
8
BLUE3
6
CONTINUOUS
10
8.531
20
-1.273
11
8.543
21
-1.306
0
LINE
8
BLUE3
6
CONTINUOUS
10
8.555
20
-1.273
11
8.543
21
-1.306
0
LINE
8
BLUE3
6
CONTINUOUS
10
8.543
20
-1.306
11
8.538
21
-1.318
0
LINE
8
BLUE3
6
CONTINUOUS
10
8.538
20
-1.318
11
8.536
21
-1.32
0
LINE
8
BLUE3
6
CONTINUOUS
10
8.536
20
-1.32
11
8.531
21
-1.323
0
LINE
8
BLUE3
6
CONTINUOUS
10
8.576
20
-1.304
11
8.576
21
-1.306
0
LINE
8
BLUE3
6
CONTINUOUS
10
8.576
20
-1.306
11
8.574
21
-1.311
0
LINE
8
BLUE3
6
CONTINUOUS
10
8.574
20
-1.311
11
8.572
21
-1.313
0
LINE
8
BLUE3
6
CONTINUOUS
10
8.629
20
-1.256
11
8.657
21
-1.256
0
LINE
8
BLUE3
6
CONTINUOUS
10
8.643
20
-1.306
11
8.643
21
-1.256
0
LINE
8
BLUE3
6
CONTINUOUS
10
8.674
20
-1.306
11
8.674
21
-1.256
0
LINE
8
BLUE3
6
CONTINUOUS
10
8.695
20
-1.306
11
8.695
21
-1.28
0
LINE
8
BLUE3
6
CONTINUOUS
10
8.695
20
-1.28
11
8.693
21
-1.275
0
LINE
8
BLUE3
6
CONTINUOUS
10
8.693
20
-1.275
11
8.688
21
-1.273
0
LINE
8
BLUE3
6
CONTINUOUS
10
8.688
20
-1.273
11
8.681
21
-1.273
0
LINE
8
BLUE3
6
CONTINUOUS
10
8.681
20
-1.273
11
8.676
21
-1.275
0
LINE
8
BLUE3
6
CONTINUOUS
10
8.676
20
-1.275
11
8.674
21
-1.278
0
LINE
8
BLUE3
6
CONTINUOUS
10
8.738
20
-1.304
11
8.733
21
-1.306
0
LINE
8
BLUE3
6
CONTINUOUS
10
8.733
20
-1.306
11
8.724
21
-1.306
0
LINE
8
BLUE3
6
CONTINUOUS
10
8.724
20
-1.306
11
8.719
21
-1.304
0
LINE
8
BLUE3
6
CONTINUOUS
10
8.719
20
-1.304
11
8.717
21
-1.299
0
LINE
8
BLUE3
6
CONTINUOUS
10
8.717
20
-1.299
11
8.717
21
-1.28
0
LINE
8
BLUE3
6
CONTINUOUS
10
8.717
20
-1.28
11
8.719
21
-1.275
0
LINE
8
BLUE3
6
CONTINUOUS
10
8.719
20
-1.275
11
8.724
21
-1.273
0
LINE
8
BLUE3
6
CONTINUOUS
10
8.724
20
-1.273
11
8.733
21
-1.273
0
LINE
8
BLUE3
6
CONTINUOUS
10
8.733
20
-1.273
11
8.738
21
-1.275
0
LINE
8
BLUE3
6
CONTINUOUS
10
8.738
20
-1.275
11
8.741
21
-1.28
0
LINE
8
BLUE3
6
CONTINUOUS
10
8.741
20
-1.28
11
8.741
21
-1.285
0
LINE
8
BLUE3
6
CONTINUOUS
10
8.741
20
-1.285
11
8.717
21
-1.289
0
LINE
8
BLUE3
6
CONTINUOUS
10
8.757
20
-1.273
11
8.769
21
-1.306
0
LINE
8
BLUE3
6
CONTINUOUS
10
8.781
20
-1.273
11
8.769
21
-1.306
0
LINE
8
BLUE3
6
CONTINUOUS
10
8.769
20
-1.306
11
8.764
21
-1.318
0
LINE
8
BLUE3
6
CONTINUOUS
10
8.764
20
-1.318
11
8.762
21
-1.32
0
LINE
8
BLUE3
6
CONTINUOUS
10
8.762
20
-1.32
11
8.757
21
-1.323
0
LINE
8
BLUE3
6
CONTINUOUS
10
8.86
20
-1.306
11
8.86
21
-1.28
0
LINE
8
BLUE3
6
CONTINUOUS
10
8.86
20
-1.28
11
8.857
21
-1.275
0
LINE
8
BLUE3
6
CONTINUOUS
10
8.857
20
-1.275
11
8.853
21
-1.273
0
LINE
8
BLUE3
6
CONTINUOUS
10
8.853
20
-1.273
11
8.843
21
-1.273
0
LINE
8
BLUE3
6
CONTINUOUS
10
8.843
20
-1.273
11
8.838
21
-1.275
0
LINE
8
BLUE3
6
CONTINUOUS
10
8.86
20
-1.304
11
8.855
21
-1.306
0
LINE
8
BLUE3
6
CONTINUOUS
10
8.855
20
-1.306
11
8.843
21
-1.306
0
LINE
8
BLUE3
6
CONTINUOUS
10
8.843
20
-1.306
11
8.838
21
-1.304
0
LINE
8
BLUE3
6
CONTINUOUS
10
8.838
20
-1.304
11
8.836
21
-1.299
0
LINE
8
BLUE3
6
CONTINUOUS
10
8.836
20
-1.299
11
8.836
21
-1.294
0
LINE
8
BLUE3
6
CONTINUOUS
10
8.836
20
-1.294
11
8.838
21
-1.289
0
LINE
8
BLUE3
6
CONTINUOUS
10
8.838
20
-1.289
11
8.843
21
-1.287
0
LINE
8
BLUE3
6
CONTINUOUS
10
8.843
20
-1.287
11
8.855
21
-1.287
0
LINE
8
BLUE3
6
CONTINUOUS
10
8.855
20
-1.287
11
8.86
21
-1.285
0
LINE
8
BLUE3
6
CONTINUOUS
10
8.883
20
-1.306
11
8.883
21
-1.273
0
LINE
8
BLUE3
6
CONTINUOUS
10
8.883
20
-1.282
11
8.886
21
-1.278
0
LINE
8
BLUE3
6
CONTINUOUS
10
8.886
20
-1.278
11
8.888
21
-1.275
0
LINE
8
BLUE3
6
CONTINUOUS
10
8.888
20
-1.275
11
8.893
21
-1.273
0
LINE
8
BLUE3
6
CONTINUOUS
10
8.893
20
-1.273
11
8.898
21
-1.273
0
LINE
8
BLUE3
6
CONTINUOUS
10
8.933
20
-1.304
11
8.929
21
-1.306
0
LINE
8
BLUE3
6
CONTINUOUS
10
8.929
20
-1.306
11
8.919
21
-1.306
0
LINE
8
BLUE3
6
CONTINUOUS
10
8.919
20
-1.306
11
8.914
21
-1.304
0
LINE
8
BLUE3
6
CONTINUOUS
10
8.914
20
-1.304
11
8.912
21
-1.299
0
LINE
8
BLUE3
6
CONTINUOUS
10
8.912
20
-1.299
11
8.912
21
-1.28
0
LINE
8
BLUE3
6
CONTINUOUS
10
8.912
20
-1.28
11
8.914
21
-1.275
0
LINE
8
BLUE3
6
CONTINUOUS
10
8.914
20
-1.275
11
8.919
21
-1.273
0
LINE
8
BLUE3
6
CONTINUOUS
10
8.919
20
-1.273
11
8.929
21
-1.273
0
LINE
8
BLUE3
6
CONTINUOUS
10
8.929
20
-1.273
11
8.933
21
-1.275
0
LINE
8
BLUE3
6
CONTINUOUS
10
8.933
20
-1.275
11
8.936
21
-1.28
0
LINE
8
BLUE3
6
CONTINUOUS
10
8.936
20
-1.28
11
8.936
21
-1.285
0
LINE
8
BLUE3
6
CONTINUOUS
10
8.936
20
-1.285
11
8.912
21
-1.289
0
LINE
8
BLUE3
6
CONTINUOUS
10
8.993
20
-1.304
11
8.998
21
-1.306
0
LINE
8
BLUE3
6
CONTINUOUS
10
8.998
20
-1.306
11
9.007
21
-1.306
0
LINE
8
BLUE3
6
CONTINUOUS
10
9.007
20
-1.306
11
9.012
21
-1.304
0
LINE
8
BLUE3
6
CONTINUOUS
10
9.012
20
-1.304
11
9.014
21
-1.299
0
LINE
8
BLUE3
6
CONTINUOUS
10
9.014
20
-1.299
11
9.014
21
-1.297
0
LINE
8
BLUE3
6
CONTINUOUS
10
9.014
20
-1.297
11
9.012
21
-1.292
0
LINE
8
BLUE3
6
CONTINUOUS
10
9.012
20
-1.292
11
9.007
21
-1.289
0
LINE
8
BLUE3
6
CONTINUOUS
10
9.007
20
-1.289
11
9
21
-1.289
0
LINE
8
BLUE3
6
CONTINUOUS
10
9
20
-1.289
11
8.995
21
-1.287
0
LINE
8
BLUE3
6
CONTINUOUS
10
8.995
20
-1.287
11
8.993
21
-1.282
0
LINE
8
BLUE3
6
CONTINUOUS
10
8.993
20
-1.282
11
8.993
21
-1.28
0
LINE
8
BLUE3
6
CONTINUOUS
10
8.993
20
-1.28
11
8.995
21
-1.275
0
LINE
8
BLUE3
6
CONTINUOUS
10
8.995
20
-1.275
11
9
21
-1.273
0
LINE
8
BLUE3
6
CONTINUOUS
10
9
20
-1.273
11
9.007
21
-1.273
0
LINE
8
BLUE3
6
CONTINUOUS
10
9.007
20
-1.273
11
9.012
21
-1.275
0
LINE
8
BLUE3
6
CONTINUOUS
10
9.031
20
-1.273
11
9.043
21
-1.306
0
LINE
8
BLUE3
6
CONTINUOUS
10
9.055
20
-1.273
11
9.043
21
-1.306
0
LINE
8
BLUE3
6
CONTINUOUS
10
9.043
20
-1.306
11
9.038
21
-1.318
0
LINE
8
BLUE3
6
CONTINUOUS
10
9.038
20
-1.318
11
9.036
21
-1.32
0
LINE
8
BLUE3
6
CONTINUOUS
10
9.036
20
-1.32
11
9.031
21
-1.323
0
LINE
8
BLUE3
6
CONTINUOUS
10
9.074
20
-1.306
11
9.074
21
-1.273
0
LINE
8
BLUE3
6
CONTINUOUS
10
9.074
20
-1.278
11
9.076
21
-1.275
0
LINE
8
BLUE3
6
CONTINUOUS
10
9.076
20
-1.275
11
9.081
21
-1.273
0
LINE
8
BLUE3
6
CONTINUOUS
10
9.081
20
-1.273
11
9.088
21
-1.273
0
LINE
8
BLUE3
6
CONTINUOUS
10
9.088
20
-1.273
11
9.093
21
-1.275
0
LINE
8
BLUE3
6
CONTINUOUS
10
9.093
20
-1.275
11
9.095
21
-1.28
0
LINE
8
BLUE3
6
CONTINUOUS
10
9.095
20
-1.28
11
9.095
21
-1.306
0
LINE
8
BLUE3
6
CONTINUOUS
10
9.095
20
-1.28
11
9.098
21
-1.275
0
LINE
8
BLUE3
6
CONTINUOUS
10
9.098
20
-1.275
11
9.103
21
-1.273
0
LINE
8
BLUE3
6
CONTINUOUS
10
9.103
20
-1.273
11
9.11
21
-1.273
0
LINE
8
BLUE3
6
CONTINUOUS
10
9.11
20
-1.273
11
9.114
21
-1.275
0
LINE
8
BLUE3
6
CONTINUOUS
10
9.114
20
-1.275
11
9.117
21
-1.28
0
LINE
8
BLUE3
6
CONTINUOUS
10
9.117
20
-1.28
11
9.117
21
-1.306
0
LINE
8
BLUE3
6
CONTINUOUS
10
9.141
20
-1.306
11
9.141
21
-1.273
0
LINE
8
BLUE3
6
CONTINUOUS
10
9.141
20
-1.278
11
9.143
21
-1.275
0
LINE
8
BLUE3
6
CONTINUOUS
10
9.143
20
-1.275
11
9.148
21
-1.273
0
LINE
8
BLUE3
6
CONTINUOUS
10
9.148
20
-1.273
11
9.155
21
-1.273
0
LINE
8
BLUE3
6
CONTINUOUS
10
9.155
20
-1.273
11
9.16
21
-1.275
0
LINE
8
BLUE3
6
CONTINUOUS
10
9.16
20
-1.275
11
9.162
21
-1.28
0
LINE
8
BLUE3
6
CONTINUOUS
10
9.162
20
-1.28
11
9.162
21
-1.306
0
LINE
8
BLUE3
6
CONTINUOUS
10
9.162
20
-1.28
11
9.164
21
-1.275
0
LINE
8
BLUE3
6
CONTINUOUS
10
9.164
20
-1.275
11
9.169
21
-1.273
0
LINE
8
BLUE3
6
CONTINUOUS
10
9.169
20
-1.273
11
9.176
21
-1.273
0
LINE
8
BLUE3
6
CONTINUOUS
10
9.176
20
-1.273
11
9.181
21
-1.275
0
LINE
8
BLUE3
6
CONTINUOUS
10
9.181
20
-1.275
11
9.183
21
-1.28
0
LINE
8
BLUE3
6
CONTINUOUS
10
9.183
20
-1.28
11
9.183
21
-1.306
0
LINE
8
BLUE3
6
CONTINUOUS
10
9.226
20
-1.304
11
9.222
21
-1.306
0
LINE
8
BLUE3
6
CONTINUOUS
10
9.222
20
-1.306
11
9.212
21
-1.306
0
LINE
8
BLUE3
6
CONTINUOUS
10
9.212
20
-1.306
11
9.207
21
-1.304
0
LINE
8
BLUE3
6
CONTINUOUS
10
9.207
20
-1.304
11
9.205
21
-1.299
0
LINE
8
BLUE3
6
CONTINUOUS
10
9.205
20
-1.299
11
9.205
21
-1.28
0
LINE
8
BLUE3
6
CONTINUOUS
10
9.205
20
-1.28
11
9.207
21
-1.275
0
LINE
8
BLUE3
6
CONTINUOUS
10
9.207
20
-1.275
11
9.212
21
-1.273
0
LINE
8
BLUE3
6
CONTINUOUS
10
9.212
20
-1.273
11
9.222
21
-1.273
0
LINE
8
BLUE3
6
CONTINUOUS
10
9.222
20
-1.273
11
9.226
21
-1.275
0
LINE
8
BLUE3
6
CONTINUOUS
10
9.226
20
-1.275
11
9.229
21
-1.28
0
LINE
8
BLUE3
6
CONTINUOUS
10
9.229
20
-1.28
11
9.229
21
-1.285
0
LINE
8
BLUE3
6
CONTINUOUS
10
9.229
20
-1.285
11
9.205
21
-1.289
0
LINE
8
BLUE3
6
CONTINUOUS
10
9.243
20
-1.273
11
9.262
21
-1.273
0
LINE
8
BLUE3
6
CONTINUOUS
10
9.25
20
-1.256
11
9.25
21
-1.299
0
LINE
8
BLUE3
6
CONTINUOUS
10
9.25
20
-1.299
11
9.253
21
-1.304
0
LINE
8
BLUE3
6
CONTINUOUS
10
9.253
20
-1.304
11
9.257
21
-1.306
0
LINE
8
BLUE3
6
CONTINUOUS
10
9.257
20
-1.306
11
9.262
21
-1.306
0
LINE
8
BLUE3
6
CONTINUOUS
10
9.279
20
-1.306
11
9.279
21
-1.273
0
LINE
8
BLUE3
6
CONTINUOUS
10
9.279
20
-1.282
11
9.281
21
-1.278
0
LINE
8
BLUE3
6
CONTINUOUS
10
9.281
20
-1.278
11
9.283
21
-1.275
0
LINE
8
BLUE3
6
CONTINUOUS
10
9.283
20
-1.275
11
9.288
21
-1.273
0
LINE
8
BLUE3
6
CONTINUOUS
10
9.288
20
-1.273
11
9.293
21
-1.273
0
LINE
8
BLUE3
6
CONTINUOUS
10
9.31
20
-1.306
11
9.31
21
-1.273
0
LINE
8
BLUE3
6
CONTINUOUS
10
9.31
20
-1.256
11
9.307
21
-1.259
0
LINE
8
BLUE3
6
CONTINUOUS
10
9.307
20
-1.259
11
9.31
21
-1.261
0
LINE
8
BLUE3
6
CONTINUOUS
10
9.31
20
-1.261
11
9.312
21
-1.259
0
LINE
8
BLUE3
6
CONTINUOUS
10
9.312
20
-1.259
11
9.31
21
-1.256
0
LINE
8
BLUE3
6
CONTINUOUS
10
9.31
20
-1.256
11
9.31
21
-1.261
0
LINE
8
BLUE3
6
CONTINUOUS
10
9.355
20
-1.304
11
9.35
21
-1.306
0
LINE
8
BLUE3
6
CONTINUOUS
10
9.35
20
-1.306
11
9.341
21
-1.306
0
LINE
8
BLUE3
6
CONTINUOUS
10
9.341
20
-1.306
11
9.336
21
-1.304
0
LINE
8
BLUE3
6
CONTINUOUS
10
9.336
20
-1.304
11
9.333
21
-1.301
0
LINE
8
BLUE3
6
CONTINUOUS
10
9.333
20
-1.301
11
9.331
21
-1.297
0
LINE
8
BLUE3
6
CONTINUOUS
10
9.331
20
-1.297
11
9.331
21
-1.282
0
LINE
8
BLUE3
6
CONTINUOUS
10
9.331
20
-1.282
11
9.333
21
-1.278
0
LINE
8
BLUE3
6
CONTINUOUS
10
9.333
20
-1.278
11
9.336
21
-1.275
0
LINE
8
BLUE3
6
CONTINUOUS
10
9.336
20
-1.275
11
9.341
21
-1.273
0
LINE
8
BLUE3
6
CONTINUOUS
10
9.341
20
-1.273
11
9.35
21
-1.273
0
LINE
8
BLUE3
6
CONTINUOUS
10
9.35
20
-1.273
11
9.355
21
-1.275
0
LINE
8
BLUE3
6
CONTINUOUS
10
9.398
20
-1.306
11
9.398
21
-1.28
0
LINE
8
BLUE3
6
CONTINUOUS
10
9.398
20
-1.28
11
9.395
21
-1.275
0
LINE
8
BLUE3
6
CONTINUOUS
10
9.395
20
-1.275
11
9.391
21
-1.273
0
LINE
8
BLUE3
6
CONTINUOUS
10
9.391
20
-1.273
11
9.381
21
-1.273
0
LINE
8
BLUE3
6
CONTINUOUS
10
9.381
20
-1.273
11
9.376
21
-1.275
0
LINE
8
BLUE3
6
CONTINUOUS
10
9.398
20
-1.304
11
9.393
21
-1.306
0
LINE
8
BLUE3
6
CONTINUOUS
10
9.393
20
-1.306
11
9.381
21
-1.306
0
LINE
8
BLUE3
6
CONTINUOUS
10
9.381
20
-1.306
11
9.376
21
-1.304
0
LINE
8
BLUE3
6
CONTINUOUS
10
9.376
20
-1.304
11
9.374
21
-1.299
0
LINE
8
BLUE3
6
CONTINUOUS
10
9.374
20
-1.299
11
9.374
21
-1.294
0
LINE
8
BLUE3
6
CONTINUOUS
10
9.374
20
-1.294
11
9.376
21
-1.289
0
LINE
8
BLUE3
6
CONTINUOUS
10
9.376
20
-1.289
11
9.381
21
-1.287
0
LINE
8
BLUE3
6
CONTINUOUS
10
9.381
20
-1.287
11
9.393
21
-1.287
0
LINE
8
BLUE3
6
CONTINUOUS
10
9.393
20
-1.287
11
9.398
21
-1.285
0
LINE
8
BLUE3
6
CONTINUOUS
10
9.429
20
-1.306
11
9.424
21
-1.304
0
LINE
8
BLUE3
6
CONTINUOUS
10
9.424
20
-1.304
11
9.422
21
-1.299
0
LINE
8
BLUE3
6
CONTINUOUS
10
9.422
20
-1.299
11
9.422
21
-1.256
0
LINE
8
BLUE3
6
CONTINUOUS
10
9.448
20
-1.301
11
9.45
21
-1.304
0
LINE
8
BLUE3
6
CONTINUOUS
10
9.45
20
-1.304
11
9.448
21
-1.306
0
LINE
8
BLUE3
6
CONTINUOUS
10
9.448
20
-1.306
11
9.445
21
-1.304
0
LINE
8
BLUE3
6
CONTINUOUS
10
9.445
20
-1.304
11
9.448
21
-1.301
0
LINE
8
BLUE3
6
CONTINUOUS
10
9.448
20
-1.301
11
9.448
21
-1.306
0
LINE
8
BLUE3
6
CONTINUOUS
10
7.014
20
-1.361
11
7.031
21
-1.361
0
LINE
8
BLUE3
6
CONTINUOUS
10
7.038
20
-1.387
11
7.014
21
-1.387
0
LINE
8
BLUE3
6
CONTINUOUS
10
7.014
20
-1.387
11
7.014
21
-1.337
0
LINE
8
BLUE3
6
CONTINUOUS
10
7.014
20
-1.337
11
7.038
21
-1.337
0
LINE
8
BLUE3
6
CONTINUOUS
10
7.081
20
-1.354
11
7.081
21
-1.404
0
LINE
8
BLUE3
6
CONTINUOUS
10
7.081
20
-1.385
11
7.076
21
-1.387
0
LINE
8
BLUE3
6
CONTINUOUS
10
7.076
20
-1.387
11
7.067
21
-1.387
0
LINE
8
BLUE3
6
CONTINUOUS
10
7.067
20
-1.387
11
7.062
21
-1.385
0
LINE
8
BLUE3
6
CONTINUOUS
10
7.062
20
-1.385
11
7.06
21
-1.382
0
LINE
8
BLUE3
6
CONTINUOUS
10
7.06
20
-1.382
11
7.057
21
-1.378
0
LINE
8
BLUE3
6
CONTINUOUS
10
7.057
20
-1.378
11
7.057
21
-1.363
0
LINE
8
BLUE3
6
CONTINUOUS
10
7.057
20
-1.363
11
7.06
21
-1.359
0
LINE
8
BLUE3
6
CONTINUOUS
10
7.06
20
-1.359
11
7.062
21
-1.356
0
LINE
8
BLUE3
6
CONTINUOUS
10
7.062
20
-1.356
11
7.067
21
-1.354
0
LINE
8
BLUE3
6
CONTINUOUS
10
7.067
20
-1.354
11
7.076
21
-1.354
0
LINE
8
BLUE3
6
CONTINUOUS
10
7.076
20
-1.354
11
7.081
21
-1.356
0
LINE
8
BLUE3
6
CONTINUOUS
10
7.126
20
-1.354
11
7.126
21
-1.387
0
LINE
8
BLUE3
6
CONTINUOUS
10
7.105
20
-1.354
11
7.105
21
-1.38
0
LINE
8
BLUE3
6
CONTINUOUS
10
7.105
20
-1.38
11
7.107
21
-1.385
0
LINE
8
BLUE3
6
CONTINUOUS
10
7.107
20
-1.385
11
7.112
21
-1.387
0
LINE
8
BLUE3
6
CONTINUOUS
10
7.112
20
-1.387
11
7.119
21
-1.387
0
LINE
8
BLUE3
6
CONTINUOUS
10
7.119
20
-1.387
11
7.124
21
-1.385
0
LINE
8
BLUE3
6
CONTINUOUS
10
7.124
20
-1.385
11
7.126
21
-1.382
0
LINE
8
BLUE3
6
CONTINUOUS
10
7.15
20
-1.387
11
7.15
21
-1.354
0
LINE
8
BLUE3
6
CONTINUOUS
10
7.15
20
-1.337
11
7.148
21
-1.34
0
LINE
8
BLUE3
6
CONTINUOUS
10
7.148
20
-1.34
11
7.15
21
-1.342
0
LINE
8
BLUE3
6
CONTINUOUS
10
7.15
20
-1.342
11
7.153
21
-1.34
0
LINE
8
BLUE3
6
CONTINUOUS
10
7.153
20
-1.34
11
7.15
21
-1.337
0
LINE
8
BLUE3
6
CONTINUOUS
10
7.15
20
-1.337
11
7.15
21
-1.342
0
LINE
8
BLUE3
6
CONTINUOUS
10
7.169
20
-1.354
11
7.181
21
-1.387
0
LINE
8
BLUE3
6
CONTINUOUS
10
7.181
20
-1.387
11
7.193
21
-1.354
0
LINE
8
BLUE3
6
CONTINUOUS
10
7.233
20
-1.387
11
7.233
21
-1.361
0
LINE
8
BLUE3
6
CONTINUOUS
10
7.233
20
-1.361
11
7.231
21
-1.356
0
LINE
8
BLUE3
6
CONTINUOUS
10
7.231
20
-1.356
11
7.226
21
-1.354
0
LINE
8
BLUE3
6
CONTINUOUS
10
7.226
20
-1.354
11
7.217
21
-1.354
0
LINE
8
BLUE3
6
CONTINUOUS
10
7.217
20
-1.354
11
7.212
21
-1.356
0
LINE
8
BLUE3
6
CONTINUOUS
10
7.233
20
-1.385
11
7.229
21
-1.387
0
LINE
8
BLUE3
6
CONTINUOUS
10
7.229
20
-1.387
11
7.217
21
-1.387
0
LINE
8
BLUE3
6
CONTINUOUS
10
7.217
20
-1.387
11
7.212
21
-1.385
0
LINE
8
BLUE3
6
CONTINUOUS
10
7.212
20
-1.385
11
7.21
21
-1.38
0
LINE
8
BLUE3
6
CONTINUOUS
10
7.21
20
-1.38
11
7.21
21
-1.375
0
LINE
8
BLUE3
6
CONTINUOUS
10
7.21
20
-1.375
11
7.212
21
-1.37
0
LINE
8
BLUE3
6
CONTINUOUS
10
7.212
20
-1.37
11
7.217
21
-1.368
0
LINE
8
BLUE3
6
CONTINUOUS
10
7.217
20
-1.368
11
7.229
21
-1.368
0
LINE
8
BLUE3
6
CONTINUOUS
10
7.229
20
-1.368
11
7.233
21
-1.366
0
LINE
8
BLUE3
6
CONTINUOUS
10
7.264
20
-1.387
11
7.26
21
-1.385
0
LINE
8
BLUE3
6
CONTINUOUS
10
7.26
20
-1.385
11
7.257
21
-1.38
0
LINE
8
BLUE3
6
CONTINUOUS
10
7.257
20
-1.38
11
7.257
21
-1.337
0
LINE
8
BLUE3
6
CONTINUOUS
10
7.303
20
-1.385
11
7.298
21
-1.387
0
LINE
8
BLUE3
6
CONTINUOUS
10
7.298
20
-1.387
11
7.288
21
-1.387
0
LINE
8
BLUE3
6
CONTINUOUS
10
7.288
20
-1.387
11
7.283
21
-1.385
0
LINE
8
BLUE3
6
CONTINUOUS
10
7.283
20
-1.385
11
7.281
21
-1.38
0
LINE
8
BLUE3
6
CONTINUOUS
10
7.281
20
-1.38
11
7.281
21
-1.361
0
LINE
8
BLUE3
6
CONTINUOUS
10
7.281
20
-1.361
11
7.283
21
-1.356
0
LINE
8
BLUE3
6
CONTINUOUS
10
7.283
20
-1.356
11
7.288
21
-1.354
0
LINE
8
BLUE3
6
CONTINUOUS
10
7.288
20
-1.354
11
7.298
21
-1.354
0
LINE
8
BLUE3
6
CONTINUOUS
10
7.298
20
-1.354
11
7.303
21
-1.356
0
LINE
8
BLUE3
6
CONTINUOUS
10
7.303
20
-1.356
11
7.305
21
-1.361
0
LINE
8
BLUE3
6
CONTINUOUS
10
7.305
20
-1.361
11
7.305
21
-1.366
0
LINE
8
BLUE3
6
CONTINUOUS
10
7.305
20
-1.366
11
7.281
21
-1.37
0
LINE
8
BLUE3
6
CONTINUOUS
10
7.326
20
-1.354
11
7.326
21
-1.387
0
LINE
8
BLUE3
6
CONTINUOUS
10
7.326
20
-1.359
11
7.329
21
-1.356
0
LINE
8
BLUE3
6
CONTINUOUS
10
7.329
20
-1.356
11
7.333
21
-1.354
0
LINE
8
BLUE3
6
CONTINUOUS
10
7.333
20
-1.354
11
7.341
21
-1.354
0
LINE
8
BLUE3
6
CONTINUOUS
10
7.341
20
-1.354
11
7.345
21
-1.356
0
LINE
8
BLUE3
6
CONTINUOUS
10
7.345
20
-1.356
11
7.348
21
-1.361
0
LINE
8
BLUE3
6
CONTINUOUS
10
7.348
20
-1.361
11
7.348
21
-1.387
0
LINE
8
BLUE3
6
CONTINUOUS
10
7.364
20
-1.354
11
7.383
21
-1.354
0
LINE
8
BLUE3
6
CONTINUOUS
10
7.372
20
-1.337
11
7.372
21
-1.38
0
LINE
8
BLUE3
6
CONTINUOUS
10
7.372
20
-1.38
11
7.374
21
-1.385
0
LINE
8
BLUE3
6
CONTINUOUS
10
7.374
20
-1.385
11
7.379
21
-1.387
0
LINE
8
BLUE3
6
CONTINUOUS
10
7.379
20
-1.387
11
7.383
21
-1.387
0
LINE
8
BLUE3
6
CONTINUOUS
10
7.436
20
-1.373
11
7.46
21
-1.373
0
LINE
8
BLUE3
6
CONTINUOUS
10
7.431
20
-1.387
11
7.448
21
-1.337
0
LINE
8
BLUE3
6
CONTINUOUS
10
7.448
20
-1.337
11
7.464
21
-1.387
0
LINE
8
BLUE3
6
CONTINUOUS
10
7.51
20
-1.382
11
7.507
21
-1.385
0
LINE
8
BLUE3
6
CONTINUOUS
10
7.507
20
-1.385
11
7.5
21
-1.387
0
LINE
8
BLUE3
6
CONTINUOUS
10
7.5
20
-1.387
11
7.495
21
-1.387
0
LINE
8
BLUE3
6
CONTINUOUS
10
7.495
20
-1.387
11
7.488
21
-1.385
0
LINE
8
BLUE3
6
CONTINUOUS
10
7.488
20
-1.385
11
7.483
21
-1.38
0
LINE
8
BLUE3
6
CONTINUOUS
10
7.483
20
-1.38
11
7.481
21
-1.375
0
LINE
8
BLUE3
6
CONTINUOUS
10
7.481
20
-1.375
11
7.479
21
-1.366
0
LINE
8
BLUE3
6
CONTINUOUS
10
7.479
20
-1.366
11
7.479
21
-1.359
0
LINE
8
BLUE3
6
CONTINUOUS
10
7.479
20
-1.359
11
7.481
21
-1.349
0
LINE
8
BLUE3
6
CONTINUOUS
10
7.481
20
-1.349
11
7.483
21
-1.344
0
LINE
8
BLUE3
6
CONTINUOUS
10
7.483
20
-1.344
11
7.488
21
-1.34
0
LINE
8
BLUE3
6
CONTINUOUS
10
7.488
20
-1.34
11
7.495
21
-1.337
0
LINE
8
BLUE3
6
CONTINUOUS
10
7.495
20
-1.337
11
7.5
21
-1.337
0
LINE
8
BLUE3
6
CONTINUOUS
10
7.5
20
-1.337
11
7.507
21
-1.34
0
LINE
8
BLUE3
6
CONTINUOUS
10
7.507
20
-1.34
11
7.51
21
-1.342
0
LINE
8
BLUE3
6
CONTINUOUS
10
7.569
20
-1.387
11
7.569
21
-1.354
0
LINE
8
BLUE3
6
CONTINUOUS
10
7.569
20
-1.337
11
7.567
21
-1.34
0
LINE
8
BLUE3
6
CONTINUOUS
10
7.567
20
-1.34
11
7.569
21
-1.342
0
LINE
8
BLUE3
6
CONTINUOUS
10
7.569
20
-1.342
11
7.572
21
-1.34
0
LINE
8
BLUE3
6
CONTINUOUS
10
7.572
20
-1.34
11
7.569
21
-1.337
0
LINE
8
BLUE3
6
CONTINUOUS
10
7.569
20
-1.337
11
7.569
21
-1.342
0
LINE
8
BLUE3
6
CONTINUOUS
10
7.593
20
-1.387
11
7.593
21
-1.354
0
LINE
8
BLUE3
6
CONTINUOUS
10
7.593
20
-1.359
11
7.595
21
-1.356
0
LINE
8
BLUE3
6
CONTINUOUS
10
7.595
20
-1.356
11
7.6
21
-1.354
0
LINE
8
BLUE3
6
CONTINUOUS
10
7.6
20
-1.354
11
7.607
21
-1.354
0
LINE
8
BLUE3
6
CONTINUOUS
10
7.607
20
-1.354
11
7.612
21
-1.356
0
LINE
8
BLUE3
6
CONTINUOUS
10
7.612
20
-1.356
11
7.614
21
-1.361
0
LINE
8
BLUE3
6
CONTINUOUS
10
7.614
20
-1.361
11
7.614
21
-1.387
0
LINE
8
BLUE3
6
CONTINUOUS
10
7.614
20
-1.361
11
7.617
21
-1.356
0
LINE
8
BLUE3
6
CONTINUOUS
10
7.617
20
-1.356
11
7.622
21
-1.354
0
LINE
8
BLUE3
6
CONTINUOUS
10
7.622
20
-1.354
11
7.629
21
-1.354
0
LINE
8
BLUE3
6
CONTINUOUS
10
7.629
20
-1.354
11
7.633
21
-1.356
0
LINE
8
BLUE3
6
CONTINUOUS
10
7.633
20
-1.356
11
7.636
21
-1.361
0
LINE
8
BLUE3
6
CONTINUOUS
10
7.636
20
-1.361
11
7.636
21
-1.387
0
LINE
8
BLUE3
6
CONTINUOUS
10
7.66
20
-1.354
11
7.66
21
-1.404
0
LINE
8
BLUE3
6
CONTINUOUS
10
7.66
20
-1.356
11
7.664
21
-1.354
0
LINE
8
BLUE3
6
CONTINUOUS
10
7.664
20
-1.354
11
7.674
21
-1.354
0
LINE
8
BLUE3
6
CONTINUOUS
10
7.674
20
-1.354
11
7.679
21
-1.356
0
LINE
8
BLUE3
6
CONTINUOUS
10
7.679
20
-1.356
11
7.681
21
-1.359
0
LINE
8
BLUE3
6
CONTINUOUS
10
7.681
20
-1.359
11
7.683
21
-1.363
0
LINE
8
BLUE3
6
CONTINUOUS
10
7.683
20
-1.363
11
7.683
21
-1.378
0
LINE
8
BLUE3
6
CONTINUOUS
10
7.683
20
-1.378
11
7.681
21
-1.382
0
LINE
8
BLUE3
6
CONTINUOUS
10
7.681
20
-1.382
11
7.679
21
-1.385
0
LINE
8
BLUE3
6
CONTINUOUS
10
7.679
20
-1.385
11
7.674
21
-1.387
0
LINE
8
BLUE3
6
CONTINUOUS
10
7.674
20
-1.387
11
7.664
21
-1.387
0
LINE
8
BLUE3
6
CONTINUOUS
10
7.664
20
-1.387
11
7.66
21
-1.385
0
LINE
8
BLUE3
6
CONTINUOUS
10
7.724
20
-1.385
11
7.719
21
-1.387
0
LINE
8
BLUE3
6
CONTINUOUS
10
7.719
20
-1.387
11
7.71
21
-1.387
0
LINE
8
BLUE3
6
CONTINUOUS
10
7.71
20
-1.387
11
7.705
21
-1.385
0
LINE
8
BLUE3
6
CONTINUOUS
10
7.705
20
-1.385
11
7.703
21
-1.38
0
LINE
8
BLUE3
6
CONTINUOUS
10
7.703
20
-1.38
11
7.703
21
-1.361
0
LINE
8
BLUE3
6
CONTINUOUS
10
7.703
20
-1.361
11
7.705
21
-1.356
0
LINE
8
BLUE3
6
CONTINUOUS
10
7.705
20
-1.356
11
7.71
21
-1.354
0
LINE
8
BLUE3
6
CONTINUOUS
10
7.71
20
-1.354
11
7.719
21
-1.354
0
LINE
8
BLUE3
6
CONTINUOUS
10
7.719
20
-1.354
11
7.724
21
-1.356
0
LINE
8
BLUE3
6
CONTINUOUS
10
7.724
20
-1.356
11
7.726
21
-1.361
0
LINE
8
BLUE3
6
CONTINUOUS
10
7.726
20
-1.361
11
7.726
21
-1.366
0
LINE
8
BLUE3
6
CONTINUOUS
10
7.726
20
-1.366
11
7.703
21
-1.37
0
LINE
8
BLUE3
6
CONTINUOUS
10
7.719
20
-1.335
11
7.712
21
-1.342
0
LINE
8
BLUE3
6
CONTINUOUS
10
7.769
20
-1.387
11
7.769
21
-1.337
0
LINE
8
BLUE3
6
CONTINUOUS
10
7.769
20
-1.385
11
7.764
21
-1.387
0
LINE
8
BLUE3
6
CONTINUOUS
10
7.764
20
-1.387
11
7.755
21
-1.387
0
LINE
8
BLUE3
6
CONTINUOUS
10
7.755
20
-1.387
11
7.75
21
-1.385
0
LINE
8
BLUE3
6
CONTINUOUS
10
7.75
20
-1.385
11
7.748
21
-1.382
0
LINE
8
BLUE3
6
CONTINUOUS
10
7.748
20
-1.382
11
7.745
21
-1.378
0
LINE
8
BLUE3
6
CONTINUOUS
10
7.745
20
-1.378
11
7.745
21
-1.363
0
LINE
8
BLUE3
6
CONTINUOUS
10
7.745
20
-1.363
11
7.748
21
-1.359
0
LINE
8
BLUE3
6
CONTINUOUS
10
7.748
20
-1.359
11
7.75
21
-1.356
0
LINE
8
BLUE3
6
CONTINUOUS
10
7.75
20
-1.356
11
7.755
21
-1.354
0
LINE
8
BLUE3
6
CONTINUOUS
10
7.755
20
-1.354
11
7.764
21
-1.354
0
LINE
8
BLUE3
6
CONTINUOUS
10
7.764
20
-1.354
11
7.769
21
-1.356
0
LINE
8
BLUE3
6
CONTINUOUS
10
7.814
20
-1.387
11
7.814
21
-1.361
0
LINE
8
BLUE3
6
CONTINUOUS
10
7.814
20
-1.361
11
7.812
21
-1.356
0
LINE
8
BLUE3
6
CONTINUOUS
10
7.812
20
-1.356
11
7.807
21
-1.354
0
LINE
8
BLUE3
6
CONTINUOUS
10
7.807
20
-1.354
11
7.798
21
-1.354
0
LINE
8
BLUE3
6
CONTINUOUS
10
7.798
20
-1.354
11
7.793
21
-1.356
0
LINE
8
BLUE3
6
CONTINUOUS
10
7.814
20
-1.385
11
7.81
21
-1.387
0
LINE
8
BLUE3
6
CONTINUOUS
10
7.81
20
-1.387
11
7.798
21
-1.387
0
LINE
8
BLUE3
6
CONTINUOUS
10
7.798
20
-1.387
11
7.793
21
-1.385
0
LINE
8
BLUE3
6
CONTINUOUS
10
7.793
20
-1.385
11
7.791
21
-1.38
0
LINE
8
BLUE3
6
CONTINUOUS
10
7.791
20
-1.38
11
7.791
21
-1.375
0
LINE
8
BLUE3
6
CONTINUOUS
10
7.791
20
-1.375
11
7.793
21
-1.37
0
LINE
8
BLUE3
6
CONTINUOUS
10
7.793
20
-1.37
11
7.798
21
-1.368
0
LINE
8
BLUE3
6
CONTINUOUS
10
7.798
20
-1.368
11
7.81
21
-1.368
0
LINE
8
BLUE3
6
CONTINUOUS
10
7.81
20
-1.368
11
7.814
21
-1.366
0
LINE
8
BLUE3
6
CONTINUOUS
10
7.838
20
-1.354
11
7.838
21
-1.387
0
LINE
8
BLUE3
6
CONTINUOUS
10
7.838
20
-1.359
11
7.841
21
-1.356
0
LINE
8
BLUE3
6
CONTINUOUS
10
7.841
20
-1.356
11
7.845
21
-1.354
0
LINE
8
BLUE3
6
CONTINUOUS
10
7.845
20
-1.354
11
7.853
21
-1.354
0
LINE
8
BLUE3
6
CONTINUOUS
10
7.853
20
-1.354
11
7.857
21
-1.356
0
LINE
8
BLUE3
6
CONTINUOUS
10
7.857
20
-1.356
11
7.86
21
-1.361
0
LINE
8
BLUE3
6
CONTINUOUS
10
7.86
20
-1.361
11
7.86
21
-1.387
0
LINE
8
BLUE3
6
CONTINUOUS
10
7.905
20
-1.385
11
7.9
21
-1.387
0
LINE
8
BLUE3
6
CONTINUOUS
10
7.9
20
-1.387
11
7.891
21
-1.387
0
LINE
8
BLUE3
6
CONTINUOUS
10
7.891
20
-1.387
11
7.886
21
-1.385
0
LINE
8
BLUE3
6
CONTINUOUS
10
7.886
20
-1.385
11
7.883
21
-1.382
0
LINE
8
BLUE3
6
CONTINUOUS
10
7.883
20
-1.382
11
7.881
21
-1.378
0
LINE
8
BLUE3
6
CONTINUOUS
10
7.881
20
-1.378
11
7.881
21
-1.363
0
LINE
8
BLUE3
6
CONTINUOUS
10
7.881
20
-1.363
11
7.883
21
-1.359
0
LINE
8
BLUE3
6
CONTINUOUS
10
7.883
20
-1.359
11
7.886
21
-1.356
0
LINE
8
BLUE3
6
CONTINUOUS
10
7.886
20
-1.356
11
7.891
21
-1.354
0
LINE
8
BLUE3
6
CONTINUOUS
10
7.891
20
-1.354
11
7.9
21
-1.354
0
LINE
8
BLUE3
6
CONTINUOUS
10
7.9
20
-1.354
11
7.905
21
-1.356
0
LINE
8
BLUE3
6
CONTINUOUS
10
7.945
20
-1.385
11
7.941
21
-1.387
0
LINE
8
BLUE3
6
CONTINUOUS
10
7.941
20
-1.387
11
7.931
21
-1.387
0
LINE
8
BLUE3
6
CONTINUOUS
10
7.931
20
-1.387
11
7.926
21
-1.385
0
LINE
8
BLUE3
6
CONTINUOUS
10
7.926
20
-1.385
11
7.924
21
-1.38
0
LINE
8
BLUE3
6
CONTINUOUS
10
7.924
20
-1.38
11
7.924
21
-1.361
0
LINE
8
BLUE3
6
CONTINUOUS
10
7.924
20
-1.361
11
7.926
21
-1.356
0
LINE
8
BLUE3
6
CONTINUOUS
10
7.926
20
-1.356
11
7.931
21
-1.354
0
LINE
8
BLUE3
6
CONTINUOUS
10
7.931
20
-1.354
11
7.941
21
-1.354
0
LINE
8
BLUE3
6
CONTINUOUS
10
7.941
20
-1.354
11
7.945
21
-1.356
0
LINE
8
BLUE3
6
CONTINUOUS
10
7.945
20
-1.356
11
7.948
21
-1.361
0
LINE
8
BLUE3
6
CONTINUOUS
10
7.948
20
-1.361
11
7.948
21
-1.366
0
LINE
8
BLUE3
6
CONTINUOUS
10
7.948
20
-1.366
11
7.924
21
-1.37
0
LINE
8
BLUE3
6
CONTINUOUS
10
8.033
20
-1.387
11
8.005
21
-1.387
0
LINE
8
BLUE3
6
CONTINUOUS
10
8.019
20
-1.387
11
8.019
21
-1.337
0
LINE
8
BLUE3
6
CONTINUOUS
10
8.019
20
-1.337
11
8.014
21
-1.344
0
LINE
8
BLUE3
6
CONTINUOUS
10
8.014
20
-1.344
11
8.01
21
-1.349
0
LINE
8
BLUE3
6
CONTINUOUS
10
8.01
20
-1.349
11
8.005
21
-1.351
0
LINE
8
BLUE3
6
CONTINUOUS
10
8.055
20
-1.382
11
8.057
21
-1.385
0
LINE
8
BLUE3
6
CONTINUOUS
10
8.057
20
-1.385
11
8.055
21
-1.387
0
LINE
8
BLUE3
6
CONTINUOUS
10
8.055
20
-1.387
11
8.053
21
-1.385
0
LINE
8
BLUE3
6
CONTINUOUS
10
8.053
20
-1.385
11
8.055
21
-1.382
0
LINE
8
BLUE3
6
CONTINUOUS
10
8.055
20
-1.382
11
8.055
21
-1.387
0
LINE
8
BLUE3
6
CONTINUOUS
10
8.103
20
-1.337
11
8.079
21
-1.337
0
LINE
8
BLUE3
6
CONTINUOUS
10
8.079
20
-1.337
11
8.076
21
-1.361
0
LINE
8
BLUE3
6
CONTINUOUS
10
8.076
20
-1.361
11
8.079
21
-1.359
0
LINE
8
BLUE3
6
CONTINUOUS
10
8.079
20
-1.359
11
8.083
21
-1.356
0
LINE
8
BLUE3
6
CONTINUOUS
10
8.083
20
-1.356
11
8.095
21
-1.356
0
LINE
8
BLUE3
6
CONTINUOUS
10
8.095
20
-1.356
11
8.1
21
-1.359
0
LINE
8
BLUE3
6
CONTINUOUS
10
8.1
20
-1.359
11
8.103
21
-1.361
0
LINE
8
BLUE3
6
CONTINUOUS
10
8.103
20
-1.361
11
8.105
21
-1.366
0
LINE
8
BLUE3
6
CONTINUOUS
10
8.105
20
-1.366
11
8.105
21
-1.378
0
LINE
8
BLUE3
6
CONTINUOUS
10
8.105
20
-1.378
11
8.103
21
-1.382
0
LINE
8
BLUE3
6
CONTINUOUS
10
8.103
20
-1.382
11
8.1
21
-1.385
0
LINE
8
BLUE3
6
CONTINUOUS
10
8.1
20
-1.385
11
8.095
21
-1.387
0
LINE
8
BLUE3
6
CONTINUOUS
10
8.095
20
-1.387
11
8.083
21
-1.387
0
LINE
8
BLUE3
6
CONTINUOUS
10
8.083
20
-1.387
11
8.079
21
-1.385
0
LINE
8
BLUE3
6
CONTINUOUS
10
8.079
20
-1.385
11
8.076
21
-1.382
0
LINE
8
BLUE3
6
CONTINUOUS
10
8.126
20
-1.387
11
8.126
21
-1.337
0
LINE
8
BLUE3
6
CONTINUOUS
10
8.155
20
-1.387
11
8.133
21
-1.359
0
LINE
8
BLUE3
6
CONTINUOUS
10
8.155
20
-1.337
11
8.126
21
-1.366
0
LINE
8
BLUE3
6
CONTINUOUS
10
8.176
20
-1.387
11
8.176
21
-1.337
0
LINE
8
BLUE3
6
CONTINUOUS
10
8.198
20
-1.387
11
8.198
21
-1.361
0
LINE
8
BLUE3
6
CONTINUOUS
10
8.198
20
-1.361
11
8.195
21
-1.356
0
LINE
8
BLUE3
6
CONTINUOUS
10
8.195
20
-1.356
11
8.191
21
-1.354
0
LINE
8
BLUE3
6
CONTINUOUS
10
8.191
20
-1.354
11
8.183
21
-1.354
0
LINE
8
BLUE3
6
CONTINUOUS
10
8.183
20
-1.354
11
8.179
21
-1.356
0
LINE
8
BLUE3
6
CONTINUOUS
10
8.179
20
-1.356
11
8.176
21
-1.359
0
LINE
8
BLUE3
6
CONTINUOUS
10
8.229
20
-1.387
11
8.224
21
-1.385
0
LINE
8
BLUE3
6
CONTINUOUS
10
8.224
20
-1.385
11
8.222
21
-1.382
0
LINE
8
BLUE3
6
CONTINUOUS
10
8.222
20
-1.382
11
8.219
21
-1.378
0
LINE
8
BLUE3
6
CONTINUOUS
10
8.219
20
-1.378
11
8.219
21
-1.363
0
LINE
8
BLUE3
6
CONTINUOUS
10
8.219
20
-1.363
11
8.222
21
-1.359
0
LINE
8
BLUE3
6
CONTINUOUS
10
8.222
20
-1.359
11
8.224
21
-1.356
0
LINE
8
BLUE3
6
CONTINUOUS
10
8.224
20
-1.356
11
8.229
21
-1.354
0
LINE
8
BLUE3
6
CONTINUOUS
10
8.229
20
-1.354
11
8.236
21
-1.354
0
LINE
8
BLUE3
6
CONTINUOUS
10
8.236
20
-1.354
11
8.241
21
-1.356
0
LINE
8
BLUE3
6
CONTINUOUS
10
8.241
20
-1.356
11
8.243
21
-1.359
0
LINE
8
BLUE3
6
CONTINUOUS
10
8.243
20
-1.359
11
8.245
21
-1.363
0
LINE
8
BLUE3
6
CONTINUOUS
10
8.245
20
-1.363
11
8.245
21
-1.378
0
LINE
8
BLUE3
6
CONTINUOUS
10
8.245
20
-1.378
11
8.243
21
-1.382
0
LINE
8
BLUE3
6
CONTINUOUS
10
8.243
20
-1.382
11
8.241
21
-1.385
0
LINE
8
BLUE3
6
CONTINUOUS
10
8.241
20
-1.385
11
8.236
21
-1.387
0
LINE
8
BLUE3
6
CONTINUOUS
10
8.236
20
-1.387
11
8.229
21
-1.387
0
LINE
8
BLUE3
6
CONTINUOUS
10
8.264
20
-1.385
11
8.269
21
-1.387
0
LINE
8
BLUE3
6
CONTINUOUS
10
8.269
20
-1.387
11
8.279
21
-1.387
0
LINE
8
BLUE3
6
CONTINUOUS
10
8.279
20
-1.387
11
8.283
21
-1.385
0
LINE
8
BLUE3
6
CONTINUOUS
10
8.283
20
-1.385
11
8.286
21
-1.38
0
LINE
8
BLUE3
6
CONTINUOUS
10
8.286
20
-1.38
11
8.286
21
-1.378
0
LINE
8
BLUE3
6
CONTINUOUS
10
8.286
20
-1.378
11
8.283
21
-1.373
0
LINE
8
BLUE3
6
CONTINUOUS
10
8.283
20
-1.373
11
8.279
21
-1.37
0
LINE
8
BLUE3
6
CONTINUOUS
10
8.279
20
-1.37
11
8.272
21
-1.37
0
LINE
8
BLUE3
6
CONTINUOUS
10
8.272
20
-1.37
11
8.267
21
-1.368
0
LINE
8
BLUE3
6
CONTINUOUS
10
8.267
20
-1.368
11
8.264
21
-1.363
0
LINE
8
BLUE3
6
CONTINUOUS
10
8.264
20
-1.363
11
8.264
21
-1.361
0
LINE
8
BLUE3
6
CONTINUOUS
10
8.264
20
-1.361
11
8.267
21
-1.356
0
LINE
8
BLUE3
6
CONTINUOUS
10
8.267
20
-1.356
11
8.272
21
-1.354
0
LINE
8
BLUE3
6
CONTINUOUS
10
8.272
20
-1.354
11
8.279
21
-1.354
0
LINE
8
BLUE3
6
CONTINUOUS
10
8.279
20
-1.354
11
8.283
21
-1.356
0
LINE
8
BLUE3
6
CONTINUOUS
10
8.341
20
-1.337
11
8.372
21
-1.337
0
LINE
8
BLUE3
6
CONTINUOUS
10
8.372
20
-1.337
11
8.355
21
-1.356
0
LINE
8
BLUE3
6
CONTINUOUS
10
8.355
20
-1.356
11
8.362
21
-1.356
0
LINE
8
BLUE3
6
CONTINUOUS
10
8.362
20
-1.356
11
8.367
21
-1.359
0
LINE
8
BLUE3
6
CONTINUOUS
10
8.367
20
-1.359
11
8.369
21
-1.361
0
LINE
8
BLUE3
6
CONTINUOUS
10
8.369
20
-1.361
11
8.372
21
-1.366
0
LINE
8
BLUE3
6
CONTINUOUS
10
8.372
20
-1.366
11
8.372
21
-1.378
0
LINE
8
BLUE3
6
CONTINUOUS
10
8.372
20
-1.378
11
8.369
21
-1.382
0
LINE
8
BLUE3
6
CONTINUOUS
10
8.369
20
-1.382
11
8.367
21
-1.385
0
LINE
8
BLUE3
6
CONTINUOUS
10
8.367
20
-1.385
11
8.362
21
-1.387
0
LINE
8
BLUE3
6
CONTINUOUS
10
8.362
20
-1.387
11
8.348
21
-1.387
0
LINE
8
BLUE3
6
CONTINUOUS
10
8.348
20
-1.387
11
8.343
21
-1.385
0
LINE
8
BLUE3
6
CONTINUOUS
10
8.343
20
-1.385
11
8.341
21
-1.382
0
LINE
8
BLUE3
6
CONTINUOUS
10
8.393
20
-1.354
11
8.393
21
-1.404
0
LINE
8
BLUE3
6
CONTINUOUS
10
8.393
20
-1.356
11
8.398
21
-1.354
0
LINE
8
BLUE3
6
CONTINUOUS
10
8.398
20
-1.354
11
8.407
21
-1.354
0
LINE
8
BLUE3
6
CONTINUOUS
10
8.407
20
-1.354
11
8.412
21
-1.356
0
LINE
8
BLUE3
6
CONTINUOUS
10
8.412
20
-1.356
11
8.414
21
-1.359
0
LINE
8
BLUE3
6
CONTINUOUS
10
8.414
20
-1.359
11
8.417
21
-1.363
0
LINE
8
BLUE3
6
CONTINUOUS
10
8.417
20
-1.363
11
8.417
21
-1.378
0
LINE
8
BLUE3
6
CONTINUOUS
10
8.417
20
-1.378
11
8.414
21
-1.382
0
LINE
8
BLUE3
6
CONTINUOUS
10
8.414
20
-1.382
11
8.412
21
-1.385
0
LINE
8
BLUE3
6
CONTINUOUS
10
8.412
20
-1.385
11
8.407
21
-1.387
0
LINE
8
BLUE3
6
CONTINUOUS
10
8.407
20
-1.387
11
8.398
21
-1.387
0
LINE
8
BLUE3
6
CONTINUOUS
10
8.398
20
-1.387
11
8.393
21
-1.385
0
LINE
8
BLUE3
6
CONTINUOUS
10
8.455
20
-1.361
11
8.438
21
-1.361
0
LINE
8
BLUE3
6
CONTINUOUS
10
8.438
20
-1.387
11
8.438
21
-1.337
0
LINE
8
BLUE3
6
CONTINUOUS
10
8.438
20
-1.337
11
8.462
21
-1.337
0
LINE
8
BLUE3
6
CONTINUOUS
10
8.543
20
-1.337
11
8.519
21
-1.337
0
LINE
8
BLUE3
6
CONTINUOUS
10
8.519
20
-1.337
11
8.517
21
-1.361
0
LINE
8
BLUE3
6
CONTINUOUS
10
8.517
20
-1.361
11
8.519
21
-1.359
0
LINE
8
BLUE3
6
CONTINUOUS
10
8.519
20
-1.359
11
8.524
21
-1.356
0
LINE
8
BLUE3
6
CONTINUOUS
10
8.524
20
-1.356
11
8.536
21
-1.356
0
LINE
8
BLUE3
6
CONTINUOUS
10
8.536
20
-1.356
11
8.541
21
-1.359
0
LINE
8
BLUE3
6
CONTINUOUS
10
8.541
20
-1.359
11
8.543
21
-1.361
0
LINE
8
BLUE3
6
CONTINUOUS
10
8.543
20
-1.361
11
8.545
21
-1.366
0
LINE
8
BLUE3
6
CONTINUOUS
10
8.545
20
-1.366
11
8.545
21
-1.378
0
LINE
8
BLUE3
6
CONTINUOUS
10
8.545
20
-1.378
11
8.543
21
-1.382
0
LINE
8
BLUE3
6
CONTINUOUS
10
8.543
20
-1.382
11
8.541
21
-1.385
0
LINE
8
BLUE3
6
CONTINUOUS
10
8.541
20
-1.385
11
8.536
21
-1.387
0
LINE
8
BLUE3
6
CONTINUOUS
10
8.536
20
-1.387
11
8.524
21
-1.387
0
LINE
8
BLUE3
6
CONTINUOUS
10
8.524
20
-1.387
11
8.519
21
-1.385
0
LINE
8
BLUE3
6
CONTINUOUS
10
8.519
20
-1.385
11
8.517
21
-1.382
0
LINE
8
BLUE3
6
CONTINUOUS
10
8.576
20
-1.337
11
8.581
21
-1.337
0
LINE
8
BLUE3
6
CONTINUOUS
10
8.581
20
-1.337
11
8.586
21
-1.34
0
LINE
8
BLUE3
6
CONTINUOUS
10
8.586
20
-1.34
11
8.588
21
-1.342
0
LINE
8
BLUE3
6
CONTINUOUS
10
8.588
20
-1.342
11
8.591
21
-1.347
0
LINE
8
BLUE3
6
CONTINUOUS
10
8.591
20
-1.347
11
8.593
21
-1.356
0
LINE
8
BLUE3
6
CONTINUOUS
10
8.593
20
-1.356
11
8.593
21
-1.368
0
LINE
8
BLUE3
6
CONTINUOUS
10
8.593
20
-1.368
11
8.591
21
-1.378
0
LINE
8
BLUE3
6
CONTINUOUS
10
8.591
20
-1.378
11
8.588
21
-1.382
0
LINE
8
BLUE3
6
CONTINUOUS
10
8.588
20
-1.382
11
8.586
21
-1.385
0
LINE
8
BLUE3
6
CONTINUOUS
10
8.586
20
-1.385
11
8.581
21
-1.387
0
LINE
8
BLUE3
6
CONTINUOUS
10
8.581
20
-1.387
11
8.576
21
-1.387
0
LINE
8
BLUE3
6
CONTINUOUS
10
8.576
20
-1.387
11
8.572
21
-1.385
0
LINE
8
BLUE3
6
CONTINUOUS
10
8.572
20
-1.385
11
8.569
21
-1.382
0
LINE
8
BLUE3
6
CONTINUOUS
10
8.569
20
-1.382
11
8.567
21
-1.378
0
LINE
8
BLUE3
6
CONTINUOUS
10
8.567
20
-1.378
11
8.564
21
-1.368
0
LINE
8
BLUE3
6
CONTINUOUS
10
8.564
20
-1.368
11
8.564
21
-1.356
0
LINE
8
BLUE3
6
CONTINUOUS
10
8.564
20
-1.356
11
8.567
21
-1.347
0
LINE
8
BLUE3
6
CONTINUOUS
10
8.567
20
-1.347
11
8.569
21
-1.342
0
LINE
8
BLUE3
6
CONTINUOUS
10
8.569
20
-1.342
11
8.572
21
-1.34
0
LINE
8
BLUE3
6
CONTINUOUS
10
8.572
20
-1.34
11
8.576
21
-1.337
0
LINE
8
BLUE3
6
CONTINUOUS
10
8.614
20
-1.387
11
8.614
21
-1.337
0
LINE
8
BLUE3
6
CONTINUOUS
10
8.614
20
-1.337
11
8.631
21
-1.373
0
LINE
8
BLUE3
6
CONTINUOUS
10
8.631
20
-1.373
11
8.648
21
-1.337
0
LINE
8
BLUE3
6
CONTINUOUS
10
8.648
20
-1.337
11
8.648
21
-1.387
0
LINE
8
BLUE3
6
CONTINUOUS
10
8.672
20
-1.387
11
8.672
21
-1.337
0
LINE
8
BLUE3
6
CONTINUOUS
10
8.672
20
-1.361
11
8.7
21
-1.361
0
LINE
8
BLUE3
6
CONTINUOUS
10
8.7
20
-1.387
11
8.7
21
-1.337
0
LINE
8
BLUE3
6
CONTINUOUS
10
8.719
20
-1.354
11
8.745
21
-1.354
0
LINE
8
BLUE3
6
CONTINUOUS
10
8.745
20
-1.354
11
8.719
21
-1.387
0
LINE
8
BLUE3
6
CONTINUOUS
10
8.719
20
-1.387
11
8.745
21
-1.387
0
LINE
8
BLUE3
6
CONTINUOUS
10
8.764
20
-1.382
11
8.767
21
-1.385
0
LINE
8
BLUE3
6
CONTINUOUS
10
8.767
20
-1.385
11
8.764
21
-1.387
0
LINE
8
BLUE3
6
CONTINUOUS
10
8.764
20
-1.387
11
8.762
21
-1.385
0
LINE
8
BLUE3
6
CONTINUOUS
10
8.762
20
-1.385
11
8.764
21
-1.382
0
LINE
8
BLUE3
6
CONTINUOUS
10
8.764
20
-1.382
11
8.764
21
-1.387
0
POLYLINE
8
GREEN2
66
1
70
1
40
0.02
41
0.02
0
VERTEX
8
GREEN2
10
3.79
 20
-1.1
42
1.0
0
VERTEX
8
GREEN2
10
3.81
 20
-1.1
42
1.0
0
SEQEND
  0
ENDSEC
  0
EOF
