<?xml version="1.0" standalone="no"?>
 <!DOCTYPE svg PUBLIC "-//W3C//DTD SVG 1.1//EN" 
 "http://www.w3.org/Graphics/SVG/1.1/DTD/svg11.dtd"> 
<svg xmlns="http://www.w3.org/2000/svg" version="1.1" 
    width="29.7002cm" height="21.0007cm" viewBox="0 0 116930 82680 ">
<title>SVG Picture created as Si5351_Filter-Si5351 atenuator.svg date 2020/04/17 13:07:27 </title>
  <desc>Picture generated by Eeschema-SVG </desc>
<g style="fill:#000000; fill-opacity:1;stroke:#000000; stroke-opacity:1;
stroke-linecap:round; stroke-linejoin:round; "
 transform="translate(0 0) scale(1 1)">
</g>
<g style="fill:#000000; fill-opacity:0.0; 
stroke:#000000; stroke-width:-10; stroke-opacity:1; 
stroke-linecap:round; stroke-linejoin:round;">
</g>
<g style="fill:#840000; fill-opacity:0.0; 
stroke:#840000; stroke-width:-10; stroke-opacity:1; 
stroke-linecap:round; stroke-linejoin:round;">
</g>
<g style="fill:#840000; fill-opacity:0.0; 
stroke:#840000; stroke-width:100; stroke-opacity:1; 
stroke-linecap:round; stroke-linejoin:round;">
</g>
<g style="fill:#840000; fill-opacity:0.0; 
stroke:#840000; stroke-width:60; stroke-opacity:1; 
stroke-linecap:round; stroke-linejoin:round;">
<rect x="69690" y="65360" width="42520" height="12600" rx="0" />
</g>
<g style="fill:#840000; fill-opacity:0.0; 
stroke:#840000; stroke-width:100; stroke-opacity:1; 
stroke-linecap:round; stroke-linejoin:round;">
</g>
<g style="fill:#840000; fill-opacity:0.0; 
stroke:#840000; stroke-width:60; stroke-opacity:1; 
stroke-linecap:round; stroke-linejoin:round;">
<rect x="3940" y="3940" width="109050" height="74800" rx="0" />
</g>
<g style="fill:#840000; fill-opacity:0.0; 
stroke:#840000; stroke-width:100; stroke-opacity:1; 
stroke-linecap:round; stroke-linejoin:round;">
</g>
<g style="fill:#840000; fill-opacity:0.0; 
stroke:#840000; stroke-width:60; stroke-opacity:1; 
stroke-linecap:round; stroke-linejoin:round;">
<rect x="4720" y="4720" width="107490" height="73240" rx="0" />
</g>
<g style="fill:#840000; fill-opacity:0.0; 
stroke:#840000; stroke-width:100; stroke-opacity:1; 
stroke-linecap:round; stroke-linejoin:round;">
</g>
<g style="fill:#840000; fill-opacity:0.0; 
stroke:#840000; stroke-width:60; stroke-opacity:1; 
stroke-linecap:round; stroke-linejoin:round;">
<path d="M23620 4720
L23620 3940
" />
</g>
<g style="fill:#840000; fill-opacity:0.0; 
stroke:#840000; stroke-width:100; stroke-opacity:1; 
stroke-linecap:round; stroke-linejoin:round;">
</g>
<g style="fill:#840000; fill-opacity:0.0; 
stroke:#840000; stroke-width:60; stroke-opacity:1; 
stroke-linecap:round; stroke-linejoin:round;">
<path d="M43310 4720
L43310 3940
" />
</g>
<g style="fill:#840000; fill-opacity:0.0; 
stroke:#840000; stroke-width:100; stroke-opacity:1; 
stroke-linecap:round; stroke-linejoin:round;">
</g>
<g style="fill:#840000; fill-opacity:0.0; 
stroke:#840000; stroke-width:60; stroke-opacity:1; 
stroke-linecap:round; stroke-linejoin:round;">
<path d="M62990 4720
L62990 3940
" />
</g>
<g style="fill:#840000; fill-opacity:0.0; 
stroke:#840000; stroke-width:100; stroke-opacity:1; 
stroke-linecap:round; stroke-linejoin:round;">
</g>
<g style="fill:#840000; fill-opacity:0.0; 
stroke:#840000; stroke-width:60; stroke-opacity:1; 
stroke-linecap:round; stroke-linejoin:round;">
<path d="M82680 4720
L82680 3940
" />
</g>
<g style="fill:#840000; fill-opacity:0.0; 
stroke:#840000; stroke-width:100; stroke-opacity:1; 
stroke-linecap:round; stroke-linejoin:round;">
</g>
<g style="fill:#840000; fill-opacity:0.0; 
stroke:#840000; stroke-width:60; stroke-opacity:1; 
stroke-linecap:round; stroke-linejoin:round;">
<path d="M102360 4720
L102360 3940
" />
</g>
<g style="fill:#840000; fill-opacity:0.0; 
stroke:#840000; stroke-width:100; stroke-opacity:1; 
stroke-linecap:round; stroke-linejoin:round;">
</g>
<g style="fill:#840000; fill-opacity:0.0; 
stroke:#840000; stroke-width:60; stroke-opacity:1; 
stroke-linecap:round; stroke-linejoin:round;">
<path d="M14190 4560
L13900 4560
" />
<path d="M14050 4560
L14050 4050
L14000 4120
L13950 4170
L13900 4190
" />
</g>
<g style="fill:#840000; fill-opacity:0.0; 
stroke:#840000; stroke-width:100; stroke-opacity:1; 
stroke-linecap:round; stroke-linejoin:round;">
</g>
<g style="fill:#840000; fill-opacity:0.0; 
stroke:#840000; stroke-width:60; stroke-opacity:1; 
stroke-linecap:round; stroke-linejoin:round;">
<path d="M33580 4090
L33610 4070
L33660 4050
L33780 4050
L33830 4070
L33850 4090
L33870 4140
L33870 4190
L33850 4260
L33560 4560
L33870 4560
" />
</g>
<g style="fill:#840000; fill-opacity:0.0; 
stroke:#840000; stroke-width:100; stroke-opacity:1; 
stroke-linecap:round; stroke-linejoin:round;">
</g>
<g style="fill:#840000; fill-opacity:0.0; 
stroke:#840000; stroke-width:60; stroke-opacity:1; 
stroke-linecap:round; stroke-linejoin:round;">
<path d="M53250 4050
L53560 4050
L53390 4240
L53470 4240
L53520 4260
L53540 4290
L53560 4340
L53560 4460
L53540 4510
L53520 4530
L53470 4560
L53320 4560
L53270 4530
L53250 4510
" />
</g>
<g style="fill:#840000; fill-opacity:0.0; 
stroke:#840000; stroke-width:100; stroke-opacity:1; 
stroke-linecap:round; stroke-linejoin:round;">
</g>
<g style="fill:#840000; fill-opacity:0.0; 
stroke:#840000; stroke-width:60; stroke-opacity:1; 
stroke-linecap:round; stroke-linejoin:round;">
<path d="M73200 4220
L73200 4560
" />
<path d="M73070 4020
L72950 4390
L73270 4390
" />
</g>
<g style="fill:#840000; fill-opacity:0.0; 
stroke:#840000; stroke-width:100; stroke-opacity:1; 
stroke-linecap:round; stroke-linejoin:round;">
</g>
<g style="fill:#840000; fill-opacity:0.0; 
stroke:#840000; stroke-width:60; stroke-opacity:1; 
stroke-linecap:round; stroke-linejoin:round;">
<path d="M92910 4050
L92670 4050
L92640 4290
L92670 4260
L92720 4240
L92840 4240
L92890 4260
L92910 4290
L92930 4340
L92930 4460
L92910 4510
L92890 4530
L92840 4560
L92720 4560
L92670 4530
L92640 4510
" />
</g>
<g style="fill:#840000; fill-opacity:0.0; 
stroke:#840000; stroke-width:100; stroke-opacity:1; 
stroke-linecap:round; stroke-linejoin:round;">
</g>
<g style="fill:#840000; fill-opacity:0.0; 
stroke:#840000; stroke-width:60; stroke-opacity:1; 
stroke-linecap:round; stroke-linejoin:round;">
<path d="M112570 4050
L112470 4050
L112420 4070
L112400 4090
L112350 4170
L112320 4260
L112320 4460
L112350 4510
L112370 4530
L112420 4560
L112520 4560
L112570 4530
L112590 4510
L112610 4460
L112610 4340
L112590 4290
L112570 4260
L112520 4240
L112420 4240
L112370 4260
L112350 4290
L112320 4340
" />
</g>
<g style="fill:#840000; fill-opacity:0.0; 
stroke:#840000; stroke-width:100; stroke-opacity:1; 
stroke-linecap:round; stroke-linejoin:round;">
</g>
<g style="fill:#840000; fill-opacity:0.0; 
stroke:#840000; stroke-width:60; stroke-opacity:1; 
stroke-linecap:round; stroke-linejoin:round;">
<path d="M23620 77960
L23620 78740
" />
</g>
<g style="fill:#840000; fill-opacity:0.0; 
stroke:#840000; stroke-width:100; stroke-opacity:1; 
stroke-linecap:round; stroke-linejoin:round;">
</g>
<g style="fill:#840000; fill-opacity:0.0; 
stroke:#840000; stroke-width:60; stroke-opacity:1; 
stroke-linecap:round; stroke-linejoin:round;">
<path d="M43310 77960
L43310 78740
" />
</g>
<g style="fill:#840000; fill-opacity:0.0; 
stroke:#840000; stroke-width:100; stroke-opacity:1; 
stroke-linecap:round; stroke-linejoin:round;">
</g>
<g style="fill:#840000; fill-opacity:0.0; 
stroke:#840000; stroke-width:60; stroke-opacity:1; 
stroke-linecap:round; stroke-linejoin:round;">
<path d="M62990 77960
L62990 78740
" />
</g>
<g style="fill:#840000; fill-opacity:0.0; 
stroke:#840000; stroke-width:100; stroke-opacity:1; 
stroke-linecap:round; stroke-linejoin:round;">
</g>
<g style="fill:#840000; fill-opacity:0.0; 
stroke:#840000; stroke-width:60; stroke-opacity:1; 
stroke-linecap:round; stroke-linejoin:round;">
<path d="M82680 77960
L82680 78740
" />
</g>
<g style="fill:#840000; fill-opacity:0.0; 
stroke:#840000; stroke-width:100; stroke-opacity:1; 
stroke-linecap:round; stroke-linejoin:round;">
</g>
<g style="fill:#840000; fill-opacity:0.0; 
stroke:#840000; stroke-width:60; stroke-opacity:1; 
stroke-linecap:round; stroke-linejoin:round;">
<path d="M102360 77960
L102360 78740
" />
</g>
<g style="fill:#840000; fill-opacity:0.0; 
stroke:#840000; stroke-width:100; stroke-opacity:1; 
stroke-linecap:round; stroke-linejoin:round;">
</g>
<g style="fill:#840000; fill-opacity:0.0; 
stroke:#840000; stroke-width:60; stroke-opacity:1; 
stroke-linecap:round; stroke-linejoin:round;">
<path d="M14190 78580
L13900 78580
" />
<path d="M14050 78580
L14050 78070
L14000 78140
L13950 78190
L13900 78210
" />
</g>
<g style="fill:#840000; fill-opacity:0.0; 
stroke:#840000; stroke-width:100; stroke-opacity:1; 
stroke-linecap:round; stroke-linejoin:round;">
</g>
<g style="fill:#840000; fill-opacity:0.0; 
stroke:#840000; stroke-width:60; stroke-opacity:1; 
stroke-linecap:round; stroke-linejoin:round;">
<path d="M33580 78110
L33610 78090
L33660 78070
L33780 78070
L33830 78090
L33850 78110
L33870 78160
L33870 78210
L33850 78280
L33560 78580
L33870 78580
" />
</g>
<g style="fill:#840000; fill-opacity:0.0; 
stroke:#840000; stroke-width:100; stroke-opacity:1; 
stroke-linecap:round; stroke-linejoin:round;">
</g>
<g style="fill:#840000; fill-opacity:0.0; 
stroke:#840000; stroke-width:60; stroke-opacity:1; 
stroke-linecap:round; stroke-linejoin:round;">
<path d="M53250 78070
L53560 78070
L53390 78260
L53470 78260
L53520 78280
L53540 78310
L53560 78360
L53560 78480
L53540 78530
L53520 78550
L53470 78580
L53320 78580
L53270 78550
L53250 78530
" />
</g>
<g style="fill:#840000; fill-opacity:0.0; 
stroke:#840000; stroke-width:100; stroke-opacity:1; 
stroke-linecap:round; stroke-linejoin:round;">
</g>
<g style="fill:#840000; fill-opacity:0.0; 
stroke:#840000; stroke-width:60; stroke-opacity:1; 
stroke-linecap:round; stroke-linejoin:round;">
<path d="M73200 78240
L73200 78580
" />
<path d="M73070 78040
L72950 78410
L73270 78410
" />
</g>
<g style="fill:#840000; fill-opacity:0.0; 
stroke:#840000; stroke-width:100; stroke-opacity:1; 
stroke-linecap:round; stroke-linejoin:round;">
</g>
<g style="fill:#840000; fill-opacity:0.0; 
stroke:#840000; stroke-width:60; stroke-opacity:1; 
stroke-linecap:round; stroke-linejoin:round;">
<path d="M92910 78070
L92670 78070
L92640 78310
L92670 78280
L92720 78260
L92840 78260
L92890 78280
L92910 78310
L92930 78360
L92930 78480
L92910 78530
L92890 78550
L92840 78580
L92720 78580
L92670 78550
L92640 78530
" />
</g>
<g style="fill:#840000; fill-opacity:0.0; 
stroke:#840000; stroke-width:100; stroke-opacity:1; 
stroke-linecap:round; stroke-linejoin:round;">
</g>
<g style="fill:#840000; fill-opacity:0.0; 
stroke:#840000; stroke-width:60; stroke-opacity:1; 
stroke-linecap:round; stroke-linejoin:round;">
<path d="M112570 78070
L112470 78070
L112420 78090
L112400 78110
L112350 78190
L112320 78280
L112320 78480
L112350 78530
L112370 78550
L112420 78580
L112520 78580
L112570 78550
L112590 78530
L112610 78480
L112610 78360
L112590 78310
L112570 78280
L112520 78260
L112420 78260
L112370 78280
L112350 78310
L112320 78360
" />
</g>
<g style="fill:#840000; fill-opacity:0.0; 
stroke:#840000; stroke-width:100; stroke-opacity:1; 
stroke-linecap:round; stroke-linejoin:round;">
</g>
<g style="fill:#840000; fill-opacity:0.0; 
stroke:#840000; stroke-width:60; stroke-opacity:1; 
stroke-linecap:round; stroke-linejoin:round;">
<path d="M3940 23620
L4720 23620
" />
</g>
<g style="fill:#840000; fill-opacity:0.0; 
stroke:#840000; stroke-width:100; stroke-opacity:1; 
stroke-linecap:round; stroke-linejoin:round;">
</g>
<g style="fill:#840000; fill-opacity:0.0; 
stroke:#840000; stroke-width:60; stroke-opacity:1; 
stroke-linecap:round; stroke-linejoin:round;">
<path d="M3940 43310
L4720 43310
" />
</g>
<g style="fill:#840000; fill-opacity:0.0; 
stroke:#840000; stroke-width:100; stroke-opacity:1; 
stroke-linecap:round; stroke-linejoin:round;">
</g>
<g style="fill:#840000; fill-opacity:0.0; 
stroke:#840000; stroke-width:60; stroke-opacity:1; 
stroke-linecap:round; stroke-linejoin:round;">
<path d="M3940 62990
L4720 62990
" />
</g>
<g style="fill:#840000; fill-opacity:0.0; 
stroke:#840000; stroke-width:100; stroke-opacity:1; 
stroke-linecap:round; stroke-linejoin:round;">
</g>
<g style="fill:#840000; fill-opacity:0.0; 
stroke:#840000; stroke-width:60; stroke-opacity:1; 
stroke-linecap:round; stroke-linejoin:round;">
<path d="M4200 13860
L4450 13860
" />
<path d="M4160 14010
L4330 13500
L4500 14010
" />
</g>
<g style="fill:#840000; fill-opacity:0.0; 
stroke:#840000; stroke-width:100; stroke-opacity:1; 
stroke-linecap:round; stroke-linejoin:round;">
</g>
<g style="fill:#840000; fill-opacity:0.0; 
stroke:#840000; stroke-width:60; stroke-opacity:1; 
stroke-linecap:round; stroke-linejoin:round;">
<path d="M4360 33420
L4430 33440
L4460 33470
L4480 33520
L4480 33590
L4460 33640
L4430 33660
L4390 33690
L4190 33690
L4190 33180
L4360 33180
L4410 33200
L4430 33220
L4460 33270
L4460 33320
L4430 33370
L4410 33390
L4360 33420
L4190 33420
" />
</g>
<g style="fill:#840000; fill-opacity:0.0; 
stroke:#840000; stroke-width:100; stroke-opacity:1; 
stroke-linecap:round; stroke-linejoin:round;">
</g>
<g style="fill:#840000; fill-opacity:0.0; 
stroke:#840000; stroke-width:60; stroke-opacity:1; 
stroke-linecap:round; stroke-linejoin:round;">
<path d="M4480 53330
L4460 53350
L4390 53380
L4340 53380
L4260 53350
L4220 53300
L4190 53250
L4170 53160
L4170 53080
L4190 52990
L4220 52940
L4260 52890
L4340 52870
L4390 52870
L4460 52890
L4480 52910
" />
</g>
<g style="fill:#840000; fill-opacity:0.0; 
stroke:#840000; stroke-width:100; stroke-opacity:1; 
stroke-linecap:round; stroke-linejoin:round;">
</g>
<g style="fill:#840000; fill-opacity:0.0; 
stroke:#840000; stroke-width:60; stroke-opacity:1; 
stroke-linecap:round; stroke-linejoin:round;">
<path d="M4190 73060
L4190 72550
L4310 72550
L4390 72570
L4430 72620
L4460 72670
L4480 72760
L4480 72840
L4460 72930
L4430 72980
L4390 73030
L4310 73060
L4190 73060
" />
</g>
<g style="fill:#840000; fill-opacity:0.0; 
stroke:#840000; stroke-width:100; stroke-opacity:1; 
stroke-linecap:round; stroke-linejoin:round;">
</g>
<g style="fill:#840000; fill-opacity:0.0; 
stroke:#840000; stroke-width:60; stroke-opacity:1; 
stroke-linecap:round; stroke-linejoin:round;">
<path d="M112990 23620
L112210 23620
" />
</g>
<g style="fill:#840000; fill-opacity:0.0; 
stroke:#840000; stroke-width:100; stroke-opacity:1; 
stroke-linecap:round; stroke-linejoin:round;">
</g>
<g style="fill:#840000; fill-opacity:0.0; 
stroke:#840000; stroke-width:60; stroke-opacity:1; 
stroke-linecap:round; stroke-linejoin:round;">
<path d="M112990 43310
L112210 43310
" />
</g>
<g style="fill:#840000; fill-opacity:0.0; 
stroke:#840000; stroke-width:100; stroke-opacity:1; 
stroke-linecap:round; stroke-linejoin:round;">
</g>
<g style="fill:#840000; fill-opacity:0.0; 
stroke:#840000; stroke-width:60; stroke-opacity:1; 
stroke-linecap:round; stroke-linejoin:round;">
<path d="M112990 62990
L112210 62990
" />
</g>
<g style="fill:#840000; fill-opacity:0.0; 
stroke:#840000; stroke-width:100; stroke-opacity:1; 
stroke-linecap:round; stroke-linejoin:round;">
</g>
<g style="fill:#840000; fill-opacity:0.0; 
stroke:#840000; stroke-width:60; stroke-opacity:1; 
stroke-linecap:round; stroke-linejoin:round;">
<path d="M112470 13860
L112720 13860
" />
<path d="M112430 14010
L112600 13500
L112770 14010
" />
</g>
<g style="fill:#840000; fill-opacity:0.0; 
stroke:#840000; stroke-width:100; stroke-opacity:1; 
stroke-linecap:round; stroke-linejoin:round;">
</g>
<g style="fill:#840000; fill-opacity:0.0; 
stroke:#840000; stroke-width:60; stroke-opacity:1; 
stroke-linecap:round; stroke-linejoin:round;">
<path d="M112630 33420
L112700 33440
L112730 33470
L112750 33520
L112750 33590
L112730 33640
L112700 33660
L112660 33690
L112460 33690
L112460 33180
L112630 33180
L112680 33200
L112700 33220
L112730 33270
L112730 33320
L112700 33370
L112680 33390
L112630 33420
L112460 33420
" />
</g>
<g style="fill:#840000; fill-opacity:0.0; 
stroke:#840000; stroke-width:100; stroke-opacity:1; 
stroke-linecap:round; stroke-linejoin:round;">
</g>
<g style="fill:#840000; fill-opacity:0.0; 
stroke:#840000; stroke-width:60; stroke-opacity:1; 
stroke-linecap:round; stroke-linejoin:round;">
<path d="M112750 53330
L112730 53350
L112660 53380
L112610 53380
L112530 53350
L112490 53300
L112460 53250
L112440 53160
L112440 53080
L112460 52990
L112490 52940
L112530 52890
L112610 52870
L112660 52870
L112730 52890
L112750 52910
" />
</g>
<g style="fill:#840000; fill-opacity:0.0; 
stroke:#840000; stroke-width:100; stroke-opacity:1; 
stroke-linecap:round; stroke-linejoin:round;">
</g>
<g style="fill:#840000; fill-opacity:0.0; 
stroke:#840000; stroke-width:60; stroke-opacity:1; 
stroke-linecap:round; stroke-linejoin:round;">
<path d="M112460 73060
L112460 72550
L112580 72550
L112660 72570
L112700 72620
L112730 72670
L112750 72760
L112750 72840
L112730 72930
L112700 72980
L112660 73030
L112580 73060
L112460 73060
" />
</g>
<g style="fill:#840000; fill-opacity:0.0; 
stroke:#840000; stroke-width:100; stroke-opacity:1; 
stroke-linecap:round; stroke-linejoin:round;">
</g>
<g style="fill:#840000; fill-opacity:0.0; 
stroke:#840000; stroke-width:60; stroke-opacity:1; 
stroke-linecap:round; stroke-linejoin:round;">
<path d="M78910 76290
L78910 75700
L79050 75700
L79130 75730
L79190 75790
L79210 75840
L79240 75950
L79240 76040
L79210 76150
L79190 76210
L79130 76260
L79050 76290
L78910 76290
" />
<path d="M79750 76290
L79750 75980
L79720 75930
L79660 75900
L79550 75900
L79500 75930
" />
<path d="M79750 76260
L79690 76290
L79550 76290
L79500 76260
L79470 76210
L79470 76150
L79500 76100
L79550 76070
L79690 76070
L79750 76040
" />
<path d="M79950 75900
L80170 75900
" />
<path d="M80030 75700
L80030 76210
L80060 76260
L80110 76290
L80170 76290
" />
<path d="M80590 76260
L80540 76290
L80420 76290
L80370 76260
L80340 76210
L80340 75980
L80370 75930
L80420 75900
L80540 75900
L80590 75930
L80620 75980
L80620 76040
L80340 76100
" />
<path d="M80870 76240
L80900 76260
L80870 76290
L80840 76260
L80870 76240
L80870 76290
" />
<path d="M80870 75930
L80900 75950
L80870 75980
L80840 75950
L80870 75930
L80870 75980
" />
</g>
<g style="fill:#840000; fill-opacity:0.0; 
stroke:#840000; stroke-width:100; stroke-opacity:1; 
stroke-linecap:round; stroke-linejoin:round;">
</g>
<g style="fill:#840000; fill-opacity:0.0; 
stroke:#840000; stroke-width:60; stroke-opacity:1; 
stroke-linecap:round; stroke-linejoin:round;">
<path d="M69690 76580
L112210 76580
" />
</g>
<g style="fill:#840000; fill-opacity:0.0; 
stroke:#840000; stroke-width:100; stroke-opacity:1; 
stroke-linecap:round; stroke-linejoin:round;">
</g>
<g style="fill:#840000; fill-opacity:0.0; 
stroke:#840000; stroke-width:60; stroke-opacity:1; 
stroke-linecap:round; stroke-linejoin:round;">
<path d="M70250 77390
L70250 76800
" />
<path d="M70580 77390
L70330 77050
" />
<path d="M70580 76800
L70250 77140
" />
<path d="M70840 77390
L70840 77000
" />
<path d="M70840 76800
L70810 76830
L70840 76860
L70860 76830
L70840 76800
L70840 76860
" />
<path d="M71450 77340
L71430 77360
L71340 77390
L71290 77390
L71200 77360
L71140 77310
L71120 77250
L71090 77140
L71090 77050
L71120 76940
L71140 76890
L71200 76830
L71290 76800
L71340 76800
L71430 76830
L71450 76860
" />
<path d="M71960 77390
L71960 77080
L71930 77030
L71880 77000
L71760 77000
L71710 77030
" />
<path d="M71960 77360
L71900 77390
L71760 77390
L71710 77360
L71680 77310
L71680 77250
L71710 77200
L71760 77170
L71900 77170
L71960 77140
" />
<path d="M72490 77390
L72490 76800
" />
<path d="M72490 77360
L72440 77390
L72320 77390
L72270 77360
L72240 77340
L72210 77280
L72210 77110
L72240 77050
L72270 77030
L72320 77000
L72440 77000
L72490 77030
" />
<path d="M73220 77080
L73420 77080
" />
<path d="M73500 77390
L73220 77390
L73220 76800
L73500 76800
" />
<path d="M73760 77340
L73790 77360
L73760 77390
L73730 77360
L73760 77340
L73760 77390
" />
<path d="M74040 77390
L74040 76800
L74180 76800
L74260 76830
L74320 76890
L74350 76940
L74380 77050
L74380 77140
L74350 77250
L74320 77310
L74260 77360
L74180 77390
L74040 77390
" />
<path d="M74630 77340
L74660 77360
L74630 77390
L74600 77360
L74630 77340
L74630 77390
" />
<path d="M74880 77220
L75160 77220
" />
<path d="M74830 77390
L75020 76800
L75220 77390
" />
<path d="M75420 77340
L75440 77360
L75420 77390
L75390 77360
L75420 77340
L75420 77390
" />
<path d="M76600 77390
L76600 76800
" />
<path d="M76650 77170
L76820 77390
" />
<path d="M76820 77000
L76600 77220
" />
<path d="M77070 77390
L77070 77000
" />
<path d="M77070 76800
L77040 76830
L77070 76860
L77100 76830
L77070 76800
L77070 76860
" />
<path d="M77610 77360
L77550 77390
L77440 77390
L77380 77360
L77350 77340
L77330 77280
L77330 77110
L77350 77050
L77380 77030
L77440 77000
L77550 77000
L77610 77030
" />
<path d="M78110 77390
L78110 77080
L78080 77030
L78030 77000
L77920 77000
L77860 77030
" />
<path d="M78110 77360
L78060 77390
L77920 77390
L77860 77360
L77830 77310
L77830 77250
L77860 77200
L77920 77170
L78060 77170
L78110 77140
" />
<path d="M78650 77390
L78650 76800
" />
<path d="M78650 77360
L78590 77390
L78480 77390
L78420 77360
L78390 77340
L78370 77280
L78370 77110
L78390 77050
L78420 77030
L78480 77000
L78590 77000
L78650 77030
" />
<path d="M79660 76800
L79380 76800
L79350 77080
L79380 77050
L79430 77030
L79570 77030
L79630 77050
L79660 77080
L79690 77140
L79690 77280
L79660 77340
L79630 77360
L79570 77390
L79430 77390
L79380 77360
L79350 77340
" />
<path d="M79940 77340
L79970 77360
L79940 77390
L79910 77360
L79940 77340
L79940 77390
" />
<path d="M80530 77390
L80190 77390
" />
<path d="M80360 77390
L80360 76800
L80300 76890
L80250 76940
L80190 76970
" />
<path d="M80780 77340
L80810 77360
L80780 77390
L80750 77360
L80780 77340
L80780 77390
" />
<path d="M81320 77000
L81320 77390
" />
<path d="M81170 76770
L81030 77200
L81400 77200
" />
<path d="M81620 77170
L82070 77170
" />
<path d="M81850 77390
L81850 76940
" />
<path d="M82610 77390
L82610 76800
" />
<path d="M82610 77360
L82550 77390
L82440 77390
L82380 77360
L82350 77340
L82330 77280
L82330 77110
L82350 77050
L82380 77030
L82440 77000
L82550 77000
L82610 77030
" />
<path d="M82800 77000
L83030 77000
" />
<path d="M82890 77390
L82890 76890
L82920 76830
L82970 76800
L83030 76800
" />
<path d="M83200 77360
L83250 77390
L83370 77390
L83420 77360
L83450 77310
L83450 77280
L83420 77220
L83370 77200
L83280 77200
L83230 77170
L83200 77110
L83200 77080
L83230 77030
L83280 77000
L83370 77000
L83420 77030
" />
<path d="M83960 77000
L83960 77480
L83930 77530
L83900 77560
L83840 77590
L83760 77590
L83700 77560
" />
<path d="M83960 77360
L83900 77390
L83790 77390
L83730 77360
L83700 77340
L83680 77280
L83680 77110
L83700 77050
L83730 77030
L83790 77000
L83900 77000
L83960 77030
" />
<path d="M84550 77390
L84210 77390
" />
<path d="M84380 77390
L84380 76800
L84320 76890
L84270 76940
L84210 76970
" />
<path d="M84800 77170
L85250 77170
" />
<path d="M85840 77390
L85500 77390
" />
<path d="M85670 77390
L85670 76800
L85610 76890
L85560 76940
L85500 76970
" />
</g>
<g style="fill:#840000; fill-opacity:0.0; 
stroke:#840000; stroke-width:100; stroke-opacity:1; 
stroke-linecap:round; stroke-linejoin:round;">
</g>
<g style="fill:#840000; fill-opacity:0.0; 
stroke:#840000; stroke-width:60; stroke-opacity:1; 
stroke-linecap:round; stroke-linejoin:round;">
<path d="M69690 75400
L112210 75400
" />
</g>
<g style="fill:#840000; fill-opacity:0.0; 
stroke:#840000; stroke-width:100; stroke-opacity:1; 
stroke-linecap:round; stroke-linejoin:round;">
</g>
<g style="fill:#840000; fill-opacity:0.0; 
stroke:#840000; stroke-width:120; stroke-opacity:1; 
stroke-linecap:round; stroke-linejoin:round;">
<path d="M104090 76290
L103890 76010
" />
<path d="M103750 76290
L103750 75700
L103980 75700
L104030 75730
L104060 75760
L104090 75810
L104090 75900
L104060 75950
L104030 75980
L103980 76010
L103750 76010
" />
<path d="M104570 76260
L104510 76290
L104400 76290
L104340 76260
L104320 76210
L104320 75980
L104340 75930
L104400 75900
L104510 75900
L104570 75930
L104600 75980
L104600 76040
L104320 76100
" />
<path d="M104790 75900
L104930 76290
L105070 75900
" />
<path d="M105300 76240
L105330 76260
L105300 76290
L105270 76260
L105300 76240
L105300 76290
" />
<path d="M105300 75930
L105330 75950
L105300 75980
L105270 75950
L105300 75930
L105300 75980
" />
</g>
<g style="fill:#840000; fill-opacity:0.0; 
stroke:#840000; stroke-width:100; stroke-opacity:1; 
stroke-linecap:round; stroke-linejoin:round;">
</g>
<g style="fill:#840000; fill-opacity:0.0; 
stroke:#840000; stroke-width:60; stroke-opacity:1; 
stroke-linecap:round; stroke-linejoin:round;">
<path d="M70220 76260
L70300 76290
L70440 76290
L70500 76260
L70530 76240
L70550 76180
L70550 76120
L70530 76070
L70500 76040
L70440 76010
L70330 75980
L70270 75950
L70250 75930
L70220 75870
L70220 75810
L70250 75760
L70270 75730
L70330 75700
L70470 75700
L70550 75730
" />
<path d="M70810 76290
L70810 75900
" />
<path d="M70810 75700
L70780 75730
L70810 75760
L70840 75730
L70810 75700
L70810 75760
" />
<path d="M71030 75900
L71340 75900
L71030 76290
L71340 76290
" />
<path d="M71790 76260
L71730 76290
L71620 76290
L71570 76260
L71540 76210
L71540 75980
L71570 75930
L71620 75900
L71730 75900
L71790 75930
L71820 75980
L71820 76040
L71540 76100
" />
<path d="M72070 76240
L72100 76260
L72070 76290
L72040 76260
L72070 76240
L72070 76290
" />
<path d="M72070 75930
L72100 75950
L72070 75980
L72040 75950
L72070 75930
L72070 75980
" />
<path d="M72770 76120
L73060 76120
" />
<path d="M72720 76290
L72910 75700
L73110 76290
" />
<path d="M73560 75900
L73560 76290
" />
<path d="M73420 75670
L73280 76100
L73650 76100
" />
</g>
<g style="fill:#840000; fill-opacity:0.0; 
stroke:#840000; stroke-width:100; stroke-opacity:1; 
stroke-linecap:round; stroke-linejoin:round;">
</g>
<g style="fill:#840000; fill-opacity:0.0; 
stroke:#840000; stroke-width:60; stroke-opacity:1; 
stroke-linecap:round; stroke-linejoin:round;">
<path d="M103710 77390
L103710 76800
" />
<path d="M104240 77390
L104240 76800
" />
<path d="M104240 77360
L104180 77390
L104070 77390
L104010 77360
L103990 77340
L103960 77280
L103960 77110
L103990 77050
L104010 77030
L104070 77000
L104180 77000
L104240 77030
" />
<path d="M104520 77340
L104550 77360
L104520 77390
L104490 77360
L104520 77340
L104520 77390
" />
<path d="M104520 77030
L104550 77050
L104520 77080
L104490 77050
L104520 77030
L104520 77080
" />
<path d="M105220 76860
L105250 76830
L105310 76800
L105450 76800
L105500 76830
L105530 76860
L105560 76910
L105560 76970
L105530 77050
L105190 77390
L105560 77390
" />
<path d="M106230 76770
L105730 77530
" />
<path d="M106680 77000
L106680 77390
" />
<path d="M106540 76770
L106400 77200
L106770 77200
" />
</g>
<g style="fill:#840000; fill-opacity:0.0; 
stroke:#840000; stroke-width:100; stroke-opacity:1; 
stroke-linecap:round; stroke-linejoin:round;">
</g>
<g style="fill:#840000; fill-opacity:0.0; 
stroke:#840000; stroke-width:60; stroke-opacity:1; 
stroke-linecap:round; stroke-linejoin:round;">
<path d="M69690 73820
L112210 73820
" />
</g>
<g style="fill:#840000; fill-opacity:0.0; 
stroke:#840000; stroke-width:100; stroke-opacity:1; 
stroke-linecap:round; stroke-linejoin:round;">
</g>
<g style="fill:#840000; fill-opacity:0.0; 
stroke:#840000; stroke-width:160; stroke-opacity:1; 
stroke-linecap:round; stroke-linejoin:round;">
<path d="M70360 74090
L70810 74090
" />
<path d="M70480 74880
L70580 74090
" />
<path d="M70970 74880
L71040 74360
" />
<path d="M71070 74090
L71030 74130
L71060 74170
L71110 74130
L71070 74090
L71060 74170
" />
<path d="M71300 74360
L71600 74360
" />
<path d="M71450 74090
L71360 74770
L71390 74840
L71460 74880
L71540 74880
" />
<path d="M71910 74880
L71840 74840
L71820 74770
L71900 74090
" />
<path d="M72520 74840
L72440 74880
L72290 74880
L72220 74840
L72190 74770
L72230 74470
L72280 74390
L72360 74360
L72510 74360
L72580 74390
L72610 74470
L72600 74540
L72210 74620
" />
<path d="M72900 74810
L72930 74840
L72890 74880
L72860 74840
L72900 74810
L72890 74880
" />
<path d="M72950 74390
L72990 74430
L72940 74470
L72910 74430
L72950 74390
L72940 74470
" />
<path d="M73860 74660
L74240 74660
" />
<path d="M73760 74880
L74120 74090
L74280 74880
" />
<path d="M74550 74880
L74650 74090
L74840 74660
L75170 74090
L75070 74880
" />
<path d="M76690 74880
L76650 74880
L76580 74840
L76480 74730
L76330 74510
L76260 74390
L76240 74280
L76250 74210
L76300 74130
L76380 74090
L76410 74090
L76480 74130
L76510 74210
L76510 74240
L76460 74320
L76420 74360
L76170 74510
L76130 74540
L76090 74620
L76070 74730
L76100 74810
L76130 74840
L76200 74880
L76320 74880
L76400 74840
L76440 74810
L76570 74660
L76620 74540
L76630 74470
" />
<path d="M77950 74470
L77680 74470
" />
<path d="M77630 74880
L77730 74090
L78110 74090
" />
<path d="M78310 74880
L78410 74090
L78600 74660
L78930 74090
L78840 74880
" />
<path d="M79800 74090
L80250 74090
" />
<path d="M79930 74880
L80030 74090
" />
<path d="M80420 74880
L80480 74360
" />
<path d="M80460 74510
L80510 74430
L80550 74390
L80630 74360
L80710 74360
" />
<path d="M81240 74880
L81300 74470
L81270 74390
L81200 74360
L81050 74360
L80970 74390
" />
<path d="M81250 74840
L81170 74880
L80980 74880
L80910 74840
L80880 74770
L80890 74690
L80940 74620
L81020 74580
L81210 74580
L81290 74540
" />
<path d="M81690 74360
L81620 74880
" />
<path d="M81680 74430
L81720 74390
L81800 74360
L81910 74360
L81980 74390
L82010 74470
L81960 74880
" />
<path d="M82300 74840
L82370 74880
L82520 74880
L82600 74840
L82650 74770
L82650 74730
L82630 74660
L82560 74620
L82440 74620
L82370 74580
L82340 74510
L82350 74470
L82400 74390
L82480 74360
L82590 74360
L82660 74390
" />
<path d="M83320 74840
L83240 74880
L83090 74880
L83020 74840
L82980 74810
L82960 74730
L82980 74510
L83030 74430
L83070 74390
L83150 74360
L83300 74360
L83370 74390
" />
<path d="M83960 74840
L83880 74880
L83730 74880
L83660 74840
L83630 74770
L83670 74470
L83710 74390
L83790 74360
L83940 74360
L84010 74390
L84040 74470
L84030 74540
L83650 74620
" />
<path d="M84330 74880
L84390 74360
" />
<path d="M84430 74090
L84380 74130
L84420 74170
L84460 74130
L84430 74090
L84420 74170
" />
<path d="M84700 74360
L84820 74880
L85070 74360
" />
<path d="M85610 74840
L85530 74880
L85380 74880
L85310 74840
L85280 74770
L85320 74470
L85370 74390
L85450 74360
L85600 74360
L85670 74390
L85700 74470
L85690 74540
L85300 74620
" />
<path d="M85980 74880
L86050 74360
" />
<path d="M86030 74510
L86080 74430
L86120 74390
L86200 74360
L86280 74360
" />
</g>
<g style="fill:#840000; fill-opacity:0.0; 
stroke:#840000; stroke-width:100; stroke-opacity:1; 
stroke-linecap:round; stroke-linejoin:round;">
</g>
<g style="fill:#840000; fill-opacity:0.0; 
stroke:#840000; stroke-width:60; stroke-opacity:1; 
stroke-linecap:round; stroke-linejoin:round;">
<path d="M70440 73060
L70250 73060
" />
<path d="M70250 73370
L70250 72780
L70530 72780
" />
<path d="M70750 73370
L70750 72980
" />
<path d="M70750 72780
L70720 72810
L70750 72840
L70780 72810
L70750 72780
L70750 72840
" />
<path d="M71120 73370
L71060 73340
L71030 73290
L71030 72780
" />
<path d="M71570 73340
L71510 73370
L71400 73370
L71340 73340
L71310 73290
L71310 73060
L71340 73010
L71400 72980
L71510 72980
L71570 73010
L71590 73060
L71590 73120
L71310 73180
" />
<path d="M71850 73320
L71880 73340
L71850 73370
L71820 73340
L71850 73320
L71850 73370
" />
<path d="M71850 73010
L71880 73030
L71850 73060
L71820 73030
L71850 73010
L71850 73060
" />
<path d="M72550 73340
L72630 73370
L72770 73370
L72830 73340
L72860 73320
L72890 73260
L72890 73200
L72860 73150
L72830 73120
L72770 73090
L72660 73060
L72610 73030
L72580 73010
L72550 72950
L72550 72890
L72580 72840
L72610 72810
L72660 72780
L72800 72780
L72890 72810
" />
<path d="M73140 73370
L73140 72980
" />
<path d="M73140 72780
L73110 72810
L73140 72840
L73170 72810
L73140 72780
L73140 72840
" />
<path d="M73700 72780
L73420 72780
L73390 73060
L73420 73030
L73480 73010
L73620 73010
L73670 73030
L73700 73060
L73730 73120
L73730 73260
L73700 73320
L73670 73340
L73620 73370
L73480 73370
L73420 73340
L73390 73320
" />
<path d="M73930 72780
L74290 72780
L74090 73010
L74180 73010
L74240 73030
L74260 73060
L74290 73120
L74290 73260
L74260 73320
L74240 73340
L74180 73370
L74010 73370
L73950 73340
L73930 73320
" />
<path d="M74830 72780
L74540 72780
L74520 73060
L74540 73030
L74600 73010
L74740 73010
L74800 73030
L74830 73060
L74850 73120
L74850 73260
L74830 73320
L74800 73340
L74740 73370
L74600 73370
L74540 73340
L74520 73320
" />
<path d="M75420 73370
L75080 73370
" />
<path d="M75250 73370
L75250 72780
L75190 72870
L75130 72920
L75080 72950
" />
<path d="M75530 73430
L75980 73430
" />
<path d="M76310 73060
L76120 73060
" />
<path d="M76120 73370
L76120 72780
L76400 72780
" />
<path d="M76620 73370
L76620 72980
" />
<path d="M76620 72780
L76600 72810
L76620 72840
L76650 72810
L76620 72780
L76620 72840
" />
<path d="M76990 73370
L76930 73340
L76900 73290
L76900 72780
" />
<path d="M77130 72980
L77350 72980
" />
<path d="M77210 72780
L77210 73290
L77240 73340
L77300 73370
L77350 73370
" />
<path d="M77780 73340
L77720 73370
L77610 73370
L77550 73340
L77520 73290
L77520 73060
L77550 73010
L77610 72980
L77720 72980
L77780 73010
L77800 73060
L77800 73120
L77520 73180
" />
<path d="M78060 73370
L78060 72980
" />
<path d="M78060 73090
L78080 73030
L78110 73010
L78170 72980
L78220 72980
" />
<path d="M78420 73320
L78450 73340
L78420 73370
L78390 73340
L78420 73320
L78420 73370
" />
<path d="M78670 73340
L78730 73370
L78840 73370
L78900 73340
L78930 73290
L78930 73260
L78900 73200
L78840 73180
L78760 73180
L78700 73150
L78670 73090
L78670 73060
L78700 73010
L78760 72980
L78840 72980
L78900 73010
" />
<path d="M79430 73340
L79380 73370
L79260 73370
L79210 73340
L79180 73320
L79150 73260
L79150 73090
L79180 73030
L79210 73010
L79260 72980
L79380 72980
L79430 73010
" />
<path d="M79690 73370
L79690 72780
" />
<path d="M79940 73370
L79940 73060
L79910 73010
L79850 72980
L79770 72980
L79710 73010
L79690 73030
" />
</g>
<g style="fill:#840000; fill-opacity:0.0; 
stroke:#840000; stroke-width:100; stroke-opacity:1; 
stroke-linecap:round; stroke-linejoin:round;">
</g>
<g style="fill:#840000; fill-opacity:0.0; 
stroke:#840000; stroke-width:60; stroke-opacity:1; 
stroke-linecap:round; stroke-linejoin:round;">
<path d="M69690 71460
L112210 71460
" />
</g>
<g style="fill:#840000; fill-opacity:0.0; 
stroke:#840000; stroke-width:100; stroke-opacity:1; 
stroke-linecap:round; stroke-linejoin:round;">
</g>
<g style="fill:#840000; fill-opacity:0.0; 
stroke:#840000; stroke-width:60; stroke-opacity:1; 
stroke-linecap:round; stroke-linejoin:round;">
<path d="M70220 72280
L70300 72310
L70440 72310
L70500 72280
L70530 72260
L70550 72200
L70550 72140
L70530 72090
L70500 72060
L70440 72030
L70330 72000
L70270 71970
L70250 71950
L70220 71890
L70220 71830
L70250 71780
L70270 71750
L70330 71720
L70470 71720
L70550 71750
" />
<path d="M70810 72310
L70810 71720
" />
<path d="M71060 72310
L71060 72000
L71030 71950
L70980 71920
L70890 71920
L70840 71950
L70810 71970
" />
<path d="M71570 72280
L71510 72310
L71400 72310
L71340 72280
L71310 72230
L71310 72000
L71340 71950
L71400 71920
L71510 71920
L71570 71950
L71590 72000
L71590 72060
L71310 72120
" />
<path d="M72070 72280
L72020 72310
L71900 72310
L71850 72280
L71820 72230
L71820 72000
L71850 71950
L71900 71920
L72020 71920
L72070 71950
L72100 72000
L72100 72060
L71820 72120
" />
<path d="M72270 71920
L72490 71920
" />
<path d="M72350 71720
L72350 72230
L72380 72280
L72440 72310
L72490 72310
" />
<path d="M72690 72260
L72720 72280
L72690 72310
L72660 72280
L72690 72260
L72690 72310
" />
<path d="M72690 71950
L72720 71970
L72690 72000
L72660 71970
L72690 71950
L72690 72000
" />
<path d="M73840 71690
L73340 72450
" />
<path d="M74010 72280
L74090 72310
L74240 72310
L74290 72280
L74320 72260
L74350 72200
L74350 72140
L74320 72090
L74290 72060
L74240 72030
L74120 72000
L74070 71970
L74040 71950
L74010 71890
L74010 71830
L74040 71780
L74070 71750
L74120 71720
L74260 71720
L74350 71750
" />
<path d="M74600 72310
L74600 71920
" />
<path d="M74600 71720
L74570 71750
L74600 71780
L74630 71750
L74600 71720
L74600 71780
" />
<path d="M75160 71720
L74880 71720
L74850 72000
L74880 71970
L74940 71950
L75080 71950
L75130 71970
L75160 72000
L75190 72060
L75190 72200
L75160 72260
L75130 72280
L75080 72310
L74940 72310
L74880 72280
L74850 72260
" />
<path d="M75390 71720
L75750 71720
L75560 71950
L75640 71950
L75700 71970
L75720 72000
L75750 72060
L75750 72200
L75720 72260
L75700 72280
L75640 72310
L75470 72310
L75420 72280
L75390 72260
" />
<path d="M76290 71720
L76010 71720
L75980 72000
L76010 71970
L76060 71950
L76200 71950
L76260 71970
L76290 72000
L76310 72060
L76310 72200
L76290 72260
L76260 72280
L76200 72310
L76060 72310
L76010 72280
L75980 72260
" />
<path d="M76880 72310
L76540 72310
" />
<path d="M76710 72310
L76710 71720
L76650 71810
L76600 71860
L76540 71890
" />
<path d="M77830 72310
L77830 72000
L77800 71950
L77750 71920
L77630 71920
L77580 71950
" />
<path d="M77830 72280
L77780 72310
L77630 72310
L77580 72280
L77550 72230
L77550 72170
L77580 72120
L77630 72090
L77780 72090
L77830 72060
" />
<path d="M78030 71920
L78250 71920
" />
<path d="M78110 71720
L78110 72230
L78140 72280
L78200 72310
L78250 72310
" />
<path d="M78670 72280
L78620 72310
L78510 72310
L78450 72280
L78420 72230
L78420 72000
L78450 71950
L78510 71920
L78620 71920
L78670 71950
L78700 72000
L78700 72060
L78420 72120
" />
<path d="M78960 71920
L78960 72310
" />
<path d="M78960 71970
L78980 71950
L79040 71920
L79120 71920
L79180 71950
L79210 72000
L79210 72310
" />
<path d="M79740 71920
L79740 72310
" />
<path d="M79490 71920
L79490 72230
L79520 72280
L79570 72310
L79660 72310
L79710 72280
L79740 72260
" />
<path d="M80280 72310
L80280 72000
L80250 71950
L80190 71920
L80080 71920
L80020 71950
" />
<path d="M80280 72280
L80220 72310
L80080 72310
L80020 72280
L79990 72230
L79990 72170
L80020 72120
L80080 72090
L80220 72090
L80280 72060
" />
<path d="M80470 71920
L80700 71920
" />
<path d="M80560 71720
L80560 72230
L80580 72280
L80640 72310
L80700 72310
" />
<path d="M80980 72310
L80920 72280
L80890 72260
L80870 72200
L80870 72030
L80890 71970
L80920 71950
L80980 71920
L81060 71920
L81120 71950
L81150 71970
L81170 72030
L81170 72200
L81150 72260
L81120 72280
L81060 72310
L80980 72310
" />
<path d="M81430 72310
L81430 71920
" />
<path d="M81430 72030
L81460 71970
L81480 71950
L81540 71920
L81600 71920
" />
<path d="M82210 71690
L81710 72450
" />
</g>
<g style="fill:#840000; fill-opacity:0.0; 
stroke:#840000; stroke-width:100; stroke-opacity:1; 
stroke-linecap:round; stroke-linejoin:round;">
</g>
<g style="fill:#840000; fill-opacity:0.0; 
stroke:#840000; stroke-width:120; stroke-opacity:1; 
stroke-linecap:round; stroke-linejoin:round;">
<path d="M70490 70820
L70290 70820
" />
<path d="M70290 71130
L70290 70540
L70570 70540
" />
<path d="M71050 70740
L71050 71130
" />
<path d="M70910 70510
L70770 70940
L71140 70940
" />
<path d="M71360 71130
L71360 70540
" />
<path d="M71840 70820
L71640 70820
" />
<path d="M71640 71130
L71640 70540
L71920 70540
" />
<path d="M72340 70820
L72430 70850
L72460 70880
L72480 70940
L72480 71020
L72460 71080
L72430 71100
L72370 71130
L72150 71130
L72150 70540
L72340 70540
L72400 70570
L72430 70600
L72460 70650
L72460 70710
L72430 70770
L72400 70790
L72340 70820
L72150 70820
" />
</g>
<g style="fill:#840000; fill-opacity:0.0; 
stroke:#840000; stroke-width:100; stroke-opacity:1; 
stroke-linecap:round; stroke-linejoin:round;">
</g>
<g style="fill:#840000; fill-opacity:0.0; 
stroke:#840000; stroke-width:60; stroke-opacity:1; 
stroke-linecap:round; stroke-linejoin:round;">
<path d="M77560 75400
L77560 76580
" />
</g>
<g style="fill:#840000; fill-opacity:0.0; 
stroke:#840000; stroke-width:100; stroke-opacity:1; 
stroke-linecap:round; stroke-linejoin:round;">
</g>
<g style="fill:#840000; fill-opacity:0.0; 
stroke:#840000; stroke-width:60; stroke-opacity:1; 
stroke-linecap:round; stroke-linejoin:round;">
<path d="M102760 75400
L102760 77960
" />
</g>
<g style="fill:#840000; fill-opacity:0.0; 
stroke:#840000; stroke-width:0; stroke-opacity:1; 
stroke-linecap:round; stroke-linejoin:round;">
<g >
</g>
<g style="fill:#840000; fill-opacity:0.0; 
stroke:#840000; stroke-width:200; stroke-opacity:1; 
stroke-linecap:round; stroke-linejoin:round;">
<path style="fill:#840000; fill-opacity:0.0; 
stroke:#840000; stroke-width:200; stroke-opacity:1; 
stroke-linecap:round; stroke-linejoin:round;fill:none"
d="M 39700,10200
39700,11800
Z" /> 
<path style="fill:#840000; fill-opacity:0.0; 
stroke:#840000; stroke-width:200; stroke-opacity:1; 
stroke-linecap:round; stroke-linejoin:round;fill:none"
d="M 40300,10200
40300,11800
Z" /> 
</g>
<g style="fill:#840000; fill-opacity:0.0; 
stroke:#840000; stroke-width:60; stroke-opacity:1; 
stroke-linecap:round; stroke-linejoin:round;">
<path d="M40400 11000
L41500 11000
" />
<path d="M39600 11000
L38500 11000
" />
</g>
<g style="fill:#008484; fill-opacity:0.0; 
stroke:#008484; stroke-width:60; stroke-opacity:1; 
stroke-linecap:round; stroke-linejoin:round;">
<path d="M39910 8670
L39890 8700
L39820 8720
L39770 8720
L39700 8700
L39650 8650
L39630 8600
L39600 8510
L39600 8440
L39630 8340
L39650 8290
L39700 8250
L39770 8220
L39820 8220
L39890 8250
L39910 8270
" />
<path d="M40100 8270
L40130 8250
L40170 8220
L40290 8220
L40340 8250
L40360 8270
L40390 8320
L40390 8360
L40360 8440
L40080 8720
L40390 8720
" />
<path d="M39440 9630
L39150 9630
" />
<path d="M39290 9630
L39290 9130
L39250 9200
L39200 9250
L39150 9270
" />
<path d="M39750 9130
L39790 9130
L39840 9160
L39860 9180
L39890 9230
L39910 9320
L39910 9440
L39890 9540
L39860 9580
L39840 9610
L39790 9630
L39750 9630
L39700 9610
L39670 9580
L39650 9540
L39630 9440
L39630 9320
L39650 9230
L39670 9180
L39700 9160
L39750 9130
" />
<path d="M40220 9130
L40270 9130
L40320 9160
L40340 9180
L40360 9230
L40390 9320
L40390 9440
L40360 9540
L40340 9580
L40320 9610
L40270 9630
L40220 9630
L40170 9610
L40150 9580
L40130 9540
L40100 9440
L40100 9320
L40130 9230
L40150 9180
L40170 9160
L40220 9130
" />
<path d="M40600 9300
L40600 9630
" />
<path d="M40600 9350
L40630 9320
L40670 9300
L40740 9300
L40790 9320
L40820 9370
L40820 9630
" />
</g>
</g>
<g style="fill:#008484; fill-opacity:0.0; 
stroke:#008484; stroke-width:0; stroke-opacity:1; 
stroke-linecap:round; stroke-linejoin:round;">
<g >
</g>
<g style="fill:#840000; fill-opacity:0.0; 
stroke:#840000; stroke-width:0; stroke-opacity:1; 
stroke-linecap:round; stroke-linejoin:round;">
</g>
<g style="fill:#840000; fill-opacity:0.0; 
stroke:#840000; stroke-width:100; stroke-opacity:1; 
stroke-linecap:round; stroke-linejoin:round;">
<rect x="35000" y="10600" width="2000" height="800" rx="0" />
</g>
<g style="fill:#840000; fill-opacity:0.0; 
stroke:#840000; stroke-width:60; stroke-opacity:1; 
stroke-linecap:round; stroke-linejoin:round;">
<path d="M37000 11000
L37500 11000
" />
<path d="M35000 11000
L34500 11000
" />
</g>
<g style="fill:#008484; fill-opacity:0.0; 
stroke:#008484; stroke-width:60; stroke-opacity:1; 
stroke-linecap:round; stroke-linejoin:round;">
<path d="M35910 9170
L35750 8930
" />
<path d="M35630 9170
L35630 8670
L35820 8670
L35860 8700
L35890 8720
L35910 8770
L35910 8840
L35890 8890
L35860 8910
L35820 8930
L35630 8930
" />
<path d="M36080 8670
L36390 8670
L36220 8860
L36290 8860
L36340 8890
L36360 8910
L36390 8960
L36390 9080
L36360 9120
L36340 9150
L36290 9170
L36150 9170
L36100 9150
L36080 9120
" />
<path d="M35660 10080
L35380 10080
" />
<path d="M35520 10080
L35520 9580
L35470 9650
L35420 9700
L35380 9720
" />
<path d="M35970 9580
L36020 9580
L36070 9610
L36090 9630
L36110 9680
L36140 9770
L36140 9890
L36110 9990
L36090 10030
L36070 10060
L36020 10080
L35970 10080
L35920 10060
L35900 10030
L35880 9990
L35850 9890
L35850 9770
L35880 9680
L35900 9630
L35920 9610
L35970 9580
" />
<path d="M36450 9580
L36500 9580
L36540 9610
L36570 9630
L36590 9680
L36610 9770
L36610 9890
L36590 9990
L36570 10030
L36540 10060
L36500 10080
L36450 10080
L36400 10060
L36380 10030
L36350 9990
L36330 9890
L36330 9770
L36350 9680
L36380 9630
L36400 9610
L36450 9580
" />
</g>
</g>
<g style="fill:#008484; fill-opacity:0.0; 
stroke:#008484; stroke-width:0; stroke-opacity:1; 
stroke-linecap:round; stroke-linejoin:round;">
<g >
</g>
<g style="fill:#840000; fill-opacity:0.0; 
stroke:#840000; stroke-width:0; stroke-opacity:1; 
stroke-linecap:round; stroke-linejoin:round;">
</g>
<g style="fill:#840000; fill-opacity:0.0; 
stroke:#840000; stroke-width:100; stroke-opacity:1; 
stroke-linecap:round; stroke-linejoin:round;">
<rect x="37600" y="12000" width="800" height="2000" rx="0" />
</g>
<g style="fill:#840000; fill-opacity:0.0; 
stroke:#840000; stroke-width:60; stroke-opacity:1; 
stroke-linecap:round; stroke-linejoin:round;">
<path d="M38000 12000
L38000 11500
" />
<path d="M38000 14000
L38000 14500
" />
</g>
<g style="fill:#008484; fill-opacity:0.0; 
stroke:#008484; stroke-width:60; stroke-opacity:1; 
stroke-linecap:round; stroke-linejoin:round;">
<path d="M39130 12780
L38970 12540
" />
<path d="M38850 12780
L38850 12280
L39040 12280
L39080 12310
L39110 12330
L39130 12380
L39130 12450
L39110 12500
L39080 12520
L39040 12540
L38850 12540
" />
<path d="M39560 12450
L39560 12780
" />
<path d="M39440 12260
L39320 12610
L39630 12610
" />
<path d="M39100 13690
L38820 13690
" />
<path d="M38960 13690
L38960 13190
L38910 13260
L38860 13310
L38820 13330
" />
<path d="M39410 13190
L39460 13190
L39510 13220
L39530 13240
L39550 13290
L39580 13380
L39580 13500
L39550 13600
L39530 13640
L39510 13670
L39460 13690
L39410 13690
L39360 13670
L39340 13640
L39320 13600
L39290 13500
L39290 13380
L39320 13290
L39340 13240
L39360 13220
L39410 13190
" />
<path d="M39890 13190
L39940 13190
L39980 13220
L40010 13240
L40030 13290
L40050 13380
L40050 13500
L40030 13600
L40010 13640
L39980 13670
L39940 13690
L39890 13690
L39840 13670
L39820 13640
L39790 13600
L39770 13500
L39770 13380
L39790 13290
L39820 13240
L39840 13220
L39890 13190
" />
</g>
</g>
<g style="fill:#008484; fill-opacity:0.0; 
stroke:#008484; stroke-width:0; stroke-opacity:1; 
stroke-linecap:round; stroke-linejoin:round;">
<g >
</g>
<g style="fill:#840000; fill-opacity:0.0; 
stroke:#840000; stroke-width:0; stroke-opacity:1; 
stroke-linecap:round; stroke-linejoin:round;">
</g>
<g style="fill:#840000; fill-opacity:0.0; 
stroke:#840000; stroke-width:60; stroke-opacity:1; 
stroke-linecap:round; stroke-linejoin:round;">
<path style="fill:#840000; fill-opacity:0.0; 
stroke:#840000; stroke-width:60; stroke-opacity:1; 
stroke-linecap:round; stroke-linejoin:round;fill:none"
d="M 38000,15500
38000,16000
38500,16000
38000,16500
37500,16000
38000,16000
Z" /> 
</g>
<g style="fill:#008484; fill-opacity:0.0; 
stroke:#008484; stroke-width:60; stroke-opacity:1; 
stroke-linecap:round; stroke-linejoin:round;">
<path d="M37660 17000
L37620 16970
L37550 16970
L37470 17000
L37430 17040
L37400 17090
L37380 17190
L37380 17260
L37400 17350
L37430 17400
L37470 17450
L37550 17470
L37590 17470
L37660 17450
L37690 17420
L37690 17260
L37590 17260
" />
<path d="M37900 17470
L37900 16970
L38190 17470
L38190 16970
" />
<path d="M38430 17470
L38430 16970
L38550 16970
L38620 17000
L38660 17040
L38690 17090
L38710 17190
L38710 17260
L38690 17350
L38660 17400
L38620 17450
L38550 17470
L38430 17470
" />
</g>
</g>
<g style="fill:#008484; fill-opacity:0.0; 
stroke:#008484; stroke-width:0; stroke-opacity:1; 
stroke-linecap:round; stroke-linejoin:round;">
<g >
</g>
<g style="fill:#840000; fill-opacity:0.0; 
stroke:#840000; stroke-width:0; stroke-opacity:1; 
stroke-linecap:round; stroke-linejoin:round;">
</g>
<g style="fill:#840000; fill-opacity:0.0; 
stroke:#840000; stroke-width:200; stroke-opacity:1; 
stroke-linecap:round; stroke-linejoin:round;">
<path style="fill:#840000; fill-opacity:0.0; 
stroke:#840000; stroke-width:200; stroke-opacity:1; 
stroke-linecap:round; stroke-linejoin:round;fill:none"
d="M 31700,10200
31700,11800
Z" /> 
<path style="fill:#840000; fill-opacity:0.0; 
stroke:#840000; stroke-width:200; stroke-opacity:1; 
stroke-linecap:round; stroke-linejoin:round;fill:none"
d="M 32300,10200
32300,11800
Z" /> 
</g>
<g style="fill:#840000; fill-opacity:0.0; 
stroke:#840000; stroke-width:60; stroke-opacity:1; 
stroke-linecap:round; stroke-linejoin:round;">
<path d="M32400 11000
L33500 11000
" />
<path d="M31600 11000
L30500 11000
" />
</g>
<g style="fill:#008484; fill-opacity:0.0; 
stroke:#008484; stroke-width:60; stroke-opacity:1; 
stroke-linecap:round; stroke-linejoin:round;">
<path d="M31910 8670
L31890 8700
L31820 8720
L31770 8720
L31700 8700
L31650 8650
L31630 8600
L31600 8510
L31600 8440
L31630 8340
L31650 8290
L31700 8250
L31770 8220
L31820 8220
L31890 8250
L31910 8270
" />
<path d="M32390 8720
L32100 8720
" />
<path d="M32250 8720
L32250 8220
L32200 8290
L32150 8340
L32100 8360
" />
<path d="M31440 9630
L31150 9630
" />
<path d="M31290 9630
L31290 9130
L31250 9200
L31200 9250
L31150 9270
" />
<path d="M31750 9130
L31790 9130
L31840 9160
L31860 9180
L31890 9230
L31910 9320
L31910 9440
L31890 9540
L31860 9580
L31840 9610
L31790 9630
L31750 9630
L31700 9610
L31670 9580
L31650 9540
L31630 9440
L31630 9320
L31650 9230
L31670 9180
L31700 9160
L31750 9130
" />
<path d="M32220 9130
L32270 9130
L32320 9160
L32340 9180
L32360 9230
L32390 9320
L32390 9440
L32360 9540
L32340 9580
L32320 9610
L32270 9630
L32220 9630
L32170 9610
L32150 9580
L32130 9540
L32100 9440
L32100 9320
L32130 9230
L32150 9180
L32170 9160
L32220 9130
" />
<path d="M32600 9300
L32600 9630
" />
<path d="M32600 9350
L32630 9320
L32670 9300
L32740 9300
L32790 9320
L32820 9370
L32820 9630
" />
</g>
</g>
<g style="fill:#008484; fill-opacity:0.0; 
stroke:#008484; stroke-width:60; stroke-opacity:1; 
stroke-linecap:round; stroke-linejoin:round;">
</g>
<g style="fill:#008400; fill-opacity:0.0; 
stroke:#008400; stroke-width:60; stroke-opacity:1; 
stroke-linecap:round; stroke-linejoin:round;">
<path d="M37500 11000
L38000 11000
" />
<path d="M38000 11500
L38000 11000
" />
<path d="M38000 11000
L38500 11000
" />
<path d="M38000 14500
L38000 15500
" />
<path d="M41500 11000
L42500 11000
" />
<path d="M33500 11000
L34500 11000
" />
<path d="M29500 11000
L30500 11000
" />
</g>
<g style="fill:#848400; fill-opacity:0.0; 
stroke:#848400; stroke-width:60; stroke-opacity:1; 
stroke-linecap:round; stroke-linejoin:round;">
<path d="M26580 11170
L26560 11200
L26480 11220
L26440 11220
L26370 11200
L26320 11150
L26290 11100
L26270 11010
L26270 10940
L26290 10840
L26320 10790
L26370 10750
L26440 10720
L26480 10720
L26560 10750
L26580 10770
" />
<path d="M26870 11220
L26820 11200
L26790 11150
L26790 10720
" />
<path d="M27060 11220
L27060 10720
" />
<path d="M27100 11030
L27250 11220
" />
<path d="M27250 10890
L27060 11080
" />
<path d="M27560 10720
L27600 10720
L27650 10750
L27670 10770
L27700 10820
L27720 10910
L27720 11030
L27700 11130
L27670 11170
L27650 11200
L27600 11220
L27560 11220
L27510 11200
L27480 11170
L27460 11130
L27440 11030
L27440 10910
L27460 10820
L27480 10770
L27510 10750
L27560 10720
" />
<path d="M27820 11270
L28200 11270
" />
<path d="M28480 10960
L28320 10960
" />
<path d="M28320 11220
L28320 10720
L28560 10720
" />
<path d="M28750 11220
L28750 10890
" />
<path d="M28750 10720
L28720 10750
L28750 10770
L28770 10750
L28750 10720
L28750 10770
" />
</g>
<g style="fill:#848400; fill-opacity:0.0; 
stroke:#848400; stroke-width:100; stroke-opacity:1; 
stroke-linecap:round; stroke-linejoin:round;">
<path style="fill:#848400; fill-opacity:0.0; 
stroke:#848400; stroke-width:100; stroke-opacity:1; 
stroke-linecap:round; stroke-linejoin:round;fill:none"
d="M 29500,11000
29250,10750
29000,10750
29000,11250
29250,11250
29500,11000
Z" /> 
</g>
<g style="fill:#848400; fill-opacity:0.0; 
stroke:#848400; stroke-width:60; stroke-opacity:1; 
stroke-linecap:round; stroke-linejoin:round;">
<path d="M43530 11170
L43510 11200
L43430 11220
L43390 11220
L43320 11200
L43270 11150
L43240 11100
L43220 11010
L43220 10940
L43240 10840
L43270 10790
L43320 10750
L43390 10720
L43430 10720
L43510 10750
L43530 10770
" />
<path d="M43820 11220
L43770 11200
L43740 11150
L43740 10720
" />
<path d="M44010 11220
L44010 10720
" />
<path d="M44050 11030
L44200 11220
" />
<path d="M44200 10890
L44010 11080
" />
<path d="M44510 10720
L44550 10720
L44600 10750
L44630 10770
L44650 10820
L44670 10910
L44670 11030
L44650 11130
L44630 11170
L44600 11200
L44550 11220
L44510 11220
L44460 11200
L44430 11170
L44410 11130
L44390 11030
L44390 10910
L44410 10820
L44430 10770
L44460 10750
L44510 10720
" />
<path d="M44770 11270
L45150 11270
" />
<path d="M45430 10960
L45270 10960
" />
<path d="M45270 11220
L45270 10720
L45510 10720
" />
<path d="M45770 11220
L45720 11200
L45700 11170
L45670 11130
L45670 10980
L45700 10940
L45720 10910
L45770 10890
L45840 10890
L45890 10910
L45910 10940
L45930 10980
L45930 11130
L45910 11170
L45890 11200
L45840 11220
L45770 11220
" />
</g>
<g style="fill:#848400; fill-opacity:0.0; 
stroke:#848400; stroke-width:100; stroke-opacity:1; 
stroke-linecap:round; stroke-linejoin:round;">
<path style="fill:#848400; fill-opacity:0.0; 
stroke:#848400; stroke-width:100; stroke-opacity:1; 
stroke-linecap:round; stroke-linejoin:round;fill:none"
d="M 42500,11000
42750,11250
43000,11250
43000,10750
42750,10750
42500,11000
Z" /> 
</g>
<g style="fill:#848400; fill-opacity:0.0; 
stroke:#848400; stroke-width:60; stroke-opacity:1; 
stroke-linecap:round; stroke-linejoin:round;">
</g>
<g style="fill:#0000C2; fill-opacity:0.0; 
stroke:#0000C2; stroke-width:60; stroke-opacity:1; 
stroke-linecap:round; stroke-linejoin:round;">
<path d="M70140 13060
L70140 12560
L70430 13060
L70430 12560
" />
<path d="M70740 13060
L70690 13040
L70670 13010
L70640 12970
L70640 12820
L70670 12780
L70690 12750
L70740 12730
L70810 12730
L70860 12750
L70880 12780
L70910 12820
L70910 12970
L70880 13010
L70860 13040
L70810 13060
L70740 13060
" />
<path d="M71050 12730
L71240 12730
" />
<path d="M71120 12560
L71120 12990
L71140 13040
L71190 13060
L71240 13060
" />
<path d="M71620 13060
L71620 12800
L71600 12750
L71550 12730
L71450 12730
L71410 12750
" />
<path d="M71620 13040
L71570 13060
L71450 13060
L71410 13040
L71380 12990
L71380 12940
L71410 12890
L71450 12870
L71570 12870
L71620 12850
" />
<path d="M72240 13010
L72260 13040
L72240 13060
L72220 13040
L72240 13010
L72240 13060
" />
<path d="M72240 12750
L72260 12780
L72240 12800
L72220 12780
L72240 12750
L72240 12800
" />
<path d="M72860 13060
L72860 12560
" />
<path d="M73100 13060
L73100 12560
L73380 13060
L73380 12560
" />
<path d="M73500 13110
L73880 13110
" />
<path d="M73980 12920
L74220 12920
" />
<path d="M73930 13060
L74100 12560
L74260 13060
" />
<path d="M75220 13060
L75190 13060
L75140 13040
L75070 12970
L74950 12820
L74910 12750
L74880 12680
L74880 12630
L74910 12590
L74950 12560
L74980 12560
L75030 12590
L75050 12630
L75050 12660
L75030 12700
L75000 12730
L74860 12820
L74830 12850
L74810 12890
L74810 12970
L74830 13010
L74860 13040
L74910 13060
L74980 13060
L75030 13040
L75050 13010
L75120 12920
L75140 12850
L75140 12800
" />
<path d="M75810 13060
L75810 12560
" />
<path d="M76050 13060
L76050 12560
L76330 13060
L76330 12560
" />
<path d="M76450 13110
L76830 13110
" />
<path d="M77120 12800
L77190 12820
L77220 12850
L77240 12890
L77240 12970
L77220 13010
L77190 13040
L77140 13060
L76950 13060
L76950 12560
L77120 12560
L77170 12590
L77190 12610
L77220 12660
L77220 12700
L77190 12750
L77170 12780
L77120 12800
L76950 12800
" />
<path d="M78050 13060
L78050 12800
L78030 12750
L77980 12730
L77880 12730
L77830 12750
" />
<path d="M78050 13040
L78000 13060
L77880 13060
L77830 13040
L77810 12990
L77810 12940
L77830 12890
L77880 12870
L78000 12870
L78050 12850
" />
<path d="M78290 13060
L78290 12730
" />
<path d="M78290 12820
L78310 12780
L78330 12750
L78380 12730
L78430 12730
" />
<path d="M78790 13040
L78740 13060
L78640 13060
L78600 13040
L78570 12990
L78570 12800
L78600 12750
L78640 12730
L78740 12730
L78790 12750
L78810 12800
L78810 12850
L78570 12890
" />
<path d="M79410 13060
L79410 12560
" />
<path d="M79410 12750
L79450 12730
L79550 12730
L79600 12750
L79620 12780
L79640 12820
L79640 12970
L79620 13010
L79600 13040
L79550 13060
L79450 13060
L79410 13040
" />
<path d="M79860 13060
L79860 12730
" />
<path d="M79860 12560
L79830 12590
L79860 12610
L79880 12590
L79860 12560
L79860 12610
" />
<path d="M80310 13060
L80310 12800
L80290 12750
L80240 12730
L80140 12730
L80100 12750
" />
<path d="M80310 13040
L80260 13060
L80140 13060
L80100 13040
L80070 12990
L80070 12940
L80100 12890
L80140 12870
L80260 12870
L80310 12850
" />
<path d="M80530 13040
L80570 13060
L80670 13060
L80720 13040
L80740 12990
L80740 12970
L80720 12920
L80670 12890
L80600 12890
L80550 12870
L80530 12820
L80530 12800
L80550 12750
L80600 12730
L80670 12730
L80720 12750
" />
<path d="M81140 13040
L81100 13060
L81000 13060
L80950 13040
L80930 12990
L80930 12800
L80950 12750
L81000 12730
L81100 12730
L81140 12750
L81170 12800
L81170 12850
L80930 12890
" />
<path d="M81600 13060
L81600 12560
" />
<path d="M81600 13040
L81550 13060
L81450 13060
L81410 13040
L81380 13010
L81360 12970
L81360 12820
L81380 12780
L81410 12750
L81450 12730
L81550 12730
L81600 12750
" />
<path d="M82220 13060
L82220 12730
" />
<path d="M82220 12560
L82190 12590
L82220 12610
L82240 12590
L82220 12560
L82220 12610
" />
<path d="M82450 12730
L82450 13060
" />
<path d="M82450 12780
L82480 12750
L82530 12730
L82600 12730
L82640 12750
L82670 12800
L82670 13060
" />
<path d="M82830 12730
L83030 12730
" />
<path d="M82910 12560
L82910 12990
L82930 13040
L82980 13060
L83030 13060
" />
<path d="M83380 13040
L83330 13060
L83240 13060
L83190 13040
L83170 12990
L83170 12800
L83190 12750
L83240 12730
L83330 12730
L83380 12750
L83410 12800
L83410 12850
L83170 12890
" />
<path d="M83620 13060
L83620 12730
" />
<path d="M83620 12820
L83640 12780
L83670 12750
L83720 12730
L83760 12730
" />
<path d="M83930 12730
L83930 13060
" />
<path d="M83930 12780
L83950 12750
L84000 12730
L84070 12730
L84120 12750
L84140 12800
L84140 13060
" />
<path d="M84600 13060
L84600 12800
L84570 12750
L84530 12730
L84430 12730
L84380 12750
" />
<path d="M84600 13040
L84550 13060
L84430 13060
L84380 13040
L84360 12990
L84360 12940
L84380 12890
L84430 12870
L84550 12870
L84600 12850
" />
<path d="M84910 13060
L84860 13040
L84830 12990
L84830 12560
" />
<path d="M85170 13060
L85120 13040
L85100 12990
L85100 12560
" />
<path d="M85310 12730
L85430 13060
" />
<path d="M85550 12730
L85430 13060
L85380 13180
L85360 13200
L85310 13230
" />
<path d="M85760 13040
L85760 13060
L85740 13110
L85720 13130
" />
<path d="M86290 12560
L86570 12560
" />
<path d="M86430 13060
L86430 12560
" />
<path d="M86740 13060
L86740 12560
" />
<path d="M86950 13060
L86950 12800
L86930 12750
L86880 12730
L86810 12730
L86760 12750
L86740 12780
" />
<path d="M87380 13040
L87330 13060
L87240 13060
L87190 13040
L87170 12990
L87170 12800
L87190 12750
L87240 12730
L87330 12730
L87380 12750
L87410 12800
L87410 12850
L87170 12890
" />
<path d="M87570 12730
L87690 13060
" />
<path d="M87810 12730
L87690 13060
L87640 13180
L87620 13200
L87570 13230
" />
<path d="M88600 13060
L88600 12800
L88570 12750
L88530 12730
L88430 12730
L88380 12750
" />
<path d="M88600 13040
L88550 13060
L88430 13060
L88380 13040
L88360 12990
L88360 12940
L88380 12890
L88430 12870
L88550 12870
L88600 12850
" />
<path d="M88830 13060
L88830 12730
" />
<path d="M88830 12820
L88860 12780
L88880 12750
L88930 12730
L88980 12730
" />
<path d="M89330 13040
L89290 13060
L89190 13060
L89140 13040
L89120 12990
L89120 12800
L89140 12750
L89190 12730
L89290 12730
L89330 12750
L89360 12800
L89360 12850
L89120 12890
" />
<path d="M89930 13040
L89980 13060
L90070 13060
L90120 13040
L90140 12990
L90140 12970
L90120 12920
L90070 12890
L90000 12890
L89950 12870
L89930 12820
L89930 12800
L89950 12750
L90000 12730
L90070 12730
L90120 12750
" />
<path d="M90310 12730
L90430 13060
" />
<path d="M90550 12730
L90430 13060
L90380 13180
L90360 13200
L90310 13230
" />
<path d="M90740 13060
L90740 12730
" />
<path d="M90740 12780
L90760 12750
L90810 12730
L90880 12730
L90930 12750
L90950 12800
L90950 13060
" />
<path d="M90950 12800
L90980 12750
L91030 12730
L91100 12730
L91140 12750
L91170 12800
L91170 13060
" />
<path d="M91410 13060
L91410 12730
" />
<path d="M91410 12780
L91430 12750
L91480 12730
L91550 12730
L91600 12750
L91620 12800
L91620 13060
" />
<path d="M91620 12800
L91640 12750
L91690 12730
L91760 12730
L91810 12750
L91830 12800
L91830 13060
" />
<path d="M92260 13040
L92220 13060
L92120 13060
L92070 13040
L92050 12990
L92050 12800
L92070 12750
L92120 12730
L92220 12730
L92260 12750
L92290 12800
L92290 12850
L92050 12890
" />
<path d="M92430 12730
L92620 12730
" />
<path d="M92500 12560
L92500 12990
L92530 13040
L92570 13060
L92620 13060
" />
<path d="M92790 13060
L92790 12730
" />
<path d="M92790 12820
L92810 12780
L92830 12750
L92880 12730
L92930 12730
" />
<path d="M93100 13060
L93100 12730
" />
<path d="M93100 12560
L93070 12590
L93100 12610
L93120 12590
L93100 12560
L93100 12610
" />
<path d="M93550 13040
L93500 13060
L93410 13060
L93360 13040
L93330 13010
L93310 12970
L93310 12820
L93330 12780
L93360 12750
L93410 12730
L93500 12730
L93550 12750
" />
<path d="M93980 13060
L93980 12800
L93950 12750
L93910 12730
L93810 12730
L93760 12750
" />
<path d="M93980 13040
L93930 13060
L93810 13060
L93760 13040
L93740 12990
L93740 12940
L93760 12890
L93810 12870
L93930 12870
L93980 12850
" />
<path d="M94290 13060
L94240 13040
L94220 12990
L94220 12560
" />
<path d="M94480 13010
L94500 13040
L94480 13060
L94450 13040
L94480 13010
L94480 13060
" />
<path d="M70140 13610
L70310 13610
" />
<path d="M70380 13870
L70140 13870
L70140 13370
L70380 13370
" />
<path d="M70810 13540
L70810 14040
" />
<path d="M70810 13850
L70760 13870
L70670 13870
L70620 13850
L70600 13820
L70570 13780
L70570 13630
L70600 13590
L70620 13560
L70670 13540
L70760 13540
L70810 13560
" />
<path d="M71260 13540
L71260 13870
" />
<path d="M71050 13540
L71050 13800
L71070 13850
L71120 13870
L71190 13870
L71240 13850
L71260 13820
" />
<path d="M71500 13870
L71500 13540
" />
<path d="M71500 13370
L71480 13400
L71500 13420
L71530 13400
L71500 13370
L71500 13420
" />
<path d="M71690 13540
L71810 13870
L71930 13540
" />
<path d="M72330 13870
L72330 13610
L72310 13560
L72260 13540
L72170 13540
L72120 13560
" />
<path d="M72330 13850
L72290 13870
L72170 13870
L72120 13850
L72100 13800
L72100 13750
L72120 13700
L72170 13680
L72290 13680
L72330 13660
" />
<path d="M72640 13870
L72600 13850
L72570 13800
L72570 13370
" />
<path d="M73030 13850
L72980 13870
L72880 13870
L72830 13850
L72810 13800
L72810 13610
L72830 13560
L72880 13540
L72980 13540
L73030 13560
L73050 13610
L73050 13660
L72810 13700
" />
<path d="M73260 13540
L73260 13870
" />
<path d="M73260 13590
L73290 13560
L73330 13540
L73410 13540
L73450 13560
L73480 13610
L73480 13870
" />
<path d="M73640 13540
L73830 13540
" />
<path d="M73720 13370
L73720 13800
L73740 13850
L73790 13870
L73830 13870
" />
<path d="M74360 13730
L74600 13730
" />
<path d="M74310 13870
L74480 13370
L74640 13870
" />
<path d="M75100 13820
L75070 13850
L75000 13870
L74950 13870
L74880 13850
L74830 13800
L74810 13750
L74790 13660
L74790 13590
L74810 13490
L74830 13440
L74880 13400
L74950 13370
L75000 13370
L75070 13400
L75100 13420
" />
<path d="M75690 13870
L75690 13540
" />
<path d="M75690 13370
L75670 13400
L75690 13420
L75720 13400
L75690 13370
L75690 13420
" />
<path d="M75930 13870
L75930 13540
" />
<path d="M75930 13590
L75950 13560
L76000 13540
L76070 13540
L76120 13560
L76140 13610
L76140 13870
" />
<path d="M76140 13610
L76170 13560
L76220 13540
L76290 13540
L76330 13560
L76360 13610
L76360 13870
" />
<path d="M76600 13540
L76600 14040
" />
<path d="M76600 13560
L76640 13540
L76740 13540
L76790 13560
L76810 13590
L76830 13630
L76830 13780
L76810 13820
L76790 13850
L76740 13870
L76640 13870
L76600 13850
" />
<path d="M77240 13850
L77190 13870
L77100 13870
L77050 13850
L77030 13800
L77030 13610
L77050 13560
L77100 13540
L77190 13540
L77240 13560
L77260 13610
L77260 13660
L77030 13700
" />
<path d="M77190 13350
L77120 13420
" />
<path d="M77690 13870
L77690 13370
" />
<path d="M77690 13850
L77640 13870
L77550 13870
L77500 13850
L77480 13820
L77450 13780
L77450 13630
L77480 13590
L77500 13560
L77550 13540
L77640 13540
L77690 13560
" />
<path d="M78140 13870
L78140 13610
L78120 13560
L78070 13540
L77980 13540
L77930 13560
" />
<path d="M78140 13850
L78100 13870
L77980 13870
L77930 13850
L77910 13800
L77910 13750
L77930 13700
L77980 13680
L78100 13680
L78140 13660
" />
<path d="M78380 13540
L78380 13870
" />
<path d="M78380 13590
L78410 13560
L78450 13540
L78530 13540
L78570 13560
L78600 13610
L78600 13870
" />
<path d="M79050 13850
L79000 13870
L78910 13870
L78860 13850
L78830 13820
L78810 13780
L78810 13630
L78830 13590
L78860 13560
L78910 13540
L79000 13540
L79050 13560
" />
<path d="M79450 13850
L79410 13870
L79310 13870
L79260 13850
L79240 13800
L79240 13610
L79260 13560
L79310 13540
L79410 13540
L79450 13560
L79480 13610
L79480 13660
L79240 13700
" />
<path d="M80330 13870
L80050 13870
" />
<path d="M80190 13870
L80190 13370
L80140 13440
L80100 13490
L80050 13510
" />
<path d="M80550 13820
L80570 13850
L80550 13870
L80530 13850
L80550 13820
L80550 13870
" />
<path d="M81030 13370
L80790 13370
L80760 13610
L80790 13590
L80830 13560
L80950 13560
L81000 13590
L81030 13610
L81050 13660
L81050 13780
L81030 13820
L81000 13850
L80950 13870
L80830 13870
L80790 13850
L80760 13820
" />
<path d="M81260 13870
L81260 13370
" />
<path d="M81550 13870
L81330 13590
" />
<path d="M81550 13370
L81260 13660
" />
<path d="M81760 13870
L81760 13370
" />
<path d="M81980 13870
L81980 13610
L81950 13560
L81910 13540
L81830 13540
L81790 13560
L81760 13590
" />
<path d="M82290 13870
L82240 13850
L82220 13820
L82190 13780
L82190 13630
L82220 13590
L82240 13560
L82290 13540
L82360 13540
L82410 13560
L82430 13590
L82450 13630
L82450 13780
L82430 13820
L82410 13850
L82360 13870
L82290 13870
" />
<path d="M82640 13850
L82690 13870
L82790 13870
L82830 13850
L82860 13800
L82860 13780
L82830 13730
L82790 13700
L82720 13700
L82670 13680
L82640 13630
L82640 13610
L82670 13560
L82720 13540
L82790 13540
L82830 13560
" />
<path d="M83410 13370
L83720 13370
L83550 13560
L83620 13560
L83670 13590
L83690 13610
L83720 13660
L83720 13780
L83690 13820
L83670 13850
L83620 13870
L83480 13870
L83430 13850
L83410 13820
" />
<path d="M83930 13540
L83930 14040
" />
<path d="M83930 13560
L83980 13540
L84070 13540
L84120 13560
L84140 13590
L84170 13630
L84170 13780
L84140 13820
L84120 13850
L84070 13870
L83980 13870
L83930 13850
" />
<path d="M84550 13610
L84380 13610
" />
<path d="M84380 13870
L84380 13370
L84620 13370
" />
<path d="M85430 13370
L85190 13370
L85170 13610
L85190 13590
L85240 13560
L85360 13560
L85410 13590
L85430 13610
L85450 13660
L85450 13780
L85430 13820
L85410 13850
L85360 13870
L85240 13870
L85190 13850
L85170 13820
" />
<path d="M85760 13370
L85810 13370
L85860 13400
L85880 13420
L85910 13470
L85930 13560
L85930 13680
L85910 13780
L85880 13820
L85860 13850
L85810 13870
L85760 13870
L85720 13850
L85690 13820
L85670 13780
L85640 13680
L85640 13560
L85670 13470
L85690 13420
L85720 13400
L85760 13370
" />
<path d="M86140 13870
L86140 13370
L86310 13730
L86480 13370
L86480 13870
" />
<path d="M86720 13870
L86720 13370
" />
<path d="M86720 13610
L87000 13610
" />
<path d="M87000 13870
L87000 13370
" />
<path d="M87190 13540
L87450 13540
L87190 13870
L87450 13870
" />
<path d="M87640 13820
L87670 13850
L87640 13870
L87620 13850
L87640 13820
L87640 13870
" />
</g>
<g style="fill:#0000C2; fill-opacity:0.0; 
stroke:#0000C2; stroke-width:0; stroke-opacity:1; 
stroke-linecap:round; stroke-linejoin:round;">
</g>
<g style="fill:#008400; fill-opacity:0.0; 
stroke:#008400; stroke-width:0; stroke-opacity:1; 
stroke-linecap:round; stroke-linejoin:round;">
</g>
<g style="fill:#008400; fill-opacity:1.0; 
stroke:#008400; stroke-width:100; stroke-opacity:1; 
stroke-linecap:round; stroke-linejoin:round;">
<circle cx="38000" cy="11000" r="200" /> 
</g> 
</svg>
