G04 #@! TF.GenerationSoftware,KiCad,Pcbnew,5.1.4+dfsg1-1*
G04 #@! TF.CreationDate,2020-04-17T13:06:51+02:00*
G04 #@! TF.ProjectId,Transceiver,5472616e-7363-4656-9976-65722e6b6963,rev?*
G04 #@! TF.SameCoordinates,Original*
G04 #@! TF.FileFunction,Paste,Top*
G04 #@! TF.FilePolarity,Positive*
%FSLAX46Y46*%
G04 Gerber Fmt 4.6, Leading zero omitted, Abs format (unit mm)*
G04 Created by KiCad (PCBNEW 5.1.4+dfsg1-1) date 2020-04-17 13:06:51*
%MOMM*%
%LPD*%
G04 APERTURE LIST*
%ADD10C,0.100000*%
%ADD11C,0.600000*%
%ADD12C,0.920000*%
%ADD13C,0.975000*%
%ADD14C,0.850000*%
%ADD15R,5.080000X1.500000*%
%ADD16R,1.500000X2.000000*%
%ADD17R,3.800000X2.000000*%
%ADD18R,0.400000X0.650000*%
%ADD19R,1.700000X2.000000*%
%ADD20R,2.000000X0.500000*%
%ADD21R,0.450000X1.450000*%
G04 APERTURE END LIST*
D10*
G36*
X126699703Y-108920722D02*
G01*
X126714264Y-108922882D01*
X126728543Y-108926459D01*
X126742403Y-108931418D01*
X126755710Y-108937712D01*
X126768336Y-108945280D01*
X126780159Y-108954048D01*
X126791066Y-108963934D01*
X126800952Y-108974841D01*
X126809720Y-108986664D01*
X126817288Y-108999290D01*
X126823582Y-109012597D01*
X126828541Y-109026457D01*
X126832118Y-109040736D01*
X126834278Y-109055297D01*
X126835000Y-109070000D01*
X126835000Y-109370000D01*
X126834278Y-109384703D01*
X126832118Y-109399264D01*
X126828541Y-109413543D01*
X126823582Y-109427403D01*
X126817288Y-109440710D01*
X126809720Y-109453336D01*
X126800952Y-109465159D01*
X126791066Y-109476066D01*
X126780159Y-109485952D01*
X126768336Y-109494720D01*
X126755710Y-109502288D01*
X126742403Y-109508582D01*
X126728543Y-109513541D01*
X126714264Y-109517118D01*
X126699703Y-109519278D01*
X126685000Y-109520000D01*
X125035000Y-109520000D01*
X125020297Y-109519278D01*
X125005736Y-109517118D01*
X124991457Y-109513541D01*
X124977597Y-109508582D01*
X124964290Y-109502288D01*
X124951664Y-109494720D01*
X124939841Y-109485952D01*
X124928934Y-109476066D01*
X124919048Y-109465159D01*
X124910280Y-109453336D01*
X124902712Y-109440710D01*
X124896418Y-109427403D01*
X124891459Y-109413543D01*
X124887882Y-109399264D01*
X124885722Y-109384703D01*
X124885000Y-109370000D01*
X124885000Y-109070000D01*
X124885722Y-109055297D01*
X124887882Y-109040736D01*
X124891459Y-109026457D01*
X124896418Y-109012597D01*
X124902712Y-108999290D01*
X124910280Y-108986664D01*
X124919048Y-108974841D01*
X124928934Y-108963934D01*
X124939841Y-108954048D01*
X124951664Y-108945280D01*
X124964290Y-108937712D01*
X124977597Y-108931418D01*
X124991457Y-108926459D01*
X125005736Y-108922882D01*
X125020297Y-108920722D01*
X125035000Y-108920000D01*
X126685000Y-108920000D01*
X126699703Y-108920722D01*
X126699703Y-108920722D01*
G37*
D11*
X125860000Y-109220000D03*
D10*
G36*
X126699703Y-107650722D02*
G01*
X126714264Y-107652882D01*
X126728543Y-107656459D01*
X126742403Y-107661418D01*
X126755710Y-107667712D01*
X126768336Y-107675280D01*
X126780159Y-107684048D01*
X126791066Y-107693934D01*
X126800952Y-107704841D01*
X126809720Y-107716664D01*
X126817288Y-107729290D01*
X126823582Y-107742597D01*
X126828541Y-107756457D01*
X126832118Y-107770736D01*
X126834278Y-107785297D01*
X126835000Y-107800000D01*
X126835000Y-108100000D01*
X126834278Y-108114703D01*
X126832118Y-108129264D01*
X126828541Y-108143543D01*
X126823582Y-108157403D01*
X126817288Y-108170710D01*
X126809720Y-108183336D01*
X126800952Y-108195159D01*
X126791066Y-108206066D01*
X126780159Y-108215952D01*
X126768336Y-108224720D01*
X126755710Y-108232288D01*
X126742403Y-108238582D01*
X126728543Y-108243541D01*
X126714264Y-108247118D01*
X126699703Y-108249278D01*
X126685000Y-108250000D01*
X125035000Y-108250000D01*
X125020297Y-108249278D01*
X125005736Y-108247118D01*
X124991457Y-108243541D01*
X124977597Y-108238582D01*
X124964290Y-108232288D01*
X124951664Y-108224720D01*
X124939841Y-108215952D01*
X124928934Y-108206066D01*
X124919048Y-108195159D01*
X124910280Y-108183336D01*
X124902712Y-108170710D01*
X124896418Y-108157403D01*
X124891459Y-108143543D01*
X124887882Y-108129264D01*
X124885722Y-108114703D01*
X124885000Y-108100000D01*
X124885000Y-107800000D01*
X124885722Y-107785297D01*
X124887882Y-107770736D01*
X124891459Y-107756457D01*
X124896418Y-107742597D01*
X124902712Y-107729290D01*
X124910280Y-107716664D01*
X124919048Y-107704841D01*
X124928934Y-107693934D01*
X124939841Y-107684048D01*
X124951664Y-107675280D01*
X124964290Y-107667712D01*
X124977597Y-107661418D01*
X124991457Y-107656459D01*
X125005736Y-107652882D01*
X125020297Y-107650722D01*
X125035000Y-107650000D01*
X126685000Y-107650000D01*
X126699703Y-107650722D01*
X126699703Y-107650722D01*
G37*
D11*
X125860000Y-107950000D03*
D10*
G36*
X126699703Y-106380722D02*
G01*
X126714264Y-106382882D01*
X126728543Y-106386459D01*
X126742403Y-106391418D01*
X126755710Y-106397712D01*
X126768336Y-106405280D01*
X126780159Y-106414048D01*
X126791066Y-106423934D01*
X126800952Y-106434841D01*
X126809720Y-106446664D01*
X126817288Y-106459290D01*
X126823582Y-106472597D01*
X126828541Y-106486457D01*
X126832118Y-106500736D01*
X126834278Y-106515297D01*
X126835000Y-106530000D01*
X126835000Y-106830000D01*
X126834278Y-106844703D01*
X126832118Y-106859264D01*
X126828541Y-106873543D01*
X126823582Y-106887403D01*
X126817288Y-106900710D01*
X126809720Y-106913336D01*
X126800952Y-106925159D01*
X126791066Y-106936066D01*
X126780159Y-106945952D01*
X126768336Y-106954720D01*
X126755710Y-106962288D01*
X126742403Y-106968582D01*
X126728543Y-106973541D01*
X126714264Y-106977118D01*
X126699703Y-106979278D01*
X126685000Y-106980000D01*
X125035000Y-106980000D01*
X125020297Y-106979278D01*
X125005736Y-106977118D01*
X124991457Y-106973541D01*
X124977597Y-106968582D01*
X124964290Y-106962288D01*
X124951664Y-106954720D01*
X124939841Y-106945952D01*
X124928934Y-106936066D01*
X124919048Y-106925159D01*
X124910280Y-106913336D01*
X124902712Y-106900710D01*
X124896418Y-106887403D01*
X124891459Y-106873543D01*
X124887882Y-106859264D01*
X124885722Y-106844703D01*
X124885000Y-106830000D01*
X124885000Y-106530000D01*
X124885722Y-106515297D01*
X124887882Y-106500736D01*
X124891459Y-106486457D01*
X124896418Y-106472597D01*
X124902712Y-106459290D01*
X124910280Y-106446664D01*
X124919048Y-106434841D01*
X124928934Y-106423934D01*
X124939841Y-106414048D01*
X124951664Y-106405280D01*
X124964290Y-106397712D01*
X124977597Y-106391418D01*
X124991457Y-106386459D01*
X125005736Y-106382882D01*
X125020297Y-106380722D01*
X125035000Y-106380000D01*
X126685000Y-106380000D01*
X126699703Y-106380722D01*
X126699703Y-106380722D01*
G37*
D11*
X125860000Y-106680000D03*
D10*
G36*
X126699703Y-105110722D02*
G01*
X126714264Y-105112882D01*
X126728543Y-105116459D01*
X126742403Y-105121418D01*
X126755710Y-105127712D01*
X126768336Y-105135280D01*
X126780159Y-105144048D01*
X126791066Y-105153934D01*
X126800952Y-105164841D01*
X126809720Y-105176664D01*
X126817288Y-105189290D01*
X126823582Y-105202597D01*
X126828541Y-105216457D01*
X126832118Y-105230736D01*
X126834278Y-105245297D01*
X126835000Y-105260000D01*
X126835000Y-105560000D01*
X126834278Y-105574703D01*
X126832118Y-105589264D01*
X126828541Y-105603543D01*
X126823582Y-105617403D01*
X126817288Y-105630710D01*
X126809720Y-105643336D01*
X126800952Y-105655159D01*
X126791066Y-105666066D01*
X126780159Y-105675952D01*
X126768336Y-105684720D01*
X126755710Y-105692288D01*
X126742403Y-105698582D01*
X126728543Y-105703541D01*
X126714264Y-105707118D01*
X126699703Y-105709278D01*
X126685000Y-105710000D01*
X125035000Y-105710000D01*
X125020297Y-105709278D01*
X125005736Y-105707118D01*
X124991457Y-105703541D01*
X124977597Y-105698582D01*
X124964290Y-105692288D01*
X124951664Y-105684720D01*
X124939841Y-105675952D01*
X124928934Y-105666066D01*
X124919048Y-105655159D01*
X124910280Y-105643336D01*
X124902712Y-105630710D01*
X124896418Y-105617403D01*
X124891459Y-105603543D01*
X124887882Y-105589264D01*
X124885722Y-105574703D01*
X124885000Y-105560000D01*
X124885000Y-105260000D01*
X124885722Y-105245297D01*
X124887882Y-105230736D01*
X124891459Y-105216457D01*
X124896418Y-105202597D01*
X124902712Y-105189290D01*
X124910280Y-105176664D01*
X124919048Y-105164841D01*
X124928934Y-105153934D01*
X124939841Y-105144048D01*
X124951664Y-105135280D01*
X124964290Y-105127712D01*
X124977597Y-105121418D01*
X124991457Y-105116459D01*
X125005736Y-105112882D01*
X125020297Y-105110722D01*
X125035000Y-105110000D01*
X126685000Y-105110000D01*
X126699703Y-105110722D01*
X126699703Y-105110722D01*
G37*
D11*
X125860000Y-105410000D03*
D10*
G36*
X131649703Y-105110722D02*
G01*
X131664264Y-105112882D01*
X131678543Y-105116459D01*
X131692403Y-105121418D01*
X131705710Y-105127712D01*
X131718336Y-105135280D01*
X131730159Y-105144048D01*
X131741066Y-105153934D01*
X131750952Y-105164841D01*
X131759720Y-105176664D01*
X131767288Y-105189290D01*
X131773582Y-105202597D01*
X131778541Y-105216457D01*
X131782118Y-105230736D01*
X131784278Y-105245297D01*
X131785000Y-105260000D01*
X131785000Y-105560000D01*
X131784278Y-105574703D01*
X131782118Y-105589264D01*
X131778541Y-105603543D01*
X131773582Y-105617403D01*
X131767288Y-105630710D01*
X131759720Y-105643336D01*
X131750952Y-105655159D01*
X131741066Y-105666066D01*
X131730159Y-105675952D01*
X131718336Y-105684720D01*
X131705710Y-105692288D01*
X131692403Y-105698582D01*
X131678543Y-105703541D01*
X131664264Y-105707118D01*
X131649703Y-105709278D01*
X131635000Y-105710000D01*
X129985000Y-105710000D01*
X129970297Y-105709278D01*
X129955736Y-105707118D01*
X129941457Y-105703541D01*
X129927597Y-105698582D01*
X129914290Y-105692288D01*
X129901664Y-105684720D01*
X129889841Y-105675952D01*
X129878934Y-105666066D01*
X129869048Y-105655159D01*
X129860280Y-105643336D01*
X129852712Y-105630710D01*
X129846418Y-105617403D01*
X129841459Y-105603543D01*
X129837882Y-105589264D01*
X129835722Y-105574703D01*
X129835000Y-105560000D01*
X129835000Y-105260000D01*
X129835722Y-105245297D01*
X129837882Y-105230736D01*
X129841459Y-105216457D01*
X129846418Y-105202597D01*
X129852712Y-105189290D01*
X129860280Y-105176664D01*
X129869048Y-105164841D01*
X129878934Y-105153934D01*
X129889841Y-105144048D01*
X129901664Y-105135280D01*
X129914290Y-105127712D01*
X129927597Y-105121418D01*
X129941457Y-105116459D01*
X129955736Y-105112882D01*
X129970297Y-105110722D01*
X129985000Y-105110000D01*
X131635000Y-105110000D01*
X131649703Y-105110722D01*
X131649703Y-105110722D01*
G37*
D11*
X130810000Y-105410000D03*
D10*
G36*
X131649703Y-106380722D02*
G01*
X131664264Y-106382882D01*
X131678543Y-106386459D01*
X131692403Y-106391418D01*
X131705710Y-106397712D01*
X131718336Y-106405280D01*
X131730159Y-106414048D01*
X131741066Y-106423934D01*
X131750952Y-106434841D01*
X131759720Y-106446664D01*
X131767288Y-106459290D01*
X131773582Y-106472597D01*
X131778541Y-106486457D01*
X131782118Y-106500736D01*
X131784278Y-106515297D01*
X131785000Y-106530000D01*
X131785000Y-106830000D01*
X131784278Y-106844703D01*
X131782118Y-106859264D01*
X131778541Y-106873543D01*
X131773582Y-106887403D01*
X131767288Y-106900710D01*
X131759720Y-106913336D01*
X131750952Y-106925159D01*
X131741066Y-106936066D01*
X131730159Y-106945952D01*
X131718336Y-106954720D01*
X131705710Y-106962288D01*
X131692403Y-106968582D01*
X131678543Y-106973541D01*
X131664264Y-106977118D01*
X131649703Y-106979278D01*
X131635000Y-106980000D01*
X129985000Y-106980000D01*
X129970297Y-106979278D01*
X129955736Y-106977118D01*
X129941457Y-106973541D01*
X129927597Y-106968582D01*
X129914290Y-106962288D01*
X129901664Y-106954720D01*
X129889841Y-106945952D01*
X129878934Y-106936066D01*
X129869048Y-106925159D01*
X129860280Y-106913336D01*
X129852712Y-106900710D01*
X129846418Y-106887403D01*
X129841459Y-106873543D01*
X129837882Y-106859264D01*
X129835722Y-106844703D01*
X129835000Y-106830000D01*
X129835000Y-106530000D01*
X129835722Y-106515297D01*
X129837882Y-106500736D01*
X129841459Y-106486457D01*
X129846418Y-106472597D01*
X129852712Y-106459290D01*
X129860280Y-106446664D01*
X129869048Y-106434841D01*
X129878934Y-106423934D01*
X129889841Y-106414048D01*
X129901664Y-106405280D01*
X129914290Y-106397712D01*
X129927597Y-106391418D01*
X129941457Y-106386459D01*
X129955736Y-106382882D01*
X129970297Y-106380722D01*
X129985000Y-106380000D01*
X131635000Y-106380000D01*
X131649703Y-106380722D01*
X131649703Y-106380722D01*
G37*
D11*
X130810000Y-106680000D03*
D10*
G36*
X131649703Y-107650722D02*
G01*
X131664264Y-107652882D01*
X131678543Y-107656459D01*
X131692403Y-107661418D01*
X131705710Y-107667712D01*
X131718336Y-107675280D01*
X131730159Y-107684048D01*
X131741066Y-107693934D01*
X131750952Y-107704841D01*
X131759720Y-107716664D01*
X131767288Y-107729290D01*
X131773582Y-107742597D01*
X131778541Y-107756457D01*
X131782118Y-107770736D01*
X131784278Y-107785297D01*
X131785000Y-107800000D01*
X131785000Y-108100000D01*
X131784278Y-108114703D01*
X131782118Y-108129264D01*
X131778541Y-108143543D01*
X131773582Y-108157403D01*
X131767288Y-108170710D01*
X131759720Y-108183336D01*
X131750952Y-108195159D01*
X131741066Y-108206066D01*
X131730159Y-108215952D01*
X131718336Y-108224720D01*
X131705710Y-108232288D01*
X131692403Y-108238582D01*
X131678543Y-108243541D01*
X131664264Y-108247118D01*
X131649703Y-108249278D01*
X131635000Y-108250000D01*
X129985000Y-108250000D01*
X129970297Y-108249278D01*
X129955736Y-108247118D01*
X129941457Y-108243541D01*
X129927597Y-108238582D01*
X129914290Y-108232288D01*
X129901664Y-108224720D01*
X129889841Y-108215952D01*
X129878934Y-108206066D01*
X129869048Y-108195159D01*
X129860280Y-108183336D01*
X129852712Y-108170710D01*
X129846418Y-108157403D01*
X129841459Y-108143543D01*
X129837882Y-108129264D01*
X129835722Y-108114703D01*
X129835000Y-108100000D01*
X129835000Y-107800000D01*
X129835722Y-107785297D01*
X129837882Y-107770736D01*
X129841459Y-107756457D01*
X129846418Y-107742597D01*
X129852712Y-107729290D01*
X129860280Y-107716664D01*
X129869048Y-107704841D01*
X129878934Y-107693934D01*
X129889841Y-107684048D01*
X129901664Y-107675280D01*
X129914290Y-107667712D01*
X129927597Y-107661418D01*
X129941457Y-107656459D01*
X129955736Y-107652882D01*
X129970297Y-107650722D01*
X129985000Y-107650000D01*
X131635000Y-107650000D01*
X131649703Y-107650722D01*
X131649703Y-107650722D01*
G37*
D11*
X130810000Y-107950000D03*
D10*
G36*
X131649703Y-108920722D02*
G01*
X131664264Y-108922882D01*
X131678543Y-108926459D01*
X131692403Y-108931418D01*
X131705710Y-108937712D01*
X131718336Y-108945280D01*
X131730159Y-108954048D01*
X131741066Y-108963934D01*
X131750952Y-108974841D01*
X131759720Y-108986664D01*
X131767288Y-108999290D01*
X131773582Y-109012597D01*
X131778541Y-109026457D01*
X131782118Y-109040736D01*
X131784278Y-109055297D01*
X131785000Y-109070000D01*
X131785000Y-109370000D01*
X131784278Y-109384703D01*
X131782118Y-109399264D01*
X131778541Y-109413543D01*
X131773582Y-109427403D01*
X131767288Y-109440710D01*
X131759720Y-109453336D01*
X131750952Y-109465159D01*
X131741066Y-109476066D01*
X131730159Y-109485952D01*
X131718336Y-109494720D01*
X131705710Y-109502288D01*
X131692403Y-109508582D01*
X131678543Y-109513541D01*
X131664264Y-109517118D01*
X131649703Y-109519278D01*
X131635000Y-109520000D01*
X129985000Y-109520000D01*
X129970297Y-109519278D01*
X129955736Y-109517118D01*
X129941457Y-109513541D01*
X129927597Y-109508582D01*
X129914290Y-109502288D01*
X129901664Y-109494720D01*
X129889841Y-109485952D01*
X129878934Y-109476066D01*
X129869048Y-109465159D01*
X129860280Y-109453336D01*
X129852712Y-109440710D01*
X129846418Y-109427403D01*
X129841459Y-109413543D01*
X129837882Y-109399264D01*
X129835722Y-109384703D01*
X129835000Y-109370000D01*
X129835000Y-109070000D01*
X129835722Y-109055297D01*
X129837882Y-109040736D01*
X129841459Y-109026457D01*
X129846418Y-109012597D01*
X129852712Y-108999290D01*
X129860280Y-108986664D01*
X129869048Y-108974841D01*
X129878934Y-108963934D01*
X129889841Y-108954048D01*
X129901664Y-108945280D01*
X129914290Y-108937712D01*
X129927597Y-108931418D01*
X129941457Y-108926459D01*
X129955736Y-108922882D01*
X129970297Y-108920722D01*
X129985000Y-108920000D01*
X131635000Y-108920000D01*
X131649703Y-108920722D01*
X131649703Y-108920722D01*
G37*
D11*
X130810000Y-109220000D03*
D10*
G36*
X128017544Y-105961108D02*
G01*
X128039871Y-105964419D01*
X128061765Y-105969904D01*
X128083017Y-105977508D01*
X128103421Y-105987158D01*
X128122781Y-105998762D01*
X128140910Y-106012208D01*
X128157635Y-106027365D01*
X128172792Y-106044090D01*
X128186238Y-106062219D01*
X128197842Y-106081579D01*
X128207492Y-106101983D01*
X128215096Y-106123235D01*
X128220581Y-106145129D01*
X128223892Y-106167456D01*
X128225000Y-106190000D01*
X128225000Y-106940000D01*
X128223892Y-106962544D01*
X128220581Y-106984871D01*
X128215096Y-107006765D01*
X128207492Y-107028017D01*
X128197842Y-107048421D01*
X128186238Y-107067781D01*
X128172792Y-107085910D01*
X128157635Y-107102635D01*
X128140910Y-107117792D01*
X128122781Y-107131238D01*
X128103421Y-107142842D01*
X128083017Y-107152492D01*
X128061765Y-107160096D01*
X128039871Y-107165581D01*
X128017544Y-107168892D01*
X127995000Y-107170000D01*
X127535000Y-107170000D01*
X127512456Y-107168892D01*
X127490129Y-107165581D01*
X127468235Y-107160096D01*
X127446983Y-107152492D01*
X127426579Y-107142842D01*
X127407219Y-107131238D01*
X127389090Y-107117792D01*
X127372365Y-107102635D01*
X127357208Y-107085910D01*
X127343762Y-107067781D01*
X127332158Y-107048421D01*
X127322508Y-107028017D01*
X127314904Y-107006765D01*
X127309419Y-106984871D01*
X127306108Y-106962544D01*
X127305000Y-106940000D01*
X127305000Y-106190000D01*
X127306108Y-106167456D01*
X127309419Y-106145129D01*
X127314904Y-106123235D01*
X127322508Y-106101983D01*
X127332158Y-106081579D01*
X127343762Y-106062219D01*
X127357208Y-106044090D01*
X127372365Y-106027365D01*
X127389090Y-106012208D01*
X127407219Y-105998762D01*
X127426579Y-105987158D01*
X127446983Y-105977508D01*
X127468235Y-105969904D01*
X127490129Y-105964419D01*
X127512456Y-105961108D01*
X127535000Y-105960000D01*
X127995000Y-105960000D01*
X128017544Y-105961108D01*
X128017544Y-105961108D01*
G37*
D12*
X127765000Y-106565000D03*
D10*
G36*
X128017544Y-107461108D02*
G01*
X128039871Y-107464419D01*
X128061765Y-107469904D01*
X128083017Y-107477508D01*
X128103421Y-107487158D01*
X128122781Y-107498762D01*
X128140910Y-107512208D01*
X128157635Y-107527365D01*
X128172792Y-107544090D01*
X128186238Y-107562219D01*
X128197842Y-107581579D01*
X128207492Y-107601983D01*
X128215096Y-107623235D01*
X128220581Y-107645129D01*
X128223892Y-107667456D01*
X128225000Y-107690000D01*
X128225000Y-108440000D01*
X128223892Y-108462544D01*
X128220581Y-108484871D01*
X128215096Y-108506765D01*
X128207492Y-108528017D01*
X128197842Y-108548421D01*
X128186238Y-108567781D01*
X128172792Y-108585910D01*
X128157635Y-108602635D01*
X128140910Y-108617792D01*
X128122781Y-108631238D01*
X128103421Y-108642842D01*
X128083017Y-108652492D01*
X128061765Y-108660096D01*
X128039871Y-108665581D01*
X128017544Y-108668892D01*
X127995000Y-108670000D01*
X127535000Y-108670000D01*
X127512456Y-108668892D01*
X127490129Y-108665581D01*
X127468235Y-108660096D01*
X127446983Y-108652492D01*
X127426579Y-108642842D01*
X127407219Y-108631238D01*
X127389090Y-108617792D01*
X127372365Y-108602635D01*
X127357208Y-108585910D01*
X127343762Y-108567781D01*
X127332158Y-108548421D01*
X127322508Y-108528017D01*
X127314904Y-108506765D01*
X127309419Y-108484871D01*
X127306108Y-108462544D01*
X127305000Y-108440000D01*
X127305000Y-107690000D01*
X127306108Y-107667456D01*
X127309419Y-107645129D01*
X127314904Y-107623235D01*
X127322508Y-107601983D01*
X127332158Y-107581579D01*
X127343762Y-107562219D01*
X127357208Y-107544090D01*
X127372365Y-107527365D01*
X127389090Y-107512208D01*
X127407219Y-107498762D01*
X127426579Y-107487158D01*
X127446983Y-107477508D01*
X127468235Y-107469904D01*
X127490129Y-107464419D01*
X127512456Y-107461108D01*
X127535000Y-107460000D01*
X127995000Y-107460000D01*
X128017544Y-107461108D01*
X128017544Y-107461108D01*
G37*
D12*
X127765000Y-108065000D03*
D10*
G36*
X129157544Y-105961108D02*
G01*
X129179871Y-105964419D01*
X129201765Y-105969904D01*
X129223017Y-105977508D01*
X129243421Y-105987158D01*
X129262781Y-105998762D01*
X129280910Y-106012208D01*
X129297635Y-106027365D01*
X129312792Y-106044090D01*
X129326238Y-106062219D01*
X129337842Y-106081579D01*
X129347492Y-106101983D01*
X129355096Y-106123235D01*
X129360581Y-106145129D01*
X129363892Y-106167456D01*
X129365000Y-106190000D01*
X129365000Y-106940000D01*
X129363892Y-106962544D01*
X129360581Y-106984871D01*
X129355096Y-107006765D01*
X129347492Y-107028017D01*
X129337842Y-107048421D01*
X129326238Y-107067781D01*
X129312792Y-107085910D01*
X129297635Y-107102635D01*
X129280910Y-107117792D01*
X129262781Y-107131238D01*
X129243421Y-107142842D01*
X129223017Y-107152492D01*
X129201765Y-107160096D01*
X129179871Y-107165581D01*
X129157544Y-107168892D01*
X129135000Y-107170000D01*
X128675000Y-107170000D01*
X128652456Y-107168892D01*
X128630129Y-107165581D01*
X128608235Y-107160096D01*
X128586983Y-107152492D01*
X128566579Y-107142842D01*
X128547219Y-107131238D01*
X128529090Y-107117792D01*
X128512365Y-107102635D01*
X128497208Y-107085910D01*
X128483762Y-107067781D01*
X128472158Y-107048421D01*
X128462508Y-107028017D01*
X128454904Y-107006765D01*
X128449419Y-106984871D01*
X128446108Y-106962544D01*
X128445000Y-106940000D01*
X128445000Y-106190000D01*
X128446108Y-106167456D01*
X128449419Y-106145129D01*
X128454904Y-106123235D01*
X128462508Y-106101983D01*
X128472158Y-106081579D01*
X128483762Y-106062219D01*
X128497208Y-106044090D01*
X128512365Y-106027365D01*
X128529090Y-106012208D01*
X128547219Y-105998762D01*
X128566579Y-105987158D01*
X128586983Y-105977508D01*
X128608235Y-105969904D01*
X128630129Y-105964419D01*
X128652456Y-105961108D01*
X128675000Y-105960000D01*
X129135000Y-105960000D01*
X129157544Y-105961108D01*
X129157544Y-105961108D01*
G37*
D12*
X128905000Y-106565000D03*
D10*
G36*
X129157544Y-107461108D02*
G01*
X129179871Y-107464419D01*
X129201765Y-107469904D01*
X129223017Y-107477508D01*
X129243421Y-107487158D01*
X129262781Y-107498762D01*
X129280910Y-107512208D01*
X129297635Y-107527365D01*
X129312792Y-107544090D01*
X129326238Y-107562219D01*
X129337842Y-107581579D01*
X129347492Y-107601983D01*
X129355096Y-107623235D01*
X129360581Y-107645129D01*
X129363892Y-107667456D01*
X129365000Y-107690000D01*
X129365000Y-108440000D01*
X129363892Y-108462544D01*
X129360581Y-108484871D01*
X129355096Y-108506765D01*
X129347492Y-108528017D01*
X129337842Y-108548421D01*
X129326238Y-108567781D01*
X129312792Y-108585910D01*
X129297635Y-108602635D01*
X129280910Y-108617792D01*
X129262781Y-108631238D01*
X129243421Y-108642842D01*
X129223017Y-108652492D01*
X129201765Y-108660096D01*
X129179871Y-108665581D01*
X129157544Y-108668892D01*
X129135000Y-108670000D01*
X128675000Y-108670000D01*
X128652456Y-108668892D01*
X128630129Y-108665581D01*
X128608235Y-108660096D01*
X128586983Y-108652492D01*
X128566579Y-108642842D01*
X128547219Y-108631238D01*
X128529090Y-108617792D01*
X128512365Y-108602635D01*
X128497208Y-108585910D01*
X128483762Y-108567781D01*
X128472158Y-108548421D01*
X128462508Y-108528017D01*
X128454904Y-108506765D01*
X128449419Y-108484871D01*
X128446108Y-108462544D01*
X128445000Y-108440000D01*
X128445000Y-107690000D01*
X128446108Y-107667456D01*
X128449419Y-107645129D01*
X128454904Y-107623235D01*
X128462508Y-107601983D01*
X128472158Y-107581579D01*
X128483762Y-107562219D01*
X128497208Y-107544090D01*
X128512365Y-107527365D01*
X128529090Y-107512208D01*
X128547219Y-107498762D01*
X128566579Y-107487158D01*
X128586983Y-107477508D01*
X128608235Y-107469904D01*
X128630129Y-107464419D01*
X128652456Y-107461108D01*
X128675000Y-107460000D01*
X129135000Y-107460000D01*
X129157544Y-107461108D01*
X129157544Y-107461108D01*
G37*
D12*
X128905000Y-108065000D03*
D10*
G36*
X130020142Y-119558674D02*
G01*
X130043803Y-119562184D01*
X130067007Y-119567996D01*
X130089529Y-119576054D01*
X130111153Y-119586282D01*
X130131670Y-119598579D01*
X130150883Y-119612829D01*
X130168607Y-119628893D01*
X130184671Y-119646617D01*
X130198921Y-119665830D01*
X130211218Y-119686347D01*
X130221446Y-119707971D01*
X130229504Y-119730493D01*
X130235316Y-119753697D01*
X130238826Y-119777358D01*
X130240000Y-119801250D01*
X130240000Y-120288750D01*
X130238826Y-120312642D01*
X130235316Y-120336303D01*
X130229504Y-120359507D01*
X130221446Y-120382029D01*
X130211218Y-120403653D01*
X130198921Y-120424170D01*
X130184671Y-120443383D01*
X130168607Y-120461107D01*
X130150883Y-120477171D01*
X130131670Y-120491421D01*
X130111153Y-120503718D01*
X130089529Y-120513946D01*
X130067007Y-120522004D01*
X130043803Y-120527816D01*
X130020142Y-120531326D01*
X129996250Y-120532500D01*
X129083750Y-120532500D01*
X129059858Y-120531326D01*
X129036197Y-120527816D01*
X129012993Y-120522004D01*
X128990471Y-120513946D01*
X128968847Y-120503718D01*
X128948330Y-120491421D01*
X128929117Y-120477171D01*
X128911393Y-120461107D01*
X128895329Y-120443383D01*
X128881079Y-120424170D01*
X128868782Y-120403653D01*
X128858554Y-120382029D01*
X128850496Y-120359507D01*
X128844684Y-120336303D01*
X128841174Y-120312642D01*
X128840000Y-120288750D01*
X128840000Y-119801250D01*
X128841174Y-119777358D01*
X128844684Y-119753697D01*
X128850496Y-119730493D01*
X128858554Y-119707971D01*
X128868782Y-119686347D01*
X128881079Y-119665830D01*
X128895329Y-119646617D01*
X128911393Y-119628893D01*
X128929117Y-119612829D01*
X128948330Y-119598579D01*
X128968847Y-119586282D01*
X128990471Y-119576054D01*
X129012993Y-119567996D01*
X129036197Y-119562184D01*
X129059858Y-119558674D01*
X129083750Y-119557500D01*
X129996250Y-119557500D01*
X130020142Y-119558674D01*
X130020142Y-119558674D01*
G37*
D13*
X129540000Y-120045000D03*
D10*
G36*
X130020142Y-121433674D02*
G01*
X130043803Y-121437184D01*
X130067007Y-121442996D01*
X130089529Y-121451054D01*
X130111153Y-121461282D01*
X130131670Y-121473579D01*
X130150883Y-121487829D01*
X130168607Y-121503893D01*
X130184671Y-121521617D01*
X130198921Y-121540830D01*
X130211218Y-121561347D01*
X130221446Y-121582971D01*
X130229504Y-121605493D01*
X130235316Y-121628697D01*
X130238826Y-121652358D01*
X130240000Y-121676250D01*
X130240000Y-122163750D01*
X130238826Y-122187642D01*
X130235316Y-122211303D01*
X130229504Y-122234507D01*
X130221446Y-122257029D01*
X130211218Y-122278653D01*
X130198921Y-122299170D01*
X130184671Y-122318383D01*
X130168607Y-122336107D01*
X130150883Y-122352171D01*
X130131670Y-122366421D01*
X130111153Y-122378718D01*
X130089529Y-122388946D01*
X130067007Y-122397004D01*
X130043803Y-122402816D01*
X130020142Y-122406326D01*
X129996250Y-122407500D01*
X129083750Y-122407500D01*
X129059858Y-122406326D01*
X129036197Y-122402816D01*
X129012993Y-122397004D01*
X128990471Y-122388946D01*
X128968847Y-122378718D01*
X128948330Y-122366421D01*
X128929117Y-122352171D01*
X128911393Y-122336107D01*
X128895329Y-122318383D01*
X128881079Y-122299170D01*
X128868782Y-122278653D01*
X128858554Y-122257029D01*
X128850496Y-122234507D01*
X128844684Y-122211303D01*
X128841174Y-122187642D01*
X128840000Y-122163750D01*
X128840000Y-121676250D01*
X128841174Y-121652358D01*
X128844684Y-121628697D01*
X128850496Y-121605493D01*
X128858554Y-121582971D01*
X128868782Y-121561347D01*
X128881079Y-121540830D01*
X128895329Y-121521617D01*
X128911393Y-121503893D01*
X128929117Y-121487829D01*
X128948330Y-121473579D01*
X128968847Y-121461282D01*
X128990471Y-121451054D01*
X129012993Y-121442996D01*
X129036197Y-121437184D01*
X129059858Y-121433674D01*
X129083750Y-121432500D01*
X129996250Y-121432500D01*
X130020142Y-121433674D01*
X130020142Y-121433674D01*
G37*
D13*
X129540000Y-121920000D03*
D10*
G36*
X126210142Y-119558674D02*
G01*
X126233803Y-119562184D01*
X126257007Y-119567996D01*
X126279529Y-119576054D01*
X126301153Y-119586282D01*
X126321670Y-119598579D01*
X126340883Y-119612829D01*
X126358607Y-119628893D01*
X126374671Y-119646617D01*
X126388921Y-119665830D01*
X126401218Y-119686347D01*
X126411446Y-119707971D01*
X126419504Y-119730493D01*
X126425316Y-119753697D01*
X126428826Y-119777358D01*
X126430000Y-119801250D01*
X126430000Y-120288750D01*
X126428826Y-120312642D01*
X126425316Y-120336303D01*
X126419504Y-120359507D01*
X126411446Y-120382029D01*
X126401218Y-120403653D01*
X126388921Y-120424170D01*
X126374671Y-120443383D01*
X126358607Y-120461107D01*
X126340883Y-120477171D01*
X126321670Y-120491421D01*
X126301153Y-120503718D01*
X126279529Y-120513946D01*
X126257007Y-120522004D01*
X126233803Y-120527816D01*
X126210142Y-120531326D01*
X126186250Y-120532500D01*
X125273750Y-120532500D01*
X125249858Y-120531326D01*
X125226197Y-120527816D01*
X125202993Y-120522004D01*
X125180471Y-120513946D01*
X125158847Y-120503718D01*
X125138330Y-120491421D01*
X125119117Y-120477171D01*
X125101393Y-120461107D01*
X125085329Y-120443383D01*
X125071079Y-120424170D01*
X125058782Y-120403653D01*
X125048554Y-120382029D01*
X125040496Y-120359507D01*
X125034684Y-120336303D01*
X125031174Y-120312642D01*
X125030000Y-120288750D01*
X125030000Y-119801250D01*
X125031174Y-119777358D01*
X125034684Y-119753697D01*
X125040496Y-119730493D01*
X125048554Y-119707971D01*
X125058782Y-119686347D01*
X125071079Y-119665830D01*
X125085329Y-119646617D01*
X125101393Y-119628893D01*
X125119117Y-119612829D01*
X125138330Y-119598579D01*
X125158847Y-119586282D01*
X125180471Y-119576054D01*
X125202993Y-119567996D01*
X125226197Y-119562184D01*
X125249858Y-119558674D01*
X125273750Y-119557500D01*
X126186250Y-119557500D01*
X126210142Y-119558674D01*
X126210142Y-119558674D01*
G37*
D13*
X125730000Y-120045000D03*
D10*
G36*
X126210142Y-121433674D02*
G01*
X126233803Y-121437184D01*
X126257007Y-121442996D01*
X126279529Y-121451054D01*
X126301153Y-121461282D01*
X126321670Y-121473579D01*
X126340883Y-121487829D01*
X126358607Y-121503893D01*
X126374671Y-121521617D01*
X126388921Y-121540830D01*
X126401218Y-121561347D01*
X126411446Y-121582971D01*
X126419504Y-121605493D01*
X126425316Y-121628697D01*
X126428826Y-121652358D01*
X126430000Y-121676250D01*
X126430000Y-122163750D01*
X126428826Y-122187642D01*
X126425316Y-122211303D01*
X126419504Y-122234507D01*
X126411446Y-122257029D01*
X126401218Y-122278653D01*
X126388921Y-122299170D01*
X126374671Y-122318383D01*
X126358607Y-122336107D01*
X126340883Y-122352171D01*
X126321670Y-122366421D01*
X126301153Y-122378718D01*
X126279529Y-122388946D01*
X126257007Y-122397004D01*
X126233803Y-122402816D01*
X126210142Y-122406326D01*
X126186250Y-122407500D01*
X125273750Y-122407500D01*
X125249858Y-122406326D01*
X125226197Y-122402816D01*
X125202993Y-122397004D01*
X125180471Y-122388946D01*
X125158847Y-122378718D01*
X125138330Y-122366421D01*
X125119117Y-122352171D01*
X125101393Y-122336107D01*
X125085329Y-122318383D01*
X125071079Y-122299170D01*
X125058782Y-122278653D01*
X125048554Y-122257029D01*
X125040496Y-122234507D01*
X125034684Y-122211303D01*
X125031174Y-122187642D01*
X125030000Y-122163750D01*
X125030000Y-121676250D01*
X125031174Y-121652358D01*
X125034684Y-121628697D01*
X125040496Y-121605493D01*
X125048554Y-121582971D01*
X125058782Y-121561347D01*
X125071079Y-121540830D01*
X125085329Y-121521617D01*
X125101393Y-121503893D01*
X125119117Y-121487829D01*
X125138330Y-121473579D01*
X125158847Y-121461282D01*
X125180471Y-121451054D01*
X125202993Y-121442996D01*
X125226197Y-121437184D01*
X125249858Y-121433674D01*
X125273750Y-121432500D01*
X126186250Y-121432500D01*
X126210142Y-121433674D01*
X126210142Y-121433674D01*
G37*
D13*
X125730000Y-121920000D03*
D10*
G36*
X131290142Y-113178674D02*
G01*
X131313803Y-113182184D01*
X131337007Y-113187996D01*
X131359529Y-113196054D01*
X131381153Y-113206282D01*
X131401670Y-113218579D01*
X131420883Y-113232829D01*
X131438607Y-113248893D01*
X131454671Y-113266617D01*
X131468921Y-113285830D01*
X131481218Y-113306347D01*
X131491446Y-113327971D01*
X131499504Y-113350493D01*
X131505316Y-113373697D01*
X131508826Y-113397358D01*
X131510000Y-113421250D01*
X131510000Y-113908750D01*
X131508826Y-113932642D01*
X131505316Y-113956303D01*
X131499504Y-113979507D01*
X131491446Y-114002029D01*
X131481218Y-114023653D01*
X131468921Y-114044170D01*
X131454671Y-114063383D01*
X131438607Y-114081107D01*
X131420883Y-114097171D01*
X131401670Y-114111421D01*
X131381153Y-114123718D01*
X131359529Y-114133946D01*
X131337007Y-114142004D01*
X131313803Y-114147816D01*
X131290142Y-114151326D01*
X131266250Y-114152500D01*
X130353750Y-114152500D01*
X130329858Y-114151326D01*
X130306197Y-114147816D01*
X130282993Y-114142004D01*
X130260471Y-114133946D01*
X130238847Y-114123718D01*
X130218330Y-114111421D01*
X130199117Y-114097171D01*
X130181393Y-114081107D01*
X130165329Y-114063383D01*
X130151079Y-114044170D01*
X130138782Y-114023653D01*
X130128554Y-114002029D01*
X130120496Y-113979507D01*
X130114684Y-113956303D01*
X130111174Y-113932642D01*
X130110000Y-113908750D01*
X130110000Y-113421250D01*
X130111174Y-113397358D01*
X130114684Y-113373697D01*
X130120496Y-113350493D01*
X130128554Y-113327971D01*
X130138782Y-113306347D01*
X130151079Y-113285830D01*
X130165329Y-113266617D01*
X130181393Y-113248893D01*
X130199117Y-113232829D01*
X130218330Y-113218579D01*
X130238847Y-113206282D01*
X130260471Y-113196054D01*
X130282993Y-113187996D01*
X130306197Y-113182184D01*
X130329858Y-113178674D01*
X130353750Y-113177500D01*
X131266250Y-113177500D01*
X131290142Y-113178674D01*
X131290142Y-113178674D01*
G37*
D13*
X130810000Y-113665000D03*
D10*
G36*
X131290142Y-115053674D02*
G01*
X131313803Y-115057184D01*
X131337007Y-115062996D01*
X131359529Y-115071054D01*
X131381153Y-115081282D01*
X131401670Y-115093579D01*
X131420883Y-115107829D01*
X131438607Y-115123893D01*
X131454671Y-115141617D01*
X131468921Y-115160830D01*
X131481218Y-115181347D01*
X131491446Y-115202971D01*
X131499504Y-115225493D01*
X131505316Y-115248697D01*
X131508826Y-115272358D01*
X131510000Y-115296250D01*
X131510000Y-115783750D01*
X131508826Y-115807642D01*
X131505316Y-115831303D01*
X131499504Y-115854507D01*
X131491446Y-115877029D01*
X131481218Y-115898653D01*
X131468921Y-115919170D01*
X131454671Y-115938383D01*
X131438607Y-115956107D01*
X131420883Y-115972171D01*
X131401670Y-115986421D01*
X131381153Y-115998718D01*
X131359529Y-116008946D01*
X131337007Y-116017004D01*
X131313803Y-116022816D01*
X131290142Y-116026326D01*
X131266250Y-116027500D01*
X130353750Y-116027500D01*
X130329858Y-116026326D01*
X130306197Y-116022816D01*
X130282993Y-116017004D01*
X130260471Y-116008946D01*
X130238847Y-115998718D01*
X130218330Y-115986421D01*
X130199117Y-115972171D01*
X130181393Y-115956107D01*
X130165329Y-115938383D01*
X130151079Y-115919170D01*
X130138782Y-115898653D01*
X130128554Y-115877029D01*
X130120496Y-115854507D01*
X130114684Y-115831303D01*
X130111174Y-115807642D01*
X130110000Y-115783750D01*
X130110000Y-115296250D01*
X130111174Y-115272358D01*
X130114684Y-115248697D01*
X130120496Y-115225493D01*
X130128554Y-115202971D01*
X130138782Y-115181347D01*
X130151079Y-115160830D01*
X130165329Y-115141617D01*
X130181393Y-115123893D01*
X130199117Y-115107829D01*
X130218330Y-115093579D01*
X130238847Y-115081282D01*
X130260471Y-115071054D01*
X130282993Y-115062996D01*
X130306197Y-115057184D01*
X130329858Y-115053674D01*
X130353750Y-115052500D01*
X131266250Y-115052500D01*
X131290142Y-115053674D01*
X131290142Y-115053674D01*
G37*
D13*
X130810000Y-115540000D03*
D10*
G36*
X105677642Y-151701174D02*
G01*
X105701303Y-151704684D01*
X105724507Y-151710496D01*
X105747029Y-151718554D01*
X105768653Y-151728782D01*
X105789170Y-151741079D01*
X105808383Y-151755329D01*
X105826107Y-151771393D01*
X105842171Y-151789117D01*
X105856421Y-151808330D01*
X105868718Y-151828847D01*
X105878946Y-151850471D01*
X105887004Y-151872993D01*
X105892816Y-151896197D01*
X105896326Y-151919858D01*
X105897500Y-151943750D01*
X105897500Y-152856250D01*
X105896326Y-152880142D01*
X105892816Y-152903803D01*
X105887004Y-152927007D01*
X105878946Y-152949529D01*
X105868718Y-152971153D01*
X105856421Y-152991670D01*
X105842171Y-153010883D01*
X105826107Y-153028607D01*
X105808383Y-153044671D01*
X105789170Y-153058921D01*
X105768653Y-153071218D01*
X105747029Y-153081446D01*
X105724507Y-153089504D01*
X105701303Y-153095316D01*
X105677642Y-153098826D01*
X105653750Y-153100000D01*
X105166250Y-153100000D01*
X105142358Y-153098826D01*
X105118697Y-153095316D01*
X105095493Y-153089504D01*
X105072971Y-153081446D01*
X105051347Y-153071218D01*
X105030830Y-153058921D01*
X105011617Y-153044671D01*
X104993893Y-153028607D01*
X104977829Y-153010883D01*
X104963579Y-152991670D01*
X104951282Y-152971153D01*
X104941054Y-152949529D01*
X104932996Y-152927007D01*
X104927184Y-152903803D01*
X104923674Y-152880142D01*
X104922500Y-152856250D01*
X104922500Y-151943750D01*
X104923674Y-151919858D01*
X104927184Y-151896197D01*
X104932996Y-151872993D01*
X104941054Y-151850471D01*
X104951282Y-151828847D01*
X104963579Y-151808330D01*
X104977829Y-151789117D01*
X104993893Y-151771393D01*
X105011617Y-151755329D01*
X105030830Y-151741079D01*
X105051347Y-151728782D01*
X105072971Y-151718554D01*
X105095493Y-151710496D01*
X105118697Y-151704684D01*
X105142358Y-151701174D01*
X105166250Y-151700000D01*
X105653750Y-151700000D01*
X105677642Y-151701174D01*
X105677642Y-151701174D01*
G37*
D13*
X105410000Y-152400000D03*
D10*
G36*
X107552642Y-151701174D02*
G01*
X107576303Y-151704684D01*
X107599507Y-151710496D01*
X107622029Y-151718554D01*
X107643653Y-151728782D01*
X107664170Y-151741079D01*
X107683383Y-151755329D01*
X107701107Y-151771393D01*
X107717171Y-151789117D01*
X107731421Y-151808330D01*
X107743718Y-151828847D01*
X107753946Y-151850471D01*
X107762004Y-151872993D01*
X107767816Y-151896197D01*
X107771326Y-151919858D01*
X107772500Y-151943750D01*
X107772500Y-152856250D01*
X107771326Y-152880142D01*
X107767816Y-152903803D01*
X107762004Y-152927007D01*
X107753946Y-152949529D01*
X107743718Y-152971153D01*
X107731421Y-152991670D01*
X107717171Y-153010883D01*
X107701107Y-153028607D01*
X107683383Y-153044671D01*
X107664170Y-153058921D01*
X107643653Y-153071218D01*
X107622029Y-153081446D01*
X107599507Y-153089504D01*
X107576303Y-153095316D01*
X107552642Y-153098826D01*
X107528750Y-153100000D01*
X107041250Y-153100000D01*
X107017358Y-153098826D01*
X106993697Y-153095316D01*
X106970493Y-153089504D01*
X106947971Y-153081446D01*
X106926347Y-153071218D01*
X106905830Y-153058921D01*
X106886617Y-153044671D01*
X106868893Y-153028607D01*
X106852829Y-153010883D01*
X106838579Y-152991670D01*
X106826282Y-152971153D01*
X106816054Y-152949529D01*
X106807996Y-152927007D01*
X106802184Y-152903803D01*
X106798674Y-152880142D01*
X106797500Y-152856250D01*
X106797500Y-151943750D01*
X106798674Y-151919858D01*
X106802184Y-151896197D01*
X106807996Y-151872993D01*
X106816054Y-151850471D01*
X106826282Y-151828847D01*
X106838579Y-151808330D01*
X106852829Y-151789117D01*
X106868893Y-151771393D01*
X106886617Y-151755329D01*
X106905830Y-151741079D01*
X106926347Y-151728782D01*
X106947971Y-151718554D01*
X106970493Y-151710496D01*
X106993697Y-151704684D01*
X107017358Y-151701174D01*
X107041250Y-151700000D01*
X107528750Y-151700000D01*
X107552642Y-151701174D01*
X107552642Y-151701174D01*
G37*
D13*
X107285000Y-152400000D03*
D10*
G36*
X81547642Y-147891174D02*
G01*
X81571303Y-147894684D01*
X81594507Y-147900496D01*
X81617029Y-147908554D01*
X81638653Y-147918782D01*
X81659170Y-147931079D01*
X81678383Y-147945329D01*
X81696107Y-147961393D01*
X81712171Y-147979117D01*
X81726421Y-147998330D01*
X81738718Y-148018847D01*
X81748946Y-148040471D01*
X81757004Y-148062993D01*
X81762816Y-148086197D01*
X81766326Y-148109858D01*
X81767500Y-148133750D01*
X81767500Y-149046250D01*
X81766326Y-149070142D01*
X81762816Y-149093803D01*
X81757004Y-149117007D01*
X81748946Y-149139529D01*
X81738718Y-149161153D01*
X81726421Y-149181670D01*
X81712171Y-149200883D01*
X81696107Y-149218607D01*
X81678383Y-149234671D01*
X81659170Y-149248921D01*
X81638653Y-149261218D01*
X81617029Y-149271446D01*
X81594507Y-149279504D01*
X81571303Y-149285316D01*
X81547642Y-149288826D01*
X81523750Y-149290000D01*
X81036250Y-149290000D01*
X81012358Y-149288826D01*
X80988697Y-149285316D01*
X80965493Y-149279504D01*
X80942971Y-149271446D01*
X80921347Y-149261218D01*
X80900830Y-149248921D01*
X80881617Y-149234671D01*
X80863893Y-149218607D01*
X80847829Y-149200883D01*
X80833579Y-149181670D01*
X80821282Y-149161153D01*
X80811054Y-149139529D01*
X80802996Y-149117007D01*
X80797184Y-149093803D01*
X80793674Y-149070142D01*
X80792500Y-149046250D01*
X80792500Y-148133750D01*
X80793674Y-148109858D01*
X80797184Y-148086197D01*
X80802996Y-148062993D01*
X80811054Y-148040471D01*
X80821282Y-148018847D01*
X80833579Y-147998330D01*
X80847829Y-147979117D01*
X80863893Y-147961393D01*
X80881617Y-147945329D01*
X80900830Y-147931079D01*
X80921347Y-147918782D01*
X80942971Y-147908554D01*
X80965493Y-147900496D01*
X80988697Y-147894684D01*
X81012358Y-147891174D01*
X81036250Y-147890000D01*
X81523750Y-147890000D01*
X81547642Y-147891174D01*
X81547642Y-147891174D01*
G37*
D13*
X81280000Y-148590000D03*
D10*
G36*
X79672642Y-147891174D02*
G01*
X79696303Y-147894684D01*
X79719507Y-147900496D01*
X79742029Y-147908554D01*
X79763653Y-147918782D01*
X79784170Y-147931079D01*
X79803383Y-147945329D01*
X79821107Y-147961393D01*
X79837171Y-147979117D01*
X79851421Y-147998330D01*
X79863718Y-148018847D01*
X79873946Y-148040471D01*
X79882004Y-148062993D01*
X79887816Y-148086197D01*
X79891326Y-148109858D01*
X79892500Y-148133750D01*
X79892500Y-149046250D01*
X79891326Y-149070142D01*
X79887816Y-149093803D01*
X79882004Y-149117007D01*
X79873946Y-149139529D01*
X79863718Y-149161153D01*
X79851421Y-149181670D01*
X79837171Y-149200883D01*
X79821107Y-149218607D01*
X79803383Y-149234671D01*
X79784170Y-149248921D01*
X79763653Y-149261218D01*
X79742029Y-149271446D01*
X79719507Y-149279504D01*
X79696303Y-149285316D01*
X79672642Y-149288826D01*
X79648750Y-149290000D01*
X79161250Y-149290000D01*
X79137358Y-149288826D01*
X79113697Y-149285316D01*
X79090493Y-149279504D01*
X79067971Y-149271446D01*
X79046347Y-149261218D01*
X79025830Y-149248921D01*
X79006617Y-149234671D01*
X78988893Y-149218607D01*
X78972829Y-149200883D01*
X78958579Y-149181670D01*
X78946282Y-149161153D01*
X78936054Y-149139529D01*
X78927996Y-149117007D01*
X78922184Y-149093803D01*
X78918674Y-149070142D01*
X78917500Y-149046250D01*
X78917500Y-148133750D01*
X78918674Y-148109858D01*
X78922184Y-148086197D01*
X78927996Y-148062993D01*
X78936054Y-148040471D01*
X78946282Y-148018847D01*
X78958579Y-147998330D01*
X78972829Y-147979117D01*
X78988893Y-147961393D01*
X79006617Y-147945329D01*
X79025830Y-147931079D01*
X79046347Y-147918782D01*
X79067971Y-147908554D01*
X79090493Y-147900496D01*
X79113697Y-147894684D01*
X79137358Y-147891174D01*
X79161250Y-147890000D01*
X79648750Y-147890000D01*
X79672642Y-147891174D01*
X79672642Y-147891174D01*
G37*
D13*
X79405000Y-148590000D03*
D10*
G36*
X102020829Y-151976023D02*
G01*
X102041457Y-151979083D01*
X102061685Y-151984150D01*
X102081320Y-151991176D01*
X102100172Y-152000092D01*
X102118059Y-152010813D01*
X102134809Y-152023235D01*
X102150260Y-152037240D01*
X102164265Y-152052691D01*
X102176687Y-152069441D01*
X102187408Y-152087328D01*
X102196324Y-152106180D01*
X102203350Y-152125815D01*
X102208417Y-152146043D01*
X102211477Y-152166671D01*
X102212500Y-152187500D01*
X102212500Y-152612500D01*
X102211477Y-152633329D01*
X102208417Y-152653957D01*
X102203350Y-152674185D01*
X102196324Y-152693820D01*
X102187408Y-152712672D01*
X102176687Y-152730559D01*
X102164265Y-152747309D01*
X102150260Y-152762760D01*
X102134809Y-152776765D01*
X102118059Y-152789187D01*
X102100172Y-152799908D01*
X102081320Y-152808824D01*
X102061685Y-152815850D01*
X102041457Y-152820917D01*
X102020829Y-152823977D01*
X102000000Y-152825000D01*
X101200000Y-152825000D01*
X101179171Y-152823977D01*
X101158543Y-152820917D01*
X101138315Y-152815850D01*
X101118680Y-152808824D01*
X101099828Y-152799908D01*
X101081941Y-152789187D01*
X101065191Y-152776765D01*
X101049740Y-152762760D01*
X101035735Y-152747309D01*
X101023313Y-152730559D01*
X101012592Y-152712672D01*
X101003676Y-152693820D01*
X100996650Y-152674185D01*
X100991583Y-152653957D01*
X100988523Y-152633329D01*
X100987500Y-152612500D01*
X100987500Y-152187500D01*
X100988523Y-152166671D01*
X100991583Y-152146043D01*
X100996650Y-152125815D01*
X101003676Y-152106180D01*
X101012592Y-152087328D01*
X101023313Y-152069441D01*
X101035735Y-152052691D01*
X101049740Y-152037240D01*
X101065191Y-152023235D01*
X101081941Y-152010813D01*
X101099828Y-152000092D01*
X101118680Y-151991176D01*
X101138315Y-151984150D01*
X101158543Y-151979083D01*
X101179171Y-151976023D01*
X101200000Y-151975000D01*
X102000000Y-151975000D01*
X102020829Y-151976023D01*
X102020829Y-151976023D01*
G37*
D14*
X101600000Y-152400000D03*
D10*
G36*
X100395829Y-151976023D02*
G01*
X100416457Y-151979083D01*
X100436685Y-151984150D01*
X100456320Y-151991176D01*
X100475172Y-152000092D01*
X100493059Y-152010813D01*
X100509809Y-152023235D01*
X100525260Y-152037240D01*
X100539265Y-152052691D01*
X100551687Y-152069441D01*
X100562408Y-152087328D01*
X100571324Y-152106180D01*
X100578350Y-152125815D01*
X100583417Y-152146043D01*
X100586477Y-152166671D01*
X100587500Y-152187500D01*
X100587500Y-152612500D01*
X100586477Y-152633329D01*
X100583417Y-152653957D01*
X100578350Y-152674185D01*
X100571324Y-152693820D01*
X100562408Y-152712672D01*
X100551687Y-152730559D01*
X100539265Y-152747309D01*
X100525260Y-152762760D01*
X100509809Y-152776765D01*
X100493059Y-152789187D01*
X100475172Y-152799908D01*
X100456320Y-152808824D01*
X100436685Y-152815850D01*
X100416457Y-152820917D01*
X100395829Y-152823977D01*
X100375000Y-152825000D01*
X99575000Y-152825000D01*
X99554171Y-152823977D01*
X99533543Y-152820917D01*
X99513315Y-152815850D01*
X99493680Y-152808824D01*
X99474828Y-152799908D01*
X99456941Y-152789187D01*
X99440191Y-152776765D01*
X99424740Y-152762760D01*
X99410735Y-152747309D01*
X99398313Y-152730559D01*
X99387592Y-152712672D01*
X99378676Y-152693820D01*
X99371650Y-152674185D01*
X99366583Y-152653957D01*
X99363523Y-152633329D01*
X99362500Y-152612500D01*
X99362500Y-152187500D01*
X99363523Y-152166671D01*
X99366583Y-152146043D01*
X99371650Y-152125815D01*
X99378676Y-152106180D01*
X99387592Y-152087328D01*
X99398313Y-152069441D01*
X99410735Y-152052691D01*
X99424740Y-152037240D01*
X99440191Y-152023235D01*
X99456941Y-152010813D01*
X99474828Y-152000092D01*
X99493680Y-151991176D01*
X99513315Y-151984150D01*
X99533543Y-151979083D01*
X99554171Y-151976023D01*
X99575000Y-151975000D01*
X100375000Y-151975000D01*
X100395829Y-151976023D01*
X100395829Y-151976023D01*
G37*
D14*
X99975000Y-152400000D03*
D10*
G36*
X85510829Y-148166023D02*
G01*
X85531457Y-148169083D01*
X85551685Y-148174150D01*
X85571320Y-148181176D01*
X85590172Y-148190092D01*
X85608059Y-148200813D01*
X85624809Y-148213235D01*
X85640260Y-148227240D01*
X85654265Y-148242691D01*
X85666687Y-148259441D01*
X85677408Y-148277328D01*
X85686324Y-148296180D01*
X85693350Y-148315815D01*
X85698417Y-148336043D01*
X85701477Y-148356671D01*
X85702500Y-148377500D01*
X85702500Y-148802500D01*
X85701477Y-148823329D01*
X85698417Y-148843957D01*
X85693350Y-148864185D01*
X85686324Y-148883820D01*
X85677408Y-148902672D01*
X85666687Y-148920559D01*
X85654265Y-148937309D01*
X85640260Y-148952760D01*
X85624809Y-148966765D01*
X85608059Y-148979187D01*
X85590172Y-148989908D01*
X85571320Y-148998824D01*
X85551685Y-149005850D01*
X85531457Y-149010917D01*
X85510829Y-149013977D01*
X85490000Y-149015000D01*
X84690000Y-149015000D01*
X84669171Y-149013977D01*
X84648543Y-149010917D01*
X84628315Y-149005850D01*
X84608680Y-148998824D01*
X84589828Y-148989908D01*
X84571941Y-148979187D01*
X84555191Y-148966765D01*
X84539740Y-148952760D01*
X84525735Y-148937309D01*
X84513313Y-148920559D01*
X84502592Y-148902672D01*
X84493676Y-148883820D01*
X84486650Y-148864185D01*
X84481583Y-148843957D01*
X84478523Y-148823329D01*
X84477500Y-148802500D01*
X84477500Y-148377500D01*
X84478523Y-148356671D01*
X84481583Y-148336043D01*
X84486650Y-148315815D01*
X84493676Y-148296180D01*
X84502592Y-148277328D01*
X84513313Y-148259441D01*
X84525735Y-148242691D01*
X84539740Y-148227240D01*
X84555191Y-148213235D01*
X84571941Y-148200813D01*
X84589828Y-148190092D01*
X84608680Y-148181176D01*
X84628315Y-148174150D01*
X84648543Y-148169083D01*
X84669171Y-148166023D01*
X84690000Y-148165000D01*
X85490000Y-148165000D01*
X85510829Y-148166023D01*
X85510829Y-148166023D01*
G37*
D14*
X85090000Y-148590000D03*
D10*
G36*
X87135829Y-148166023D02*
G01*
X87156457Y-148169083D01*
X87176685Y-148174150D01*
X87196320Y-148181176D01*
X87215172Y-148190092D01*
X87233059Y-148200813D01*
X87249809Y-148213235D01*
X87265260Y-148227240D01*
X87279265Y-148242691D01*
X87291687Y-148259441D01*
X87302408Y-148277328D01*
X87311324Y-148296180D01*
X87318350Y-148315815D01*
X87323417Y-148336043D01*
X87326477Y-148356671D01*
X87327500Y-148377500D01*
X87327500Y-148802500D01*
X87326477Y-148823329D01*
X87323417Y-148843957D01*
X87318350Y-148864185D01*
X87311324Y-148883820D01*
X87302408Y-148902672D01*
X87291687Y-148920559D01*
X87279265Y-148937309D01*
X87265260Y-148952760D01*
X87249809Y-148966765D01*
X87233059Y-148979187D01*
X87215172Y-148989908D01*
X87196320Y-148998824D01*
X87176685Y-149005850D01*
X87156457Y-149010917D01*
X87135829Y-149013977D01*
X87115000Y-149015000D01*
X86315000Y-149015000D01*
X86294171Y-149013977D01*
X86273543Y-149010917D01*
X86253315Y-149005850D01*
X86233680Y-148998824D01*
X86214828Y-148989908D01*
X86196941Y-148979187D01*
X86180191Y-148966765D01*
X86164740Y-148952760D01*
X86150735Y-148937309D01*
X86138313Y-148920559D01*
X86127592Y-148902672D01*
X86118676Y-148883820D01*
X86111650Y-148864185D01*
X86106583Y-148843957D01*
X86103523Y-148823329D01*
X86102500Y-148802500D01*
X86102500Y-148377500D01*
X86103523Y-148356671D01*
X86106583Y-148336043D01*
X86111650Y-148315815D01*
X86118676Y-148296180D01*
X86127592Y-148277328D01*
X86138313Y-148259441D01*
X86150735Y-148242691D01*
X86164740Y-148227240D01*
X86180191Y-148213235D01*
X86196941Y-148200813D01*
X86214828Y-148190092D01*
X86233680Y-148181176D01*
X86253315Y-148174150D01*
X86273543Y-148169083D01*
X86294171Y-148166023D01*
X86315000Y-148165000D01*
X87115000Y-148165000D01*
X87135829Y-148166023D01*
X87135829Y-148166023D01*
G37*
D14*
X86715000Y-148590000D03*
D15*
X145415000Y-89340000D03*
X145415000Y-80840000D03*
X145415000Y-85090000D03*
D16*
X120890000Y-66650000D03*
X125490000Y-66650000D03*
X123190000Y-66650000D03*
D17*
X123190000Y-60350000D03*
D18*
X123160000Y-83190000D03*
X124460000Y-83190000D03*
X123810000Y-85090000D03*
X123810000Y-83190000D03*
X124460000Y-85090000D03*
X123160000Y-85090000D03*
D10*
G36*
X116050142Y-73838674D02*
G01*
X116073803Y-73842184D01*
X116097007Y-73847996D01*
X116119529Y-73856054D01*
X116141153Y-73866282D01*
X116161670Y-73878579D01*
X116180883Y-73892829D01*
X116198607Y-73908893D01*
X116214671Y-73926617D01*
X116228921Y-73945830D01*
X116241218Y-73966347D01*
X116251446Y-73987971D01*
X116259504Y-74010493D01*
X116265316Y-74033697D01*
X116268826Y-74057358D01*
X116270000Y-74081250D01*
X116270000Y-74568750D01*
X116268826Y-74592642D01*
X116265316Y-74616303D01*
X116259504Y-74639507D01*
X116251446Y-74662029D01*
X116241218Y-74683653D01*
X116228921Y-74704170D01*
X116214671Y-74723383D01*
X116198607Y-74741107D01*
X116180883Y-74757171D01*
X116161670Y-74771421D01*
X116141153Y-74783718D01*
X116119529Y-74793946D01*
X116097007Y-74802004D01*
X116073803Y-74807816D01*
X116050142Y-74811326D01*
X116026250Y-74812500D01*
X115113750Y-74812500D01*
X115089858Y-74811326D01*
X115066197Y-74807816D01*
X115042993Y-74802004D01*
X115020471Y-74793946D01*
X114998847Y-74783718D01*
X114978330Y-74771421D01*
X114959117Y-74757171D01*
X114941393Y-74741107D01*
X114925329Y-74723383D01*
X114911079Y-74704170D01*
X114898782Y-74683653D01*
X114888554Y-74662029D01*
X114880496Y-74639507D01*
X114874684Y-74616303D01*
X114871174Y-74592642D01*
X114870000Y-74568750D01*
X114870000Y-74081250D01*
X114871174Y-74057358D01*
X114874684Y-74033697D01*
X114880496Y-74010493D01*
X114888554Y-73987971D01*
X114898782Y-73966347D01*
X114911079Y-73945830D01*
X114925329Y-73926617D01*
X114941393Y-73908893D01*
X114959117Y-73892829D01*
X114978330Y-73878579D01*
X114998847Y-73866282D01*
X115020471Y-73856054D01*
X115042993Y-73847996D01*
X115066197Y-73842184D01*
X115089858Y-73838674D01*
X115113750Y-73837500D01*
X116026250Y-73837500D01*
X116050142Y-73838674D01*
X116050142Y-73838674D01*
G37*
D13*
X115570000Y-74325000D03*
D10*
G36*
X116050142Y-75713674D02*
G01*
X116073803Y-75717184D01*
X116097007Y-75722996D01*
X116119529Y-75731054D01*
X116141153Y-75741282D01*
X116161670Y-75753579D01*
X116180883Y-75767829D01*
X116198607Y-75783893D01*
X116214671Y-75801617D01*
X116228921Y-75820830D01*
X116241218Y-75841347D01*
X116251446Y-75862971D01*
X116259504Y-75885493D01*
X116265316Y-75908697D01*
X116268826Y-75932358D01*
X116270000Y-75956250D01*
X116270000Y-76443750D01*
X116268826Y-76467642D01*
X116265316Y-76491303D01*
X116259504Y-76514507D01*
X116251446Y-76537029D01*
X116241218Y-76558653D01*
X116228921Y-76579170D01*
X116214671Y-76598383D01*
X116198607Y-76616107D01*
X116180883Y-76632171D01*
X116161670Y-76646421D01*
X116141153Y-76658718D01*
X116119529Y-76668946D01*
X116097007Y-76677004D01*
X116073803Y-76682816D01*
X116050142Y-76686326D01*
X116026250Y-76687500D01*
X115113750Y-76687500D01*
X115089858Y-76686326D01*
X115066197Y-76682816D01*
X115042993Y-76677004D01*
X115020471Y-76668946D01*
X114998847Y-76658718D01*
X114978330Y-76646421D01*
X114959117Y-76632171D01*
X114941393Y-76616107D01*
X114925329Y-76598383D01*
X114911079Y-76579170D01*
X114898782Y-76558653D01*
X114888554Y-76537029D01*
X114880496Y-76514507D01*
X114874684Y-76491303D01*
X114871174Y-76467642D01*
X114870000Y-76443750D01*
X114870000Y-75956250D01*
X114871174Y-75932358D01*
X114874684Y-75908697D01*
X114880496Y-75885493D01*
X114888554Y-75862971D01*
X114898782Y-75841347D01*
X114911079Y-75820830D01*
X114925329Y-75801617D01*
X114941393Y-75783893D01*
X114959117Y-75767829D01*
X114978330Y-75753579D01*
X114998847Y-75741282D01*
X115020471Y-75731054D01*
X115042993Y-75722996D01*
X115066197Y-75717184D01*
X115089858Y-75713674D01*
X115113750Y-75712500D01*
X116026250Y-75712500D01*
X116050142Y-75713674D01*
X116050142Y-75713674D01*
G37*
D13*
X115570000Y-76200000D03*
D10*
G36*
X115172642Y-60261174D02*
G01*
X115196303Y-60264684D01*
X115219507Y-60270496D01*
X115242029Y-60278554D01*
X115263653Y-60288782D01*
X115284170Y-60301079D01*
X115303383Y-60315329D01*
X115321107Y-60331393D01*
X115337171Y-60349117D01*
X115351421Y-60368330D01*
X115363718Y-60388847D01*
X115373946Y-60410471D01*
X115382004Y-60432993D01*
X115387816Y-60456197D01*
X115391326Y-60479858D01*
X115392500Y-60503750D01*
X115392500Y-61416250D01*
X115391326Y-61440142D01*
X115387816Y-61463803D01*
X115382004Y-61487007D01*
X115373946Y-61509529D01*
X115363718Y-61531153D01*
X115351421Y-61551670D01*
X115337171Y-61570883D01*
X115321107Y-61588607D01*
X115303383Y-61604671D01*
X115284170Y-61618921D01*
X115263653Y-61631218D01*
X115242029Y-61641446D01*
X115219507Y-61649504D01*
X115196303Y-61655316D01*
X115172642Y-61658826D01*
X115148750Y-61660000D01*
X114661250Y-61660000D01*
X114637358Y-61658826D01*
X114613697Y-61655316D01*
X114590493Y-61649504D01*
X114567971Y-61641446D01*
X114546347Y-61631218D01*
X114525830Y-61618921D01*
X114506617Y-61604671D01*
X114488893Y-61588607D01*
X114472829Y-61570883D01*
X114458579Y-61551670D01*
X114446282Y-61531153D01*
X114436054Y-61509529D01*
X114427996Y-61487007D01*
X114422184Y-61463803D01*
X114418674Y-61440142D01*
X114417500Y-61416250D01*
X114417500Y-60503750D01*
X114418674Y-60479858D01*
X114422184Y-60456197D01*
X114427996Y-60432993D01*
X114436054Y-60410471D01*
X114446282Y-60388847D01*
X114458579Y-60368330D01*
X114472829Y-60349117D01*
X114488893Y-60331393D01*
X114506617Y-60315329D01*
X114525830Y-60301079D01*
X114546347Y-60288782D01*
X114567971Y-60278554D01*
X114590493Y-60270496D01*
X114613697Y-60264684D01*
X114637358Y-60261174D01*
X114661250Y-60260000D01*
X115148750Y-60260000D01*
X115172642Y-60261174D01*
X115172642Y-60261174D01*
G37*
D13*
X114905000Y-60960000D03*
D10*
G36*
X113297642Y-60261174D02*
G01*
X113321303Y-60264684D01*
X113344507Y-60270496D01*
X113367029Y-60278554D01*
X113388653Y-60288782D01*
X113409170Y-60301079D01*
X113428383Y-60315329D01*
X113446107Y-60331393D01*
X113462171Y-60349117D01*
X113476421Y-60368330D01*
X113488718Y-60388847D01*
X113498946Y-60410471D01*
X113507004Y-60432993D01*
X113512816Y-60456197D01*
X113516326Y-60479858D01*
X113517500Y-60503750D01*
X113517500Y-61416250D01*
X113516326Y-61440142D01*
X113512816Y-61463803D01*
X113507004Y-61487007D01*
X113498946Y-61509529D01*
X113488718Y-61531153D01*
X113476421Y-61551670D01*
X113462171Y-61570883D01*
X113446107Y-61588607D01*
X113428383Y-61604671D01*
X113409170Y-61618921D01*
X113388653Y-61631218D01*
X113367029Y-61641446D01*
X113344507Y-61649504D01*
X113321303Y-61655316D01*
X113297642Y-61658826D01*
X113273750Y-61660000D01*
X112786250Y-61660000D01*
X112762358Y-61658826D01*
X112738697Y-61655316D01*
X112715493Y-61649504D01*
X112692971Y-61641446D01*
X112671347Y-61631218D01*
X112650830Y-61618921D01*
X112631617Y-61604671D01*
X112613893Y-61588607D01*
X112597829Y-61570883D01*
X112583579Y-61551670D01*
X112571282Y-61531153D01*
X112561054Y-61509529D01*
X112552996Y-61487007D01*
X112547184Y-61463803D01*
X112543674Y-61440142D01*
X112542500Y-61416250D01*
X112542500Y-60503750D01*
X112543674Y-60479858D01*
X112547184Y-60456197D01*
X112552996Y-60432993D01*
X112561054Y-60410471D01*
X112571282Y-60388847D01*
X112583579Y-60368330D01*
X112597829Y-60349117D01*
X112613893Y-60331393D01*
X112631617Y-60315329D01*
X112650830Y-60301079D01*
X112671347Y-60288782D01*
X112692971Y-60278554D01*
X112715493Y-60270496D01*
X112738697Y-60264684D01*
X112762358Y-60261174D01*
X112786250Y-60260000D01*
X113273750Y-60260000D01*
X113297642Y-60261174D01*
X113297642Y-60261174D01*
G37*
D13*
X113030000Y-60960000D03*
D10*
G36*
X77072642Y-79311174D02*
G01*
X77096303Y-79314684D01*
X77119507Y-79320496D01*
X77142029Y-79328554D01*
X77163653Y-79338782D01*
X77184170Y-79351079D01*
X77203383Y-79365329D01*
X77221107Y-79381393D01*
X77237171Y-79399117D01*
X77251421Y-79418330D01*
X77263718Y-79438847D01*
X77273946Y-79460471D01*
X77282004Y-79482993D01*
X77287816Y-79506197D01*
X77291326Y-79529858D01*
X77292500Y-79553750D01*
X77292500Y-80466250D01*
X77291326Y-80490142D01*
X77287816Y-80513803D01*
X77282004Y-80537007D01*
X77273946Y-80559529D01*
X77263718Y-80581153D01*
X77251421Y-80601670D01*
X77237171Y-80620883D01*
X77221107Y-80638607D01*
X77203383Y-80654671D01*
X77184170Y-80668921D01*
X77163653Y-80681218D01*
X77142029Y-80691446D01*
X77119507Y-80699504D01*
X77096303Y-80705316D01*
X77072642Y-80708826D01*
X77048750Y-80710000D01*
X76561250Y-80710000D01*
X76537358Y-80708826D01*
X76513697Y-80705316D01*
X76490493Y-80699504D01*
X76467971Y-80691446D01*
X76446347Y-80681218D01*
X76425830Y-80668921D01*
X76406617Y-80654671D01*
X76388893Y-80638607D01*
X76372829Y-80620883D01*
X76358579Y-80601670D01*
X76346282Y-80581153D01*
X76336054Y-80559529D01*
X76327996Y-80537007D01*
X76322184Y-80513803D01*
X76318674Y-80490142D01*
X76317500Y-80466250D01*
X76317500Y-79553750D01*
X76318674Y-79529858D01*
X76322184Y-79506197D01*
X76327996Y-79482993D01*
X76336054Y-79460471D01*
X76346282Y-79438847D01*
X76358579Y-79418330D01*
X76372829Y-79399117D01*
X76388893Y-79381393D01*
X76406617Y-79365329D01*
X76425830Y-79351079D01*
X76446347Y-79338782D01*
X76467971Y-79328554D01*
X76490493Y-79320496D01*
X76513697Y-79314684D01*
X76537358Y-79311174D01*
X76561250Y-79310000D01*
X77048750Y-79310000D01*
X77072642Y-79311174D01*
X77072642Y-79311174D01*
G37*
D13*
X76805000Y-80010000D03*
D10*
G36*
X75197642Y-79311174D02*
G01*
X75221303Y-79314684D01*
X75244507Y-79320496D01*
X75267029Y-79328554D01*
X75288653Y-79338782D01*
X75309170Y-79351079D01*
X75328383Y-79365329D01*
X75346107Y-79381393D01*
X75362171Y-79399117D01*
X75376421Y-79418330D01*
X75388718Y-79438847D01*
X75398946Y-79460471D01*
X75407004Y-79482993D01*
X75412816Y-79506197D01*
X75416326Y-79529858D01*
X75417500Y-79553750D01*
X75417500Y-80466250D01*
X75416326Y-80490142D01*
X75412816Y-80513803D01*
X75407004Y-80537007D01*
X75398946Y-80559529D01*
X75388718Y-80581153D01*
X75376421Y-80601670D01*
X75362171Y-80620883D01*
X75346107Y-80638607D01*
X75328383Y-80654671D01*
X75309170Y-80668921D01*
X75288653Y-80681218D01*
X75267029Y-80691446D01*
X75244507Y-80699504D01*
X75221303Y-80705316D01*
X75197642Y-80708826D01*
X75173750Y-80710000D01*
X74686250Y-80710000D01*
X74662358Y-80708826D01*
X74638697Y-80705316D01*
X74615493Y-80699504D01*
X74592971Y-80691446D01*
X74571347Y-80681218D01*
X74550830Y-80668921D01*
X74531617Y-80654671D01*
X74513893Y-80638607D01*
X74497829Y-80620883D01*
X74483579Y-80601670D01*
X74471282Y-80581153D01*
X74461054Y-80559529D01*
X74452996Y-80537007D01*
X74447184Y-80513803D01*
X74443674Y-80490142D01*
X74442500Y-80466250D01*
X74442500Y-79553750D01*
X74443674Y-79529858D01*
X74447184Y-79506197D01*
X74452996Y-79482993D01*
X74461054Y-79460471D01*
X74471282Y-79438847D01*
X74483579Y-79418330D01*
X74497829Y-79399117D01*
X74513893Y-79381393D01*
X74531617Y-79365329D01*
X74550830Y-79351079D01*
X74571347Y-79338782D01*
X74592971Y-79328554D01*
X74615493Y-79320496D01*
X74638697Y-79314684D01*
X74662358Y-79311174D01*
X74686250Y-79310000D01*
X75173750Y-79310000D01*
X75197642Y-79311174D01*
X75197642Y-79311174D01*
G37*
D13*
X74930000Y-80010000D03*
D10*
G36*
X128750142Y-91891174D02*
G01*
X128773803Y-91894684D01*
X128797007Y-91900496D01*
X128819529Y-91908554D01*
X128841153Y-91918782D01*
X128861670Y-91931079D01*
X128880883Y-91945329D01*
X128898607Y-91961393D01*
X128914671Y-91979117D01*
X128928921Y-91998330D01*
X128941218Y-92018847D01*
X128951446Y-92040471D01*
X128959504Y-92062993D01*
X128965316Y-92086197D01*
X128968826Y-92109858D01*
X128970000Y-92133750D01*
X128970000Y-92621250D01*
X128968826Y-92645142D01*
X128965316Y-92668803D01*
X128959504Y-92692007D01*
X128951446Y-92714529D01*
X128941218Y-92736153D01*
X128928921Y-92756670D01*
X128914671Y-92775883D01*
X128898607Y-92793607D01*
X128880883Y-92809671D01*
X128861670Y-92823921D01*
X128841153Y-92836218D01*
X128819529Y-92846446D01*
X128797007Y-92854504D01*
X128773803Y-92860316D01*
X128750142Y-92863826D01*
X128726250Y-92865000D01*
X127813750Y-92865000D01*
X127789858Y-92863826D01*
X127766197Y-92860316D01*
X127742993Y-92854504D01*
X127720471Y-92846446D01*
X127698847Y-92836218D01*
X127678330Y-92823921D01*
X127659117Y-92809671D01*
X127641393Y-92793607D01*
X127625329Y-92775883D01*
X127611079Y-92756670D01*
X127598782Y-92736153D01*
X127588554Y-92714529D01*
X127580496Y-92692007D01*
X127574684Y-92668803D01*
X127571174Y-92645142D01*
X127570000Y-92621250D01*
X127570000Y-92133750D01*
X127571174Y-92109858D01*
X127574684Y-92086197D01*
X127580496Y-92062993D01*
X127588554Y-92040471D01*
X127598782Y-92018847D01*
X127611079Y-91998330D01*
X127625329Y-91979117D01*
X127641393Y-91961393D01*
X127659117Y-91945329D01*
X127678330Y-91931079D01*
X127698847Y-91918782D01*
X127720471Y-91908554D01*
X127742993Y-91900496D01*
X127766197Y-91894684D01*
X127789858Y-91891174D01*
X127813750Y-91890000D01*
X128726250Y-91890000D01*
X128750142Y-91891174D01*
X128750142Y-91891174D01*
G37*
D13*
X128270000Y-92377500D03*
D10*
G36*
X128750142Y-90016174D02*
G01*
X128773803Y-90019684D01*
X128797007Y-90025496D01*
X128819529Y-90033554D01*
X128841153Y-90043782D01*
X128861670Y-90056079D01*
X128880883Y-90070329D01*
X128898607Y-90086393D01*
X128914671Y-90104117D01*
X128928921Y-90123330D01*
X128941218Y-90143847D01*
X128951446Y-90165471D01*
X128959504Y-90187993D01*
X128965316Y-90211197D01*
X128968826Y-90234858D01*
X128970000Y-90258750D01*
X128970000Y-90746250D01*
X128968826Y-90770142D01*
X128965316Y-90793803D01*
X128959504Y-90817007D01*
X128951446Y-90839529D01*
X128941218Y-90861153D01*
X128928921Y-90881670D01*
X128914671Y-90900883D01*
X128898607Y-90918607D01*
X128880883Y-90934671D01*
X128861670Y-90948921D01*
X128841153Y-90961218D01*
X128819529Y-90971446D01*
X128797007Y-90979504D01*
X128773803Y-90985316D01*
X128750142Y-90988826D01*
X128726250Y-90990000D01*
X127813750Y-90990000D01*
X127789858Y-90988826D01*
X127766197Y-90985316D01*
X127742993Y-90979504D01*
X127720471Y-90971446D01*
X127698847Y-90961218D01*
X127678330Y-90948921D01*
X127659117Y-90934671D01*
X127641393Y-90918607D01*
X127625329Y-90900883D01*
X127611079Y-90881670D01*
X127598782Y-90861153D01*
X127588554Y-90839529D01*
X127580496Y-90817007D01*
X127574684Y-90793803D01*
X127571174Y-90770142D01*
X127570000Y-90746250D01*
X127570000Y-90258750D01*
X127571174Y-90234858D01*
X127574684Y-90211197D01*
X127580496Y-90187993D01*
X127588554Y-90165471D01*
X127598782Y-90143847D01*
X127611079Y-90123330D01*
X127625329Y-90104117D01*
X127641393Y-90086393D01*
X127659117Y-90070329D01*
X127678330Y-90056079D01*
X127698847Y-90043782D01*
X127720471Y-90033554D01*
X127742993Y-90025496D01*
X127766197Y-90019684D01*
X127789858Y-90016174D01*
X127813750Y-90015000D01*
X128726250Y-90015000D01*
X128750142Y-90016174D01*
X128750142Y-90016174D01*
G37*
D13*
X128270000Y-90502500D03*
D10*
G36*
X136490142Y-84391174D02*
G01*
X136513803Y-84394684D01*
X136537007Y-84400496D01*
X136559529Y-84408554D01*
X136581153Y-84418782D01*
X136601670Y-84431079D01*
X136620883Y-84445329D01*
X136638607Y-84461393D01*
X136654671Y-84479117D01*
X136668921Y-84498330D01*
X136681218Y-84518847D01*
X136691446Y-84540471D01*
X136699504Y-84562993D01*
X136705316Y-84586197D01*
X136708826Y-84609858D01*
X136710000Y-84633750D01*
X136710000Y-85546250D01*
X136708826Y-85570142D01*
X136705316Y-85593803D01*
X136699504Y-85617007D01*
X136691446Y-85639529D01*
X136681218Y-85661153D01*
X136668921Y-85681670D01*
X136654671Y-85700883D01*
X136638607Y-85718607D01*
X136620883Y-85734671D01*
X136601670Y-85748921D01*
X136581153Y-85761218D01*
X136559529Y-85771446D01*
X136537007Y-85779504D01*
X136513803Y-85785316D01*
X136490142Y-85788826D01*
X136466250Y-85790000D01*
X135978750Y-85790000D01*
X135954858Y-85788826D01*
X135931197Y-85785316D01*
X135907993Y-85779504D01*
X135885471Y-85771446D01*
X135863847Y-85761218D01*
X135843330Y-85748921D01*
X135824117Y-85734671D01*
X135806393Y-85718607D01*
X135790329Y-85700883D01*
X135776079Y-85681670D01*
X135763782Y-85661153D01*
X135753554Y-85639529D01*
X135745496Y-85617007D01*
X135739684Y-85593803D01*
X135736174Y-85570142D01*
X135735000Y-85546250D01*
X135735000Y-84633750D01*
X135736174Y-84609858D01*
X135739684Y-84586197D01*
X135745496Y-84562993D01*
X135753554Y-84540471D01*
X135763782Y-84518847D01*
X135776079Y-84498330D01*
X135790329Y-84479117D01*
X135806393Y-84461393D01*
X135824117Y-84445329D01*
X135843330Y-84431079D01*
X135863847Y-84418782D01*
X135885471Y-84408554D01*
X135907993Y-84400496D01*
X135931197Y-84394684D01*
X135954858Y-84391174D01*
X135978750Y-84390000D01*
X136466250Y-84390000D01*
X136490142Y-84391174D01*
X136490142Y-84391174D01*
G37*
D13*
X136222500Y-85090000D03*
D10*
G36*
X138365142Y-84391174D02*
G01*
X138388803Y-84394684D01*
X138412007Y-84400496D01*
X138434529Y-84408554D01*
X138456153Y-84418782D01*
X138476670Y-84431079D01*
X138495883Y-84445329D01*
X138513607Y-84461393D01*
X138529671Y-84479117D01*
X138543921Y-84498330D01*
X138556218Y-84518847D01*
X138566446Y-84540471D01*
X138574504Y-84562993D01*
X138580316Y-84586197D01*
X138583826Y-84609858D01*
X138585000Y-84633750D01*
X138585000Y-85546250D01*
X138583826Y-85570142D01*
X138580316Y-85593803D01*
X138574504Y-85617007D01*
X138566446Y-85639529D01*
X138556218Y-85661153D01*
X138543921Y-85681670D01*
X138529671Y-85700883D01*
X138513607Y-85718607D01*
X138495883Y-85734671D01*
X138476670Y-85748921D01*
X138456153Y-85761218D01*
X138434529Y-85771446D01*
X138412007Y-85779504D01*
X138388803Y-85785316D01*
X138365142Y-85788826D01*
X138341250Y-85790000D01*
X137853750Y-85790000D01*
X137829858Y-85788826D01*
X137806197Y-85785316D01*
X137782993Y-85779504D01*
X137760471Y-85771446D01*
X137738847Y-85761218D01*
X137718330Y-85748921D01*
X137699117Y-85734671D01*
X137681393Y-85718607D01*
X137665329Y-85700883D01*
X137651079Y-85681670D01*
X137638782Y-85661153D01*
X137628554Y-85639529D01*
X137620496Y-85617007D01*
X137614684Y-85593803D01*
X137611174Y-85570142D01*
X137610000Y-85546250D01*
X137610000Y-84633750D01*
X137611174Y-84609858D01*
X137614684Y-84586197D01*
X137620496Y-84562993D01*
X137628554Y-84540471D01*
X137638782Y-84518847D01*
X137651079Y-84498330D01*
X137665329Y-84479117D01*
X137681393Y-84461393D01*
X137699117Y-84445329D01*
X137718330Y-84431079D01*
X137738847Y-84418782D01*
X137760471Y-84408554D01*
X137782993Y-84400496D01*
X137806197Y-84394684D01*
X137829858Y-84391174D01*
X137853750Y-84390000D01*
X138341250Y-84390000D01*
X138365142Y-84391174D01*
X138365142Y-84391174D01*
G37*
D13*
X138097500Y-85090000D03*
D10*
G36*
X126210142Y-100478674D02*
G01*
X126233803Y-100482184D01*
X126257007Y-100487996D01*
X126279529Y-100496054D01*
X126301153Y-100506282D01*
X126321670Y-100518579D01*
X126340883Y-100532829D01*
X126358607Y-100548893D01*
X126374671Y-100566617D01*
X126388921Y-100585830D01*
X126401218Y-100606347D01*
X126411446Y-100627971D01*
X126419504Y-100650493D01*
X126425316Y-100673697D01*
X126428826Y-100697358D01*
X126430000Y-100721250D01*
X126430000Y-101208750D01*
X126428826Y-101232642D01*
X126425316Y-101256303D01*
X126419504Y-101279507D01*
X126411446Y-101302029D01*
X126401218Y-101323653D01*
X126388921Y-101344170D01*
X126374671Y-101363383D01*
X126358607Y-101381107D01*
X126340883Y-101397171D01*
X126321670Y-101411421D01*
X126301153Y-101423718D01*
X126279529Y-101433946D01*
X126257007Y-101442004D01*
X126233803Y-101447816D01*
X126210142Y-101451326D01*
X126186250Y-101452500D01*
X125273750Y-101452500D01*
X125249858Y-101451326D01*
X125226197Y-101447816D01*
X125202993Y-101442004D01*
X125180471Y-101433946D01*
X125158847Y-101423718D01*
X125138330Y-101411421D01*
X125119117Y-101397171D01*
X125101393Y-101381107D01*
X125085329Y-101363383D01*
X125071079Y-101344170D01*
X125058782Y-101323653D01*
X125048554Y-101302029D01*
X125040496Y-101279507D01*
X125034684Y-101256303D01*
X125031174Y-101232642D01*
X125030000Y-101208750D01*
X125030000Y-100721250D01*
X125031174Y-100697358D01*
X125034684Y-100673697D01*
X125040496Y-100650493D01*
X125048554Y-100627971D01*
X125058782Y-100606347D01*
X125071079Y-100585830D01*
X125085329Y-100566617D01*
X125101393Y-100548893D01*
X125119117Y-100532829D01*
X125138330Y-100518579D01*
X125158847Y-100506282D01*
X125180471Y-100496054D01*
X125202993Y-100487996D01*
X125226197Y-100482184D01*
X125249858Y-100478674D01*
X125273750Y-100477500D01*
X126186250Y-100477500D01*
X126210142Y-100478674D01*
X126210142Y-100478674D01*
G37*
D13*
X125730000Y-100965000D03*
D10*
G36*
X126210142Y-102353674D02*
G01*
X126233803Y-102357184D01*
X126257007Y-102362996D01*
X126279529Y-102371054D01*
X126301153Y-102381282D01*
X126321670Y-102393579D01*
X126340883Y-102407829D01*
X126358607Y-102423893D01*
X126374671Y-102441617D01*
X126388921Y-102460830D01*
X126401218Y-102481347D01*
X126411446Y-102502971D01*
X126419504Y-102525493D01*
X126425316Y-102548697D01*
X126428826Y-102572358D01*
X126430000Y-102596250D01*
X126430000Y-103083750D01*
X126428826Y-103107642D01*
X126425316Y-103131303D01*
X126419504Y-103154507D01*
X126411446Y-103177029D01*
X126401218Y-103198653D01*
X126388921Y-103219170D01*
X126374671Y-103238383D01*
X126358607Y-103256107D01*
X126340883Y-103272171D01*
X126321670Y-103286421D01*
X126301153Y-103298718D01*
X126279529Y-103308946D01*
X126257007Y-103317004D01*
X126233803Y-103322816D01*
X126210142Y-103326326D01*
X126186250Y-103327500D01*
X125273750Y-103327500D01*
X125249858Y-103326326D01*
X125226197Y-103322816D01*
X125202993Y-103317004D01*
X125180471Y-103308946D01*
X125158847Y-103298718D01*
X125138330Y-103286421D01*
X125119117Y-103272171D01*
X125101393Y-103256107D01*
X125085329Y-103238383D01*
X125071079Y-103219170D01*
X125058782Y-103198653D01*
X125048554Y-103177029D01*
X125040496Y-103154507D01*
X125034684Y-103131303D01*
X125031174Y-103107642D01*
X125030000Y-103083750D01*
X125030000Y-102596250D01*
X125031174Y-102572358D01*
X125034684Y-102548697D01*
X125040496Y-102525493D01*
X125048554Y-102502971D01*
X125058782Y-102481347D01*
X125071079Y-102460830D01*
X125085329Y-102441617D01*
X125101393Y-102423893D01*
X125119117Y-102407829D01*
X125138330Y-102393579D01*
X125158847Y-102381282D01*
X125180471Y-102371054D01*
X125202993Y-102362996D01*
X125226197Y-102357184D01*
X125249858Y-102353674D01*
X125273750Y-102352500D01*
X126186250Y-102352500D01*
X126210142Y-102353674D01*
X126210142Y-102353674D01*
G37*
D13*
X125730000Y-102840000D03*
D10*
G36*
X138697642Y-104711174D02*
G01*
X138721303Y-104714684D01*
X138744507Y-104720496D01*
X138767029Y-104728554D01*
X138788653Y-104738782D01*
X138809170Y-104751079D01*
X138828383Y-104765329D01*
X138846107Y-104781393D01*
X138862171Y-104799117D01*
X138876421Y-104818330D01*
X138888718Y-104838847D01*
X138898946Y-104860471D01*
X138907004Y-104882993D01*
X138912816Y-104906197D01*
X138916326Y-104929858D01*
X138917500Y-104953750D01*
X138917500Y-105866250D01*
X138916326Y-105890142D01*
X138912816Y-105913803D01*
X138907004Y-105937007D01*
X138898946Y-105959529D01*
X138888718Y-105981153D01*
X138876421Y-106001670D01*
X138862171Y-106020883D01*
X138846107Y-106038607D01*
X138828383Y-106054671D01*
X138809170Y-106068921D01*
X138788653Y-106081218D01*
X138767029Y-106091446D01*
X138744507Y-106099504D01*
X138721303Y-106105316D01*
X138697642Y-106108826D01*
X138673750Y-106110000D01*
X138186250Y-106110000D01*
X138162358Y-106108826D01*
X138138697Y-106105316D01*
X138115493Y-106099504D01*
X138092971Y-106091446D01*
X138071347Y-106081218D01*
X138050830Y-106068921D01*
X138031617Y-106054671D01*
X138013893Y-106038607D01*
X137997829Y-106020883D01*
X137983579Y-106001670D01*
X137971282Y-105981153D01*
X137961054Y-105959529D01*
X137952996Y-105937007D01*
X137947184Y-105913803D01*
X137943674Y-105890142D01*
X137942500Y-105866250D01*
X137942500Y-104953750D01*
X137943674Y-104929858D01*
X137947184Y-104906197D01*
X137952996Y-104882993D01*
X137961054Y-104860471D01*
X137971282Y-104838847D01*
X137983579Y-104818330D01*
X137997829Y-104799117D01*
X138013893Y-104781393D01*
X138031617Y-104765329D01*
X138050830Y-104751079D01*
X138071347Y-104738782D01*
X138092971Y-104728554D01*
X138115493Y-104720496D01*
X138138697Y-104714684D01*
X138162358Y-104711174D01*
X138186250Y-104710000D01*
X138673750Y-104710000D01*
X138697642Y-104711174D01*
X138697642Y-104711174D01*
G37*
D13*
X138430000Y-105410000D03*
D10*
G36*
X136822642Y-104711174D02*
G01*
X136846303Y-104714684D01*
X136869507Y-104720496D01*
X136892029Y-104728554D01*
X136913653Y-104738782D01*
X136934170Y-104751079D01*
X136953383Y-104765329D01*
X136971107Y-104781393D01*
X136987171Y-104799117D01*
X137001421Y-104818330D01*
X137013718Y-104838847D01*
X137023946Y-104860471D01*
X137032004Y-104882993D01*
X137037816Y-104906197D01*
X137041326Y-104929858D01*
X137042500Y-104953750D01*
X137042500Y-105866250D01*
X137041326Y-105890142D01*
X137037816Y-105913803D01*
X137032004Y-105937007D01*
X137023946Y-105959529D01*
X137013718Y-105981153D01*
X137001421Y-106001670D01*
X136987171Y-106020883D01*
X136971107Y-106038607D01*
X136953383Y-106054671D01*
X136934170Y-106068921D01*
X136913653Y-106081218D01*
X136892029Y-106091446D01*
X136869507Y-106099504D01*
X136846303Y-106105316D01*
X136822642Y-106108826D01*
X136798750Y-106110000D01*
X136311250Y-106110000D01*
X136287358Y-106108826D01*
X136263697Y-106105316D01*
X136240493Y-106099504D01*
X136217971Y-106091446D01*
X136196347Y-106081218D01*
X136175830Y-106068921D01*
X136156617Y-106054671D01*
X136138893Y-106038607D01*
X136122829Y-106020883D01*
X136108579Y-106001670D01*
X136096282Y-105981153D01*
X136086054Y-105959529D01*
X136077996Y-105937007D01*
X136072184Y-105913803D01*
X136068674Y-105890142D01*
X136067500Y-105866250D01*
X136067500Y-104953750D01*
X136068674Y-104929858D01*
X136072184Y-104906197D01*
X136077996Y-104882993D01*
X136086054Y-104860471D01*
X136096282Y-104838847D01*
X136108579Y-104818330D01*
X136122829Y-104799117D01*
X136138893Y-104781393D01*
X136156617Y-104765329D01*
X136175830Y-104751079D01*
X136196347Y-104738782D01*
X136217971Y-104728554D01*
X136240493Y-104720496D01*
X136263697Y-104714684D01*
X136287358Y-104711174D01*
X136311250Y-104710000D01*
X136798750Y-104710000D01*
X136822642Y-104711174D01*
X136822642Y-104711174D01*
G37*
D13*
X136555000Y-105410000D03*
D10*
G36*
X124122642Y-111061174D02*
G01*
X124146303Y-111064684D01*
X124169507Y-111070496D01*
X124192029Y-111078554D01*
X124213653Y-111088782D01*
X124234170Y-111101079D01*
X124253383Y-111115329D01*
X124271107Y-111131393D01*
X124287171Y-111149117D01*
X124301421Y-111168330D01*
X124313718Y-111188847D01*
X124323946Y-111210471D01*
X124332004Y-111232993D01*
X124337816Y-111256197D01*
X124341326Y-111279858D01*
X124342500Y-111303750D01*
X124342500Y-112216250D01*
X124341326Y-112240142D01*
X124337816Y-112263803D01*
X124332004Y-112287007D01*
X124323946Y-112309529D01*
X124313718Y-112331153D01*
X124301421Y-112351670D01*
X124287171Y-112370883D01*
X124271107Y-112388607D01*
X124253383Y-112404671D01*
X124234170Y-112418921D01*
X124213653Y-112431218D01*
X124192029Y-112441446D01*
X124169507Y-112449504D01*
X124146303Y-112455316D01*
X124122642Y-112458826D01*
X124098750Y-112460000D01*
X123611250Y-112460000D01*
X123587358Y-112458826D01*
X123563697Y-112455316D01*
X123540493Y-112449504D01*
X123517971Y-112441446D01*
X123496347Y-112431218D01*
X123475830Y-112418921D01*
X123456617Y-112404671D01*
X123438893Y-112388607D01*
X123422829Y-112370883D01*
X123408579Y-112351670D01*
X123396282Y-112331153D01*
X123386054Y-112309529D01*
X123377996Y-112287007D01*
X123372184Y-112263803D01*
X123368674Y-112240142D01*
X123367500Y-112216250D01*
X123367500Y-111303750D01*
X123368674Y-111279858D01*
X123372184Y-111256197D01*
X123377996Y-111232993D01*
X123386054Y-111210471D01*
X123396282Y-111188847D01*
X123408579Y-111168330D01*
X123422829Y-111149117D01*
X123438893Y-111131393D01*
X123456617Y-111115329D01*
X123475830Y-111101079D01*
X123496347Y-111088782D01*
X123517971Y-111078554D01*
X123540493Y-111070496D01*
X123563697Y-111064684D01*
X123587358Y-111061174D01*
X123611250Y-111060000D01*
X124098750Y-111060000D01*
X124122642Y-111061174D01*
X124122642Y-111061174D01*
G37*
D13*
X123855000Y-111760000D03*
D10*
G36*
X125997642Y-111061174D02*
G01*
X126021303Y-111064684D01*
X126044507Y-111070496D01*
X126067029Y-111078554D01*
X126088653Y-111088782D01*
X126109170Y-111101079D01*
X126128383Y-111115329D01*
X126146107Y-111131393D01*
X126162171Y-111149117D01*
X126176421Y-111168330D01*
X126188718Y-111188847D01*
X126198946Y-111210471D01*
X126207004Y-111232993D01*
X126212816Y-111256197D01*
X126216326Y-111279858D01*
X126217500Y-111303750D01*
X126217500Y-112216250D01*
X126216326Y-112240142D01*
X126212816Y-112263803D01*
X126207004Y-112287007D01*
X126198946Y-112309529D01*
X126188718Y-112331153D01*
X126176421Y-112351670D01*
X126162171Y-112370883D01*
X126146107Y-112388607D01*
X126128383Y-112404671D01*
X126109170Y-112418921D01*
X126088653Y-112431218D01*
X126067029Y-112441446D01*
X126044507Y-112449504D01*
X126021303Y-112455316D01*
X125997642Y-112458826D01*
X125973750Y-112460000D01*
X125486250Y-112460000D01*
X125462358Y-112458826D01*
X125438697Y-112455316D01*
X125415493Y-112449504D01*
X125392971Y-112441446D01*
X125371347Y-112431218D01*
X125350830Y-112418921D01*
X125331617Y-112404671D01*
X125313893Y-112388607D01*
X125297829Y-112370883D01*
X125283579Y-112351670D01*
X125271282Y-112331153D01*
X125261054Y-112309529D01*
X125252996Y-112287007D01*
X125247184Y-112263803D01*
X125243674Y-112240142D01*
X125242500Y-112216250D01*
X125242500Y-111303750D01*
X125243674Y-111279858D01*
X125247184Y-111256197D01*
X125252996Y-111232993D01*
X125261054Y-111210471D01*
X125271282Y-111188847D01*
X125283579Y-111168330D01*
X125297829Y-111149117D01*
X125313893Y-111131393D01*
X125331617Y-111115329D01*
X125350830Y-111101079D01*
X125371347Y-111088782D01*
X125392971Y-111078554D01*
X125415493Y-111070496D01*
X125438697Y-111064684D01*
X125462358Y-111061174D01*
X125486250Y-111060000D01*
X125973750Y-111060000D01*
X125997642Y-111061174D01*
X125997642Y-111061174D01*
G37*
D13*
X125730000Y-111760000D03*
D10*
G36*
X129807642Y-79311174D02*
G01*
X129831303Y-79314684D01*
X129854507Y-79320496D01*
X129877029Y-79328554D01*
X129898653Y-79338782D01*
X129919170Y-79351079D01*
X129938383Y-79365329D01*
X129956107Y-79381393D01*
X129972171Y-79399117D01*
X129986421Y-79418330D01*
X129998718Y-79438847D01*
X130008946Y-79460471D01*
X130017004Y-79482993D01*
X130022816Y-79506197D01*
X130026326Y-79529858D01*
X130027500Y-79553750D01*
X130027500Y-80466250D01*
X130026326Y-80490142D01*
X130022816Y-80513803D01*
X130017004Y-80537007D01*
X130008946Y-80559529D01*
X129998718Y-80581153D01*
X129986421Y-80601670D01*
X129972171Y-80620883D01*
X129956107Y-80638607D01*
X129938383Y-80654671D01*
X129919170Y-80668921D01*
X129898653Y-80681218D01*
X129877029Y-80691446D01*
X129854507Y-80699504D01*
X129831303Y-80705316D01*
X129807642Y-80708826D01*
X129783750Y-80710000D01*
X129296250Y-80710000D01*
X129272358Y-80708826D01*
X129248697Y-80705316D01*
X129225493Y-80699504D01*
X129202971Y-80691446D01*
X129181347Y-80681218D01*
X129160830Y-80668921D01*
X129141617Y-80654671D01*
X129123893Y-80638607D01*
X129107829Y-80620883D01*
X129093579Y-80601670D01*
X129081282Y-80581153D01*
X129071054Y-80559529D01*
X129062996Y-80537007D01*
X129057184Y-80513803D01*
X129053674Y-80490142D01*
X129052500Y-80466250D01*
X129052500Y-79553750D01*
X129053674Y-79529858D01*
X129057184Y-79506197D01*
X129062996Y-79482993D01*
X129071054Y-79460471D01*
X129081282Y-79438847D01*
X129093579Y-79418330D01*
X129107829Y-79399117D01*
X129123893Y-79381393D01*
X129141617Y-79365329D01*
X129160830Y-79351079D01*
X129181347Y-79338782D01*
X129202971Y-79328554D01*
X129225493Y-79320496D01*
X129248697Y-79314684D01*
X129272358Y-79311174D01*
X129296250Y-79310000D01*
X129783750Y-79310000D01*
X129807642Y-79311174D01*
X129807642Y-79311174D01*
G37*
D13*
X129540000Y-80010000D03*
D10*
G36*
X127932642Y-79311174D02*
G01*
X127956303Y-79314684D01*
X127979507Y-79320496D01*
X128002029Y-79328554D01*
X128023653Y-79338782D01*
X128044170Y-79351079D01*
X128063383Y-79365329D01*
X128081107Y-79381393D01*
X128097171Y-79399117D01*
X128111421Y-79418330D01*
X128123718Y-79438847D01*
X128133946Y-79460471D01*
X128142004Y-79482993D01*
X128147816Y-79506197D01*
X128151326Y-79529858D01*
X128152500Y-79553750D01*
X128152500Y-80466250D01*
X128151326Y-80490142D01*
X128147816Y-80513803D01*
X128142004Y-80537007D01*
X128133946Y-80559529D01*
X128123718Y-80581153D01*
X128111421Y-80601670D01*
X128097171Y-80620883D01*
X128081107Y-80638607D01*
X128063383Y-80654671D01*
X128044170Y-80668921D01*
X128023653Y-80681218D01*
X128002029Y-80691446D01*
X127979507Y-80699504D01*
X127956303Y-80705316D01*
X127932642Y-80708826D01*
X127908750Y-80710000D01*
X127421250Y-80710000D01*
X127397358Y-80708826D01*
X127373697Y-80705316D01*
X127350493Y-80699504D01*
X127327971Y-80691446D01*
X127306347Y-80681218D01*
X127285830Y-80668921D01*
X127266617Y-80654671D01*
X127248893Y-80638607D01*
X127232829Y-80620883D01*
X127218579Y-80601670D01*
X127206282Y-80581153D01*
X127196054Y-80559529D01*
X127187996Y-80537007D01*
X127182184Y-80513803D01*
X127178674Y-80490142D01*
X127177500Y-80466250D01*
X127177500Y-79553750D01*
X127178674Y-79529858D01*
X127182184Y-79506197D01*
X127187996Y-79482993D01*
X127196054Y-79460471D01*
X127206282Y-79438847D01*
X127218579Y-79418330D01*
X127232829Y-79399117D01*
X127248893Y-79381393D01*
X127266617Y-79365329D01*
X127285830Y-79351079D01*
X127306347Y-79338782D01*
X127327971Y-79328554D01*
X127350493Y-79320496D01*
X127373697Y-79314684D01*
X127397358Y-79311174D01*
X127421250Y-79310000D01*
X127908750Y-79310000D01*
X127932642Y-79311174D01*
X127932642Y-79311174D01*
G37*
D13*
X127665000Y-80010000D03*
D10*
G36*
X124940142Y-75713674D02*
G01*
X124963803Y-75717184D01*
X124987007Y-75722996D01*
X125009529Y-75731054D01*
X125031153Y-75741282D01*
X125051670Y-75753579D01*
X125070883Y-75767829D01*
X125088607Y-75783893D01*
X125104671Y-75801617D01*
X125118921Y-75820830D01*
X125131218Y-75841347D01*
X125141446Y-75862971D01*
X125149504Y-75885493D01*
X125155316Y-75908697D01*
X125158826Y-75932358D01*
X125160000Y-75956250D01*
X125160000Y-76443750D01*
X125158826Y-76467642D01*
X125155316Y-76491303D01*
X125149504Y-76514507D01*
X125141446Y-76537029D01*
X125131218Y-76558653D01*
X125118921Y-76579170D01*
X125104671Y-76598383D01*
X125088607Y-76616107D01*
X125070883Y-76632171D01*
X125051670Y-76646421D01*
X125031153Y-76658718D01*
X125009529Y-76668946D01*
X124987007Y-76677004D01*
X124963803Y-76682816D01*
X124940142Y-76686326D01*
X124916250Y-76687500D01*
X124003750Y-76687500D01*
X123979858Y-76686326D01*
X123956197Y-76682816D01*
X123932993Y-76677004D01*
X123910471Y-76668946D01*
X123888847Y-76658718D01*
X123868330Y-76646421D01*
X123849117Y-76632171D01*
X123831393Y-76616107D01*
X123815329Y-76598383D01*
X123801079Y-76579170D01*
X123788782Y-76558653D01*
X123778554Y-76537029D01*
X123770496Y-76514507D01*
X123764684Y-76491303D01*
X123761174Y-76467642D01*
X123760000Y-76443750D01*
X123760000Y-75956250D01*
X123761174Y-75932358D01*
X123764684Y-75908697D01*
X123770496Y-75885493D01*
X123778554Y-75862971D01*
X123788782Y-75841347D01*
X123801079Y-75820830D01*
X123815329Y-75801617D01*
X123831393Y-75783893D01*
X123849117Y-75767829D01*
X123868330Y-75753579D01*
X123888847Y-75741282D01*
X123910471Y-75731054D01*
X123932993Y-75722996D01*
X123956197Y-75717184D01*
X123979858Y-75713674D01*
X124003750Y-75712500D01*
X124916250Y-75712500D01*
X124940142Y-75713674D01*
X124940142Y-75713674D01*
G37*
D13*
X124460000Y-76200000D03*
D10*
G36*
X124940142Y-73838674D02*
G01*
X124963803Y-73842184D01*
X124987007Y-73847996D01*
X125009529Y-73856054D01*
X125031153Y-73866282D01*
X125051670Y-73878579D01*
X125070883Y-73892829D01*
X125088607Y-73908893D01*
X125104671Y-73926617D01*
X125118921Y-73945830D01*
X125131218Y-73966347D01*
X125141446Y-73987971D01*
X125149504Y-74010493D01*
X125155316Y-74033697D01*
X125158826Y-74057358D01*
X125160000Y-74081250D01*
X125160000Y-74568750D01*
X125158826Y-74592642D01*
X125155316Y-74616303D01*
X125149504Y-74639507D01*
X125141446Y-74662029D01*
X125131218Y-74683653D01*
X125118921Y-74704170D01*
X125104671Y-74723383D01*
X125088607Y-74741107D01*
X125070883Y-74757171D01*
X125051670Y-74771421D01*
X125031153Y-74783718D01*
X125009529Y-74793946D01*
X124987007Y-74802004D01*
X124963803Y-74807816D01*
X124940142Y-74811326D01*
X124916250Y-74812500D01*
X124003750Y-74812500D01*
X123979858Y-74811326D01*
X123956197Y-74807816D01*
X123932993Y-74802004D01*
X123910471Y-74793946D01*
X123888847Y-74783718D01*
X123868330Y-74771421D01*
X123849117Y-74757171D01*
X123831393Y-74741107D01*
X123815329Y-74723383D01*
X123801079Y-74704170D01*
X123788782Y-74683653D01*
X123778554Y-74662029D01*
X123770496Y-74639507D01*
X123764684Y-74616303D01*
X123761174Y-74592642D01*
X123760000Y-74568750D01*
X123760000Y-74081250D01*
X123761174Y-74057358D01*
X123764684Y-74033697D01*
X123770496Y-74010493D01*
X123778554Y-73987971D01*
X123788782Y-73966347D01*
X123801079Y-73945830D01*
X123815329Y-73926617D01*
X123831393Y-73908893D01*
X123849117Y-73892829D01*
X123868330Y-73878579D01*
X123888847Y-73866282D01*
X123910471Y-73856054D01*
X123932993Y-73847996D01*
X123956197Y-73842184D01*
X123979858Y-73838674D01*
X124003750Y-73837500D01*
X124916250Y-73837500D01*
X124940142Y-73838674D01*
X124940142Y-73838674D01*
G37*
D13*
X124460000Y-74325000D03*
D10*
G36*
X124727642Y-79311174D02*
G01*
X124751303Y-79314684D01*
X124774507Y-79320496D01*
X124797029Y-79328554D01*
X124818653Y-79338782D01*
X124839170Y-79351079D01*
X124858383Y-79365329D01*
X124876107Y-79381393D01*
X124892171Y-79399117D01*
X124906421Y-79418330D01*
X124918718Y-79438847D01*
X124928946Y-79460471D01*
X124937004Y-79482993D01*
X124942816Y-79506197D01*
X124946326Y-79529858D01*
X124947500Y-79553750D01*
X124947500Y-80466250D01*
X124946326Y-80490142D01*
X124942816Y-80513803D01*
X124937004Y-80537007D01*
X124928946Y-80559529D01*
X124918718Y-80581153D01*
X124906421Y-80601670D01*
X124892171Y-80620883D01*
X124876107Y-80638607D01*
X124858383Y-80654671D01*
X124839170Y-80668921D01*
X124818653Y-80681218D01*
X124797029Y-80691446D01*
X124774507Y-80699504D01*
X124751303Y-80705316D01*
X124727642Y-80708826D01*
X124703750Y-80710000D01*
X124216250Y-80710000D01*
X124192358Y-80708826D01*
X124168697Y-80705316D01*
X124145493Y-80699504D01*
X124122971Y-80691446D01*
X124101347Y-80681218D01*
X124080830Y-80668921D01*
X124061617Y-80654671D01*
X124043893Y-80638607D01*
X124027829Y-80620883D01*
X124013579Y-80601670D01*
X124001282Y-80581153D01*
X123991054Y-80559529D01*
X123982996Y-80537007D01*
X123977184Y-80513803D01*
X123973674Y-80490142D01*
X123972500Y-80466250D01*
X123972500Y-79553750D01*
X123973674Y-79529858D01*
X123977184Y-79506197D01*
X123982996Y-79482993D01*
X123991054Y-79460471D01*
X124001282Y-79438847D01*
X124013579Y-79418330D01*
X124027829Y-79399117D01*
X124043893Y-79381393D01*
X124061617Y-79365329D01*
X124080830Y-79351079D01*
X124101347Y-79338782D01*
X124122971Y-79328554D01*
X124145493Y-79320496D01*
X124168697Y-79314684D01*
X124192358Y-79311174D01*
X124216250Y-79310000D01*
X124703750Y-79310000D01*
X124727642Y-79311174D01*
X124727642Y-79311174D01*
G37*
D13*
X124460000Y-80010000D03*
D10*
G36*
X122852642Y-79311174D02*
G01*
X122876303Y-79314684D01*
X122899507Y-79320496D01*
X122922029Y-79328554D01*
X122943653Y-79338782D01*
X122964170Y-79351079D01*
X122983383Y-79365329D01*
X123001107Y-79381393D01*
X123017171Y-79399117D01*
X123031421Y-79418330D01*
X123043718Y-79438847D01*
X123053946Y-79460471D01*
X123062004Y-79482993D01*
X123067816Y-79506197D01*
X123071326Y-79529858D01*
X123072500Y-79553750D01*
X123072500Y-80466250D01*
X123071326Y-80490142D01*
X123067816Y-80513803D01*
X123062004Y-80537007D01*
X123053946Y-80559529D01*
X123043718Y-80581153D01*
X123031421Y-80601670D01*
X123017171Y-80620883D01*
X123001107Y-80638607D01*
X122983383Y-80654671D01*
X122964170Y-80668921D01*
X122943653Y-80681218D01*
X122922029Y-80691446D01*
X122899507Y-80699504D01*
X122876303Y-80705316D01*
X122852642Y-80708826D01*
X122828750Y-80710000D01*
X122341250Y-80710000D01*
X122317358Y-80708826D01*
X122293697Y-80705316D01*
X122270493Y-80699504D01*
X122247971Y-80691446D01*
X122226347Y-80681218D01*
X122205830Y-80668921D01*
X122186617Y-80654671D01*
X122168893Y-80638607D01*
X122152829Y-80620883D01*
X122138579Y-80601670D01*
X122126282Y-80581153D01*
X122116054Y-80559529D01*
X122107996Y-80537007D01*
X122102184Y-80513803D01*
X122098674Y-80490142D01*
X122097500Y-80466250D01*
X122097500Y-79553750D01*
X122098674Y-79529858D01*
X122102184Y-79506197D01*
X122107996Y-79482993D01*
X122116054Y-79460471D01*
X122126282Y-79438847D01*
X122138579Y-79418330D01*
X122152829Y-79399117D01*
X122168893Y-79381393D01*
X122186617Y-79365329D01*
X122205830Y-79351079D01*
X122226347Y-79338782D01*
X122247971Y-79328554D01*
X122270493Y-79320496D01*
X122293697Y-79314684D01*
X122317358Y-79311174D01*
X122341250Y-79310000D01*
X122828750Y-79310000D01*
X122852642Y-79311174D01*
X122852642Y-79311174D01*
G37*
D13*
X122585000Y-80010000D03*
D10*
G36*
X118377642Y-79311174D02*
G01*
X118401303Y-79314684D01*
X118424507Y-79320496D01*
X118447029Y-79328554D01*
X118468653Y-79338782D01*
X118489170Y-79351079D01*
X118508383Y-79365329D01*
X118526107Y-79381393D01*
X118542171Y-79399117D01*
X118556421Y-79418330D01*
X118568718Y-79438847D01*
X118578946Y-79460471D01*
X118587004Y-79482993D01*
X118592816Y-79506197D01*
X118596326Y-79529858D01*
X118597500Y-79553750D01*
X118597500Y-80466250D01*
X118596326Y-80490142D01*
X118592816Y-80513803D01*
X118587004Y-80537007D01*
X118578946Y-80559529D01*
X118568718Y-80581153D01*
X118556421Y-80601670D01*
X118542171Y-80620883D01*
X118526107Y-80638607D01*
X118508383Y-80654671D01*
X118489170Y-80668921D01*
X118468653Y-80681218D01*
X118447029Y-80691446D01*
X118424507Y-80699504D01*
X118401303Y-80705316D01*
X118377642Y-80708826D01*
X118353750Y-80710000D01*
X117866250Y-80710000D01*
X117842358Y-80708826D01*
X117818697Y-80705316D01*
X117795493Y-80699504D01*
X117772971Y-80691446D01*
X117751347Y-80681218D01*
X117730830Y-80668921D01*
X117711617Y-80654671D01*
X117693893Y-80638607D01*
X117677829Y-80620883D01*
X117663579Y-80601670D01*
X117651282Y-80581153D01*
X117641054Y-80559529D01*
X117632996Y-80537007D01*
X117627184Y-80513803D01*
X117623674Y-80490142D01*
X117622500Y-80466250D01*
X117622500Y-79553750D01*
X117623674Y-79529858D01*
X117627184Y-79506197D01*
X117632996Y-79482993D01*
X117641054Y-79460471D01*
X117651282Y-79438847D01*
X117663579Y-79418330D01*
X117677829Y-79399117D01*
X117693893Y-79381393D01*
X117711617Y-79365329D01*
X117730830Y-79351079D01*
X117751347Y-79338782D01*
X117772971Y-79328554D01*
X117795493Y-79320496D01*
X117818697Y-79314684D01*
X117842358Y-79311174D01*
X117866250Y-79310000D01*
X118353750Y-79310000D01*
X118377642Y-79311174D01*
X118377642Y-79311174D01*
G37*
D13*
X118110000Y-80010000D03*
D10*
G36*
X116502642Y-79311174D02*
G01*
X116526303Y-79314684D01*
X116549507Y-79320496D01*
X116572029Y-79328554D01*
X116593653Y-79338782D01*
X116614170Y-79351079D01*
X116633383Y-79365329D01*
X116651107Y-79381393D01*
X116667171Y-79399117D01*
X116681421Y-79418330D01*
X116693718Y-79438847D01*
X116703946Y-79460471D01*
X116712004Y-79482993D01*
X116717816Y-79506197D01*
X116721326Y-79529858D01*
X116722500Y-79553750D01*
X116722500Y-80466250D01*
X116721326Y-80490142D01*
X116717816Y-80513803D01*
X116712004Y-80537007D01*
X116703946Y-80559529D01*
X116693718Y-80581153D01*
X116681421Y-80601670D01*
X116667171Y-80620883D01*
X116651107Y-80638607D01*
X116633383Y-80654671D01*
X116614170Y-80668921D01*
X116593653Y-80681218D01*
X116572029Y-80691446D01*
X116549507Y-80699504D01*
X116526303Y-80705316D01*
X116502642Y-80708826D01*
X116478750Y-80710000D01*
X115991250Y-80710000D01*
X115967358Y-80708826D01*
X115943697Y-80705316D01*
X115920493Y-80699504D01*
X115897971Y-80691446D01*
X115876347Y-80681218D01*
X115855830Y-80668921D01*
X115836617Y-80654671D01*
X115818893Y-80638607D01*
X115802829Y-80620883D01*
X115788579Y-80601670D01*
X115776282Y-80581153D01*
X115766054Y-80559529D01*
X115757996Y-80537007D01*
X115752184Y-80513803D01*
X115748674Y-80490142D01*
X115747500Y-80466250D01*
X115747500Y-79553750D01*
X115748674Y-79529858D01*
X115752184Y-79506197D01*
X115757996Y-79482993D01*
X115766054Y-79460471D01*
X115776282Y-79438847D01*
X115788579Y-79418330D01*
X115802829Y-79399117D01*
X115818893Y-79381393D01*
X115836617Y-79365329D01*
X115855830Y-79351079D01*
X115876347Y-79338782D01*
X115897971Y-79328554D01*
X115920493Y-79320496D01*
X115943697Y-79314684D01*
X115967358Y-79311174D01*
X115991250Y-79310000D01*
X116478750Y-79310000D01*
X116502642Y-79311174D01*
X116502642Y-79311174D01*
G37*
D13*
X116235000Y-80010000D03*
D10*
G36*
X129807642Y-81851174D02*
G01*
X129831303Y-81854684D01*
X129854507Y-81860496D01*
X129877029Y-81868554D01*
X129898653Y-81878782D01*
X129919170Y-81891079D01*
X129938383Y-81905329D01*
X129956107Y-81921393D01*
X129972171Y-81939117D01*
X129986421Y-81958330D01*
X129998718Y-81978847D01*
X130008946Y-82000471D01*
X130017004Y-82022993D01*
X130022816Y-82046197D01*
X130026326Y-82069858D01*
X130027500Y-82093750D01*
X130027500Y-83006250D01*
X130026326Y-83030142D01*
X130022816Y-83053803D01*
X130017004Y-83077007D01*
X130008946Y-83099529D01*
X129998718Y-83121153D01*
X129986421Y-83141670D01*
X129972171Y-83160883D01*
X129956107Y-83178607D01*
X129938383Y-83194671D01*
X129919170Y-83208921D01*
X129898653Y-83221218D01*
X129877029Y-83231446D01*
X129854507Y-83239504D01*
X129831303Y-83245316D01*
X129807642Y-83248826D01*
X129783750Y-83250000D01*
X129296250Y-83250000D01*
X129272358Y-83248826D01*
X129248697Y-83245316D01*
X129225493Y-83239504D01*
X129202971Y-83231446D01*
X129181347Y-83221218D01*
X129160830Y-83208921D01*
X129141617Y-83194671D01*
X129123893Y-83178607D01*
X129107829Y-83160883D01*
X129093579Y-83141670D01*
X129081282Y-83121153D01*
X129071054Y-83099529D01*
X129062996Y-83077007D01*
X129057184Y-83053803D01*
X129053674Y-83030142D01*
X129052500Y-83006250D01*
X129052500Y-82093750D01*
X129053674Y-82069858D01*
X129057184Y-82046197D01*
X129062996Y-82022993D01*
X129071054Y-82000471D01*
X129081282Y-81978847D01*
X129093579Y-81958330D01*
X129107829Y-81939117D01*
X129123893Y-81921393D01*
X129141617Y-81905329D01*
X129160830Y-81891079D01*
X129181347Y-81878782D01*
X129202971Y-81868554D01*
X129225493Y-81860496D01*
X129248697Y-81854684D01*
X129272358Y-81851174D01*
X129296250Y-81850000D01*
X129783750Y-81850000D01*
X129807642Y-81851174D01*
X129807642Y-81851174D01*
G37*
D13*
X129540000Y-82550000D03*
D10*
G36*
X127932642Y-81851174D02*
G01*
X127956303Y-81854684D01*
X127979507Y-81860496D01*
X128002029Y-81868554D01*
X128023653Y-81878782D01*
X128044170Y-81891079D01*
X128063383Y-81905329D01*
X128081107Y-81921393D01*
X128097171Y-81939117D01*
X128111421Y-81958330D01*
X128123718Y-81978847D01*
X128133946Y-82000471D01*
X128142004Y-82022993D01*
X128147816Y-82046197D01*
X128151326Y-82069858D01*
X128152500Y-82093750D01*
X128152500Y-83006250D01*
X128151326Y-83030142D01*
X128147816Y-83053803D01*
X128142004Y-83077007D01*
X128133946Y-83099529D01*
X128123718Y-83121153D01*
X128111421Y-83141670D01*
X128097171Y-83160883D01*
X128081107Y-83178607D01*
X128063383Y-83194671D01*
X128044170Y-83208921D01*
X128023653Y-83221218D01*
X128002029Y-83231446D01*
X127979507Y-83239504D01*
X127956303Y-83245316D01*
X127932642Y-83248826D01*
X127908750Y-83250000D01*
X127421250Y-83250000D01*
X127397358Y-83248826D01*
X127373697Y-83245316D01*
X127350493Y-83239504D01*
X127327971Y-83231446D01*
X127306347Y-83221218D01*
X127285830Y-83208921D01*
X127266617Y-83194671D01*
X127248893Y-83178607D01*
X127232829Y-83160883D01*
X127218579Y-83141670D01*
X127206282Y-83121153D01*
X127196054Y-83099529D01*
X127187996Y-83077007D01*
X127182184Y-83053803D01*
X127178674Y-83030142D01*
X127177500Y-83006250D01*
X127177500Y-82093750D01*
X127178674Y-82069858D01*
X127182184Y-82046197D01*
X127187996Y-82022993D01*
X127196054Y-82000471D01*
X127206282Y-81978847D01*
X127218579Y-81958330D01*
X127232829Y-81939117D01*
X127248893Y-81921393D01*
X127266617Y-81905329D01*
X127285830Y-81891079D01*
X127306347Y-81878782D01*
X127327971Y-81868554D01*
X127350493Y-81860496D01*
X127373697Y-81854684D01*
X127397358Y-81851174D01*
X127421250Y-81850000D01*
X127908750Y-81850000D01*
X127932642Y-81851174D01*
X127932642Y-81851174D01*
G37*
D13*
X127665000Y-82550000D03*
D10*
G36*
X134465142Y-106223674D02*
G01*
X134488803Y-106227184D01*
X134512007Y-106232996D01*
X134534529Y-106241054D01*
X134556153Y-106251282D01*
X134576670Y-106263579D01*
X134595883Y-106277829D01*
X134613607Y-106293893D01*
X134629671Y-106311617D01*
X134643921Y-106330830D01*
X134656218Y-106351347D01*
X134666446Y-106372971D01*
X134674504Y-106395493D01*
X134680316Y-106418697D01*
X134683826Y-106442358D01*
X134685000Y-106466250D01*
X134685000Y-106953750D01*
X134683826Y-106977642D01*
X134680316Y-107001303D01*
X134674504Y-107024507D01*
X134666446Y-107047029D01*
X134656218Y-107068653D01*
X134643921Y-107089170D01*
X134629671Y-107108383D01*
X134613607Y-107126107D01*
X134595883Y-107142171D01*
X134576670Y-107156421D01*
X134556153Y-107168718D01*
X134534529Y-107178946D01*
X134512007Y-107187004D01*
X134488803Y-107192816D01*
X134465142Y-107196326D01*
X134441250Y-107197500D01*
X133528750Y-107197500D01*
X133504858Y-107196326D01*
X133481197Y-107192816D01*
X133457993Y-107187004D01*
X133435471Y-107178946D01*
X133413847Y-107168718D01*
X133393330Y-107156421D01*
X133374117Y-107142171D01*
X133356393Y-107126107D01*
X133340329Y-107108383D01*
X133326079Y-107089170D01*
X133313782Y-107068653D01*
X133303554Y-107047029D01*
X133295496Y-107024507D01*
X133289684Y-107001303D01*
X133286174Y-106977642D01*
X133285000Y-106953750D01*
X133285000Y-106466250D01*
X133286174Y-106442358D01*
X133289684Y-106418697D01*
X133295496Y-106395493D01*
X133303554Y-106372971D01*
X133313782Y-106351347D01*
X133326079Y-106330830D01*
X133340329Y-106311617D01*
X133356393Y-106293893D01*
X133374117Y-106277829D01*
X133393330Y-106263579D01*
X133413847Y-106251282D01*
X133435471Y-106241054D01*
X133457993Y-106232996D01*
X133481197Y-106227184D01*
X133504858Y-106223674D01*
X133528750Y-106222500D01*
X134441250Y-106222500D01*
X134465142Y-106223674D01*
X134465142Y-106223674D01*
G37*
D13*
X133985000Y-106710000D03*
D10*
G36*
X134465142Y-108098674D02*
G01*
X134488803Y-108102184D01*
X134512007Y-108107996D01*
X134534529Y-108116054D01*
X134556153Y-108126282D01*
X134576670Y-108138579D01*
X134595883Y-108152829D01*
X134613607Y-108168893D01*
X134629671Y-108186617D01*
X134643921Y-108205830D01*
X134656218Y-108226347D01*
X134666446Y-108247971D01*
X134674504Y-108270493D01*
X134680316Y-108293697D01*
X134683826Y-108317358D01*
X134685000Y-108341250D01*
X134685000Y-108828750D01*
X134683826Y-108852642D01*
X134680316Y-108876303D01*
X134674504Y-108899507D01*
X134666446Y-108922029D01*
X134656218Y-108943653D01*
X134643921Y-108964170D01*
X134629671Y-108983383D01*
X134613607Y-109001107D01*
X134595883Y-109017171D01*
X134576670Y-109031421D01*
X134556153Y-109043718D01*
X134534529Y-109053946D01*
X134512007Y-109062004D01*
X134488803Y-109067816D01*
X134465142Y-109071326D01*
X134441250Y-109072500D01*
X133528750Y-109072500D01*
X133504858Y-109071326D01*
X133481197Y-109067816D01*
X133457993Y-109062004D01*
X133435471Y-109053946D01*
X133413847Y-109043718D01*
X133393330Y-109031421D01*
X133374117Y-109017171D01*
X133356393Y-109001107D01*
X133340329Y-108983383D01*
X133326079Y-108964170D01*
X133313782Y-108943653D01*
X133303554Y-108922029D01*
X133295496Y-108899507D01*
X133289684Y-108876303D01*
X133286174Y-108852642D01*
X133285000Y-108828750D01*
X133285000Y-108341250D01*
X133286174Y-108317358D01*
X133289684Y-108293697D01*
X133295496Y-108270493D01*
X133303554Y-108247971D01*
X133313782Y-108226347D01*
X133326079Y-108205830D01*
X133340329Y-108186617D01*
X133356393Y-108168893D01*
X133374117Y-108152829D01*
X133393330Y-108138579D01*
X133413847Y-108126282D01*
X133435471Y-108116054D01*
X133457993Y-108107996D01*
X133481197Y-108102184D01*
X133504858Y-108098674D01*
X133528750Y-108097500D01*
X134441250Y-108097500D01*
X134465142Y-108098674D01*
X134465142Y-108098674D01*
G37*
D13*
X133985000Y-108585000D03*
D19*
X51760000Y-104780000D03*
X57210000Y-104780000D03*
X51760000Y-95880000D03*
X57210000Y-95880000D03*
D20*
X57310000Y-101930000D03*
X57310000Y-101130000D03*
X57310000Y-100330000D03*
X57310000Y-99530000D03*
X57310000Y-98730000D03*
D15*
X145415000Y-105410000D03*
X145415000Y-101160000D03*
X145415000Y-109660000D03*
D10*
G36*
X119677642Y-86931174D02*
G01*
X119701303Y-86934684D01*
X119724507Y-86940496D01*
X119747029Y-86948554D01*
X119768653Y-86958782D01*
X119789170Y-86971079D01*
X119808383Y-86985329D01*
X119826107Y-87001393D01*
X119842171Y-87019117D01*
X119856421Y-87038330D01*
X119868718Y-87058847D01*
X119878946Y-87080471D01*
X119887004Y-87102993D01*
X119892816Y-87126197D01*
X119896326Y-87149858D01*
X119897500Y-87173750D01*
X119897500Y-88086250D01*
X119896326Y-88110142D01*
X119892816Y-88133803D01*
X119887004Y-88157007D01*
X119878946Y-88179529D01*
X119868718Y-88201153D01*
X119856421Y-88221670D01*
X119842171Y-88240883D01*
X119826107Y-88258607D01*
X119808383Y-88274671D01*
X119789170Y-88288921D01*
X119768653Y-88301218D01*
X119747029Y-88311446D01*
X119724507Y-88319504D01*
X119701303Y-88325316D01*
X119677642Y-88328826D01*
X119653750Y-88330000D01*
X119166250Y-88330000D01*
X119142358Y-88328826D01*
X119118697Y-88325316D01*
X119095493Y-88319504D01*
X119072971Y-88311446D01*
X119051347Y-88301218D01*
X119030830Y-88288921D01*
X119011617Y-88274671D01*
X118993893Y-88258607D01*
X118977829Y-88240883D01*
X118963579Y-88221670D01*
X118951282Y-88201153D01*
X118941054Y-88179529D01*
X118932996Y-88157007D01*
X118927184Y-88133803D01*
X118923674Y-88110142D01*
X118922500Y-88086250D01*
X118922500Y-87173750D01*
X118923674Y-87149858D01*
X118927184Y-87126197D01*
X118932996Y-87102993D01*
X118941054Y-87080471D01*
X118951282Y-87058847D01*
X118963579Y-87038330D01*
X118977829Y-87019117D01*
X118993893Y-87001393D01*
X119011617Y-86985329D01*
X119030830Y-86971079D01*
X119051347Y-86958782D01*
X119072971Y-86948554D01*
X119095493Y-86940496D01*
X119118697Y-86934684D01*
X119142358Y-86931174D01*
X119166250Y-86930000D01*
X119653750Y-86930000D01*
X119677642Y-86931174D01*
X119677642Y-86931174D01*
G37*
D13*
X119410000Y-87630000D03*
D10*
G36*
X121552642Y-86931174D02*
G01*
X121576303Y-86934684D01*
X121599507Y-86940496D01*
X121622029Y-86948554D01*
X121643653Y-86958782D01*
X121664170Y-86971079D01*
X121683383Y-86985329D01*
X121701107Y-87001393D01*
X121717171Y-87019117D01*
X121731421Y-87038330D01*
X121743718Y-87058847D01*
X121753946Y-87080471D01*
X121762004Y-87102993D01*
X121767816Y-87126197D01*
X121771326Y-87149858D01*
X121772500Y-87173750D01*
X121772500Y-88086250D01*
X121771326Y-88110142D01*
X121767816Y-88133803D01*
X121762004Y-88157007D01*
X121753946Y-88179529D01*
X121743718Y-88201153D01*
X121731421Y-88221670D01*
X121717171Y-88240883D01*
X121701107Y-88258607D01*
X121683383Y-88274671D01*
X121664170Y-88288921D01*
X121643653Y-88301218D01*
X121622029Y-88311446D01*
X121599507Y-88319504D01*
X121576303Y-88325316D01*
X121552642Y-88328826D01*
X121528750Y-88330000D01*
X121041250Y-88330000D01*
X121017358Y-88328826D01*
X120993697Y-88325316D01*
X120970493Y-88319504D01*
X120947971Y-88311446D01*
X120926347Y-88301218D01*
X120905830Y-88288921D01*
X120886617Y-88274671D01*
X120868893Y-88258607D01*
X120852829Y-88240883D01*
X120838579Y-88221670D01*
X120826282Y-88201153D01*
X120816054Y-88179529D01*
X120807996Y-88157007D01*
X120802184Y-88133803D01*
X120798674Y-88110142D01*
X120797500Y-88086250D01*
X120797500Y-87173750D01*
X120798674Y-87149858D01*
X120802184Y-87126197D01*
X120807996Y-87102993D01*
X120816054Y-87080471D01*
X120826282Y-87058847D01*
X120838579Y-87038330D01*
X120852829Y-87019117D01*
X120868893Y-87001393D01*
X120886617Y-86985329D01*
X120905830Y-86971079D01*
X120926347Y-86958782D01*
X120947971Y-86948554D01*
X120970493Y-86940496D01*
X120993697Y-86934684D01*
X121017358Y-86931174D01*
X121041250Y-86930000D01*
X121528750Y-86930000D01*
X121552642Y-86931174D01*
X121552642Y-86931174D01*
G37*
D13*
X121285000Y-87630000D03*
D10*
G36*
X84087642Y-65341174D02*
G01*
X84111303Y-65344684D01*
X84134507Y-65350496D01*
X84157029Y-65358554D01*
X84178653Y-65368782D01*
X84199170Y-65381079D01*
X84218383Y-65395329D01*
X84236107Y-65411393D01*
X84252171Y-65429117D01*
X84266421Y-65448330D01*
X84278718Y-65468847D01*
X84288946Y-65490471D01*
X84297004Y-65512993D01*
X84302816Y-65536197D01*
X84306326Y-65559858D01*
X84307500Y-65583750D01*
X84307500Y-66496250D01*
X84306326Y-66520142D01*
X84302816Y-66543803D01*
X84297004Y-66567007D01*
X84288946Y-66589529D01*
X84278718Y-66611153D01*
X84266421Y-66631670D01*
X84252171Y-66650883D01*
X84236107Y-66668607D01*
X84218383Y-66684671D01*
X84199170Y-66698921D01*
X84178653Y-66711218D01*
X84157029Y-66721446D01*
X84134507Y-66729504D01*
X84111303Y-66735316D01*
X84087642Y-66738826D01*
X84063750Y-66740000D01*
X83576250Y-66740000D01*
X83552358Y-66738826D01*
X83528697Y-66735316D01*
X83505493Y-66729504D01*
X83482971Y-66721446D01*
X83461347Y-66711218D01*
X83440830Y-66698921D01*
X83421617Y-66684671D01*
X83403893Y-66668607D01*
X83387829Y-66650883D01*
X83373579Y-66631670D01*
X83361282Y-66611153D01*
X83351054Y-66589529D01*
X83342996Y-66567007D01*
X83337184Y-66543803D01*
X83333674Y-66520142D01*
X83332500Y-66496250D01*
X83332500Y-65583750D01*
X83333674Y-65559858D01*
X83337184Y-65536197D01*
X83342996Y-65512993D01*
X83351054Y-65490471D01*
X83361282Y-65468847D01*
X83373579Y-65448330D01*
X83387829Y-65429117D01*
X83403893Y-65411393D01*
X83421617Y-65395329D01*
X83440830Y-65381079D01*
X83461347Y-65368782D01*
X83482971Y-65358554D01*
X83505493Y-65350496D01*
X83528697Y-65344684D01*
X83552358Y-65341174D01*
X83576250Y-65340000D01*
X84063750Y-65340000D01*
X84087642Y-65341174D01*
X84087642Y-65341174D01*
G37*
D13*
X83820000Y-66040000D03*
D10*
G36*
X85962642Y-65341174D02*
G01*
X85986303Y-65344684D01*
X86009507Y-65350496D01*
X86032029Y-65358554D01*
X86053653Y-65368782D01*
X86074170Y-65381079D01*
X86093383Y-65395329D01*
X86111107Y-65411393D01*
X86127171Y-65429117D01*
X86141421Y-65448330D01*
X86153718Y-65468847D01*
X86163946Y-65490471D01*
X86172004Y-65512993D01*
X86177816Y-65536197D01*
X86181326Y-65559858D01*
X86182500Y-65583750D01*
X86182500Y-66496250D01*
X86181326Y-66520142D01*
X86177816Y-66543803D01*
X86172004Y-66567007D01*
X86163946Y-66589529D01*
X86153718Y-66611153D01*
X86141421Y-66631670D01*
X86127171Y-66650883D01*
X86111107Y-66668607D01*
X86093383Y-66684671D01*
X86074170Y-66698921D01*
X86053653Y-66711218D01*
X86032029Y-66721446D01*
X86009507Y-66729504D01*
X85986303Y-66735316D01*
X85962642Y-66738826D01*
X85938750Y-66740000D01*
X85451250Y-66740000D01*
X85427358Y-66738826D01*
X85403697Y-66735316D01*
X85380493Y-66729504D01*
X85357971Y-66721446D01*
X85336347Y-66711218D01*
X85315830Y-66698921D01*
X85296617Y-66684671D01*
X85278893Y-66668607D01*
X85262829Y-66650883D01*
X85248579Y-66631670D01*
X85236282Y-66611153D01*
X85226054Y-66589529D01*
X85217996Y-66567007D01*
X85212184Y-66543803D01*
X85208674Y-66520142D01*
X85207500Y-66496250D01*
X85207500Y-65583750D01*
X85208674Y-65559858D01*
X85212184Y-65536197D01*
X85217996Y-65512993D01*
X85226054Y-65490471D01*
X85236282Y-65468847D01*
X85248579Y-65448330D01*
X85262829Y-65429117D01*
X85278893Y-65411393D01*
X85296617Y-65395329D01*
X85315830Y-65381079D01*
X85336347Y-65368782D01*
X85357971Y-65358554D01*
X85380493Y-65350496D01*
X85403697Y-65344684D01*
X85427358Y-65341174D01*
X85451250Y-65340000D01*
X85938750Y-65340000D01*
X85962642Y-65341174D01*
X85962642Y-65341174D01*
G37*
D13*
X85695000Y-66040000D03*
D10*
G36*
X120312642Y-107251174D02*
G01*
X120336303Y-107254684D01*
X120359507Y-107260496D01*
X120382029Y-107268554D01*
X120403653Y-107278782D01*
X120424170Y-107291079D01*
X120443383Y-107305329D01*
X120461107Y-107321393D01*
X120477171Y-107339117D01*
X120491421Y-107358330D01*
X120503718Y-107378847D01*
X120513946Y-107400471D01*
X120522004Y-107422993D01*
X120527816Y-107446197D01*
X120531326Y-107469858D01*
X120532500Y-107493750D01*
X120532500Y-108406250D01*
X120531326Y-108430142D01*
X120527816Y-108453803D01*
X120522004Y-108477007D01*
X120513946Y-108499529D01*
X120503718Y-108521153D01*
X120491421Y-108541670D01*
X120477171Y-108560883D01*
X120461107Y-108578607D01*
X120443383Y-108594671D01*
X120424170Y-108608921D01*
X120403653Y-108621218D01*
X120382029Y-108631446D01*
X120359507Y-108639504D01*
X120336303Y-108645316D01*
X120312642Y-108648826D01*
X120288750Y-108650000D01*
X119801250Y-108650000D01*
X119777358Y-108648826D01*
X119753697Y-108645316D01*
X119730493Y-108639504D01*
X119707971Y-108631446D01*
X119686347Y-108621218D01*
X119665830Y-108608921D01*
X119646617Y-108594671D01*
X119628893Y-108578607D01*
X119612829Y-108560883D01*
X119598579Y-108541670D01*
X119586282Y-108521153D01*
X119576054Y-108499529D01*
X119567996Y-108477007D01*
X119562184Y-108453803D01*
X119558674Y-108430142D01*
X119557500Y-108406250D01*
X119557500Y-107493750D01*
X119558674Y-107469858D01*
X119562184Y-107446197D01*
X119567996Y-107422993D01*
X119576054Y-107400471D01*
X119586282Y-107378847D01*
X119598579Y-107358330D01*
X119612829Y-107339117D01*
X119628893Y-107321393D01*
X119646617Y-107305329D01*
X119665830Y-107291079D01*
X119686347Y-107278782D01*
X119707971Y-107268554D01*
X119730493Y-107260496D01*
X119753697Y-107254684D01*
X119777358Y-107251174D01*
X119801250Y-107250000D01*
X120288750Y-107250000D01*
X120312642Y-107251174D01*
X120312642Y-107251174D01*
G37*
D13*
X120045000Y-107950000D03*
D10*
G36*
X122187642Y-107251174D02*
G01*
X122211303Y-107254684D01*
X122234507Y-107260496D01*
X122257029Y-107268554D01*
X122278653Y-107278782D01*
X122299170Y-107291079D01*
X122318383Y-107305329D01*
X122336107Y-107321393D01*
X122352171Y-107339117D01*
X122366421Y-107358330D01*
X122378718Y-107378847D01*
X122388946Y-107400471D01*
X122397004Y-107422993D01*
X122402816Y-107446197D01*
X122406326Y-107469858D01*
X122407500Y-107493750D01*
X122407500Y-108406250D01*
X122406326Y-108430142D01*
X122402816Y-108453803D01*
X122397004Y-108477007D01*
X122388946Y-108499529D01*
X122378718Y-108521153D01*
X122366421Y-108541670D01*
X122352171Y-108560883D01*
X122336107Y-108578607D01*
X122318383Y-108594671D01*
X122299170Y-108608921D01*
X122278653Y-108621218D01*
X122257029Y-108631446D01*
X122234507Y-108639504D01*
X122211303Y-108645316D01*
X122187642Y-108648826D01*
X122163750Y-108650000D01*
X121676250Y-108650000D01*
X121652358Y-108648826D01*
X121628697Y-108645316D01*
X121605493Y-108639504D01*
X121582971Y-108631446D01*
X121561347Y-108621218D01*
X121540830Y-108608921D01*
X121521617Y-108594671D01*
X121503893Y-108578607D01*
X121487829Y-108560883D01*
X121473579Y-108541670D01*
X121461282Y-108521153D01*
X121451054Y-108499529D01*
X121442996Y-108477007D01*
X121437184Y-108453803D01*
X121433674Y-108430142D01*
X121432500Y-108406250D01*
X121432500Y-107493750D01*
X121433674Y-107469858D01*
X121437184Y-107446197D01*
X121442996Y-107422993D01*
X121451054Y-107400471D01*
X121461282Y-107378847D01*
X121473579Y-107358330D01*
X121487829Y-107339117D01*
X121503893Y-107321393D01*
X121521617Y-107305329D01*
X121540830Y-107291079D01*
X121561347Y-107278782D01*
X121582971Y-107268554D01*
X121605493Y-107260496D01*
X121628697Y-107254684D01*
X121652358Y-107251174D01*
X121676250Y-107250000D01*
X122163750Y-107250000D01*
X122187642Y-107251174D01*
X122187642Y-107251174D01*
G37*
D13*
X121920000Y-107950000D03*
D10*
G36*
X116502642Y-103441174D02*
G01*
X116526303Y-103444684D01*
X116549507Y-103450496D01*
X116572029Y-103458554D01*
X116593653Y-103468782D01*
X116614170Y-103481079D01*
X116633383Y-103495329D01*
X116651107Y-103511393D01*
X116667171Y-103529117D01*
X116681421Y-103548330D01*
X116693718Y-103568847D01*
X116703946Y-103590471D01*
X116712004Y-103612993D01*
X116717816Y-103636197D01*
X116721326Y-103659858D01*
X116722500Y-103683750D01*
X116722500Y-104596250D01*
X116721326Y-104620142D01*
X116717816Y-104643803D01*
X116712004Y-104667007D01*
X116703946Y-104689529D01*
X116693718Y-104711153D01*
X116681421Y-104731670D01*
X116667171Y-104750883D01*
X116651107Y-104768607D01*
X116633383Y-104784671D01*
X116614170Y-104798921D01*
X116593653Y-104811218D01*
X116572029Y-104821446D01*
X116549507Y-104829504D01*
X116526303Y-104835316D01*
X116502642Y-104838826D01*
X116478750Y-104840000D01*
X115991250Y-104840000D01*
X115967358Y-104838826D01*
X115943697Y-104835316D01*
X115920493Y-104829504D01*
X115897971Y-104821446D01*
X115876347Y-104811218D01*
X115855830Y-104798921D01*
X115836617Y-104784671D01*
X115818893Y-104768607D01*
X115802829Y-104750883D01*
X115788579Y-104731670D01*
X115776282Y-104711153D01*
X115766054Y-104689529D01*
X115757996Y-104667007D01*
X115752184Y-104643803D01*
X115748674Y-104620142D01*
X115747500Y-104596250D01*
X115747500Y-103683750D01*
X115748674Y-103659858D01*
X115752184Y-103636197D01*
X115757996Y-103612993D01*
X115766054Y-103590471D01*
X115776282Y-103568847D01*
X115788579Y-103548330D01*
X115802829Y-103529117D01*
X115818893Y-103511393D01*
X115836617Y-103495329D01*
X115855830Y-103481079D01*
X115876347Y-103468782D01*
X115897971Y-103458554D01*
X115920493Y-103450496D01*
X115943697Y-103444684D01*
X115967358Y-103441174D01*
X115991250Y-103440000D01*
X116478750Y-103440000D01*
X116502642Y-103441174D01*
X116502642Y-103441174D01*
G37*
D13*
X116235000Y-104140000D03*
D10*
G36*
X118377642Y-103441174D02*
G01*
X118401303Y-103444684D01*
X118424507Y-103450496D01*
X118447029Y-103458554D01*
X118468653Y-103468782D01*
X118489170Y-103481079D01*
X118508383Y-103495329D01*
X118526107Y-103511393D01*
X118542171Y-103529117D01*
X118556421Y-103548330D01*
X118568718Y-103568847D01*
X118578946Y-103590471D01*
X118587004Y-103612993D01*
X118592816Y-103636197D01*
X118596326Y-103659858D01*
X118597500Y-103683750D01*
X118597500Y-104596250D01*
X118596326Y-104620142D01*
X118592816Y-104643803D01*
X118587004Y-104667007D01*
X118578946Y-104689529D01*
X118568718Y-104711153D01*
X118556421Y-104731670D01*
X118542171Y-104750883D01*
X118526107Y-104768607D01*
X118508383Y-104784671D01*
X118489170Y-104798921D01*
X118468653Y-104811218D01*
X118447029Y-104821446D01*
X118424507Y-104829504D01*
X118401303Y-104835316D01*
X118377642Y-104838826D01*
X118353750Y-104840000D01*
X117866250Y-104840000D01*
X117842358Y-104838826D01*
X117818697Y-104835316D01*
X117795493Y-104829504D01*
X117772971Y-104821446D01*
X117751347Y-104811218D01*
X117730830Y-104798921D01*
X117711617Y-104784671D01*
X117693893Y-104768607D01*
X117677829Y-104750883D01*
X117663579Y-104731670D01*
X117651282Y-104711153D01*
X117641054Y-104689529D01*
X117632996Y-104667007D01*
X117627184Y-104643803D01*
X117623674Y-104620142D01*
X117622500Y-104596250D01*
X117622500Y-103683750D01*
X117623674Y-103659858D01*
X117627184Y-103636197D01*
X117632996Y-103612993D01*
X117641054Y-103590471D01*
X117651282Y-103568847D01*
X117663579Y-103548330D01*
X117677829Y-103529117D01*
X117693893Y-103511393D01*
X117711617Y-103495329D01*
X117730830Y-103481079D01*
X117751347Y-103468782D01*
X117772971Y-103458554D01*
X117795493Y-103450496D01*
X117818697Y-103444684D01*
X117842358Y-103441174D01*
X117866250Y-103440000D01*
X118353750Y-103440000D01*
X118377642Y-103441174D01*
X118377642Y-103441174D01*
G37*
D13*
X118110000Y-104140000D03*
D21*
X79420000Y-74070000D03*
X78770000Y-74070000D03*
X78120000Y-74070000D03*
X77470000Y-74070000D03*
X76820000Y-74070000D03*
X76170000Y-74070000D03*
X75520000Y-74070000D03*
X75520000Y-68170000D03*
X76170000Y-68170000D03*
X76820000Y-68170000D03*
X77470000Y-68170000D03*
X78120000Y-68170000D03*
X78770000Y-68170000D03*
X79420000Y-68170000D03*
D10*
G36*
X124305142Y-89018674D02*
G01*
X124328803Y-89022184D01*
X124352007Y-89027996D01*
X124374529Y-89036054D01*
X124396153Y-89046282D01*
X124416670Y-89058579D01*
X124435883Y-89072829D01*
X124453607Y-89088893D01*
X124469671Y-89106617D01*
X124483921Y-89125830D01*
X124496218Y-89146347D01*
X124506446Y-89167971D01*
X124514504Y-89190493D01*
X124520316Y-89213697D01*
X124523826Y-89237358D01*
X124525000Y-89261250D01*
X124525000Y-89748750D01*
X124523826Y-89772642D01*
X124520316Y-89796303D01*
X124514504Y-89819507D01*
X124506446Y-89842029D01*
X124496218Y-89863653D01*
X124483921Y-89884170D01*
X124469671Y-89903383D01*
X124453607Y-89921107D01*
X124435883Y-89937171D01*
X124416670Y-89951421D01*
X124396153Y-89963718D01*
X124374529Y-89973946D01*
X124352007Y-89982004D01*
X124328803Y-89987816D01*
X124305142Y-89991326D01*
X124281250Y-89992500D01*
X123368750Y-89992500D01*
X123344858Y-89991326D01*
X123321197Y-89987816D01*
X123297993Y-89982004D01*
X123275471Y-89973946D01*
X123253847Y-89963718D01*
X123233330Y-89951421D01*
X123214117Y-89937171D01*
X123196393Y-89921107D01*
X123180329Y-89903383D01*
X123166079Y-89884170D01*
X123153782Y-89863653D01*
X123143554Y-89842029D01*
X123135496Y-89819507D01*
X123129684Y-89796303D01*
X123126174Y-89772642D01*
X123125000Y-89748750D01*
X123125000Y-89261250D01*
X123126174Y-89237358D01*
X123129684Y-89213697D01*
X123135496Y-89190493D01*
X123143554Y-89167971D01*
X123153782Y-89146347D01*
X123166079Y-89125830D01*
X123180329Y-89106617D01*
X123196393Y-89088893D01*
X123214117Y-89072829D01*
X123233330Y-89058579D01*
X123253847Y-89046282D01*
X123275471Y-89036054D01*
X123297993Y-89027996D01*
X123321197Y-89022184D01*
X123344858Y-89018674D01*
X123368750Y-89017500D01*
X124281250Y-89017500D01*
X124305142Y-89018674D01*
X124305142Y-89018674D01*
G37*
D13*
X123825000Y-89505000D03*
D10*
G36*
X124305142Y-87143674D02*
G01*
X124328803Y-87147184D01*
X124352007Y-87152996D01*
X124374529Y-87161054D01*
X124396153Y-87171282D01*
X124416670Y-87183579D01*
X124435883Y-87197829D01*
X124453607Y-87213893D01*
X124469671Y-87231617D01*
X124483921Y-87250830D01*
X124496218Y-87271347D01*
X124506446Y-87292971D01*
X124514504Y-87315493D01*
X124520316Y-87338697D01*
X124523826Y-87362358D01*
X124525000Y-87386250D01*
X124525000Y-87873750D01*
X124523826Y-87897642D01*
X124520316Y-87921303D01*
X124514504Y-87944507D01*
X124506446Y-87967029D01*
X124496218Y-87988653D01*
X124483921Y-88009170D01*
X124469671Y-88028383D01*
X124453607Y-88046107D01*
X124435883Y-88062171D01*
X124416670Y-88076421D01*
X124396153Y-88088718D01*
X124374529Y-88098946D01*
X124352007Y-88107004D01*
X124328803Y-88112816D01*
X124305142Y-88116326D01*
X124281250Y-88117500D01*
X123368750Y-88117500D01*
X123344858Y-88116326D01*
X123321197Y-88112816D01*
X123297993Y-88107004D01*
X123275471Y-88098946D01*
X123253847Y-88088718D01*
X123233330Y-88076421D01*
X123214117Y-88062171D01*
X123196393Y-88046107D01*
X123180329Y-88028383D01*
X123166079Y-88009170D01*
X123153782Y-87988653D01*
X123143554Y-87967029D01*
X123135496Y-87944507D01*
X123129684Y-87921303D01*
X123126174Y-87897642D01*
X123125000Y-87873750D01*
X123125000Y-87386250D01*
X123126174Y-87362358D01*
X123129684Y-87338697D01*
X123135496Y-87315493D01*
X123143554Y-87292971D01*
X123153782Y-87271347D01*
X123166079Y-87250830D01*
X123180329Y-87231617D01*
X123196393Y-87213893D01*
X123214117Y-87197829D01*
X123233330Y-87183579D01*
X123253847Y-87171282D01*
X123275471Y-87161054D01*
X123297993Y-87152996D01*
X123321197Y-87147184D01*
X123344858Y-87143674D01*
X123368750Y-87142500D01*
X124281250Y-87142500D01*
X124305142Y-87143674D01*
X124305142Y-87143674D01*
G37*
D13*
X123825000Y-87630000D03*
D10*
G36*
X120917642Y-82486174D02*
G01*
X120941303Y-82489684D01*
X120964507Y-82495496D01*
X120987029Y-82503554D01*
X121008653Y-82513782D01*
X121029170Y-82526079D01*
X121048383Y-82540329D01*
X121066107Y-82556393D01*
X121082171Y-82574117D01*
X121096421Y-82593330D01*
X121108718Y-82613847D01*
X121118946Y-82635471D01*
X121127004Y-82657993D01*
X121132816Y-82681197D01*
X121136326Y-82704858D01*
X121137500Y-82728750D01*
X121137500Y-83641250D01*
X121136326Y-83665142D01*
X121132816Y-83688803D01*
X121127004Y-83712007D01*
X121118946Y-83734529D01*
X121108718Y-83756153D01*
X121096421Y-83776670D01*
X121082171Y-83795883D01*
X121066107Y-83813607D01*
X121048383Y-83829671D01*
X121029170Y-83843921D01*
X121008653Y-83856218D01*
X120987029Y-83866446D01*
X120964507Y-83874504D01*
X120941303Y-83880316D01*
X120917642Y-83883826D01*
X120893750Y-83885000D01*
X120406250Y-83885000D01*
X120382358Y-83883826D01*
X120358697Y-83880316D01*
X120335493Y-83874504D01*
X120312971Y-83866446D01*
X120291347Y-83856218D01*
X120270830Y-83843921D01*
X120251617Y-83829671D01*
X120233893Y-83813607D01*
X120217829Y-83795883D01*
X120203579Y-83776670D01*
X120191282Y-83756153D01*
X120181054Y-83734529D01*
X120172996Y-83712007D01*
X120167184Y-83688803D01*
X120163674Y-83665142D01*
X120162500Y-83641250D01*
X120162500Y-82728750D01*
X120163674Y-82704858D01*
X120167184Y-82681197D01*
X120172996Y-82657993D01*
X120181054Y-82635471D01*
X120191282Y-82613847D01*
X120203579Y-82593330D01*
X120217829Y-82574117D01*
X120233893Y-82556393D01*
X120251617Y-82540329D01*
X120270830Y-82526079D01*
X120291347Y-82513782D01*
X120312971Y-82503554D01*
X120335493Y-82495496D01*
X120358697Y-82489684D01*
X120382358Y-82486174D01*
X120406250Y-82485000D01*
X120893750Y-82485000D01*
X120917642Y-82486174D01*
X120917642Y-82486174D01*
G37*
D13*
X120650000Y-83185000D03*
D10*
G36*
X119042642Y-82486174D02*
G01*
X119066303Y-82489684D01*
X119089507Y-82495496D01*
X119112029Y-82503554D01*
X119133653Y-82513782D01*
X119154170Y-82526079D01*
X119173383Y-82540329D01*
X119191107Y-82556393D01*
X119207171Y-82574117D01*
X119221421Y-82593330D01*
X119233718Y-82613847D01*
X119243946Y-82635471D01*
X119252004Y-82657993D01*
X119257816Y-82681197D01*
X119261326Y-82704858D01*
X119262500Y-82728750D01*
X119262500Y-83641250D01*
X119261326Y-83665142D01*
X119257816Y-83688803D01*
X119252004Y-83712007D01*
X119243946Y-83734529D01*
X119233718Y-83756153D01*
X119221421Y-83776670D01*
X119207171Y-83795883D01*
X119191107Y-83813607D01*
X119173383Y-83829671D01*
X119154170Y-83843921D01*
X119133653Y-83856218D01*
X119112029Y-83866446D01*
X119089507Y-83874504D01*
X119066303Y-83880316D01*
X119042642Y-83883826D01*
X119018750Y-83885000D01*
X118531250Y-83885000D01*
X118507358Y-83883826D01*
X118483697Y-83880316D01*
X118460493Y-83874504D01*
X118437971Y-83866446D01*
X118416347Y-83856218D01*
X118395830Y-83843921D01*
X118376617Y-83829671D01*
X118358893Y-83813607D01*
X118342829Y-83795883D01*
X118328579Y-83776670D01*
X118316282Y-83756153D01*
X118306054Y-83734529D01*
X118297996Y-83712007D01*
X118292184Y-83688803D01*
X118288674Y-83665142D01*
X118287500Y-83641250D01*
X118287500Y-82728750D01*
X118288674Y-82704858D01*
X118292184Y-82681197D01*
X118297996Y-82657993D01*
X118306054Y-82635471D01*
X118316282Y-82613847D01*
X118328579Y-82593330D01*
X118342829Y-82574117D01*
X118358893Y-82556393D01*
X118376617Y-82540329D01*
X118395830Y-82526079D01*
X118416347Y-82513782D01*
X118437971Y-82503554D01*
X118460493Y-82495496D01*
X118483697Y-82489684D01*
X118507358Y-82486174D01*
X118531250Y-82485000D01*
X119018750Y-82485000D01*
X119042642Y-82486174D01*
X119042642Y-82486174D01*
G37*
D13*
X118775000Y-83185000D03*
D10*
G36*
X68182642Y-72961174D02*
G01*
X68206303Y-72964684D01*
X68229507Y-72970496D01*
X68252029Y-72978554D01*
X68273653Y-72988782D01*
X68294170Y-73001079D01*
X68313383Y-73015329D01*
X68331107Y-73031393D01*
X68347171Y-73049117D01*
X68361421Y-73068330D01*
X68373718Y-73088847D01*
X68383946Y-73110471D01*
X68392004Y-73132993D01*
X68397816Y-73156197D01*
X68401326Y-73179858D01*
X68402500Y-73203750D01*
X68402500Y-74116250D01*
X68401326Y-74140142D01*
X68397816Y-74163803D01*
X68392004Y-74187007D01*
X68383946Y-74209529D01*
X68373718Y-74231153D01*
X68361421Y-74251670D01*
X68347171Y-74270883D01*
X68331107Y-74288607D01*
X68313383Y-74304671D01*
X68294170Y-74318921D01*
X68273653Y-74331218D01*
X68252029Y-74341446D01*
X68229507Y-74349504D01*
X68206303Y-74355316D01*
X68182642Y-74358826D01*
X68158750Y-74360000D01*
X67671250Y-74360000D01*
X67647358Y-74358826D01*
X67623697Y-74355316D01*
X67600493Y-74349504D01*
X67577971Y-74341446D01*
X67556347Y-74331218D01*
X67535830Y-74318921D01*
X67516617Y-74304671D01*
X67498893Y-74288607D01*
X67482829Y-74270883D01*
X67468579Y-74251670D01*
X67456282Y-74231153D01*
X67446054Y-74209529D01*
X67437996Y-74187007D01*
X67432184Y-74163803D01*
X67428674Y-74140142D01*
X67427500Y-74116250D01*
X67427500Y-73203750D01*
X67428674Y-73179858D01*
X67432184Y-73156197D01*
X67437996Y-73132993D01*
X67446054Y-73110471D01*
X67456282Y-73088847D01*
X67468579Y-73068330D01*
X67482829Y-73049117D01*
X67498893Y-73031393D01*
X67516617Y-73015329D01*
X67535830Y-73001079D01*
X67556347Y-72988782D01*
X67577971Y-72978554D01*
X67600493Y-72970496D01*
X67623697Y-72964684D01*
X67647358Y-72961174D01*
X67671250Y-72960000D01*
X68158750Y-72960000D01*
X68182642Y-72961174D01*
X68182642Y-72961174D01*
G37*
D13*
X67915000Y-73660000D03*
D10*
G36*
X66307642Y-72961174D02*
G01*
X66331303Y-72964684D01*
X66354507Y-72970496D01*
X66377029Y-72978554D01*
X66398653Y-72988782D01*
X66419170Y-73001079D01*
X66438383Y-73015329D01*
X66456107Y-73031393D01*
X66472171Y-73049117D01*
X66486421Y-73068330D01*
X66498718Y-73088847D01*
X66508946Y-73110471D01*
X66517004Y-73132993D01*
X66522816Y-73156197D01*
X66526326Y-73179858D01*
X66527500Y-73203750D01*
X66527500Y-74116250D01*
X66526326Y-74140142D01*
X66522816Y-74163803D01*
X66517004Y-74187007D01*
X66508946Y-74209529D01*
X66498718Y-74231153D01*
X66486421Y-74251670D01*
X66472171Y-74270883D01*
X66456107Y-74288607D01*
X66438383Y-74304671D01*
X66419170Y-74318921D01*
X66398653Y-74331218D01*
X66377029Y-74341446D01*
X66354507Y-74349504D01*
X66331303Y-74355316D01*
X66307642Y-74358826D01*
X66283750Y-74360000D01*
X65796250Y-74360000D01*
X65772358Y-74358826D01*
X65748697Y-74355316D01*
X65725493Y-74349504D01*
X65702971Y-74341446D01*
X65681347Y-74331218D01*
X65660830Y-74318921D01*
X65641617Y-74304671D01*
X65623893Y-74288607D01*
X65607829Y-74270883D01*
X65593579Y-74251670D01*
X65581282Y-74231153D01*
X65571054Y-74209529D01*
X65562996Y-74187007D01*
X65557184Y-74163803D01*
X65553674Y-74140142D01*
X65552500Y-74116250D01*
X65552500Y-73203750D01*
X65553674Y-73179858D01*
X65557184Y-73156197D01*
X65562996Y-73132993D01*
X65571054Y-73110471D01*
X65581282Y-73088847D01*
X65593579Y-73068330D01*
X65607829Y-73049117D01*
X65623893Y-73031393D01*
X65641617Y-73015329D01*
X65660830Y-73001079D01*
X65681347Y-72988782D01*
X65702971Y-72978554D01*
X65725493Y-72970496D01*
X65748697Y-72964684D01*
X65772358Y-72961174D01*
X65796250Y-72960000D01*
X66283750Y-72960000D01*
X66307642Y-72961174D01*
X66307642Y-72961174D01*
G37*
D13*
X66040000Y-73660000D03*
D10*
G36*
X66520142Y-81731174D02*
G01*
X66543803Y-81734684D01*
X66567007Y-81740496D01*
X66589529Y-81748554D01*
X66611153Y-81758782D01*
X66631670Y-81771079D01*
X66650883Y-81785329D01*
X66668607Y-81801393D01*
X66684671Y-81819117D01*
X66698921Y-81838330D01*
X66711218Y-81858847D01*
X66721446Y-81880471D01*
X66729504Y-81902993D01*
X66735316Y-81926197D01*
X66738826Y-81949858D01*
X66740000Y-81973750D01*
X66740000Y-82461250D01*
X66738826Y-82485142D01*
X66735316Y-82508803D01*
X66729504Y-82532007D01*
X66721446Y-82554529D01*
X66711218Y-82576153D01*
X66698921Y-82596670D01*
X66684671Y-82615883D01*
X66668607Y-82633607D01*
X66650883Y-82649671D01*
X66631670Y-82663921D01*
X66611153Y-82676218D01*
X66589529Y-82686446D01*
X66567007Y-82694504D01*
X66543803Y-82700316D01*
X66520142Y-82703826D01*
X66496250Y-82705000D01*
X65583750Y-82705000D01*
X65559858Y-82703826D01*
X65536197Y-82700316D01*
X65512993Y-82694504D01*
X65490471Y-82686446D01*
X65468847Y-82676218D01*
X65448330Y-82663921D01*
X65429117Y-82649671D01*
X65411393Y-82633607D01*
X65395329Y-82615883D01*
X65381079Y-82596670D01*
X65368782Y-82576153D01*
X65358554Y-82554529D01*
X65350496Y-82532007D01*
X65344684Y-82508803D01*
X65341174Y-82485142D01*
X65340000Y-82461250D01*
X65340000Y-81973750D01*
X65341174Y-81949858D01*
X65344684Y-81926197D01*
X65350496Y-81902993D01*
X65358554Y-81880471D01*
X65368782Y-81858847D01*
X65381079Y-81838330D01*
X65395329Y-81819117D01*
X65411393Y-81801393D01*
X65429117Y-81785329D01*
X65448330Y-81771079D01*
X65468847Y-81758782D01*
X65490471Y-81748554D01*
X65512993Y-81740496D01*
X65536197Y-81734684D01*
X65559858Y-81731174D01*
X65583750Y-81730000D01*
X66496250Y-81730000D01*
X66520142Y-81731174D01*
X66520142Y-81731174D01*
G37*
D13*
X66040000Y-82217500D03*
D10*
G36*
X66520142Y-79856174D02*
G01*
X66543803Y-79859684D01*
X66567007Y-79865496D01*
X66589529Y-79873554D01*
X66611153Y-79883782D01*
X66631670Y-79896079D01*
X66650883Y-79910329D01*
X66668607Y-79926393D01*
X66684671Y-79944117D01*
X66698921Y-79963330D01*
X66711218Y-79983847D01*
X66721446Y-80005471D01*
X66729504Y-80027993D01*
X66735316Y-80051197D01*
X66738826Y-80074858D01*
X66740000Y-80098750D01*
X66740000Y-80586250D01*
X66738826Y-80610142D01*
X66735316Y-80633803D01*
X66729504Y-80657007D01*
X66721446Y-80679529D01*
X66711218Y-80701153D01*
X66698921Y-80721670D01*
X66684671Y-80740883D01*
X66668607Y-80758607D01*
X66650883Y-80774671D01*
X66631670Y-80788921D01*
X66611153Y-80801218D01*
X66589529Y-80811446D01*
X66567007Y-80819504D01*
X66543803Y-80825316D01*
X66520142Y-80828826D01*
X66496250Y-80830000D01*
X65583750Y-80830000D01*
X65559858Y-80828826D01*
X65536197Y-80825316D01*
X65512993Y-80819504D01*
X65490471Y-80811446D01*
X65468847Y-80801218D01*
X65448330Y-80788921D01*
X65429117Y-80774671D01*
X65411393Y-80758607D01*
X65395329Y-80740883D01*
X65381079Y-80721670D01*
X65368782Y-80701153D01*
X65358554Y-80679529D01*
X65350496Y-80657007D01*
X65344684Y-80633803D01*
X65341174Y-80610142D01*
X65340000Y-80586250D01*
X65340000Y-80098750D01*
X65341174Y-80074858D01*
X65344684Y-80051197D01*
X65350496Y-80027993D01*
X65358554Y-80005471D01*
X65368782Y-79983847D01*
X65381079Y-79963330D01*
X65395329Y-79944117D01*
X65411393Y-79926393D01*
X65429117Y-79910329D01*
X65448330Y-79896079D01*
X65468847Y-79883782D01*
X65490471Y-79873554D01*
X65512993Y-79865496D01*
X65536197Y-79859684D01*
X65559858Y-79856174D01*
X65583750Y-79855000D01*
X66496250Y-79855000D01*
X66520142Y-79856174D01*
X66520142Y-79856174D01*
G37*
D13*
X66040000Y-80342500D03*
D10*
G36*
X85962642Y-60261174D02*
G01*
X85986303Y-60264684D01*
X86009507Y-60270496D01*
X86032029Y-60278554D01*
X86053653Y-60288782D01*
X86074170Y-60301079D01*
X86093383Y-60315329D01*
X86111107Y-60331393D01*
X86127171Y-60349117D01*
X86141421Y-60368330D01*
X86153718Y-60388847D01*
X86163946Y-60410471D01*
X86172004Y-60432993D01*
X86177816Y-60456197D01*
X86181326Y-60479858D01*
X86182500Y-60503750D01*
X86182500Y-61416250D01*
X86181326Y-61440142D01*
X86177816Y-61463803D01*
X86172004Y-61487007D01*
X86163946Y-61509529D01*
X86153718Y-61531153D01*
X86141421Y-61551670D01*
X86127171Y-61570883D01*
X86111107Y-61588607D01*
X86093383Y-61604671D01*
X86074170Y-61618921D01*
X86053653Y-61631218D01*
X86032029Y-61641446D01*
X86009507Y-61649504D01*
X85986303Y-61655316D01*
X85962642Y-61658826D01*
X85938750Y-61660000D01*
X85451250Y-61660000D01*
X85427358Y-61658826D01*
X85403697Y-61655316D01*
X85380493Y-61649504D01*
X85357971Y-61641446D01*
X85336347Y-61631218D01*
X85315830Y-61618921D01*
X85296617Y-61604671D01*
X85278893Y-61588607D01*
X85262829Y-61570883D01*
X85248579Y-61551670D01*
X85236282Y-61531153D01*
X85226054Y-61509529D01*
X85217996Y-61487007D01*
X85212184Y-61463803D01*
X85208674Y-61440142D01*
X85207500Y-61416250D01*
X85207500Y-60503750D01*
X85208674Y-60479858D01*
X85212184Y-60456197D01*
X85217996Y-60432993D01*
X85226054Y-60410471D01*
X85236282Y-60388847D01*
X85248579Y-60368330D01*
X85262829Y-60349117D01*
X85278893Y-60331393D01*
X85296617Y-60315329D01*
X85315830Y-60301079D01*
X85336347Y-60288782D01*
X85357971Y-60278554D01*
X85380493Y-60270496D01*
X85403697Y-60264684D01*
X85427358Y-60261174D01*
X85451250Y-60260000D01*
X85938750Y-60260000D01*
X85962642Y-60261174D01*
X85962642Y-60261174D01*
G37*
D13*
X85695000Y-60960000D03*
D10*
G36*
X84087642Y-60261174D02*
G01*
X84111303Y-60264684D01*
X84134507Y-60270496D01*
X84157029Y-60278554D01*
X84178653Y-60288782D01*
X84199170Y-60301079D01*
X84218383Y-60315329D01*
X84236107Y-60331393D01*
X84252171Y-60349117D01*
X84266421Y-60368330D01*
X84278718Y-60388847D01*
X84288946Y-60410471D01*
X84297004Y-60432993D01*
X84302816Y-60456197D01*
X84306326Y-60479858D01*
X84307500Y-60503750D01*
X84307500Y-61416250D01*
X84306326Y-61440142D01*
X84302816Y-61463803D01*
X84297004Y-61487007D01*
X84288946Y-61509529D01*
X84278718Y-61531153D01*
X84266421Y-61551670D01*
X84252171Y-61570883D01*
X84236107Y-61588607D01*
X84218383Y-61604671D01*
X84199170Y-61618921D01*
X84178653Y-61631218D01*
X84157029Y-61641446D01*
X84134507Y-61649504D01*
X84111303Y-61655316D01*
X84087642Y-61658826D01*
X84063750Y-61660000D01*
X83576250Y-61660000D01*
X83552358Y-61658826D01*
X83528697Y-61655316D01*
X83505493Y-61649504D01*
X83482971Y-61641446D01*
X83461347Y-61631218D01*
X83440830Y-61618921D01*
X83421617Y-61604671D01*
X83403893Y-61588607D01*
X83387829Y-61570883D01*
X83373579Y-61551670D01*
X83361282Y-61531153D01*
X83351054Y-61509529D01*
X83342996Y-61487007D01*
X83337184Y-61463803D01*
X83333674Y-61440142D01*
X83332500Y-61416250D01*
X83332500Y-60503750D01*
X83333674Y-60479858D01*
X83337184Y-60456197D01*
X83342996Y-60432993D01*
X83351054Y-60410471D01*
X83361282Y-60388847D01*
X83373579Y-60368330D01*
X83387829Y-60349117D01*
X83403893Y-60331393D01*
X83421617Y-60315329D01*
X83440830Y-60301079D01*
X83461347Y-60288782D01*
X83482971Y-60278554D01*
X83505493Y-60270496D01*
X83528697Y-60264684D01*
X83552358Y-60261174D01*
X83576250Y-60260000D01*
X84063750Y-60260000D01*
X84087642Y-60261174D01*
X84087642Y-60261174D01*
G37*
D13*
X83820000Y-60960000D03*
D10*
G36*
X78342642Y-60261174D02*
G01*
X78366303Y-60264684D01*
X78389507Y-60270496D01*
X78412029Y-60278554D01*
X78433653Y-60288782D01*
X78454170Y-60301079D01*
X78473383Y-60315329D01*
X78491107Y-60331393D01*
X78507171Y-60349117D01*
X78521421Y-60368330D01*
X78533718Y-60388847D01*
X78543946Y-60410471D01*
X78552004Y-60432993D01*
X78557816Y-60456197D01*
X78561326Y-60479858D01*
X78562500Y-60503750D01*
X78562500Y-61416250D01*
X78561326Y-61440142D01*
X78557816Y-61463803D01*
X78552004Y-61487007D01*
X78543946Y-61509529D01*
X78533718Y-61531153D01*
X78521421Y-61551670D01*
X78507171Y-61570883D01*
X78491107Y-61588607D01*
X78473383Y-61604671D01*
X78454170Y-61618921D01*
X78433653Y-61631218D01*
X78412029Y-61641446D01*
X78389507Y-61649504D01*
X78366303Y-61655316D01*
X78342642Y-61658826D01*
X78318750Y-61660000D01*
X77831250Y-61660000D01*
X77807358Y-61658826D01*
X77783697Y-61655316D01*
X77760493Y-61649504D01*
X77737971Y-61641446D01*
X77716347Y-61631218D01*
X77695830Y-61618921D01*
X77676617Y-61604671D01*
X77658893Y-61588607D01*
X77642829Y-61570883D01*
X77628579Y-61551670D01*
X77616282Y-61531153D01*
X77606054Y-61509529D01*
X77597996Y-61487007D01*
X77592184Y-61463803D01*
X77588674Y-61440142D01*
X77587500Y-61416250D01*
X77587500Y-60503750D01*
X77588674Y-60479858D01*
X77592184Y-60456197D01*
X77597996Y-60432993D01*
X77606054Y-60410471D01*
X77616282Y-60388847D01*
X77628579Y-60368330D01*
X77642829Y-60349117D01*
X77658893Y-60331393D01*
X77676617Y-60315329D01*
X77695830Y-60301079D01*
X77716347Y-60288782D01*
X77737971Y-60278554D01*
X77760493Y-60270496D01*
X77783697Y-60264684D01*
X77807358Y-60261174D01*
X77831250Y-60260000D01*
X78318750Y-60260000D01*
X78342642Y-60261174D01*
X78342642Y-60261174D01*
G37*
D13*
X78075000Y-60960000D03*
D10*
G36*
X76467642Y-60261174D02*
G01*
X76491303Y-60264684D01*
X76514507Y-60270496D01*
X76537029Y-60278554D01*
X76558653Y-60288782D01*
X76579170Y-60301079D01*
X76598383Y-60315329D01*
X76616107Y-60331393D01*
X76632171Y-60349117D01*
X76646421Y-60368330D01*
X76658718Y-60388847D01*
X76668946Y-60410471D01*
X76677004Y-60432993D01*
X76682816Y-60456197D01*
X76686326Y-60479858D01*
X76687500Y-60503750D01*
X76687500Y-61416250D01*
X76686326Y-61440142D01*
X76682816Y-61463803D01*
X76677004Y-61487007D01*
X76668946Y-61509529D01*
X76658718Y-61531153D01*
X76646421Y-61551670D01*
X76632171Y-61570883D01*
X76616107Y-61588607D01*
X76598383Y-61604671D01*
X76579170Y-61618921D01*
X76558653Y-61631218D01*
X76537029Y-61641446D01*
X76514507Y-61649504D01*
X76491303Y-61655316D01*
X76467642Y-61658826D01*
X76443750Y-61660000D01*
X75956250Y-61660000D01*
X75932358Y-61658826D01*
X75908697Y-61655316D01*
X75885493Y-61649504D01*
X75862971Y-61641446D01*
X75841347Y-61631218D01*
X75820830Y-61618921D01*
X75801617Y-61604671D01*
X75783893Y-61588607D01*
X75767829Y-61570883D01*
X75753579Y-61551670D01*
X75741282Y-61531153D01*
X75731054Y-61509529D01*
X75722996Y-61487007D01*
X75717184Y-61463803D01*
X75713674Y-61440142D01*
X75712500Y-61416250D01*
X75712500Y-60503750D01*
X75713674Y-60479858D01*
X75717184Y-60456197D01*
X75722996Y-60432993D01*
X75731054Y-60410471D01*
X75741282Y-60388847D01*
X75753579Y-60368330D01*
X75767829Y-60349117D01*
X75783893Y-60331393D01*
X75801617Y-60315329D01*
X75820830Y-60301079D01*
X75841347Y-60288782D01*
X75862971Y-60278554D01*
X75885493Y-60270496D01*
X75908697Y-60264684D01*
X75932358Y-60261174D01*
X75956250Y-60260000D01*
X76443750Y-60260000D01*
X76467642Y-60261174D01*
X76467642Y-60261174D01*
G37*
D13*
X76200000Y-60960000D03*
D10*
G36*
X116502642Y-107251174D02*
G01*
X116526303Y-107254684D01*
X116549507Y-107260496D01*
X116572029Y-107268554D01*
X116593653Y-107278782D01*
X116614170Y-107291079D01*
X116633383Y-107305329D01*
X116651107Y-107321393D01*
X116667171Y-107339117D01*
X116681421Y-107358330D01*
X116693718Y-107378847D01*
X116703946Y-107400471D01*
X116712004Y-107422993D01*
X116717816Y-107446197D01*
X116721326Y-107469858D01*
X116722500Y-107493750D01*
X116722500Y-108406250D01*
X116721326Y-108430142D01*
X116717816Y-108453803D01*
X116712004Y-108477007D01*
X116703946Y-108499529D01*
X116693718Y-108521153D01*
X116681421Y-108541670D01*
X116667171Y-108560883D01*
X116651107Y-108578607D01*
X116633383Y-108594671D01*
X116614170Y-108608921D01*
X116593653Y-108621218D01*
X116572029Y-108631446D01*
X116549507Y-108639504D01*
X116526303Y-108645316D01*
X116502642Y-108648826D01*
X116478750Y-108650000D01*
X115991250Y-108650000D01*
X115967358Y-108648826D01*
X115943697Y-108645316D01*
X115920493Y-108639504D01*
X115897971Y-108631446D01*
X115876347Y-108621218D01*
X115855830Y-108608921D01*
X115836617Y-108594671D01*
X115818893Y-108578607D01*
X115802829Y-108560883D01*
X115788579Y-108541670D01*
X115776282Y-108521153D01*
X115766054Y-108499529D01*
X115757996Y-108477007D01*
X115752184Y-108453803D01*
X115748674Y-108430142D01*
X115747500Y-108406250D01*
X115747500Y-107493750D01*
X115748674Y-107469858D01*
X115752184Y-107446197D01*
X115757996Y-107422993D01*
X115766054Y-107400471D01*
X115776282Y-107378847D01*
X115788579Y-107358330D01*
X115802829Y-107339117D01*
X115818893Y-107321393D01*
X115836617Y-107305329D01*
X115855830Y-107291079D01*
X115876347Y-107278782D01*
X115897971Y-107268554D01*
X115920493Y-107260496D01*
X115943697Y-107254684D01*
X115967358Y-107251174D01*
X115991250Y-107250000D01*
X116478750Y-107250000D01*
X116502642Y-107251174D01*
X116502642Y-107251174D01*
G37*
D13*
X116235000Y-107950000D03*
D10*
G36*
X118377642Y-107251174D02*
G01*
X118401303Y-107254684D01*
X118424507Y-107260496D01*
X118447029Y-107268554D01*
X118468653Y-107278782D01*
X118489170Y-107291079D01*
X118508383Y-107305329D01*
X118526107Y-107321393D01*
X118542171Y-107339117D01*
X118556421Y-107358330D01*
X118568718Y-107378847D01*
X118578946Y-107400471D01*
X118587004Y-107422993D01*
X118592816Y-107446197D01*
X118596326Y-107469858D01*
X118597500Y-107493750D01*
X118597500Y-108406250D01*
X118596326Y-108430142D01*
X118592816Y-108453803D01*
X118587004Y-108477007D01*
X118578946Y-108499529D01*
X118568718Y-108521153D01*
X118556421Y-108541670D01*
X118542171Y-108560883D01*
X118526107Y-108578607D01*
X118508383Y-108594671D01*
X118489170Y-108608921D01*
X118468653Y-108621218D01*
X118447029Y-108631446D01*
X118424507Y-108639504D01*
X118401303Y-108645316D01*
X118377642Y-108648826D01*
X118353750Y-108650000D01*
X117866250Y-108650000D01*
X117842358Y-108648826D01*
X117818697Y-108645316D01*
X117795493Y-108639504D01*
X117772971Y-108631446D01*
X117751347Y-108621218D01*
X117730830Y-108608921D01*
X117711617Y-108594671D01*
X117693893Y-108578607D01*
X117677829Y-108560883D01*
X117663579Y-108541670D01*
X117651282Y-108521153D01*
X117641054Y-108499529D01*
X117632996Y-108477007D01*
X117627184Y-108453803D01*
X117623674Y-108430142D01*
X117622500Y-108406250D01*
X117622500Y-107493750D01*
X117623674Y-107469858D01*
X117627184Y-107446197D01*
X117632996Y-107422993D01*
X117641054Y-107400471D01*
X117651282Y-107378847D01*
X117663579Y-107358330D01*
X117677829Y-107339117D01*
X117693893Y-107321393D01*
X117711617Y-107305329D01*
X117730830Y-107291079D01*
X117751347Y-107278782D01*
X117772971Y-107268554D01*
X117795493Y-107260496D01*
X117818697Y-107254684D01*
X117842358Y-107251174D01*
X117866250Y-107250000D01*
X118353750Y-107250000D01*
X118377642Y-107251174D01*
X118377642Y-107251174D01*
G37*
D13*
X118110000Y-107950000D03*
D10*
G36*
X120495142Y-103653674D02*
G01*
X120518803Y-103657184D01*
X120542007Y-103662996D01*
X120564529Y-103671054D01*
X120586153Y-103681282D01*
X120606670Y-103693579D01*
X120625883Y-103707829D01*
X120643607Y-103723893D01*
X120659671Y-103741617D01*
X120673921Y-103760830D01*
X120686218Y-103781347D01*
X120696446Y-103802971D01*
X120704504Y-103825493D01*
X120710316Y-103848697D01*
X120713826Y-103872358D01*
X120715000Y-103896250D01*
X120715000Y-104383750D01*
X120713826Y-104407642D01*
X120710316Y-104431303D01*
X120704504Y-104454507D01*
X120696446Y-104477029D01*
X120686218Y-104498653D01*
X120673921Y-104519170D01*
X120659671Y-104538383D01*
X120643607Y-104556107D01*
X120625883Y-104572171D01*
X120606670Y-104586421D01*
X120586153Y-104598718D01*
X120564529Y-104608946D01*
X120542007Y-104617004D01*
X120518803Y-104622816D01*
X120495142Y-104626326D01*
X120471250Y-104627500D01*
X119558750Y-104627500D01*
X119534858Y-104626326D01*
X119511197Y-104622816D01*
X119487993Y-104617004D01*
X119465471Y-104608946D01*
X119443847Y-104598718D01*
X119423330Y-104586421D01*
X119404117Y-104572171D01*
X119386393Y-104556107D01*
X119370329Y-104538383D01*
X119356079Y-104519170D01*
X119343782Y-104498653D01*
X119333554Y-104477029D01*
X119325496Y-104454507D01*
X119319684Y-104431303D01*
X119316174Y-104407642D01*
X119315000Y-104383750D01*
X119315000Y-103896250D01*
X119316174Y-103872358D01*
X119319684Y-103848697D01*
X119325496Y-103825493D01*
X119333554Y-103802971D01*
X119343782Y-103781347D01*
X119356079Y-103760830D01*
X119370329Y-103741617D01*
X119386393Y-103723893D01*
X119404117Y-103707829D01*
X119423330Y-103693579D01*
X119443847Y-103681282D01*
X119465471Y-103671054D01*
X119487993Y-103662996D01*
X119511197Y-103657184D01*
X119534858Y-103653674D01*
X119558750Y-103652500D01*
X120471250Y-103652500D01*
X120495142Y-103653674D01*
X120495142Y-103653674D01*
G37*
D13*
X120015000Y-104140000D03*
D10*
G36*
X120495142Y-105528674D02*
G01*
X120518803Y-105532184D01*
X120542007Y-105537996D01*
X120564529Y-105546054D01*
X120586153Y-105556282D01*
X120606670Y-105568579D01*
X120625883Y-105582829D01*
X120643607Y-105598893D01*
X120659671Y-105616617D01*
X120673921Y-105635830D01*
X120686218Y-105656347D01*
X120696446Y-105677971D01*
X120704504Y-105700493D01*
X120710316Y-105723697D01*
X120713826Y-105747358D01*
X120715000Y-105771250D01*
X120715000Y-106258750D01*
X120713826Y-106282642D01*
X120710316Y-106306303D01*
X120704504Y-106329507D01*
X120696446Y-106352029D01*
X120686218Y-106373653D01*
X120673921Y-106394170D01*
X120659671Y-106413383D01*
X120643607Y-106431107D01*
X120625883Y-106447171D01*
X120606670Y-106461421D01*
X120586153Y-106473718D01*
X120564529Y-106483946D01*
X120542007Y-106492004D01*
X120518803Y-106497816D01*
X120495142Y-106501326D01*
X120471250Y-106502500D01*
X119558750Y-106502500D01*
X119534858Y-106501326D01*
X119511197Y-106497816D01*
X119487993Y-106492004D01*
X119465471Y-106483946D01*
X119443847Y-106473718D01*
X119423330Y-106461421D01*
X119404117Y-106447171D01*
X119386393Y-106431107D01*
X119370329Y-106413383D01*
X119356079Y-106394170D01*
X119343782Y-106373653D01*
X119333554Y-106352029D01*
X119325496Y-106329507D01*
X119319684Y-106306303D01*
X119316174Y-106282642D01*
X119315000Y-106258750D01*
X119315000Y-105771250D01*
X119316174Y-105747358D01*
X119319684Y-105723697D01*
X119325496Y-105700493D01*
X119333554Y-105677971D01*
X119343782Y-105656347D01*
X119356079Y-105635830D01*
X119370329Y-105616617D01*
X119386393Y-105598893D01*
X119404117Y-105582829D01*
X119423330Y-105568579D01*
X119443847Y-105556282D01*
X119465471Y-105546054D01*
X119487993Y-105537996D01*
X119511197Y-105532184D01*
X119534858Y-105528674D01*
X119558750Y-105527500D01*
X120471250Y-105527500D01*
X120495142Y-105528674D01*
X120495142Y-105528674D01*
G37*
D13*
X120015000Y-106015000D03*
D10*
G36*
X70722642Y-60261174D02*
G01*
X70746303Y-60264684D01*
X70769507Y-60270496D01*
X70792029Y-60278554D01*
X70813653Y-60288782D01*
X70834170Y-60301079D01*
X70853383Y-60315329D01*
X70871107Y-60331393D01*
X70887171Y-60349117D01*
X70901421Y-60368330D01*
X70913718Y-60388847D01*
X70923946Y-60410471D01*
X70932004Y-60432993D01*
X70937816Y-60456197D01*
X70941326Y-60479858D01*
X70942500Y-60503750D01*
X70942500Y-61416250D01*
X70941326Y-61440142D01*
X70937816Y-61463803D01*
X70932004Y-61487007D01*
X70923946Y-61509529D01*
X70913718Y-61531153D01*
X70901421Y-61551670D01*
X70887171Y-61570883D01*
X70871107Y-61588607D01*
X70853383Y-61604671D01*
X70834170Y-61618921D01*
X70813653Y-61631218D01*
X70792029Y-61641446D01*
X70769507Y-61649504D01*
X70746303Y-61655316D01*
X70722642Y-61658826D01*
X70698750Y-61660000D01*
X70211250Y-61660000D01*
X70187358Y-61658826D01*
X70163697Y-61655316D01*
X70140493Y-61649504D01*
X70117971Y-61641446D01*
X70096347Y-61631218D01*
X70075830Y-61618921D01*
X70056617Y-61604671D01*
X70038893Y-61588607D01*
X70022829Y-61570883D01*
X70008579Y-61551670D01*
X69996282Y-61531153D01*
X69986054Y-61509529D01*
X69977996Y-61487007D01*
X69972184Y-61463803D01*
X69968674Y-61440142D01*
X69967500Y-61416250D01*
X69967500Y-60503750D01*
X69968674Y-60479858D01*
X69972184Y-60456197D01*
X69977996Y-60432993D01*
X69986054Y-60410471D01*
X69996282Y-60388847D01*
X70008579Y-60368330D01*
X70022829Y-60349117D01*
X70038893Y-60331393D01*
X70056617Y-60315329D01*
X70075830Y-60301079D01*
X70096347Y-60288782D01*
X70117971Y-60278554D01*
X70140493Y-60270496D01*
X70163697Y-60264684D01*
X70187358Y-60261174D01*
X70211250Y-60260000D01*
X70698750Y-60260000D01*
X70722642Y-60261174D01*
X70722642Y-60261174D01*
G37*
D13*
X70455000Y-60960000D03*
D10*
G36*
X68847642Y-60261174D02*
G01*
X68871303Y-60264684D01*
X68894507Y-60270496D01*
X68917029Y-60278554D01*
X68938653Y-60288782D01*
X68959170Y-60301079D01*
X68978383Y-60315329D01*
X68996107Y-60331393D01*
X69012171Y-60349117D01*
X69026421Y-60368330D01*
X69038718Y-60388847D01*
X69048946Y-60410471D01*
X69057004Y-60432993D01*
X69062816Y-60456197D01*
X69066326Y-60479858D01*
X69067500Y-60503750D01*
X69067500Y-61416250D01*
X69066326Y-61440142D01*
X69062816Y-61463803D01*
X69057004Y-61487007D01*
X69048946Y-61509529D01*
X69038718Y-61531153D01*
X69026421Y-61551670D01*
X69012171Y-61570883D01*
X68996107Y-61588607D01*
X68978383Y-61604671D01*
X68959170Y-61618921D01*
X68938653Y-61631218D01*
X68917029Y-61641446D01*
X68894507Y-61649504D01*
X68871303Y-61655316D01*
X68847642Y-61658826D01*
X68823750Y-61660000D01*
X68336250Y-61660000D01*
X68312358Y-61658826D01*
X68288697Y-61655316D01*
X68265493Y-61649504D01*
X68242971Y-61641446D01*
X68221347Y-61631218D01*
X68200830Y-61618921D01*
X68181617Y-61604671D01*
X68163893Y-61588607D01*
X68147829Y-61570883D01*
X68133579Y-61551670D01*
X68121282Y-61531153D01*
X68111054Y-61509529D01*
X68102996Y-61487007D01*
X68097184Y-61463803D01*
X68093674Y-61440142D01*
X68092500Y-61416250D01*
X68092500Y-60503750D01*
X68093674Y-60479858D01*
X68097184Y-60456197D01*
X68102996Y-60432993D01*
X68111054Y-60410471D01*
X68121282Y-60388847D01*
X68133579Y-60368330D01*
X68147829Y-60349117D01*
X68163893Y-60331393D01*
X68181617Y-60315329D01*
X68200830Y-60301079D01*
X68221347Y-60288782D01*
X68242971Y-60278554D01*
X68265493Y-60270496D01*
X68288697Y-60264684D01*
X68312358Y-60261174D01*
X68336250Y-60260000D01*
X68823750Y-60260000D01*
X68847642Y-60261174D01*
X68847642Y-60261174D01*
G37*
D13*
X68580000Y-60960000D03*
D10*
G36*
X68847642Y-65341174D02*
G01*
X68871303Y-65344684D01*
X68894507Y-65350496D01*
X68917029Y-65358554D01*
X68938653Y-65368782D01*
X68959170Y-65381079D01*
X68978383Y-65395329D01*
X68996107Y-65411393D01*
X69012171Y-65429117D01*
X69026421Y-65448330D01*
X69038718Y-65468847D01*
X69048946Y-65490471D01*
X69057004Y-65512993D01*
X69062816Y-65536197D01*
X69066326Y-65559858D01*
X69067500Y-65583750D01*
X69067500Y-66496250D01*
X69066326Y-66520142D01*
X69062816Y-66543803D01*
X69057004Y-66567007D01*
X69048946Y-66589529D01*
X69038718Y-66611153D01*
X69026421Y-66631670D01*
X69012171Y-66650883D01*
X68996107Y-66668607D01*
X68978383Y-66684671D01*
X68959170Y-66698921D01*
X68938653Y-66711218D01*
X68917029Y-66721446D01*
X68894507Y-66729504D01*
X68871303Y-66735316D01*
X68847642Y-66738826D01*
X68823750Y-66740000D01*
X68336250Y-66740000D01*
X68312358Y-66738826D01*
X68288697Y-66735316D01*
X68265493Y-66729504D01*
X68242971Y-66721446D01*
X68221347Y-66711218D01*
X68200830Y-66698921D01*
X68181617Y-66684671D01*
X68163893Y-66668607D01*
X68147829Y-66650883D01*
X68133579Y-66631670D01*
X68121282Y-66611153D01*
X68111054Y-66589529D01*
X68102996Y-66567007D01*
X68097184Y-66543803D01*
X68093674Y-66520142D01*
X68092500Y-66496250D01*
X68092500Y-65583750D01*
X68093674Y-65559858D01*
X68097184Y-65536197D01*
X68102996Y-65512993D01*
X68111054Y-65490471D01*
X68121282Y-65468847D01*
X68133579Y-65448330D01*
X68147829Y-65429117D01*
X68163893Y-65411393D01*
X68181617Y-65395329D01*
X68200830Y-65381079D01*
X68221347Y-65368782D01*
X68242971Y-65358554D01*
X68265493Y-65350496D01*
X68288697Y-65344684D01*
X68312358Y-65341174D01*
X68336250Y-65340000D01*
X68823750Y-65340000D01*
X68847642Y-65341174D01*
X68847642Y-65341174D01*
G37*
D13*
X68580000Y-66040000D03*
D10*
G36*
X70722642Y-65341174D02*
G01*
X70746303Y-65344684D01*
X70769507Y-65350496D01*
X70792029Y-65358554D01*
X70813653Y-65368782D01*
X70834170Y-65381079D01*
X70853383Y-65395329D01*
X70871107Y-65411393D01*
X70887171Y-65429117D01*
X70901421Y-65448330D01*
X70913718Y-65468847D01*
X70923946Y-65490471D01*
X70932004Y-65512993D01*
X70937816Y-65536197D01*
X70941326Y-65559858D01*
X70942500Y-65583750D01*
X70942500Y-66496250D01*
X70941326Y-66520142D01*
X70937816Y-66543803D01*
X70932004Y-66567007D01*
X70923946Y-66589529D01*
X70913718Y-66611153D01*
X70901421Y-66631670D01*
X70887171Y-66650883D01*
X70871107Y-66668607D01*
X70853383Y-66684671D01*
X70834170Y-66698921D01*
X70813653Y-66711218D01*
X70792029Y-66721446D01*
X70769507Y-66729504D01*
X70746303Y-66735316D01*
X70722642Y-66738826D01*
X70698750Y-66740000D01*
X70211250Y-66740000D01*
X70187358Y-66738826D01*
X70163697Y-66735316D01*
X70140493Y-66729504D01*
X70117971Y-66721446D01*
X70096347Y-66711218D01*
X70075830Y-66698921D01*
X70056617Y-66684671D01*
X70038893Y-66668607D01*
X70022829Y-66650883D01*
X70008579Y-66631670D01*
X69996282Y-66611153D01*
X69986054Y-66589529D01*
X69977996Y-66567007D01*
X69972184Y-66543803D01*
X69968674Y-66520142D01*
X69967500Y-66496250D01*
X69967500Y-65583750D01*
X69968674Y-65559858D01*
X69972184Y-65536197D01*
X69977996Y-65512993D01*
X69986054Y-65490471D01*
X69996282Y-65468847D01*
X70008579Y-65448330D01*
X70022829Y-65429117D01*
X70038893Y-65411393D01*
X70056617Y-65395329D01*
X70075830Y-65381079D01*
X70096347Y-65368782D01*
X70117971Y-65358554D01*
X70140493Y-65350496D01*
X70163697Y-65344684D01*
X70187358Y-65341174D01*
X70211250Y-65340000D01*
X70698750Y-65340000D01*
X70722642Y-65341174D01*
X70722642Y-65341174D01*
G37*
D13*
X70455000Y-66040000D03*
M02*
