G04 #@! TF.GenerationSoftware,KiCad,Pcbnew,5.1.4+dfsg1-1*
G04 #@! TF.CreationDate,2020-04-17T13:06:51+02:00*
G04 #@! TF.ProjectId,Transceiver,5472616e-7363-4656-9976-65722e6b6963,rev?*
G04 #@! TF.SameCoordinates,Original*
G04 #@! TF.FileFunction,Legend,Top*
G04 #@! TF.FilePolarity,Positive*
%FSLAX46Y46*%
G04 Gerber Fmt 4.6, Leading zero omitted, Abs format (unit mm)*
G04 Created by KiCad (PCBNEW 5.1.4+dfsg1-1) date 2020-04-17 13:06:51*
%MOMM*%
%LPD*%
G04 APERTURE LIST*
%ADD10C,0.150000*%
%ADD11C,0.300000*%
%ADD12C,0.120000*%
%ADD13C,0.200000*%
%ADD14C,0.400000*%
G04 APERTURE END LIST*
D10*
X123650952Y-145502380D02*
X123650952Y-146216666D01*
X123603333Y-146359523D01*
X123508095Y-146454761D01*
X123365238Y-146502380D01*
X123270000Y-146502380D01*
X124603333Y-146502380D02*
X124127142Y-146502380D01*
X124127142Y-145502380D01*
X125508095Y-146407142D02*
X125460476Y-146454761D01*
X125317619Y-146502380D01*
X125222380Y-146502380D01*
X125079523Y-146454761D01*
X124984285Y-146359523D01*
X124936666Y-146264285D01*
X124889047Y-146073809D01*
X124889047Y-145930952D01*
X124936666Y-145740476D01*
X124984285Y-145645238D01*
X125079523Y-145550000D01*
X125222380Y-145502380D01*
X125317619Y-145502380D01*
X125460476Y-145550000D01*
X125508095Y-145597619D01*
X126222380Y-145502380D02*
X126222380Y-146216666D01*
X126174761Y-146359523D01*
X126079523Y-146454761D01*
X125936666Y-146502380D01*
X125841428Y-146502380D01*
X127174761Y-146502380D02*
X126698571Y-146502380D01*
X126698571Y-145502380D01*
X128079523Y-146407142D02*
X128031904Y-146454761D01*
X127889047Y-146502380D01*
X127793809Y-146502380D01*
X127650952Y-146454761D01*
X127555714Y-146359523D01*
X127508095Y-146264285D01*
X127460476Y-146073809D01*
X127460476Y-145930952D01*
X127508095Y-145740476D01*
X127555714Y-145645238D01*
X127650952Y-145550000D01*
X127793809Y-145502380D01*
X127889047Y-145502380D01*
X128031904Y-145550000D01*
X128079523Y-145597619D01*
X128793809Y-145502380D02*
X128793809Y-146216666D01*
X128746190Y-146359523D01*
X128650952Y-146454761D01*
X128508095Y-146502380D01*
X128412857Y-146502380D01*
X129746190Y-146502380D02*
X129270000Y-146502380D01*
X129270000Y-145502380D01*
X130650952Y-146407142D02*
X130603333Y-146454761D01*
X130460476Y-146502380D01*
X130365238Y-146502380D01*
X130222380Y-146454761D01*
X130127142Y-146359523D01*
X130079523Y-146264285D01*
X130031904Y-146073809D01*
X130031904Y-145930952D01*
X130079523Y-145740476D01*
X130127142Y-145645238D01*
X130222380Y-145550000D01*
X130365238Y-145502380D01*
X130460476Y-145502380D01*
X130603333Y-145550000D01*
X130650952Y-145597619D01*
X131365238Y-145502380D02*
X131365238Y-146216666D01*
X131317619Y-146359523D01*
X131222380Y-146454761D01*
X131079523Y-146502380D01*
X130984285Y-146502380D01*
X132317619Y-146502380D02*
X131841428Y-146502380D01*
X131841428Y-145502380D01*
X133222380Y-146407142D02*
X133174761Y-146454761D01*
X133031904Y-146502380D01*
X132936666Y-146502380D01*
X132793809Y-146454761D01*
X132698571Y-146359523D01*
X132650952Y-146264285D01*
X132603333Y-146073809D01*
X132603333Y-145930952D01*
X132650952Y-145740476D01*
X132698571Y-145645238D01*
X132793809Y-145550000D01*
X132936666Y-145502380D01*
X133031904Y-145502380D01*
X133174761Y-145550000D01*
X133222380Y-145597619D01*
D11*
X137164285Y-121892142D02*
X137378571Y-121963571D01*
X137735714Y-121963571D01*
X137878571Y-121892142D01*
X137950000Y-121820714D01*
X138021428Y-121677857D01*
X138021428Y-121535000D01*
X137950000Y-121392142D01*
X137878571Y-121320714D01*
X137735714Y-121249285D01*
X137450000Y-121177857D01*
X137307142Y-121106428D01*
X137235714Y-121035000D01*
X137164285Y-120892142D01*
X137164285Y-120749285D01*
X137235714Y-120606428D01*
X137307142Y-120535000D01*
X137450000Y-120463571D01*
X137807142Y-120463571D01*
X138021428Y-120535000D01*
X138664285Y-121963571D02*
X138664285Y-120463571D01*
X139021428Y-120463571D01*
X139235714Y-120535000D01*
X139378571Y-120677857D01*
X139450000Y-120820714D01*
X139521428Y-121106428D01*
X139521428Y-121320714D01*
X139450000Y-121606428D01*
X139378571Y-121749285D01*
X139235714Y-121892142D01*
X139021428Y-121963571D01*
X138664285Y-121963571D01*
X140092857Y-121535000D02*
X140807142Y-121535000D01*
X139950000Y-121963571D02*
X140450000Y-120463571D01*
X140950000Y-121963571D01*
X142235714Y-121963571D02*
X141378571Y-121963571D01*
X141807142Y-121963571D02*
X141807142Y-120463571D01*
X141664285Y-120677857D01*
X141521428Y-120820714D01*
X141378571Y-120892142D01*
X141997857Y-125615000D02*
X141855000Y-125543571D01*
X141640714Y-125543571D01*
X141426428Y-125615000D01*
X141283571Y-125757857D01*
X141212142Y-125900714D01*
X141140714Y-126186428D01*
X141140714Y-126400714D01*
X141212142Y-126686428D01*
X141283571Y-126829285D01*
X141426428Y-126972142D01*
X141640714Y-127043571D01*
X141783571Y-127043571D01*
X141997857Y-126972142D01*
X142069285Y-126900714D01*
X142069285Y-126400714D01*
X141783571Y-126400714D01*
X141105000Y-123003571D02*
X142033571Y-123003571D01*
X141533571Y-123575000D01*
X141747857Y-123575000D01*
X141890714Y-123646428D01*
X141962142Y-123717857D01*
X142033571Y-123860714D01*
X142033571Y-124217857D01*
X141962142Y-124360714D01*
X141890714Y-124432142D01*
X141747857Y-124503571D01*
X141319285Y-124503571D01*
X141176428Y-124432142D01*
X141105000Y-124360714D01*
X137200000Y-119352142D02*
X137414285Y-119423571D01*
X137771428Y-119423571D01*
X137914285Y-119352142D01*
X137985714Y-119280714D01*
X138057142Y-119137857D01*
X138057142Y-118995000D01*
X137985714Y-118852142D01*
X137914285Y-118780714D01*
X137771428Y-118709285D01*
X137485714Y-118637857D01*
X137342857Y-118566428D01*
X137271428Y-118495000D01*
X137200000Y-118352142D01*
X137200000Y-118209285D01*
X137271428Y-118066428D01*
X137342857Y-117995000D01*
X137485714Y-117923571D01*
X137842857Y-117923571D01*
X138057142Y-117995000D01*
X139557142Y-119280714D02*
X139485714Y-119352142D01*
X139271428Y-119423571D01*
X139128571Y-119423571D01*
X138914285Y-119352142D01*
X138771428Y-119209285D01*
X138700000Y-119066428D01*
X138628571Y-118780714D01*
X138628571Y-118566428D01*
X138700000Y-118280714D01*
X138771428Y-118137857D01*
X138914285Y-117995000D01*
X139128571Y-117923571D01*
X139271428Y-117923571D01*
X139485714Y-117995000D01*
X139557142Y-118066428D01*
X140914285Y-119423571D02*
X140200000Y-119423571D01*
X140200000Y-117923571D01*
X142200000Y-119423571D02*
X141342857Y-119423571D01*
X141771428Y-119423571D02*
X141771428Y-117923571D01*
X141628571Y-118137857D01*
X141485714Y-118280714D01*
X141342857Y-118352142D01*
D10*
X59902619Y-101362380D02*
X59902619Y-101552857D01*
X59950238Y-101648095D01*
X59997857Y-101695714D01*
X60140714Y-101790952D01*
X60331190Y-101838571D01*
X60712142Y-101838571D01*
X60807380Y-101790952D01*
X60855000Y-101743333D01*
X60902619Y-101648095D01*
X60902619Y-101457619D01*
X60855000Y-101362380D01*
X60807380Y-101314761D01*
X60712142Y-101267142D01*
X60474047Y-101267142D01*
X60378809Y-101314761D01*
X60331190Y-101362380D01*
X60283571Y-101457619D01*
X60283571Y-101648095D01*
X60331190Y-101743333D01*
X60378809Y-101790952D01*
X60474047Y-101838571D01*
X60902619Y-102457619D02*
X60902619Y-102552857D01*
X60855000Y-102648095D01*
X60807380Y-102695714D01*
X60712142Y-102743333D01*
X60521666Y-102790952D01*
X60283571Y-102790952D01*
X60093095Y-102743333D01*
X59997857Y-102695714D01*
X59950238Y-102648095D01*
X59902619Y-102552857D01*
X59902619Y-102457619D01*
X59950238Y-102362380D01*
X59997857Y-102314761D01*
X60093095Y-102267142D01*
X60283571Y-102219523D01*
X60521666Y-102219523D01*
X60712142Y-102267142D01*
X60807380Y-102314761D01*
X60855000Y-102362380D01*
X60902619Y-102457619D01*
X59950238Y-103267142D02*
X59902619Y-103267142D01*
X59807380Y-103219523D01*
X59759761Y-103171904D01*
X59902619Y-104219523D02*
X59902619Y-103648095D01*
X59902619Y-103933809D02*
X60902619Y-103933809D01*
X60759761Y-103838571D01*
X60664523Y-103743333D01*
X60616904Y-103648095D01*
X60902619Y-104552857D02*
X60902619Y-105219523D01*
X59902619Y-104790952D01*
X60902619Y-105790952D02*
X60902619Y-105886190D01*
X60855000Y-105981428D01*
X60807380Y-106029047D01*
X60712142Y-106076666D01*
X60521666Y-106124285D01*
X60283571Y-106124285D01*
X60093095Y-106076666D01*
X59997857Y-106029047D01*
X59950238Y-105981428D01*
X59902619Y-105886190D01*
X59902619Y-105790952D01*
X59950238Y-105695714D01*
X59997857Y-105648095D01*
X60093095Y-105600476D01*
X60283571Y-105552857D01*
X60521666Y-105552857D01*
X60712142Y-105600476D01*
X60807380Y-105648095D01*
X60855000Y-105695714D01*
X60902619Y-105790952D01*
X59902619Y-107314761D02*
X60569285Y-107314761D01*
X60474047Y-107314761D02*
X60521666Y-107362380D01*
X60569285Y-107457619D01*
X60569285Y-107600476D01*
X60521666Y-107695714D01*
X60426428Y-107743333D01*
X59902619Y-107743333D01*
X60426428Y-107743333D02*
X60521666Y-107790952D01*
X60569285Y-107886190D01*
X60569285Y-108029047D01*
X60521666Y-108124285D01*
X60426428Y-108171904D01*
X59902619Y-108171904D01*
X59902619Y-108648095D02*
X60569285Y-108648095D01*
X60474047Y-108648095D02*
X60521666Y-108695714D01*
X60569285Y-108790952D01*
X60569285Y-108933809D01*
X60521666Y-109029047D01*
X60426428Y-109076666D01*
X59902619Y-109076666D01*
X60426428Y-109076666D02*
X60521666Y-109124285D01*
X60569285Y-109219523D01*
X60569285Y-109362380D01*
X60521666Y-109457619D01*
X60426428Y-109505238D01*
X59902619Y-109505238D01*
X59055000Y-60325000D02*
X59055000Y-150495000D01*
X53975000Y-60325000D02*
X59641421Y-60325000D01*
X53975000Y-150495000D02*
X59641421Y-150495000D01*
X59055000Y-150495000D02*
X58468579Y-149368496D01*
X59055000Y-150495000D02*
X59641421Y-149368496D01*
X59055000Y-60325000D02*
X58468579Y-61451504D01*
X59055000Y-60325000D02*
X59641421Y-61451504D01*
D11*
X141105000Y-138243571D02*
X142033571Y-138243571D01*
X141533571Y-138815000D01*
X141747857Y-138815000D01*
X141890714Y-138886428D01*
X141962142Y-138957857D01*
X142033571Y-139100714D01*
X142033571Y-139457857D01*
X141962142Y-139600714D01*
X141890714Y-139672142D01*
X141747857Y-139743571D01*
X141319285Y-139743571D01*
X141176428Y-139672142D01*
X141105000Y-139600714D01*
X141997857Y-140855000D02*
X141855000Y-140783571D01*
X141640714Y-140783571D01*
X141426428Y-140855000D01*
X141283571Y-140997857D01*
X141212142Y-141140714D01*
X141140714Y-141426428D01*
X141140714Y-141640714D01*
X141212142Y-141926428D01*
X141283571Y-142069285D01*
X141426428Y-142212142D01*
X141640714Y-142283571D01*
X141783571Y-142283571D01*
X141997857Y-142212142D01*
X142069285Y-142140714D01*
X142069285Y-141640714D01*
X141783571Y-141640714D01*
X99508571Y-125047142D02*
X99508571Y-124118571D01*
X100080000Y-124618571D01*
X100080000Y-124404285D01*
X100151428Y-124261428D01*
X100222857Y-124190000D01*
X100365714Y-124118571D01*
X100722857Y-124118571D01*
X100865714Y-124190000D01*
X100937142Y-124261428D01*
X101008571Y-124404285D01*
X101008571Y-124832857D01*
X100937142Y-124975714D01*
X100865714Y-125047142D01*
X99508571Y-123690000D02*
X101008571Y-123190000D01*
X99508571Y-122690000D01*
X99508571Y-122332857D02*
X99508571Y-121404285D01*
X100080000Y-121904285D01*
X100080000Y-121690000D01*
X100151428Y-121547142D01*
X100222857Y-121475714D01*
X100365714Y-121404285D01*
X100722857Y-121404285D01*
X100865714Y-121475714D01*
X100937142Y-121547142D01*
X101008571Y-121690000D01*
X101008571Y-122118571D01*
X100937142Y-122261428D01*
X100865714Y-122332857D01*
X94428571Y-124110714D02*
X94428571Y-124825000D01*
X95142857Y-124896428D01*
X95071428Y-124825000D01*
X95000000Y-124682142D01*
X95000000Y-124325000D01*
X95071428Y-124182142D01*
X95142857Y-124110714D01*
X95285714Y-124039285D01*
X95642857Y-124039285D01*
X95785714Y-124110714D01*
X95857142Y-124182142D01*
X95928571Y-124325000D01*
X95928571Y-124682142D01*
X95857142Y-124825000D01*
X95785714Y-124896428D01*
X94428571Y-123610714D02*
X95928571Y-123110714D01*
X94428571Y-122610714D01*
X97040000Y-124067142D02*
X96968571Y-124210000D01*
X96968571Y-124424285D01*
X97040000Y-124638571D01*
X97182857Y-124781428D01*
X97325714Y-124852857D01*
X97611428Y-124924285D01*
X97825714Y-124924285D01*
X98111428Y-124852857D01*
X98254285Y-124781428D01*
X98397142Y-124638571D01*
X98468571Y-124424285D01*
X98468571Y-124281428D01*
X98397142Y-124067142D01*
X98325714Y-123995714D01*
X97825714Y-123995714D01*
X97825714Y-124281428D01*
X60082857Y-62750000D02*
X59940000Y-62678571D01*
X59725714Y-62678571D01*
X59511428Y-62750000D01*
X59368571Y-62892857D01*
X59297142Y-63035714D01*
X59225714Y-63321428D01*
X59225714Y-63535714D01*
X59297142Y-63821428D01*
X59368571Y-63964285D01*
X59511428Y-64107142D01*
X59725714Y-64178571D01*
X59868571Y-64178571D01*
X60082857Y-64107142D01*
X60154285Y-64035714D01*
X60154285Y-63535714D01*
X59868571Y-63535714D01*
X60082857Y-58305000D02*
X59940000Y-58233571D01*
X59725714Y-58233571D01*
X59511428Y-58305000D01*
X59368571Y-58447857D01*
X59297142Y-58590714D01*
X59225714Y-58876428D01*
X59225714Y-59090714D01*
X59297142Y-59376428D01*
X59368571Y-59519285D01*
X59511428Y-59662142D01*
X59725714Y-59733571D01*
X59868571Y-59733571D01*
X60082857Y-59662142D01*
X60154285Y-59590714D01*
X60154285Y-59090714D01*
X59868571Y-59090714D01*
X60154285Y-66718571D02*
X59654285Y-66004285D01*
X59297142Y-66718571D02*
X59297142Y-65218571D01*
X59868571Y-65218571D01*
X60011428Y-65290000D01*
X60082857Y-65361428D01*
X60154285Y-65504285D01*
X60154285Y-65718571D01*
X60082857Y-65861428D01*
X60011428Y-65932857D01*
X59868571Y-66004285D01*
X59297142Y-66004285D01*
X60154285Y-61638571D02*
X59440000Y-61638571D01*
X59440000Y-60138571D01*
D12*
X116205000Y-85090000D02*
X121920000Y-84455000D01*
X119380000Y-102235000D02*
X120015000Y-101600000D01*
X119380000Y-101600000D02*
X119380000Y-102235000D01*
X119380000Y-102235000D02*
X119380000Y-101600000D01*
X120650000Y-99695000D02*
X119380000Y-102235000D01*
X123190000Y-95885000D02*
X118110000Y-95885000D01*
X123190000Y-99695000D02*
X123190000Y-95885000D01*
X118110000Y-99695000D02*
X123190000Y-99695000D01*
X118110000Y-95885000D02*
X118110000Y-99695000D01*
D13*
X109922857Y-147302857D02*
X110137142Y-147374285D01*
X110208571Y-147445714D01*
X110280000Y-147588571D01*
X110280000Y-147802857D01*
X110208571Y-147945714D01*
X110137142Y-148017142D01*
X109994285Y-148088571D01*
X109422857Y-148088571D01*
X109422857Y-146588571D01*
X109922857Y-146588571D01*
X110065714Y-146660000D01*
X110137142Y-146731428D01*
X110208571Y-146874285D01*
X110208571Y-147017142D01*
X110137142Y-147160000D01*
X110065714Y-147231428D01*
X109922857Y-147302857D01*
X109422857Y-147302857D01*
X111565714Y-148088571D02*
X111565714Y-147302857D01*
X111494285Y-147160000D01*
X111351428Y-147088571D01*
X111065714Y-147088571D01*
X110922857Y-147160000D01*
X111565714Y-148017142D02*
X111422857Y-148088571D01*
X111065714Y-148088571D01*
X110922857Y-148017142D01*
X110851428Y-147874285D01*
X110851428Y-147731428D01*
X110922857Y-147588571D01*
X111065714Y-147517142D01*
X111422857Y-147517142D01*
X111565714Y-147445714D01*
X112065714Y-147088571D02*
X112637142Y-147088571D01*
X112280000Y-146588571D02*
X112280000Y-147874285D01*
X112351428Y-148017142D01*
X112494285Y-148088571D01*
X112637142Y-148088571D01*
X112922857Y-147088571D02*
X113494285Y-147088571D01*
X113137142Y-146588571D02*
X113137142Y-147874285D01*
X113208571Y-148017142D01*
X113351428Y-148088571D01*
X113494285Y-148088571D01*
X114565714Y-148017142D02*
X114422857Y-148088571D01*
X114137142Y-148088571D01*
X113994285Y-148017142D01*
X113922857Y-147874285D01*
X113922857Y-147302857D01*
X113994285Y-147160000D01*
X114137142Y-147088571D01*
X114422857Y-147088571D01*
X114565714Y-147160000D01*
X114637142Y-147302857D01*
X114637142Y-147445714D01*
X113922857Y-147588571D01*
X115280000Y-148088571D02*
X115280000Y-147088571D01*
X115280000Y-147374285D02*
X115351428Y-147231428D01*
X115422857Y-147160000D01*
X115565714Y-147088571D01*
X115708571Y-147088571D01*
X116065714Y-147088571D02*
X116422857Y-148088571D01*
X116780000Y-147088571D02*
X116422857Y-148088571D01*
X116280000Y-148445714D01*
X116208571Y-148517142D01*
X116065714Y-148588571D01*
X109887142Y-150395714D02*
X109815714Y-150467142D01*
X109601428Y-150538571D01*
X109458571Y-150538571D01*
X109244285Y-150467142D01*
X109101428Y-150324285D01*
X109030000Y-150181428D01*
X108958571Y-149895714D01*
X108958571Y-149681428D01*
X109030000Y-149395714D01*
X109101428Y-149252857D01*
X109244285Y-149110000D01*
X109458571Y-149038571D01*
X109601428Y-149038571D01*
X109815714Y-149110000D01*
X109887142Y-149181428D01*
X111387142Y-150538571D02*
X110887142Y-149824285D01*
X110530000Y-150538571D02*
X110530000Y-149038571D01*
X111101428Y-149038571D01*
X111244285Y-149110000D01*
X111315714Y-149181428D01*
X111387142Y-149324285D01*
X111387142Y-149538571D01*
X111315714Y-149681428D01*
X111244285Y-149752857D01*
X111101428Y-149824285D01*
X110530000Y-149824285D01*
X111958571Y-149181428D02*
X112030000Y-149110000D01*
X112172857Y-149038571D01*
X112530000Y-149038571D01*
X112672857Y-149110000D01*
X112744285Y-149181428D01*
X112815714Y-149324285D01*
X112815714Y-149467142D01*
X112744285Y-149681428D01*
X111887142Y-150538571D01*
X112815714Y-150538571D01*
X113744285Y-149038571D02*
X113887142Y-149038571D01*
X114030000Y-149110000D01*
X114101428Y-149181428D01*
X114172857Y-149324285D01*
X114244285Y-149610000D01*
X114244285Y-149967142D01*
X114172857Y-150252857D01*
X114101428Y-150395714D01*
X114030000Y-150467142D01*
X113887142Y-150538571D01*
X113744285Y-150538571D01*
X113601428Y-150467142D01*
X113530000Y-150395714D01*
X113458571Y-150252857D01*
X113387142Y-149967142D01*
X113387142Y-149610000D01*
X113458571Y-149324285D01*
X113530000Y-149181428D01*
X113601428Y-149110000D01*
X113744285Y-149038571D01*
X114815714Y-149181428D02*
X114887142Y-149110000D01*
X115030000Y-149038571D01*
X115387142Y-149038571D01*
X115530000Y-149110000D01*
X115601428Y-149181428D01*
X115672857Y-149324285D01*
X115672857Y-149467142D01*
X115601428Y-149681428D01*
X114744285Y-150538571D01*
X115672857Y-150538571D01*
X117030000Y-149038571D02*
X116315714Y-149038571D01*
X116244285Y-149752857D01*
X116315714Y-149681428D01*
X116458571Y-149610000D01*
X116815714Y-149610000D01*
X116958571Y-149681428D01*
X117030000Y-149752857D01*
X117101428Y-149895714D01*
X117101428Y-150252857D01*
X117030000Y-150395714D01*
X116958571Y-150467142D01*
X116815714Y-150538571D01*
X116458571Y-150538571D01*
X116315714Y-150467142D01*
X116244285Y-150395714D01*
X109887142Y-152845714D02*
X109815714Y-152917142D01*
X109601428Y-152988571D01*
X109458571Y-152988571D01*
X109244285Y-152917142D01*
X109101428Y-152774285D01*
X109030000Y-152631428D01*
X108958571Y-152345714D01*
X108958571Y-152131428D01*
X109030000Y-151845714D01*
X109101428Y-151702857D01*
X109244285Y-151560000D01*
X109458571Y-151488571D01*
X109601428Y-151488571D01*
X109815714Y-151560000D01*
X109887142Y-151631428D01*
X111387142Y-152988571D02*
X110887142Y-152274285D01*
X110530000Y-152988571D02*
X110530000Y-151488571D01*
X111101428Y-151488571D01*
X111244285Y-151560000D01*
X111315714Y-151631428D01*
X111387142Y-151774285D01*
X111387142Y-151988571D01*
X111315714Y-152131428D01*
X111244285Y-152202857D01*
X111101428Y-152274285D01*
X110530000Y-152274285D01*
X111958571Y-151631428D02*
X112030000Y-151560000D01*
X112172857Y-151488571D01*
X112530000Y-151488571D01*
X112672857Y-151560000D01*
X112744285Y-151631428D01*
X112815714Y-151774285D01*
X112815714Y-151917142D01*
X112744285Y-152131428D01*
X111887142Y-152988571D01*
X112815714Y-152988571D01*
X113744285Y-151488571D02*
X113887142Y-151488571D01*
X114030000Y-151560000D01*
X114101428Y-151631428D01*
X114172857Y-151774285D01*
X114244285Y-152060000D01*
X114244285Y-152417142D01*
X114172857Y-152702857D01*
X114101428Y-152845714D01*
X114030000Y-152917142D01*
X113887142Y-152988571D01*
X113744285Y-152988571D01*
X113601428Y-152917142D01*
X113530000Y-152845714D01*
X113458571Y-152702857D01*
X113387142Y-152417142D01*
X113387142Y-152060000D01*
X113458571Y-151774285D01*
X113530000Y-151631428D01*
X113601428Y-151560000D01*
X113744285Y-151488571D01*
X114744285Y-151488571D02*
X115672857Y-151488571D01*
X115172857Y-152060000D01*
X115387142Y-152060000D01*
X115530000Y-152131428D01*
X115601428Y-152202857D01*
X115672857Y-152345714D01*
X115672857Y-152702857D01*
X115601428Y-152845714D01*
X115530000Y-152917142D01*
X115387142Y-152988571D01*
X114958571Y-152988571D01*
X114815714Y-152917142D01*
X114744285Y-152845714D01*
X116244285Y-151631428D02*
X116315714Y-151560000D01*
X116458571Y-151488571D01*
X116815714Y-151488571D01*
X116958571Y-151560000D01*
X117030000Y-151631428D01*
X117101428Y-151774285D01*
X117101428Y-151917142D01*
X117030000Y-152131428D01*
X116172857Y-152988571D01*
X117101428Y-152988571D01*
D11*
X56328571Y-147907142D02*
X56328571Y-146978571D01*
X56900000Y-147478571D01*
X56900000Y-147264285D01*
X56971428Y-147121428D01*
X57042857Y-147050000D01*
X57185714Y-146978571D01*
X57542857Y-146978571D01*
X57685714Y-147050000D01*
X57757142Y-147121428D01*
X57828571Y-147264285D01*
X57828571Y-147692857D01*
X57757142Y-147835714D01*
X57685714Y-147907142D01*
X56328571Y-146550000D02*
X57828571Y-146050000D01*
X56328571Y-145550000D01*
X56328571Y-145192857D02*
X56328571Y-144264285D01*
X56900000Y-144764285D01*
X56900000Y-144550000D01*
X56971428Y-144407142D01*
X57042857Y-144335714D01*
X57185714Y-144264285D01*
X57542857Y-144264285D01*
X57685714Y-144335714D01*
X57757142Y-144407142D01*
X57828571Y-144550000D01*
X57828571Y-144978571D01*
X57757142Y-145121428D01*
X57685714Y-145192857D01*
X53860000Y-144387142D02*
X53788571Y-144530000D01*
X53788571Y-144744285D01*
X53860000Y-144958571D01*
X54002857Y-145101428D01*
X54145714Y-145172857D01*
X54431428Y-145244285D01*
X54645714Y-145244285D01*
X54931428Y-145172857D01*
X55074285Y-145101428D01*
X55217142Y-144958571D01*
X55288571Y-144744285D01*
X55288571Y-144601428D01*
X55217142Y-144387142D01*
X55145714Y-144315714D01*
X54645714Y-144315714D01*
X54645714Y-144601428D01*
X51248571Y-145065714D02*
X51248571Y-145780000D01*
X51962857Y-145851428D01*
X51891428Y-145780000D01*
X51820000Y-145637142D01*
X51820000Y-145280000D01*
X51891428Y-145137142D01*
X51962857Y-145065714D01*
X52105714Y-144994285D01*
X52462857Y-144994285D01*
X52605714Y-145065714D01*
X52677142Y-145137142D01*
X52748571Y-145280000D01*
X52748571Y-145637142D01*
X52677142Y-145780000D01*
X52605714Y-145851428D01*
X51248571Y-144565714D02*
X52748571Y-144065714D01*
X51248571Y-143565714D01*
X90848571Y-146871428D02*
X90134285Y-147371428D01*
X90848571Y-147728571D02*
X89348571Y-147728571D01*
X89348571Y-147157142D01*
X89420000Y-147014285D01*
X89491428Y-146942857D01*
X89634285Y-146871428D01*
X89848571Y-146871428D01*
X89991428Y-146942857D01*
X90062857Y-147014285D01*
X90134285Y-147157142D01*
X90134285Y-147728571D01*
X90777142Y-146300000D02*
X90848571Y-146085714D01*
X90848571Y-145728571D01*
X90777142Y-145585714D01*
X90705714Y-145514285D01*
X90562857Y-145442857D01*
X90420000Y-145442857D01*
X90277142Y-145514285D01*
X90205714Y-145585714D01*
X90134285Y-145728571D01*
X90062857Y-146014285D01*
X89991428Y-146157142D01*
X89920000Y-146228571D01*
X89777142Y-146300000D01*
X89634285Y-146300000D01*
X89491428Y-146228571D01*
X89420000Y-146157142D01*
X89348571Y-146014285D01*
X89348571Y-145657142D01*
X89420000Y-145442857D01*
X89348571Y-145014285D02*
X89348571Y-144157142D01*
X90848571Y-144585714D02*
X89348571Y-144585714D01*
D14*
X59533333Y-132124761D02*
X59533333Y-130124761D01*
X60199999Y-131553333D01*
X60866666Y-130124761D01*
X60866666Y-132124761D01*
X61819047Y-132124761D02*
X61819047Y-130791428D01*
X61819047Y-130124761D02*
X61723809Y-130220000D01*
X61819047Y-130315238D01*
X61914285Y-130220000D01*
X61819047Y-130124761D01*
X61819047Y-130315238D01*
X62771428Y-130791428D02*
X62771428Y-132124761D01*
X62771428Y-130981904D02*
X62866666Y-130886666D01*
X63057142Y-130791428D01*
X63342857Y-130791428D01*
X63533333Y-130886666D01*
X63628571Y-131077142D01*
X63628571Y-132124761D01*
X64580952Y-132124761D02*
X64580952Y-130791428D01*
X64580952Y-130124761D02*
X64485714Y-130220000D01*
X64580952Y-130315238D01*
X64676190Y-130220000D01*
X64580952Y-130124761D01*
X64580952Y-130315238D01*
X66199999Y-131077142D02*
X65533333Y-131077142D01*
X65533333Y-132124761D02*
X65533333Y-130124761D01*
X66485714Y-130124761D01*
X68104761Y-130791428D02*
X68104761Y-132124761D01*
X67628571Y-130029523D02*
X67152380Y-131458095D01*
X68390476Y-131458095D01*
X72104761Y-130029523D02*
X70390476Y-132600952D01*
X74104761Y-130124761D02*
X74580952Y-132124761D01*
X74961904Y-130696190D01*
X75342857Y-132124761D01*
X75819047Y-130124761D01*
X77342857Y-132029523D02*
X77152380Y-132124761D01*
X76771428Y-132124761D01*
X76580952Y-132029523D01*
X76485714Y-131839047D01*
X76485714Y-131077142D01*
X76580952Y-130886666D01*
X76771428Y-130791428D01*
X77152380Y-130791428D01*
X77342857Y-130886666D01*
X77438095Y-131077142D01*
X77438095Y-131267619D01*
X76485714Y-131458095D01*
X78199999Y-131553333D02*
X79152380Y-131553333D01*
X78009523Y-132124761D02*
X78676190Y-130124761D01*
X79342857Y-132124761D01*
X80866666Y-132029523D02*
X80676190Y-132124761D01*
X80295238Y-132124761D01*
X80104761Y-132029523D01*
X80009523Y-131934285D01*
X79914285Y-131743809D01*
X79914285Y-131172380D01*
X80009523Y-130981904D01*
X80104761Y-130886666D01*
X80295238Y-130791428D01*
X80676190Y-130791428D01*
X80866666Y-130886666D01*
X81438095Y-130791428D02*
X82199999Y-130791428D01*
X81723809Y-130124761D02*
X81723809Y-131839047D01*
X81819047Y-132029523D01*
X82009523Y-132124761D01*
X82199999Y-132124761D01*
X84295238Y-132029523D02*
X84580952Y-132124761D01*
X85057142Y-132124761D01*
X85247619Y-132029523D01*
X85342857Y-131934285D01*
X85438095Y-131743809D01*
X85438095Y-131553333D01*
X85342857Y-131362857D01*
X85247619Y-131267619D01*
X85057142Y-131172380D01*
X84676190Y-131077142D01*
X84485714Y-130981904D01*
X84390476Y-130886666D01*
X84295238Y-130696190D01*
X84295238Y-130505714D01*
X84390476Y-130315238D01*
X84485714Y-130220000D01*
X84676190Y-130124761D01*
X85152380Y-130124761D01*
X85438095Y-130220000D01*
X86009523Y-130791428D02*
X86771428Y-130791428D01*
X86295238Y-130124761D02*
X86295238Y-131839047D01*
X86390476Y-132029523D01*
X86580952Y-132124761D01*
X86771428Y-132124761D01*
X88295238Y-130791428D02*
X88295238Y-132124761D01*
X87438095Y-130791428D02*
X87438095Y-131839047D01*
X87533333Y-132029523D01*
X87723809Y-132124761D01*
X88009523Y-132124761D01*
X88199999Y-132029523D01*
X88295238Y-131934285D01*
X90104761Y-132124761D02*
X90104761Y-130124761D01*
X90104761Y-132029523D02*
X89914285Y-132124761D01*
X89533333Y-132124761D01*
X89342857Y-132029523D01*
X89247619Y-131934285D01*
X89152380Y-131743809D01*
X89152380Y-131172380D01*
X89247619Y-130981904D01*
X89342857Y-130886666D01*
X89533333Y-130791428D01*
X89914285Y-130791428D01*
X90104761Y-130886666D01*
X91057142Y-132124761D02*
X91057142Y-130791428D01*
X91057142Y-130124761D02*
X90961904Y-130220000D01*
X91057142Y-130315238D01*
X91152380Y-130220000D01*
X91057142Y-130124761D01*
X91057142Y-130315238D01*
X92295238Y-132124761D02*
X92104761Y-132029523D01*
X92009523Y-131934285D01*
X91914285Y-131743809D01*
X91914285Y-131172380D01*
X92009523Y-130981904D01*
X92104761Y-130886666D01*
X92295238Y-130791428D01*
X92580952Y-130791428D01*
X92771428Y-130886666D01*
X92866666Y-130981904D01*
X92961904Y-131172380D01*
X92961904Y-131743809D01*
X92866666Y-131934285D01*
X92771428Y-132029523D01*
X92580952Y-132124761D01*
X92295238Y-132124761D01*
X55580952Y-135524761D02*
X54914285Y-134572380D01*
X54438095Y-135524761D02*
X54438095Y-133524761D01*
X55200000Y-133524761D01*
X55390476Y-133620000D01*
X55485714Y-133715238D01*
X55580952Y-133905714D01*
X55580952Y-134191428D01*
X55485714Y-134381904D01*
X55390476Y-134477142D01*
X55200000Y-134572380D01*
X54438095Y-134572380D01*
X56438095Y-134477142D02*
X57104761Y-134477142D01*
X57390476Y-135524761D02*
X56438095Y-135524761D01*
X56438095Y-133524761D01*
X57390476Y-133524761D01*
X59390476Y-135334285D02*
X59295238Y-135429523D01*
X59009523Y-135524761D01*
X58819047Y-135524761D01*
X58533333Y-135429523D01*
X58342857Y-135239047D01*
X58247619Y-135048571D01*
X58152380Y-134667619D01*
X58152380Y-134381904D01*
X58247619Y-134000952D01*
X58342857Y-133810476D01*
X58533333Y-133620000D01*
X58819047Y-133524761D01*
X59009523Y-133524761D01*
X59295238Y-133620000D01*
X59390476Y-133715238D01*
X60628571Y-133524761D02*
X61009523Y-133524761D01*
X61200000Y-133620000D01*
X61390476Y-133810476D01*
X61485714Y-134191428D01*
X61485714Y-134858095D01*
X61390476Y-135239047D01*
X61200000Y-135429523D01*
X61009523Y-135524761D01*
X60628571Y-135524761D01*
X60438095Y-135429523D01*
X60247619Y-135239047D01*
X60152380Y-134858095D01*
X60152380Y-134191428D01*
X60247619Y-133810476D01*
X60438095Y-133620000D01*
X60628571Y-133524761D01*
X62342857Y-135524761D02*
X62342857Y-133524761D01*
X63009523Y-134953333D01*
X63676190Y-133524761D01*
X63676190Y-135524761D01*
X64628571Y-135524761D02*
X64628571Y-133524761D01*
X65295238Y-134953333D01*
X65961904Y-133524761D01*
X65961904Y-135524761D01*
X66819047Y-134953333D02*
X67771428Y-134953333D01*
X66628571Y-135524761D02*
X67295238Y-133524761D01*
X67961904Y-135524761D01*
X68628571Y-135524761D02*
X68628571Y-133524761D01*
X69771428Y-135524761D01*
X69771428Y-133524761D01*
X70723809Y-135524761D02*
X70723809Y-133524761D01*
X71200000Y-133524761D01*
X71485714Y-133620000D01*
X71676190Y-133810476D01*
X71771428Y-134000952D01*
X71866666Y-134381904D01*
X71866666Y-134667619D01*
X71771428Y-135048571D01*
X71676190Y-135239047D01*
X71485714Y-135429523D01*
X71200000Y-135524761D01*
X70723809Y-135524761D01*
X74152380Y-135429523D02*
X74438095Y-135524761D01*
X74914285Y-135524761D01*
X75104761Y-135429523D01*
X75200000Y-135334285D01*
X75295238Y-135143809D01*
X75295238Y-134953333D01*
X75200000Y-134762857D01*
X75104761Y-134667619D01*
X74914285Y-134572380D01*
X74533333Y-134477142D01*
X74342857Y-134381904D01*
X74247619Y-134286666D01*
X74152380Y-134096190D01*
X74152380Y-133905714D01*
X74247619Y-133715238D01*
X74342857Y-133620000D01*
X74533333Y-133524761D01*
X75009523Y-133524761D01*
X75295238Y-133620000D01*
X75866666Y-133524761D02*
X77009523Y-133524761D01*
X76438095Y-135524761D02*
X76438095Y-133524761D01*
X77676190Y-135524761D02*
X77676190Y-133524761D01*
X78342857Y-134953333D01*
X79009523Y-133524761D01*
X79009523Y-135524761D01*
X79771428Y-133524761D02*
X81009523Y-133524761D01*
X80342857Y-134286666D01*
X80628571Y-134286666D01*
X80819047Y-134381904D01*
X80914285Y-134477142D01*
X81009523Y-134667619D01*
X81009523Y-135143809D01*
X80914285Y-135334285D01*
X80819047Y-135429523D01*
X80628571Y-135524761D01*
X80057142Y-135524761D01*
X79866666Y-135429523D01*
X79771428Y-135334285D01*
X81771428Y-133715238D02*
X81866666Y-133620000D01*
X82057142Y-133524761D01*
X82533333Y-133524761D01*
X82723809Y-133620000D01*
X82819047Y-133715238D01*
X82914285Y-133905714D01*
X82914285Y-134096190D01*
X82819047Y-134381904D01*
X81676190Y-135524761D01*
X82914285Y-135524761D01*
X84438095Y-134477142D02*
X83771428Y-134477142D01*
X83771428Y-135524761D02*
X83771428Y-133524761D01*
X84723809Y-133524761D01*
X86342857Y-134191428D02*
X86342857Y-135524761D01*
X85866666Y-133429523D02*
X85390476Y-134858095D01*
X86628571Y-134858095D01*
X88438095Y-135524761D02*
X87295238Y-135524761D01*
X87866666Y-135524761D02*
X87866666Y-133524761D01*
X87676190Y-133810476D01*
X87485714Y-134000952D01*
X87295238Y-134096190D01*
X90342857Y-135524761D02*
X89199999Y-135524761D01*
X89771428Y-135524761D02*
X89771428Y-133524761D01*
X89580952Y-133810476D01*
X89390476Y-134000952D01*
X89199999Y-134096190D01*
X91009523Y-135524761D02*
X92057142Y-134191428D01*
X91009523Y-134191428D02*
X92057142Y-135524761D01*
X93961904Y-135334285D02*
X93866666Y-135429523D01*
X93580952Y-135524761D01*
X93390476Y-135524761D01*
X93104761Y-135429523D01*
X92914285Y-135239047D01*
X92819047Y-135048571D01*
X92723809Y-134667619D01*
X92723809Y-134381904D01*
X92819047Y-134000952D01*
X92914285Y-133810476D01*
X93104761Y-133620000D01*
X93390476Y-133524761D01*
X93580952Y-133524761D01*
X93866666Y-133620000D01*
X93961904Y-133715238D01*
X96247619Y-133429523D02*
X94533333Y-136000952D01*
X96914285Y-135524761D02*
X96914285Y-133524761D01*
X97390476Y-133524761D01*
X97676190Y-133620000D01*
X97866666Y-133810476D01*
X97961904Y-134000952D01*
X98057142Y-134381904D01*
X98057142Y-134667619D01*
X97961904Y-135048571D01*
X97866666Y-135239047D01*
X97676190Y-135429523D01*
X97390476Y-135524761D01*
X96914285Y-135524761D01*
X58866666Y-137877142D02*
X59152380Y-137972380D01*
X59247619Y-138067619D01*
X59342857Y-138258095D01*
X59342857Y-138543809D01*
X59247619Y-138734285D01*
X59152380Y-138829523D01*
X58961904Y-138924761D01*
X58200000Y-138924761D01*
X58200000Y-136924761D01*
X58866666Y-136924761D01*
X59057142Y-137020000D01*
X59152380Y-137115238D01*
X59247619Y-137305714D01*
X59247619Y-137496190D01*
X59152380Y-137686666D01*
X59057142Y-137781904D01*
X58866666Y-137877142D01*
X58200000Y-137877142D01*
X60200000Y-137877142D02*
X60866666Y-137877142D01*
X61152380Y-138924761D02*
X60200000Y-138924761D01*
X60200000Y-136924761D01*
X61152380Y-136924761D01*
X63438095Y-138353333D02*
X64390476Y-138353333D01*
X63247619Y-138924761D02*
X63914285Y-136924761D01*
X64580952Y-138924761D01*
X65057142Y-136924761D02*
X65533333Y-138924761D01*
X65914285Y-137496190D01*
X66295238Y-138924761D01*
X66771428Y-136924761D01*
X67438095Y-138353333D02*
X68390476Y-138353333D01*
X67247619Y-138924761D02*
X67914285Y-136924761D01*
X68580952Y-138924761D01*
X70390476Y-138924761D02*
X69723809Y-137972380D01*
X69247619Y-138924761D02*
X69247619Y-136924761D01*
X70009523Y-136924761D01*
X70200000Y-137020000D01*
X70295238Y-137115238D01*
X70390476Y-137305714D01*
X70390476Y-137591428D01*
X70295238Y-137781904D01*
X70200000Y-137877142D01*
X70009523Y-137972380D01*
X69247619Y-137972380D01*
X71247619Y-137877142D02*
X71914285Y-137877142D01*
X72200000Y-138924761D02*
X71247619Y-138924761D01*
X71247619Y-136924761D01*
X72200000Y-136924761D01*
X75247619Y-137877142D02*
X75533333Y-137972380D01*
X75628571Y-138067619D01*
X75723809Y-138258095D01*
X75723809Y-138543809D01*
X75628571Y-138734285D01*
X75533333Y-138829523D01*
X75342857Y-138924761D01*
X74580952Y-138924761D01*
X74580952Y-136924761D01*
X75247619Y-136924761D01*
X75438095Y-137020000D01*
X75533333Y-137115238D01*
X75628571Y-137305714D01*
X75628571Y-137496190D01*
X75533333Y-137686666D01*
X75438095Y-137781904D01*
X75247619Y-137877142D01*
X74580952Y-137877142D01*
X76485714Y-138353333D02*
X77438095Y-138353333D01*
X76295238Y-138924761D02*
X76961904Y-136924761D01*
X77628571Y-138924761D01*
X79438095Y-138734285D02*
X79342857Y-138829523D01*
X79057142Y-138924761D01*
X78866666Y-138924761D01*
X78580952Y-138829523D01*
X78390476Y-138639047D01*
X78295238Y-138448571D01*
X78200000Y-138067619D01*
X78200000Y-137781904D01*
X78295238Y-137400952D01*
X78390476Y-137210476D01*
X78580952Y-137020000D01*
X78866666Y-136924761D01*
X79057142Y-136924761D01*
X79342857Y-137020000D01*
X79438095Y-137115238D01*
X80295238Y-138924761D02*
X80295238Y-136924761D01*
X81438095Y-138924761D02*
X80580952Y-137781904D01*
X81438095Y-136924761D02*
X80295238Y-138067619D01*
X84200000Y-136924761D02*
X84580952Y-136924761D01*
X84771428Y-137020000D01*
X84961904Y-137210476D01*
X85057142Y-137591428D01*
X85057142Y-138258095D01*
X84961904Y-138639047D01*
X84771428Y-138829523D01*
X84580952Y-138924761D01*
X84200000Y-138924761D01*
X84009523Y-138829523D01*
X83819047Y-138639047D01*
X83723809Y-138258095D01*
X83723809Y-137591428D01*
X83819047Y-137210476D01*
X84009523Y-137020000D01*
X84200000Y-136924761D01*
X85914285Y-138924761D02*
X85914285Y-136924761D01*
X87057142Y-138924761D01*
X87057142Y-136924761D01*
X89247619Y-136924761D02*
X90390476Y-136924761D01*
X89819047Y-138924761D02*
X89819047Y-136924761D01*
X91438095Y-136924761D02*
X91819047Y-136924761D01*
X92009523Y-137020000D01*
X92199999Y-137210476D01*
X92295238Y-137591428D01*
X92295238Y-138258095D01*
X92199999Y-138639047D01*
X92009523Y-138829523D01*
X91819047Y-138924761D01*
X91438095Y-138924761D01*
X91247619Y-138829523D01*
X91057142Y-138639047D01*
X90961904Y-138258095D01*
X90961904Y-137591428D01*
X91057142Y-137210476D01*
X91247619Y-137020000D01*
X91438095Y-136924761D01*
X93152380Y-138924761D02*
X93152380Y-136924761D01*
X93914285Y-136924761D01*
X94104761Y-137020000D01*
X94199999Y-137115238D01*
X94295238Y-137305714D01*
X94295238Y-137591428D01*
X94199999Y-137781904D01*
X94104761Y-137877142D01*
X93914285Y-137972380D01*
X93152380Y-137972380D01*
D10*
X147502619Y-99392857D02*
X147455000Y-99345238D01*
X147407380Y-99250000D01*
X147407380Y-99011904D01*
X147455000Y-98916666D01*
X147502619Y-98869047D01*
X147597857Y-98821428D01*
X147693095Y-98821428D01*
X147835952Y-98869047D01*
X148407380Y-99440476D01*
X148407380Y-98821428D01*
X147407380Y-98202380D02*
X147407380Y-98107142D01*
X147455000Y-98011904D01*
X147502619Y-97964285D01*
X147597857Y-97916666D01*
X147788333Y-97869047D01*
X148026428Y-97869047D01*
X148216904Y-97916666D01*
X148312142Y-97964285D01*
X148359761Y-98011904D01*
X148407380Y-98107142D01*
X148407380Y-98202380D01*
X148359761Y-98297619D01*
X148312142Y-98345238D01*
X148216904Y-98392857D01*
X148026428Y-98440476D01*
X147788333Y-98440476D01*
X147597857Y-98392857D01*
X147502619Y-98345238D01*
X147455000Y-98297619D01*
X147407380Y-98202380D01*
X148359761Y-97392857D02*
X148407380Y-97392857D01*
X148502619Y-97440476D01*
X148550238Y-97488095D01*
X147407380Y-97059523D02*
X147407380Y-96440476D01*
X147788333Y-96773809D01*
X147788333Y-96630952D01*
X147835952Y-96535714D01*
X147883571Y-96488095D01*
X147978809Y-96440476D01*
X148216904Y-96440476D01*
X148312142Y-96488095D01*
X148359761Y-96535714D01*
X148407380Y-96630952D01*
X148407380Y-96916666D01*
X148359761Y-97011904D01*
X148312142Y-97059523D01*
X147502619Y-96059523D02*
X147455000Y-96011904D01*
X147407380Y-95916666D01*
X147407380Y-95678571D01*
X147455000Y-95583333D01*
X147502619Y-95535714D01*
X147597857Y-95488095D01*
X147693095Y-95488095D01*
X147835952Y-95535714D01*
X148407380Y-96107142D01*
X148407380Y-95488095D01*
X147407380Y-94869047D02*
X147407380Y-94773809D01*
X147455000Y-94678571D01*
X147502619Y-94630952D01*
X147597857Y-94583333D01*
X147788333Y-94535714D01*
X148026428Y-94535714D01*
X148216904Y-94583333D01*
X148312142Y-94630952D01*
X148359761Y-94678571D01*
X148407380Y-94773809D01*
X148407380Y-94869047D01*
X148359761Y-94964285D01*
X148312142Y-95011904D01*
X148216904Y-95059523D01*
X148026428Y-95107142D01*
X147788333Y-95107142D01*
X147597857Y-95059523D01*
X147502619Y-95011904D01*
X147455000Y-94964285D01*
X147407380Y-94869047D01*
X148407380Y-93345238D02*
X147740714Y-93345238D01*
X147835952Y-93345238D02*
X147788333Y-93297619D01*
X147740714Y-93202380D01*
X147740714Y-93059523D01*
X147788333Y-92964285D01*
X147883571Y-92916666D01*
X148407380Y-92916666D01*
X147883571Y-92916666D02*
X147788333Y-92869047D01*
X147740714Y-92773809D01*
X147740714Y-92630952D01*
X147788333Y-92535714D01*
X147883571Y-92488095D01*
X148407380Y-92488095D01*
X148407380Y-92011904D02*
X147740714Y-92011904D01*
X147835952Y-92011904D02*
X147788333Y-91964285D01*
X147740714Y-91869047D01*
X147740714Y-91726190D01*
X147788333Y-91630952D01*
X147883571Y-91583333D01*
X148407380Y-91583333D01*
X147883571Y-91583333D02*
X147788333Y-91535714D01*
X147740714Y-91440476D01*
X147740714Y-91297619D01*
X147788333Y-91202380D01*
X147883571Y-91154761D01*
X148407380Y-91154761D01*
D12*
X146685000Y-105410000D02*
X146685000Y-85090000D01*
X145415000Y-105410000D02*
X147271421Y-105410000D01*
X145415000Y-85090000D02*
X147271421Y-85090000D01*
X146685000Y-85090000D02*
X147271421Y-86216504D01*
X146685000Y-85090000D02*
X146098579Y-86216504D01*
X146685000Y-105410000D02*
X147271421Y-104283496D01*
X146685000Y-105410000D02*
X146098579Y-104283496D01*
D10*
X95012380Y-57094381D02*
X95202857Y-57094381D01*
X95298095Y-57046762D01*
X95345714Y-56999143D01*
X95440952Y-56856286D01*
X95488571Y-56665810D01*
X95488571Y-56284858D01*
X95440952Y-56189620D01*
X95393333Y-56142001D01*
X95298095Y-56094381D01*
X95107619Y-56094381D01*
X95012380Y-56142001D01*
X94964761Y-56189620D01*
X94917142Y-56284858D01*
X94917142Y-56522953D01*
X94964761Y-56618191D01*
X95012380Y-56665810D01*
X95107619Y-56713429D01*
X95298095Y-56713429D01*
X95393333Y-56665810D01*
X95440952Y-56618191D01*
X95488571Y-56522953D01*
X96107619Y-56094381D02*
X96202857Y-56094381D01*
X96298095Y-56142001D01*
X96345714Y-56189620D01*
X96393333Y-56284858D01*
X96440952Y-56475334D01*
X96440952Y-56713429D01*
X96393333Y-56903905D01*
X96345714Y-56999143D01*
X96298095Y-57046762D01*
X96202857Y-57094381D01*
X96107619Y-57094381D01*
X96012380Y-57046762D01*
X95964761Y-56999143D01*
X95917142Y-56903905D01*
X95869523Y-56713429D01*
X95869523Y-56475334D01*
X95917142Y-56284858D01*
X95964761Y-56189620D01*
X96012380Y-56142001D01*
X96107619Y-56094381D01*
X96917142Y-57046762D02*
X96917142Y-57094381D01*
X96869523Y-57189620D01*
X96821904Y-57237239D01*
X97869523Y-57094381D02*
X97298095Y-57094381D01*
X97583809Y-57094381D02*
X97583809Y-56094381D01*
X97488571Y-56237239D01*
X97393333Y-56332477D01*
X97298095Y-56380096D01*
X98202857Y-56094381D02*
X98869523Y-56094381D01*
X98440952Y-57094381D01*
X99440952Y-56094381D02*
X99536190Y-56094381D01*
X99631428Y-56142001D01*
X99679047Y-56189620D01*
X99726666Y-56284858D01*
X99774285Y-56475334D01*
X99774285Y-56713429D01*
X99726666Y-56903905D01*
X99679047Y-56999143D01*
X99631428Y-57046762D01*
X99536190Y-57094381D01*
X99440952Y-57094381D01*
X99345714Y-57046762D01*
X99298095Y-56999143D01*
X99250476Y-56903905D01*
X99202857Y-56713429D01*
X99202857Y-56475334D01*
X99250476Y-56284858D01*
X99298095Y-56189620D01*
X99345714Y-56142001D01*
X99440952Y-56094381D01*
X100964761Y-57094381D02*
X100964761Y-56427715D01*
X100964761Y-56522953D02*
X101012380Y-56475334D01*
X101107619Y-56427715D01*
X101250476Y-56427715D01*
X101345714Y-56475334D01*
X101393333Y-56570572D01*
X101393333Y-57094381D01*
X101393333Y-56570572D02*
X101440952Y-56475334D01*
X101536190Y-56427715D01*
X101679047Y-56427715D01*
X101774285Y-56475334D01*
X101821904Y-56570572D01*
X101821904Y-57094381D01*
X102298095Y-57094381D02*
X102298095Y-56427715D01*
X102298095Y-56522953D02*
X102345714Y-56475334D01*
X102440952Y-56427715D01*
X102583809Y-56427715D01*
X102679047Y-56475334D01*
X102726666Y-56570572D01*
X102726666Y-57094381D01*
X102726666Y-56570572D02*
X102774285Y-56475334D01*
X102869523Y-56427715D01*
X103012380Y-56427715D01*
X103107619Y-56475334D01*
X103155238Y-56570572D01*
X103155238Y-57094381D01*
D12*
X144145000Y-57912001D02*
X53975000Y-57912001D01*
X144145000Y-60325000D02*
X144145000Y-57325580D01*
X53975000Y-60325000D02*
X53975000Y-57325580D01*
X53975000Y-57912001D02*
X55101504Y-57325580D01*
X53975000Y-57912001D02*
X55101504Y-58498422D01*
X144145000Y-57912001D02*
X143018496Y-57325580D01*
X144145000Y-57912001D02*
X143018496Y-58498422D01*
D11*
X94658571Y-148141428D02*
X93944285Y-148641428D01*
X94658571Y-148998571D02*
X93158571Y-148998571D01*
X93158571Y-148427142D01*
X93230000Y-148284285D01*
X93301428Y-148212857D01*
X93444285Y-148141428D01*
X93658571Y-148141428D01*
X93801428Y-148212857D01*
X93872857Y-148284285D01*
X93944285Y-148427142D01*
X93944285Y-148998571D01*
X94587142Y-147570000D02*
X94658571Y-147355714D01*
X94658571Y-146998571D01*
X94587142Y-146855714D01*
X94515714Y-146784285D01*
X94372857Y-146712857D01*
X94230000Y-146712857D01*
X94087142Y-146784285D01*
X94015714Y-146855714D01*
X93944285Y-146998571D01*
X93872857Y-147284285D01*
X93801428Y-147427142D01*
X93730000Y-147498571D01*
X93587142Y-147570000D01*
X93444285Y-147570000D01*
X93301428Y-147498571D01*
X93230000Y-147427142D01*
X93158571Y-147284285D01*
X93158571Y-146927142D01*
X93230000Y-146712857D01*
X93158571Y-146284285D02*
X93158571Y-145427142D01*
X94658571Y-145855714D02*
X93158571Y-145855714D01*
X137271428Y-135703571D02*
X137271428Y-136917857D01*
X137342857Y-137060714D01*
X137414285Y-137132142D01*
X137557142Y-137203571D01*
X137842857Y-137203571D01*
X137985714Y-137132142D01*
X138057142Y-137060714D01*
X138128571Y-136917857D01*
X138128571Y-135703571D01*
X138771428Y-135846428D02*
X138842857Y-135775000D01*
X138985714Y-135703571D01*
X139342857Y-135703571D01*
X139485714Y-135775000D01*
X139557142Y-135846428D01*
X139628571Y-135989285D01*
X139628571Y-136132142D01*
X139557142Y-136346428D01*
X138700000Y-137203571D01*
X139628571Y-137203571D01*
X140057142Y-135703571D02*
X140914285Y-135703571D01*
X140485714Y-137203571D02*
X140485714Y-135703571D01*
X141271428Y-135703571D02*
X142271428Y-137203571D01*
X142271428Y-135703571D02*
X141271428Y-137203571D01*
X137092857Y-133163571D02*
X137092857Y-134377857D01*
X137164285Y-134520714D01*
X137235714Y-134592142D01*
X137378571Y-134663571D01*
X137664285Y-134663571D01*
X137807142Y-134592142D01*
X137878571Y-134520714D01*
X137950000Y-134377857D01*
X137950000Y-133163571D01*
X138592857Y-133306428D02*
X138664285Y-133235000D01*
X138807142Y-133163571D01*
X139164285Y-133163571D01*
X139307142Y-133235000D01*
X139378571Y-133306428D01*
X139450000Y-133449285D01*
X139450000Y-133592142D01*
X139378571Y-133806428D01*
X138521428Y-134663571D01*
X139450000Y-134663571D01*
X140950000Y-134663571D02*
X140450000Y-133949285D01*
X140092857Y-134663571D02*
X140092857Y-133163571D01*
X140664285Y-133163571D01*
X140807142Y-133235000D01*
X140878571Y-133306428D01*
X140950000Y-133449285D01*
X140950000Y-133663571D01*
X140878571Y-133806428D01*
X140807142Y-133877857D01*
X140664285Y-133949285D01*
X140092857Y-133949285D01*
X141450000Y-133163571D02*
X142450000Y-134663571D01*
X142450000Y-133163571D02*
X141450000Y-134663571D01*
X71568571Y-118697142D02*
X71568571Y-117768571D01*
X72140000Y-118268571D01*
X72140000Y-118054285D01*
X72211428Y-117911428D01*
X72282857Y-117840000D01*
X72425714Y-117768571D01*
X72782857Y-117768571D01*
X72925714Y-117840000D01*
X72997142Y-117911428D01*
X73068571Y-118054285D01*
X73068571Y-118482857D01*
X72997142Y-118625714D01*
X72925714Y-118697142D01*
X71568571Y-117340000D02*
X73068571Y-116840000D01*
X71568571Y-116340000D01*
X71568571Y-115982857D02*
X71568571Y-115054285D01*
X72140000Y-115554285D01*
X72140000Y-115340000D01*
X72211428Y-115197142D01*
X72282857Y-115125714D01*
X72425714Y-115054285D01*
X72782857Y-115054285D01*
X72925714Y-115125714D01*
X72997142Y-115197142D01*
X73068571Y-115340000D01*
X73068571Y-115768571D01*
X72997142Y-115911428D01*
X72925714Y-115982857D01*
X74108571Y-118197142D02*
X75608571Y-117840000D01*
X74537142Y-117554285D01*
X75608571Y-117268571D01*
X74108571Y-116911428D01*
X75537142Y-116411428D02*
X75608571Y-116197142D01*
X75608571Y-115840000D01*
X75537142Y-115697142D01*
X75465714Y-115625714D01*
X75322857Y-115554285D01*
X75180000Y-115554285D01*
X75037142Y-115625714D01*
X74965714Y-115697142D01*
X74894285Y-115840000D01*
X74822857Y-116125714D01*
X74751428Y-116268571D01*
X74680000Y-116340000D01*
X74537142Y-116411428D01*
X74394285Y-116411428D01*
X74251428Y-116340000D01*
X74180000Y-116268571D01*
X74108571Y-116125714D01*
X74108571Y-115768571D01*
X74180000Y-115554285D01*
X79260000Y-117982857D02*
X79188571Y-118125714D01*
X79188571Y-118340000D01*
X79260000Y-118554285D01*
X79402857Y-118697142D01*
X79545714Y-118768571D01*
X79831428Y-118840000D01*
X80045714Y-118840000D01*
X80331428Y-118768571D01*
X80474285Y-118697142D01*
X80617142Y-118554285D01*
X80688571Y-118340000D01*
X80688571Y-118197142D01*
X80617142Y-117982857D01*
X80545714Y-117911428D01*
X80045714Y-117911428D01*
X80045714Y-118197142D01*
X80688571Y-117268571D02*
X79188571Y-117268571D01*
X80688571Y-116411428D01*
X79188571Y-116411428D01*
X80688571Y-115697142D02*
X79188571Y-115697142D01*
X79188571Y-115340000D01*
X79260000Y-115125714D01*
X79402857Y-114982857D01*
X79545714Y-114911428D01*
X79831428Y-114840000D01*
X80045714Y-114840000D01*
X80331428Y-114911428D01*
X80474285Y-114982857D01*
X80617142Y-115125714D01*
X80688571Y-115340000D01*
X80688571Y-115697142D01*
X83157142Y-118018571D02*
X83228571Y-117804285D01*
X83228571Y-117447142D01*
X83157142Y-117304285D01*
X83085714Y-117232857D01*
X82942857Y-117161428D01*
X82800000Y-117161428D01*
X82657142Y-117232857D01*
X82585714Y-117304285D01*
X82514285Y-117447142D01*
X82442857Y-117732857D01*
X82371428Y-117875714D01*
X82300000Y-117947142D01*
X82157142Y-118018571D01*
X82014285Y-118018571D01*
X81871428Y-117947142D01*
X81800000Y-117875714D01*
X81728571Y-117732857D01*
X81728571Y-117375714D01*
X81800000Y-117161428D01*
X83228571Y-116518571D02*
X81728571Y-116518571D01*
X81728571Y-116161428D01*
X81800000Y-115947142D01*
X81942857Y-115804285D01*
X82085714Y-115732857D01*
X82371428Y-115661428D01*
X82585714Y-115661428D01*
X82871428Y-115732857D01*
X83014285Y-115804285D01*
X83157142Y-115947142D01*
X83228571Y-116161428D01*
X83228571Y-116518571D01*
X78005714Y-117125714D02*
X78077142Y-117197142D01*
X78148571Y-117411428D01*
X78148571Y-117554285D01*
X78077142Y-117768571D01*
X77934285Y-117911428D01*
X77791428Y-117982857D01*
X77505714Y-118054285D01*
X77291428Y-118054285D01*
X77005714Y-117982857D01*
X76862857Y-117911428D01*
X76720000Y-117768571D01*
X76648571Y-117554285D01*
X76648571Y-117411428D01*
X76720000Y-117197142D01*
X76791428Y-117125714D01*
X78148571Y-116482857D02*
X76648571Y-116482857D01*
X78148571Y-115625714D02*
X77291428Y-116268571D01*
X76648571Y-115625714D02*
X77505714Y-116482857D01*
X84268571Y-109108571D02*
X85482857Y-109108571D01*
X85625714Y-109037142D01*
X85697142Y-108965714D01*
X85768571Y-108822857D01*
X85768571Y-108537142D01*
X85697142Y-108394285D01*
X85625714Y-108322857D01*
X85482857Y-108251428D01*
X84268571Y-108251428D01*
X85768571Y-106751428D02*
X85768571Y-107608571D01*
X85768571Y-107180000D02*
X84268571Y-107180000D01*
X84482857Y-107322857D01*
X84625714Y-107465714D01*
X84697142Y-107608571D01*
X84268571Y-106322857D02*
X84268571Y-105465714D01*
X85768571Y-105894285D02*
X84268571Y-105894285D01*
X84268571Y-105108571D02*
X85768571Y-104108571D01*
X84268571Y-104108571D02*
X85768571Y-105108571D01*
X86808571Y-109287142D02*
X88022857Y-109287142D01*
X88165714Y-109215714D01*
X88237142Y-109144285D01*
X88308571Y-109001428D01*
X88308571Y-108715714D01*
X88237142Y-108572857D01*
X88165714Y-108501428D01*
X88022857Y-108430000D01*
X86808571Y-108430000D01*
X88308571Y-106930000D02*
X88308571Y-107787142D01*
X88308571Y-107358571D02*
X86808571Y-107358571D01*
X87022857Y-107501428D01*
X87165714Y-107644285D01*
X87237142Y-107787142D01*
X88308571Y-105430000D02*
X87594285Y-105930000D01*
X88308571Y-106287142D02*
X86808571Y-106287142D01*
X86808571Y-105715714D01*
X86880000Y-105572857D01*
X86951428Y-105501428D01*
X87094285Y-105430000D01*
X87308571Y-105430000D01*
X87451428Y-105501428D01*
X87522857Y-105572857D01*
X87594285Y-105715714D01*
X87594285Y-106287142D01*
X86808571Y-104930000D02*
X88308571Y-103930000D01*
X86808571Y-103930000D02*
X88308571Y-104930000D01*
X81728571Y-108537142D02*
X81728571Y-107608571D01*
X82300000Y-108108571D01*
X82300000Y-107894285D01*
X82371428Y-107751428D01*
X82442857Y-107680000D01*
X82585714Y-107608571D01*
X82942857Y-107608571D01*
X83085714Y-107680000D01*
X83157142Y-107751428D01*
X83228571Y-107894285D01*
X83228571Y-108322857D01*
X83157142Y-108465714D01*
X83085714Y-108537142D01*
X81728571Y-107180000D02*
X83228571Y-106680000D01*
X81728571Y-106180000D01*
X81728571Y-105822857D02*
X81728571Y-104894285D01*
X82300000Y-105394285D01*
X82300000Y-105180000D01*
X82371428Y-105037142D01*
X82442857Y-104965714D01*
X82585714Y-104894285D01*
X82942857Y-104894285D01*
X83085714Y-104965714D01*
X83157142Y-105037142D01*
X83228571Y-105180000D01*
X83228571Y-105608571D01*
X83157142Y-105751428D01*
X83085714Y-105822857D01*
D12*
X59690000Y-88900000D02*
X59690000Y-71120000D01*
X92710000Y-88900000D02*
X59690000Y-88900000D01*
X92710000Y-71120000D02*
X92710000Y-88900000D01*
X59690000Y-71120000D02*
X92710000Y-71120000D01*
X133350000Y-91440000D02*
X110490000Y-91440000D01*
X133350000Y-121920000D02*
X133350000Y-91440000D01*
X110490000Y-121920000D02*
X133350000Y-121920000D01*
X110490000Y-91440000D02*
X110490000Y-121920000D01*
D11*
X79260000Y-107822857D02*
X79188571Y-107965714D01*
X79188571Y-108180000D01*
X79260000Y-108394285D01*
X79402857Y-108537142D01*
X79545714Y-108608571D01*
X79831428Y-108680000D01*
X80045714Y-108680000D01*
X80331428Y-108608571D01*
X80474285Y-108537142D01*
X80617142Y-108394285D01*
X80688571Y-108180000D01*
X80688571Y-108037142D01*
X80617142Y-107822857D01*
X80545714Y-107751428D01*
X80045714Y-107751428D01*
X80045714Y-108037142D01*
X80688571Y-107108571D02*
X79188571Y-107108571D01*
X80688571Y-106251428D01*
X79188571Y-106251428D01*
X80688571Y-105537142D02*
X79188571Y-105537142D01*
X79188571Y-105180000D01*
X79260000Y-104965714D01*
X79402857Y-104822857D01*
X79545714Y-104751428D01*
X79831428Y-104680000D01*
X80045714Y-104680000D01*
X80331428Y-104751428D01*
X80474285Y-104822857D01*
X80617142Y-104965714D01*
X80688571Y-105180000D01*
X80688571Y-105537142D01*
X61504285Y-121328571D02*
X61504285Y-119828571D01*
X62218571Y-121328571D02*
X62218571Y-119828571D01*
X63075714Y-121328571D01*
X63075714Y-119828571D01*
X63790000Y-121328571D02*
X63790000Y-119828571D01*
X64290000Y-120900000D01*
X64790000Y-119828571D01*
X64790000Y-121328571D01*
X65504285Y-121328571D02*
X65504285Y-119828571D01*
X66075714Y-119828571D01*
X66218571Y-119900000D01*
X66290000Y-119971428D01*
X66361428Y-120114285D01*
X66361428Y-120328571D01*
X66290000Y-120471428D01*
X66218571Y-120542857D01*
X66075714Y-120614285D01*
X65504285Y-120614285D01*
X67647142Y-120328571D02*
X67647142Y-121328571D01*
X67290000Y-119757142D02*
X66932857Y-120828571D01*
X67861428Y-120828571D01*
X69075714Y-120328571D02*
X69075714Y-121328571D01*
X68718571Y-119757142D02*
X68361428Y-120828571D01*
X69290000Y-120828571D01*
X70647142Y-121328571D02*
X69790000Y-121328571D01*
X70218571Y-121328571D02*
X70218571Y-119828571D01*
X70075714Y-120042857D01*
X69932857Y-120185714D01*
X69790000Y-120257142D01*
X92118571Y-83597142D02*
X90618571Y-83597142D01*
X90618571Y-83025714D01*
X90690000Y-82882857D01*
X90761428Y-82811428D01*
X90904285Y-82740000D01*
X91118571Y-82740000D01*
X91261428Y-82811428D01*
X91332857Y-82882857D01*
X91404285Y-83025714D01*
X91404285Y-83597142D01*
X91975714Y-81240000D02*
X92047142Y-81311428D01*
X92118571Y-81525714D01*
X92118571Y-81668571D01*
X92047142Y-81882857D01*
X91904285Y-82025714D01*
X91761428Y-82097142D01*
X91475714Y-82168571D01*
X91261428Y-82168571D01*
X90975714Y-82097142D01*
X90832857Y-82025714D01*
X90690000Y-81882857D01*
X90618571Y-81668571D01*
X90618571Y-81525714D01*
X90690000Y-81311428D01*
X90761428Y-81240000D01*
X92118571Y-80597142D02*
X90618571Y-80597142D01*
X91690000Y-80097142D01*
X90618571Y-79597142D01*
X92118571Y-79597142D01*
X90618571Y-78168571D02*
X90618571Y-78882857D01*
X91332857Y-78954285D01*
X91261428Y-78882857D01*
X91190000Y-78740000D01*
X91190000Y-78382857D01*
X91261428Y-78240000D01*
X91332857Y-78168571D01*
X91475714Y-78097142D01*
X91832857Y-78097142D01*
X91975714Y-78168571D01*
X92047142Y-78240000D01*
X92118571Y-78382857D01*
X92118571Y-78740000D01*
X92047142Y-78882857D01*
X91975714Y-78954285D01*
X92118571Y-76668571D02*
X92118571Y-77525714D01*
X92118571Y-77097142D02*
X90618571Y-77097142D01*
X90832857Y-77240000D01*
X90975714Y-77382857D01*
X91047142Y-77525714D01*
X90618571Y-75740000D02*
X90618571Y-75597142D01*
X90690000Y-75454285D01*
X90761428Y-75382857D01*
X90904285Y-75311428D01*
X91190000Y-75240000D01*
X91547142Y-75240000D01*
X91832857Y-75311428D01*
X91975714Y-75382857D01*
X92047142Y-75454285D01*
X92118571Y-75597142D01*
X92118571Y-75740000D01*
X92047142Y-75882857D01*
X91975714Y-75954285D01*
X91832857Y-76025714D01*
X91547142Y-76097142D01*
X91190000Y-76097142D01*
X90904285Y-76025714D01*
X90761428Y-75954285D01*
X90690000Y-75882857D01*
X90618571Y-75740000D01*
X90761428Y-74668571D02*
X90690000Y-74597142D01*
X90618571Y-74454285D01*
X90618571Y-74097142D01*
X90690000Y-73954285D01*
X90761428Y-73882857D01*
X90904285Y-73811428D01*
X91047142Y-73811428D01*
X91261428Y-73882857D01*
X92118571Y-74740000D01*
X92118571Y-73811428D01*
X132687142Y-99527857D02*
X132758571Y-99313571D01*
X132758571Y-98956428D01*
X132687142Y-98813571D01*
X132615714Y-98742142D01*
X132472857Y-98670714D01*
X132330000Y-98670714D01*
X132187142Y-98742142D01*
X132115714Y-98813571D01*
X132044285Y-98956428D01*
X131972857Y-99242142D01*
X131901428Y-99385000D01*
X131830000Y-99456428D01*
X131687142Y-99527857D01*
X131544285Y-99527857D01*
X131401428Y-99456428D01*
X131330000Y-99385000D01*
X131258571Y-99242142D01*
X131258571Y-98885000D01*
X131330000Y-98670714D01*
X132758571Y-98027857D02*
X131758571Y-98027857D01*
X131258571Y-98027857D02*
X131330000Y-98099285D01*
X131401428Y-98027857D01*
X131330000Y-97956428D01*
X131258571Y-98027857D01*
X131401428Y-98027857D01*
X131258571Y-96599285D02*
X131258571Y-97313571D01*
X131972857Y-97385000D01*
X131901428Y-97313571D01*
X131830000Y-97170714D01*
X131830000Y-96813571D01*
X131901428Y-96670714D01*
X131972857Y-96599285D01*
X132115714Y-96527857D01*
X132472857Y-96527857D01*
X132615714Y-96599285D01*
X132687142Y-96670714D01*
X132758571Y-96813571D01*
X132758571Y-97170714D01*
X132687142Y-97313571D01*
X132615714Y-97385000D01*
X132758571Y-95099285D02*
X132758571Y-95956428D01*
X132758571Y-95527857D02*
X131258571Y-95527857D01*
X131472857Y-95670714D01*
X131615714Y-95813571D01*
X131687142Y-95956428D01*
X131258571Y-93742142D02*
X131258571Y-94456428D01*
X131972857Y-94527857D01*
X131901428Y-94456428D01*
X131830000Y-94313571D01*
X131830000Y-93956428D01*
X131901428Y-93813571D01*
X131972857Y-93742142D01*
X132115714Y-93670714D01*
X132472857Y-93670714D01*
X132615714Y-93742142D01*
X132687142Y-93813571D01*
X132758571Y-93956428D01*
X132758571Y-94313571D01*
X132687142Y-94456428D01*
X132615714Y-94527857D01*
X131258571Y-93170714D02*
X131258571Y-92242142D01*
X131830000Y-92742142D01*
X131830000Y-92527857D01*
X131901428Y-92385000D01*
X131972857Y-92313571D01*
X132115714Y-92242142D01*
X132472857Y-92242142D01*
X132615714Y-92313571D01*
X132687142Y-92385000D01*
X132758571Y-92527857D01*
X132758571Y-92956428D01*
X132687142Y-93099285D01*
X132615714Y-93170714D01*
X115412142Y-94587142D02*
X115626428Y-94658571D01*
X115983571Y-94658571D01*
X116126428Y-94587142D01*
X116197857Y-94515714D01*
X116269285Y-94372857D01*
X116269285Y-94230000D01*
X116197857Y-94087142D01*
X116126428Y-94015714D01*
X115983571Y-93944285D01*
X115697857Y-93872857D01*
X115555000Y-93801428D01*
X115483571Y-93730000D01*
X115412142Y-93587142D01*
X115412142Y-93444285D01*
X115483571Y-93301428D01*
X115555000Y-93230000D01*
X115697857Y-93158571D01*
X116055000Y-93158571D01*
X116269285Y-93230000D01*
X116912142Y-94658571D02*
X116912142Y-93658571D01*
X116912142Y-93158571D02*
X116840714Y-93230000D01*
X116912142Y-93301428D01*
X116983571Y-93230000D01*
X116912142Y-93158571D01*
X116912142Y-93301428D01*
X118340714Y-93158571D02*
X117626428Y-93158571D01*
X117555000Y-93872857D01*
X117626428Y-93801428D01*
X117769285Y-93730000D01*
X118126428Y-93730000D01*
X118269285Y-93801428D01*
X118340714Y-93872857D01*
X118412142Y-94015714D01*
X118412142Y-94372857D01*
X118340714Y-94515714D01*
X118269285Y-94587142D01*
X118126428Y-94658571D01*
X117769285Y-94658571D01*
X117626428Y-94587142D01*
X117555000Y-94515714D01*
X119840714Y-94658571D02*
X118983571Y-94658571D01*
X119412142Y-94658571D02*
X119412142Y-93158571D01*
X119269285Y-93372857D01*
X119126428Y-93515714D01*
X118983571Y-93587142D01*
X121197857Y-93158571D02*
X120483571Y-93158571D01*
X120412142Y-93872857D01*
X120483571Y-93801428D01*
X120626428Y-93730000D01*
X120983571Y-93730000D01*
X121126428Y-93801428D01*
X121197857Y-93872857D01*
X121269285Y-94015714D01*
X121269285Y-94372857D01*
X121197857Y-94515714D01*
X121126428Y-94587142D01*
X120983571Y-94658571D01*
X120626428Y-94658571D01*
X120483571Y-94587142D01*
X120412142Y-94515714D01*
X121769285Y-93158571D02*
X122697857Y-93158571D01*
X122197857Y-93730000D01*
X122412142Y-93730000D01*
X122555000Y-93801428D01*
X122626428Y-93872857D01*
X122697857Y-94015714D01*
X122697857Y-94372857D01*
X122626428Y-94515714D01*
X122555000Y-94587142D01*
X122412142Y-94658571D01*
X121983571Y-94658571D01*
X121840714Y-94587142D01*
X121769285Y-94515714D01*
X124983571Y-93872857D02*
X124483571Y-93872857D01*
X124483571Y-94658571D02*
X124483571Y-93158571D01*
X125197857Y-93158571D01*
X125769285Y-94658571D02*
X125769285Y-93658571D01*
X125769285Y-93158571D02*
X125697857Y-93230000D01*
X125769285Y-93301428D01*
X125840714Y-93230000D01*
X125769285Y-93158571D01*
X125769285Y-93301428D01*
X126697857Y-94658571D02*
X126555000Y-94587142D01*
X126483571Y-94444285D01*
X126483571Y-93158571D01*
X127055000Y-93658571D02*
X127626428Y-93658571D01*
X127269285Y-93158571D02*
X127269285Y-94444285D01*
X127340714Y-94587142D01*
X127483571Y-94658571D01*
X127626428Y-94658571D01*
X128697857Y-94587142D02*
X128555000Y-94658571D01*
X128269285Y-94658571D01*
X128126428Y-94587142D01*
X128055000Y-94444285D01*
X128055000Y-93872857D01*
X128126428Y-93730000D01*
X128269285Y-93658571D01*
X128555000Y-93658571D01*
X128697857Y-93730000D01*
X128769285Y-93872857D01*
X128769285Y-94015714D01*
X128055000Y-94158571D01*
X129412142Y-94658571D02*
X129412142Y-93658571D01*
X129412142Y-93944285D02*
X129483571Y-93801428D01*
X129555000Y-93730000D01*
X129697857Y-93658571D01*
X129840714Y-93658571D01*
D12*
X114240000Y-66615000D02*
X115570000Y-66615000D01*
X114240000Y-67945000D02*
X114240000Y-66615000D01*
X114240000Y-69215000D02*
X116900000Y-69215000D01*
X116900000Y-69215000D02*
X116900000Y-69275000D01*
X114240000Y-69215000D02*
X114240000Y-69275000D01*
X114240000Y-69275000D02*
X116900000Y-69275000D01*
X104715000Y-57090000D02*
X106045000Y-57090000D01*
X104715000Y-58420000D02*
X104715000Y-57090000D01*
X104715000Y-59690000D02*
X107375000Y-59690000D01*
X107375000Y-59690000D02*
X107375000Y-59750000D01*
X104715000Y-59690000D02*
X104715000Y-59750000D01*
X104715000Y-59750000D02*
X107375000Y-59750000D01*
X74235000Y-151705000D02*
X75565000Y-151705000D01*
X74235000Y-153035000D02*
X74235000Y-151705000D01*
X74235000Y-154305000D02*
X76895000Y-154305000D01*
X76895000Y-154305000D02*
X76895000Y-154365000D01*
X74235000Y-154305000D02*
X74235000Y-154365000D01*
X74235000Y-154365000D02*
X76895000Y-154365000D01*
X52645000Y-65980000D02*
X53975000Y-65980000D01*
X52645000Y-67310000D02*
X52645000Y-65980000D01*
X52645000Y-68580000D02*
X55305000Y-68580000D01*
X55305000Y-68580000D02*
X55305000Y-68640000D01*
X52645000Y-68580000D02*
X52645000Y-68640000D01*
X52645000Y-68640000D02*
X55305000Y-68640000D01*
X137735000Y-150435000D02*
X139065000Y-150435000D01*
X137735000Y-151765000D02*
X137735000Y-150435000D01*
X137735000Y-153035000D02*
X140395000Y-153035000D01*
X140395000Y-153035000D02*
X140395000Y-153095000D01*
X137735000Y-153035000D02*
X137735000Y-153095000D01*
X137735000Y-153095000D02*
X140395000Y-153095000D01*
X142815000Y-67885000D02*
X144145000Y-67885000D01*
X142815000Y-69215000D02*
X142815000Y-67885000D01*
X142815000Y-70485000D02*
X145475000Y-70485000D01*
X145475000Y-70485000D02*
X145475000Y-70545000D01*
X142815000Y-70485000D02*
X142815000Y-70545000D01*
X142815000Y-70545000D02*
X145475000Y-70545000D01*
X128335000Y-109875000D02*
X131785000Y-109875000D01*
X128335000Y-109875000D02*
X126385000Y-109875000D01*
X128335000Y-104755000D02*
X130285000Y-104755000D01*
X128335000Y-104755000D02*
X126385000Y-104755000D01*
X130250000Y-121241078D02*
X130250000Y-120723922D01*
X128830000Y-121241078D02*
X128830000Y-120723922D01*
X126440000Y-121241078D02*
X126440000Y-120723922D01*
X125020000Y-121241078D02*
X125020000Y-120723922D01*
X131520000Y-114861078D02*
X131520000Y-114343922D01*
X130100000Y-114861078D02*
X130100000Y-114343922D01*
X142815000Y-117415000D02*
X144145000Y-117415000D01*
X142815000Y-118745000D02*
X142815000Y-117415000D01*
X142815000Y-120015000D02*
X145475000Y-120015000D01*
X145475000Y-120015000D02*
X145475000Y-127695000D01*
X142815000Y-120015000D02*
X142815000Y-127695000D01*
X142815000Y-127695000D02*
X145475000Y-127695000D01*
X68342383Y-117952264D02*
G75*
G02X67950000Y-118540000I-2302383J1112264D01*
G01*
X68396400Y-115741193D02*
G75*
G03X66040000Y-114240000I-2356400J-1098807D01*
G01*
X63683600Y-115741193D02*
G75*
G02X66040000Y-114240000I2356400J-1098807D01*
G01*
X63717369Y-117962045D02*
G75*
G03X64100000Y-118540000I2322631J1122045D01*
G01*
X64100000Y-118540000D02*
X67950000Y-118540000D01*
X106606078Y-151690000D02*
X106088922Y-151690000D01*
X106606078Y-153110000D02*
X106088922Y-153110000D01*
X80083922Y-149300000D02*
X80601078Y-149300000D01*
X80083922Y-147880000D02*
X80601078Y-147880000D01*
X99102500Y-153085000D02*
X101587500Y-153085000D01*
X99102500Y-151715000D02*
X99102500Y-153085000D01*
X101587500Y-151715000D02*
X99102500Y-151715000D01*
X87587500Y-147905000D02*
X85102500Y-147905000D01*
X87587500Y-149275000D02*
X87587500Y-147905000D01*
X85102500Y-149275000D02*
X87587500Y-149275000D01*
X110660000Y-145240000D02*
X116360000Y-145240000D01*
X110660000Y-145240000D02*
X110660000Y-139240000D01*
X110660000Y-139240000D02*
X116360000Y-139240000D01*
X117111754Y-138713616D02*
G75*
G02X116360000Y-139240000I-751754J273616D01*
G01*
X139555671Y-142285281D02*
G75*
G03X117110000Y-138740000I-11495671J45281D01*
G01*
X117111754Y-145766384D02*
G75*
G03X116360000Y-145240000I-751754J-273616D01*
G01*
X139555671Y-142194719D02*
G75*
G02X117110000Y-145740000I-11495671J-45281D01*
G01*
X141705000Y-85340000D02*
X142205000Y-85090000D01*
X141705000Y-84840000D02*
X141705000Y-85340000D01*
X142205000Y-85090000D02*
X141705000Y-84840000D01*
X142815000Y-130115000D02*
X144145000Y-130115000D01*
X142815000Y-131445000D02*
X142815000Y-130115000D01*
X142815000Y-132715000D02*
X145475000Y-132715000D01*
X145475000Y-132715000D02*
X145475000Y-142935000D01*
X142815000Y-132715000D02*
X142815000Y-142935000D01*
X142815000Y-142935000D02*
X145475000Y-142935000D01*
X140490000Y-70400000D02*
X137890000Y-70400000D01*
X140490000Y-55700000D02*
X140490000Y-70400000D01*
X131290000Y-70400000D02*
X131290000Y-68500000D01*
X133990000Y-70400000D02*
X131290000Y-70400000D01*
X131290000Y-55700000D02*
X140490000Y-55700000D01*
X131290000Y-64500000D02*
X131290000Y-55700000D01*
X140690000Y-69550000D02*
X140690000Y-70600000D01*
X139640000Y-70600000D02*
X140690000Y-70600000D01*
X119780000Y-67600000D02*
X119780000Y-61590000D01*
X126600000Y-65350000D02*
X126600000Y-61590000D01*
X119780000Y-61590000D02*
X121040000Y-61590000D01*
X126600000Y-61590000D02*
X125340000Y-61590000D01*
X124970000Y-84840000D02*
X124970000Y-83440000D01*
X122650000Y-83440000D02*
X122650000Y-85340000D01*
X116280000Y-75521078D02*
X116280000Y-75003922D01*
X114860000Y-75521078D02*
X114860000Y-75003922D01*
X113708922Y-61670000D02*
X114226078Y-61670000D01*
X113708922Y-60250000D02*
X114226078Y-60250000D01*
X75608922Y-80720000D02*
X76126078Y-80720000D01*
X75608922Y-79300000D02*
X76126078Y-79300000D01*
X127560000Y-91181422D02*
X127560000Y-91698578D01*
X128980000Y-91181422D02*
X128980000Y-91698578D01*
X137418578Y-84380000D02*
X136901422Y-84380000D01*
X137418578Y-85800000D02*
X136901422Y-85800000D01*
X83880000Y-119320000D02*
X83880000Y-120650000D01*
X82550000Y-119320000D02*
X83880000Y-119320000D01*
X81280000Y-119320000D02*
X81280000Y-121980000D01*
X81280000Y-121980000D02*
X71060000Y-121980000D01*
X81280000Y-119320000D02*
X71060000Y-119320000D01*
X71060000Y-119320000D02*
X71060000Y-121980000D01*
X126440000Y-102161078D02*
X126440000Y-101643922D01*
X125020000Y-102161078D02*
X125020000Y-101643922D01*
X137233922Y-106120000D02*
X137751078Y-106120000D01*
X137233922Y-104700000D02*
X137751078Y-104700000D01*
X92650000Y-151070000D02*
X93980000Y-151070000D01*
X92650000Y-152400000D02*
X92650000Y-151070000D01*
X92650000Y-153670000D02*
X95310000Y-153670000D01*
X95310000Y-153670000D02*
X95310000Y-153730000D01*
X92650000Y-153670000D02*
X92650000Y-153730000D01*
X92650000Y-153730000D02*
X95310000Y-153730000D01*
X125051078Y-111050000D02*
X124533922Y-111050000D01*
X125051078Y-112470000D02*
X124533922Y-112470000D01*
X128343922Y-80720000D02*
X128861078Y-80720000D01*
X128343922Y-79300000D02*
X128861078Y-79300000D01*
X123750000Y-75003922D02*
X123750000Y-75521078D01*
X125170000Y-75003922D02*
X125170000Y-75521078D01*
X123263922Y-80720000D02*
X123781078Y-80720000D01*
X123263922Y-79300000D02*
X123781078Y-79300000D01*
X116913922Y-80720000D02*
X117431078Y-80720000D01*
X116913922Y-79300000D02*
X117431078Y-79300000D01*
X128343922Y-83260000D02*
X128861078Y-83260000D01*
X128343922Y-81840000D02*
X128861078Y-81840000D01*
X99170000Y-59630000D02*
X97520000Y-59630000D01*
X99170000Y-69910000D02*
X99170000Y-59630000D01*
X93870000Y-69910000D02*
X99170000Y-69910000D01*
X93870000Y-59630000D02*
X93870000Y-69910000D01*
X95520000Y-59630000D02*
X93870000Y-59630000D01*
X97520000Y-59630000D02*
G75*
G02X95520000Y-59630000I-1000000J0D01*
G01*
X134695000Y-107906078D02*
X134695000Y-107388922D01*
X133275000Y-107906078D02*
X133275000Y-107388922D01*
X64710000Y-95190000D02*
X66040000Y-95190000D01*
X64710000Y-96520000D02*
X64710000Y-95190000D01*
X64710000Y-97790000D02*
X67370000Y-97790000D01*
X67370000Y-97790000D02*
X67370000Y-105470000D01*
X64710000Y-97790000D02*
X64710000Y-105470000D01*
X64710000Y-105470000D02*
X67370000Y-105470000D01*
X48700000Y-96420000D02*
X50650000Y-96420000D01*
X52870000Y-96420000D02*
X56100000Y-96420000D01*
X58020000Y-97140000D02*
X58020000Y-98220000D01*
X58020000Y-102440000D02*
X58020000Y-103520000D01*
X52870000Y-104240000D02*
X56100000Y-104240000D01*
X48700000Y-104240000D02*
X50650000Y-104240000D01*
X58020000Y-98220000D02*
X58450000Y-98220000D01*
X48700000Y-104240000D02*
X48700000Y-96420000D01*
X142205000Y-105410000D02*
X141705000Y-105160000D01*
X141705000Y-105160000D02*
X141705000Y-105660000D01*
X141705000Y-105660000D02*
X142205000Y-105410000D01*
X88960000Y-110430000D02*
X88960000Y-111760000D01*
X87630000Y-110430000D02*
X88960000Y-110430000D01*
X86360000Y-110430000D02*
X86360000Y-113090000D01*
X86360000Y-113090000D02*
X78680000Y-113090000D01*
X86360000Y-110430000D02*
X78680000Y-110430000D01*
X78680000Y-110430000D02*
X78680000Y-113090000D01*
X120606078Y-86920000D02*
X120088922Y-86920000D01*
X120606078Y-88340000D02*
X120088922Y-88340000D01*
X85016078Y-65330000D02*
X84498922Y-65330000D01*
X85016078Y-66750000D02*
X84498922Y-66750000D01*
X121241078Y-107240000D02*
X120723922Y-107240000D01*
X121241078Y-108660000D02*
X120723922Y-108660000D01*
X117431078Y-103430000D02*
X116913922Y-103430000D01*
X117431078Y-104850000D02*
X116913922Y-104850000D01*
D10*
X79970000Y-68795000D02*
X79970000Y-67445000D01*
X74845000Y-68795000D02*
X74845000Y-73445000D01*
X80095000Y-68795000D02*
X80095000Y-73445000D01*
X74845000Y-68795000D02*
X75070000Y-68795000D01*
X74845000Y-73445000D02*
X75070000Y-73445000D01*
X80095000Y-73445000D02*
X79870000Y-73445000D01*
X80095000Y-68795000D02*
X79970000Y-68795000D01*
D12*
X108097205Y-75984184D02*
G75*
G02X107370000Y-75460000I1122795J2324184D01*
G01*
X110318807Y-76016400D02*
G75*
G03X111820000Y-73660000I-1098807J2356400D01*
G01*
X110318807Y-71303600D02*
G75*
G02X111820000Y-73660000I-1098807J-2356400D01*
G01*
X108097205Y-71335816D02*
G75*
G03X107370000Y-71860000I1122795J-2324184D01*
G01*
X107370000Y-71860000D02*
X107370000Y-75460000D01*
X110332264Y-61197617D02*
G75*
G02X110920000Y-61590000I-1112264J-2302383D01*
G01*
X108121193Y-61143600D02*
G75*
G03X106620000Y-63500000I1098807J-2356400D01*
G01*
X108121193Y-65856400D02*
G75*
G02X106620000Y-63500000I1098807J2356400D01*
G01*
X110342045Y-65822631D02*
G75*
G03X110920000Y-65440000I-1122045J2322631D01*
G01*
X110920000Y-65440000D02*
X110920000Y-61590000D01*
X123115000Y-88308922D02*
X123115000Y-88826078D01*
X124535000Y-88308922D02*
X124535000Y-88826078D01*
X119453922Y-83895000D02*
X119971078Y-83895000D01*
X119453922Y-82475000D02*
X119971078Y-82475000D01*
X66718922Y-74370000D02*
X67236078Y-74370000D01*
X66718922Y-72950000D02*
X67236078Y-72950000D01*
X65330000Y-81021422D02*
X65330000Y-81538578D01*
X66750000Y-81021422D02*
X66750000Y-81538578D01*
X84498922Y-61670000D02*
X85016078Y-61670000D01*
X84498922Y-60250000D02*
X85016078Y-60250000D01*
X76878922Y-61670000D02*
X77396078Y-61670000D01*
X76878922Y-60250000D02*
X77396078Y-60250000D01*
X117431078Y-107240000D02*
X116913922Y-107240000D01*
X117431078Y-108660000D02*
X116913922Y-108660000D01*
X120725000Y-105336078D02*
X120725000Y-104818922D01*
X119305000Y-105336078D02*
X119305000Y-104818922D01*
X69258922Y-61670000D02*
X69776078Y-61670000D01*
X69258922Y-60250000D02*
X69776078Y-60250000D01*
X69776078Y-65330000D02*
X69258922Y-65330000D01*
X69776078Y-66750000D02*
X69258922Y-66750000D01*
X101660000Y-127000000D02*
X101660000Y-128330000D01*
X101660000Y-128330000D02*
X100330000Y-128330000D01*
X99060000Y-128330000D02*
X50740000Y-128330000D01*
X50740000Y-125670000D02*
X50740000Y-128330000D01*
X99060000Y-125670000D02*
X50740000Y-125670000D01*
X99060000Y-125670000D02*
X99060000Y-128330000D01*
X63560000Y-67370000D02*
X62230000Y-67370000D01*
X63560000Y-66040000D02*
X63560000Y-67370000D01*
X63560000Y-64770000D02*
X60900000Y-64770000D01*
X60900000Y-64770000D02*
X60900000Y-57090000D01*
X63560000Y-64770000D02*
X63560000Y-57090000D01*
X63560000Y-57090000D02*
X60900000Y-57090000D01*
X60900000Y-72330000D02*
X62230000Y-72330000D01*
X60900000Y-73660000D02*
X60900000Y-72330000D01*
X60900000Y-74930000D02*
X63560000Y-74930000D01*
X63560000Y-74930000D02*
X63560000Y-87690000D01*
X60900000Y-74930000D02*
X60900000Y-87690000D01*
X60900000Y-87690000D02*
X63560000Y-87690000D01*
X113030000Y-97730000D02*
X114360000Y-97730000D01*
X114360000Y-97730000D02*
X114360000Y-99060000D01*
X114360000Y-100330000D02*
X114360000Y-115630000D01*
X111700000Y-115630000D02*
X114360000Y-115630000D01*
X111700000Y-100330000D02*
X111700000Y-115630000D01*
X111700000Y-100330000D02*
X114360000Y-100330000D01*
X50740000Y-142240000D02*
X50740000Y-140910000D01*
X50740000Y-140910000D02*
X52070000Y-140910000D01*
X53340000Y-140910000D02*
X101660000Y-140910000D01*
X101660000Y-143570000D02*
X101660000Y-140910000D01*
X53340000Y-143570000D02*
X101660000Y-143570000D01*
X53340000Y-143570000D02*
X53340000Y-140910000D01*
D10*
X114760476Y-65067380D02*
X114760476Y-65781666D01*
X114712857Y-65924523D01*
X114617619Y-66019761D01*
X114474761Y-66067380D01*
X114379523Y-66067380D01*
X115189047Y-65162619D02*
X115236666Y-65115000D01*
X115331904Y-65067380D01*
X115570000Y-65067380D01*
X115665238Y-65115000D01*
X115712857Y-65162619D01*
X115760476Y-65257857D01*
X115760476Y-65353095D01*
X115712857Y-65495952D01*
X115141428Y-66067380D01*
X115760476Y-66067380D01*
X116617619Y-65400714D02*
X116617619Y-66067380D01*
X116379523Y-65019761D02*
X116141428Y-65734047D01*
X116760476Y-65734047D01*
X105235476Y-55542380D02*
X105235476Y-56256666D01*
X105187857Y-56399523D01*
X105092619Y-56494761D01*
X104949761Y-56542380D01*
X104854523Y-56542380D01*
X105664047Y-55637619D02*
X105711666Y-55590000D01*
X105806904Y-55542380D01*
X106045000Y-55542380D01*
X106140238Y-55590000D01*
X106187857Y-55637619D01*
X106235476Y-55732857D01*
X106235476Y-55828095D01*
X106187857Y-55970952D01*
X105616428Y-56542380D01*
X106235476Y-56542380D01*
X106568809Y-55542380D02*
X107187857Y-55542380D01*
X106854523Y-55923333D01*
X106997380Y-55923333D01*
X107092619Y-55970952D01*
X107140238Y-56018571D01*
X107187857Y-56113809D01*
X107187857Y-56351904D01*
X107140238Y-56447142D01*
X107092619Y-56494761D01*
X106997380Y-56542380D01*
X106711666Y-56542380D01*
X106616428Y-56494761D01*
X106568809Y-56447142D01*
X74755476Y-150157380D02*
X74755476Y-150871666D01*
X74707857Y-151014523D01*
X74612619Y-151109761D01*
X74469761Y-151157380D01*
X74374523Y-151157380D01*
X75184047Y-150252619D02*
X75231666Y-150205000D01*
X75326904Y-150157380D01*
X75565000Y-150157380D01*
X75660238Y-150205000D01*
X75707857Y-150252619D01*
X75755476Y-150347857D01*
X75755476Y-150443095D01*
X75707857Y-150585952D01*
X75136428Y-151157380D01*
X75755476Y-151157380D01*
X76136428Y-150252619D02*
X76184047Y-150205000D01*
X76279285Y-150157380D01*
X76517380Y-150157380D01*
X76612619Y-150205000D01*
X76660238Y-150252619D01*
X76707857Y-150347857D01*
X76707857Y-150443095D01*
X76660238Y-150585952D01*
X76088809Y-151157380D01*
X76707857Y-151157380D01*
X53165476Y-64432380D02*
X53165476Y-65146666D01*
X53117857Y-65289523D01*
X53022619Y-65384761D01*
X52879761Y-65432380D01*
X52784523Y-65432380D01*
X53594047Y-64527619D02*
X53641666Y-64480000D01*
X53736904Y-64432380D01*
X53975000Y-64432380D01*
X54070238Y-64480000D01*
X54117857Y-64527619D01*
X54165476Y-64622857D01*
X54165476Y-64718095D01*
X54117857Y-64860952D01*
X53546428Y-65432380D01*
X54165476Y-65432380D01*
X55117857Y-65432380D02*
X54546428Y-65432380D01*
X54832142Y-65432380D02*
X54832142Y-64432380D01*
X54736904Y-64575238D01*
X54641666Y-64670476D01*
X54546428Y-64718095D01*
X138255476Y-148887380D02*
X138255476Y-149601666D01*
X138207857Y-149744523D01*
X138112619Y-149839761D01*
X137969761Y-149887380D01*
X137874523Y-149887380D01*
X138684047Y-148982619D02*
X138731666Y-148935000D01*
X138826904Y-148887380D01*
X139065000Y-148887380D01*
X139160238Y-148935000D01*
X139207857Y-148982619D01*
X139255476Y-149077857D01*
X139255476Y-149173095D01*
X139207857Y-149315952D01*
X138636428Y-149887380D01*
X139255476Y-149887380D01*
X139874523Y-148887380D02*
X139969761Y-148887380D01*
X140065000Y-148935000D01*
X140112619Y-148982619D01*
X140160238Y-149077857D01*
X140207857Y-149268333D01*
X140207857Y-149506428D01*
X140160238Y-149696904D01*
X140112619Y-149792142D01*
X140065000Y-149839761D01*
X139969761Y-149887380D01*
X139874523Y-149887380D01*
X139779285Y-149839761D01*
X139731666Y-149792142D01*
X139684047Y-149696904D01*
X139636428Y-149506428D01*
X139636428Y-149268333D01*
X139684047Y-149077857D01*
X139731666Y-148982619D01*
X139779285Y-148935000D01*
X139874523Y-148887380D01*
X143335476Y-66337380D02*
X143335476Y-67051666D01*
X143287857Y-67194523D01*
X143192619Y-67289761D01*
X143049761Y-67337380D01*
X142954523Y-67337380D01*
X144335476Y-67337380D02*
X143764047Y-67337380D01*
X144049761Y-67337380D02*
X144049761Y-66337380D01*
X143954523Y-66480238D01*
X143859285Y-66575476D01*
X143764047Y-66623095D01*
X144811666Y-67337380D02*
X145002142Y-67337380D01*
X145097380Y-67289761D01*
X145145000Y-67242142D01*
X145240238Y-67099285D01*
X145287857Y-66908809D01*
X145287857Y-66527857D01*
X145240238Y-66432619D01*
X145192619Y-66385000D01*
X145097380Y-66337380D01*
X144906904Y-66337380D01*
X144811666Y-66385000D01*
X144764047Y-66432619D01*
X144716428Y-66527857D01*
X144716428Y-66765952D01*
X144764047Y-66861190D01*
X144811666Y-66908809D01*
X144906904Y-66956428D01*
X145097380Y-66956428D01*
X145192619Y-66908809D01*
X145240238Y-66861190D01*
X145287857Y-66765952D01*
X127573095Y-103592380D02*
X127573095Y-104401904D01*
X127620714Y-104497142D01*
X127668333Y-104544761D01*
X127763571Y-104592380D01*
X127954047Y-104592380D01*
X128049285Y-104544761D01*
X128096904Y-104497142D01*
X128144523Y-104401904D01*
X128144523Y-103592380D01*
X129144523Y-104592380D02*
X128573095Y-104592380D01*
X128858809Y-104592380D02*
X128858809Y-103592380D01*
X128763571Y-103735238D01*
X128668333Y-103830476D01*
X128573095Y-103878095D01*
X129897142Y-125102857D02*
X129944761Y-125150476D01*
X129992380Y-125293333D01*
X129992380Y-125388571D01*
X129944761Y-125531428D01*
X129849523Y-125626666D01*
X129754285Y-125674285D01*
X129563809Y-125721904D01*
X129420952Y-125721904D01*
X129230476Y-125674285D01*
X129135238Y-125626666D01*
X129040000Y-125531428D01*
X128992380Y-125388571D01*
X128992380Y-125293333D01*
X129040000Y-125150476D01*
X129087619Y-125102857D01*
X129992380Y-124150476D02*
X129992380Y-124721904D01*
X129992380Y-124436190D02*
X128992380Y-124436190D01*
X129135238Y-124531428D01*
X129230476Y-124626666D01*
X129278095Y-124721904D01*
X128992380Y-123817142D02*
X128992380Y-123150476D01*
X129992380Y-123579047D01*
X124912380Y-118752857D02*
X124436190Y-119086190D01*
X124912380Y-119324285D02*
X123912380Y-119324285D01*
X123912380Y-118943333D01*
X123960000Y-118848095D01*
X124007619Y-118800476D01*
X124102857Y-118752857D01*
X124245714Y-118752857D01*
X124340952Y-118800476D01*
X124388571Y-118848095D01*
X124436190Y-118943333D01*
X124436190Y-119324285D01*
X124912380Y-117800476D02*
X124912380Y-118371904D01*
X124912380Y-118086190D02*
X123912380Y-118086190D01*
X124055238Y-118181428D01*
X124150476Y-118276666D01*
X124198095Y-118371904D01*
X124912380Y-117324285D02*
X124912380Y-117133809D01*
X124864761Y-117038571D01*
X124817142Y-116990952D01*
X124674285Y-116895714D01*
X124483809Y-116848095D01*
X124102857Y-116848095D01*
X124007619Y-116895714D01*
X123960000Y-116943333D01*
X123912380Y-117038571D01*
X123912380Y-117229047D01*
X123960000Y-117324285D01*
X124007619Y-117371904D01*
X124102857Y-117419523D01*
X124340952Y-117419523D01*
X124436190Y-117371904D01*
X124483809Y-117324285D01*
X124531428Y-117229047D01*
X124531428Y-117038571D01*
X124483809Y-116943333D01*
X124436190Y-116895714D01*
X124340952Y-116848095D01*
X131167142Y-118117857D02*
X131214761Y-118165476D01*
X131262380Y-118308333D01*
X131262380Y-118403571D01*
X131214761Y-118546428D01*
X131119523Y-118641666D01*
X131024285Y-118689285D01*
X130833809Y-118736904D01*
X130690952Y-118736904D01*
X130500476Y-118689285D01*
X130405238Y-118641666D01*
X130310000Y-118546428D01*
X130262380Y-118403571D01*
X130262380Y-118308333D01*
X130310000Y-118165476D01*
X130357619Y-118117857D01*
X131262380Y-117165476D02*
X131262380Y-117736904D01*
X131262380Y-117451190D02*
X130262380Y-117451190D01*
X130405238Y-117546428D01*
X130500476Y-117641666D01*
X130548095Y-117736904D01*
X130262380Y-116308333D02*
X130262380Y-116498809D01*
X130310000Y-116594047D01*
X130357619Y-116641666D01*
X130500476Y-116736904D01*
X130690952Y-116784523D01*
X131071904Y-116784523D01*
X131167142Y-116736904D01*
X131214761Y-116689285D01*
X131262380Y-116594047D01*
X131262380Y-116403571D01*
X131214761Y-116308333D01*
X131167142Y-116260714D01*
X131071904Y-116213095D01*
X130833809Y-116213095D01*
X130738571Y-116260714D01*
X130690952Y-116308333D01*
X130643333Y-116403571D01*
X130643333Y-116594047D01*
X130690952Y-116689285D01*
X130738571Y-116736904D01*
X130833809Y-116784523D01*
X143335476Y-115867380D02*
X143335476Y-116581666D01*
X143287857Y-116724523D01*
X143192619Y-116819761D01*
X143049761Y-116867380D01*
X142954523Y-116867380D01*
X144335476Y-116867380D02*
X143764047Y-116867380D01*
X144049761Y-116867380D02*
X144049761Y-115867380D01*
X143954523Y-116010238D01*
X143859285Y-116105476D01*
X143764047Y-116153095D01*
X144906904Y-116295952D02*
X144811666Y-116248333D01*
X144764047Y-116200714D01*
X144716428Y-116105476D01*
X144716428Y-116057857D01*
X144764047Y-115962619D01*
X144811666Y-115915000D01*
X144906904Y-115867380D01*
X145097380Y-115867380D01*
X145192619Y-115915000D01*
X145240238Y-115962619D01*
X145287857Y-116057857D01*
X145287857Y-116105476D01*
X145240238Y-116200714D01*
X145192619Y-116248333D01*
X145097380Y-116295952D01*
X144906904Y-116295952D01*
X144811666Y-116343571D01*
X144764047Y-116391190D01*
X144716428Y-116486428D01*
X144716428Y-116676904D01*
X144764047Y-116772142D01*
X144811666Y-116819761D01*
X144906904Y-116867380D01*
X145097380Y-116867380D01*
X145192619Y-116819761D01*
X145240238Y-116772142D01*
X145287857Y-116676904D01*
X145287857Y-116486428D01*
X145240238Y-116391190D01*
X145192619Y-116343571D01*
X145097380Y-116295952D01*
X65944761Y-113827619D02*
X65849523Y-113780000D01*
X65754285Y-113684761D01*
X65611428Y-113541904D01*
X65516190Y-113494285D01*
X65420952Y-113494285D01*
X65468571Y-113732380D02*
X65373333Y-113684761D01*
X65278095Y-113589523D01*
X65230476Y-113399047D01*
X65230476Y-113065714D01*
X65278095Y-112875238D01*
X65373333Y-112780000D01*
X65468571Y-112732380D01*
X65659047Y-112732380D01*
X65754285Y-112780000D01*
X65849523Y-112875238D01*
X65897142Y-113065714D01*
X65897142Y-113399047D01*
X65849523Y-113589523D01*
X65754285Y-113684761D01*
X65659047Y-113732380D01*
X65468571Y-113732380D01*
X66754285Y-113065714D02*
X66754285Y-113732380D01*
X66516190Y-112684761D02*
X66278095Y-113399047D01*
X66897142Y-113399047D01*
X105704642Y-154502380D02*
X105371309Y-154026190D01*
X105133214Y-154502380D02*
X105133214Y-153502380D01*
X105514166Y-153502380D01*
X105609404Y-153550000D01*
X105657023Y-153597619D01*
X105704642Y-153692857D01*
X105704642Y-153835714D01*
X105657023Y-153930952D01*
X105609404Y-153978571D01*
X105514166Y-154026190D01*
X105133214Y-154026190D01*
X106657023Y-154502380D02*
X106085595Y-154502380D01*
X106371309Y-154502380D02*
X106371309Y-153502380D01*
X106276071Y-153645238D01*
X106180833Y-153740476D01*
X106085595Y-153788095D01*
X106990357Y-153502380D02*
X107657023Y-153502380D01*
X107228452Y-154502380D01*
X79699642Y-147392380D02*
X79366309Y-146916190D01*
X79128214Y-147392380D02*
X79128214Y-146392380D01*
X79509166Y-146392380D01*
X79604404Y-146440000D01*
X79652023Y-146487619D01*
X79699642Y-146582857D01*
X79699642Y-146725714D01*
X79652023Y-146820952D01*
X79604404Y-146868571D01*
X79509166Y-146916190D01*
X79128214Y-146916190D01*
X80652023Y-147392380D02*
X80080595Y-147392380D01*
X80366309Y-147392380D02*
X80366309Y-146392380D01*
X80271071Y-146535238D01*
X80175833Y-146630476D01*
X80080595Y-146678095D01*
X81509166Y-146392380D02*
X81318690Y-146392380D01*
X81223452Y-146440000D01*
X81175833Y-146487619D01*
X81080595Y-146630476D01*
X81032976Y-146820952D01*
X81032976Y-147201904D01*
X81080595Y-147297142D01*
X81128214Y-147344761D01*
X81223452Y-147392380D01*
X81413928Y-147392380D01*
X81509166Y-147344761D01*
X81556785Y-147297142D01*
X81604404Y-147201904D01*
X81604404Y-146963809D01*
X81556785Y-146868571D01*
X81509166Y-146820952D01*
X81413928Y-146773333D01*
X81223452Y-146773333D01*
X81128214Y-146820952D01*
X81080595Y-146868571D01*
X81032976Y-146963809D01*
X100049404Y-151472380D02*
X100049404Y-150472380D01*
X100287500Y-150472380D01*
X100430357Y-150520000D01*
X100525595Y-150615238D01*
X100573214Y-150710476D01*
X100620833Y-150900952D01*
X100620833Y-151043809D01*
X100573214Y-151234285D01*
X100525595Y-151329523D01*
X100430357Y-151424761D01*
X100287500Y-151472380D01*
X100049404Y-151472380D01*
X101001785Y-150567619D02*
X101049404Y-150520000D01*
X101144642Y-150472380D01*
X101382738Y-150472380D01*
X101477976Y-150520000D01*
X101525595Y-150567619D01*
X101573214Y-150662857D01*
X101573214Y-150758095D01*
X101525595Y-150900952D01*
X100954166Y-151472380D01*
X101573214Y-151472380D01*
X85164404Y-147772380D02*
X85164404Y-146772380D01*
X85402500Y-146772380D01*
X85545357Y-146820000D01*
X85640595Y-146915238D01*
X85688214Y-147010476D01*
X85735833Y-147200952D01*
X85735833Y-147343809D01*
X85688214Y-147534285D01*
X85640595Y-147629523D01*
X85545357Y-147724761D01*
X85402500Y-147772380D01*
X85164404Y-147772380D01*
X86688214Y-147772380D02*
X86116785Y-147772380D01*
X86402500Y-147772380D02*
X86402500Y-146772380D01*
X86307261Y-146915238D01*
X86212023Y-147010476D01*
X86116785Y-147058095D01*
X112074285Y-137868571D02*
X112217142Y-137916190D01*
X112264761Y-137963809D01*
X112312380Y-138059047D01*
X112312380Y-138201904D01*
X112264761Y-138297142D01*
X112217142Y-138344761D01*
X112121904Y-138392380D01*
X111740952Y-138392380D01*
X111740952Y-137392380D01*
X112074285Y-137392380D01*
X112169523Y-137440000D01*
X112217142Y-137487619D01*
X112264761Y-137582857D01*
X112264761Y-137678095D01*
X112217142Y-137773333D01*
X112169523Y-137820952D01*
X112074285Y-137868571D01*
X111740952Y-137868571D01*
X112598095Y-137392380D02*
X113169523Y-137392380D01*
X112883809Y-138392380D02*
X112883809Y-137392380D01*
X114026666Y-138392380D02*
X113455238Y-138392380D01*
X113740952Y-138392380D02*
X113740952Y-137392380D01*
X113645714Y-137535238D01*
X113550476Y-137630476D01*
X113455238Y-137678095D01*
X115038571Y-142347142D02*
X116181428Y-142347142D01*
X115610000Y-142918571D02*
X115610000Y-141775714D01*
X143970476Y-82002380D02*
X143970476Y-82716666D01*
X143922857Y-82859523D01*
X143827619Y-82954761D01*
X143684761Y-83002380D01*
X143589523Y-83002380D01*
X144970476Y-83002380D02*
X144399047Y-83002380D01*
X144684761Y-83002380D02*
X144684761Y-82002380D01*
X144589523Y-82145238D01*
X144494285Y-82240476D01*
X144399047Y-82288095D01*
X145303809Y-82002380D02*
X145922857Y-82002380D01*
X145589523Y-82383333D01*
X145732380Y-82383333D01*
X145827619Y-82430952D01*
X145875238Y-82478571D01*
X145922857Y-82573809D01*
X145922857Y-82811904D01*
X145875238Y-82907142D01*
X145827619Y-82954761D01*
X145732380Y-83002380D01*
X145446666Y-83002380D01*
X145351428Y-82954761D01*
X145303809Y-82907142D01*
X143335476Y-128567380D02*
X143335476Y-129281666D01*
X143287857Y-129424523D01*
X143192619Y-129519761D01*
X143049761Y-129567380D01*
X142954523Y-129567380D01*
X144335476Y-129567380D02*
X143764047Y-129567380D01*
X144049761Y-129567380D02*
X144049761Y-128567380D01*
X143954523Y-128710238D01*
X143859285Y-128805476D01*
X143764047Y-128853095D01*
X144954523Y-128567380D02*
X145049761Y-128567380D01*
X145145000Y-128615000D01*
X145192619Y-128662619D01*
X145240238Y-128757857D01*
X145287857Y-128948333D01*
X145287857Y-129186428D01*
X145240238Y-129376904D01*
X145192619Y-129472142D01*
X145145000Y-129519761D01*
X145049761Y-129567380D01*
X144954523Y-129567380D01*
X144859285Y-129519761D01*
X144811666Y-129472142D01*
X144764047Y-129376904D01*
X144716428Y-129186428D01*
X144716428Y-128948333D01*
X144764047Y-128757857D01*
X144811666Y-128662619D01*
X144859285Y-128615000D01*
X144954523Y-128567380D01*
X135080476Y-59142380D02*
X135080476Y-59856666D01*
X135032857Y-59999523D01*
X134937619Y-60094761D01*
X134794761Y-60142380D01*
X134699523Y-60142380D01*
X136080476Y-60142380D02*
X135509047Y-60142380D01*
X135794761Y-60142380D02*
X135794761Y-59142380D01*
X135699523Y-59285238D01*
X135604285Y-59380476D01*
X135509047Y-59428095D01*
X136413809Y-59142380D02*
X137080476Y-59142380D01*
X136651904Y-60142380D01*
X122428095Y-62952380D02*
X122428095Y-63761904D01*
X122475714Y-63857142D01*
X122523333Y-63904761D01*
X122618571Y-63952380D01*
X122809047Y-63952380D01*
X122904285Y-63904761D01*
X122951904Y-63857142D01*
X122999523Y-63761904D01*
X122999523Y-62952380D01*
X123904285Y-63285714D02*
X123904285Y-63952380D01*
X123666190Y-62904761D02*
X123428095Y-63619047D01*
X124047142Y-63619047D01*
X114839761Y-85637619D02*
X114744523Y-85590000D01*
X114649285Y-85494761D01*
X114506428Y-85351904D01*
X114411190Y-85304285D01*
X114315952Y-85304285D01*
X114363571Y-85542380D02*
X114268333Y-85494761D01*
X114173095Y-85399523D01*
X114125476Y-85209047D01*
X114125476Y-84875714D01*
X114173095Y-84685238D01*
X114268333Y-84590000D01*
X114363571Y-84542380D01*
X114554047Y-84542380D01*
X114649285Y-84590000D01*
X114744523Y-84685238D01*
X114792142Y-84875714D01*
X114792142Y-85209047D01*
X114744523Y-85399523D01*
X114649285Y-85494761D01*
X114554047Y-85542380D01*
X114363571Y-85542380D01*
X115125476Y-84542380D02*
X115744523Y-84542380D01*
X115411190Y-84923333D01*
X115554047Y-84923333D01*
X115649285Y-84970952D01*
X115696904Y-85018571D01*
X115744523Y-85113809D01*
X115744523Y-85351904D01*
X115696904Y-85447142D01*
X115649285Y-85494761D01*
X115554047Y-85542380D01*
X115268333Y-85542380D01*
X115173095Y-85494761D01*
X115125476Y-85447142D01*
X117832142Y-75905357D02*
X117879761Y-75952976D01*
X117927380Y-76095833D01*
X117927380Y-76191071D01*
X117879761Y-76333928D01*
X117784523Y-76429166D01*
X117689285Y-76476785D01*
X117498809Y-76524404D01*
X117355952Y-76524404D01*
X117165476Y-76476785D01*
X117070238Y-76429166D01*
X116975000Y-76333928D01*
X116927380Y-76191071D01*
X116927380Y-76095833D01*
X116975000Y-75952976D01*
X117022619Y-75905357D01*
X117927380Y-74952976D02*
X117927380Y-75524404D01*
X117927380Y-75238690D02*
X116927380Y-75238690D01*
X117070238Y-75333928D01*
X117165476Y-75429166D01*
X117213095Y-75524404D01*
X116927380Y-74048214D02*
X116927380Y-74524404D01*
X117403571Y-74572023D01*
X117355952Y-74524404D01*
X117308333Y-74429166D01*
X117308333Y-74191071D01*
X117355952Y-74095833D01*
X117403571Y-74048214D01*
X117498809Y-74000595D01*
X117736904Y-74000595D01*
X117832142Y-74048214D01*
X117879761Y-74095833D01*
X117927380Y-74191071D01*
X117927380Y-74429166D01*
X117879761Y-74524404D01*
X117832142Y-74572023D01*
X113324642Y-59667142D02*
X113277023Y-59714761D01*
X113134166Y-59762380D01*
X113038928Y-59762380D01*
X112896071Y-59714761D01*
X112800833Y-59619523D01*
X112753214Y-59524285D01*
X112705595Y-59333809D01*
X112705595Y-59190952D01*
X112753214Y-59000476D01*
X112800833Y-58905238D01*
X112896071Y-58810000D01*
X113038928Y-58762380D01*
X113134166Y-58762380D01*
X113277023Y-58810000D01*
X113324642Y-58857619D01*
X114277023Y-59762380D02*
X113705595Y-59762380D01*
X113991309Y-59762380D02*
X113991309Y-58762380D01*
X113896071Y-58905238D01*
X113800833Y-59000476D01*
X113705595Y-59048095D01*
X115134166Y-59095714D02*
X115134166Y-59762380D01*
X114896071Y-58714761D02*
X114657976Y-59429047D01*
X115277023Y-59429047D01*
X75224642Y-78717142D02*
X75177023Y-78764761D01*
X75034166Y-78812380D01*
X74938928Y-78812380D01*
X74796071Y-78764761D01*
X74700833Y-78669523D01*
X74653214Y-78574285D01*
X74605595Y-78383809D01*
X74605595Y-78240952D01*
X74653214Y-78050476D01*
X74700833Y-77955238D01*
X74796071Y-77860000D01*
X74938928Y-77812380D01*
X75034166Y-77812380D01*
X75177023Y-77860000D01*
X75224642Y-77907619D01*
X76177023Y-78812380D02*
X75605595Y-78812380D01*
X75891309Y-78812380D02*
X75891309Y-77812380D01*
X75796071Y-77955238D01*
X75700833Y-78050476D01*
X75605595Y-78098095D01*
X76510357Y-77812380D02*
X77129404Y-77812380D01*
X76796071Y-78193333D01*
X76938928Y-78193333D01*
X77034166Y-78240952D01*
X77081785Y-78288571D01*
X77129404Y-78383809D01*
X77129404Y-78621904D01*
X77081785Y-78717142D01*
X77034166Y-78764761D01*
X76938928Y-78812380D01*
X76653214Y-78812380D01*
X76557976Y-78764761D01*
X76510357Y-78717142D01*
X130372380Y-92082857D02*
X129896190Y-92416190D01*
X130372380Y-92654285D02*
X129372380Y-92654285D01*
X129372380Y-92273333D01*
X129420000Y-92178095D01*
X129467619Y-92130476D01*
X129562857Y-92082857D01*
X129705714Y-92082857D01*
X129800952Y-92130476D01*
X129848571Y-92178095D01*
X129896190Y-92273333D01*
X129896190Y-92654285D01*
X130372380Y-91130476D02*
X130372380Y-91701904D01*
X130372380Y-91416190D02*
X129372380Y-91416190D01*
X129515238Y-91511428D01*
X129610476Y-91606666D01*
X129658095Y-91701904D01*
X129372380Y-90225714D02*
X129372380Y-90701904D01*
X129848571Y-90749523D01*
X129800952Y-90701904D01*
X129753333Y-90606666D01*
X129753333Y-90368571D01*
X129800952Y-90273333D01*
X129848571Y-90225714D01*
X129943809Y-90178095D01*
X130181904Y-90178095D01*
X130277142Y-90225714D01*
X130324761Y-90273333D01*
X130372380Y-90368571D01*
X130372380Y-90606666D01*
X130324761Y-90701904D01*
X130277142Y-90749523D01*
X136517142Y-82907142D02*
X136469523Y-82954761D01*
X136326666Y-83002380D01*
X136231428Y-83002380D01*
X136088571Y-82954761D01*
X135993333Y-82859523D01*
X135945714Y-82764285D01*
X135898095Y-82573809D01*
X135898095Y-82430952D01*
X135945714Y-82240476D01*
X135993333Y-82145238D01*
X136088571Y-82050000D01*
X136231428Y-82002380D01*
X136326666Y-82002380D01*
X136469523Y-82050000D01*
X136517142Y-82097619D01*
X137469523Y-83002380D02*
X136898095Y-83002380D01*
X137183809Y-83002380D02*
X137183809Y-82002380D01*
X137088571Y-82145238D01*
X136993333Y-82240476D01*
X136898095Y-82288095D01*
X137850476Y-82097619D02*
X137898095Y-82050000D01*
X137993333Y-82002380D01*
X138231428Y-82002380D01*
X138326666Y-82050000D01*
X138374285Y-82097619D01*
X138421904Y-82192857D01*
X138421904Y-82288095D01*
X138374285Y-82430952D01*
X137802857Y-83002380D01*
X138421904Y-83002380D01*
X143383095Y-60777380D02*
X143383095Y-59777380D01*
X143383095Y-60253571D02*
X143954523Y-60253571D01*
X143954523Y-60777380D02*
X143954523Y-59777380D01*
X144859285Y-60110714D02*
X144859285Y-60777380D01*
X144621190Y-59729761D02*
X144383095Y-60444047D01*
X145002142Y-60444047D01*
X53213095Y-60777380D02*
X53213095Y-59777380D01*
X53213095Y-60253571D02*
X53784523Y-60253571D01*
X53784523Y-60777380D02*
X53784523Y-59777380D01*
X54165476Y-59777380D02*
X54784523Y-59777380D01*
X54451190Y-60158333D01*
X54594047Y-60158333D01*
X54689285Y-60205952D01*
X54736904Y-60253571D01*
X54784523Y-60348809D01*
X54784523Y-60586904D01*
X54736904Y-60682142D01*
X54689285Y-60729761D01*
X54594047Y-60777380D01*
X54308333Y-60777380D01*
X54213095Y-60729761D01*
X54165476Y-60682142D01*
X53213095Y-150947380D02*
X53213095Y-149947380D01*
X53213095Y-150423571D02*
X53784523Y-150423571D01*
X53784523Y-150947380D02*
X53784523Y-149947380D01*
X54213095Y-150042619D02*
X54260714Y-149995000D01*
X54355952Y-149947380D01*
X54594047Y-149947380D01*
X54689285Y-149995000D01*
X54736904Y-150042619D01*
X54784523Y-150137857D01*
X54784523Y-150233095D01*
X54736904Y-150375952D01*
X54165476Y-150947380D01*
X54784523Y-150947380D01*
X143383095Y-150947380D02*
X143383095Y-149947380D01*
X143383095Y-150423571D02*
X143954523Y-150423571D01*
X143954523Y-150947380D02*
X143954523Y-149947380D01*
X144954523Y-150947380D02*
X144383095Y-150947380D01*
X144668809Y-150947380D02*
X144668809Y-149947380D01*
X144573571Y-150090238D01*
X144478333Y-150185476D01*
X144383095Y-150233095D01*
X84332380Y-120983333D02*
X85046666Y-120983333D01*
X85189523Y-121030952D01*
X85284761Y-121126190D01*
X85332380Y-121269047D01*
X85332380Y-121364285D01*
X84332380Y-120078571D02*
X84332380Y-120269047D01*
X84380000Y-120364285D01*
X84427619Y-120411904D01*
X84570476Y-120507142D01*
X84760952Y-120554761D01*
X85141904Y-120554761D01*
X85237142Y-120507142D01*
X85284761Y-120459523D01*
X85332380Y-120364285D01*
X85332380Y-120173809D01*
X85284761Y-120078571D01*
X85237142Y-120030952D01*
X85141904Y-119983333D01*
X84903809Y-119983333D01*
X84808571Y-120030952D01*
X84760952Y-120078571D01*
X84713333Y-120173809D01*
X84713333Y-120364285D01*
X84760952Y-120459523D01*
X84808571Y-120507142D01*
X84903809Y-120554761D01*
X124182142Y-102242857D02*
X124229761Y-102290476D01*
X124277380Y-102433333D01*
X124277380Y-102528571D01*
X124229761Y-102671428D01*
X124134523Y-102766666D01*
X124039285Y-102814285D01*
X123848809Y-102861904D01*
X123705952Y-102861904D01*
X123515476Y-102814285D01*
X123420238Y-102766666D01*
X123325000Y-102671428D01*
X123277380Y-102528571D01*
X123277380Y-102433333D01*
X123325000Y-102290476D01*
X123372619Y-102242857D01*
X124277380Y-101290476D02*
X124277380Y-101861904D01*
X124277380Y-101576190D02*
X123277380Y-101576190D01*
X123420238Y-101671428D01*
X123515476Y-101766666D01*
X123563095Y-101861904D01*
X124277380Y-100338095D02*
X124277380Y-100909523D01*
X124277380Y-100623809D02*
X123277380Y-100623809D01*
X123420238Y-100719047D01*
X123515476Y-100814285D01*
X123563095Y-100909523D01*
X133977142Y-105767142D02*
X133929523Y-105814761D01*
X133786666Y-105862380D01*
X133691428Y-105862380D01*
X133548571Y-105814761D01*
X133453333Y-105719523D01*
X133405714Y-105624285D01*
X133358095Y-105433809D01*
X133358095Y-105290952D01*
X133405714Y-105100476D01*
X133453333Y-105005238D01*
X133548571Y-104910000D01*
X133691428Y-104862380D01*
X133786666Y-104862380D01*
X133929523Y-104910000D01*
X133977142Y-104957619D01*
X134929523Y-105862380D02*
X134358095Y-105862380D01*
X134643809Y-105862380D02*
X134643809Y-104862380D01*
X134548571Y-105005238D01*
X134453333Y-105100476D01*
X134358095Y-105148095D01*
X135548571Y-104862380D02*
X135643809Y-104862380D01*
X135739047Y-104910000D01*
X135786666Y-104957619D01*
X135834285Y-105052857D01*
X135881904Y-105243333D01*
X135881904Y-105481428D01*
X135834285Y-105671904D01*
X135786666Y-105767142D01*
X135739047Y-105814761D01*
X135643809Y-105862380D01*
X135548571Y-105862380D01*
X135453333Y-105814761D01*
X135405714Y-105767142D01*
X135358095Y-105671904D01*
X135310476Y-105481428D01*
X135310476Y-105243333D01*
X135358095Y-105052857D01*
X135405714Y-104957619D01*
X135453333Y-104910000D01*
X135548571Y-104862380D01*
X90892380Y-153209523D02*
X91606666Y-153209523D01*
X91749523Y-153257142D01*
X91844761Y-153352380D01*
X91892380Y-153495238D01*
X91892380Y-153590476D01*
X91892380Y-152209523D02*
X91892380Y-152780952D01*
X91892380Y-152495238D02*
X90892380Y-152495238D01*
X91035238Y-152590476D01*
X91130476Y-152685714D01*
X91178095Y-152780952D01*
X90892380Y-151352380D02*
X90892380Y-151542857D01*
X90940000Y-151638095D01*
X90987619Y-151685714D01*
X91130476Y-151780952D01*
X91320952Y-151828571D01*
X91701904Y-151828571D01*
X91797142Y-151780952D01*
X91844761Y-151733333D01*
X91892380Y-151638095D01*
X91892380Y-151447619D01*
X91844761Y-151352380D01*
X91797142Y-151304761D01*
X91701904Y-151257142D01*
X91463809Y-151257142D01*
X91368571Y-151304761D01*
X91320952Y-151352380D01*
X91273333Y-151447619D01*
X91273333Y-151638095D01*
X91320952Y-151733333D01*
X91368571Y-151780952D01*
X91463809Y-151828571D01*
X124323333Y-114022142D02*
X124275714Y-114069761D01*
X124132857Y-114117380D01*
X124037619Y-114117380D01*
X123894761Y-114069761D01*
X123799523Y-113974523D01*
X123751904Y-113879285D01*
X123704285Y-113688809D01*
X123704285Y-113545952D01*
X123751904Y-113355476D01*
X123799523Y-113260238D01*
X123894761Y-113165000D01*
X124037619Y-113117380D01*
X124132857Y-113117380D01*
X124275714Y-113165000D01*
X124323333Y-113212619D01*
X124799523Y-114117380D02*
X124990000Y-114117380D01*
X125085238Y-114069761D01*
X125132857Y-114022142D01*
X125228095Y-113879285D01*
X125275714Y-113688809D01*
X125275714Y-113307857D01*
X125228095Y-113212619D01*
X125180476Y-113165000D01*
X125085238Y-113117380D01*
X124894761Y-113117380D01*
X124799523Y-113165000D01*
X124751904Y-113212619D01*
X124704285Y-113307857D01*
X124704285Y-113545952D01*
X124751904Y-113641190D01*
X124799523Y-113688809D01*
X124894761Y-113736428D01*
X125085238Y-113736428D01*
X125180476Y-113688809D01*
X125228095Y-113641190D01*
X125275714Y-113545952D01*
X131437142Y-80462380D02*
X131103809Y-79986190D01*
X130865714Y-80462380D02*
X130865714Y-79462380D01*
X131246666Y-79462380D01*
X131341904Y-79510000D01*
X131389523Y-79557619D01*
X131437142Y-79652857D01*
X131437142Y-79795714D01*
X131389523Y-79890952D01*
X131341904Y-79938571D01*
X131246666Y-79986190D01*
X130865714Y-79986190D01*
X132389523Y-80462380D02*
X131818095Y-80462380D01*
X132103809Y-80462380D02*
X132103809Y-79462380D01*
X132008571Y-79605238D01*
X131913333Y-79700476D01*
X131818095Y-79748095D01*
X132770476Y-79557619D02*
X132818095Y-79510000D01*
X132913333Y-79462380D01*
X133151428Y-79462380D01*
X133246666Y-79510000D01*
X133294285Y-79557619D01*
X133341904Y-79652857D01*
X133341904Y-79748095D01*
X133294285Y-79890952D01*
X132722857Y-80462380D01*
X133341904Y-80462380D01*
X126562380Y-75905357D02*
X126086190Y-76238690D01*
X126562380Y-76476785D02*
X125562380Y-76476785D01*
X125562380Y-76095833D01*
X125610000Y-76000595D01*
X125657619Y-75952976D01*
X125752857Y-75905357D01*
X125895714Y-75905357D01*
X125990952Y-75952976D01*
X126038571Y-76000595D01*
X126086190Y-76095833D01*
X126086190Y-76476785D01*
X126562380Y-74952976D02*
X126562380Y-75524404D01*
X126562380Y-75238690D02*
X125562380Y-75238690D01*
X125705238Y-75333928D01*
X125800476Y-75429166D01*
X125848095Y-75524404D01*
X126562380Y-74000595D02*
X126562380Y-74572023D01*
X126562380Y-74286309D02*
X125562380Y-74286309D01*
X125705238Y-74381547D01*
X125800476Y-74476785D01*
X125848095Y-74572023D01*
X122879642Y-78812380D02*
X122546309Y-78336190D01*
X122308214Y-78812380D02*
X122308214Y-77812380D01*
X122689166Y-77812380D01*
X122784404Y-77860000D01*
X122832023Y-77907619D01*
X122879642Y-78002857D01*
X122879642Y-78145714D01*
X122832023Y-78240952D01*
X122784404Y-78288571D01*
X122689166Y-78336190D01*
X122308214Y-78336190D01*
X123832023Y-78812380D02*
X123260595Y-78812380D01*
X123546309Y-78812380D02*
X123546309Y-77812380D01*
X123451071Y-77955238D01*
X123355833Y-78050476D01*
X123260595Y-78098095D01*
X124451071Y-77812380D02*
X124546309Y-77812380D01*
X124641547Y-77860000D01*
X124689166Y-77907619D01*
X124736785Y-78002857D01*
X124784404Y-78193333D01*
X124784404Y-78431428D01*
X124736785Y-78621904D01*
X124689166Y-78717142D01*
X124641547Y-78764761D01*
X124546309Y-78812380D01*
X124451071Y-78812380D01*
X124355833Y-78764761D01*
X124308214Y-78717142D01*
X124260595Y-78621904D01*
X124212976Y-78431428D01*
X124212976Y-78193333D01*
X124260595Y-78002857D01*
X124308214Y-77907619D01*
X124355833Y-77860000D01*
X124451071Y-77812380D01*
X117005833Y-78812380D02*
X116672500Y-78336190D01*
X116434404Y-78812380D02*
X116434404Y-77812380D01*
X116815357Y-77812380D01*
X116910595Y-77860000D01*
X116958214Y-77907619D01*
X117005833Y-78002857D01*
X117005833Y-78145714D01*
X116958214Y-78240952D01*
X116910595Y-78288571D01*
X116815357Y-78336190D01*
X116434404Y-78336190D01*
X117482023Y-78812380D02*
X117672500Y-78812380D01*
X117767738Y-78764761D01*
X117815357Y-78717142D01*
X117910595Y-78574285D01*
X117958214Y-78383809D01*
X117958214Y-78002857D01*
X117910595Y-77907619D01*
X117862976Y-77860000D01*
X117767738Y-77812380D01*
X117577261Y-77812380D01*
X117482023Y-77860000D01*
X117434404Y-77907619D01*
X117386785Y-78002857D01*
X117386785Y-78240952D01*
X117434404Y-78336190D01*
X117482023Y-78383809D01*
X117577261Y-78431428D01*
X117767738Y-78431428D01*
X117862976Y-78383809D01*
X117910595Y-78336190D01*
X117958214Y-78240952D01*
X131278333Y-82907142D02*
X131230714Y-82954761D01*
X131087857Y-83002380D01*
X130992619Y-83002380D01*
X130849761Y-82954761D01*
X130754523Y-82859523D01*
X130706904Y-82764285D01*
X130659285Y-82573809D01*
X130659285Y-82430952D01*
X130706904Y-82240476D01*
X130754523Y-82145238D01*
X130849761Y-82050000D01*
X130992619Y-82002380D01*
X131087857Y-82002380D01*
X131230714Y-82050000D01*
X131278333Y-82097619D01*
X131849761Y-82430952D02*
X131754523Y-82383333D01*
X131706904Y-82335714D01*
X131659285Y-82240476D01*
X131659285Y-82192857D01*
X131706904Y-82097619D01*
X131754523Y-82050000D01*
X131849761Y-82002380D01*
X132040238Y-82002380D01*
X132135476Y-82050000D01*
X132183095Y-82097619D01*
X132230714Y-82192857D01*
X132230714Y-82240476D01*
X132183095Y-82335714D01*
X132135476Y-82383333D01*
X132040238Y-82430952D01*
X131849761Y-82430952D01*
X131754523Y-82478571D01*
X131706904Y-82526190D01*
X131659285Y-82621428D01*
X131659285Y-82811904D01*
X131706904Y-82907142D01*
X131754523Y-82954761D01*
X131849761Y-83002380D01*
X132040238Y-83002380D01*
X132135476Y-82954761D01*
X132183095Y-82907142D01*
X132230714Y-82811904D01*
X132230714Y-82621428D01*
X132183095Y-82526190D01*
X132135476Y-82478571D01*
X132040238Y-82430952D01*
X95758095Y-64222380D02*
X95758095Y-65031904D01*
X95805714Y-65127142D01*
X95853333Y-65174761D01*
X95948571Y-65222380D01*
X96139047Y-65222380D01*
X96234285Y-65174761D01*
X96281904Y-65127142D01*
X96329523Y-65031904D01*
X96329523Y-64222380D01*
X96758095Y-64317619D02*
X96805714Y-64270000D01*
X96900952Y-64222380D01*
X97139047Y-64222380D01*
X97234285Y-64270000D01*
X97281904Y-64317619D01*
X97329523Y-64412857D01*
X97329523Y-64508095D01*
X97281904Y-64650952D01*
X96710476Y-65222380D01*
X97329523Y-65222380D01*
X136247142Y-108116666D02*
X136294761Y-108164285D01*
X136342380Y-108307142D01*
X136342380Y-108402380D01*
X136294761Y-108545238D01*
X136199523Y-108640476D01*
X136104285Y-108688095D01*
X135913809Y-108735714D01*
X135770952Y-108735714D01*
X135580476Y-108688095D01*
X135485238Y-108640476D01*
X135390000Y-108545238D01*
X135342380Y-108402380D01*
X135342380Y-108307142D01*
X135390000Y-108164285D01*
X135437619Y-108116666D01*
X135342380Y-107211904D02*
X135342380Y-107688095D01*
X135818571Y-107735714D01*
X135770952Y-107688095D01*
X135723333Y-107592857D01*
X135723333Y-107354761D01*
X135770952Y-107259523D01*
X135818571Y-107211904D01*
X135913809Y-107164285D01*
X136151904Y-107164285D01*
X136247142Y-107211904D01*
X136294761Y-107259523D01*
X136342380Y-107354761D01*
X136342380Y-107592857D01*
X136294761Y-107688095D01*
X136247142Y-107735714D01*
X65230476Y-93642380D02*
X65230476Y-94356666D01*
X65182857Y-94499523D01*
X65087619Y-94594761D01*
X64944761Y-94642380D01*
X64849523Y-94642380D01*
X66230476Y-94642380D02*
X65659047Y-94642380D01*
X65944761Y-94642380D02*
X65944761Y-93642380D01*
X65849523Y-93785238D01*
X65754285Y-93880476D01*
X65659047Y-93928095D01*
X67135238Y-93642380D02*
X66659047Y-93642380D01*
X66611428Y-94118571D01*
X66659047Y-94070952D01*
X66754285Y-94023333D01*
X66992380Y-94023333D01*
X67087619Y-94070952D01*
X67135238Y-94118571D01*
X67182857Y-94213809D01*
X67182857Y-94451904D01*
X67135238Y-94547142D01*
X67087619Y-94594761D01*
X66992380Y-94642380D01*
X66754285Y-94642380D01*
X66659047Y-94594761D01*
X66611428Y-94547142D01*
X50887380Y-101139523D02*
X51601666Y-101139523D01*
X51744523Y-101187142D01*
X51839761Y-101282380D01*
X51887380Y-101425238D01*
X51887380Y-101520476D01*
X51887380Y-100139523D02*
X51887380Y-100710952D01*
X51887380Y-100425238D02*
X50887380Y-100425238D01*
X51030238Y-100520476D01*
X51125476Y-100615714D01*
X51173095Y-100710952D01*
X51220714Y-99282380D02*
X51887380Y-99282380D01*
X50839761Y-99520476D02*
X51554047Y-99758571D01*
X51554047Y-99139523D01*
X143970476Y-102322380D02*
X143970476Y-103036666D01*
X143922857Y-103179523D01*
X143827619Y-103274761D01*
X143684761Y-103322380D01*
X143589523Y-103322380D01*
X144970476Y-103322380D02*
X144399047Y-103322380D01*
X144684761Y-103322380D02*
X144684761Y-102322380D01*
X144589523Y-102465238D01*
X144494285Y-102560476D01*
X144399047Y-102608095D01*
X145351428Y-102417619D02*
X145399047Y-102370000D01*
X145494285Y-102322380D01*
X145732380Y-102322380D01*
X145827619Y-102370000D01*
X145875238Y-102417619D01*
X145922857Y-102512857D01*
X145922857Y-102608095D01*
X145875238Y-102750952D01*
X145303809Y-103322380D01*
X145922857Y-103322380D01*
X89412380Y-112093333D02*
X90126666Y-112093333D01*
X90269523Y-112140952D01*
X90364761Y-112236190D01*
X90412380Y-112379047D01*
X90412380Y-112474285D01*
X90412380Y-111569523D02*
X90412380Y-111379047D01*
X90364761Y-111283809D01*
X90317142Y-111236190D01*
X90174285Y-111140952D01*
X89983809Y-111093333D01*
X89602857Y-111093333D01*
X89507619Y-111140952D01*
X89460000Y-111188571D01*
X89412380Y-111283809D01*
X89412380Y-111474285D01*
X89460000Y-111569523D01*
X89507619Y-111617142D01*
X89602857Y-111664761D01*
X89840952Y-111664761D01*
X89936190Y-111617142D01*
X89983809Y-111569523D01*
X90031428Y-111474285D01*
X90031428Y-111283809D01*
X89983809Y-111188571D01*
X89936190Y-111140952D01*
X89840952Y-111093333D01*
X120180833Y-89637142D02*
X120133214Y-89684761D01*
X119990357Y-89732380D01*
X119895119Y-89732380D01*
X119752261Y-89684761D01*
X119657023Y-89589523D01*
X119609404Y-89494285D01*
X119561785Y-89303809D01*
X119561785Y-89160952D01*
X119609404Y-88970476D01*
X119657023Y-88875238D01*
X119752261Y-88780000D01*
X119895119Y-88732380D01*
X119990357Y-88732380D01*
X120133214Y-88780000D01*
X120180833Y-88827619D01*
X121037976Y-89065714D02*
X121037976Y-89732380D01*
X120799880Y-88684761D02*
X120561785Y-89399047D01*
X121180833Y-89399047D01*
X84590833Y-68047142D02*
X84543214Y-68094761D01*
X84400357Y-68142380D01*
X84305119Y-68142380D01*
X84162261Y-68094761D01*
X84067023Y-67999523D01*
X84019404Y-67904285D01*
X83971785Y-67713809D01*
X83971785Y-67570952D01*
X84019404Y-67380476D01*
X84067023Y-67285238D01*
X84162261Y-67190000D01*
X84305119Y-67142380D01*
X84400357Y-67142380D01*
X84543214Y-67190000D01*
X84590833Y-67237619D01*
X84924166Y-67142380D02*
X85543214Y-67142380D01*
X85209880Y-67523333D01*
X85352738Y-67523333D01*
X85447976Y-67570952D01*
X85495595Y-67618571D01*
X85543214Y-67713809D01*
X85543214Y-67951904D01*
X85495595Y-68047142D01*
X85447976Y-68094761D01*
X85352738Y-68142380D01*
X85067023Y-68142380D01*
X84971785Y-68094761D01*
X84924166Y-68047142D01*
X121753333Y-99417142D02*
X121705714Y-99464761D01*
X121562857Y-99512380D01*
X121467619Y-99512380D01*
X121324761Y-99464761D01*
X121229523Y-99369523D01*
X121181904Y-99274285D01*
X121134285Y-99083809D01*
X121134285Y-98940952D01*
X121181904Y-98750476D01*
X121229523Y-98655238D01*
X121324761Y-98560000D01*
X121467619Y-98512380D01*
X121562857Y-98512380D01*
X121705714Y-98560000D01*
X121753333Y-98607619D01*
X122134285Y-98607619D02*
X122181904Y-98560000D01*
X122277142Y-98512380D01*
X122515238Y-98512380D01*
X122610476Y-98560000D01*
X122658095Y-98607619D01*
X122705714Y-98702857D01*
X122705714Y-98798095D01*
X122658095Y-98940952D01*
X122086666Y-99512380D01*
X122705714Y-99512380D01*
X119213333Y-96877142D02*
X119165714Y-96924761D01*
X119022857Y-96972380D01*
X118927619Y-96972380D01*
X118784761Y-96924761D01*
X118689523Y-96829523D01*
X118641904Y-96734285D01*
X118594285Y-96543809D01*
X118594285Y-96400952D01*
X118641904Y-96210476D01*
X118689523Y-96115238D01*
X118784761Y-96020000D01*
X118927619Y-95972380D01*
X119022857Y-95972380D01*
X119165714Y-96020000D01*
X119213333Y-96067619D01*
X120165714Y-96972380D02*
X119594285Y-96972380D01*
X119880000Y-96972380D02*
X119880000Y-95972380D01*
X119784761Y-96115238D01*
X119689523Y-96210476D01*
X119594285Y-96258095D01*
X77978095Y-71842380D02*
X77978095Y-72651904D01*
X78025714Y-72747142D01*
X78073333Y-72794761D01*
X78168571Y-72842380D01*
X78359047Y-72842380D01*
X78454285Y-72794761D01*
X78501904Y-72747142D01*
X78549523Y-72651904D01*
X78549523Y-71842380D01*
X78930476Y-71842380D02*
X79549523Y-71842380D01*
X79216190Y-72223333D01*
X79359047Y-72223333D01*
X79454285Y-72270952D01*
X79501904Y-72318571D01*
X79549523Y-72413809D01*
X79549523Y-72651904D01*
X79501904Y-72747142D01*
X79454285Y-72794761D01*
X79359047Y-72842380D01*
X79073333Y-72842380D01*
X78978095Y-72794761D01*
X78930476Y-72747142D01*
X111664761Y-76747619D02*
X111569523Y-76700000D01*
X111474285Y-76604761D01*
X111331428Y-76461904D01*
X111236190Y-76414285D01*
X111140952Y-76414285D01*
X111188571Y-76652380D02*
X111093333Y-76604761D01*
X110998095Y-76509523D01*
X110950476Y-76319047D01*
X110950476Y-75985714D01*
X110998095Y-75795238D01*
X111093333Y-75700000D01*
X111188571Y-75652380D01*
X111379047Y-75652380D01*
X111474285Y-75700000D01*
X111569523Y-75795238D01*
X111617142Y-75985714D01*
X111617142Y-76319047D01*
X111569523Y-76509523D01*
X111474285Y-76604761D01*
X111379047Y-76652380D01*
X111188571Y-76652380D01*
X111998095Y-75747619D02*
X112045714Y-75700000D01*
X112140952Y-75652380D01*
X112379047Y-75652380D01*
X112474285Y-75700000D01*
X112521904Y-75747619D01*
X112569523Y-75842857D01*
X112569523Y-75938095D01*
X112521904Y-76080952D01*
X111950476Y-76652380D01*
X112569523Y-76652380D01*
X106584761Y-66587619D02*
X106489523Y-66540000D01*
X106394285Y-66444761D01*
X106251428Y-66301904D01*
X106156190Y-66254285D01*
X106060952Y-66254285D01*
X106108571Y-66492380D02*
X106013333Y-66444761D01*
X105918095Y-66349523D01*
X105870476Y-66159047D01*
X105870476Y-65825714D01*
X105918095Y-65635238D01*
X106013333Y-65540000D01*
X106108571Y-65492380D01*
X106299047Y-65492380D01*
X106394285Y-65540000D01*
X106489523Y-65635238D01*
X106537142Y-65825714D01*
X106537142Y-66159047D01*
X106489523Y-66349523D01*
X106394285Y-66444761D01*
X106299047Y-66492380D01*
X106108571Y-66492380D01*
X107489523Y-66492380D02*
X106918095Y-66492380D01*
X107203809Y-66492380D02*
X107203809Y-65492380D01*
X107108571Y-65635238D01*
X107013333Y-65730476D01*
X106918095Y-65778095D01*
X125927380Y-89210357D02*
X125451190Y-89543690D01*
X125927380Y-89781785D02*
X124927380Y-89781785D01*
X124927380Y-89400833D01*
X124975000Y-89305595D01*
X125022619Y-89257976D01*
X125117857Y-89210357D01*
X125260714Y-89210357D01*
X125355952Y-89257976D01*
X125403571Y-89305595D01*
X125451190Y-89400833D01*
X125451190Y-89781785D01*
X125927380Y-88257976D02*
X125927380Y-88829404D01*
X125927380Y-88543690D02*
X124927380Y-88543690D01*
X125070238Y-88638928D01*
X125165476Y-88734166D01*
X125213095Y-88829404D01*
X125260714Y-87400833D02*
X125927380Y-87400833D01*
X124879761Y-87638928D02*
X125594047Y-87877023D01*
X125594047Y-87257976D01*
X119069642Y-81987380D02*
X118736309Y-81511190D01*
X118498214Y-81987380D02*
X118498214Y-80987380D01*
X118879166Y-80987380D01*
X118974404Y-81035000D01*
X119022023Y-81082619D01*
X119069642Y-81177857D01*
X119069642Y-81320714D01*
X119022023Y-81415952D01*
X118974404Y-81463571D01*
X118879166Y-81511190D01*
X118498214Y-81511190D01*
X120022023Y-81987380D02*
X119450595Y-81987380D01*
X119736309Y-81987380D02*
X119736309Y-80987380D01*
X119641071Y-81130238D01*
X119545833Y-81225476D01*
X119450595Y-81273095D01*
X120355357Y-80987380D02*
X120974404Y-80987380D01*
X120641071Y-81368333D01*
X120783928Y-81368333D01*
X120879166Y-81415952D01*
X120926785Y-81463571D01*
X120974404Y-81558809D01*
X120974404Y-81796904D01*
X120926785Y-81892142D01*
X120879166Y-81939761D01*
X120783928Y-81987380D01*
X120498214Y-81987380D01*
X120402976Y-81939761D01*
X120355357Y-81892142D01*
X66810833Y-72462380D02*
X66477500Y-71986190D01*
X66239404Y-72462380D02*
X66239404Y-71462380D01*
X66620357Y-71462380D01*
X66715595Y-71510000D01*
X66763214Y-71557619D01*
X66810833Y-71652857D01*
X66810833Y-71795714D01*
X66763214Y-71890952D01*
X66715595Y-71938571D01*
X66620357Y-71986190D01*
X66239404Y-71986190D01*
X67382261Y-71890952D02*
X67287023Y-71843333D01*
X67239404Y-71795714D01*
X67191785Y-71700476D01*
X67191785Y-71652857D01*
X67239404Y-71557619D01*
X67287023Y-71510000D01*
X67382261Y-71462380D01*
X67572738Y-71462380D01*
X67667976Y-71510000D01*
X67715595Y-71557619D01*
X67763214Y-71652857D01*
X67763214Y-71700476D01*
X67715595Y-71795714D01*
X67667976Y-71843333D01*
X67572738Y-71890952D01*
X67382261Y-71890952D01*
X67287023Y-71938571D01*
X67239404Y-71986190D01*
X67191785Y-72081428D01*
X67191785Y-72271904D01*
X67239404Y-72367142D01*
X67287023Y-72414761D01*
X67382261Y-72462380D01*
X67572738Y-72462380D01*
X67667976Y-72414761D01*
X67715595Y-72367142D01*
X67763214Y-72271904D01*
X67763214Y-72081428D01*
X67715595Y-71986190D01*
X67667976Y-71938571D01*
X67572738Y-71890952D01*
X68142380Y-81446666D02*
X67666190Y-81780000D01*
X68142380Y-82018095D02*
X67142380Y-82018095D01*
X67142380Y-81637142D01*
X67190000Y-81541904D01*
X67237619Y-81494285D01*
X67332857Y-81446666D01*
X67475714Y-81446666D01*
X67570952Y-81494285D01*
X67618571Y-81541904D01*
X67666190Y-81637142D01*
X67666190Y-82018095D01*
X67142380Y-81113333D02*
X67142380Y-80446666D01*
X68142380Y-80875238D01*
X84590833Y-59762380D02*
X84257500Y-59286190D01*
X84019404Y-59762380D02*
X84019404Y-58762380D01*
X84400357Y-58762380D01*
X84495595Y-58810000D01*
X84543214Y-58857619D01*
X84590833Y-58952857D01*
X84590833Y-59095714D01*
X84543214Y-59190952D01*
X84495595Y-59238571D01*
X84400357Y-59286190D01*
X84019404Y-59286190D01*
X85447976Y-58762380D02*
X85257500Y-58762380D01*
X85162261Y-58810000D01*
X85114642Y-58857619D01*
X85019404Y-59000476D01*
X84971785Y-59190952D01*
X84971785Y-59571904D01*
X85019404Y-59667142D01*
X85067023Y-59714761D01*
X85162261Y-59762380D01*
X85352738Y-59762380D01*
X85447976Y-59714761D01*
X85495595Y-59667142D01*
X85543214Y-59571904D01*
X85543214Y-59333809D01*
X85495595Y-59238571D01*
X85447976Y-59190952D01*
X85352738Y-59143333D01*
X85162261Y-59143333D01*
X85067023Y-59190952D01*
X85019404Y-59238571D01*
X84971785Y-59333809D01*
X76970833Y-59762380D02*
X76637500Y-59286190D01*
X76399404Y-59762380D02*
X76399404Y-58762380D01*
X76780357Y-58762380D01*
X76875595Y-58810000D01*
X76923214Y-58857619D01*
X76970833Y-58952857D01*
X76970833Y-59095714D01*
X76923214Y-59190952D01*
X76875595Y-59238571D01*
X76780357Y-59286190D01*
X76399404Y-59286190D01*
X77875595Y-58762380D02*
X77399404Y-58762380D01*
X77351785Y-59238571D01*
X77399404Y-59190952D01*
X77494642Y-59143333D01*
X77732738Y-59143333D01*
X77827976Y-59190952D01*
X77875595Y-59238571D01*
X77923214Y-59333809D01*
X77923214Y-59571904D01*
X77875595Y-59667142D01*
X77827976Y-59714761D01*
X77732738Y-59762380D01*
X77494642Y-59762380D01*
X77399404Y-59714761D01*
X77351785Y-59667142D01*
X119213333Y-99512380D02*
X118880000Y-99036190D01*
X118641904Y-99512380D02*
X118641904Y-98512380D01*
X119022857Y-98512380D01*
X119118095Y-98560000D01*
X119165714Y-98607619D01*
X119213333Y-98702857D01*
X119213333Y-98845714D01*
X119165714Y-98940952D01*
X119118095Y-98988571D01*
X119022857Y-99036190D01*
X118641904Y-99036190D01*
X120070476Y-98845714D02*
X120070476Y-99512380D01*
X119832380Y-98464761D02*
X119594285Y-99179047D01*
X120213333Y-99179047D01*
X121737380Y-97321666D02*
X121261190Y-97655000D01*
X121737380Y-97893095D02*
X120737380Y-97893095D01*
X120737380Y-97512142D01*
X120785000Y-97416904D01*
X120832619Y-97369285D01*
X120927857Y-97321666D01*
X121070714Y-97321666D01*
X121165952Y-97369285D01*
X121213571Y-97416904D01*
X121261190Y-97512142D01*
X121261190Y-97893095D01*
X120737380Y-96988333D02*
X120737380Y-96369285D01*
X121118333Y-96702619D01*
X121118333Y-96559761D01*
X121165952Y-96464523D01*
X121213571Y-96416904D01*
X121308809Y-96369285D01*
X121546904Y-96369285D01*
X121642142Y-96416904D01*
X121689761Y-96464523D01*
X121737380Y-96559761D01*
X121737380Y-96845476D01*
X121689761Y-96940714D01*
X121642142Y-96988333D01*
X69350833Y-59762380D02*
X69017500Y-59286190D01*
X68779404Y-59762380D02*
X68779404Y-58762380D01*
X69160357Y-58762380D01*
X69255595Y-58810000D01*
X69303214Y-58857619D01*
X69350833Y-58952857D01*
X69350833Y-59095714D01*
X69303214Y-59190952D01*
X69255595Y-59238571D01*
X69160357Y-59286190D01*
X68779404Y-59286190D01*
X69731785Y-58857619D02*
X69779404Y-58810000D01*
X69874642Y-58762380D01*
X70112738Y-58762380D01*
X70207976Y-58810000D01*
X70255595Y-58857619D01*
X70303214Y-58952857D01*
X70303214Y-59048095D01*
X70255595Y-59190952D01*
X69684166Y-59762380D01*
X70303214Y-59762380D01*
X69350833Y-68142380D02*
X69017500Y-67666190D01*
X68779404Y-68142380D02*
X68779404Y-67142380D01*
X69160357Y-67142380D01*
X69255595Y-67190000D01*
X69303214Y-67237619D01*
X69350833Y-67332857D01*
X69350833Y-67475714D01*
X69303214Y-67570952D01*
X69255595Y-67618571D01*
X69160357Y-67666190D01*
X68779404Y-67666190D01*
X70303214Y-68142380D02*
X69731785Y-68142380D01*
X70017500Y-68142380D02*
X70017500Y-67142380D01*
X69922261Y-67285238D01*
X69827023Y-67380476D01*
X69731785Y-67428095D01*
X102552380Y-127333333D02*
X103266666Y-127333333D01*
X103409523Y-127380952D01*
X103504761Y-127476190D01*
X103552380Y-127619047D01*
X103552380Y-127714285D01*
X102552380Y-126952380D02*
X102552380Y-126285714D01*
X103552380Y-126714285D01*
X61896666Y-67822380D02*
X61896666Y-68536666D01*
X61849047Y-68679523D01*
X61753809Y-68774761D01*
X61610952Y-68822380D01*
X61515714Y-68822380D01*
X62849047Y-67822380D02*
X62372857Y-67822380D01*
X62325238Y-68298571D01*
X62372857Y-68250952D01*
X62468095Y-68203333D01*
X62706190Y-68203333D01*
X62801428Y-68250952D01*
X62849047Y-68298571D01*
X62896666Y-68393809D01*
X62896666Y-68631904D01*
X62849047Y-68727142D01*
X62801428Y-68774761D01*
X62706190Y-68822380D01*
X62468095Y-68822380D01*
X62372857Y-68774761D01*
X62325238Y-68727142D01*
X61896666Y-70782380D02*
X61896666Y-71496666D01*
X61849047Y-71639523D01*
X61753809Y-71734761D01*
X61610952Y-71782380D01*
X61515714Y-71782380D01*
X62801428Y-71115714D02*
X62801428Y-71782380D01*
X62563333Y-70734761D02*
X62325238Y-71449047D01*
X62944285Y-71449047D01*
X112696666Y-95742380D02*
X112696666Y-96456666D01*
X112649047Y-96599523D01*
X112553809Y-96694761D01*
X112410952Y-96742380D01*
X112315714Y-96742380D01*
X113125238Y-95837619D02*
X113172857Y-95790000D01*
X113268095Y-95742380D01*
X113506190Y-95742380D01*
X113601428Y-95790000D01*
X113649047Y-95837619D01*
X113696666Y-95932857D01*
X113696666Y-96028095D01*
X113649047Y-96170952D01*
X113077619Y-96742380D01*
X113696666Y-96742380D01*
X102322380Y-142573333D02*
X103036666Y-142573333D01*
X103179523Y-142620952D01*
X103274761Y-142716190D01*
X103322380Y-142859047D01*
X103322380Y-142954285D01*
X103322380Y-141573333D02*
X103322380Y-142144761D01*
X103322380Y-141859047D02*
X102322380Y-141859047D01*
X102465238Y-141954285D01*
X102560476Y-142049523D01*
X102608095Y-142144761D01*
M02*
