G04 #@! TF.GenerationSoftware,KiCad,Pcbnew,5.1.4+dfsg1-1*
G04 #@! TF.CreationDate,2020-04-17T13:06:51+02:00*
G04 #@! TF.ProjectId,Transceiver,5472616e-7363-4656-9976-65722e6b6963,rev?*
G04 #@! TF.SameCoordinates,Original*
G04 #@! TF.FileFunction,Profile,NP*
%FSLAX46Y46*%
G04 Gerber Fmt 4.6, Leading zero omitted, Abs format (unit mm)*
G04 Created by KiCad (PCBNEW 5.1.4+dfsg1-1) date 2020-04-17 13:06:51*
%MOMM*%
%LPD*%
G04 APERTURE LIST*
%ADD10C,0.050000*%
G04 APERTURE END LIST*
D10*
X145811666Y-150495000D02*
G75*
G03X145811666Y-150495000I-1666666J0D01*
G01*
X141645000Y-150495000D02*
X146645000Y-150495000D01*
X144145000Y-147995000D02*
X144145000Y-152995000D01*
X145811666Y-150495000D02*
G75*
G03X145811666Y-150495000I-1666666J0D01*
G01*
X141645000Y-150495000D02*
X146645000Y-150495000D01*
X144145000Y-147995000D02*
X144145000Y-152995000D01*
X145811666Y-150495000D02*
G75*
G03X145811666Y-150495000I-1666666J0D01*
G01*
X141645000Y-150495000D02*
X146645000Y-150495000D01*
X144145000Y-147995000D02*
X144145000Y-152995000D01*
X145811666Y-150495000D02*
G75*
G03X145811666Y-150495000I-1666666J0D01*
G01*
X141645000Y-150495000D02*
X146645000Y-150495000D01*
X144145000Y-147995000D02*
X144145000Y-152995000D01*
X145811666Y-150495000D02*
G75*
G03X145811666Y-150495000I-1666666J0D01*
G01*
X141645000Y-150495000D02*
X146645000Y-150495000D01*
X144145000Y-147995000D02*
X144145000Y-152995000D01*
X145811666Y-150495000D02*
G75*
G03X145811666Y-150495000I-1666666J0D01*
G01*
X141645000Y-150495000D02*
X146645000Y-150495000D01*
X144145000Y-147995000D02*
X144145000Y-152995000D01*
X145811666Y-150495000D02*
G75*
G03X145811666Y-150495000I-1666666J0D01*
G01*
X141645000Y-150495000D02*
X146645000Y-150495000D01*
X144145000Y-147995000D02*
X144145000Y-152995000D01*
X145811666Y-150495000D02*
G75*
G03X145811666Y-150495000I-1666666J0D01*
G01*
X141645000Y-150495000D02*
X146645000Y-150495000D01*
X144145000Y-147995000D02*
X144145000Y-152995000D01*
X49530000Y-55880000D02*
X49530000Y-154940000D01*
X148590000Y-55880000D02*
X148590000Y-154940000D01*
X148590000Y-154940000D02*
X49530000Y-154940000D01*
X49530000Y-55880000D02*
X148590000Y-55880000D01*
M02*
