G04 #@! TF.GenerationSoftware,KiCad,Pcbnew,5.1.4+dfsg1-1*
G04 #@! TF.CreationDate,2020-04-17T13:22:44+02:00*
G04 #@! TF.ProjectId,Transceiver,5472616e-7363-4656-9976-65722e6b6963,rev?*
G04 #@! TF.SameCoordinates,Original*
G04 #@! TF.FileFunction,Soldermask,Bot*
G04 #@! TF.FilePolarity,Negative*
%FSLAX46Y46*%
G04 Gerber Fmt 4.6, Leading zero omitted, Abs format (unit mm)*
G04 Created by KiCad (PCBNEW 5.1.4+dfsg1-1) date 2020-04-17 13:22:44*
%MOMM*%
%LPD*%
G04 APERTURE LIST*
%ADD10C,0.150000*%
%ADD11C,0.450000*%
%ADD12C,0.100000*%
G04 APERTURE END LIST*
D10*
X132379404Y-57937380D02*
X132379404Y-58746904D01*
X132331785Y-58842142D01*
X132284166Y-58889761D01*
X132188928Y-58937380D01*
X131998452Y-58937380D01*
X131903214Y-58889761D01*
X131855595Y-58842142D01*
X131807976Y-58746904D01*
X131807976Y-57937380D01*
X130569880Y-58413571D02*
X129807976Y-58413571D01*
X129807976Y-58699285D02*
X130569880Y-58699285D01*
X128141309Y-57937380D02*
X128331785Y-57937380D01*
X128427023Y-57985000D01*
X128474642Y-58032619D01*
X128569880Y-58175476D01*
X128617500Y-58365952D01*
X128617500Y-58746904D01*
X128569880Y-58842142D01*
X128522261Y-58889761D01*
X128427023Y-58937380D01*
X128236547Y-58937380D01*
X128141309Y-58889761D01*
X128093690Y-58842142D01*
X128046071Y-58746904D01*
X128046071Y-58508809D01*
X128093690Y-58413571D01*
X128141309Y-58365952D01*
X128236547Y-58318333D01*
X128427023Y-58318333D01*
X128522261Y-58365952D01*
X128569880Y-58413571D01*
X128617500Y-58508809D01*
X127617500Y-58556428D02*
X126855595Y-58556428D01*
X126331785Y-58937380D02*
X126141309Y-58937380D01*
X126046071Y-58889761D01*
X125998452Y-58842142D01*
X125903214Y-58699285D01*
X125855595Y-58508809D01*
X125855595Y-58127857D01*
X125903214Y-58032619D01*
X125950833Y-57985000D01*
X126046071Y-57937380D01*
X126236547Y-57937380D01*
X126331785Y-57985000D01*
X126379404Y-58032619D01*
X126427023Y-58127857D01*
X126427023Y-58365952D01*
X126379404Y-58461190D01*
X126331785Y-58508809D01*
X126236547Y-58556428D01*
X126046071Y-58556428D01*
X125950833Y-58508809D01*
X125903214Y-58461190D01*
X125855595Y-58365952D01*
X125569880Y-57937380D02*
X125236547Y-58937380D01*
X124903214Y-57937380D01*
X123807976Y-58937380D02*
X123807976Y-57937380D01*
X123474642Y-58651666D01*
X123141309Y-57937380D01*
X123141309Y-58937380D01*
X122712738Y-58651666D02*
X122236547Y-58651666D01*
X122807976Y-58937380D02*
X122474642Y-57937380D01*
X122141309Y-58937380D01*
X121903214Y-57937380D02*
X121236547Y-58937380D01*
X121236547Y-57937380D02*
X121903214Y-58937380D01*
X120855595Y-58842142D02*
X120807976Y-58889761D01*
X120855595Y-58937380D01*
X120903214Y-58889761D01*
X120855595Y-58842142D01*
X120855595Y-58937380D01*
X120855595Y-58318333D02*
X120807976Y-58365952D01*
X120855595Y-58413571D01*
X120903214Y-58365952D01*
X120855595Y-58318333D01*
X120855595Y-58413571D01*
X119855595Y-58937380D02*
X120427023Y-58937380D01*
X120141309Y-58937380D02*
X120141309Y-57937380D01*
X120236547Y-58080238D01*
X120331785Y-58175476D01*
X120427023Y-58223095D01*
X119474642Y-58032619D02*
X119427023Y-57985000D01*
X119331785Y-57937380D01*
X119093690Y-57937380D01*
X118998452Y-57985000D01*
X118950833Y-58032619D01*
X118903214Y-58127857D01*
X118903214Y-58223095D01*
X118950833Y-58365952D01*
X119522261Y-58937380D01*
X118903214Y-58937380D01*
X118617500Y-57937380D02*
X118284166Y-58937380D01*
X117950833Y-57937380D01*
X132379404Y-60587380D02*
X132379404Y-59587380D01*
X131141309Y-60587380D02*
X131141309Y-59920714D01*
X131141309Y-60015952D02*
X131093690Y-59968333D01*
X130998452Y-59920714D01*
X130855595Y-59920714D01*
X130760357Y-59968333D01*
X130712738Y-60063571D01*
X130712738Y-60587380D01*
X130712738Y-60063571D02*
X130665119Y-59968333D01*
X130569880Y-59920714D01*
X130427023Y-59920714D01*
X130331785Y-59968333D01*
X130284166Y-60063571D01*
X130284166Y-60587380D01*
X129379404Y-60587380D02*
X129379404Y-60063571D01*
X129427023Y-59968333D01*
X129522261Y-59920714D01*
X129712738Y-59920714D01*
X129807976Y-59968333D01*
X129379404Y-60539761D02*
X129474642Y-60587380D01*
X129712738Y-60587380D01*
X129807976Y-60539761D01*
X129855595Y-60444523D01*
X129855595Y-60349285D01*
X129807976Y-60254047D01*
X129712738Y-60206428D01*
X129474642Y-60206428D01*
X129379404Y-60158809D01*
X128998452Y-60587380D02*
X128474642Y-59920714D01*
X128998452Y-59920714D02*
X128474642Y-60587380D01*
X127046071Y-60968333D02*
X127093690Y-60920714D01*
X127188928Y-60777857D01*
X127236547Y-60682619D01*
X127284166Y-60539761D01*
X127331785Y-60301666D01*
X127331785Y-60111190D01*
X127284166Y-59873095D01*
X127236547Y-59730238D01*
X127188928Y-59635000D01*
X127093690Y-59492142D01*
X127046071Y-59444523D01*
X126712738Y-60539761D02*
X126569880Y-60587380D01*
X126331785Y-60587380D01*
X126236547Y-60539761D01*
X126188928Y-60492142D01*
X126141309Y-60396904D01*
X126141309Y-60301666D01*
X126188928Y-60206428D01*
X126236547Y-60158809D01*
X126331785Y-60111190D01*
X126522261Y-60063571D01*
X126617500Y-60015952D01*
X126665119Y-59968333D01*
X126712738Y-59873095D01*
X126712738Y-59777857D01*
X126665119Y-59682619D01*
X126617500Y-59635000D01*
X126522261Y-59587380D01*
X126284166Y-59587380D01*
X126141309Y-59635000D01*
X125284166Y-59920714D02*
X125284166Y-60587380D01*
X125712738Y-59920714D02*
X125712738Y-60444523D01*
X125665119Y-60539761D01*
X125569880Y-60587380D01*
X125427023Y-60587380D01*
X125331785Y-60539761D01*
X125284166Y-60492142D01*
X124807976Y-60587380D02*
X124807976Y-59920714D01*
X124807976Y-60015952D02*
X124760357Y-59968333D01*
X124665119Y-59920714D01*
X124522261Y-59920714D01*
X124427023Y-59968333D01*
X124379404Y-60063571D01*
X124379404Y-60587380D01*
X124379404Y-60063571D02*
X124331785Y-59968333D01*
X124236547Y-59920714D01*
X124093690Y-59920714D01*
X123998452Y-59968333D01*
X123950833Y-60063571D01*
X123950833Y-60587380D01*
X123046071Y-59920714D02*
X123046071Y-60587380D01*
X123474642Y-59920714D02*
X123474642Y-60444523D01*
X123427023Y-60539761D01*
X123331785Y-60587380D01*
X123188928Y-60587380D01*
X123093690Y-60539761D01*
X123046071Y-60492142D01*
X122427023Y-60587380D02*
X122522261Y-60539761D01*
X122569880Y-60444523D01*
X122569880Y-59587380D01*
X121617500Y-60587380D02*
X121617500Y-60063571D01*
X121665119Y-59968333D01*
X121760357Y-59920714D01*
X121950833Y-59920714D01*
X122046071Y-59968333D01*
X121617500Y-60539761D02*
X121712738Y-60587380D01*
X121950833Y-60587380D01*
X122046071Y-60539761D01*
X122093690Y-60444523D01*
X122093690Y-60349285D01*
X122046071Y-60254047D01*
X121950833Y-60206428D01*
X121712738Y-60206428D01*
X121617500Y-60158809D01*
X121284166Y-59920714D02*
X120903214Y-59920714D01*
X121141309Y-59587380D02*
X121141309Y-60444523D01*
X121093690Y-60539761D01*
X120998452Y-60587380D01*
X120903214Y-60587380D01*
X120569880Y-60587380D02*
X120569880Y-59920714D01*
X120569880Y-59587380D02*
X120617500Y-59635000D01*
X120569880Y-59682619D01*
X120522261Y-59635000D01*
X120569880Y-59587380D01*
X120569880Y-59682619D01*
X119950833Y-60587380D02*
X120046071Y-60539761D01*
X120093690Y-60492142D01*
X120141309Y-60396904D01*
X120141309Y-60111190D01*
X120093690Y-60015952D01*
X120046071Y-59968333D01*
X119950833Y-59920714D01*
X119807976Y-59920714D01*
X119712738Y-59968333D01*
X119665119Y-60015952D01*
X119617500Y-60111190D01*
X119617500Y-60396904D01*
X119665119Y-60492142D01*
X119712738Y-60539761D01*
X119807976Y-60587380D01*
X119950833Y-60587380D01*
X119188928Y-59920714D02*
X119188928Y-60587380D01*
X119188928Y-60015952D02*
X119141309Y-59968333D01*
X119046071Y-59920714D01*
X118903214Y-59920714D01*
X118807976Y-59968333D01*
X118760357Y-60063571D01*
X118760357Y-60587380D01*
X118379404Y-60968333D02*
X118331785Y-60920714D01*
X118236547Y-60777857D01*
X118188928Y-60682619D01*
X118141309Y-60539761D01*
X118093690Y-60301666D01*
X118093690Y-60111190D01*
X118141309Y-59873095D01*
X118188928Y-59730238D01*
X118236547Y-59635000D01*
X118331785Y-59492142D01*
X118379404Y-59444523D01*
X116427023Y-59920714D02*
X116427023Y-60587380D01*
X116665119Y-59539761D02*
X116903214Y-60254047D01*
X116284166Y-60254047D01*
X115712738Y-59587380D02*
X115617500Y-59587380D01*
X115522261Y-59635000D01*
X115474642Y-59682619D01*
X115427023Y-59777857D01*
X115379404Y-59968333D01*
X115379404Y-60206428D01*
X115427023Y-60396904D01*
X115474642Y-60492142D01*
X115522261Y-60539761D01*
X115617500Y-60587380D01*
X115712738Y-60587380D01*
X115807976Y-60539761D01*
X115855595Y-60492142D01*
X115903214Y-60396904D01*
X115950833Y-60206428D01*
X115950833Y-59968333D01*
X115903214Y-59777857D01*
X115855595Y-59682619D01*
X115807976Y-59635000D01*
X115712738Y-59587380D01*
X114760357Y-59587380D02*
X114665119Y-59587380D01*
X114569880Y-59635000D01*
X114522261Y-59682619D01*
X114474642Y-59777857D01*
X114427023Y-59968333D01*
X114427023Y-60206428D01*
X114474642Y-60396904D01*
X114522261Y-60492142D01*
X114569880Y-60539761D01*
X114665119Y-60587380D01*
X114760357Y-60587380D01*
X114855595Y-60539761D01*
X114903214Y-60492142D01*
X114950833Y-60396904D01*
X114998452Y-60206428D01*
X114998452Y-59968333D01*
X114950833Y-59777857D01*
X114903214Y-59682619D01*
X114855595Y-59635000D01*
X114760357Y-59587380D01*
X113998452Y-60587380D02*
X113998452Y-59920714D01*
X113998452Y-60015952D02*
X113950833Y-59968333D01*
X113855595Y-59920714D01*
X113712738Y-59920714D01*
X113617500Y-59968333D01*
X113569880Y-60063571D01*
X113569880Y-60587380D01*
X113569880Y-60063571D02*
X113522261Y-59968333D01*
X113427023Y-59920714D01*
X113284166Y-59920714D01*
X113188928Y-59968333D01*
X113141309Y-60063571D01*
X113141309Y-60587380D01*
X112712738Y-60301666D02*
X112236547Y-60301666D01*
X112807976Y-60587380D02*
X112474642Y-59587380D01*
X112141309Y-60587380D01*
X132427023Y-62189761D02*
X132284166Y-62237380D01*
X132046071Y-62237380D01*
X131950833Y-62189761D01*
X131903214Y-62142142D01*
X131855595Y-62046904D01*
X131855595Y-61951666D01*
X131903214Y-61856428D01*
X131950833Y-61808809D01*
X132046071Y-61761190D01*
X132236547Y-61713571D01*
X132331785Y-61665952D01*
X132379404Y-61618333D01*
X132427023Y-61523095D01*
X132427023Y-61427857D01*
X132379404Y-61332619D01*
X132331785Y-61285000D01*
X132236547Y-61237380D01*
X131998452Y-61237380D01*
X131855595Y-61285000D01*
X131046071Y-62189761D02*
X131141309Y-62237380D01*
X131331785Y-62237380D01*
X131427023Y-62189761D01*
X131474642Y-62094523D01*
X131474642Y-61713571D01*
X131427023Y-61618333D01*
X131331785Y-61570714D01*
X131141309Y-61570714D01*
X131046071Y-61618333D01*
X130998452Y-61713571D01*
X130998452Y-61808809D01*
X131474642Y-61904047D01*
X130188928Y-62189761D02*
X130284166Y-62237380D01*
X130474642Y-62237380D01*
X130569880Y-62189761D01*
X130617500Y-62094523D01*
X130617500Y-61713571D01*
X130569880Y-61618333D01*
X130474642Y-61570714D01*
X130284166Y-61570714D01*
X130188928Y-61618333D01*
X130141309Y-61713571D01*
X130141309Y-61808809D01*
X130617500Y-61904047D01*
X128522261Y-61570714D02*
X128522261Y-62380238D01*
X128569880Y-62475476D01*
X128617500Y-62523095D01*
X128712738Y-62570714D01*
X128855595Y-62570714D01*
X128950833Y-62523095D01*
X128522261Y-62189761D02*
X128617500Y-62237380D01*
X128807976Y-62237380D01*
X128903214Y-62189761D01*
X128950833Y-62142142D01*
X128998452Y-62046904D01*
X128998452Y-61761190D01*
X128950833Y-61665952D01*
X128903214Y-61618333D01*
X128807976Y-61570714D01*
X128617500Y-61570714D01*
X128522261Y-61618333D01*
X128046071Y-62237380D02*
X128046071Y-61570714D01*
X128046071Y-61237380D02*
X128093690Y-61285000D01*
X128046071Y-61332619D01*
X127998452Y-61285000D01*
X128046071Y-61237380D01*
X128046071Y-61332619D01*
X127712738Y-61570714D02*
X127331785Y-61570714D01*
X127569880Y-61237380D02*
X127569880Y-62094523D01*
X127522261Y-62189761D01*
X127427023Y-62237380D01*
X127331785Y-62237380D01*
X126236547Y-62237380D02*
X126236547Y-61570714D01*
X126236547Y-61761190D02*
X126188928Y-61665952D01*
X126141309Y-61618333D01*
X126046071Y-61570714D01*
X125950833Y-61570714D01*
X125236547Y-62189761D02*
X125331785Y-62237380D01*
X125522261Y-62237380D01*
X125617500Y-62189761D01*
X125665119Y-62094523D01*
X125665119Y-61713571D01*
X125617500Y-61618333D01*
X125522261Y-61570714D01*
X125331785Y-61570714D01*
X125236547Y-61618333D01*
X125188928Y-61713571D01*
X125188928Y-61808809D01*
X125665119Y-61904047D01*
X124760357Y-61570714D02*
X124760357Y-62570714D01*
X124760357Y-61618333D02*
X124665119Y-61570714D01*
X124474642Y-61570714D01*
X124379404Y-61618333D01*
X124331785Y-61665952D01*
X124284166Y-61761190D01*
X124284166Y-62046904D01*
X124331785Y-62142142D01*
X124379404Y-62189761D01*
X124474642Y-62237380D01*
X124665119Y-62237380D01*
X124760357Y-62189761D01*
X123712738Y-62237380D02*
X123807976Y-62189761D01*
X123855595Y-62142142D01*
X123903214Y-62046904D01*
X123903214Y-61761190D01*
X123855595Y-61665952D01*
X123807976Y-61618333D01*
X123712738Y-61570714D01*
X123569880Y-61570714D01*
X123474642Y-61618333D01*
X123427023Y-61665952D01*
X123379404Y-61761190D01*
X123379404Y-62046904D01*
X123427023Y-62142142D01*
X123474642Y-62189761D01*
X123569880Y-62237380D01*
X123712738Y-62237380D01*
X122331785Y-61570714D02*
X121950833Y-61570714D01*
X122188928Y-62237380D02*
X122188928Y-61380238D01*
X122141309Y-61285000D01*
X122046071Y-61237380D01*
X121950833Y-61237380D01*
X121474642Y-62237380D02*
X121569880Y-62189761D01*
X121617500Y-62142142D01*
X121665119Y-62046904D01*
X121665119Y-61761190D01*
X121617500Y-61665952D01*
X121569880Y-61618333D01*
X121474642Y-61570714D01*
X121331785Y-61570714D01*
X121236547Y-61618333D01*
X121188928Y-61665952D01*
X121141309Y-61761190D01*
X121141309Y-62046904D01*
X121188928Y-62142142D01*
X121236547Y-62189761D01*
X121331785Y-62237380D01*
X121474642Y-62237380D01*
X120712738Y-62237380D02*
X120712738Y-61570714D01*
X120712738Y-61761190D02*
X120665119Y-61665952D01*
X120617500Y-61618333D01*
X120522261Y-61570714D01*
X120427023Y-61570714D01*
X131950833Y-63220714D02*
X131950833Y-63887380D01*
X132379404Y-63220714D02*
X132379404Y-63744523D01*
X132331785Y-63839761D01*
X132236547Y-63887380D01*
X132093690Y-63887380D01*
X131998452Y-63839761D01*
X131950833Y-63792142D01*
X131474642Y-63220714D02*
X131474642Y-64220714D01*
X131474642Y-63268333D02*
X131379404Y-63220714D01*
X131188928Y-63220714D01*
X131093690Y-63268333D01*
X131046071Y-63315952D01*
X130998452Y-63411190D01*
X130998452Y-63696904D01*
X131046071Y-63792142D01*
X131093690Y-63839761D01*
X131188928Y-63887380D01*
X131379404Y-63887380D01*
X131474642Y-63839761D01*
X130141309Y-63887380D02*
X130141309Y-62887380D01*
X130141309Y-63839761D02*
X130236547Y-63887380D01*
X130427023Y-63887380D01*
X130522261Y-63839761D01*
X130569880Y-63792142D01*
X130617500Y-63696904D01*
X130617500Y-63411190D01*
X130569880Y-63315952D01*
X130522261Y-63268333D01*
X130427023Y-63220714D01*
X130236547Y-63220714D01*
X130141309Y-63268333D01*
X129236547Y-63887380D02*
X129236547Y-63363571D01*
X129284166Y-63268333D01*
X129379404Y-63220714D01*
X129569880Y-63220714D01*
X129665119Y-63268333D01*
X129236547Y-63839761D02*
X129331785Y-63887380D01*
X129569880Y-63887380D01*
X129665119Y-63839761D01*
X129712738Y-63744523D01*
X129712738Y-63649285D01*
X129665119Y-63554047D01*
X129569880Y-63506428D01*
X129331785Y-63506428D01*
X129236547Y-63458809D01*
X128903214Y-63220714D02*
X128522261Y-63220714D01*
X128760357Y-62887380D02*
X128760357Y-63744523D01*
X128712738Y-63839761D01*
X128617500Y-63887380D01*
X128522261Y-63887380D01*
X127807976Y-63839761D02*
X127903214Y-63887380D01*
X128093690Y-63887380D01*
X128188928Y-63839761D01*
X128236547Y-63744523D01*
X128236547Y-63363571D01*
X128188928Y-63268333D01*
X128093690Y-63220714D01*
X127903214Y-63220714D01*
X127807976Y-63268333D01*
X127760357Y-63363571D01*
X127760357Y-63458809D01*
X128236547Y-63554047D01*
X126569880Y-63887380D02*
X126569880Y-63220714D01*
X126569880Y-62887380D02*
X126617500Y-62935000D01*
X126569880Y-62982619D01*
X126522261Y-62935000D01*
X126569880Y-62887380D01*
X126569880Y-62982619D01*
X126093690Y-63220714D02*
X126093690Y-63887380D01*
X126093690Y-63315952D02*
X126046071Y-63268333D01*
X125950833Y-63220714D01*
X125807976Y-63220714D01*
X125712738Y-63268333D01*
X125665119Y-63363571D01*
X125665119Y-63887380D01*
X125331785Y-63220714D02*
X124950833Y-63220714D01*
X125188928Y-63887380D02*
X125188928Y-63030238D01*
X125141309Y-62935000D01*
X125046071Y-62887380D01*
X124950833Y-62887380D01*
X124474642Y-63887380D02*
X124569880Y-63839761D01*
X124617500Y-63792142D01*
X124665119Y-63696904D01*
X124665119Y-63411190D01*
X124617500Y-63315952D01*
X124569880Y-63268333D01*
X124474642Y-63220714D01*
X124331785Y-63220714D01*
X124236547Y-63268333D01*
X124188928Y-63315952D01*
X124141309Y-63411190D01*
X124141309Y-63696904D01*
X124188928Y-63792142D01*
X124236547Y-63839761D01*
X124331785Y-63887380D01*
X124474642Y-63887380D01*
X123712738Y-63887380D02*
X123712738Y-63220714D01*
X123712738Y-63411190D02*
X123665119Y-63315952D01*
X123617500Y-63268333D01*
X123522261Y-63220714D01*
X123427023Y-63220714D01*
X123093690Y-63887380D02*
X123093690Y-63220714D01*
X123093690Y-63315952D02*
X123046071Y-63268333D01*
X122950833Y-63220714D01*
X122807976Y-63220714D01*
X122712738Y-63268333D01*
X122665119Y-63363571D01*
X122665119Y-63887380D01*
X122665119Y-63363571D02*
X122617500Y-63268333D01*
X122522261Y-63220714D01*
X122379404Y-63220714D01*
X122284166Y-63268333D01*
X122236547Y-63363571D01*
X122236547Y-63887380D01*
X121331785Y-63887380D02*
X121331785Y-63363571D01*
X121379404Y-63268333D01*
X121474642Y-63220714D01*
X121665119Y-63220714D01*
X121760357Y-63268333D01*
X121331785Y-63839761D02*
X121427023Y-63887380D01*
X121665119Y-63887380D01*
X121760357Y-63839761D01*
X121807976Y-63744523D01*
X121807976Y-63649285D01*
X121760357Y-63554047D01*
X121665119Y-63506428D01*
X121427023Y-63506428D01*
X121331785Y-63458809D01*
X120998452Y-63220714D02*
X120617500Y-63220714D01*
X120855595Y-62887380D02*
X120855595Y-63744523D01*
X120807976Y-63839761D01*
X120712738Y-63887380D01*
X120617500Y-63887380D01*
X120284166Y-63887380D02*
X120284166Y-63220714D01*
X120284166Y-62887380D02*
X120331785Y-62935000D01*
X120284166Y-62982619D01*
X120236547Y-62935000D01*
X120284166Y-62887380D01*
X120284166Y-62982619D01*
X119665119Y-63887380D02*
X119760357Y-63839761D01*
X119807976Y-63792142D01*
X119855595Y-63696904D01*
X119855595Y-63411190D01*
X119807976Y-63315952D01*
X119760357Y-63268333D01*
X119665119Y-63220714D01*
X119522261Y-63220714D01*
X119427023Y-63268333D01*
X119379404Y-63315952D01*
X119331785Y-63411190D01*
X119331785Y-63696904D01*
X119379404Y-63792142D01*
X119427023Y-63839761D01*
X119522261Y-63887380D01*
X119665119Y-63887380D01*
X118903214Y-63220714D02*
X118903214Y-63887380D01*
X118903214Y-63315952D02*
X118855595Y-63268333D01*
X118760357Y-63220714D01*
X118617500Y-63220714D01*
X118522261Y-63268333D01*
X118474642Y-63363571D01*
X118474642Y-63887380D01*
X118046071Y-63839761D02*
X117950833Y-63887380D01*
X117760357Y-63887380D01*
X117665119Y-63839761D01*
X117617500Y-63744523D01*
X117617500Y-63696904D01*
X117665119Y-63601666D01*
X117760357Y-63554047D01*
X117903214Y-63554047D01*
X117998452Y-63506428D01*
X118046071Y-63411190D01*
X118046071Y-63363571D01*
X117998452Y-63268333D01*
X117903214Y-63220714D01*
X117760357Y-63220714D01*
X117665119Y-63268333D01*
X117188928Y-63792142D02*
X117141309Y-63839761D01*
X117188928Y-63887380D01*
X117236547Y-63839761D01*
X117188928Y-63792142D01*
X117188928Y-63887380D01*
X141437857Y-105338571D02*
X141771190Y-105338571D01*
X141771190Y-105862380D02*
X141771190Y-104862380D01*
X141295000Y-104862380D01*
X140914047Y-105862380D02*
X140914047Y-104862380D01*
X140580714Y-105576666D01*
X140247380Y-104862380D01*
X140247380Y-105862380D01*
X138818809Y-104862380D02*
X138628333Y-104862380D01*
X138533095Y-104910000D01*
X138437857Y-105005238D01*
X138390238Y-105195714D01*
X138390238Y-105529047D01*
X138437857Y-105719523D01*
X138533095Y-105814761D01*
X138628333Y-105862380D01*
X138818809Y-105862380D01*
X138914047Y-105814761D01*
X139009285Y-105719523D01*
X139056904Y-105529047D01*
X139056904Y-105195714D01*
X139009285Y-105005238D01*
X138914047Y-104910000D01*
X138818809Y-104862380D01*
X137961666Y-104862380D02*
X137961666Y-105671904D01*
X137914047Y-105767142D01*
X137866428Y-105814761D01*
X137771190Y-105862380D01*
X137580714Y-105862380D01*
X137485476Y-105814761D01*
X137437857Y-105767142D01*
X137390238Y-105671904D01*
X137390238Y-104862380D01*
X137056904Y-104862380D02*
X136485476Y-104862380D01*
X136771190Y-105862380D02*
X136771190Y-104862380D01*
X136152142Y-105862380D02*
X136152142Y-104862380D01*
X135771190Y-104862380D01*
X135675952Y-104910000D01*
X135628333Y-104957619D01*
X135580714Y-105052857D01*
X135580714Y-105195714D01*
X135628333Y-105290952D01*
X135675952Y-105338571D01*
X135771190Y-105386190D01*
X136152142Y-105386190D01*
X135152142Y-104862380D02*
X135152142Y-105671904D01*
X135104523Y-105767142D01*
X135056904Y-105814761D01*
X134961666Y-105862380D01*
X134771190Y-105862380D01*
X134675952Y-105814761D01*
X134628333Y-105767142D01*
X134580714Y-105671904D01*
X134580714Y-104862380D01*
X134247380Y-104862380D02*
X133675952Y-104862380D01*
X133961666Y-105862380D02*
X133961666Y-104862380D01*
X141818809Y-85256666D02*
X141342619Y-85256666D01*
X141914047Y-85542380D02*
X141580714Y-84542380D01*
X141247380Y-85542380D01*
X140914047Y-85542380D02*
X140914047Y-84542380D01*
X140580714Y-85256666D01*
X140247380Y-84542380D01*
X140247380Y-85542380D01*
X138818809Y-84542380D02*
X138628333Y-84542380D01*
X138533095Y-84590000D01*
X138437857Y-84685238D01*
X138390238Y-84875714D01*
X138390238Y-85209047D01*
X138437857Y-85399523D01*
X138533095Y-85494761D01*
X138628333Y-85542380D01*
X138818809Y-85542380D01*
X138914047Y-85494761D01*
X139009285Y-85399523D01*
X139056904Y-85209047D01*
X139056904Y-84875714D01*
X139009285Y-84685238D01*
X138914047Y-84590000D01*
X138818809Y-84542380D01*
X137961666Y-84542380D02*
X137961666Y-85351904D01*
X137914047Y-85447142D01*
X137866428Y-85494761D01*
X137771190Y-85542380D01*
X137580714Y-85542380D01*
X137485476Y-85494761D01*
X137437857Y-85447142D01*
X137390238Y-85351904D01*
X137390238Y-84542380D01*
X137056904Y-84542380D02*
X136485476Y-84542380D01*
X136771190Y-85542380D02*
X136771190Y-84542380D01*
X136152142Y-85542380D02*
X136152142Y-84542380D01*
X135771190Y-84542380D01*
X135675952Y-84590000D01*
X135628333Y-84637619D01*
X135580714Y-84732857D01*
X135580714Y-84875714D01*
X135628333Y-84970952D01*
X135675952Y-85018571D01*
X135771190Y-85066190D01*
X136152142Y-85066190D01*
X135152142Y-84542380D02*
X135152142Y-85351904D01*
X135104523Y-85447142D01*
X135056904Y-85494761D01*
X134961666Y-85542380D01*
X134771190Y-85542380D01*
X134675952Y-85494761D01*
X134628333Y-85447142D01*
X134580714Y-85351904D01*
X134580714Y-84542380D01*
X134247380Y-84542380D02*
X133675952Y-84542380D01*
X133961666Y-85542380D02*
X133961666Y-84542380D01*
D11*
X105624285Y-113465000D02*
X105624285Y-114465000D01*
X104052857Y-114465000D02*
X107052857Y-114465000D01*
X107052857Y-113036428D01*
X106052857Y-110607857D02*
X104052857Y-110607857D01*
X107195714Y-111322142D02*
X105052857Y-112036428D01*
X105052857Y-110179285D01*
X104052857Y-109036428D02*
X107052857Y-109036428D01*
X105624285Y-106607857D02*
X105624285Y-107607857D01*
X104052857Y-107607857D02*
X107052857Y-107607857D01*
X107052857Y-106179285D01*
X105624285Y-104036428D02*
X105481428Y-103607857D01*
X105338571Y-103465000D01*
X105052857Y-103322142D01*
X104624285Y-103322142D01*
X104338571Y-103465000D01*
X104195714Y-103607857D01*
X104052857Y-103893571D01*
X104052857Y-105036428D01*
X107052857Y-105036428D01*
X107052857Y-104036428D01*
X106910000Y-103750714D01*
X106767142Y-103607857D01*
X106481428Y-103465000D01*
X106195714Y-103465000D01*
X105910000Y-103607857D01*
X105767142Y-103750714D01*
X105624285Y-104036428D01*
X105624285Y-105036428D01*
X103767142Y-102750714D02*
X103767142Y-100465000D01*
X107052857Y-100179285D02*
X107052857Y-98465000D01*
X104052857Y-99322142D02*
X107052857Y-99322142D01*
X107052857Y-97750714D02*
X104052857Y-95750714D01*
X107052857Y-95750714D02*
X104052857Y-97750714D01*
X107052857Y-94036428D02*
X107052857Y-93750714D01*
X106910000Y-93465000D01*
X106767142Y-93322142D01*
X106481428Y-93179285D01*
X105910000Y-93036428D01*
X105195714Y-93036428D01*
X104624285Y-93179285D01*
X104338571Y-93322142D01*
X104195714Y-93465000D01*
X104052857Y-93750714D01*
X104052857Y-94036428D01*
X104195714Y-94322142D01*
X104338571Y-94465000D01*
X104624285Y-94607857D01*
X105195714Y-94750714D01*
X105910000Y-94750714D01*
X106481428Y-94607857D01*
X106767142Y-94465000D01*
X106910000Y-94322142D01*
X107052857Y-94036428D01*
X107052857Y-91179285D02*
X107052857Y-90893571D01*
X106910000Y-90607857D01*
X106767142Y-90465000D01*
X106481428Y-90322142D01*
X105910000Y-90179285D01*
X105195714Y-90179285D01*
X104624285Y-90322142D01*
X104338571Y-90465000D01*
X104195714Y-90607857D01*
X104052857Y-90893571D01*
X104052857Y-91179285D01*
X104195714Y-91465000D01*
X104338571Y-91607857D01*
X104624285Y-91750714D01*
X105195714Y-91893571D01*
X105910000Y-91893571D01*
X106481428Y-91750714D01*
X106767142Y-91607857D01*
X106910000Y-91465000D01*
X107052857Y-91179285D01*
X104052857Y-87322142D02*
X104052857Y-89036428D01*
X104052857Y-88179285D02*
X107052857Y-88179285D01*
X106624285Y-88465000D01*
X106338571Y-88750714D01*
X106195714Y-89036428D01*
D10*
X93527619Y-108249285D02*
X94527619Y-108249285D01*
X93527619Y-107820714D02*
X94051428Y-107820714D01*
X94146666Y-107868333D01*
X94194285Y-107963571D01*
X94194285Y-108106428D01*
X94146666Y-108201666D01*
X94099047Y-108249285D01*
X94194285Y-107487380D02*
X94194285Y-107106428D01*
X94527619Y-107344523D02*
X93670476Y-107344523D01*
X93575238Y-107296904D01*
X93527619Y-107201666D01*
X93527619Y-107106428D01*
X94194285Y-106915952D02*
X94194285Y-106534999D01*
X94527619Y-106773095D02*
X93670476Y-106773095D01*
X93575238Y-106725476D01*
X93527619Y-106630238D01*
X93527619Y-106534999D01*
X94194285Y-106201666D02*
X93194285Y-106201666D01*
X94146666Y-106201666D02*
X94194285Y-106106428D01*
X94194285Y-105915952D01*
X94146666Y-105820714D01*
X94099047Y-105773095D01*
X94003809Y-105725476D01*
X93718095Y-105725476D01*
X93622857Y-105773095D01*
X93575238Y-105820714D01*
X93527619Y-105915952D01*
X93527619Y-106106428D01*
X93575238Y-106201666D01*
X93575238Y-105344523D02*
X93527619Y-105249285D01*
X93527619Y-105058809D01*
X93575238Y-104963571D01*
X93670476Y-104915952D01*
X93718095Y-104915952D01*
X93813333Y-104963571D01*
X93860952Y-105058809D01*
X93860952Y-105201666D01*
X93908571Y-105296904D01*
X94003809Y-105344523D01*
X94051428Y-105344523D01*
X94146666Y-105296904D01*
X94194285Y-105201666D01*
X94194285Y-105058809D01*
X94146666Y-104963571D01*
X93622857Y-104487380D02*
X93575238Y-104439761D01*
X93527619Y-104487380D01*
X93575238Y-104534999D01*
X93622857Y-104487380D01*
X93527619Y-104487380D01*
X94146666Y-104487380D02*
X94099047Y-104439761D01*
X94051428Y-104487380D01*
X94099047Y-104534999D01*
X94146666Y-104487380D01*
X94051428Y-104487380D01*
X94575238Y-103296904D02*
X93289523Y-104154047D01*
X94575238Y-102249285D02*
X93289523Y-103106428D01*
X94194285Y-101487380D02*
X93384761Y-101487380D01*
X93289523Y-101534999D01*
X93241904Y-101582619D01*
X93194285Y-101677857D01*
X93194285Y-101820714D01*
X93241904Y-101915952D01*
X93575238Y-101487380D02*
X93527619Y-101582619D01*
X93527619Y-101773095D01*
X93575238Y-101868333D01*
X93622857Y-101915952D01*
X93718095Y-101963571D01*
X94003809Y-101963571D01*
X94099047Y-101915952D01*
X94146666Y-101868333D01*
X94194285Y-101773095D01*
X94194285Y-101582619D01*
X94146666Y-101487380D01*
X93527619Y-101011190D02*
X94194285Y-101011190D01*
X94527619Y-101011190D02*
X94480000Y-101058809D01*
X94432380Y-101011190D01*
X94480000Y-100963571D01*
X94527619Y-101011190D01*
X94432380Y-101011190D01*
X94194285Y-100677857D02*
X94194285Y-100296904D01*
X94527619Y-100534999D02*
X93670476Y-100534999D01*
X93575238Y-100487380D01*
X93527619Y-100392142D01*
X93527619Y-100296904D01*
X93527619Y-99963571D02*
X94527619Y-99963571D01*
X93527619Y-99534999D02*
X94051428Y-99534999D01*
X94146666Y-99582619D01*
X94194285Y-99677857D01*
X94194285Y-99820714D01*
X94146666Y-99915952D01*
X94099047Y-99963571D01*
X94194285Y-98630238D02*
X93527619Y-98630238D01*
X94194285Y-99058809D02*
X93670476Y-99058809D01*
X93575238Y-99011190D01*
X93527619Y-98915952D01*
X93527619Y-98773095D01*
X93575238Y-98677857D01*
X93622857Y-98630238D01*
X93527619Y-98154047D02*
X94527619Y-98154047D01*
X94146666Y-98154047D02*
X94194285Y-98058809D01*
X94194285Y-97868333D01*
X94146666Y-97773095D01*
X94099047Y-97725476D01*
X94003809Y-97677857D01*
X93718095Y-97677857D01*
X93622857Y-97725476D01*
X93575238Y-97773095D01*
X93527619Y-97868333D01*
X93527619Y-98058809D01*
X93575238Y-98154047D01*
X93622857Y-97249285D02*
X93575238Y-97201666D01*
X93527619Y-97249285D01*
X93575238Y-97296904D01*
X93622857Y-97249285D01*
X93527619Y-97249285D01*
X93575238Y-96344523D02*
X93527619Y-96439761D01*
X93527619Y-96630238D01*
X93575238Y-96725476D01*
X93622857Y-96773095D01*
X93718095Y-96820714D01*
X94003809Y-96820714D01*
X94099047Y-96773095D01*
X94146666Y-96725476D01*
X94194285Y-96630238D01*
X94194285Y-96439761D01*
X94146666Y-96344523D01*
X93527619Y-95773095D02*
X93575238Y-95868333D01*
X93622857Y-95915952D01*
X93718095Y-95963571D01*
X94003809Y-95963571D01*
X94099047Y-95915952D01*
X94146666Y-95868333D01*
X94194285Y-95773095D01*
X94194285Y-95630238D01*
X94146666Y-95534999D01*
X94099047Y-95487380D01*
X94003809Y-95439761D01*
X93718095Y-95439761D01*
X93622857Y-95487380D01*
X93575238Y-95534999D01*
X93527619Y-95630238D01*
X93527619Y-95773095D01*
X93527619Y-95011190D02*
X94194285Y-95011190D01*
X94099047Y-95011190D02*
X94146666Y-94963571D01*
X94194285Y-94868333D01*
X94194285Y-94725476D01*
X94146666Y-94630238D01*
X94051428Y-94582619D01*
X93527619Y-94582619D01*
X94051428Y-94582619D02*
X94146666Y-94535000D01*
X94194285Y-94439761D01*
X94194285Y-94296904D01*
X94146666Y-94201666D01*
X94051428Y-94154047D01*
X93527619Y-94154047D01*
X94575238Y-92963571D02*
X93289523Y-93820714D01*
X93575238Y-92677857D02*
X93527619Y-92582619D01*
X93527619Y-92392142D01*
X93575238Y-92296904D01*
X93670476Y-92249285D01*
X93718095Y-92249285D01*
X93813333Y-92296904D01*
X93860952Y-92392142D01*
X93860952Y-92535000D01*
X93908571Y-92630238D01*
X94003809Y-92677857D01*
X94051428Y-92677857D01*
X94146666Y-92630238D01*
X94194285Y-92535000D01*
X94194285Y-92392142D01*
X94146666Y-92296904D01*
X93575238Y-91392142D02*
X93527619Y-91487380D01*
X93527619Y-91677857D01*
X93575238Y-91773095D01*
X93622857Y-91820714D01*
X93718095Y-91868333D01*
X94003809Y-91868333D01*
X94099047Y-91820714D01*
X94146666Y-91773095D01*
X94194285Y-91677857D01*
X94194285Y-91487380D01*
X94146666Y-91392142D01*
X93527619Y-90963571D02*
X94527619Y-90963571D01*
X93527619Y-90534999D02*
X94051428Y-90534999D01*
X94146666Y-90582619D01*
X94194285Y-90677857D01*
X94194285Y-90820714D01*
X94146666Y-90915952D01*
X94099047Y-90963571D01*
X93527619Y-90058809D02*
X94194285Y-90058809D01*
X94527619Y-90058809D02*
X94480000Y-90106428D01*
X94432380Y-90058809D01*
X94480000Y-90011190D01*
X94527619Y-90058809D01*
X94432380Y-90058809D01*
X93527619Y-89154047D02*
X94051428Y-89154047D01*
X94146666Y-89201666D01*
X94194285Y-89296904D01*
X94194285Y-89487380D01*
X94146666Y-89582619D01*
X93575238Y-89154047D02*
X93527619Y-89249285D01*
X93527619Y-89487380D01*
X93575238Y-89582619D01*
X93670476Y-89630238D01*
X93765714Y-89630238D01*
X93860952Y-89582619D01*
X93908571Y-89487380D01*
X93908571Y-89249285D01*
X93956190Y-89154047D01*
X93527619Y-88249285D02*
X94527619Y-88249285D01*
X93575238Y-88249285D02*
X93527619Y-88344523D01*
X93527619Y-88535000D01*
X93575238Y-88630238D01*
X93622857Y-88677857D01*
X93718095Y-88725476D01*
X94003809Y-88725476D01*
X94099047Y-88677857D01*
X94146666Y-88630238D01*
X94194285Y-88535000D01*
X94194285Y-88344523D01*
X94146666Y-88249285D01*
X94575238Y-87058809D02*
X93289523Y-87915952D01*
X93813333Y-86773095D02*
X93813333Y-86296904D01*
X93527619Y-86868333D02*
X94527619Y-86535000D01*
X93527619Y-86201666D01*
X93527619Y-85868333D02*
X94527619Y-85868333D01*
X93813333Y-85535000D01*
X94527619Y-85201666D01*
X93527619Y-85201666D01*
X93432380Y-84963571D02*
X93432380Y-84201666D01*
X94051428Y-83630238D02*
X94051428Y-83963571D01*
X93527619Y-83963571D02*
X94527619Y-83963571D01*
X94527619Y-83487380D01*
X93527619Y-83106428D02*
X94527619Y-83106428D01*
X93813333Y-82773095D01*
X94527619Y-82439761D01*
X93527619Y-82439761D01*
X93432380Y-82201666D02*
X93432380Y-81439761D01*
X94527619Y-81344523D02*
X94527619Y-80773095D01*
X93527619Y-81058809D02*
X94527619Y-81058809D01*
X93527619Y-80439761D02*
X94194285Y-80439761D01*
X94003809Y-80439761D02*
X94099047Y-80392142D01*
X94146666Y-80344523D01*
X94194285Y-80249285D01*
X94194285Y-80154047D01*
X93527619Y-79392142D02*
X94051428Y-79392142D01*
X94146666Y-79439761D01*
X94194285Y-79535000D01*
X94194285Y-79725476D01*
X94146666Y-79820714D01*
X93575238Y-79392142D02*
X93527619Y-79487380D01*
X93527619Y-79725476D01*
X93575238Y-79820714D01*
X93670476Y-79868333D01*
X93765714Y-79868333D01*
X93860952Y-79820714D01*
X93908571Y-79725476D01*
X93908571Y-79487380D01*
X93956190Y-79392142D01*
X94194285Y-78915952D02*
X93527619Y-78915952D01*
X94099047Y-78915952D02*
X94146666Y-78868333D01*
X94194285Y-78773095D01*
X94194285Y-78630238D01*
X94146666Y-78535000D01*
X94051428Y-78487380D01*
X93527619Y-78487380D01*
X93575238Y-78058809D02*
X93527619Y-77963571D01*
X93527619Y-77773095D01*
X93575238Y-77677857D01*
X93670476Y-77630238D01*
X93718095Y-77630238D01*
X93813333Y-77677857D01*
X93860952Y-77773095D01*
X93860952Y-77915952D01*
X93908571Y-78011190D01*
X94003809Y-78058809D01*
X94051428Y-78058809D01*
X94146666Y-78011190D01*
X94194285Y-77915952D01*
X94194285Y-77773095D01*
X94146666Y-77677857D01*
X93575238Y-76773095D02*
X93527619Y-76868333D01*
X93527619Y-77058809D01*
X93575238Y-77154047D01*
X93622857Y-77201666D01*
X93718095Y-77249285D01*
X94003809Y-77249285D01*
X94099047Y-77201666D01*
X94146666Y-77154047D01*
X94194285Y-77058809D01*
X94194285Y-76868333D01*
X94146666Y-76773095D01*
X93575238Y-75963571D02*
X93527619Y-76058809D01*
X93527619Y-76249285D01*
X93575238Y-76344523D01*
X93670476Y-76392142D01*
X94051428Y-76392142D01*
X94146666Y-76344523D01*
X94194285Y-76249285D01*
X94194285Y-76058809D01*
X94146666Y-75963571D01*
X94051428Y-75915952D01*
X93956190Y-75915952D01*
X93860952Y-76392142D01*
X93527619Y-75487380D02*
X94194285Y-75487380D01*
X94527619Y-75487380D02*
X94480000Y-75535000D01*
X94432380Y-75487380D01*
X94480000Y-75439761D01*
X94527619Y-75487380D01*
X94432380Y-75487380D01*
X94194285Y-75106428D02*
X93527619Y-74868333D01*
X94194285Y-74630238D01*
X93575238Y-73868333D02*
X93527619Y-73963571D01*
X93527619Y-74154047D01*
X93575238Y-74249285D01*
X93670476Y-74296904D01*
X94051428Y-74296904D01*
X94146666Y-74249285D01*
X94194285Y-74154047D01*
X94194285Y-73963571D01*
X94146666Y-73868333D01*
X94051428Y-73820714D01*
X93956190Y-73820714D01*
X93860952Y-74296904D01*
X93527619Y-73392142D02*
X94194285Y-73392142D01*
X94003809Y-73392142D02*
X94099047Y-73344523D01*
X94146666Y-73296904D01*
X94194285Y-73201666D01*
X94194285Y-73106428D01*
X93622857Y-72773095D02*
X93575238Y-72725476D01*
X93527619Y-72773095D01*
X93575238Y-72820714D01*
X93622857Y-72773095D01*
X93527619Y-72773095D01*
X94194285Y-71868333D02*
X93384761Y-71868333D01*
X93289523Y-71915952D01*
X93241904Y-71963571D01*
X93194285Y-72058809D01*
X93194285Y-72201666D01*
X93241904Y-72296904D01*
X93575238Y-71868333D02*
X93527619Y-71963571D01*
X93527619Y-72154047D01*
X93575238Y-72249285D01*
X93622857Y-72296904D01*
X93718095Y-72344523D01*
X94003809Y-72344523D01*
X94099047Y-72296904D01*
X94146666Y-72249285D01*
X94194285Y-72154047D01*
X94194285Y-71963571D01*
X94146666Y-71868333D01*
X93527619Y-71392142D02*
X94194285Y-71392142D01*
X94527619Y-71392142D02*
X94480000Y-71439761D01*
X94432380Y-71392142D01*
X94480000Y-71344523D01*
X94527619Y-71392142D01*
X94432380Y-71392142D01*
X94194285Y-71058809D02*
X94194285Y-70677857D01*
X94527619Y-70915952D02*
X93670476Y-70915952D01*
X93575238Y-70868333D01*
X93527619Y-70773095D01*
X93527619Y-70677857D01*
D12*
G36*
X76466000Y-153936000D02*
G01*
X74664000Y-153936000D01*
X74664000Y-152134000D01*
X76466000Y-152134000D01*
X76466000Y-153936000D01*
X76466000Y-153936000D01*
G37*
G36*
X94881000Y-153301000D02*
G01*
X93079000Y-153301000D01*
X93079000Y-151499000D01*
X94881000Y-151499000D01*
X94881000Y-153301000D01*
X94881000Y-153301000D01*
G37*
G36*
X65671000Y-153301000D02*
G01*
X63869000Y-153301000D01*
X63869000Y-151499000D01*
X65671000Y-151499000D01*
X65671000Y-153301000D01*
X65671000Y-153301000D01*
G37*
G36*
X59800443Y-151505519D02*
G01*
X59866627Y-151512037D01*
X60036466Y-151563557D01*
X60192991Y-151647222D01*
X60228729Y-151676552D01*
X60330186Y-151759814D01*
X60413448Y-151861271D01*
X60442778Y-151897009D01*
X60526443Y-152053534D01*
X60577963Y-152223373D01*
X60595359Y-152400000D01*
X60577963Y-152576627D01*
X60526443Y-152746466D01*
X60442778Y-152902991D01*
X60429089Y-152919671D01*
X60330186Y-153040186D01*
X60228729Y-153123448D01*
X60192991Y-153152778D01*
X60036466Y-153236443D01*
X59866627Y-153287963D01*
X59800443Y-153294481D01*
X59734260Y-153301000D01*
X59645740Y-153301000D01*
X59579557Y-153294481D01*
X59513373Y-153287963D01*
X59343534Y-153236443D01*
X59187009Y-153152778D01*
X59151271Y-153123448D01*
X59049814Y-153040186D01*
X58950911Y-152919671D01*
X58937222Y-152902991D01*
X58853557Y-152746466D01*
X58802037Y-152576627D01*
X58784641Y-152400000D01*
X58802037Y-152223373D01*
X58853557Y-152053534D01*
X58937222Y-151897009D01*
X58966552Y-151861271D01*
X59049814Y-151759814D01*
X59151271Y-151676552D01*
X59187009Y-151647222D01*
X59343534Y-151563557D01*
X59513373Y-151512037D01*
X59579557Y-151505519D01*
X59645740Y-151499000D01*
X59734260Y-151499000D01*
X59800443Y-151505519D01*
X59800443Y-151505519D01*
G37*
G36*
X62340443Y-151505519D02*
G01*
X62406627Y-151512037D01*
X62576466Y-151563557D01*
X62732991Y-151647222D01*
X62768729Y-151676552D01*
X62870186Y-151759814D01*
X62953448Y-151861271D01*
X62982778Y-151897009D01*
X63066443Y-152053534D01*
X63117963Y-152223373D01*
X63135359Y-152400000D01*
X63117963Y-152576627D01*
X63066443Y-152746466D01*
X62982778Y-152902991D01*
X62969089Y-152919671D01*
X62870186Y-153040186D01*
X62768729Y-153123448D01*
X62732991Y-153152778D01*
X62576466Y-153236443D01*
X62406627Y-153287963D01*
X62340443Y-153294481D01*
X62274260Y-153301000D01*
X62185740Y-153301000D01*
X62119557Y-153294481D01*
X62053373Y-153287963D01*
X61883534Y-153236443D01*
X61727009Y-153152778D01*
X61691271Y-153123448D01*
X61589814Y-153040186D01*
X61490911Y-152919671D01*
X61477222Y-152902991D01*
X61393557Y-152746466D01*
X61342037Y-152576627D01*
X61324641Y-152400000D01*
X61342037Y-152223373D01*
X61393557Y-152053534D01*
X61477222Y-151897009D01*
X61506552Y-151861271D01*
X61589814Y-151759814D01*
X61691271Y-151676552D01*
X61727009Y-151647222D01*
X61883534Y-151563557D01*
X62053373Y-151512037D01*
X62119557Y-151505519D01*
X62185740Y-151499000D01*
X62274260Y-151499000D01*
X62340443Y-151505519D01*
X62340443Y-151505519D01*
G37*
G36*
X54511694Y-147796860D02*
G01*
X54777437Y-147849719D01*
X55278087Y-148057095D01*
X55458561Y-148177684D01*
X55728660Y-148358158D01*
X56111842Y-148741340D01*
X56292316Y-149011439D01*
X56412905Y-149191913D01*
X56546363Y-149514109D01*
X56620281Y-149692564D01*
X56726000Y-150224049D01*
X56726000Y-150765951D01*
X56690186Y-150946000D01*
X56620281Y-151297437D01*
X56412905Y-151798087D01*
X56356521Y-151882471D01*
X56111842Y-152248660D01*
X55728660Y-152631842D01*
X55465774Y-152807496D01*
X55278087Y-152932905D01*
X54777437Y-153140281D01*
X54511694Y-153193140D01*
X54245951Y-153246000D01*
X53704049Y-153246000D01*
X53438306Y-153193140D01*
X53172563Y-153140281D01*
X52671913Y-152932905D01*
X52484226Y-152807496D01*
X52221340Y-152631842D01*
X51838158Y-152248660D01*
X51593479Y-151882471D01*
X51537095Y-151798087D01*
X51329719Y-151297437D01*
X51259814Y-150946000D01*
X51224000Y-150765951D01*
X51224000Y-150224049D01*
X51329719Y-149692564D01*
X51403637Y-149514109D01*
X51537095Y-149191913D01*
X51657684Y-149011439D01*
X51838158Y-148741340D01*
X52221340Y-148358158D01*
X52491439Y-148177684D01*
X52671913Y-148057095D01*
X53172563Y-147849719D01*
X53438306Y-147796860D01*
X53704049Y-147744000D01*
X54245951Y-147744000D01*
X54511694Y-147796860D01*
X54511694Y-147796860D01*
G37*
G36*
X144681694Y-147796860D02*
G01*
X144947437Y-147849719D01*
X145448087Y-148057095D01*
X145628561Y-148177684D01*
X145898660Y-148358158D01*
X146281842Y-148741340D01*
X146462316Y-149011439D01*
X146582905Y-149191913D01*
X146716363Y-149514109D01*
X146790281Y-149692564D01*
X146896000Y-150224049D01*
X146896000Y-150765951D01*
X146860186Y-150946000D01*
X146790281Y-151297437D01*
X146582905Y-151798087D01*
X146526521Y-151882471D01*
X146281842Y-152248660D01*
X145898660Y-152631842D01*
X145635774Y-152807496D01*
X145448087Y-152932905D01*
X144947437Y-153140281D01*
X144681694Y-153193140D01*
X144415951Y-153246000D01*
X143874049Y-153246000D01*
X143608306Y-153193140D01*
X143342563Y-153140281D01*
X142841913Y-152932905D01*
X142654226Y-152807496D01*
X142391340Y-152631842D01*
X142008158Y-152248660D01*
X141763479Y-151882471D01*
X141707095Y-151798087D01*
X141499719Y-151297437D01*
X141429814Y-150946000D01*
X141394000Y-150765951D01*
X141394000Y-150224049D01*
X141499719Y-149692564D01*
X141573637Y-149514109D01*
X141707095Y-149191913D01*
X141827684Y-149011439D01*
X142008158Y-148741340D01*
X142391340Y-148358158D01*
X142661439Y-148177684D01*
X142841913Y-148057095D01*
X143342563Y-147849719D01*
X143608306Y-147796860D01*
X143874049Y-147744000D01*
X144415951Y-147744000D01*
X144681694Y-147796860D01*
X144681694Y-147796860D01*
G37*
G36*
X139966000Y-152666000D02*
G01*
X138164000Y-152666000D01*
X138164000Y-150864000D01*
X139966000Y-150864000D01*
X139966000Y-152666000D01*
X139966000Y-152666000D01*
G37*
G36*
X114411000Y-143791000D02*
G01*
X111309000Y-143791000D01*
X111309000Y-140689000D01*
X114411000Y-140689000D01*
X114411000Y-143791000D01*
X114411000Y-143791000D01*
G37*
G36*
X133643712Y-140717037D02*
G01*
X133802410Y-140748604D01*
X134084674Y-140865521D01*
X134338705Y-141035259D01*
X134554741Y-141251295D01*
X134724479Y-141505326D01*
X134841396Y-141787590D01*
X134901000Y-142087240D01*
X134901000Y-142392760D01*
X134841396Y-142692410D01*
X134724479Y-142974674D01*
X134554741Y-143228705D01*
X134338705Y-143444741D01*
X134084674Y-143614479D01*
X133802410Y-143731396D01*
X133652585Y-143761198D01*
X133502761Y-143791000D01*
X133197239Y-143791000D01*
X133047415Y-143761198D01*
X132897590Y-143731396D01*
X132615326Y-143614479D01*
X132361295Y-143444741D01*
X132145259Y-143228705D01*
X131975521Y-142974674D01*
X131858604Y-142692410D01*
X131799000Y-142392760D01*
X131799000Y-142087240D01*
X131858604Y-141787590D01*
X131975521Y-141505326D01*
X132145259Y-141251295D01*
X132361295Y-141035259D01*
X132615326Y-140865521D01*
X132897590Y-140748604D01*
X133056288Y-140717037D01*
X133197239Y-140689000D01*
X133502761Y-140689000D01*
X133643712Y-140717037D01*
X133643712Y-140717037D01*
G37*
G36*
X62340442Y-141345518D02*
G01*
X62406627Y-141352037D01*
X62576466Y-141403557D01*
X62732991Y-141487222D01*
X62755053Y-141505328D01*
X62870186Y-141599814D01*
X62953448Y-141701271D01*
X62982778Y-141737009D01*
X63066443Y-141893534D01*
X63117963Y-142063373D01*
X63135359Y-142240000D01*
X63117963Y-142416627D01*
X63066443Y-142586466D01*
X62982778Y-142742991D01*
X62953448Y-142778729D01*
X62870186Y-142880186D01*
X62768729Y-142963448D01*
X62732991Y-142992778D01*
X62576466Y-143076443D01*
X62406627Y-143127963D01*
X62340443Y-143134481D01*
X62274260Y-143141000D01*
X62185740Y-143141000D01*
X62119557Y-143134481D01*
X62053373Y-143127963D01*
X61883534Y-143076443D01*
X61727009Y-142992778D01*
X61691271Y-142963448D01*
X61589814Y-142880186D01*
X61506552Y-142778729D01*
X61477222Y-142742991D01*
X61393557Y-142586466D01*
X61342037Y-142416627D01*
X61324641Y-142240000D01*
X61342037Y-142063373D01*
X61393557Y-141893534D01*
X61477222Y-141737009D01*
X61506552Y-141701271D01*
X61589814Y-141599814D01*
X61704947Y-141505328D01*
X61727009Y-141487222D01*
X61883534Y-141403557D01*
X62053373Y-141352037D01*
X62119558Y-141345518D01*
X62185740Y-141339000D01*
X62274260Y-141339000D01*
X62340442Y-141345518D01*
X62340442Y-141345518D01*
G37*
G36*
X72500442Y-141345518D02*
G01*
X72566627Y-141352037D01*
X72736466Y-141403557D01*
X72892991Y-141487222D01*
X72915053Y-141505328D01*
X73030186Y-141599814D01*
X73113448Y-141701271D01*
X73142778Y-141737009D01*
X73226443Y-141893534D01*
X73277963Y-142063373D01*
X73295359Y-142240000D01*
X73277963Y-142416627D01*
X73226443Y-142586466D01*
X73142778Y-142742991D01*
X73113448Y-142778729D01*
X73030186Y-142880186D01*
X72928729Y-142963448D01*
X72892991Y-142992778D01*
X72736466Y-143076443D01*
X72566627Y-143127963D01*
X72500443Y-143134481D01*
X72434260Y-143141000D01*
X72345740Y-143141000D01*
X72279557Y-143134481D01*
X72213373Y-143127963D01*
X72043534Y-143076443D01*
X71887009Y-142992778D01*
X71851271Y-142963448D01*
X71749814Y-142880186D01*
X71666552Y-142778729D01*
X71637222Y-142742991D01*
X71553557Y-142586466D01*
X71502037Y-142416627D01*
X71484641Y-142240000D01*
X71502037Y-142063373D01*
X71553557Y-141893534D01*
X71637222Y-141737009D01*
X71666552Y-141701271D01*
X71749814Y-141599814D01*
X71864947Y-141505328D01*
X71887009Y-141487222D01*
X72043534Y-141403557D01*
X72213373Y-141352037D01*
X72279558Y-141345518D01*
X72345740Y-141339000D01*
X72434260Y-141339000D01*
X72500442Y-141345518D01*
X72500442Y-141345518D01*
G37*
G36*
X85200442Y-141345518D02*
G01*
X85266627Y-141352037D01*
X85436466Y-141403557D01*
X85592991Y-141487222D01*
X85615053Y-141505328D01*
X85730186Y-141599814D01*
X85813448Y-141701271D01*
X85842778Y-141737009D01*
X85926443Y-141893534D01*
X85977963Y-142063373D01*
X85995359Y-142240000D01*
X85977963Y-142416627D01*
X85926443Y-142586466D01*
X85842778Y-142742991D01*
X85813448Y-142778729D01*
X85730186Y-142880186D01*
X85628729Y-142963448D01*
X85592991Y-142992778D01*
X85436466Y-143076443D01*
X85266627Y-143127963D01*
X85200443Y-143134481D01*
X85134260Y-143141000D01*
X85045740Y-143141000D01*
X84979557Y-143134481D01*
X84913373Y-143127963D01*
X84743534Y-143076443D01*
X84587009Y-142992778D01*
X84551271Y-142963448D01*
X84449814Y-142880186D01*
X84366552Y-142778729D01*
X84337222Y-142742991D01*
X84253557Y-142586466D01*
X84202037Y-142416627D01*
X84184641Y-142240000D01*
X84202037Y-142063373D01*
X84253557Y-141893534D01*
X84337222Y-141737009D01*
X84366552Y-141701271D01*
X84449814Y-141599814D01*
X84564947Y-141505328D01*
X84587009Y-141487222D01*
X84743534Y-141403557D01*
X84913373Y-141352037D01*
X84979558Y-141345518D01*
X85045740Y-141339000D01*
X85134260Y-141339000D01*
X85200442Y-141345518D01*
X85200442Y-141345518D01*
G37*
G36*
X67420442Y-141345518D02*
G01*
X67486627Y-141352037D01*
X67656466Y-141403557D01*
X67812991Y-141487222D01*
X67835053Y-141505328D01*
X67950186Y-141599814D01*
X68033448Y-141701271D01*
X68062778Y-141737009D01*
X68146443Y-141893534D01*
X68197963Y-142063373D01*
X68215359Y-142240000D01*
X68197963Y-142416627D01*
X68146443Y-142586466D01*
X68062778Y-142742991D01*
X68033448Y-142778729D01*
X67950186Y-142880186D01*
X67848729Y-142963448D01*
X67812991Y-142992778D01*
X67656466Y-143076443D01*
X67486627Y-143127963D01*
X67420443Y-143134481D01*
X67354260Y-143141000D01*
X67265740Y-143141000D01*
X67199557Y-143134481D01*
X67133373Y-143127963D01*
X66963534Y-143076443D01*
X66807009Y-142992778D01*
X66771271Y-142963448D01*
X66669814Y-142880186D01*
X66586552Y-142778729D01*
X66557222Y-142742991D01*
X66473557Y-142586466D01*
X66422037Y-142416627D01*
X66404641Y-142240000D01*
X66422037Y-142063373D01*
X66473557Y-141893534D01*
X66557222Y-141737009D01*
X66586552Y-141701271D01*
X66669814Y-141599814D01*
X66784947Y-141505328D01*
X66807009Y-141487222D01*
X66963534Y-141403557D01*
X67133373Y-141352037D01*
X67199558Y-141345518D01*
X67265740Y-141339000D01*
X67354260Y-141339000D01*
X67420442Y-141345518D01*
X67420442Y-141345518D01*
G37*
G36*
X69960442Y-141345518D02*
G01*
X70026627Y-141352037D01*
X70196466Y-141403557D01*
X70352991Y-141487222D01*
X70375053Y-141505328D01*
X70490186Y-141599814D01*
X70573448Y-141701271D01*
X70602778Y-141737009D01*
X70686443Y-141893534D01*
X70737963Y-142063373D01*
X70755359Y-142240000D01*
X70737963Y-142416627D01*
X70686443Y-142586466D01*
X70602778Y-142742991D01*
X70573448Y-142778729D01*
X70490186Y-142880186D01*
X70388729Y-142963448D01*
X70352991Y-142992778D01*
X70196466Y-143076443D01*
X70026627Y-143127963D01*
X69960443Y-143134481D01*
X69894260Y-143141000D01*
X69805740Y-143141000D01*
X69739557Y-143134481D01*
X69673373Y-143127963D01*
X69503534Y-143076443D01*
X69347009Y-142992778D01*
X69311271Y-142963448D01*
X69209814Y-142880186D01*
X69126552Y-142778729D01*
X69097222Y-142742991D01*
X69013557Y-142586466D01*
X68962037Y-142416627D01*
X68944641Y-142240000D01*
X68962037Y-142063373D01*
X69013557Y-141893534D01*
X69097222Y-141737009D01*
X69126552Y-141701271D01*
X69209814Y-141599814D01*
X69324947Y-141505328D01*
X69347009Y-141487222D01*
X69503534Y-141403557D01*
X69673373Y-141352037D01*
X69739558Y-141345518D01*
X69805740Y-141339000D01*
X69894260Y-141339000D01*
X69960442Y-141345518D01*
X69960442Y-141345518D01*
G37*
G36*
X75040442Y-141345518D02*
G01*
X75106627Y-141352037D01*
X75276466Y-141403557D01*
X75432991Y-141487222D01*
X75455053Y-141505328D01*
X75570186Y-141599814D01*
X75653448Y-141701271D01*
X75682778Y-141737009D01*
X75766443Y-141893534D01*
X75817963Y-142063373D01*
X75835359Y-142240000D01*
X75817963Y-142416627D01*
X75766443Y-142586466D01*
X75682778Y-142742991D01*
X75653448Y-142778729D01*
X75570186Y-142880186D01*
X75468729Y-142963448D01*
X75432991Y-142992778D01*
X75276466Y-143076443D01*
X75106627Y-143127963D01*
X75040443Y-143134481D01*
X74974260Y-143141000D01*
X74885740Y-143141000D01*
X74819557Y-143134481D01*
X74753373Y-143127963D01*
X74583534Y-143076443D01*
X74427009Y-142992778D01*
X74391271Y-142963448D01*
X74289814Y-142880186D01*
X74206552Y-142778729D01*
X74177222Y-142742991D01*
X74093557Y-142586466D01*
X74042037Y-142416627D01*
X74024641Y-142240000D01*
X74042037Y-142063373D01*
X74093557Y-141893534D01*
X74177222Y-141737009D01*
X74206552Y-141701271D01*
X74289814Y-141599814D01*
X74404947Y-141505328D01*
X74427009Y-141487222D01*
X74583534Y-141403557D01*
X74753373Y-141352037D01*
X74819558Y-141345518D01*
X74885740Y-141339000D01*
X74974260Y-141339000D01*
X75040442Y-141345518D01*
X75040442Y-141345518D01*
G37*
G36*
X77580442Y-141345518D02*
G01*
X77646627Y-141352037D01*
X77816466Y-141403557D01*
X77972991Y-141487222D01*
X77995053Y-141505328D01*
X78110186Y-141599814D01*
X78193448Y-141701271D01*
X78222778Y-141737009D01*
X78306443Y-141893534D01*
X78357963Y-142063373D01*
X78375359Y-142240000D01*
X78357963Y-142416627D01*
X78306443Y-142586466D01*
X78222778Y-142742991D01*
X78193448Y-142778729D01*
X78110186Y-142880186D01*
X78008729Y-142963448D01*
X77972991Y-142992778D01*
X77816466Y-143076443D01*
X77646627Y-143127963D01*
X77580443Y-143134481D01*
X77514260Y-143141000D01*
X77425740Y-143141000D01*
X77359557Y-143134481D01*
X77293373Y-143127963D01*
X77123534Y-143076443D01*
X76967009Y-142992778D01*
X76931271Y-142963448D01*
X76829814Y-142880186D01*
X76746552Y-142778729D01*
X76717222Y-142742991D01*
X76633557Y-142586466D01*
X76582037Y-142416627D01*
X76564641Y-142240000D01*
X76582037Y-142063373D01*
X76633557Y-141893534D01*
X76717222Y-141737009D01*
X76746552Y-141701271D01*
X76829814Y-141599814D01*
X76944947Y-141505328D01*
X76967009Y-141487222D01*
X77123534Y-141403557D01*
X77293373Y-141352037D01*
X77359558Y-141345518D01*
X77425740Y-141339000D01*
X77514260Y-141339000D01*
X77580442Y-141345518D01*
X77580442Y-141345518D01*
G37*
G36*
X80120442Y-141345518D02*
G01*
X80186627Y-141352037D01*
X80356466Y-141403557D01*
X80512991Y-141487222D01*
X80535053Y-141505328D01*
X80650186Y-141599814D01*
X80733448Y-141701271D01*
X80762778Y-141737009D01*
X80846443Y-141893534D01*
X80897963Y-142063373D01*
X80915359Y-142240000D01*
X80897963Y-142416627D01*
X80846443Y-142586466D01*
X80762778Y-142742991D01*
X80733448Y-142778729D01*
X80650186Y-142880186D01*
X80548729Y-142963448D01*
X80512991Y-142992778D01*
X80356466Y-143076443D01*
X80186627Y-143127963D01*
X80120443Y-143134481D01*
X80054260Y-143141000D01*
X79965740Y-143141000D01*
X79899557Y-143134481D01*
X79833373Y-143127963D01*
X79663534Y-143076443D01*
X79507009Y-142992778D01*
X79471271Y-142963448D01*
X79369814Y-142880186D01*
X79286552Y-142778729D01*
X79257222Y-142742991D01*
X79173557Y-142586466D01*
X79122037Y-142416627D01*
X79104641Y-142240000D01*
X79122037Y-142063373D01*
X79173557Y-141893534D01*
X79257222Y-141737009D01*
X79286552Y-141701271D01*
X79369814Y-141599814D01*
X79484947Y-141505328D01*
X79507009Y-141487222D01*
X79663534Y-141403557D01*
X79833373Y-141352037D01*
X79899558Y-141345518D01*
X79965740Y-141339000D01*
X80054260Y-141339000D01*
X80120442Y-141345518D01*
X80120442Y-141345518D01*
G37*
G36*
X100440442Y-141345518D02*
G01*
X100506627Y-141352037D01*
X100676466Y-141403557D01*
X100832991Y-141487222D01*
X100855053Y-141505328D01*
X100970186Y-141599814D01*
X101053448Y-141701271D01*
X101082778Y-141737009D01*
X101166443Y-141893534D01*
X101217963Y-142063373D01*
X101235359Y-142240000D01*
X101217963Y-142416627D01*
X101166443Y-142586466D01*
X101082778Y-142742991D01*
X101053448Y-142778729D01*
X100970186Y-142880186D01*
X100868729Y-142963448D01*
X100832991Y-142992778D01*
X100676466Y-143076443D01*
X100506627Y-143127963D01*
X100440443Y-143134481D01*
X100374260Y-143141000D01*
X100285740Y-143141000D01*
X100219557Y-143134481D01*
X100153373Y-143127963D01*
X99983534Y-143076443D01*
X99827009Y-142992778D01*
X99791271Y-142963448D01*
X99689814Y-142880186D01*
X99606552Y-142778729D01*
X99577222Y-142742991D01*
X99493557Y-142586466D01*
X99442037Y-142416627D01*
X99424641Y-142240000D01*
X99442037Y-142063373D01*
X99493557Y-141893534D01*
X99577222Y-141737009D01*
X99606552Y-141701271D01*
X99689814Y-141599814D01*
X99804947Y-141505328D01*
X99827009Y-141487222D01*
X99983534Y-141403557D01*
X100153373Y-141352037D01*
X100219558Y-141345518D01*
X100285740Y-141339000D01*
X100374260Y-141339000D01*
X100440442Y-141345518D01*
X100440442Y-141345518D01*
G37*
G36*
X82660442Y-141345518D02*
G01*
X82726627Y-141352037D01*
X82896466Y-141403557D01*
X83052991Y-141487222D01*
X83075053Y-141505328D01*
X83190186Y-141599814D01*
X83273448Y-141701271D01*
X83302778Y-141737009D01*
X83386443Y-141893534D01*
X83437963Y-142063373D01*
X83455359Y-142240000D01*
X83437963Y-142416627D01*
X83386443Y-142586466D01*
X83302778Y-142742991D01*
X83273448Y-142778729D01*
X83190186Y-142880186D01*
X83088729Y-142963448D01*
X83052991Y-142992778D01*
X82896466Y-143076443D01*
X82726627Y-143127963D01*
X82660443Y-143134481D01*
X82594260Y-143141000D01*
X82505740Y-143141000D01*
X82439557Y-143134481D01*
X82373373Y-143127963D01*
X82203534Y-143076443D01*
X82047009Y-142992778D01*
X82011271Y-142963448D01*
X81909814Y-142880186D01*
X81826552Y-142778729D01*
X81797222Y-142742991D01*
X81713557Y-142586466D01*
X81662037Y-142416627D01*
X81644641Y-142240000D01*
X81662037Y-142063373D01*
X81713557Y-141893534D01*
X81797222Y-141737009D01*
X81826552Y-141701271D01*
X81909814Y-141599814D01*
X82024947Y-141505328D01*
X82047009Y-141487222D01*
X82203534Y-141403557D01*
X82373373Y-141352037D01*
X82439558Y-141345518D01*
X82505740Y-141339000D01*
X82594260Y-141339000D01*
X82660442Y-141345518D01*
X82660442Y-141345518D01*
G37*
G36*
X57260442Y-141345518D02*
G01*
X57326627Y-141352037D01*
X57496466Y-141403557D01*
X57652991Y-141487222D01*
X57675053Y-141505328D01*
X57790186Y-141599814D01*
X57873448Y-141701271D01*
X57902778Y-141737009D01*
X57986443Y-141893534D01*
X58037963Y-142063373D01*
X58055359Y-142240000D01*
X58037963Y-142416627D01*
X57986443Y-142586466D01*
X57902778Y-142742991D01*
X57873448Y-142778729D01*
X57790186Y-142880186D01*
X57688729Y-142963448D01*
X57652991Y-142992778D01*
X57496466Y-143076443D01*
X57326627Y-143127963D01*
X57260443Y-143134481D01*
X57194260Y-143141000D01*
X57105740Y-143141000D01*
X57039557Y-143134481D01*
X56973373Y-143127963D01*
X56803534Y-143076443D01*
X56647009Y-142992778D01*
X56611271Y-142963448D01*
X56509814Y-142880186D01*
X56426552Y-142778729D01*
X56397222Y-142742991D01*
X56313557Y-142586466D01*
X56262037Y-142416627D01*
X56244641Y-142240000D01*
X56262037Y-142063373D01*
X56313557Y-141893534D01*
X56397222Y-141737009D01*
X56426552Y-141701271D01*
X56509814Y-141599814D01*
X56624947Y-141505328D01*
X56647009Y-141487222D01*
X56803534Y-141403557D01*
X56973373Y-141352037D01*
X57039558Y-141345518D01*
X57105740Y-141339000D01*
X57194260Y-141339000D01*
X57260442Y-141345518D01*
X57260442Y-141345518D01*
G37*
G36*
X54720442Y-141345518D02*
G01*
X54786627Y-141352037D01*
X54956466Y-141403557D01*
X55112991Y-141487222D01*
X55135053Y-141505328D01*
X55250186Y-141599814D01*
X55333448Y-141701271D01*
X55362778Y-141737009D01*
X55446443Y-141893534D01*
X55497963Y-142063373D01*
X55515359Y-142240000D01*
X55497963Y-142416627D01*
X55446443Y-142586466D01*
X55362778Y-142742991D01*
X55333448Y-142778729D01*
X55250186Y-142880186D01*
X55148729Y-142963448D01*
X55112991Y-142992778D01*
X54956466Y-143076443D01*
X54786627Y-143127963D01*
X54720443Y-143134481D01*
X54654260Y-143141000D01*
X54565740Y-143141000D01*
X54499557Y-143134481D01*
X54433373Y-143127963D01*
X54263534Y-143076443D01*
X54107009Y-142992778D01*
X54071271Y-142963448D01*
X53969814Y-142880186D01*
X53886552Y-142778729D01*
X53857222Y-142742991D01*
X53773557Y-142586466D01*
X53722037Y-142416627D01*
X53704641Y-142240000D01*
X53722037Y-142063373D01*
X53773557Y-141893534D01*
X53857222Y-141737009D01*
X53886552Y-141701271D01*
X53969814Y-141599814D01*
X54084947Y-141505328D01*
X54107009Y-141487222D01*
X54263534Y-141403557D01*
X54433373Y-141352037D01*
X54499558Y-141345518D01*
X54565740Y-141339000D01*
X54654260Y-141339000D01*
X54720442Y-141345518D01*
X54720442Y-141345518D01*
G37*
G36*
X52971000Y-143141000D02*
G01*
X51169000Y-143141000D01*
X51169000Y-141339000D01*
X52971000Y-141339000D01*
X52971000Y-143141000D01*
X52971000Y-143141000D01*
G37*
G36*
X64880442Y-141345518D02*
G01*
X64946627Y-141352037D01*
X65116466Y-141403557D01*
X65272991Y-141487222D01*
X65295053Y-141505328D01*
X65410186Y-141599814D01*
X65493448Y-141701271D01*
X65522778Y-141737009D01*
X65606443Y-141893534D01*
X65657963Y-142063373D01*
X65675359Y-142240000D01*
X65657963Y-142416627D01*
X65606443Y-142586466D01*
X65522778Y-142742991D01*
X65493448Y-142778729D01*
X65410186Y-142880186D01*
X65308729Y-142963448D01*
X65272991Y-142992778D01*
X65116466Y-143076443D01*
X64946627Y-143127963D01*
X64880443Y-143134481D01*
X64814260Y-143141000D01*
X64725740Y-143141000D01*
X64659557Y-143134481D01*
X64593373Y-143127963D01*
X64423534Y-143076443D01*
X64267009Y-142992778D01*
X64231271Y-142963448D01*
X64129814Y-142880186D01*
X64046552Y-142778729D01*
X64017222Y-142742991D01*
X63933557Y-142586466D01*
X63882037Y-142416627D01*
X63864641Y-142240000D01*
X63882037Y-142063373D01*
X63933557Y-141893534D01*
X64017222Y-141737009D01*
X64046552Y-141701271D01*
X64129814Y-141599814D01*
X64244947Y-141505328D01*
X64267009Y-141487222D01*
X64423534Y-141403557D01*
X64593373Y-141352037D01*
X64659558Y-141345518D01*
X64725740Y-141339000D01*
X64814260Y-141339000D01*
X64880442Y-141345518D01*
X64880442Y-141345518D01*
G37*
G36*
X97900442Y-141345518D02*
G01*
X97966627Y-141352037D01*
X98136466Y-141403557D01*
X98292991Y-141487222D01*
X98315053Y-141505328D01*
X98430186Y-141599814D01*
X98513448Y-141701271D01*
X98542778Y-141737009D01*
X98626443Y-141893534D01*
X98677963Y-142063373D01*
X98695359Y-142240000D01*
X98677963Y-142416627D01*
X98626443Y-142586466D01*
X98542778Y-142742991D01*
X98513448Y-142778729D01*
X98430186Y-142880186D01*
X98328729Y-142963448D01*
X98292991Y-142992778D01*
X98136466Y-143076443D01*
X97966627Y-143127963D01*
X97900443Y-143134481D01*
X97834260Y-143141000D01*
X97745740Y-143141000D01*
X97679557Y-143134481D01*
X97613373Y-143127963D01*
X97443534Y-143076443D01*
X97287009Y-142992778D01*
X97251271Y-142963448D01*
X97149814Y-142880186D01*
X97066552Y-142778729D01*
X97037222Y-142742991D01*
X96953557Y-142586466D01*
X96902037Y-142416627D01*
X96884641Y-142240000D01*
X96902037Y-142063373D01*
X96953557Y-141893534D01*
X97037222Y-141737009D01*
X97066552Y-141701271D01*
X97149814Y-141599814D01*
X97264947Y-141505328D01*
X97287009Y-141487222D01*
X97443534Y-141403557D01*
X97613373Y-141352037D01*
X97679558Y-141345518D01*
X97745740Y-141339000D01*
X97834260Y-141339000D01*
X97900442Y-141345518D01*
X97900442Y-141345518D01*
G37*
G36*
X95360442Y-141345518D02*
G01*
X95426627Y-141352037D01*
X95596466Y-141403557D01*
X95752991Y-141487222D01*
X95775053Y-141505328D01*
X95890186Y-141599814D01*
X95973448Y-141701271D01*
X96002778Y-141737009D01*
X96086443Y-141893534D01*
X96137963Y-142063373D01*
X96155359Y-142240000D01*
X96137963Y-142416627D01*
X96086443Y-142586466D01*
X96002778Y-142742991D01*
X95973448Y-142778729D01*
X95890186Y-142880186D01*
X95788729Y-142963448D01*
X95752991Y-142992778D01*
X95596466Y-143076443D01*
X95426627Y-143127963D01*
X95360443Y-143134481D01*
X95294260Y-143141000D01*
X95205740Y-143141000D01*
X95139557Y-143134481D01*
X95073373Y-143127963D01*
X94903534Y-143076443D01*
X94747009Y-142992778D01*
X94711271Y-142963448D01*
X94609814Y-142880186D01*
X94526552Y-142778729D01*
X94497222Y-142742991D01*
X94413557Y-142586466D01*
X94362037Y-142416627D01*
X94344641Y-142240000D01*
X94362037Y-142063373D01*
X94413557Y-141893534D01*
X94497222Y-141737009D01*
X94526552Y-141701271D01*
X94609814Y-141599814D01*
X94724947Y-141505328D01*
X94747009Y-141487222D01*
X94903534Y-141403557D01*
X95073373Y-141352037D01*
X95139558Y-141345518D01*
X95205740Y-141339000D01*
X95294260Y-141339000D01*
X95360442Y-141345518D01*
X95360442Y-141345518D01*
G37*
G36*
X92820442Y-141345518D02*
G01*
X92886627Y-141352037D01*
X93056466Y-141403557D01*
X93212991Y-141487222D01*
X93235053Y-141505328D01*
X93350186Y-141599814D01*
X93433448Y-141701271D01*
X93462778Y-141737009D01*
X93546443Y-141893534D01*
X93597963Y-142063373D01*
X93615359Y-142240000D01*
X93597963Y-142416627D01*
X93546443Y-142586466D01*
X93462778Y-142742991D01*
X93433448Y-142778729D01*
X93350186Y-142880186D01*
X93248729Y-142963448D01*
X93212991Y-142992778D01*
X93056466Y-143076443D01*
X92886627Y-143127963D01*
X92820443Y-143134481D01*
X92754260Y-143141000D01*
X92665740Y-143141000D01*
X92599557Y-143134481D01*
X92533373Y-143127963D01*
X92363534Y-143076443D01*
X92207009Y-142992778D01*
X92171271Y-142963448D01*
X92069814Y-142880186D01*
X91986552Y-142778729D01*
X91957222Y-142742991D01*
X91873557Y-142586466D01*
X91822037Y-142416627D01*
X91804641Y-142240000D01*
X91822037Y-142063373D01*
X91873557Y-141893534D01*
X91957222Y-141737009D01*
X91986552Y-141701271D01*
X92069814Y-141599814D01*
X92184947Y-141505328D01*
X92207009Y-141487222D01*
X92363534Y-141403557D01*
X92533373Y-141352037D01*
X92599558Y-141345518D01*
X92665740Y-141339000D01*
X92754260Y-141339000D01*
X92820442Y-141345518D01*
X92820442Y-141345518D01*
G37*
G36*
X90280442Y-141345518D02*
G01*
X90346627Y-141352037D01*
X90516466Y-141403557D01*
X90672991Y-141487222D01*
X90695053Y-141505328D01*
X90810186Y-141599814D01*
X90893448Y-141701271D01*
X90922778Y-141737009D01*
X91006443Y-141893534D01*
X91057963Y-142063373D01*
X91075359Y-142240000D01*
X91057963Y-142416627D01*
X91006443Y-142586466D01*
X90922778Y-142742991D01*
X90893448Y-142778729D01*
X90810186Y-142880186D01*
X90708729Y-142963448D01*
X90672991Y-142992778D01*
X90516466Y-143076443D01*
X90346627Y-143127963D01*
X90280443Y-143134481D01*
X90214260Y-143141000D01*
X90125740Y-143141000D01*
X90059557Y-143134481D01*
X89993373Y-143127963D01*
X89823534Y-143076443D01*
X89667009Y-142992778D01*
X89631271Y-142963448D01*
X89529814Y-142880186D01*
X89446552Y-142778729D01*
X89417222Y-142742991D01*
X89333557Y-142586466D01*
X89282037Y-142416627D01*
X89264641Y-142240000D01*
X89282037Y-142063373D01*
X89333557Y-141893534D01*
X89417222Y-141737009D01*
X89446552Y-141701271D01*
X89529814Y-141599814D01*
X89644947Y-141505328D01*
X89667009Y-141487222D01*
X89823534Y-141403557D01*
X89993373Y-141352037D01*
X90059558Y-141345518D01*
X90125740Y-141339000D01*
X90214260Y-141339000D01*
X90280442Y-141345518D01*
X90280442Y-141345518D01*
G37*
G36*
X87740442Y-141345518D02*
G01*
X87806627Y-141352037D01*
X87976466Y-141403557D01*
X88132991Y-141487222D01*
X88155053Y-141505328D01*
X88270186Y-141599814D01*
X88353448Y-141701271D01*
X88382778Y-141737009D01*
X88466443Y-141893534D01*
X88517963Y-142063373D01*
X88535359Y-142240000D01*
X88517963Y-142416627D01*
X88466443Y-142586466D01*
X88382778Y-142742991D01*
X88353448Y-142778729D01*
X88270186Y-142880186D01*
X88168729Y-142963448D01*
X88132991Y-142992778D01*
X87976466Y-143076443D01*
X87806627Y-143127963D01*
X87740443Y-143134481D01*
X87674260Y-143141000D01*
X87585740Y-143141000D01*
X87519557Y-143134481D01*
X87453373Y-143127963D01*
X87283534Y-143076443D01*
X87127009Y-142992778D01*
X87091271Y-142963448D01*
X86989814Y-142880186D01*
X86906552Y-142778729D01*
X86877222Y-142742991D01*
X86793557Y-142586466D01*
X86742037Y-142416627D01*
X86724641Y-142240000D01*
X86742037Y-142063373D01*
X86793557Y-141893534D01*
X86877222Y-141737009D01*
X86906552Y-141701271D01*
X86989814Y-141599814D01*
X87104947Y-141505328D01*
X87127009Y-141487222D01*
X87283534Y-141403557D01*
X87453373Y-141352037D01*
X87519558Y-141345518D01*
X87585740Y-141339000D01*
X87674260Y-141339000D01*
X87740442Y-141345518D01*
X87740442Y-141345518D01*
G37*
G36*
X59800442Y-141345518D02*
G01*
X59866627Y-141352037D01*
X60036466Y-141403557D01*
X60192991Y-141487222D01*
X60215053Y-141505328D01*
X60330186Y-141599814D01*
X60413448Y-141701271D01*
X60442778Y-141737009D01*
X60526443Y-141893534D01*
X60577963Y-142063373D01*
X60595359Y-142240000D01*
X60577963Y-142416627D01*
X60526443Y-142586466D01*
X60442778Y-142742991D01*
X60413448Y-142778729D01*
X60330186Y-142880186D01*
X60228729Y-142963448D01*
X60192991Y-142992778D01*
X60036466Y-143076443D01*
X59866627Y-143127963D01*
X59800443Y-143134481D01*
X59734260Y-143141000D01*
X59645740Y-143141000D01*
X59579557Y-143134481D01*
X59513373Y-143127963D01*
X59343534Y-143076443D01*
X59187009Y-142992778D01*
X59151271Y-142963448D01*
X59049814Y-142880186D01*
X58966552Y-142778729D01*
X58937222Y-142742991D01*
X58853557Y-142586466D01*
X58802037Y-142416627D01*
X58784641Y-142240000D01*
X58802037Y-142063373D01*
X58853557Y-141893534D01*
X58937222Y-141737009D01*
X58966552Y-141701271D01*
X59049814Y-141599814D01*
X59164947Y-141505328D01*
X59187009Y-141487222D01*
X59343534Y-141403557D01*
X59513373Y-141352037D01*
X59579558Y-141345518D01*
X59645740Y-141339000D01*
X59734260Y-141339000D01*
X59800442Y-141345518D01*
X59800442Y-141345518D01*
G37*
G36*
X144255442Y-140710518D02*
G01*
X144321627Y-140717037D01*
X144491466Y-140768557D01*
X144647991Y-140852222D01*
X144683729Y-140881552D01*
X144785186Y-140964814D01*
X144868448Y-141066271D01*
X144897778Y-141102009D01*
X144981443Y-141258534D01*
X145032963Y-141428373D01*
X145050359Y-141605000D01*
X145032963Y-141781627D01*
X144981443Y-141951466D01*
X144897778Y-142107991D01*
X144868448Y-142143729D01*
X144785186Y-142245186D01*
X144683729Y-142328448D01*
X144647991Y-142357778D01*
X144491466Y-142441443D01*
X144321627Y-142492963D01*
X144255442Y-142499482D01*
X144189260Y-142506000D01*
X144100740Y-142506000D01*
X144034558Y-142499482D01*
X143968373Y-142492963D01*
X143798534Y-142441443D01*
X143642009Y-142357778D01*
X143606271Y-142328448D01*
X143504814Y-142245186D01*
X143421552Y-142143729D01*
X143392222Y-142107991D01*
X143308557Y-141951466D01*
X143257037Y-141781627D01*
X143239641Y-141605000D01*
X143257037Y-141428373D01*
X143308557Y-141258534D01*
X143392222Y-141102009D01*
X143421552Y-141066271D01*
X143504814Y-140964814D01*
X143606271Y-140881552D01*
X143642009Y-140852222D01*
X143798534Y-140768557D01*
X143968373Y-140717037D01*
X144034558Y-140710518D01*
X144100740Y-140704000D01*
X144189260Y-140704000D01*
X144255442Y-140710518D01*
X144255442Y-140710518D01*
G37*
G36*
X144255443Y-138170519D02*
G01*
X144321627Y-138177037D01*
X144491466Y-138228557D01*
X144647991Y-138312222D01*
X144683729Y-138341552D01*
X144785186Y-138424814D01*
X144868448Y-138526271D01*
X144897778Y-138562009D01*
X144981443Y-138718534D01*
X145032963Y-138888373D01*
X145050359Y-139065000D01*
X145032963Y-139241627D01*
X144981443Y-139411466D01*
X144897778Y-139567991D01*
X144868448Y-139603729D01*
X144785186Y-139705186D01*
X144683729Y-139788448D01*
X144647991Y-139817778D01*
X144491466Y-139901443D01*
X144321627Y-139952963D01*
X144255443Y-139959481D01*
X144189260Y-139966000D01*
X144100740Y-139966000D01*
X144034557Y-139959481D01*
X143968373Y-139952963D01*
X143798534Y-139901443D01*
X143642009Y-139817778D01*
X143606271Y-139788448D01*
X143504814Y-139705186D01*
X143421552Y-139603729D01*
X143392222Y-139567991D01*
X143308557Y-139411466D01*
X143257037Y-139241627D01*
X143239641Y-139065000D01*
X143257037Y-138888373D01*
X143308557Y-138718534D01*
X143392222Y-138562009D01*
X143421552Y-138526271D01*
X143504814Y-138424814D01*
X143606271Y-138341552D01*
X143642009Y-138312222D01*
X143798534Y-138228557D01*
X143968373Y-138177037D01*
X144034557Y-138170519D01*
X144100740Y-138164000D01*
X144189260Y-138164000D01*
X144255443Y-138170519D01*
X144255443Y-138170519D01*
G37*
G36*
X144255442Y-135630518D02*
G01*
X144321627Y-135637037D01*
X144491466Y-135688557D01*
X144647991Y-135772222D01*
X144683729Y-135801552D01*
X144785186Y-135884814D01*
X144868448Y-135986271D01*
X144897778Y-136022009D01*
X144981443Y-136178534D01*
X145032963Y-136348373D01*
X145050359Y-136525000D01*
X145032963Y-136701627D01*
X144981443Y-136871466D01*
X144897778Y-137027991D01*
X144868448Y-137063729D01*
X144785186Y-137165186D01*
X144683729Y-137248448D01*
X144647991Y-137277778D01*
X144491466Y-137361443D01*
X144321627Y-137412963D01*
X144255443Y-137419481D01*
X144189260Y-137426000D01*
X144100740Y-137426000D01*
X144034557Y-137419481D01*
X143968373Y-137412963D01*
X143798534Y-137361443D01*
X143642009Y-137277778D01*
X143606271Y-137248448D01*
X143504814Y-137165186D01*
X143421552Y-137063729D01*
X143392222Y-137027991D01*
X143308557Y-136871466D01*
X143257037Y-136701627D01*
X143239641Y-136525000D01*
X143257037Y-136348373D01*
X143308557Y-136178534D01*
X143392222Y-136022009D01*
X143421552Y-135986271D01*
X143504814Y-135884814D01*
X143606271Y-135801552D01*
X143642009Y-135772222D01*
X143798534Y-135688557D01*
X143968373Y-135637037D01*
X144034558Y-135630518D01*
X144100740Y-135624000D01*
X144189260Y-135624000D01*
X144255442Y-135630518D01*
X144255442Y-135630518D01*
G37*
G36*
X144255442Y-133090518D02*
G01*
X144321627Y-133097037D01*
X144491466Y-133148557D01*
X144647991Y-133232222D01*
X144683729Y-133261552D01*
X144785186Y-133344814D01*
X144868448Y-133446271D01*
X144897778Y-133482009D01*
X144981443Y-133638534D01*
X145032963Y-133808373D01*
X145050359Y-133985000D01*
X145032963Y-134161627D01*
X144981443Y-134331466D01*
X144897778Y-134487991D01*
X144868448Y-134523729D01*
X144785186Y-134625186D01*
X144683729Y-134708448D01*
X144647991Y-134737778D01*
X144491466Y-134821443D01*
X144321627Y-134872963D01*
X144255442Y-134879482D01*
X144189260Y-134886000D01*
X144100740Y-134886000D01*
X144034558Y-134879482D01*
X143968373Y-134872963D01*
X143798534Y-134821443D01*
X143642009Y-134737778D01*
X143606271Y-134708448D01*
X143504814Y-134625186D01*
X143421552Y-134523729D01*
X143392222Y-134487991D01*
X143308557Y-134331466D01*
X143257037Y-134161627D01*
X143239641Y-133985000D01*
X143257037Y-133808373D01*
X143308557Y-133638534D01*
X143392222Y-133482009D01*
X143421552Y-133446271D01*
X143504814Y-133344814D01*
X143606271Y-133261552D01*
X143642009Y-133232222D01*
X143798534Y-133148557D01*
X143968373Y-133097037D01*
X144034558Y-133090518D01*
X144100740Y-133084000D01*
X144189260Y-133084000D01*
X144255442Y-133090518D01*
X144255442Y-133090518D01*
G37*
G36*
X145046000Y-132346000D02*
G01*
X143244000Y-132346000D01*
X143244000Y-130544000D01*
X145046000Y-130544000D01*
X145046000Y-132346000D01*
X145046000Y-132346000D01*
G37*
G36*
X54720443Y-126105519D02*
G01*
X54786627Y-126112037D01*
X54956466Y-126163557D01*
X55112991Y-126247222D01*
X55148729Y-126276552D01*
X55250186Y-126359814D01*
X55333448Y-126461271D01*
X55362778Y-126497009D01*
X55446443Y-126653534D01*
X55497963Y-126823373D01*
X55515359Y-127000000D01*
X55497963Y-127176627D01*
X55446443Y-127346466D01*
X55362778Y-127502991D01*
X55333448Y-127538729D01*
X55250186Y-127640186D01*
X55148729Y-127723448D01*
X55112991Y-127752778D01*
X54956466Y-127836443D01*
X54786627Y-127887963D01*
X54720442Y-127894482D01*
X54654260Y-127901000D01*
X54565740Y-127901000D01*
X54499558Y-127894482D01*
X54433373Y-127887963D01*
X54263534Y-127836443D01*
X54107009Y-127752778D01*
X54071271Y-127723448D01*
X53969814Y-127640186D01*
X53886552Y-127538729D01*
X53857222Y-127502991D01*
X53773557Y-127346466D01*
X53722037Y-127176627D01*
X53704641Y-127000000D01*
X53722037Y-126823373D01*
X53773557Y-126653534D01*
X53857222Y-126497009D01*
X53886552Y-126461271D01*
X53969814Y-126359814D01*
X54071271Y-126276552D01*
X54107009Y-126247222D01*
X54263534Y-126163557D01*
X54433373Y-126112037D01*
X54499557Y-126105519D01*
X54565740Y-126099000D01*
X54654260Y-126099000D01*
X54720443Y-126105519D01*
X54720443Y-126105519D01*
G37*
G36*
X57260443Y-126105519D02*
G01*
X57326627Y-126112037D01*
X57496466Y-126163557D01*
X57652991Y-126247222D01*
X57688729Y-126276552D01*
X57790186Y-126359814D01*
X57873448Y-126461271D01*
X57902778Y-126497009D01*
X57986443Y-126653534D01*
X58037963Y-126823373D01*
X58055359Y-127000000D01*
X58037963Y-127176627D01*
X57986443Y-127346466D01*
X57902778Y-127502991D01*
X57873448Y-127538729D01*
X57790186Y-127640186D01*
X57688729Y-127723448D01*
X57652991Y-127752778D01*
X57496466Y-127836443D01*
X57326627Y-127887963D01*
X57260442Y-127894482D01*
X57194260Y-127901000D01*
X57105740Y-127901000D01*
X57039558Y-127894482D01*
X56973373Y-127887963D01*
X56803534Y-127836443D01*
X56647009Y-127752778D01*
X56611271Y-127723448D01*
X56509814Y-127640186D01*
X56426552Y-127538729D01*
X56397222Y-127502991D01*
X56313557Y-127346466D01*
X56262037Y-127176627D01*
X56244641Y-127000000D01*
X56262037Y-126823373D01*
X56313557Y-126653534D01*
X56397222Y-126497009D01*
X56426552Y-126461271D01*
X56509814Y-126359814D01*
X56611271Y-126276552D01*
X56647009Y-126247222D01*
X56803534Y-126163557D01*
X56973373Y-126112037D01*
X57039557Y-126105519D01*
X57105740Y-126099000D01*
X57194260Y-126099000D01*
X57260443Y-126105519D01*
X57260443Y-126105519D01*
G37*
G36*
X97900443Y-126105519D02*
G01*
X97966627Y-126112037D01*
X98136466Y-126163557D01*
X98292991Y-126247222D01*
X98328729Y-126276552D01*
X98430186Y-126359814D01*
X98513448Y-126461271D01*
X98542778Y-126497009D01*
X98626443Y-126653534D01*
X98677963Y-126823373D01*
X98695359Y-127000000D01*
X98677963Y-127176627D01*
X98626443Y-127346466D01*
X98542778Y-127502991D01*
X98513448Y-127538729D01*
X98430186Y-127640186D01*
X98328729Y-127723448D01*
X98292991Y-127752778D01*
X98136466Y-127836443D01*
X97966627Y-127887963D01*
X97900442Y-127894482D01*
X97834260Y-127901000D01*
X97745740Y-127901000D01*
X97679558Y-127894482D01*
X97613373Y-127887963D01*
X97443534Y-127836443D01*
X97287009Y-127752778D01*
X97251271Y-127723448D01*
X97149814Y-127640186D01*
X97066552Y-127538729D01*
X97037222Y-127502991D01*
X96953557Y-127346466D01*
X96902037Y-127176627D01*
X96884641Y-127000000D01*
X96902037Y-126823373D01*
X96953557Y-126653534D01*
X97037222Y-126497009D01*
X97066552Y-126461271D01*
X97149814Y-126359814D01*
X97251271Y-126276552D01*
X97287009Y-126247222D01*
X97443534Y-126163557D01*
X97613373Y-126112037D01*
X97679557Y-126105519D01*
X97745740Y-126099000D01*
X97834260Y-126099000D01*
X97900443Y-126105519D01*
X97900443Y-126105519D01*
G37*
G36*
X59800443Y-126105519D02*
G01*
X59866627Y-126112037D01*
X60036466Y-126163557D01*
X60192991Y-126247222D01*
X60228729Y-126276552D01*
X60330186Y-126359814D01*
X60413448Y-126461271D01*
X60442778Y-126497009D01*
X60526443Y-126653534D01*
X60577963Y-126823373D01*
X60595359Y-127000000D01*
X60577963Y-127176627D01*
X60526443Y-127346466D01*
X60442778Y-127502991D01*
X60413448Y-127538729D01*
X60330186Y-127640186D01*
X60228729Y-127723448D01*
X60192991Y-127752778D01*
X60036466Y-127836443D01*
X59866627Y-127887963D01*
X59800442Y-127894482D01*
X59734260Y-127901000D01*
X59645740Y-127901000D01*
X59579558Y-127894482D01*
X59513373Y-127887963D01*
X59343534Y-127836443D01*
X59187009Y-127752778D01*
X59151271Y-127723448D01*
X59049814Y-127640186D01*
X58966552Y-127538729D01*
X58937222Y-127502991D01*
X58853557Y-127346466D01*
X58802037Y-127176627D01*
X58784641Y-127000000D01*
X58802037Y-126823373D01*
X58853557Y-126653534D01*
X58937222Y-126497009D01*
X58966552Y-126461271D01*
X59049814Y-126359814D01*
X59151271Y-126276552D01*
X59187009Y-126247222D01*
X59343534Y-126163557D01*
X59513373Y-126112037D01*
X59579557Y-126105519D01*
X59645740Y-126099000D01*
X59734260Y-126099000D01*
X59800443Y-126105519D01*
X59800443Y-126105519D01*
G37*
G36*
X62340443Y-126105519D02*
G01*
X62406627Y-126112037D01*
X62576466Y-126163557D01*
X62732991Y-126247222D01*
X62768729Y-126276552D01*
X62870186Y-126359814D01*
X62953448Y-126461271D01*
X62982778Y-126497009D01*
X63066443Y-126653534D01*
X63117963Y-126823373D01*
X63135359Y-127000000D01*
X63117963Y-127176627D01*
X63066443Y-127346466D01*
X62982778Y-127502991D01*
X62953448Y-127538729D01*
X62870186Y-127640186D01*
X62768729Y-127723448D01*
X62732991Y-127752778D01*
X62576466Y-127836443D01*
X62406627Y-127887963D01*
X62340442Y-127894482D01*
X62274260Y-127901000D01*
X62185740Y-127901000D01*
X62119558Y-127894482D01*
X62053373Y-127887963D01*
X61883534Y-127836443D01*
X61727009Y-127752778D01*
X61691271Y-127723448D01*
X61589814Y-127640186D01*
X61506552Y-127538729D01*
X61477222Y-127502991D01*
X61393557Y-127346466D01*
X61342037Y-127176627D01*
X61324641Y-127000000D01*
X61342037Y-126823373D01*
X61393557Y-126653534D01*
X61477222Y-126497009D01*
X61506552Y-126461271D01*
X61589814Y-126359814D01*
X61691271Y-126276552D01*
X61727009Y-126247222D01*
X61883534Y-126163557D01*
X62053373Y-126112037D01*
X62119557Y-126105519D01*
X62185740Y-126099000D01*
X62274260Y-126099000D01*
X62340443Y-126105519D01*
X62340443Y-126105519D01*
G37*
G36*
X64880443Y-126105519D02*
G01*
X64946627Y-126112037D01*
X65116466Y-126163557D01*
X65272991Y-126247222D01*
X65308729Y-126276552D01*
X65410186Y-126359814D01*
X65493448Y-126461271D01*
X65522778Y-126497009D01*
X65606443Y-126653534D01*
X65657963Y-126823373D01*
X65675359Y-127000000D01*
X65657963Y-127176627D01*
X65606443Y-127346466D01*
X65522778Y-127502991D01*
X65493448Y-127538729D01*
X65410186Y-127640186D01*
X65308729Y-127723448D01*
X65272991Y-127752778D01*
X65116466Y-127836443D01*
X64946627Y-127887963D01*
X64880442Y-127894482D01*
X64814260Y-127901000D01*
X64725740Y-127901000D01*
X64659558Y-127894482D01*
X64593373Y-127887963D01*
X64423534Y-127836443D01*
X64267009Y-127752778D01*
X64231271Y-127723448D01*
X64129814Y-127640186D01*
X64046552Y-127538729D01*
X64017222Y-127502991D01*
X63933557Y-127346466D01*
X63882037Y-127176627D01*
X63864641Y-127000000D01*
X63882037Y-126823373D01*
X63933557Y-126653534D01*
X64017222Y-126497009D01*
X64046552Y-126461271D01*
X64129814Y-126359814D01*
X64231271Y-126276552D01*
X64267009Y-126247222D01*
X64423534Y-126163557D01*
X64593373Y-126112037D01*
X64659557Y-126105519D01*
X64725740Y-126099000D01*
X64814260Y-126099000D01*
X64880443Y-126105519D01*
X64880443Y-126105519D01*
G37*
G36*
X67420443Y-126105519D02*
G01*
X67486627Y-126112037D01*
X67656466Y-126163557D01*
X67812991Y-126247222D01*
X67848729Y-126276552D01*
X67950186Y-126359814D01*
X68033448Y-126461271D01*
X68062778Y-126497009D01*
X68146443Y-126653534D01*
X68197963Y-126823373D01*
X68215359Y-127000000D01*
X68197963Y-127176627D01*
X68146443Y-127346466D01*
X68062778Y-127502991D01*
X68033448Y-127538729D01*
X67950186Y-127640186D01*
X67848729Y-127723448D01*
X67812991Y-127752778D01*
X67656466Y-127836443D01*
X67486627Y-127887963D01*
X67420442Y-127894482D01*
X67354260Y-127901000D01*
X67265740Y-127901000D01*
X67199558Y-127894482D01*
X67133373Y-127887963D01*
X66963534Y-127836443D01*
X66807009Y-127752778D01*
X66771271Y-127723448D01*
X66669814Y-127640186D01*
X66586552Y-127538729D01*
X66557222Y-127502991D01*
X66473557Y-127346466D01*
X66422037Y-127176627D01*
X66404641Y-127000000D01*
X66422037Y-126823373D01*
X66473557Y-126653534D01*
X66557222Y-126497009D01*
X66586552Y-126461271D01*
X66669814Y-126359814D01*
X66771271Y-126276552D01*
X66807009Y-126247222D01*
X66963534Y-126163557D01*
X67133373Y-126112037D01*
X67199557Y-126105519D01*
X67265740Y-126099000D01*
X67354260Y-126099000D01*
X67420443Y-126105519D01*
X67420443Y-126105519D01*
G37*
G36*
X69960443Y-126105519D02*
G01*
X70026627Y-126112037D01*
X70196466Y-126163557D01*
X70352991Y-126247222D01*
X70388729Y-126276552D01*
X70490186Y-126359814D01*
X70573448Y-126461271D01*
X70602778Y-126497009D01*
X70686443Y-126653534D01*
X70737963Y-126823373D01*
X70755359Y-127000000D01*
X70737963Y-127176627D01*
X70686443Y-127346466D01*
X70602778Y-127502991D01*
X70573448Y-127538729D01*
X70490186Y-127640186D01*
X70388729Y-127723448D01*
X70352991Y-127752778D01*
X70196466Y-127836443D01*
X70026627Y-127887963D01*
X69960442Y-127894482D01*
X69894260Y-127901000D01*
X69805740Y-127901000D01*
X69739558Y-127894482D01*
X69673373Y-127887963D01*
X69503534Y-127836443D01*
X69347009Y-127752778D01*
X69311271Y-127723448D01*
X69209814Y-127640186D01*
X69126552Y-127538729D01*
X69097222Y-127502991D01*
X69013557Y-127346466D01*
X68962037Y-127176627D01*
X68944641Y-127000000D01*
X68962037Y-126823373D01*
X69013557Y-126653534D01*
X69097222Y-126497009D01*
X69126552Y-126461271D01*
X69209814Y-126359814D01*
X69311271Y-126276552D01*
X69347009Y-126247222D01*
X69503534Y-126163557D01*
X69673373Y-126112037D01*
X69739557Y-126105519D01*
X69805740Y-126099000D01*
X69894260Y-126099000D01*
X69960443Y-126105519D01*
X69960443Y-126105519D01*
G37*
G36*
X72500443Y-126105519D02*
G01*
X72566627Y-126112037D01*
X72736466Y-126163557D01*
X72892991Y-126247222D01*
X72928729Y-126276552D01*
X73030186Y-126359814D01*
X73113448Y-126461271D01*
X73142778Y-126497009D01*
X73226443Y-126653534D01*
X73277963Y-126823373D01*
X73295359Y-127000000D01*
X73277963Y-127176627D01*
X73226443Y-127346466D01*
X73142778Y-127502991D01*
X73113448Y-127538729D01*
X73030186Y-127640186D01*
X72928729Y-127723448D01*
X72892991Y-127752778D01*
X72736466Y-127836443D01*
X72566627Y-127887963D01*
X72500442Y-127894482D01*
X72434260Y-127901000D01*
X72345740Y-127901000D01*
X72279558Y-127894482D01*
X72213373Y-127887963D01*
X72043534Y-127836443D01*
X71887009Y-127752778D01*
X71851271Y-127723448D01*
X71749814Y-127640186D01*
X71666552Y-127538729D01*
X71637222Y-127502991D01*
X71553557Y-127346466D01*
X71502037Y-127176627D01*
X71484641Y-127000000D01*
X71502037Y-126823373D01*
X71553557Y-126653534D01*
X71637222Y-126497009D01*
X71666552Y-126461271D01*
X71749814Y-126359814D01*
X71851271Y-126276552D01*
X71887009Y-126247222D01*
X72043534Y-126163557D01*
X72213373Y-126112037D01*
X72279557Y-126105519D01*
X72345740Y-126099000D01*
X72434260Y-126099000D01*
X72500443Y-126105519D01*
X72500443Y-126105519D01*
G37*
G36*
X75040443Y-126105519D02*
G01*
X75106627Y-126112037D01*
X75276466Y-126163557D01*
X75432991Y-126247222D01*
X75468729Y-126276552D01*
X75570186Y-126359814D01*
X75653448Y-126461271D01*
X75682778Y-126497009D01*
X75766443Y-126653534D01*
X75817963Y-126823373D01*
X75835359Y-127000000D01*
X75817963Y-127176627D01*
X75766443Y-127346466D01*
X75682778Y-127502991D01*
X75653448Y-127538729D01*
X75570186Y-127640186D01*
X75468729Y-127723448D01*
X75432991Y-127752778D01*
X75276466Y-127836443D01*
X75106627Y-127887963D01*
X75040442Y-127894482D01*
X74974260Y-127901000D01*
X74885740Y-127901000D01*
X74819558Y-127894482D01*
X74753373Y-127887963D01*
X74583534Y-127836443D01*
X74427009Y-127752778D01*
X74391271Y-127723448D01*
X74289814Y-127640186D01*
X74206552Y-127538729D01*
X74177222Y-127502991D01*
X74093557Y-127346466D01*
X74042037Y-127176627D01*
X74024641Y-127000000D01*
X74042037Y-126823373D01*
X74093557Y-126653534D01*
X74177222Y-126497009D01*
X74206552Y-126461271D01*
X74289814Y-126359814D01*
X74391271Y-126276552D01*
X74427009Y-126247222D01*
X74583534Y-126163557D01*
X74753373Y-126112037D01*
X74819557Y-126105519D01*
X74885740Y-126099000D01*
X74974260Y-126099000D01*
X75040443Y-126105519D01*
X75040443Y-126105519D01*
G37*
G36*
X80120443Y-126105519D02*
G01*
X80186627Y-126112037D01*
X80356466Y-126163557D01*
X80512991Y-126247222D01*
X80548729Y-126276552D01*
X80650186Y-126359814D01*
X80733448Y-126461271D01*
X80762778Y-126497009D01*
X80846443Y-126653534D01*
X80897963Y-126823373D01*
X80915359Y-127000000D01*
X80897963Y-127176627D01*
X80846443Y-127346466D01*
X80762778Y-127502991D01*
X80733448Y-127538729D01*
X80650186Y-127640186D01*
X80548729Y-127723448D01*
X80512991Y-127752778D01*
X80356466Y-127836443D01*
X80186627Y-127887963D01*
X80120442Y-127894482D01*
X80054260Y-127901000D01*
X79965740Y-127901000D01*
X79899558Y-127894482D01*
X79833373Y-127887963D01*
X79663534Y-127836443D01*
X79507009Y-127752778D01*
X79471271Y-127723448D01*
X79369814Y-127640186D01*
X79286552Y-127538729D01*
X79257222Y-127502991D01*
X79173557Y-127346466D01*
X79122037Y-127176627D01*
X79104641Y-127000000D01*
X79122037Y-126823373D01*
X79173557Y-126653534D01*
X79257222Y-126497009D01*
X79286552Y-126461271D01*
X79369814Y-126359814D01*
X79471271Y-126276552D01*
X79507009Y-126247222D01*
X79663534Y-126163557D01*
X79833373Y-126112037D01*
X79899557Y-126105519D01*
X79965740Y-126099000D01*
X80054260Y-126099000D01*
X80120443Y-126105519D01*
X80120443Y-126105519D01*
G37*
G36*
X82660443Y-126105519D02*
G01*
X82726627Y-126112037D01*
X82896466Y-126163557D01*
X83052991Y-126247222D01*
X83088729Y-126276552D01*
X83190186Y-126359814D01*
X83273448Y-126461271D01*
X83302778Y-126497009D01*
X83386443Y-126653534D01*
X83437963Y-126823373D01*
X83455359Y-127000000D01*
X83437963Y-127176627D01*
X83386443Y-127346466D01*
X83302778Y-127502991D01*
X83273448Y-127538729D01*
X83190186Y-127640186D01*
X83088729Y-127723448D01*
X83052991Y-127752778D01*
X82896466Y-127836443D01*
X82726627Y-127887963D01*
X82660442Y-127894482D01*
X82594260Y-127901000D01*
X82505740Y-127901000D01*
X82439558Y-127894482D01*
X82373373Y-127887963D01*
X82203534Y-127836443D01*
X82047009Y-127752778D01*
X82011271Y-127723448D01*
X81909814Y-127640186D01*
X81826552Y-127538729D01*
X81797222Y-127502991D01*
X81713557Y-127346466D01*
X81662037Y-127176627D01*
X81644641Y-127000000D01*
X81662037Y-126823373D01*
X81713557Y-126653534D01*
X81797222Y-126497009D01*
X81826552Y-126461271D01*
X81909814Y-126359814D01*
X82011271Y-126276552D01*
X82047009Y-126247222D01*
X82203534Y-126163557D01*
X82373373Y-126112037D01*
X82439557Y-126105519D01*
X82505740Y-126099000D01*
X82594260Y-126099000D01*
X82660443Y-126105519D01*
X82660443Y-126105519D01*
G37*
G36*
X85200443Y-126105519D02*
G01*
X85266627Y-126112037D01*
X85436466Y-126163557D01*
X85592991Y-126247222D01*
X85628729Y-126276552D01*
X85730186Y-126359814D01*
X85813448Y-126461271D01*
X85842778Y-126497009D01*
X85926443Y-126653534D01*
X85977963Y-126823373D01*
X85995359Y-127000000D01*
X85977963Y-127176627D01*
X85926443Y-127346466D01*
X85842778Y-127502991D01*
X85813448Y-127538729D01*
X85730186Y-127640186D01*
X85628729Y-127723448D01*
X85592991Y-127752778D01*
X85436466Y-127836443D01*
X85266627Y-127887963D01*
X85200442Y-127894482D01*
X85134260Y-127901000D01*
X85045740Y-127901000D01*
X84979558Y-127894482D01*
X84913373Y-127887963D01*
X84743534Y-127836443D01*
X84587009Y-127752778D01*
X84551271Y-127723448D01*
X84449814Y-127640186D01*
X84366552Y-127538729D01*
X84337222Y-127502991D01*
X84253557Y-127346466D01*
X84202037Y-127176627D01*
X84184641Y-127000000D01*
X84202037Y-126823373D01*
X84253557Y-126653534D01*
X84337222Y-126497009D01*
X84366552Y-126461271D01*
X84449814Y-126359814D01*
X84551271Y-126276552D01*
X84587009Y-126247222D01*
X84743534Y-126163557D01*
X84913373Y-126112037D01*
X84979557Y-126105519D01*
X85045740Y-126099000D01*
X85134260Y-126099000D01*
X85200443Y-126105519D01*
X85200443Y-126105519D01*
G37*
G36*
X87740443Y-126105519D02*
G01*
X87806627Y-126112037D01*
X87976466Y-126163557D01*
X88132991Y-126247222D01*
X88168729Y-126276552D01*
X88270186Y-126359814D01*
X88353448Y-126461271D01*
X88382778Y-126497009D01*
X88466443Y-126653534D01*
X88517963Y-126823373D01*
X88535359Y-127000000D01*
X88517963Y-127176627D01*
X88466443Y-127346466D01*
X88382778Y-127502991D01*
X88353448Y-127538729D01*
X88270186Y-127640186D01*
X88168729Y-127723448D01*
X88132991Y-127752778D01*
X87976466Y-127836443D01*
X87806627Y-127887963D01*
X87740442Y-127894482D01*
X87674260Y-127901000D01*
X87585740Y-127901000D01*
X87519558Y-127894482D01*
X87453373Y-127887963D01*
X87283534Y-127836443D01*
X87127009Y-127752778D01*
X87091271Y-127723448D01*
X86989814Y-127640186D01*
X86906552Y-127538729D01*
X86877222Y-127502991D01*
X86793557Y-127346466D01*
X86742037Y-127176627D01*
X86724641Y-127000000D01*
X86742037Y-126823373D01*
X86793557Y-126653534D01*
X86877222Y-126497009D01*
X86906552Y-126461271D01*
X86989814Y-126359814D01*
X87091271Y-126276552D01*
X87127009Y-126247222D01*
X87283534Y-126163557D01*
X87453373Y-126112037D01*
X87519557Y-126105519D01*
X87585740Y-126099000D01*
X87674260Y-126099000D01*
X87740443Y-126105519D01*
X87740443Y-126105519D01*
G37*
G36*
X90280443Y-126105519D02*
G01*
X90346627Y-126112037D01*
X90516466Y-126163557D01*
X90672991Y-126247222D01*
X90708729Y-126276552D01*
X90810186Y-126359814D01*
X90893448Y-126461271D01*
X90922778Y-126497009D01*
X91006443Y-126653534D01*
X91057963Y-126823373D01*
X91075359Y-127000000D01*
X91057963Y-127176627D01*
X91006443Y-127346466D01*
X90922778Y-127502991D01*
X90893448Y-127538729D01*
X90810186Y-127640186D01*
X90708729Y-127723448D01*
X90672991Y-127752778D01*
X90516466Y-127836443D01*
X90346627Y-127887963D01*
X90280442Y-127894482D01*
X90214260Y-127901000D01*
X90125740Y-127901000D01*
X90059558Y-127894482D01*
X89993373Y-127887963D01*
X89823534Y-127836443D01*
X89667009Y-127752778D01*
X89631271Y-127723448D01*
X89529814Y-127640186D01*
X89446552Y-127538729D01*
X89417222Y-127502991D01*
X89333557Y-127346466D01*
X89282037Y-127176627D01*
X89264641Y-127000000D01*
X89282037Y-126823373D01*
X89333557Y-126653534D01*
X89417222Y-126497009D01*
X89446552Y-126461271D01*
X89529814Y-126359814D01*
X89631271Y-126276552D01*
X89667009Y-126247222D01*
X89823534Y-126163557D01*
X89993373Y-126112037D01*
X90059557Y-126105519D01*
X90125740Y-126099000D01*
X90214260Y-126099000D01*
X90280443Y-126105519D01*
X90280443Y-126105519D01*
G37*
G36*
X92820443Y-126105519D02*
G01*
X92886627Y-126112037D01*
X93056466Y-126163557D01*
X93212991Y-126247222D01*
X93248729Y-126276552D01*
X93350186Y-126359814D01*
X93433448Y-126461271D01*
X93462778Y-126497009D01*
X93546443Y-126653534D01*
X93597963Y-126823373D01*
X93615359Y-127000000D01*
X93597963Y-127176627D01*
X93546443Y-127346466D01*
X93462778Y-127502991D01*
X93433448Y-127538729D01*
X93350186Y-127640186D01*
X93248729Y-127723448D01*
X93212991Y-127752778D01*
X93056466Y-127836443D01*
X92886627Y-127887963D01*
X92820442Y-127894482D01*
X92754260Y-127901000D01*
X92665740Y-127901000D01*
X92599558Y-127894482D01*
X92533373Y-127887963D01*
X92363534Y-127836443D01*
X92207009Y-127752778D01*
X92171271Y-127723448D01*
X92069814Y-127640186D01*
X91986552Y-127538729D01*
X91957222Y-127502991D01*
X91873557Y-127346466D01*
X91822037Y-127176627D01*
X91804641Y-127000000D01*
X91822037Y-126823373D01*
X91873557Y-126653534D01*
X91957222Y-126497009D01*
X91986552Y-126461271D01*
X92069814Y-126359814D01*
X92171271Y-126276552D01*
X92207009Y-126247222D01*
X92363534Y-126163557D01*
X92533373Y-126112037D01*
X92599557Y-126105519D01*
X92665740Y-126099000D01*
X92754260Y-126099000D01*
X92820443Y-126105519D01*
X92820443Y-126105519D01*
G37*
G36*
X95360443Y-126105519D02*
G01*
X95426627Y-126112037D01*
X95596466Y-126163557D01*
X95752991Y-126247222D01*
X95788729Y-126276552D01*
X95890186Y-126359814D01*
X95973448Y-126461271D01*
X96002778Y-126497009D01*
X96086443Y-126653534D01*
X96137963Y-126823373D01*
X96155359Y-127000000D01*
X96137963Y-127176627D01*
X96086443Y-127346466D01*
X96002778Y-127502991D01*
X95973448Y-127538729D01*
X95890186Y-127640186D01*
X95788729Y-127723448D01*
X95752991Y-127752778D01*
X95596466Y-127836443D01*
X95426627Y-127887963D01*
X95360442Y-127894482D01*
X95294260Y-127901000D01*
X95205740Y-127901000D01*
X95139558Y-127894482D01*
X95073373Y-127887963D01*
X94903534Y-127836443D01*
X94747009Y-127752778D01*
X94711271Y-127723448D01*
X94609814Y-127640186D01*
X94526552Y-127538729D01*
X94497222Y-127502991D01*
X94413557Y-127346466D01*
X94362037Y-127176627D01*
X94344641Y-127000000D01*
X94362037Y-126823373D01*
X94413557Y-126653534D01*
X94497222Y-126497009D01*
X94526552Y-126461271D01*
X94609814Y-126359814D01*
X94711271Y-126276552D01*
X94747009Y-126247222D01*
X94903534Y-126163557D01*
X95073373Y-126112037D01*
X95139557Y-126105519D01*
X95205740Y-126099000D01*
X95294260Y-126099000D01*
X95360443Y-126105519D01*
X95360443Y-126105519D01*
G37*
G36*
X101231000Y-127901000D02*
G01*
X99429000Y-127901000D01*
X99429000Y-126099000D01*
X101231000Y-126099000D01*
X101231000Y-127901000D01*
X101231000Y-127901000D01*
G37*
G36*
X77580443Y-126105519D02*
G01*
X77646627Y-126112037D01*
X77816466Y-126163557D01*
X77972991Y-126247222D01*
X78008729Y-126276552D01*
X78110186Y-126359814D01*
X78193448Y-126461271D01*
X78222778Y-126497009D01*
X78306443Y-126653534D01*
X78357963Y-126823373D01*
X78375359Y-127000000D01*
X78357963Y-127176627D01*
X78306443Y-127346466D01*
X78222778Y-127502991D01*
X78193448Y-127538729D01*
X78110186Y-127640186D01*
X78008729Y-127723448D01*
X77972991Y-127752778D01*
X77816466Y-127836443D01*
X77646627Y-127887963D01*
X77580442Y-127894482D01*
X77514260Y-127901000D01*
X77425740Y-127901000D01*
X77359558Y-127894482D01*
X77293373Y-127887963D01*
X77123534Y-127836443D01*
X76967009Y-127752778D01*
X76931271Y-127723448D01*
X76829814Y-127640186D01*
X76746552Y-127538729D01*
X76717222Y-127502991D01*
X76633557Y-127346466D01*
X76582037Y-127176627D01*
X76564641Y-127000000D01*
X76582037Y-126823373D01*
X76633557Y-126653534D01*
X76717222Y-126497009D01*
X76746552Y-126461271D01*
X76829814Y-126359814D01*
X76931271Y-126276552D01*
X76967009Y-126247222D01*
X77123534Y-126163557D01*
X77293373Y-126112037D01*
X77359557Y-126105519D01*
X77425740Y-126099000D01*
X77514260Y-126099000D01*
X77580443Y-126105519D01*
X77580443Y-126105519D01*
G37*
G36*
X52180443Y-126105519D02*
G01*
X52246627Y-126112037D01*
X52416466Y-126163557D01*
X52572991Y-126247222D01*
X52608729Y-126276552D01*
X52710186Y-126359814D01*
X52793448Y-126461271D01*
X52822778Y-126497009D01*
X52906443Y-126653534D01*
X52957963Y-126823373D01*
X52975359Y-127000000D01*
X52957963Y-127176627D01*
X52906443Y-127346466D01*
X52822778Y-127502991D01*
X52793448Y-127538729D01*
X52710186Y-127640186D01*
X52608729Y-127723448D01*
X52572991Y-127752778D01*
X52416466Y-127836443D01*
X52246627Y-127887963D01*
X52180442Y-127894482D01*
X52114260Y-127901000D01*
X52025740Y-127901000D01*
X51959558Y-127894482D01*
X51893373Y-127887963D01*
X51723534Y-127836443D01*
X51567009Y-127752778D01*
X51531271Y-127723448D01*
X51429814Y-127640186D01*
X51346552Y-127538729D01*
X51317222Y-127502991D01*
X51233557Y-127346466D01*
X51182037Y-127176627D01*
X51164641Y-127000000D01*
X51182037Y-126823373D01*
X51233557Y-126653534D01*
X51317222Y-126497009D01*
X51346552Y-126461271D01*
X51429814Y-126359814D01*
X51531271Y-126276552D01*
X51567009Y-126247222D01*
X51723534Y-126163557D01*
X51893373Y-126112037D01*
X51959557Y-126105519D01*
X52025740Y-126099000D01*
X52114260Y-126099000D01*
X52180443Y-126105519D01*
X52180443Y-126105519D01*
G37*
G36*
X144255442Y-125470518D02*
G01*
X144321627Y-125477037D01*
X144491466Y-125528557D01*
X144647991Y-125612222D01*
X144683729Y-125641552D01*
X144785186Y-125724814D01*
X144868448Y-125826271D01*
X144897778Y-125862009D01*
X144981443Y-126018534D01*
X145032963Y-126188373D01*
X145050359Y-126365000D01*
X145032963Y-126541627D01*
X144981443Y-126711466D01*
X144897778Y-126867991D01*
X144868448Y-126903729D01*
X144785186Y-127005186D01*
X144683729Y-127088448D01*
X144647991Y-127117778D01*
X144491466Y-127201443D01*
X144321627Y-127252963D01*
X144255443Y-127259481D01*
X144189260Y-127266000D01*
X144100740Y-127266000D01*
X144034557Y-127259481D01*
X143968373Y-127252963D01*
X143798534Y-127201443D01*
X143642009Y-127117778D01*
X143606271Y-127088448D01*
X143504814Y-127005186D01*
X143421552Y-126903729D01*
X143392222Y-126867991D01*
X143308557Y-126711466D01*
X143257037Y-126541627D01*
X143239641Y-126365000D01*
X143257037Y-126188373D01*
X143308557Y-126018534D01*
X143392222Y-125862009D01*
X143421552Y-125826271D01*
X143504814Y-125724814D01*
X143606271Y-125641552D01*
X143642009Y-125612222D01*
X143798534Y-125528557D01*
X143968373Y-125477037D01*
X144034558Y-125470518D01*
X144100740Y-125464000D01*
X144189260Y-125464000D01*
X144255442Y-125470518D01*
X144255442Y-125470518D01*
G37*
G36*
X115680443Y-124835519D02*
G01*
X115746627Y-124842037D01*
X115916466Y-124893557D01*
X116072991Y-124977222D01*
X116108729Y-125006552D01*
X116210186Y-125089814D01*
X116293448Y-125191271D01*
X116322778Y-125227009D01*
X116406443Y-125383534D01*
X116457963Y-125553373D01*
X116475359Y-125730000D01*
X116457963Y-125906627D01*
X116406443Y-126076466D01*
X116322778Y-126232991D01*
X116293448Y-126268729D01*
X116210186Y-126370186D01*
X116108729Y-126453448D01*
X116072991Y-126482778D01*
X115916466Y-126566443D01*
X115746627Y-126617963D01*
X115680442Y-126624482D01*
X115614260Y-126631000D01*
X115525740Y-126631000D01*
X115459558Y-126624482D01*
X115393373Y-126617963D01*
X115223534Y-126566443D01*
X115067009Y-126482778D01*
X115031271Y-126453448D01*
X114929814Y-126370186D01*
X114846552Y-126268729D01*
X114817222Y-126232991D01*
X114733557Y-126076466D01*
X114682037Y-125906627D01*
X114664641Y-125730000D01*
X114682037Y-125553373D01*
X114733557Y-125383534D01*
X114817222Y-125227009D01*
X114846552Y-125191271D01*
X114929814Y-125089814D01*
X115031271Y-125006552D01*
X115067009Y-124977222D01*
X115223534Y-124893557D01*
X115393373Y-124842037D01*
X115459557Y-124835519D01*
X115525740Y-124829000D01*
X115614260Y-124829000D01*
X115680443Y-124835519D01*
X115680443Y-124835519D01*
G37*
G36*
X125840443Y-124835519D02*
G01*
X125906627Y-124842037D01*
X126076466Y-124893557D01*
X126232991Y-124977222D01*
X126268729Y-125006552D01*
X126370186Y-125089814D01*
X126453448Y-125191271D01*
X126482778Y-125227009D01*
X126566443Y-125383534D01*
X126617963Y-125553373D01*
X126635359Y-125730000D01*
X126617963Y-125906627D01*
X126566443Y-126076466D01*
X126482778Y-126232991D01*
X126453448Y-126268729D01*
X126370186Y-126370186D01*
X126268729Y-126453448D01*
X126232991Y-126482778D01*
X126076466Y-126566443D01*
X125906627Y-126617963D01*
X125840442Y-126624482D01*
X125774260Y-126631000D01*
X125685740Y-126631000D01*
X125619558Y-126624482D01*
X125553373Y-126617963D01*
X125383534Y-126566443D01*
X125227009Y-126482778D01*
X125191271Y-126453448D01*
X125089814Y-126370186D01*
X125006552Y-126268729D01*
X124977222Y-126232991D01*
X124893557Y-126076466D01*
X124842037Y-125906627D01*
X124824641Y-125730000D01*
X124842037Y-125553373D01*
X124893557Y-125383534D01*
X124977222Y-125227009D01*
X125006552Y-125191271D01*
X125089814Y-125089814D01*
X125191271Y-125006552D01*
X125227009Y-124977222D01*
X125383534Y-124893557D01*
X125553373Y-124842037D01*
X125619557Y-124835519D01*
X125685740Y-124829000D01*
X125774260Y-124829000D01*
X125840443Y-124835519D01*
X125840443Y-124835519D01*
G37*
G36*
X123300443Y-124835519D02*
G01*
X123366627Y-124842037D01*
X123536466Y-124893557D01*
X123692991Y-124977222D01*
X123728729Y-125006552D01*
X123830186Y-125089814D01*
X123913448Y-125191271D01*
X123942778Y-125227009D01*
X124026443Y-125383534D01*
X124077963Y-125553373D01*
X124095359Y-125730000D01*
X124077963Y-125906627D01*
X124026443Y-126076466D01*
X123942778Y-126232991D01*
X123913448Y-126268729D01*
X123830186Y-126370186D01*
X123728729Y-126453448D01*
X123692991Y-126482778D01*
X123536466Y-126566443D01*
X123366627Y-126617963D01*
X123300442Y-126624482D01*
X123234260Y-126631000D01*
X123145740Y-126631000D01*
X123079558Y-126624482D01*
X123013373Y-126617963D01*
X122843534Y-126566443D01*
X122687009Y-126482778D01*
X122651271Y-126453448D01*
X122549814Y-126370186D01*
X122466552Y-126268729D01*
X122437222Y-126232991D01*
X122353557Y-126076466D01*
X122302037Y-125906627D01*
X122284641Y-125730000D01*
X122302037Y-125553373D01*
X122353557Y-125383534D01*
X122437222Y-125227009D01*
X122466552Y-125191271D01*
X122549814Y-125089814D01*
X122651271Y-125006552D01*
X122687009Y-124977222D01*
X122843534Y-124893557D01*
X123013373Y-124842037D01*
X123079557Y-124835519D01*
X123145740Y-124829000D01*
X123234260Y-124829000D01*
X123300443Y-124835519D01*
X123300443Y-124835519D01*
G37*
G36*
X120760443Y-124835519D02*
G01*
X120826627Y-124842037D01*
X120996466Y-124893557D01*
X121152991Y-124977222D01*
X121188729Y-125006552D01*
X121290186Y-125089814D01*
X121373448Y-125191271D01*
X121402778Y-125227009D01*
X121486443Y-125383534D01*
X121537963Y-125553373D01*
X121555359Y-125730000D01*
X121537963Y-125906627D01*
X121486443Y-126076466D01*
X121402778Y-126232991D01*
X121373448Y-126268729D01*
X121290186Y-126370186D01*
X121188729Y-126453448D01*
X121152991Y-126482778D01*
X120996466Y-126566443D01*
X120826627Y-126617963D01*
X120760442Y-126624482D01*
X120694260Y-126631000D01*
X120605740Y-126631000D01*
X120539558Y-126624482D01*
X120473373Y-126617963D01*
X120303534Y-126566443D01*
X120147009Y-126482778D01*
X120111271Y-126453448D01*
X120009814Y-126370186D01*
X119926552Y-126268729D01*
X119897222Y-126232991D01*
X119813557Y-126076466D01*
X119762037Y-125906627D01*
X119744641Y-125730000D01*
X119762037Y-125553373D01*
X119813557Y-125383534D01*
X119897222Y-125227009D01*
X119926552Y-125191271D01*
X120009814Y-125089814D01*
X120111271Y-125006552D01*
X120147009Y-124977222D01*
X120303534Y-124893557D01*
X120473373Y-124842037D01*
X120539557Y-124835519D01*
X120605740Y-124829000D01*
X120694260Y-124829000D01*
X120760443Y-124835519D01*
X120760443Y-124835519D01*
G37*
G36*
X118220443Y-124835519D02*
G01*
X118286627Y-124842037D01*
X118456466Y-124893557D01*
X118612991Y-124977222D01*
X118648729Y-125006552D01*
X118750186Y-125089814D01*
X118833448Y-125191271D01*
X118862778Y-125227009D01*
X118946443Y-125383534D01*
X118997963Y-125553373D01*
X119015359Y-125730000D01*
X118997963Y-125906627D01*
X118946443Y-126076466D01*
X118862778Y-126232991D01*
X118833448Y-126268729D01*
X118750186Y-126370186D01*
X118648729Y-126453448D01*
X118612991Y-126482778D01*
X118456466Y-126566443D01*
X118286627Y-126617963D01*
X118220442Y-126624482D01*
X118154260Y-126631000D01*
X118065740Y-126631000D01*
X117999558Y-126624482D01*
X117933373Y-126617963D01*
X117763534Y-126566443D01*
X117607009Y-126482778D01*
X117571271Y-126453448D01*
X117469814Y-126370186D01*
X117386552Y-126268729D01*
X117357222Y-126232991D01*
X117273557Y-126076466D01*
X117222037Y-125906627D01*
X117204641Y-125730000D01*
X117222037Y-125553373D01*
X117273557Y-125383534D01*
X117357222Y-125227009D01*
X117386552Y-125191271D01*
X117469814Y-125089814D01*
X117571271Y-125006552D01*
X117607009Y-124977222D01*
X117763534Y-124893557D01*
X117933373Y-124842037D01*
X117999557Y-124835519D01*
X118065740Y-124829000D01*
X118154260Y-124829000D01*
X118220443Y-124835519D01*
X118220443Y-124835519D01*
G37*
G36*
X113140443Y-124835519D02*
G01*
X113206627Y-124842037D01*
X113376466Y-124893557D01*
X113532991Y-124977222D01*
X113568729Y-125006552D01*
X113670186Y-125089814D01*
X113753448Y-125191271D01*
X113782778Y-125227009D01*
X113866443Y-125383534D01*
X113917963Y-125553373D01*
X113935359Y-125730000D01*
X113917963Y-125906627D01*
X113866443Y-126076466D01*
X113782778Y-126232991D01*
X113753448Y-126268729D01*
X113670186Y-126370186D01*
X113568729Y-126453448D01*
X113532991Y-126482778D01*
X113376466Y-126566443D01*
X113206627Y-126617963D01*
X113140442Y-126624482D01*
X113074260Y-126631000D01*
X112985740Y-126631000D01*
X112919558Y-126624482D01*
X112853373Y-126617963D01*
X112683534Y-126566443D01*
X112527009Y-126482778D01*
X112491271Y-126453448D01*
X112389814Y-126370186D01*
X112306552Y-126268729D01*
X112277222Y-126232991D01*
X112193557Y-126076466D01*
X112142037Y-125906627D01*
X112124641Y-125730000D01*
X112142037Y-125553373D01*
X112193557Y-125383534D01*
X112277222Y-125227009D01*
X112306552Y-125191271D01*
X112389814Y-125089814D01*
X112491271Y-125006552D01*
X112527009Y-124977222D01*
X112683534Y-124893557D01*
X112853373Y-124842037D01*
X112919557Y-124835519D01*
X112985740Y-124829000D01*
X113074260Y-124829000D01*
X113140443Y-124835519D01*
X113140443Y-124835519D01*
G37*
G36*
X111391000Y-126631000D02*
G01*
X109589000Y-126631000D01*
X109589000Y-124829000D01*
X111391000Y-124829000D01*
X111391000Y-126631000D01*
X111391000Y-126631000D01*
G37*
G36*
X144255443Y-122930519D02*
G01*
X144321627Y-122937037D01*
X144491466Y-122988557D01*
X144647991Y-123072222D01*
X144683729Y-123101552D01*
X144785186Y-123184814D01*
X144868448Y-123286271D01*
X144897778Y-123322009D01*
X144981443Y-123478534D01*
X145032963Y-123648373D01*
X145050359Y-123825000D01*
X145032963Y-124001627D01*
X144981443Y-124171466D01*
X144897778Y-124327991D01*
X144868448Y-124363729D01*
X144785186Y-124465186D01*
X144683729Y-124548448D01*
X144647991Y-124577778D01*
X144491466Y-124661443D01*
X144321627Y-124712963D01*
X144255443Y-124719481D01*
X144189260Y-124726000D01*
X144100740Y-124726000D01*
X144034557Y-124719481D01*
X143968373Y-124712963D01*
X143798534Y-124661443D01*
X143642009Y-124577778D01*
X143606271Y-124548448D01*
X143504814Y-124465186D01*
X143421552Y-124363729D01*
X143392222Y-124327991D01*
X143308557Y-124171466D01*
X143257037Y-124001627D01*
X143239641Y-123825000D01*
X143257037Y-123648373D01*
X143308557Y-123478534D01*
X143392222Y-123322009D01*
X143421552Y-123286271D01*
X143504814Y-123184814D01*
X143606271Y-123101552D01*
X143642009Y-123072222D01*
X143798534Y-122988557D01*
X143968373Y-122937037D01*
X144034557Y-122930519D01*
X144100740Y-122924000D01*
X144189260Y-122924000D01*
X144255443Y-122930519D01*
X144255443Y-122930519D01*
G37*
G36*
X66624468Y-121991065D02*
G01*
X66663138Y-122002796D01*
X66698777Y-122021846D01*
X66730017Y-122047483D01*
X66755654Y-122078723D01*
X66774704Y-122114362D01*
X66786435Y-122153032D01*
X66791000Y-122199388D01*
X66791000Y-122850612D01*
X66786435Y-122896968D01*
X66774704Y-122935638D01*
X66755654Y-122971277D01*
X66730017Y-123002517D01*
X66698777Y-123028154D01*
X66663138Y-123047204D01*
X66624468Y-123058935D01*
X66578112Y-123063500D01*
X65501888Y-123063500D01*
X65455532Y-123058935D01*
X65416862Y-123047204D01*
X65381223Y-123028154D01*
X65349983Y-123002517D01*
X65324346Y-122971277D01*
X65305296Y-122935638D01*
X65293565Y-122896968D01*
X65289000Y-122850612D01*
X65289000Y-122199388D01*
X65293565Y-122153032D01*
X65305296Y-122114362D01*
X65324346Y-122078723D01*
X65349983Y-122047483D01*
X65381223Y-122021846D01*
X65416862Y-122002796D01*
X65455532Y-121991065D01*
X65501888Y-121986500D01*
X66578112Y-121986500D01*
X66624468Y-121991065D01*
X66624468Y-121991065D01*
G37*
G36*
X144255443Y-120390519D02*
G01*
X144321627Y-120397037D01*
X144491466Y-120448557D01*
X144647991Y-120532222D01*
X144683729Y-120561552D01*
X144785186Y-120644814D01*
X144868448Y-120746271D01*
X144897778Y-120782009D01*
X144981443Y-120938534D01*
X145032963Y-121108373D01*
X145050359Y-121285000D01*
X145032963Y-121461627D01*
X144981443Y-121631466D01*
X144897778Y-121787991D01*
X144868448Y-121823729D01*
X144785186Y-121925186D01*
X144685500Y-122006995D01*
X144647991Y-122037778D01*
X144491466Y-122121443D01*
X144321627Y-122172963D01*
X144255442Y-122179482D01*
X144189260Y-122186000D01*
X144100740Y-122186000D01*
X144034558Y-122179482D01*
X143968373Y-122172963D01*
X143798534Y-122121443D01*
X143642009Y-122037778D01*
X143604500Y-122006995D01*
X143504814Y-121925186D01*
X143421552Y-121823729D01*
X143392222Y-121787991D01*
X143308557Y-121631466D01*
X143257037Y-121461627D01*
X143239641Y-121285000D01*
X143257037Y-121108373D01*
X143308557Y-120938534D01*
X143392222Y-120782009D01*
X143421552Y-120746271D01*
X143504814Y-120644814D01*
X143606271Y-120561552D01*
X143642009Y-120532222D01*
X143798534Y-120448557D01*
X143968373Y-120397037D01*
X144034557Y-120390519D01*
X144100740Y-120384000D01*
X144189260Y-120384000D01*
X144255443Y-120390519D01*
X144255443Y-120390519D01*
G37*
G36*
X77580442Y-119755518D02*
G01*
X77646627Y-119762037D01*
X77816466Y-119813557D01*
X77972991Y-119897222D01*
X78008729Y-119926552D01*
X78110186Y-120009814D01*
X78193448Y-120111271D01*
X78222778Y-120147009D01*
X78306443Y-120303534D01*
X78357963Y-120473373D01*
X78375359Y-120650000D01*
X78357963Y-120826627D01*
X78306443Y-120996466D01*
X78222778Y-121152991D01*
X78197383Y-121183935D01*
X78110186Y-121290186D01*
X78008729Y-121373448D01*
X77972991Y-121402778D01*
X77816466Y-121486443D01*
X77646627Y-121537963D01*
X77580443Y-121544481D01*
X77514260Y-121551000D01*
X77425740Y-121551000D01*
X77359557Y-121544481D01*
X77293373Y-121537963D01*
X77123534Y-121486443D01*
X76967009Y-121402778D01*
X76931271Y-121373448D01*
X76829814Y-121290186D01*
X76742617Y-121183935D01*
X76717222Y-121152991D01*
X76633557Y-120996466D01*
X76582037Y-120826627D01*
X76564641Y-120650000D01*
X76582037Y-120473373D01*
X76633557Y-120303534D01*
X76717222Y-120147009D01*
X76746552Y-120111271D01*
X76829814Y-120009814D01*
X76931271Y-119926552D01*
X76967009Y-119897222D01*
X77123534Y-119813557D01*
X77293373Y-119762037D01*
X77359558Y-119755518D01*
X77425740Y-119749000D01*
X77514260Y-119749000D01*
X77580442Y-119755518D01*
X77580442Y-119755518D01*
G37*
G36*
X75040442Y-119755518D02*
G01*
X75106627Y-119762037D01*
X75276466Y-119813557D01*
X75432991Y-119897222D01*
X75468729Y-119926552D01*
X75570186Y-120009814D01*
X75653448Y-120111271D01*
X75682778Y-120147009D01*
X75766443Y-120303534D01*
X75817963Y-120473373D01*
X75835359Y-120650000D01*
X75817963Y-120826627D01*
X75766443Y-120996466D01*
X75682778Y-121152991D01*
X75657383Y-121183935D01*
X75570186Y-121290186D01*
X75468729Y-121373448D01*
X75432991Y-121402778D01*
X75276466Y-121486443D01*
X75106627Y-121537963D01*
X75040443Y-121544481D01*
X74974260Y-121551000D01*
X74885740Y-121551000D01*
X74819557Y-121544481D01*
X74753373Y-121537963D01*
X74583534Y-121486443D01*
X74427009Y-121402778D01*
X74391271Y-121373448D01*
X74289814Y-121290186D01*
X74202617Y-121183935D01*
X74177222Y-121152991D01*
X74093557Y-120996466D01*
X74042037Y-120826627D01*
X74024641Y-120650000D01*
X74042037Y-120473373D01*
X74093557Y-120303534D01*
X74177222Y-120147009D01*
X74206552Y-120111271D01*
X74289814Y-120009814D01*
X74391271Y-119926552D01*
X74427009Y-119897222D01*
X74583534Y-119813557D01*
X74753373Y-119762037D01*
X74819558Y-119755518D01*
X74885740Y-119749000D01*
X74974260Y-119749000D01*
X75040442Y-119755518D01*
X75040442Y-119755518D01*
G37*
G36*
X72500442Y-119755518D02*
G01*
X72566627Y-119762037D01*
X72736466Y-119813557D01*
X72892991Y-119897222D01*
X72928729Y-119926552D01*
X73030186Y-120009814D01*
X73113448Y-120111271D01*
X73142778Y-120147009D01*
X73226443Y-120303534D01*
X73277963Y-120473373D01*
X73295359Y-120650000D01*
X73277963Y-120826627D01*
X73226443Y-120996466D01*
X73142778Y-121152991D01*
X73117383Y-121183935D01*
X73030186Y-121290186D01*
X72928729Y-121373448D01*
X72892991Y-121402778D01*
X72736466Y-121486443D01*
X72566627Y-121537963D01*
X72500443Y-121544481D01*
X72434260Y-121551000D01*
X72345740Y-121551000D01*
X72279557Y-121544481D01*
X72213373Y-121537963D01*
X72043534Y-121486443D01*
X71887009Y-121402778D01*
X71851271Y-121373448D01*
X71749814Y-121290186D01*
X71662617Y-121183935D01*
X71637222Y-121152991D01*
X71553557Y-120996466D01*
X71502037Y-120826627D01*
X71484641Y-120650000D01*
X71502037Y-120473373D01*
X71553557Y-120303534D01*
X71637222Y-120147009D01*
X71666552Y-120111271D01*
X71749814Y-120009814D01*
X71851271Y-119926552D01*
X71887009Y-119897222D01*
X72043534Y-119813557D01*
X72213373Y-119762037D01*
X72279558Y-119755518D01*
X72345740Y-119749000D01*
X72434260Y-119749000D01*
X72500442Y-119755518D01*
X72500442Y-119755518D01*
G37*
G36*
X80120442Y-119755518D02*
G01*
X80186627Y-119762037D01*
X80356466Y-119813557D01*
X80512991Y-119897222D01*
X80548729Y-119926552D01*
X80650186Y-120009814D01*
X80733448Y-120111271D01*
X80762778Y-120147009D01*
X80846443Y-120303534D01*
X80897963Y-120473373D01*
X80915359Y-120650000D01*
X80897963Y-120826627D01*
X80846443Y-120996466D01*
X80762778Y-121152991D01*
X80737383Y-121183935D01*
X80650186Y-121290186D01*
X80548729Y-121373448D01*
X80512991Y-121402778D01*
X80356466Y-121486443D01*
X80186627Y-121537963D01*
X80120443Y-121544481D01*
X80054260Y-121551000D01*
X79965740Y-121551000D01*
X79899557Y-121544481D01*
X79833373Y-121537963D01*
X79663534Y-121486443D01*
X79507009Y-121402778D01*
X79471271Y-121373448D01*
X79369814Y-121290186D01*
X79282617Y-121183935D01*
X79257222Y-121152991D01*
X79173557Y-120996466D01*
X79122037Y-120826627D01*
X79104641Y-120650000D01*
X79122037Y-120473373D01*
X79173557Y-120303534D01*
X79257222Y-120147009D01*
X79286552Y-120111271D01*
X79369814Y-120009814D01*
X79471271Y-119926552D01*
X79507009Y-119897222D01*
X79663534Y-119813557D01*
X79833373Y-119762037D01*
X79899558Y-119755518D01*
X79965740Y-119749000D01*
X80054260Y-119749000D01*
X80120442Y-119755518D01*
X80120442Y-119755518D01*
G37*
G36*
X83451000Y-121551000D02*
G01*
X81649000Y-121551000D01*
X81649000Y-119749000D01*
X83451000Y-119749000D01*
X83451000Y-121551000D01*
X83451000Y-121551000D01*
G37*
G36*
X66624468Y-120116065D02*
G01*
X66663138Y-120127796D01*
X66698777Y-120146846D01*
X66730017Y-120172483D01*
X66755654Y-120203723D01*
X66774704Y-120239362D01*
X66786435Y-120278032D01*
X66791000Y-120324388D01*
X66791000Y-120975612D01*
X66786435Y-121021968D01*
X66774704Y-121060638D01*
X66755654Y-121096277D01*
X66730017Y-121127517D01*
X66698777Y-121153154D01*
X66663138Y-121172204D01*
X66624468Y-121183935D01*
X66578112Y-121188500D01*
X65501888Y-121188500D01*
X65455532Y-121183935D01*
X65416862Y-121172204D01*
X65381223Y-121153154D01*
X65349983Y-121127517D01*
X65324346Y-121096277D01*
X65305296Y-121060638D01*
X65293565Y-121021968D01*
X65289000Y-120975612D01*
X65289000Y-120324388D01*
X65293565Y-120278032D01*
X65305296Y-120239362D01*
X65324346Y-120203723D01*
X65349983Y-120172483D01*
X65381223Y-120146846D01*
X65416862Y-120127796D01*
X65455532Y-120116065D01*
X65501888Y-120111500D01*
X66578112Y-120111500D01*
X66624468Y-120116065D01*
X66624468Y-120116065D01*
G37*
G36*
X145046000Y-119646000D02*
G01*
X143244000Y-119646000D01*
X143244000Y-117844000D01*
X145046000Y-117844000D01*
X145046000Y-119646000D01*
X145046000Y-119646000D01*
G37*
G36*
X68813642Y-116069781D02*
G01*
X68959414Y-116130162D01*
X68959416Y-116130163D01*
X69090608Y-116217822D01*
X69202178Y-116329392D01*
X69289837Y-116460584D01*
X69289838Y-116460586D01*
X69350219Y-116606358D01*
X69381000Y-116761107D01*
X69381000Y-116918893D01*
X69350219Y-117073642D01*
X69289838Y-117219414D01*
X69289837Y-117219416D01*
X69202178Y-117350608D01*
X69090608Y-117462178D01*
X68959416Y-117549837D01*
X68959415Y-117549838D01*
X68959414Y-117549838D01*
X68813642Y-117610219D01*
X68658893Y-117641000D01*
X68501107Y-117641000D01*
X68346358Y-117610219D01*
X68200586Y-117549838D01*
X68200585Y-117549838D01*
X68200584Y-117549837D01*
X68069392Y-117462178D01*
X67957822Y-117350608D01*
X67870163Y-117219416D01*
X67870162Y-117219414D01*
X67809781Y-117073642D01*
X67779000Y-116918893D01*
X67779000Y-116761107D01*
X67809781Y-116606358D01*
X67870162Y-116460586D01*
X67870163Y-116460584D01*
X67957822Y-116329392D01*
X68069392Y-116217822D01*
X68200584Y-116130163D01*
X68200586Y-116130162D01*
X68346358Y-116069781D01*
X68501107Y-116039000D01*
X68658893Y-116039000D01*
X68813642Y-116069781D01*
X68813642Y-116069781D01*
G37*
G36*
X66273642Y-116069781D02*
G01*
X66419414Y-116130162D01*
X66419416Y-116130163D01*
X66550608Y-116217822D01*
X66662178Y-116329392D01*
X66749837Y-116460584D01*
X66749838Y-116460586D01*
X66810219Y-116606358D01*
X66841000Y-116761107D01*
X66841000Y-116918893D01*
X66810219Y-117073642D01*
X66749838Y-117219414D01*
X66749837Y-117219416D01*
X66662178Y-117350608D01*
X66550608Y-117462178D01*
X66419416Y-117549837D01*
X66419415Y-117549838D01*
X66419414Y-117549838D01*
X66273642Y-117610219D01*
X66118893Y-117641000D01*
X65961107Y-117641000D01*
X65806358Y-117610219D01*
X65660586Y-117549838D01*
X65660585Y-117549838D01*
X65660584Y-117549837D01*
X65529392Y-117462178D01*
X65417822Y-117350608D01*
X65330163Y-117219416D01*
X65330162Y-117219414D01*
X65269781Y-117073642D01*
X65239000Y-116918893D01*
X65239000Y-116761107D01*
X65269781Y-116606358D01*
X65330162Y-116460586D01*
X65330163Y-116460584D01*
X65417822Y-116329392D01*
X65529392Y-116217822D01*
X65660584Y-116130163D01*
X65660586Y-116130162D01*
X65806358Y-116069781D01*
X65961107Y-116039000D01*
X66118893Y-116039000D01*
X66273642Y-116069781D01*
X66273642Y-116069781D01*
G37*
G36*
X64301000Y-117641000D02*
G01*
X62699000Y-117641000D01*
X62699000Y-116039000D01*
X64301000Y-116039000D01*
X64301000Y-117641000D01*
X64301000Y-117641000D01*
G37*
G36*
X113140443Y-113405519D02*
G01*
X113206627Y-113412037D01*
X113376466Y-113463557D01*
X113532991Y-113547222D01*
X113568729Y-113576552D01*
X113670186Y-113659814D01*
X113753448Y-113761271D01*
X113782778Y-113797009D01*
X113866443Y-113953534D01*
X113917963Y-114123373D01*
X113935359Y-114300000D01*
X113917963Y-114476627D01*
X113866443Y-114646466D01*
X113782778Y-114802991D01*
X113753448Y-114838729D01*
X113670186Y-114940186D01*
X113568729Y-115023448D01*
X113532991Y-115052778D01*
X113376466Y-115136443D01*
X113206627Y-115187963D01*
X113140442Y-115194482D01*
X113074260Y-115201000D01*
X112985740Y-115201000D01*
X112919558Y-115194482D01*
X112853373Y-115187963D01*
X112683534Y-115136443D01*
X112527009Y-115052778D01*
X112491271Y-115023448D01*
X112389814Y-114940186D01*
X112306552Y-114838729D01*
X112277222Y-114802991D01*
X112193557Y-114646466D01*
X112142037Y-114476627D01*
X112124641Y-114300000D01*
X112142037Y-114123373D01*
X112193557Y-113953534D01*
X112277222Y-113797009D01*
X112306552Y-113761271D01*
X112389814Y-113659814D01*
X112491271Y-113576552D01*
X112527009Y-113547222D01*
X112683534Y-113463557D01*
X112853373Y-113412037D01*
X112919557Y-113405519D01*
X112985740Y-113399000D01*
X113074260Y-113399000D01*
X113140443Y-113405519D01*
X113140443Y-113405519D01*
G37*
G36*
X113140442Y-110865518D02*
G01*
X113206627Y-110872037D01*
X113376466Y-110923557D01*
X113532991Y-111007222D01*
X113568729Y-111036552D01*
X113670186Y-111119814D01*
X113753448Y-111221271D01*
X113782778Y-111257009D01*
X113866443Y-111413534D01*
X113917963Y-111583373D01*
X113935359Y-111760000D01*
X113917963Y-111936627D01*
X113866443Y-112106466D01*
X113782778Y-112262991D01*
X113753448Y-112298729D01*
X113670186Y-112400186D01*
X113568729Y-112483448D01*
X113532991Y-112512778D01*
X113376466Y-112596443D01*
X113206627Y-112647963D01*
X113140442Y-112654482D01*
X113074260Y-112661000D01*
X112985740Y-112661000D01*
X112919558Y-112654482D01*
X112853373Y-112647963D01*
X112683534Y-112596443D01*
X112527009Y-112512778D01*
X112491271Y-112483448D01*
X112389814Y-112400186D01*
X112306552Y-112298729D01*
X112277222Y-112262991D01*
X112193557Y-112106466D01*
X112142037Y-111936627D01*
X112124641Y-111760000D01*
X112142037Y-111583373D01*
X112193557Y-111413534D01*
X112277222Y-111257009D01*
X112306552Y-111221271D01*
X112389814Y-111119814D01*
X112491271Y-111036552D01*
X112527009Y-111007222D01*
X112683534Y-110923557D01*
X112853373Y-110872037D01*
X112919558Y-110865518D01*
X112985740Y-110859000D01*
X113074260Y-110859000D01*
X113140442Y-110865518D01*
X113140442Y-110865518D01*
G37*
G36*
X88531000Y-112661000D02*
G01*
X86729000Y-112661000D01*
X86729000Y-110859000D01*
X88531000Y-110859000D01*
X88531000Y-112661000D01*
X88531000Y-112661000D01*
G37*
G36*
X85200442Y-110865518D02*
G01*
X85266627Y-110872037D01*
X85436466Y-110923557D01*
X85592991Y-111007222D01*
X85628729Y-111036552D01*
X85730186Y-111119814D01*
X85813448Y-111221271D01*
X85842778Y-111257009D01*
X85926443Y-111413534D01*
X85977963Y-111583373D01*
X85995359Y-111760000D01*
X85977963Y-111936627D01*
X85926443Y-112106466D01*
X85842778Y-112262991D01*
X85813448Y-112298729D01*
X85730186Y-112400186D01*
X85628729Y-112483448D01*
X85592991Y-112512778D01*
X85436466Y-112596443D01*
X85266627Y-112647963D01*
X85200442Y-112654482D01*
X85134260Y-112661000D01*
X85045740Y-112661000D01*
X84979558Y-112654482D01*
X84913373Y-112647963D01*
X84743534Y-112596443D01*
X84587009Y-112512778D01*
X84551271Y-112483448D01*
X84449814Y-112400186D01*
X84366552Y-112298729D01*
X84337222Y-112262991D01*
X84253557Y-112106466D01*
X84202037Y-111936627D01*
X84184641Y-111760000D01*
X84202037Y-111583373D01*
X84253557Y-111413534D01*
X84337222Y-111257009D01*
X84366552Y-111221271D01*
X84449814Y-111119814D01*
X84551271Y-111036552D01*
X84587009Y-111007222D01*
X84743534Y-110923557D01*
X84913373Y-110872037D01*
X84979558Y-110865518D01*
X85045740Y-110859000D01*
X85134260Y-110859000D01*
X85200442Y-110865518D01*
X85200442Y-110865518D01*
G37*
G36*
X80120442Y-110865518D02*
G01*
X80186627Y-110872037D01*
X80356466Y-110923557D01*
X80512991Y-111007222D01*
X80548729Y-111036552D01*
X80650186Y-111119814D01*
X80733448Y-111221271D01*
X80762778Y-111257009D01*
X80846443Y-111413534D01*
X80897963Y-111583373D01*
X80915359Y-111760000D01*
X80897963Y-111936627D01*
X80846443Y-112106466D01*
X80762778Y-112262991D01*
X80733448Y-112298729D01*
X80650186Y-112400186D01*
X80548729Y-112483448D01*
X80512991Y-112512778D01*
X80356466Y-112596443D01*
X80186627Y-112647963D01*
X80120442Y-112654482D01*
X80054260Y-112661000D01*
X79965740Y-112661000D01*
X79899558Y-112654482D01*
X79833373Y-112647963D01*
X79663534Y-112596443D01*
X79507009Y-112512778D01*
X79471271Y-112483448D01*
X79369814Y-112400186D01*
X79286552Y-112298729D01*
X79257222Y-112262991D01*
X79173557Y-112106466D01*
X79122037Y-111936627D01*
X79104641Y-111760000D01*
X79122037Y-111583373D01*
X79173557Y-111413534D01*
X79257222Y-111257009D01*
X79286552Y-111221271D01*
X79369814Y-111119814D01*
X79471271Y-111036552D01*
X79507009Y-111007222D01*
X79663534Y-110923557D01*
X79833373Y-110872037D01*
X79899558Y-110865518D01*
X79965740Y-110859000D01*
X80054260Y-110859000D01*
X80120442Y-110865518D01*
X80120442Y-110865518D01*
G37*
G36*
X82660442Y-110865518D02*
G01*
X82726627Y-110872037D01*
X82896466Y-110923557D01*
X83052991Y-111007222D01*
X83088729Y-111036552D01*
X83190186Y-111119814D01*
X83273448Y-111221271D01*
X83302778Y-111257009D01*
X83386443Y-111413534D01*
X83437963Y-111583373D01*
X83455359Y-111760000D01*
X83437963Y-111936627D01*
X83386443Y-112106466D01*
X83302778Y-112262991D01*
X83273448Y-112298729D01*
X83190186Y-112400186D01*
X83088729Y-112483448D01*
X83052991Y-112512778D01*
X82896466Y-112596443D01*
X82726627Y-112647963D01*
X82660442Y-112654482D01*
X82594260Y-112661000D01*
X82505740Y-112661000D01*
X82439558Y-112654482D01*
X82373373Y-112647963D01*
X82203534Y-112596443D01*
X82047009Y-112512778D01*
X82011271Y-112483448D01*
X81909814Y-112400186D01*
X81826552Y-112298729D01*
X81797222Y-112262991D01*
X81713557Y-112106466D01*
X81662037Y-111936627D01*
X81644641Y-111760000D01*
X81662037Y-111583373D01*
X81713557Y-111413534D01*
X81797222Y-111257009D01*
X81826552Y-111221271D01*
X81909814Y-111119814D01*
X82011271Y-111036552D01*
X82047009Y-111007222D01*
X82203534Y-110923557D01*
X82373373Y-110872037D01*
X82439558Y-110865518D01*
X82505740Y-110859000D01*
X82594260Y-110859000D01*
X82660442Y-110865518D01*
X82660442Y-110865518D01*
G37*
G36*
X148006000Y-110461000D02*
G01*
X142824000Y-110461000D01*
X142824000Y-108859000D01*
X148006000Y-108859000D01*
X148006000Y-110461000D01*
X148006000Y-110461000D01*
G37*
G36*
X113140443Y-108325519D02*
G01*
X113206627Y-108332037D01*
X113376466Y-108383557D01*
X113532991Y-108467222D01*
X113568729Y-108496552D01*
X113670186Y-108579814D01*
X113753448Y-108681271D01*
X113782778Y-108717009D01*
X113866443Y-108873534D01*
X113917963Y-109043373D01*
X113935359Y-109220000D01*
X113917963Y-109396627D01*
X113866443Y-109566466D01*
X113782778Y-109722991D01*
X113753448Y-109758729D01*
X113670186Y-109860186D01*
X113568729Y-109943448D01*
X113532991Y-109972778D01*
X113376466Y-110056443D01*
X113206627Y-110107963D01*
X113140443Y-110114481D01*
X113074260Y-110121000D01*
X112985740Y-110121000D01*
X112919557Y-110114481D01*
X112853373Y-110107963D01*
X112683534Y-110056443D01*
X112527009Y-109972778D01*
X112491271Y-109943448D01*
X112389814Y-109860186D01*
X112306552Y-109758729D01*
X112277222Y-109722991D01*
X112193557Y-109566466D01*
X112142037Y-109396627D01*
X112124641Y-109220000D01*
X112142037Y-109043373D01*
X112193557Y-108873534D01*
X112277222Y-108717009D01*
X112306552Y-108681271D01*
X112389814Y-108579814D01*
X112491271Y-108496552D01*
X112527009Y-108467222D01*
X112683534Y-108383557D01*
X112853373Y-108332037D01*
X112919557Y-108325519D01*
X112985740Y-108319000D01*
X113074260Y-108319000D01*
X113140443Y-108325519D01*
X113140443Y-108325519D01*
G37*
G36*
X113140443Y-105785519D02*
G01*
X113206627Y-105792037D01*
X113376466Y-105843557D01*
X113532991Y-105927222D01*
X113568729Y-105956552D01*
X113670186Y-106039814D01*
X113753448Y-106141271D01*
X113782778Y-106177009D01*
X113866443Y-106333534D01*
X113917963Y-106503373D01*
X113935359Y-106680000D01*
X113917963Y-106856627D01*
X113866443Y-107026466D01*
X113782778Y-107182991D01*
X113753448Y-107218729D01*
X113670186Y-107320186D01*
X113568729Y-107403448D01*
X113532991Y-107432778D01*
X113376466Y-107516443D01*
X113206627Y-107567963D01*
X113140443Y-107574481D01*
X113074260Y-107581000D01*
X112985740Y-107581000D01*
X112919557Y-107574481D01*
X112853373Y-107567963D01*
X112683534Y-107516443D01*
X112527009Y-107432778D01*
X112491271Y-107403448D01*
X112389814Y-107320186D01*
X112306552Y-107218729D01*
X112277222Y-107182991D01*
X112193557Y-107026466D01*
X112142037Y-106856627D01*
X112124641Y-106680000D01*
X112142037Y-106503373D01*
X112193557Y-106333534D01*
X112277222Y-106177009D01*
X112306552Y-106141271D01*
X112389814Y-106039814D01*
X112491271Y-105956552D01*
X112527009Y-105927222D01*
X112683534Y-105843557D01*
X112853373Y-105792037D01*
X112919557Y-105785519D01*
X112985740Y-105779000D01*
X113074260Y-105779000D01*
X113140443Y-105785519D01*
X113140443Y-105785519D01*
G37*
G36*
X66150443Y-103245519D02*
G01*
X66216627Y-103252037D01*
X66386466Y-103303557D01*
X66542991Y-103387222D01*
X66578729Y-103416552D01*
X66680186Y-103499814D01*
X66763448Y-103601271D01*
X66792778Y-103637009D01*
X66876443Y-103793534D01*
X66927963Y-103963373D01*
X66945359Y-104140000D01*
X66927963Y-104316627D01*
X66876443Y-104486466D01*
X66792778Y-104642991D01*
X66763448Y-104678729D01*
X66680186Y-104780186D01*
X66578729Y-104863448D01*
X66542991Y-104892778D01*
X66386466Y-104976443D01*
X66216627Y-105027963D01*
X66150442Y-105034482D01*
X66084260Y-105041000D01*
X65995740Y-105041000D01*
X65929557Y-105034481D01*
X65863373Y-105027963D01*
X65693534Y-104976443D01*
X65537009Y-104892778D01*
X65501271Y-104863448D01*
X65399814Y-104780186D01*
X65316552Y-104678729D01*
X65287222Y-104642991D01*
X65203557Y-104486466D01*
X65152037Y-104316627D01*
X65134641Y-104140000D01*
X65152037Y-103963373D01*
X65203557Y-103793534D01*
X65287222Y-103637009D01*
X65316552Y-103601271D01*
X65399814Y-103499814D01*
X65501271Y-103416552D01*
X65537009Y-103387222D01*
X65693534Y-103303557D01*
X65863373Y-103252037D01*
X65929558Y-103245518D01*
X65995740Y-103239000D01*
X66084260Y-103239000D01*
X66150443Y-103245519D01*
X66150443Y-103245519D01*
G37*
G36*
X113140443Y-103245519D02*
G01*
X113206627Y-103252037D01*
X113376466Y-103303557D01*
X113532991Y-103387222D01*
X113568729Y-103416552D01*
X113670186Y-103499814D01*
X113753448Y-103601271D01*
X113782778Y-103637009D01*
X113866443Y-103793534D01*
X113917963Y-103963373D01*
X113935359Y-104140000D01*
X113917963Y-104316627D01*
X113866443Y-104486466D01*
X113782778Y-104642991D01*
X113753448Y-104678729D01*
X113670186Y-104780186D01*
X113568729Y-104863448D01*
X113532991Y-104892778D01*
X113376466Y-104976443D01*
X113206627Y-105027963D01*
X113140442Y-105034482D01*
X113074260Y-105041000D01*
X112985740Y-105041000D01*
X112919557Y-105034481D01*
X112853373Y-105027963D01*
X112683534Y-104976443D01*
X112527009Y-104892778D01*
X112491271Y-104863448D01*
X112389814Y-104780186D01*
X112306552Y-104678729D01*
X112277222Y-104642991D01*
X112193557Y-104486466D01*
X112142037Y-104316627D01*
X112124641Y-104140000D01*
X112142037Y-103963373D01*
X112193557Y-103793534D01*
X112277222Y-103637009D01*
X112306552Y-103601271D01*
X112389814Y-103499814D01*
X112491271Y-103416552D01*
X112527009Y-103387222D01*
X112683534Y-103303557D01*
X112853373Y-103252037D01*
X112919558Y-103245518D01*
X112985740Y-103239000D01*
X113074260Y-103239000D01*
X113140443Y-103245519D01*
X113140443Y-103245519D01*
G37*
G36*
X54770721Y-102000174D02*
G01*
X54870995Y-102041709D01*
X54870996Y-102041710D01*
X54961242Y-102102010D01*
X55037990Y-102178758D01*
X55037991Y-102178760D01*
X55098291Y-102269005D01*
X55139826Y-102369279D01*
X55161000Y-102475730D01*
X55161000Y-102584270D01*
X55139826Y-102690721D01*
X55098291Y-102790995D01*
X55098290Y-102790996D01*
X55037990Y-102881242D01*
X54961242Y-102957990D01*
X54915812Y-102988345D01*
X54870995Y-103018291D01*
X54770721Y-103059826D01*
X54664270Y-103081000D01*
X54555730Y-103081000D01*
X54449279Y-103059826D01*
X54349005Y-103018291D01*
X54304188Y-102988345D01*
X54258758Y-102957990D01*
X54182010Y-102881242D01*
X54121710Y-102790996D01*
X54121709Y-102790995D01*
X54080174Y-102690721D01*
X54059000Y-102584270D01*
X54059000Y-102475730D01*
X54080174Y-102369279D01*
X54121709Y-102269005D01*
X54182009Y-102178760D01*
X54182010Y-102178758D01*
X54258758Y-102102010D01*
X54349004Y-102041710D01*
X54349005Y-102041709D01*
X54449279Y-102000174D01*
X54555730Y-101979000D01*
X54664270Y-101979000D01*
X54770721Y-102000174D01*
X54770721Y-102000174D01*
G37*
G36*
X113140443Y-100705519D02*
G01*
X113206627Y-100712037D01*
X113376466Y-100763557D01*
X113532991Y-100847222D01*
X113568729Y-100876552D01*
X113670186Y-100959814D01*
X113753448Y-101061271D01*
X113782778Y-101097009D01*
X113866443Y-101253534D01*
X113917963Y-101423373D01*
X113935359Y-101600000D01*
X113917963Y-101776627D01*
X113866443Y-101946466D01*
X113782778Y-102102991D01*
X113753448Y-102138729D01*
X113670186Y-102240186D01*
X113568729Y-102323448D01*
X113532991Y-102352778D01*
X113376466Y-102436443D01*
X113206627Y-102487963D01*
X113140442Y-102494482D01*
X113074260Y-102501000D01*
X112985740Y-102501000D01*
X112919558Y-102494482D01*
X112853373Y-102487963D01*
X112683534Y-102436443D01*
X112527009Y-102352778D01*
X112491271Y-102323448D01*
X112389814Y-102240186D01*
X112306552Y-102138729D01*
X112277222Y-102102991D01*
X112193557Y-101946466D01*
X112142037Y-101776627D01*
X112124641Y-101600000D01*
X112142037Y-101423373D01*
X112193557Y-101253534D01*
X112277222Y-101097009D01*
X112306552Y-101061271D01*
X112389814Y-100959814D01*
X112491271Y-100876552D01*
X112527009Y-100847222D01*
X112683534Y-100763557D01*
X112853373Y-100712037D01*
X112919557Y-100705519D01*
X112985740Y-100699000D01*
X113074260Y-100699000D01*
X113140443Y-100705519D01*
X113140443Y-100705519D01*
G37*
G36*
X66150443Y-100705519D02*
G01*
X66216627Y-100712037D01*
X66386466Y-100763557D01*
X66542991Y-100847222D01*
X66578729Y-100876552D01*
X66680186Y-100959814D01*
X66763448Y-101061271D01*
X66792778Y-101097009D01*
X66876443Y-101253534D01*
X66927963Y-101423373D01*
X66945359Y-101600000D01*
X66927963Y-101776627D01*
X66876443Y-101946466D01*
X66792778Y-102102991D01*
X66763448Y-102138729D01*
X66680186Y-102240186D01*
X66578729Y-102323448D01*
X66542991Y-102352778D01*
X66386466Y-102436443D01*
X66216627Y-102487963D01*
X66150442Y-102494482D01*
X66084260Y-102501000D01*
X65995740Y-102501000D01*
X65929558Y-102494482D01*
X65863373Y-102487963D01*
X65693534Y-102436443D01*
X65537009Y-102352778D01*
X65501271Y-102323448D01*
X65399814Y-102240186D01*
X65316552Y-102138729D01*
X65287222Y-102102991D01*
X65203557Y-101946466D01*
X65152037Y-101776627D01*
X65134641Y-101600000D01*
X65152037Y-101423373D01*
X65203557Y-101253534D01*
X65287222Y-101097009D01*
X65316552Y-101061271D01*
X65399814Y-100959814D01*
X65501271Y-100876552D01*
X65537009Y-100847222D01*
X65693534Y-100763557D01*
X65863373Y-100712037D01*
X65929557Y-100705519D01*
X65995740Y-100699000D01*
X66084260Y-100699000D01*
X66150443Y-100705519D01*
X66150443Y-100705519D01*
G37*
G36*
X148006000Y-101961000D02*
G01*
X142824000Y-101961000D01*
X142824000Y-100359000D01*
X148006000Y-100359000D01*
X148006000Y-101961000D01*
X148006000Y-101961000D01*
G37*
G36*
X66150443Y-98165519D02*
G01*
X66216627Y-98172037D01*
X66386466Y-98223557D01*
X66542991Y-98307222D01*
X66578729Y-98336552D01*
X66680186Y-98419814D01*
X66763448Y-98521271D01*
X66792778Y-98557009D01*
X66876443Y-98713534D01*
X66927963Y-98883373D01*
X66945359Y-99060000D01*
X66927963Y-99236627D01*
X66876443Y-99406466D01*
X66792778Y-99562991D01*
X66763448Y-99598729D01*
X66680186Y-99700186D01*
X66578729Y-99783448D01*
X66542991Y-99812778D01*
X66386466Y-99896443D01*
X66216627Y-99947963D01*
X66150443Y-99954481D01*
X66084260Y-99961000D01*
X65995740Y-99961000D01*
X65929557Y-99954481D01*
X65863373Y-99947963D01*
X65693534Y-99896443D01*
X65537009Y-99812778D01*
X65501271Y-99783448D01*
X65399814Y-99700186D01*
X65316552Y-99598729D01*
X65287222Y-99562991D01*
X65203557Y-99406466D01*
X65152037Y-99236627D01*
X65134641Y-99060000D01*
X65152037Y-98883373D01*
X65203557Y-98713534D01*
X65287222Y-98557009D01*
X65316552Y-98521271D01*
X65399814Y-98419814D01*
X65501271Y-98336552D01*
X65537009Y-98307222D01*
X65693534Y-98223557D01*
X65863373Y-98172037D01*
X65929557Y-98165519D01*
X65995740Y-98159000D01*
X66084260Y-98159000D01*
X66150443Y-98165519D01*
X66150443Y-98165519D01*
G37*
G36*
X113931000Y-99961000D02*
G01*
X112129000Y-99961000D01*
X112129000Y-98159000D01*
X113931000Y-98159000D01*
X113931000Y-99961000D01*
X113931000Y-99961000D01*
G37*
G36*
X54770721Y-97600174D02*
G01*
X54870995Y-97641709D01*
X54870996Y-97641710D01*
X54961242Y-97702010D01*
X55037990Y-97778758D01*
X55037991Y-97778760D01*
X55098291Y-97869005D01*
X55139826Y-97969279D01*
X55161000Y-98075730D01*
X55161000Y-98184270D01*
X55139826Y-98290721D01*
X55098291Y-98390995D01*
X55098290Y-98390996D01*
X55037990Y-98481242D01*
X54961242Y-98557990D01*
X54915812Y-98588345D01*
X54870995Y-98618291D01*
X54770721Y-98659826D01*
X54664270Y-98681000D01*
X54555730Y-98681000D01*
X54449279Y-98659826D01*
X54349005Y-98618291D01*
X54304188Y-98588345D01*
X54258758Y-98557990D01*
X54182010Y-98481242D01*
X54121710Y-98390996D01*
X54121709Y-98390995D01*
X54080174Y-98290721D01*
X54059000Y-98184270D01*
X54059000Y-98075730D01*
X54080174Y-97969279D01*
X54121709Y-97869005D01*
X54182009Y-97778760D01*
X54182010Y-97778758D01*
X54258758Y-97702010D01*
X54349004Y-97641710D01*
X54349005Y-97641709D01*
X54449279Y-97600174D01*
X54555730Y-97579000D01*
X54664270Y-97579000D01*
X54770721Y-97600174D01*
X54770721Y-97600174D01*
G37*
G36*
X66941000Y-97421000D02*
G01*
X65139000Y-97421000D01*
X65139000Y-95619000D01*
X66941000Y-95619000D01*
X66941000Y-97421000D01*
X66941000Y-97421000D01*
G37*
G36*
X83930442Y-94355518D02*
G01*
X83996627Y-94362037D01*
X84166466Y-94413557D01*
X84322991Y-94497222D01*
X84358729Y-94526552D01*
X84460186Y-94609814D01*
X84543448Y-94711271D01*
X84572778Y-94747009D01*
X84656443Y-94903534D01*
X84707963Y-95073373D01*
X84725359Y-95250000D01*
X84707963Y-95426627D01*
X84656443Y-95596466D01*
X84572778Y-95752991D01*
X84543448Y-95788729D01*
X84460186Y-95890186D01*
X84358729Y-95973448D01*
X84322991Y-96002778D01*
X84166466Y-96086443D01*
X83996627Y-96137963D01*
X83930442Y-96144482D01*
X83864260Y-96151000D01*
X83775740Y-96151000D01*
X83709558Y-96144482D01*
X83643373Y-96137963D01*
X83473534Y-96086443D01*
X83317009Y-96002778D01*
X83281271Y-95973448D01*
X83179814Y-95890186D01*
X83096552Y-95788729D01*
X83067222Y-95752991D01*
X82983557Y-95596466D01*
X82932037Y-95426627D01*
X82914641Y-95250000D01*
X82932037Y-95073373D01*
X82983557Y-94903534D01*
X83067222Y-94747009D01*
X83096552Y-94711271D01*
X83179814Y-94609814D01*
X83281271Y-94526552D01*
X83317009Y-94497222D01*
X83473534Y-94413557D01*
X83643373Y-94362037D01*
X83709558Y-94355518D01*
X83775740Y-94349000D01*
X83864260Y-94349000D01*
X83930442Y-94355518D01*
X83930442Y-94355518D01*
G37*
G36*
X89801000Y-96151000D02*
G01*
X87999000Y-96151000D01*
X87999000Y-94349000D01*
X89801000Y-94349000D01*
X89801000Y-96151000D01*
X89801000Y-96151000D01*
G37*
G36*
X81390442Y-94355518D02*
G01*
X81456627Y-94362037D01*
X81626466Y-94413557D01*
X81782991Y-94497222D01*
X81818729Y-94526552D01*
X81920186Y-94609814D01*
X82003448Y-94711271D01*
X82032778Y-94747009D01*
X82116443Y-94903534D01*
X82167963Y-95073373D01*
X82185359Y-95250000D01*
X82167963Y-95426627D01*
X82116443Y-95596466D01*
X82032778Y-95752991D01*
X82003448Y-95788729D01*
X81920186Y-95890186D01*
X81818729Y-95973448D01*
X81782991Y-96002778D01*
X81626466Y-96086443D01*
X81456627Y-96137963D01*
X81390442Y-96144482D01*
X81324260Y-96151000D01*
X81235740Y-96151000D01*
X81169558Y-96144482D01*
X81103373Y-96137963D01*
X80933534Y-96086443D01*
X80777009Y-96002778D01*
X80741271Y-95973448D01*
X80639814Y-95890186D01*
X80556552Y-95788729D01*
X80527222Y-95752991D01*
X80443557Y-95596466D01*
X80392037Y-95426627D01*
X80374641Y-95250000D01*
X80392037Y-95073373D01*
X80443557Y-94903534D01*
X80527222Y-94747009D01*
X80556552Y-94711271D01*
X80639814Y-94609814D01*
X80741271Y-94526552D01*
X80777009Y-94497222D01*
X80933534Y-94413557D01*
X81103373Y-94362037D01*
X81169558Y-94355518D01*
X81235740Y-94349000D01*
X81324260Y-94349000D01*
X81390442Y-94355518D01*
X81390442Y-94355518D01*
G37*
G36*
X78850442Y-94355518D02*
G01*
X78916627Y-94362037D01*
X79086466Y-94413557D01*
X79242991Y-94497222D01*
X79278729Y-94526552D01*
X79380186Y-94609814D01*
X79463448Y-94711271D01*
X79492778Y-94747009D01*
X79576443Y-94903534D01*
X79627963Y-95073373D01*
X79645359Y-95250000D01*
X79627963Y-95426627D01*
X79576443Y-95596466D01*
X79492778Y-95752991D01*
X79463448Y-95788729D01*
X79380186Y-95890186D01*
X79278729Y-95973448D01*
X79242991Y-96002778D01*
X79086466Y-96086443D01*
X78916627Y-96137963D01*
X78850442Y-96144482D01*
X78784260Y-96151000D01*
X78695740Y-96151000D01*
X78629558Y-96144482D01*
X78563373Y-96137963D01*
X78393534Y-96086443D01*
X78237009Y-96002778D01*
X78201271Y-95973448D01*
X78099814Y-95890186D01*
X78016552Y-95788729D01*
X77987222Y-95752991D01*
X77903557Y-95596466D01*
X77852037Y-95426627D01*
X77834641Y-95250000D01*
X77852037Y-95073373D01*
X77903557Y-94903534D01*
X77987222Y-94747009D01*
X78016552Y-94711271D01*
X78099814Y-94609814D01*
X78201271Y-94526552D01*
X78237009Y-94497222D01*
X78393534Y-94413557D01*
X78563373Y-94362037D01*
X78629558Y-94355518D01*
X78695740Y-94349000D01*
X78784260Y-94349000D01*
X78850442Y-94355518D01*
X78850442Y-94355518D01*
G37*
G36*
X76310442Y-94355518D02*
G01*
X76376627Y-94362037D01*
X76546466Y-94413557D01*
X76702991Y-94497222D01*
X76738729Y-94526552D01*
X76840186Y-94609814D01*
X76923448Y-94711271D01*
X76952778Y-94747009D01*
X77036443Y-94903534D01*
X77087963Y-95073373D01*
X77105359Y-95250000D01*
X77087963Y-95426627D01*
X77036443Y-95596466D01*
X76952778Y-95752991D01*
X76923448Y-95788729D01*
X76840186Y-95890186D01*
X76738729Y-95973448D01*
X76702991Y-96002778D01*
X76546466Y-96086443D01*
X76376627Y-96137963D01*
X76310442Y-96144482D01*
X76244260Y-96151000D01*
X76155740Y-96151000D01*
X76089558Y-96144482D01*
X76023373Y-96137963D01*
X75853534Y-96086443D01*
X75697009Y-96002778D01*
X75661271Y-95973448D01*
X75559814Y-95890186D01*
X75476552Y-95788729D01*
X75447222Y-95752991D01*
X75363557Y-95596466D01*
X75312037Y-95426627D01*
X75294641Y-95250000D01*
X75312037Y-95073373D01*
X75363557Y-94903534D01*
X75447222Y-94747009D01*
X75476552Y-94711271D01*
X75559814Y-94609814D01*
X75661271Y-94526552D01*
X75697009Y-94497222D01*
X75853534Y-94413557D01*
X76023373Y-94362037D01*
X76089558Y-94355518D01*
X76155740Y-94349000D01*
X76244260Y-94349000D01*
X76310442Y-94355518D01*
X76310442Y-94355518D01*
G37*
G36*
X73770442Y-94355518D02*
G01*
X73836627Y-94362037D01*
X74006466Y-94413557D01*
X74162991Y-94497222D01*
X74198729Y-94526552D01*
X74300186Y-94609814D01*
X74383448Y-94711271D01*
X74412778Y-94747009D01*
X74496443Y-94903534D01*
X74547963Y-95073373D01*
X74565359Y-95250000D01*
X74547963Y-95426627D01*
X74496443Y-95596466D01*
X74412778Y-95752991D01*
X74383448Y-95788729D01*
X74300186Y-95890186D01*
X74198729Y-95973448D01*
X74162991Y-96002778D01*
X74006466Y-96086443D01*
X73836627Y-96137963D01*
X73770442Y-96144482D01*
X73704260Y-96151000D01*
X73615740Y-96151000D01*
X73549558Y-96144482D01*
X73483373Y-96137963D01*
X73313534Y-96086443D01*
X73157009Y-96002778D01*
X73121271Y-95973448D01*
X73019814Y-95890186D01*
X72936552Y-95788729D01*
X72907222Y-95752991D01*
X72823557Y-95596466D01*
X72772037Y-95426627D01*
X72754641Y-95250000D01*
X72772037Y-95073373D01*
X72823557Y-94903534D01*
X72907222Y-94747009D01*
X72936552Y-94711271D01*
X73019814Y-94609814D01*
X73121271Y-94526552D01*
X73157009Y-94497222D01*
X73313534Y-94413557D01*
X73483373Y-94362037D01*
X73549558Y-94355518D01*
X73615740Y-94349000D01*
X73704260Y-94349000D01*
X73770442Y-94355518D01*
X73770442Y-94355518D01*
G37*
G36*
X71230442Y-94355518D02*
G01*
X71296627Y-94362037D01*
X71466466Y-94413557D01*
X71622991Y-94497222D01*
X71658729Y-94526552D01*
X71760186Y-94609814D01*
X71843448Y-94711271D01*
X71872778Y-94747009D01*
X71956443Y-94903534D01*
X72007963Y-95073373D01*
X72025359Y-95250000D01*
X72007963Y-95426627D01*
X71956443Y-95596466D01*
X71872778Y-95752991D01*
X71843448Y-95788729D01*
X71760186Y-95890186D01*
X71658729Y-95973448D01*
X71622991Y-96002778D01*
X71466466Y-96086443D01*
X71296627Y-96137963D01*
X71230442Y-96144482D01*
X71164260Y-96151000D01*
X71075740Y-96151000D01*
X71009558Y-96144482D01*
X70943373Y-96137963D01*
X70773534Y-96086443D01*
X70617009Y-96002778D01*
X70581271Y-95973448D01*
X70479814Y-95890186D01*
X70396552Y-95788729D01*
X70367222Y-95752991D01*
X70283557Y-95596466D01*
X70232037Y-95426627D01*
X70214641Y-95250000D01*
X70232037Y-95073373D01*
X70283557Y-94903534D01*
X70367222Y-94747009D01*
X70396552Y-94711271D01*
X70479814Y-94609814D01*
X70581271Y-94526552D01*
X70617009Y-94497222D01*
X70773534Y-94413557D01*
X70943373Y-94362037D01*
X71009558Y-94355518D01*
X71075740Y-94349000D01*
X71164260Y-94349000D01*
X71230442Y-94355518D01*
X71230442Y-94355518D01*
G37*
G36*
X86470442Y-94355518D02*
G01*
X86536627Y-94362037D01*
X86706466Y-94413557D01*
X86862991Y-94497222D01*
X86898729Y-94526552D01*
X87000186Y-94609814D01*
X87083448Y-94711271D01*
X87112778Y-94747009D01*
X87196443Y-94903534D01*
X87247963Y-95073373D01*
X87265359Y-95250000D01*
X87247963Y-95426627D01*
X87196443Y-95596466D01*
X87112778Y-95752991D01*
X87083448Y-95788729D01*
X87000186Y-95890186D01*
X86898729Y-95973448D01*
X86862991Y-96002778D01*
X86706466Y-96086443D01*
X86536627Y-96137963D01*
X86470442Y-96144482D01*
X86404260Y-96151000D01*
X86315740Y-96151000D01*
X86249558Y-96144482D01*
X86183373Y-96137963D01*
X86013534Y-96086443D01*
X85857009Y-96002778D01*
X85821271Y-95973448D01*
X85719814Y-95890186D01*
X85636552Y-95788729D01*
X85607222Y-95752991D01*
X85523557Y-95596466D01*
X85472037Y-95426627D01*
X85454641Y-95250000D01*
X85472037Y-95073373D01*
X85523557Y-94903534D01*
X85607222Y-94747009D01*
X85636552Y-94711271D01*
X85719814Y-94609814D01*
X85821271Y-94526552D01*
X85857009Y-94497222D01*
X86013534Y-94413557D01*
X86183373Y-94362037D01*
X86249558Y-94355518D01*
X86315740Y-94349000D01*
X86404260Y-94349000D01*
X86470442Y-94355518D01*
X86470442Y-94355518D01*
G37*
G36*
X148006000Y-90141000D02*
G01*
X142824000Y-90141000D01*
X142824000Y-88539000D01*
X148006000Y-88539000D01*
X148006000Y-90141000D01*
X148006000Y-90141000D01*
G37*
G36*
X62340442Y-85465518D02*
G01*
X62406627Y-85472037D01*
X62576466Y-85523557D01*
X62732991Y-85607222D01*
X62768729Y-85636552D01*
X62870186Y-85719814D01*
X62953448Y-85821271D01*
X62982778Y-85857009D01*
X63066443Y-86013534D01*
X63117963Y-86183373D01*
X63135359Y-86360000D01*
X63117963Y-86536627D01*
X63066443Y-86706466D01*
X62982778Y-86862991D01*
X62953448Y-86898729D01*
X62870186Y-87000186D01*
X62768729Y-87083448D01*
X62732991Y-87112778D01*
X62576466Y-87196443D01*
X62406627Y-87247963D01*
X62340442Y-87254482D01*
X62274260Y-87261000D01*
X62185740Y-87261000D01*
X62119558Y-87254482D01*
X62053373Y-87247963D01*
X61883534Y-87196443D01*
X61727009Y-87112778D01*
X61691271Y-87083448D01*
X61589814Y-87000186D01*
X61506552Y-86898729D01*
X61477222Y-86862991D01*
X61393557Y-86706466D01*
X61342037Y-86536627D01*
X61324641Y-86360000D01*
X61342037Y-86183373D01*
X61393557Y-86013534D01*
X61477222Y-85857009D01*
X61506552Y-85821271D01*
X61589814Y-85719814D01*
X61691271Y-85636552D01*
X61727009Y-85607222D01*
X61883534Y-85523557D01*
X62053373Y-85472037D01*
X62119558Y-85465518D01*
X62185740Y-85459000D01*
X62274260Y-85459000D01*
X62340442Y-85465518D01*
X62340442Y-85465518D01*
G37*
G36*
X62340443Y-82925519D02*
G01*
X62406627Y-82932037D01*
X62576466Y-82983557D01*
X62732991Y-83067222D01*
X62768729Y-83096552D01*
X62870186Y-83179814D01*
X62953448Y-83281271D01*
X62982778Y-83317009D01*
X63066443Y-83473534D01*
X63117963Y-83643373D01*
X63135359Y-83820000D01*
X63117963Y-83996627D01*
X63066443Y-84166466D01*
X62982778Y-84322991D01*
X62953448Y-84358729D01*
X62870186Y-84460186D01*
X62768729Y-84543448D01*
X62732991Y-84572778D01*
X62576466Y-84656443D01*
X62406627Y-84707963D01*
X62340443Y-84714481D01*
X62274260Y-84721000D01*
X62185740Y-84721000D01*
X62119557Y-84714481D01*
X62053373Y-84707963D01*
X61883534Y-84656443D01*
X61727009Y-84572778D01*
X61691271Y-84543448D01*
X61589814Y-84460186D01*
X61506552Y-84358729D01*
X61477222Y-84322991D01*
X61393557Y-84166466D01*
X61342037Y-83996627D01*
X61324641Y-83820000D01*
X61342037Y-83643373D01*
X61393557Y-83473534D01*
X61477222Y-83317009D01*
X61506552Y-83281271D01*
X61589814Y-83179814D01*
X61691271Y-83096552D01*
X61727009Y-83067222D01*
X61883534Y-82983557D01*
X62053373Y-82932037D01*
X62119557Y-82925519D01*
X62185740Y-82919000D01*
X62274260Y-82919000D01*
X62340443Y-82925519D01*
X62340443Y-82925519D01*
G37*
G36*
X62340442Y-80385518D02*
G01*
X62406627Y-80392037D01*
X62576466Y-80443557D01*
X62732991Y-80527222D01*
X62768729Y-80556552D01*
X62870186Y-80639814D01*
X62953448Y-80741271D01*
X62982778Y-80777009D01*
X63066443Y-80933534D01*
X63117963Y-81103373D01*
X63135359Y-81280000D01*
X63117963Y-81456627D01*
X63066443Y-81626466D01*
X62982778Y-81782991D01*
X62953448Y-81818729D01*
X62870186Y-81920186D01*
X62768729Y-82003448D01*
X62732991Y-82032778D01*
X62576466Y-82116443D01*
X62406627Y-82167963D01*
X62340443Y-82174481D01*
X62274260Y-82181000D01*
X62185740Y-82181000D01*
X62119557Y-82174481D01*
X62053373Y-82167963D01*
X61883534Y-82116443D01*
X61727009Y-82032778D01*
X61691271Y-82003448D01*
X61589814Y-81920186D01*
X61506552Y-81818729D01*
X61477222Y-81782991D01*
X61393557Y-81626466D01*
X61342037Y-81456627D01*
X61324641Y-81280000D01*
X61342037Y-81103373D01*
X61393557Y-80933534D01*
X61477222Y-80777009D01*
X61506552Y-80741271D01*
X61589814Y-80639814D01*
X61691271Y-80556552D01*
X61727009Y-80527222D01*
X61883534Y-80443557D01*
X62053373Y-80392037D01*
X62119558Y-80385518D01*
X62185740Y-80379000D01*
X62274260Y-80379000D01*
X62340442Y-80385518D01*
X62340442Y-80385518D01*
G37*
G36*
X148006000Y-81641000D02*
G01*
X142824000Y-81641000D01*
X142824000Y-80039000D01*
X148006000Y-80039000D01*
X148006000Y-81641000D01*
X148006000Y-81641000D01*
G37*
G36*
X62340443Y-77845519D02*
G01*
X62406627Y-77852037D01*
X62576466Y-77903557D01*
X62732991Y-77987222D01*
X62768729Y-78016552D01*
X62870186Y-78099814D01*
X62953448Y-78201271D01*
X62982778Y-78237009D01*
X63066443Y-78393534D01*
X63117963Y-78563373D01*
X63135359Y-78740000D01*
X63117963Y-78916627D01*
X63066443Y-79086466D01*
X62982778Y-79242991D01*
X62953448Y-79278729D01*
X62870186Y-79380186D01*
X62768729Y-79463448D01*
X62732991Y-79492778D01*
X62576466Y-79576443D01*
X62406627Y-79627963D01*
X62340442Y-79634482D01*
X62274260Y-79641000D01*
X62185740Y-79641000D01*
X62119558Y-79634482D01*
X62053373Y-79627963D01*
X61883534Y-79576443D01*
X61727009Y-79492778D01*
X61691271Y-79463448D01*
X61589814Y-79380186D01*
X61506552Y-79278729D01*
X61477222Y-79242991D01*
X61393557Y-79086466D01*
X61342037Y-78916627D01*
X61324641Y-78740000D01*
X61342037Y-78563373D01*
X61393557Y-78393534D01*
X61477222Y-78237009D01*
X61506552Y-78201271D01*
X61589814Y-78099814D01*
X61691271Y-78016552D01*
X61727009Y-77987222D01*
X61883534Y-77903557D01*
X62053373Y-77852037D01*
X62119557Y-77845519D01*
X62185740Y-77839000D01*
X62274260Y-77839000D01*
X62340443Y-77845519D01*
X62340443Y-77845519D01*
G37*
G36*
X62340442Y-75305518D02*
G01*
X62406627Y-75312037D01*
X62576466Y-75363557D01*
X62732991Y-75447222D01*
X62768729Y-75476552D01*
X62870186Y-75559814D01*
X62953448Y-75661271D01*
X62982778Y-75697009D01*
X63066443Y-75853534D01*
X63117963Y-76023373D01*
X63135359Y-76200000D01*
X63117963Y-76376627D01*
X63066443Y-76546466D01*
X62982778Y-76702991D01*
X62953448Y-76738729D01*
X62870186Y-76840186D01*
X62768729Y-76923448D01*
X62732991Y-76952778D01*
X62576466Y-77036443D01*
X62406627Y-77087963D01*
X62340442Y-77094482D01*
X62274260Y-77101000D01*
X62185740Y-77101000D01*
X62119558Y-77094482D01*
X62053373Y-77087963D01*
X61883534Y-77036443D01*
X61727009Y-76952778D01*
X61691271Y-76923448D01*
X61589814Y-76840186D01*
X61506552Y-76738729D01*
X61477222Y-76702991D01*
X61393557Y-76546466D01*
X61342037Y-76376627D01*
X61324641Y-76200000D01*
X61342037Y-76023373D01*
X61393557Y-75853534D01*
X61477222Y-75697009D01*
X61506552Y-75661271D01*
X61589814Y-75559814D01*
X61691271Y-75476552D01*
X61727009Y-75447222D01*
X61883534Y-75363557D01*
X62053373Y-75312037D01*
X62119558Y-75305518D01*
X62185740Y-75299000D01*
X62274260Y-75299000D01*
X62340442Y-75305518D01*
X62340442Y-75305518D01*
G37*
G36*
X109453642Y-75429781D02*
G01*
X109599414Y-75490162D01*
X109599416Y-75490163D01*
X109730608Y-75577822D01*
X109842178Y-75689392D01*
X109929837Y-75820584D01*
X109929838Y-75820586D01*
X109990219Y-75966358D01*
X110021000Y-76121107D01*
X110021000Y-76278893D01*
X109990219Y-76433642D01*
X109929838Y-76579414D01*
X109929837Y-76579416D01*
X109842178Y-76710608D01*
X109730608Y-76822178D01*
X109599416Y-76909837D01*
X109599415Y-76909838D01*
X109599414Y-76909838D01*
X109453642Y-76970219D01*
X109298893Y-77001000D01*
X109141107Y-77001000D01*
X108986358Y-76970219D01*
X108840586Y-76909838D01*
X108840585Y-76909838D01*
X108840584Y-76909837D01*
X108709392Y-76822178D01*
X108597822Y-76710608D01*
X108510163Y-76579416D01*
X108510162Y-76579414D01*
X108449781Y-76433642D01*
X108419000Y-76278893D01*
X108419000Y-76121107D01*
X108449781Y-75966358D01*
X108510162Y-75820586D01*
X108510163Y-75820584D01*
X108597822Y-75689392D01*
X108709392Y-75577822D01*
X108840584Y-75490163D01*
X108840586Y-75490162D01*
X108986358Y-75429781D01*
X109141107Y-75399000D01*
X109298893Y-75399000D01*
X109453642Y-75429781D01*
X109453642Y-75429781D01*
G37*
G36*
X63131000Y-74561000D02*
G01*
X61329000Y-74561000D01*
X61329000Y-72759000D01*
X63131000Y-72759000D01*
X63131000Y-74561000D01*
X63131000Y-74561000D01*
G37*
G36*
X109453642Y-72889781D02*
G01*
X109599414Y-72950162D01*
X109599416Y-72950163D01*
X109730608Y-73037822D01*
X109842178Y-73149392D01*
X109929837Y-73280584D01*
X109929838Y-73280586D01*
X109990219Y-73426358D01*
X110021000Y-73581107D01*
X110021000Y-73738893D01*
X109990219Y-73893642D01*
X109929838Y-74039414D01*
X109929837Y-74039416D01*
X109842178Y-74170608D01*
X109730608Y-74282178D01*
X109599416Y-74369837D01*
X109599415Y-74369838D01*
X109599414Y-74369838D01*
X109453642Y-74430219D01*
X109298893Y-74461000D01*
X109141107Y-74461000D01*
X108986358Y-74430219D01*
X108840586Y-74369838D01*
X108840585Y-74369838D01*
X108840584Y-74369837D01*
X108709392Y-74282178D01*
X108597822Y-74170608D01*
X108510163Y-74039416D01*
X108510162Y-74039414D01*
X108449781Y-73893642D01*
X108419000Y-73738893D01*
X108419000Y-73581107D01*
X108449781Y-73426358D01*
X108510162Y-73280586D01*
X108510163Y-73280584D01*
X108597822Y-73149392D01*
X108709392Y-73037822D01*
X108840584Y-72950163D01*
X108840586Y-72950162D01*
X108986358Y-72889781D01*
X109141107Y-72859000D01*
X109298893Y-72859000D01*
X109453642Y-72889781D01*
X109453642Y-72889781D01*
G37*
G36*
X110021000Y-71921000D02*
G01*
X108419000Y-71921000D01*
X108419000Y-70319000D01*
X110021000Y-70319000D01*
X110021000Y-71921000D01*
X110021000Y-71921000D01*
G37*
G36*
X137691000Y-71301000D02*
G01*
X134089000Y-71301000D01*
X134089000Y-67699000D01*
X137691000Y-67699000D01*
X137691000Y-71301000D01*
X137691000Y-71301000D01*
G37*
G36*
X145046000Y-70116000D02*
G01*
X143244000Y-70116000D01*
X143244000Y-68314000D01*
X145046000Y-68314000D01*
X145046000Y-70116000D01*
X145046000Y-70116000D01*
G37*
G36*
X100496823Y-67741313D02*
G01*
X100657242Y-67789976D01*
X100789906Y-67860886D01*
X100805078Y-67868996D01*
X100934659Y-67975341D01*
X101041004Y-68104922D01*
X101041005Y-68104924D01*
X101120024Y-68252758D01*
X101168687Y-68413177D01*
X101185117Y-68580000D01*
X101168687Y-68746823D01*
X101120024Y-68907242D01*
X101049114Y-69039906D01*
X101041004Y-69055078D01*
X100934659Y-69184659D01*
X100805078Y-69291004D01*
X100805076Y-69291005D01*
X100657242Y-69370024D01*
X100496823Y-69418687D01*
X100371804Y-69431000D01*
X100288196Y-69431000D01*
X100163177Y-69418687D01*
X100002758Y-69370024D01*
X99854924Y-69291005D01*
X99854922Y-69291004D01*
X99725341Y-69184659D01*
X99618996Y-69055078D01*
X99610886Y-69039906D01*
X99539976Y-68907242D01*
X99491313Y-68746823D01*
X99474883Y-68580000D01*
X99491313Y-68413177D01*
X99539976Y-68252758D01*
X99618995Y-68104924D01*
X99618996Y-68104922D01*
X99725341Y-67975341D01*
X99854922Y-67868996D01*
X99870094Y-67860886D01*
X100002758Y-67789976D01*
X100163177Y-67741313D01*
X100288196Y-67729000D01*
X100371804Y-67729000D01*
X100496823Y-67741313D01*
X100496823Y-67741313D01*
G37*
G36*
X92876823Y-67741313D02*
G01*
X93037242Y-67789976D01*
X93169906Y-67860886D01*
X93185078Y-67868996D01*
X93314659Y-67975341D01*
X93421004Y-68104922D01*
X93421005Y-68104924D01*
X93500024Y-68252758D01*
X93548687Y-68413177D01*
X93565117Y-68580000D01*
X93548687Y-68746823D01*
X93500024Y-68907242D01*
X93429114Y-69039906D01*
X93421004Y-69055078D01*
X93314659Y-69184659D01*
X93185078Y-69291004D01*
X93185076Y-69291005D01*
X93037242Y-69370024D01*
X92876823Y-69418687D01*
X92751804Y-69431000D01*
X92668196Y-69431000D01*
X92543177Y-69418687D01*
X92382758Y-69370024D01*
X92234924Y-69291005D01*
X92234922Y-69291004D01*
X92105341Y-69184659D01*
X91998996Y-69055078D01*
X91990886Y-69039906D01*
X91919976Y-68907242D01*
X91871313Y-68746823D01*
X91854883Y-68580000D01*
X91871313Y-68413177D01*
X91919976Y-68252758D01*
X91998995Y-68104924D01*
X91998996Y-68104922D01*
X92105341Y-67975341D01*
X92234922Y-67868996D01*
X92250094Y-67860886D01*
X92382758Y-67789976D01*
X92543177Y-67741313D01*
X92668196Y-67729000D01*
X92751804Y-67729000D01*
X92876823Y-67741313D01*
X92876823Y-67741313D01*
G37*
G36*
X116471000Y-68846000D02*
G01*
X114669000Y-68846000D01*
X114669000Y-67044000D01*
X116471000Y-67044000D01*
X116471000Y-68846000D01*
X116471000Y-68846000D01*
G37*
G36*
X132316366Y-64715695D02*
G01*
X132473460Y-64763349D01*
X132618231Y-64840731D01*
X132745128Y-64944872D01*
X132849269Y-65071769D01*
X132926651Y-65216540D01*
X132974305Y-65373634D01*
X132991000Y-65543140D01*
X132991000Y-67456860D01*
X132974305Y-67626366D01*
X132926651Y-67783460D01*
X132849269Y-67928231D01*
X132745128Y-68055128D01*
X132618231Y-68159269D01*
X132473460Y-68236651D01*
X132316366Y-68284305D01*
X132146860Y-68301000D01*
X130233140Y-68301000D01*
X130063634Y-68284305D01*
X129906540Y-68236651D01*
X129761769Y-68159269D01*
X129634872Y-68055128D01*
X129530731Y-67928231D01*
X129453349Y-67783460D01*
X129405695Y-67626366D01*
X129389000Y-67456860D01*
X129389000Y-65543140D01*
X129405695Y-65373634D01*
X129453349Y-65216540D01*
X129530731Y-65071769D01*
X129634872Y-64944872D01*
X129761769Y-64840731D01*
X129906540Y-64763349D01*
X130063634Y-64715695D01*
X130233140Y-64699000D01*
X132146860Y-64699000D01*
X132316366Y-64715695D01*
X132316366Y-64715695D01*
G37*
G36*
X54876000Y-68211000D02*
G01*
X53074000Y-68211000D01*
X53074000Y-66409000D01*
X54876000Y-66409000D01*
X54876000Y-68211000D01*
X54876000Y-68211000D01*
G37*
G36*
X63131000Y-66941000D02*
G01*
X61329000Y-66941000D01*
X61329000Y-65139000D01*
X63131000Y-65139000D01*
X63131000Y-66941000D01*
X63131000Y-66941000D01*
G37*
G36*
X100496823Y-65201313D02*
G01*
X100657242Y-65249976D01*
X100789906Y-65320886D01*
X100805078Y-65328996D01*
X100934659Y-65435341D01*
X101041004Y-65564922D01*
X101041005Y-65564924D01*
X101120024Y-65712758D01*
X101168687Y-65873177D01*
X101185117Y-66040000D01*
X101168687Y-66206823D01*
X101120024Y-66367242D01*
X101049114Y-66499906D01*
X101041004Y-66515078D01*
X100934659Y-66644659D01*
X100805078Y-66751004D01*
X100805076Y-66751005D01*
X100657242Y-66830024D01*
X100496823Y-66878687D01*
X100371804Y-66891000D01*
X100288196Y-66891000D01*
X100163177Y-66878687D01*
X100002758Y-66830024D01*
X99854924Y-66751005D01*
X99854922Y-66751004D01*
X99725341Y-66644659D01*
X99618996Y-66515078D01*
X99610886Y-66499906D01*
X99539976Y-66367242D01*
X99491313Y-66206823D01*
X99474883Y-66040000D01*
X99491313Y-65873177D01*
X99539976Y-65712758D01*
X99618995Y-65564924D01*
X99618996Y-65564922D01*
X99725341Y-65435341D01*
X99854922Y-65328996D01*
X99870094Y-65320886D01*
X100002758Y-65249976D01*
X100163177Y-65201313D01*
X100288196Y-65189000D01*
X100371804Y-65189000D01*
X100496823Y-65201313D01*
X100496823Y-65201313D01*
G37*
G36*
X92876823Y-65201313D02*
G01*
X93037242Y-65249976D01*
X93169906Y-65320886D01*
X93185078Y-65328996D01*
X93314659Y-65435341D01*
X93421004Y-65564922D01*
X93421005Y-65564924D01*
X93500024Y-65712758D01*
X93548687Y-65873177D01*
X93565117Y-66040000D01*
X93548687Y-66206823D01*
X93500024Y-66367242D01*
X93429114Y-66499906D01*
X93421004Y-66515078D01*
X93314659Y-66644659D01*
X93185078Y-66751004D01*
X93185076Y-66751005D01*
X93037242Y-66830024D01*
X92876823Y-66878687D01*
X92751804Y-66891000D01*
X92668196Y-66891000D01*
X92543177Y-66878687D01*
X92382758Y-66830024D01*
X92234924Y-66751005D01*
X92234922Y-66751004D01*
X92105341Y-66644659D01*
X91998996Y-66515078D01*
X91990886Y-66499906D01*
X91919976Y-66367242D01*
X91871313Y-66206823D01*
X91854883Y-66040000D01*
X91871313Y-65873177D01*
X91919976Y-65712758D01*
X91998995Y-65564924D01*
X91998996Y-65564922D01*
X92105341Y-65435341D01*
X92234922Y-65328996D01*
X92250094Y-65320886D01*
X92382758Y-65249976D01*
X92543177Y-65201313D01*
X92668196Y-65189000D01*
X92751804Y-65189000D01*
X92876823Y-65201313D01*
X92876823Y-65201313D01*
G37*
G36*
X110021000Y-66841000D02*
G01*
X108419000Y-66841000D01*
X108419000Y-65239000D01*
X110021000Y-65239000D01*
X110021000Y-66841000D01*
X110021000Y-66841000D01*
G37*
G36*
X137116979Y-61963293D02*
G01*
X137250625Y-62003834D01*
X137373784Y-62069664D01*
X137481740Y-62158260D01*
X137570336Y-62266216D01*
X137636166Y-62389375D01*
X137676707Y-62523021D01*
X137691000Y-62668140D01*
X137691000Y-64331860D01*
X137676707Y-64476979D01*
X137636166Y-64610625D01*
X137570336Y-64733784D01*
X137481740Y-64841740D01*
X137373784Y-64930336D01*
X137250625Y-64996166D01*
X137116979Y-65036707D01*
X136971860Y-65051000D01*
X134808140Y-65051000D01*
X134663021Y-65036707D01*
X134529375Y-64996166D01*
X134406216Y-64930336D01*
X134298260Y-64841740D01*
X134209664Y-64733784D01*
X134143834Y-64610625D01*
X134103293Y-64476979D01*
X134089000Y-64331860D01*
X134089000Y-62668140D01*
X134103293Y-62523021D01*
X134143834Y-62389375D01*
X134209664Y-62266216D01*
X134298260Y-62158260D01*
X134406216Y-62069664D01*
X134529375Y-62003834D01*
X134663021Y-61963293D01*
X134808140Y-61949000D01*
X136971860Y-61949000D01*
X137116979Y-61963293D01*
X137116979Y-61963293D01*
G37*
G36*
X62340442Y-62605518D02*
G01*
X62406627Y-62612037D01*
X62576466Y-62663557D01*
X62732991Y-62747222D01*
X62768729Y-62776552D01*
X62870186Y-62859814D01*
X62953448Y-62961271D01*
X62982778Y-62997009D01*
X63066443Y-63153534D01*
X63117963Y-63323373D01*
X63135359Y-63500000D01*
X63117963Y-63676627D01*
X63066443Y-63846466D01*
X62982778Y-64002991D01*
X62957101Y-64034278D01*
X62870186Y-64140186D01*
X62768729Y-64223448D01*
X62732991Y-64252778D01*
X62576466Y-64336443D01*
X62406627Y-64387963D01*
X62340442Y-64394482D01*
X62274260Y-64401000D01*
X62185740Y-64401000D01*
X62119558Y-64394482D01*
X62053373Y-64387963D01*
X61883534Y-64336443D01*
X61727009Y-64252778D01*
X61691271Y-64223448D01*
X61589814Y-64140186D01*
X61502899Y-64034278D01*
X61477222Y-64002991D01*
X61393557Y-63846466D01*
X61342037Y-63676627D01*
X61324641Y-63500000D01*
X61342037Y-63323373D01*
X61393557Y-63153534D01*
X61477222Y-62997009D01*
X61506552Y-62961271D01*
X61589814Y-62859814D01*
X61691271Y-62776552D01*
X61727009Y-62747222D01*
X61883534Y-62663557D01*
X62053373Y-62612037D01*
X62119558Y-62605518D01*
X62185740Y-62599000D01*
X62274260Y-62599000D01*
X62340442Y-62605518D01*
X62340442Y-62605518D01*
G37*
G36*
X92876823Y-62661313D02*
G01*
X93037242Y-62709976D01*
X93136265Y-62762905D01*
X93185078Y-62788996D01*
X93314659Y-62895341D01*
X93421004Y-63024922D01*
X93421005Y-63024924D01*
X93500024Y-63172758D01*
X93548687Y-63333177D01*
X93565117Y-63500000D01*
X93548687Y-63666823D01*
X93500024Y-63827242D01*
X93489747Y-63846468D01*
X93421004Y-63975078D01*
X93314659Y-64104659D01*
X93185078Y-64211004D01*
X93185076Y-64211005D01*
X93037242Y-64290024D01*
X92876823Y-64338687D01*
X92751804Y-64351000D01*
X92668196Y-64351000D01*
X92543177Y-64338687D01*
X92382758Y-64290024D01*
X92234924Y-64211005D01*
X92234922Y-64211004D01*
X92105341Y-64104659D01*
X91998996Y-63975078D01*
X91930253Y-63846468D01*
X91919976Y-63827242D01*
X91871313Y-63666823D01*
X91854883Y-63500000D01*
X91871313Y-63333177D01*
X91919976Y-63172758D01*
X91998995Y-63024924D01*
X91998996Y-63024922D01*
X92105341Y-62895341D01*
X92234922Y-62788996D01*
X92283735Y-62762905D01*
X92382758Y-62709976D01*
X92543177Y-62661313D01*
X92668196Y-62649000D01*
X92751804Y-62649000D01*
X92876823Y-62661313D01*
X92876823Y-62661313D01*
G37*
G36*
X100496823Y-62661313D02*
G01*
X100657242Y-62709976D01*
X100756265Y-62762905D01*
X100805078Y-62788996D01*
X100934659Y-62895341D01*
X101041004Y-63024922D01*
X101041005Y-63024924D01*
X101120024Y-63172758D01*
X101168687Y-63333177D01*
X101185117Y-63500000D01*
X101168687Y-63666823D01*
X101120024Y-63827242D01*
X101109747Y-63846468D01*
X101041004Y-63975078D01*
X100934659Y-64104659D01*
X100805078Y-64211004D01*
X100805076Y-64211005D01*
X100657242Y-64290024D01*
X100496823Y-64338687D01*
X100371804Y-64351000D01*
X100288196Y-64351000D01*
X100163177Y-64338687D01*
X100002758Y-64290024D01*
X99854924Y-64211005D01*
X99854922Y-64211004D01*
X99725341Y-64104659D01*
X99618996Y-63975078D01*
X99550253Y-63846468D01*
X99539976Y-63827242D01*
X99491313Y-63666823D01*
X99474883Y-63500000D01*
X99491313Y-63333177D01*
X99539976Y-63172758D01*
X99618995Y-63024924D01*
X99618996Y-63024922D01*
X99725341Y-62895341D01*
X99854922Y-62788996D01*
X99903735Y-62762905D01*
X100002758Y-62709976D01*
X100163177Y-62661313D01*
X100288196Y-62649000D01*
X100371804Y-62649000D01*
X100496823Y-62661313D01*
X100496823Y-62661313D01*
G37*
G36*
X109453642Y-62729781D02*
G01*
X109596599Y-62788996D01*
X109599416Y-62790163D01*
X109730608Y-62877822D01*
X109842178Y-62989392D01*
X109900047Y-63076000D01*
X109929838Y-63120586D01*
X109990219Y-63266358D01*
X110021000Y-63421107D01*
X110021000Y-63578893D01*
X109990219Y-63733642D01*
X109929838Y-63879414D01*
X109929837Y-63879416D01*
X109842178Y-64010608D01*
X109730608Y-64122178D01*
X109599416Y-64209837D01*
X109599415Y-64209838D01*
X109599414Y-64209838D01*
X109453642Y-64270219D01*
X109298893Y-64301000D01*
X109141107Y-64301000D01*
X108986358Y-64270219D01*
X108840586Y-64209838D01*
X108840585Y-64209838D01*
X108840584Y-64209837D01*
X108709392Y-64122178D01*
X108597822Y-64010608D01*
X108510163Y-63879416D01*
X108510162Y-63879414D01*
X108449781Y-63733642D01*
X108419000Y-63578893D01*
X108419000Y-63421107D01*
X108449781Y-63266358D01*
X108510162Y-63120586D01*
X108539953Y-63076000D01*
X108597822Y-62989392D01*
X108709392Y-62877822D01*
X108840584Y-62790163D01*
X108843401Y-62788996D01*
X108986358Y-62729781D01*
X109141107Y-62699000D01*
X109298893Y-62699000D01*
X109453642Y-62729781D01*
X109453642Y-62729781D01*
G37*
G36*
X95621968Y-62753565D02*
G01*
X95660638Y-62765296D01*
X95696277Y-62784346D01*
X95727517Y-62809983D01*
X95753154Y-62841223D01*
X95772204Y-62876862D01*
X95783935Y-62915532D01*
X95788500Y-62961888D01*
X95788500Y-64038112D01*
X95783935Y-64084468D01*
X95772204Y-64123138D01*
X95753154Y-64158777D01*
X95727517Y-64190017D01*
X95696277Y-64215654D01*
X95660638Y-64234704D01*
X95621968Y-64246435D01*
X95575612Y-64251000D01*
X94924388Y-64251000D01*
X94878032Y-64246435D01*
X94839362Y-64234704D01*
X94803723Y-64215654D01*
X94772483Y-64190017D01*
X94746846Y-64158777D01*
X94727796Y-64123138D01*
X94716065Y-64084468D01*
X94711500Y-64038112D01*
X94711500Y-62961888D01*
X94716065Y-62915532D01*
X94727796Y-62876862D01*
X94746846Y-62841223D01*
X94772483Y-62809983D01*
X94803723Y-62784346D01*
X94839362Y-62765296D01*
X94878032Y-62753565D01*
X94924388Y-62749000D01*
X95575612Y-62749000D01*
X95621968Y-62753565D01*
X95621968Y-62753565D01*
G37*
G36*
X97496968Y-62753565D02*
G01*
X97535638Y-62765296D01*
X97571277Y-62784346D01*
X97602517Y-62809983D01*
X97628154Y-62841223D01*
X97647204Y-62876862D01*
X97658935Y-62915532D01*
X97663500Y-62961888D01*
X97663500Y-64038112D01*
X97658935Y-64084468D01*
X97647204Y-64123138D01*
X97628154Y-64158777D01*
X97602517Y-64190017D01*
X97571277Y-64215654D01*
X97535638Y-64234704D01*
X97496968Y-64246435D01*
X97450612Y-64251000D01*
X96799388Y-64251000D01*
X96753032Y-64246435D01*
X96714362Y-64234704D01*
X96678723Y-64215654D01*
X96647483Y-64190017D01*
X96621846Y-64158777D01*
X96602796Y-64123138D01*
X96591065Y-64084468D01*
X96586500Y-64038112D01*
X96586500Y-62961888D01*
X96591065Y-62915532D01*
X96602796Y-62876862D01*
X96621846Y-62841223D01*
X96647483Y-62809983D01*
X96678723Y-62784346D01*
X96714362Y-62765296D01*
X96753032Y-62753565D01*
X96799388Y-62749000D01*
X97450612Y-62749000D01*
X97496968Y-62753565D01*
X97496968Y-62753565D01*
G37*
G36*
X144681694Y-57626860D02*
G01*
X144947437Y-57679719D01*
X145448087Y-57887095D01*
X145628561Y-58007684D01*
X145898660Y-58188158D01*
X146281842Y-58571340D01*
X146412222Y-58766468D01*
X146582905Y-59021913D01*
X146716363Y-59344109D01*
X146790281Y-59522564D01*
X146896000Y-60054049D01*
X146896000Y-60595951D01*
X146860186Y-60776000D01*
X146790281Y-61127437D01*
X146582905Y-61628087D01*
X146470413Y-61796443D01*
X146281842Y-62078660D01*
X145898660Y-62461842D01*
X145635774Y-62637496D01*
X145448087Y-62762905D01*
X144947437Y-62970281D01*
X144706280Y-63018250D01*
X144415951Y-63076000D01*
X143874049Y-63076000D01*
X143583720Y-63018250D01*
X143342563Y-62970281D01*
X142841913Y-62762905D01*
X142654226Y-62637496D01*
X142391340Y-62461842D01*
X142008158Y-62078660D01*
X141819587Y-61796443D01*
X141707095Y-61628087D01*
X141499719Y-61127437D01*
X141429814Y-60776000D01*
X141394000Y-60595951D01*
X141394000Y-60054049D01*
X141499719Y-59522564D01*
X141573637Y-59344109D01*
X141707095Y-59021913D01*
X141877778Y-58766468D01*
X142008158Y-58571340D01*
X142391340Y-58188158D01*
X142661439Y-58007684D01*
X142841913Y-57887095D01*
X143342563Y-57679719D01*
X143608306Y-57626860D01*
X143874049Y-57574000D01*
X144415951Y-57574000D01*
X144681694Y-57626860D01*
X144681694Y-57626860D01*
G37*
G36*
X54511694Y-57626860D02*
G01*
X54777437Y-57679719D01*
X55278087Y-57887095D01*
X55458561Y-58007684D01*
X55728660Y-58188158D01*
X56111842Y-58571340D01*
X56242222Y-58766468D01*
X56412905Y-59021913D01*
X56546363Y-59344109D01*
X56620281Y-59522564D01*
X56726000Y-60054049D01*
X56726000Y-60595951D01*
X56690186Y-60776000D01*
X56620281Y-61127437D01*
X56412905Y-61628087D01*
X56300413Y-61796443D01*
X56111842Y-62078660D01*
X55728660Y-62461842D01*
X55465774Y-62637496D01*
X55278087Y-62762905D01*
X54777437Y-62970281D01*
X54536280Y-63018250D01*
X54245951Y-63076000D01*
X53704049Y-63076000D01*
X53413720Y-63018250D01*
X53172563Y-62970281D01*
X52671913Y-62762905D01*
X52484226Y-62637496D01*
X52221340Y-62461842D01*
X51838158Y-62078660D01*
X51649587Y-61796443D01*
X51537095Y-61628087D01*
X51329719Y-61127437D01*
X51259814Y-60776000D01*
X51224000Y-60595951D01*
X51224000Y-60054049D01*
X51329719Y-59522564D01*
X51403637Y-59344109D01*
X51537095Y-59021913D01*
X51707778Y-58766468D01*
X51838158Y-58571340D01*
X52221340Y-58188158D01*
X52491439Y-58007684D01*
X52671913Y-57887095D01*
X53172563Y-57679719D01*
X53438306Y-57626860D01*
X53704049Y-57574000D01*
X54245951Y-57574000D01*
X54511694Y-57626860D01*
X54511694Y-57626860D01*
G37*
G36*
X62340442Y-60065518D02*
G01*
X62406627Y-60072037D01*
X62576466Y-60123557D01*
X62732991Y-60207222D01*
X62768729Y-60236552D01*
X62870186Y-60319814D01*
X62953448Y-60421271D01*
X62982778Y-60457009D01*
X63066443Y-60613534D01*
X63117963Y-60783373D01*
X63135359Y-60960000D01*
X63117963Y-61136627D01*
X63066443Y-61306466D01*
X62982778Y-61462991D01*
X62957101Y-61494278D01*
X62870186Y-61600186D01*
X62768729Y-61683448D01*
X62732991Y-61712778D01*
X62576466Y-61796443D01*
X62406627Y-61847963D01*
X62340443Y-61854481D01*
X62274260Y-61861000D01*
X62185740Y-61861000D01*
X62119557Y-61854481D01*
X62053373Y-61847963D01*
X61883534Y-61796443D01*
X61727009Y-61712778D01*
X61691271Y-61683448D01*
X61589814Y-61600186D01*
X61502899Y-61494278D01*
X61477222Y-61462991D01*
X61393557Y-61306466D01*
X61342037Y-61136627D01*
X61324641Y-60960000D01*
X61342037Y-60783373D01*
X61393557Y-60613534D01*
X61477222Y-60457009D01*
X61506552Y-60421271D01*
X61589814Y-60319814D01*
X61691271Y-60236552D01*
X61727009Y-60207222D01*
X61883534Y-60123557D01*
X62053373Y-60072037D01*
X62119558Y-60065518D01*
X62185740Y-60059000D01*
X62274260Y-60059000D01*
X62340442Y-60065518D01*
X62340442Y-60065518D01*
G37*
G36*
X93561000Y-61811000D02*
G01*
X91859000Y-61811000D01*
X91859000Y-60109000D01*
X93561000Y-60109000D01*
X93561000Y-61811000D01*
X93561000Y-61811000D01*
G37*
G36*
X100496823Y-60121313D02*
G01*
X100657242Y-60169976D01*
X100760738Y-60225296D01*
X100805078Y-60248996D01*
X100934659Y-60355341D01*
X101041004Y-60484922D01*
X101041005Y-60484924D01*
X101120024Y-60632758D01*
X101168687Y-60793177D01*
X101185117Y-60960000D01*
X101168687Y-61126823D01*
X101120024Y-61287242D01*
X101092137Y-61339414D01*
X101041004Y-61435078D01*
X100934659Y-61564659D01*
X100805078Y-61671004D01*
X100805076Y-61671005D01*
X100657242Y-61750024D01*
X100496823Y-61798687D01*
X100371804Y-61811000D01*
X100288196Y-61811000D01*
X100163177Y-61798687D01*
X100002758Y-61750024D01*
X99854924Y-61671005D01*
X99854922Y-61671004D01*
X99725341Y-61564659D01*
X99618996Y-61435078D01*
X99567863Y-61339414D01*
X99539976Y-61287242D01*
X99491313Y-61126823D01*
X99474883Y-60960000D01*
X99491313Y-60793177D01*
X99539976Y-60632758D01*
X99618995Y-60484924D01*
X99618996Y-60484922D01*
X99725341Y-60355341D01*
X99854922Y-60248996D01*
X99899262Y-60225296D01*
X100002758Y-60169976D01*
X100163177Y-60121313D01*
X100288196Y-60109000D01*
X100371804Y-60109000D01*
X100496823Y-60121313D01*
X100496823Y-60121313D01*
G37*
G36*
X109453642Y-60189781D02*
G01*
X109596599Y-60248996D01*
X109599416Y-60250163D01*
X109730608Y-60337822D01*
X109842178Y-60449392D01*
X109929837Y-60580584D01*
X109929838Y-60580586D01*
X109990219Y-60726358D01*
X110021000Y-60881107D01*
X110021000Y-61038893D01*
X109990219Y-61193642D01*
X109929838Y-61339414D01*
X109929837Y-61339416D01*
X109842178Y-61470608D01*
X109730608Y-61582178D01*
X109599416Y-61669837D01*
X109599415Y-61669838D01*
X109599414Y-61669838D01*
X109453642Y-61730219D01*
X109298893Y-61761000D01*
X109141107Y-61761000D01*
X108986358Y-61730219D01*
X108840586Y-61669838D01*
X108840585Y-61669838D01*
X108840584Y-61669837D01*
X108709392Y-61582178D01*
X108597822Y-61470608D01*
X108510163Y-61339416D01*
X108510162Y-61339414D01*
X108449781Y-61193642D01*
X108419000Y-61038893D01*
X108419000Y-60881107D01*
X108449781Y-60726358D01*
X108510162Y-60580586D01*
X108510163Y-60580584D01*
X108597822Y-60449392D01*
X108709392Y-60337822D01*
X108840584Y-60250163D01*
X108843401Y-60248996D01*
X108986358Y-60189781D01*
X109141107Y-60159000D01*
X109298893Y-60159000D01*
X109453642Y-60189781D01*
X109453642Y-60189781D01*
G37*
G36*
X95621968Y-60213565D02*
G01*
X95660638Y-60225296D01*
X95696277Y-60244346D01*
X95727517Y-60269983D01*
X95753154Y-60301223D01*
X95772204Y-60336862D01*
X95783935Y-60375532D01*
X95788500Y-60421888D01*
X95788500Y-61498112D01*
X95783935Y-61544468D01*
X95772204Y-61583138D01*
X95753154Y-61618777D01*
X95727517Y-61650017D01*
X95696277Y-61675654D01*
X95660638Y-61694704D01*
X95621968Y-61706435D01*
X95575612Y-61711000D01*
X94924388Y-61711000D01*
X94878032Y-61706435D01*
X94839362Y-61694704D01*
X94803723Y-61675654D01*
X94772483Y-61650017D01*
X94746846Y-61618777D01*
X94727796Y-61583138D01*
X94716065Y-61544468D01*
X94711500Y-61498112D01*
X94711500Y-60421888D01*
X94716065Y-60375532D01*
X94727796Y-60336862D01*
X94746846Y-60301223D01*
X94772483Y-60269983D01*
X94803723Y-60244346D01*
X94839362Y-60225296D01*
X94878032Y-60213565D01*
X94924388Y-60209000D01*
X95575612Y-60209000D01*
X95621968Y-60213565D01*
X95621968Y-60213565D01*
G37*
G36*
X97496968Y-60213565D02*
G01*
X97535638Y-60225296D01*
X97571277Y-60244346D01*
X97602517Y-60269983D01*
X97628154Y-60301223D01*
X97647204Y-60336862D01*
X97658935Y-60375532D01*
X97663500Y-60421888D01*
X97663500Y-61498112D01*
X97658935Y-61544468D01*
X97647204Y-61583138D01*
X97628154Y-61618777D01*
X97602517Y-61650017D01*
X97571277Y-61675654D01*
X97535638Y-61694704D01*
X97496968Y-61706435D01*
X97450612Y-61711000D01*
X96799388Y-61711000D01*
X96753032Y-61706435D01*
X96714362Y-61694704D01*
X96678723Y-61675654D01*
X96647483Y-61650017D01*
X96621846Y-61618777D01*
X96602796Y-61583138D01*
X96591065Y-61544468D01*
X96586500Y-61498112D01*
X96586500Y-60421888D01*
X96591065Y-60375532D01*
X96602796Y-60336862D01*
X96621846Y-60301223D01*
X96647483Y-60269983D01*
X96678723Y-60244346D01*
X96714362Y-60225296D01*
X96753032Y-60213565D01*
X96799388Y-60209000D01*
X97450612Y-60209000D01*
X97496968Y-60213565D01*
X97496968Y-60213565D01*
G37*
G36*
X106946000Y-59321000D02*
G01*
X105144000Y-59321000D01*
X105144000Y-57519000D01*
X106946000Y-57519000D01*
X106946000Y-59321000D01*
X106946000Y-59321000D01*
G37*
G36*
X62340443Y-57525519D02*
G01*
X62406627Y-57532037D01*
X62576466Y-57583557D01*
X62732991Y-57667222D01*
X62768729Y-57696552D01*
X62870186Y-57779814D01*
X62941188Y-57866332D01*
X62982778Y-57917009D01*
X63066443Y-58073534D01*
X63117963Y-58243373D01*
X63135359Y-58420000D01*
X63117963Y-58596627D01*
X63066443Y-58766466D01*
X62982778Y-58922991D01*
X62970847Y-58937529D01*
X62870186Y-59060186D01*
X62768729Y-59143448D01*
X62732991Y-59172778D01*
X62576466Y-59256443D01*
X62406627Y-59307963D01*
X62340442Y-59314482D01*
X62274260Y-59321000D01*
X62185740Y-59321000D01*
X62119558Y-59314482D01*
X62053373Y-59307963D01*
X61883534Y-59256443D01*
X61727009Y-59172778D01*
X61691271Y-59143448D01*
X61589814Y-59060186D01*
X61489153Y-58937529D01*
X61477222Y-58922991D01*
X61393557Y-58766466D01*
X61342037Y-58596627D01*
X61324641Y-58420000D01*
X61342037Y-58243373D01*
X61393557Y-58073534D01*
X61477222Y-57917009D01*
X61518812Y-57866332D01*
X61589814Y-57779814D01*
X61691271Y-57696552D01*
X61727009Y-57667222D01*
X61883534Y-57583557D01*
X62053373Y-57532037D01*
X62119557Y-57525519D01*
X62185740Y-57519000D01*
X62274260Y-57519000D01*
X62340443Y-57525519D01*
X62340443Y-57525519D01*
G37*
M02*
