G04 #@! TF.GenerationSoftware,KiCad,Pcbnew,5.1.4+dfsg1-1*
G04 #@! TF.CreationDate,2020-04-17T13:06:51+02:00*
G04 #@! TF.ProjectId,Transceiver,5472616e-7363-4656-9976-65722e6b6963,rev?*
G04 #@! TF.SameCoordinates,Original*
G04 #@! TF.FileFunction,Legend,Bot*
G04 #@! TF.FilePolarity,Positive*
%FSLAX46Y46*%
G04 Gerber Fmt 4.6, Leading zero omitted, Abs format (unit mm)*
G04 Created by KiCad (PCBNEW 5.1.4+dfsg1-1) date 2020-04-17 13:06:51*
%MOMM*%
%LPD*%
G04 APERTURE LIST*
%ADD10C,0.150000*%
%ADD11C,0.300000*%
%ADD12C,0.120000*%
G04 APERTURE END LIST*
D10*
X62688214Y-95972380D02*
X63164404Y-95972380D01*
X63212023Y-96448571D01*
X63164404Y-96400952D01*
X63069166Y-96353333D01*
X62831071Y-96353333D01*
X62735833Y-96400952D01*
X62688214Y-96448571D01*
X62640595Y-96543809D01*
X62640595Y-96781904D01*
X62688214Y-96877142D01*
X62735833Y-96924761D01*
X62831071Y-96972380D01*
X63069166Y-96972380D01*
X63164404Y-96924761D01*
X63212023Y-96877142D01*
X62354880Y-95972380D02*
X62021547Y-96972380D01*
X61688214Y-95972380D01*
X63164404Y-99512380D02*
X63164404Y-98512380D01*
X62926309Y-98512380D01*
X62783452Y-98560000D01*
X62688214Y-98655238D01*
X62640595Y-98750476D01*
X62592976Y-98940952D01*
X62592976Y-99083809D01*
X62640595Y-99274285D01*
X62688214Y-99369523D01*
X62783452Y-99464761D01*
X62926309Y-99512380D01*
X63164404Y-99512380D01*
X62164404Y-99131428D02*
X61402500Y-99131428D01*
X63164404Y-102052380D02*
X63164404Y-101052380D01*
X62926309Y-101052380D01*
X62783452Y-101100000D01*
X62688214Y-101195238D01*
X62640595Y-101290476D01*
X62592976Y-101480952D01*
X62592976Y-101623809D01*
X62640595Y-101814285D01*
X62688214Y-101909523D01*
X62783452Y-102004761D01*
X62926309Y-102052380D01*
X63164404Y-102052380D01*
X62164404Y-101671428D02*
X61402500Y-101671428D01*
X61783452Y-102052380D02*
X61783452Y-101290476D01*
X62640595Y-103640000D02*
X62735833Y-103592380D01*
X62878690Y-103592380D01*
X63021547Y-103640000D01*
X63116785Y-103735238D01*
X63164404Y-103830476D01*
X63212023Y-104020952D01*
X63212023Y-104163809D01*
X63164404Y-104354285D01*
X63116785Y-104449523D01*
X63021547Y-104544761D01*
X62878690Y-104592380D01*
X62783452Y-104592380D01*
X62640595Y-104544761D01*
X62592976Y-104497142D01*
X62592976Y-104163809D01*
X62783452Y-104163809D01*
X62164404Y-104592380D02*
X62164404Y-103592380D01*
X61592976Y-104592380D01*
X61592976Y-103592380D01*
X61116785Y-104592380D02*
X61116785Y-103592380D01*
X60878690Y-103592380D01*
X60735833Y-103640000D01*
X60640595Y-103735238D01*
X60592976Y-103830476D01*
X60545357Y-104020952D01*
X60545357Y-104163809D01*
X60592976Y-104354285D01*
X60640595Y-104449523D01*
X60735833Y-104544761D01*
X60878690Y-104592380D01*
X61116785Y-104592380D01*
X89352380Y-98512380D02*
X88876190Y-98179047D01*
X89352380Y-97940952D02*
X88352380Y-97940952D01*
X88352380Y-98321904D01*
X88400000Y-98417142D01*
X88447619Y-98464761D01*
X88542857Y-98512380D01*
X88685714Y-98512380D01*
X88780952Y-98464761D01*
X88828571Y-98417142D01*
X88876190Y-98321904D01*
X88876190Y-97940952D01*
X89304761Y-98893333D02*
X89352380Y-99036190D01*
X89352380Y-99274285D01*
X89304761Y-99369523D01*
X89257142Y-99417142D01*
X89161904Y-99464761D01*
X89066666Y-99464761D01*
X88971428Y-99417142D01*
X88923809Y-99369523D01*
X88876190Y-99274285D01*
X88828571Y-99083809D01*
X88780952Y-98988571D01*
X88733333Y-98940952D01*
X88638095Y-98893333D01*
X88542857Y-98893333D01*
X88447619Y-98940952D01*
X88400000Y-98988571D01*
X88352380Y-99083809D01*
X88352380Y-99321904D01*
X88400000Y-99464761D01*
X88352380Y-99750476D02*
X88352380Y-100321904D01*
X89352380Y-100036190D02*
X88352380Y-100036190D01*
X84272380Y-98298095D02*
X83272380Y-98298095D01*
X83272380Y-98536190D01*
X83320000Y-98679047D01*
X83415238Y-98774285D01*
X83510476Y-98821904D01*
X83700952Y-98869523D01*
X83843809Y-98869523D01*
X84034285Y-98821904D01*
X84129523Y-98774285D01*
X84224761Y-98679047D01*
X84272380Y-98536190D01*
X84272380Y-98298095D01*
X84177142Y-99869523D02*
X84224761Y-99821904D01*
X84272380Y-99679047D01*
X84272380Y-99583809D01*
X84224761Y-99440952D01*
X84129523Y-99345714D01*
X84034285Y-99298095D01*
X83843809Y-99250476D01*
X83700952Y-99250476D01*
X83510476Y-99298095D01*
X83415238Y-99345714D01*
X83320000Y-99440952D01*
X83272380Y-99583809D01*
X83272380Y-99679047D01*
X83320000Y-99821904D01*
X83367619Y-99869523D01*
X70620000Y-98298095D02*
X70572380Y-98202857D01*
X70572380Y-98060000D01*
X70620000Y-97917142D01*
X70715238Y-97821904D01*
X70810476Y-97774285D01*
X71000952Y-97726666D01*
X71143809Y-97726666D01*
X71334285Y-97774285D01*
X71429523Y-97821904D01*
X71524761Y-97917142D01*
X71572380Y-98060000D01*
X71572380Y-98155238D01*
X71524761Y-98298095D01*
X71477142Y-98345714D01*
X71143809Y-98345714D01*
X71143809Y-98155238D01*
X71572380Y-98774285D02*
X70572380Y-98774285D01*
X71572380Y-99345714D01*
X70572380Y-99345714D01*
X71572380Y-99821904D02*
X70572380Y-99821904D01*
X70572380Y-100060000D01*
X70620000Y-100202857D01*
X70715238Y-100298095D01*
X70810476Y-100345714D01*
X71000952Y-100393333D01*
X71143809Y-100393333D01*
X71334285Y-100345714D01*
X71429523Y-100298095D01*
X71524761Y-100202857D01*
X71572380Y-100060000D01*
X71572380Y-99821904D01*
X79144761Y-97774285D02*
X79192380Y-97917142D01*
X79192380Y-98155238D01*
X79144761Y-98250476D01*
X79097142Y-98298095D01*
X79001904Y-98345714D01*
X78906666Y-98345714D01*
X78811428Y-98298095D01*
X78763809Y-98250476D01*
X78716190Y-98155238D01*
X78668571Y-97964761D01*
X78620952Y-97869523D01*
X78573333Y-97821904D01*
X78478095Y-97774285D01*
X78382857Y-97774285D01*
X78287619Y-97821904D01*
X78240000Y-97869523D01*
X78192380Y-97964761D01*
X78192380Y-98202857D01*
X78240000Y-98345714D01*
X79097142Y-99345714D02*
X79144761Y-99298095D01*
X79192380Y-99155238D01*
X79192380Y-99060000D01*
X79144761Y-98917142D01*
X79049523Y-98821904D01*
X78954285Y-98774285D01*
X78763809Y-98726666D01*
X78620952Y-98726666D01*
X78430476Y-98774285D01*
X78335238Y-98821904D01*
X78240000Y-98917142D01*
X78192380Y-99060000D01*
X78192380Y-99155238D01*
X78240000Y-99298095D01*
X78287619Y-99345714D01*
X79192380Y-99774285D02*
X78192380Y-99774285D01*
X79192380Y-100345714D02*
X78620952Y-99917142D01*
X78192380Y-100345714D02*
X78763809Y-99774285D01*
X81732380Y-97488571D02*
X80732380Y-97488571D01*
X81446666Y-97821904D01*
X80732380Y-98155238D01*
X81732380Y-98155238D01*
X80732380Y-98821904D02*
X80732380Y-99012380D01*
X80780000Y-99107619D01*
X80875238Y-99202857D01*
X81065714Y-99250476D01*
X81399047Y-99250476D01*
X81589523Y-99202857D01*
X81684761Y-99107619D01*
X81732380Y-99012380D01*
X81732380Y-98821904D01*
X81684761Y-98726666D01*
X81589523Y-98631428D01*
X81399047Y-98583809D01*
X81065714Y-98583809D01*
X80875238Y-98631428D01*
X80780000Y-98726666D01*
X80732380Y-98821904D01*
X81684761Y-99631428D02*
X81732380Y-99774285D01*
X81732380Y-100012380D01*
X81684761Y-100107619D01*
X81637142Y-100155238D01*
X81541904Y-100202857D01*
X81446666Y-100202857D01*
X81351428Y-100155238D01*
X81303809Y-100107619D01*
X81256190Y-100012380D01*
X81208571Y-99821904D01*
X81160952Y-99726666D01*
X81113333Y-99679047D01*
X81018095Y-99631428D01*
X80922857Y-99631428D01*
X80827619Y-99679047D01*
X80780000Y-99726666D01*
X80732380Y-99821904D01*
X80732380Y-100060000D01*
X80780000Y-100202857D01*
X81732380Y-100631428D02*
X80732380Y-100631428D01*
X86717142Y-98893333D02*
X86764761Y-98845714D01*
X86812380Y-98702857D01*
X86812380Y-98607619D01*
X86764761Y-98464761D01*
X86669523Y-98369523D01*
X86574285Y-98321904D01*
X86383809Y-98274285D01*
X86240952Y-98274285D01*
X86050476Y-98321904D01*
X85955238Y-98369523D01*
X85860000Y-98464761D01*
X85812380Y-98607619D01*
X85812380Y-98702857D01*
X85860000Y-98845714D01*
X85907619Y-98893333D01*
X86764761Y-99274285D02*
X86812380Y-99417142D01*
X86812380Y-99655238D01*
X86764761Y-99750476D01*
X86717142Y-99798095D01*
X86621904Y-99845714D01*
X86526666Y-99845714D01*
X86431428Y-99798095D01*
X86383809Y-99750476D01*
X86336190Y-99655238D01*
X86288571Y-99464761D01*
X86240952Y-99369523D01*
X86193333Y-99321904D01*
X86098095Y-99274285D01*
X86002857Y-99274285D01*
X85907619Y-99321904D01*
X85860000Y-99369523D01*
X85812380Y-99464761D01*
X85812380Y-99702857D01*
X85860000Y-99845714D01*
X75652380Y-97821904D02*
X75652380Y-98440952D01*
X76033333Y-98107619D01*
X76033333Y-98250476D01*
X76080952Y-98345714D01*
X76128571Y-98393333D01*
X76223809Y-98440952D01*
X76461904Y-98440952D01*
X76557142Y-98393333D01*
X76604761Y-98345714D01*
X76652380Y-98250476D01*
X76652380Y-97964761D01*
X76604761Y-97869523D01*
X76557142Y-97821904D01*
X75652380Y-98726666D02*
X76652380Y-99060000D01*
X75652380Y-99393333D01*
X75652380Y-99631428D02*
X75652380Y-100250476D01*
X76033333Y-99917142D01*
X76033333Y-100060000D01*
X76080952Y-100155238D01*
X76128571Y-100202857D01*
X76223809Y-100250476D01*
X76461904Y-100250476D01*
X76557142Y-100202857D01*
X76604761Y-100155238D01*
X76652380Y-100060000D01*
X76652380Y-99774285D01*
X76604761Y-99679047D01*
X76557142Y-99631428D01*
X74112380Y-97940952D02*
X74112380Y-97464761D01*
X73112380Y-97464761D01*
X74112380Y-98274285D02*
X73445714Y-98274285D01*
X73112380Y-98274285D02*
X73160000Y-98226666D01*
X73207619Y-98274285D01*
X73160000Y-98321904D01*
X73112380Y-98274285D01*
X73207619Y-98274285D01*
X73445714Y-99179047D02*
X74255238Y-99179047D01*
X74350476Y-99131428D01*
X74398095Y-99083809D01*
X74445714Y-98988571D01*
X74445714Y-98845714D01*
X74398095Y-98750476D01*
X74064761Y-99179047D02*
X74112380Y-99083809D01*
X74112380Y-98893333D01*
X74064761Y-98798095D01*
X74017142Y-98750476D01*
X73921904Y-98702857D01*
X73636190Y-98702857D01*
X73540952Y-98750476D01*
X73493333Y-98798095D01*
X73445714Y-98893333D01*
X73445714Y-99083809D01*
X73493333Y-99179047D01*
X74112380Y-99655238D02*
X73112380Y-99655238D01*
X74112380Y-100083809D02*
X73588571Y-100083809D01*
X73493333Y-100036190D01*
X73445714Y-99940952D01*
X73445714Y-99798095D01*
X73493333Y-99702857D01*
X73540952Y-99655238D01*
X73445714Y-100417142D02*
X73445714Y-100798095D01*
X73112380Y-100560000D02*
X73969523Y-100560000D01*
X74064761Y-100607619D01*
X74112380Y-100702857D01*
X74112380Y-100798095D01*
X123690000Y-122681904D02*
X123737619Y-122777142D01*
X123737619Y-122920000D01*
X123690000Y-123062857D01*
X123594761Y-123158095D01*
X123499523Y-123205714D01*
X123309047Y-123253333D01*
X123166190Y-123253333D01*
X122975714Y-123205714D01*
X122880476Y-123158095D01*
X122785238Y-123062857D01*
X122737619Y-122920000D01*
X122737619Y-122824761D01*
X122785238Y-122681904D01*
X122832857Y-122634285D01*
X123166190Y-122634285D01*
X123166190Y-122824761D01*
X122737619Y-122205714D02*
X123737619Y-122205714D01*
X122737619Y-121634285D01*
X123737619Y-121634285D01*
X122737619Y-121158095D02*
X123737619Y-121158095D01*
X123737619Y-120920000D01*
X123690000Y-120777142D01*
X123594761Y-120681904D01*
X123499523Y-120634285D01*
X123309047Y-120586666D01*
X123166190Y-120586666D01*
X122975714Y-120634285D01*
X122880476Y-120681904D01*
X122785238Y-120777142D01*
X122737619Y-120920000D01*
X122737619Y-121158095D01*
X126277619Y-122920000D02*
X126277619Y-122729523D01*
X126230000Y-122634285D01*
X126134761Y-122539047D01*
X125944285Y-122491428D01*
X125610952Y-122491428D01*
X125420476Y-122539047D01*
X125325238Y-122634285D01*
X125277619Y-122729523D01*
X125277619Y-122920000D01*
X125325238Y-123015238D01*
X125420476Y-123110476D01*
X125610952Y-123158095D01*
X125944285Y-123158095D01*
X126134761Y-123110476D01*
X126230000Y-123015238D01*
X126277619Y-122920000D01*
X126277619Y-122062857D02*
X125468095Y-122062857D01*
X125372857Y-122015238D01*
X125325238Y-121967619D01*
X125277619Y-121872380D01*
X125277619Y-121681904D01*
X125325238Y-121586666D01*
X125372857Y-121539047D01*
X125468095Y-121491428D01*
X126277619Y-121491428D01*
X126277619Y-121158095D02*
X126277619Y-120586666D01*
X125277619Y-120872380D02*
X126277619Y-120872380D01*
X117705238Y-123205714D02*
X117657619Y-123062857D01*
X117657619Y-122824761D01*
X117705238Y-122729523D01*
X117752857Y-122681904D01*
X117848095Y-122634285D01*
X117943333Y-122634285D01*
X118038571Y-122681904D01*
X118086190Y-122729523D01*
X118133809Y-122824761D01*
X118181428Y-123015238D01*
X118229047Y-123110476D01*
X118276666Y-123158095D01*
X118371904Y-123205714D01*
X118467142Y-123205714D01*
X118562380Y-123158095D01*
X118610000Y-123110476D01*
X118657619Y-123015238D01*
X118657619Y-122777142D01*
X118610000Y-122634285D01*
X117752857Y-121634285D02*
X117705238Y-121681904D01*
X117657619Y-121824761D01*
X117657619Y-121920000D01*
X117705238Y-122062857D01*
X117800476Y-122158095D01*
X117895714Y-122205714D01*
X118086190Y-122253333D01*
X118229047Y-122253333D01*
X118419523Y-122205714D01*
X118514761Y-122158095D01*
X118610000Y-122062857D01*
X118657619Y-121920000D01*
X118657619Y-121824761D01*
X118610000Y-121681904D01*
X118562380Y-121634285D01*
X117657619Y-121205714D02*
X118657619Y-121205714D01*
X117657619Y-120634285D02*
X118229047Y-121062857D01*
X118657619Y-120634285D02*
X118086190Y-121205714D01*
X120292857Y-122086666D02*
X120245238Y-122134285D01*
X120197619Y-122277142D01*
X120197619Y-122372380D01*
X120245238Y-122515238D01*
X120340476Y-122610476D01*
X120435714Y-122658095D01*
X120626190Y-122705714D01*
X120769047Y-122705714D01*
X120959523Y-122658095D01*
X121054761Y-122610476D01*
X121150000Y-122515238D01*
X121197619Y-122372380D01*
X121197619Y-122277142D01*
X121150000Y-122134285D01*
X121102380Y-122086666D01*
X120245238Y-121705714D02*
X120197619Y-121562857D01*
X120197619Y-121324761D01*
X120245238Y-121229523D01*
X120292857Y-121181904D01*
X120388095Y-121134285D01*
X120483333Y-121134285D01*
X120578571Y-121181904D01*
X120626190Y-121229523D01*
X120673809Y-121324761D01*
X120721428Y-121515238D01*
X120769047Y-121610476D01*
X120816666Y-121658095D01*
X120911904Y-121705714D01*
X121007142Y-121705714D01*
X121102380Y-121658095D01*
X121150000Y-121610476D01*
X121197619Y-121515238D01*
X121197619Y-121277142D01*
X121150000Y-121134285D01*
X115117619Y-123491428D02*
X116117619Y-123491428D01*
X115403333Y-123158095D01*
X116117619Y-122824761D01*
X115117619Y-122824761D01*
X116117619Y-122158095D02*
X116117619Y-121967619D01*
X116070000Y-121872380D01*
X115974761Y-121777142D01*
X115784285Y-121729523D01*
X115450952Y-121729523D01*
X115260476Y-121777142D01*
X115165238Y-121872380D01*
X115117619Y-121967619D01*
X115117619Y-122158095D01*
X115165238Y-122253333D01*
X115260476Y-122348571D01*
X115450952Y-122396190D01*
X115784285Y-122396190D01*
X115974761Y-122348571D01*
X116070000Y-122253333D01*
X116117619Y-122158095D01*
X115165238Y-121348571D02*
X115117619Y-121205714D01*
X115117619Y-120967619D01*
X115165238Y-120872380D01*
X115212857Y-120824761D01*
X115308095Y-120777142D01*
X115403333Y-120777142D01*
X115498571Y-120824761D01*
X115546190Y-120872380D01*
X115593809Y-120967619D01*
X115641428Y-121158095D01*
X115689047Y-121253333D01*
X115736666Y-121300952D01*
X115831904Y-121348571D01*
X115927142Y-121348571D01*
X116022380Y-121300952D01*
X116070000Y-121253333D01*
X116117619Y-121158095D01*
X116117619Y-120920000D01*
X116070000Y-120777142D01*
X115117619Y-120348571D02*
X116117619Y-120348571D01*
X113530000Y-122681904D02*
X113577619Y-122777142D01*
X113577619Y-122920000D01*
X113530000Y-123062857D01*
X113434761Y-123158095D01*
X113339523Y-123205714D01*
X113149047Y-123253333D01*
X113006190Y-123253333D01*
X112815714Y-123205714D01*
X112720476Y-123158095D01*
X112625238Y-123062857D01*
X112577619Y-122920000D01*
X112577619Y-122824761D01*
X112625238Y-122681904D01*
X112672857Y-122634285D01*
X113006190Y-122634285D01*
X113006190Y-122824761D01*
X112577619Y-122205714D02*
X113577619Y-122205714D01*
X112577619Y-121634285D01*
X113577619Y-121634285D01*
X112577619Y-121158095D02*
X113577619Y-121158095D01*
X113577619Y-120920000D01*
X113530000Y-120777142D01*
X113434761Y-120681904D01*
X113339523Y-120634285D01*
X113149047Y-120586666D01*
X113006190Y-120586666D01*
X112815714Y-120634285D01*
X112720476Y-120681904D01*
X112625238Y-120777142D01*
X112577619Y-120920000D01*
X112577619Y-121158095D01*
X111037619Y-122110476D02*
X111037619Y-122586666D01*
X110561428Y-122634285D01*
X110609047Y-122586666D01*
X110656666Y-122491428D01*
X110656666Y-122253333D01*
X110609047Y-122158095D01*
X110561428Y-122110476D01*
X110466190Y-122062857D01*
X110228095Y-122062857D01*
X110132857Y-122110476D01*
X110085238Y-122158095D01*
X110037619Y-122253333D01*
X110037619Y-122491428D01*
X110085238Y-122586666D01*
X110132857Y-122634285D01*
X111037619Y-121777142D02*
X110037619Y-121443809D01*
X111037619Y-121110476D01*
D11*
X65591428Y-149177142D02*
X65591428Y-148248571D01*
X65020000Y-148748571D01*
X65020000Y-148534285D01*
X64948571Y-148391428D01*
X64877142Y-148320000D01*
X64734285Y-148248571D01*
X64377142Y-148248571D01*
X64234285Y-148320000D01*
X64162857Y-148391428D01*
X64091428Y-148534285D01*
X64091428Y-148962857D01*
X64162857Y-149105714D01*
X64234285Y-149177142D01*
X65591428Y-147820000D02*
X64091428Y-147320000D01*
X65591428Y-146820000D01*
X65591428Y-146462857D02*
X65591428Y-145534285D01*
X65020000Y-146034285D01*
X65020000Y-145820000D01*
X64948571Y-145677142D01*
X64877142Y-145605714D01*
X64734285Y-145534285D01*
X64377142Y-145534285D01*
X64234285Y-145605714D01*
X64162857Y-145677142D01*
X64091428Y-145820000D01*
X64091428Y-146248571D01*
X64162857Y-146391428D01*
X64234285Y-146462857D01*
X61551428Y-148070000D02*
X63051428Y-148070000D01*
X61551428Y-146498571D02*
X62265714Y-146998571D01*
X61551428Y-147355714D02*
X63051428Y-147355714D01*
X63051428Y-146784285D01*
X62980000Y-146641428D01*
X62908571Y-146570000D01*
X62765714Y-146498571D01*
X62551428Y-146498571D01*
X62408571Y-146570000D01*
X62337142Y-146641428D01*
X62265714Y-146784285D01*
X62265714Y-147355714D01*
X60440000Y-148462857D02*
X60511428Y-148605714D01*
X60511428Y-148820000D01*
X60440000Y-149034285D01*
X60297142Y-149177142D01*
X60154285Y-149248571D01*
X59868571Y-149320000D01*
X59654285Y-149320000D01*
X59368571Y-149248571D01*
X59225714Y-149177142D01*
X59082857Y-149034285D01*
X59011428Y-148820000D01*
X59011428Y-148677142D01*
X59082857Y-148462857D01*
X59154285Y-148391428D01*
X59654285Y-148391428D01*
X59654285Y-148677142D01*
X59011428Y-147748571D02*
X60511428Y-147748571D01*
X59011428Y-146891428D01*
X60511428Y-146891428D01*
X59011428Y-146177142D02*
X60511428Y-146177142D01*
X60511428Y-145820000D01*
X60440000Y-145605714D01*
X60297142Y-145462857D01*
X60154285Y-145391428D01*
X59868571Y-145320000D01*
X59654285Y-145320000D01*
X59368571Y-145391428D01*
X59225714Y-145462857D01*
X59082857Y-145605714D01*
X59011428Y-145820000D01*
X59011428Y-146177142D01*
D12*
X107950000Y-114300000D02*
X107950000Y-128270000D01*
X128270000Y-114300000D02*
X107950000Y-114300000D01*
X128270000Y-128270000D02*
X128270000Y-114300000D01*
X128270000Y-128270000D02*
X107950000Y-128270000D01*
X58420000Y-139700000D02*
X58420000Y-92710000D01*
X101600000Y-139700000D02*
X58420000Y-139700000D01*
X101600000Y-92710000D02*
X101600000Y-139700000D01*
X58420000Y-92710000D02*
X101600000Y-92710000D01*
D11*
X99575714Y-94428571D02*
X100290000Y-94428571D01*
X100361428Y-95142857D01*
X100290000Y-95071428D01*
X100147142Y-95000000D01*
X99790000Y-95000000D01*
X99647142Y-95071428D01*
X99575714Y-95142857D01*
X99504285Y-95285714D01*
X99504285Y-95642857D01*
X99575714Y-95785714D01*
X99647142Y-95857142D01*
X99790000Y-95928571D01*
X100147142Y-95928571D01*
X100290000Y-95857142D01*
X100361428Y-95785714D01*
X98075714Y-95928571D02*
X98932857Y-95928571D01*
X98504285Y-95928571D02*
X98504285Y-94428571D01*
X98647142Y-94642857D01*
X98790000Y-94785714D01*
X98932857Y-94857142D01*
X96647142Y-95928571D02*
X97504285Y-95928571D01*
X97075714Y-95928571D02*
X97075714Y-94428571D01*
X97218571Y-94642857D01*
X97361428Y-94785714D01*
X97504285Y-94857142D01*
X95718571Y-94428571D02*
X95575714Y-94428571D01*
X95432857Y-94500000D01*
X95361428Y-94571428D01*
X95290000Y-94714285D01*
X95218571Y-95000000D01*
X95218571Y-95357142D01*
X95290000Y-95642857D01*
X95361428Y-95785714D01*
X95432857Y-95857142D01*
X95575714Y-95928571D01*
X95718571Y-95928571D01*
X95861428Y-95857142D01*
X95932857Y-95785714D01*
X96004285Y-95642857D01*
X96075714Y-95357142D01*
X96075714Y-95000000D01*
X96004285Y-94714285D01*
X95932857Y-94571428D01*
X95861428Y-94500000D01*
X95718571Y-94428571D01*
X123344285Y-116455000D02*
X122630000Y-116455000D01*
X123487142Y-116883571D02*
X122987142Y-115383571D01*
X122487142Y-116883571D01*
X121987142Y-116883571D02*
X121987142Y-115383571D01*
X121630000Y-115383571D01*
X121415714Y-115455000D01*
X121272857Y-115597857D01*
X121201428Y-115740714D01*
X121130000Y-116026428D01*
X121130000Y-116240714D01*
X121201428Y-116526428D01*
X121272857Y-116669285D01*
X121415714Y-116812142D01*
X121630000Y-116883571D01*
X121987142Y-116883571D01*
X120415714Y-116883571D02*
X120130000Y-116883571D01*
X119987142Y-116812142D01*
X119915714Y-116740714D01*
X119772857Y-116526428D01*
X119701428Y-116240714D01*
X119701428Y-115669285D01*
X119772857Y-115526428D01*
X119844285Y-115455000D01*
X119987142Y-115383571D01*
X120272857Y-115383571D01*
X120415714Y-115455000D01*
X120487142Y-115526428D01*
X120558571Y-115669285D01*
X120558571Y-116026428D01*
X120487142Y-116169285D01*
X120415714Y-116240714D01*
X120272857Y-116312142D01*
X119987142Y-116312142D01*
X119844285Y-116240714D01*
X119772857Y-116169285D01*
X119701428Y-116026428D01*
X118844285Y-116026428D02*
X118987142Y-115955000D01*
X119058571Y-115883571D01*
X119130000Y-115740714D01*
X119130000Y-115669285D01*
X119058571Y-115526428D01*
X118987142Y-115455000D01*
X118844285Y-115383571D01*
X118558571Y-115383571D01*
X118415714Y-115455000D01*
X118344285Y-115526428D01*
X118272857Y-115669285D01*
X118272857Y-115740714D01*
X118344285Y-115883571D01*
X118415714Y-115955000D01*
X118558571Y-116026428D01*
X118844285Y-116026428D01*
X118987142Y-116097857D01*
X119058571Y-116169285D01*
X119130000Y-116312142D01*
X119130000Y-116597857D01*
X119058571Y-116740714D01*
X118987142Y-116812142D01*
X118844285Y-116883571D01*
X118558571Y-116883571D01*
X118415714Y-116812142D01*
X118344285Y-116740714D01*
X118272857Y-116597857D01*
X118272857Y-116312142D01*
X118344285Y-116169285D01*
X118415714Y-116097857D01*
X118558571Y-116026428D01*
X117772857Y-115383571D02*
X116844285Y-115383571D01*
X117344285Y-115955000D01*
X117130000Y-115955000D01*
X116987142Y-116026428D01*
X116915714Y-116097857D01*
X116844285Y-116240714D01*
X116844285Y-116597857D01*
X116915714Y-116740714D01*
X116987142Y-116812142D01*
X117130000Y-116883571D01*
X117558571Y-116883571D01*
X117701428Y-116812142D01*
X117772857Y-116740714D01*
X116344285Y-115383571D02*
X115415714Y-115383571D01*
X115915714Y-115955000D01*
X115701428Y-115955000D01*
X115558571Y-116026428D01*
X115487142Y-116097857D01*
X115415714Y-116240714D01*
X115415714Y-116597857D01*
X115487142Y-116740714D01*
X115558571Y-116812142D01*
X115701428Y-116883571D01*
X116130000Y-116883571D01*
X116272857Y-116812142D01*
X116344285Y-116740714D01*
D12*
X65330000Y-121846078D02*
X65330000Y-121328922D01*
X66750000Y-121846078D02*
X66750000Y-121328922D01*
X109160000Y-125730000D02*
X109160000Y-127060000D01*
X109160000Y-127060000D02*
X110490000Y-127060000D01*
X111760000Y-127060000D02*
X127060000Y-127060000D01*
X127060000Y-124400000D02*
X127060000Y-127060000D01*
X111760000Y-124400000D02*
X127060000Y-124400000D01*
X111760000Y-124400000D02*
X111760000Y-127060000D01*
X96446078Y-61670000D02*
X95928922Y-61670000D01*
X96446078Y-60250000D02*
X95928922Y-60250000D01*
X95928922Y-62790000D02*
X96446078Y-62790000D01*
X95928922Y-64210000D02*
X96446078Y-64210000D01*
X66100000Y-153730000D02*
X66100000Y-152400000D01*
X64770000Y-153730000D02*
X66100000Y-153730000D01*
X63500000Y-153730000D02*
X63500000Y-151070000D01*
X63500000Y-151070000D02*
X58360000Y-151070000D01*
X63500000Y-153730000D02*
X58360000Y-153730000D01*
X58360000Y-153730000D02*
X58360000Y-151070000D01*
X90230000Y-96580000D02*
X90230000Y-95250000D01*
X88900000Y-96580000D02*
X90230000Y-96580000D01*
X87630000Y-96580000D02*
X87630000Y-93920000D01*
X87630000Y-93920000D02*
X69790000Y-93920000D01*
X87630000Y-96580000D02*
X69790000Y-96580000D01*
X69790000Y-96580000D02*
X69790000Y-93920000D01*
D10*
X68142380Y-120944642D02*
X67666190Y-120611309D01*
X68142380Y-120373214D02*
X67142380Y-120373214D01*
X67142380Y-120754166D01*
X67190000Y-120849404D01*
X67237619Y-120897023D01*
X67332857Y-120944642D01*
X67475714Y-120944642D01*
X67570952Y-120897023D01*
X67618571Y-120849404D01*
X67666190Y-120754166D01*
X67666190Y-120373214D01*
X68142380Y-121897023D02*
X68142380Y-121325595D01*
X68142380Y-121611309D02*
X67142380Y-121611309D01*
X67285238Y-121516071D01*
X67380476Y-121420833D01*
X67428095Y-121325595D01*
X67570952Y-122468452D02*
X67523333Y-122373214D01*
X67475714Y-122325595D01*
X67380476Y-122277976D01*
X67332857Y-122277976D01*
X67237619Y-122325595D01*
X67190000Y-122373214D01*
X67142380Y-122468452D01*
X67142380Y-122658928D01*
X67190000Y-122754166D01*
X67237619Y-122801785D01*
X67332857Y-122849404D01*
X67380476Y-122849404D01*
X67475714Y-122801785D01*
X67523333Y-122754166D01*
X67570952Y-122658928D01*
X67570952Y-122468452D01*
X67618571Y-122373214D01*
X67666190Y-122325595D01*
X67761428Y-122277976D01*
X67951904Y-122277976D01*
X68047142Y-122325595D01*
X68094761Y-122373214D01*
X68142380Y-122468452D01*
X68142380Y-122658928D01*
X68094761Y-122754166D01*
X68047142Y-122801785D01*
X67951904Y-122849404D01*
X67761428Y-122849404D01*
X67666190Y-122801785D01*
X67618571Y-122754166D01*
X67570952Y-122658928D01*
X106132380Y-125396666D02*
X106846666Y-125396666D01*
X106989523Y-125349047D01*
X107084761Y-125253809D01*
X107132380Y-125110952D01*
X107132380Y-125015714D01*
X106132380Y-125777619D02*
X106132380Y-126396666D01*
X106513333Y-126063333D01*
X106513333Y-126206190D01*
X106560952Y-126301428D01*
X106608571Y-126349047D01*
X106703809Y-126396666D01*
X106941904Y-126396666D01*
X107037142Y-126349047D01*
X107084761Y-126301428D01*
X107132380Y-126206190D01*
X107132380Y-125920476D01*
X107084761Y-125825238D01*
X107037142Y-125777619D01*
X96354166Y-59667142D02*
X96401785Y-59714761D01*
X96544642Y-59762380D01*
X96639880Y-59762380D01*
X96782738Y-59714761D01*
X96877976Y-59619523D01*
X96925595Y-59524285D01*
X96973214Y-59333809D01*
X96973214Y-59190952D01*
X96925595Y-59000476D01*
X96877976Y-58905238D01*
X96782738Y-58810000D01*
X96639880Y-58762380D01*
X96544642Y-58762380D01*
X96401785Y-58810000D01*
X96354166Y-58857619D01*
X96020833Y-58762380D02*
X95354166Y-58762380D01*
X95782738Y-59762380D01*
X96354166Y-65507142D02*
X96401785Y-65554761D01*
X96544642Y-65602380D01*
X96639880Y-65602380D01*
X96782738Y-65554761D01*
X96877976Y-65459523D01*
X96925595Y-65364285D01*
X96973214Y-65173809D01*
X96973214Y-65030952D01*
X96925595Y-64840476D01*
X96877976Y-64745238D01*
X96782738Y-64650000D01*
X96639880Y-64602380D01*
X96544642Y-64602380D01*
X96401785Y-64650000D01*
X96354166Y-64697619D01*
X95497023Y-64602380D02*
X95687500Y-64602380D01*
X95782738Y-64650000D01*
X95830357Y-64697619D01*
X95925595Y-64840476D01*
X95973214Y-65030952D01*
X95973214Y-65411904D01*
X95925595Y-65507142D01*
X95877976Y-65554761D01*
X95782738Y-65602380D01*
X95592261Y-65602380D01*
X95497023Y-65554761D01*
X95449404Y-65507142D01*
X95401785Y-65411904D01*
X95401785Y-65173809D01*
X95449404Y-65078571D01*
X95497023Y-65030952D01*
X95592261Y-64983333D01*
X95782738Y-64983333D01*
X95877976Y-65030952D01*
X95925595Y-65078571D01*
X95973214Y-65173809D01*
X66552380Y-151590476D02*
X67266666Y-151590476D01*
X67409523Y-151542857D01*
X67504761Y-151447619D01*
X67552380Y-151304761D01*
X67552380Y-151209523D01*
X67552380Y-152590476D02*
X67552380Y-152019047D01*
X67552380Y-152304761D02*
X66552380Y-152304761D01*
X66695238Y-152209523D01*
X66790476Y-152114285D01*
X66838095Y-152019047D01*
X67552380Y-153542857D02*
X67552380Y-152971428D01*
X67552380Y-153257142D02*
X66552380Y-153257142D01*
X66695238Y-153161904D01*
X66790476Y-153066666D01*
X66838095Y-152971428D01*
X91777619Y-95583333D02*
X91063333Y-95583333D01*
X90920476Y-95630952D01*
X90825238Y-95726190D01*
X90777619Y-95869047D01*
X90777619Y-95964285D01*
X91349047Y-94964285D02*
X91396666Y-95059523D01*
X91444285Y-95107142D01*
X91539523Y-95154761D01*
X91587142Y-95154761D01*
X91682380Y-95107142D01*
X91730000Y-95059523D01*
X91777619Y-94964285D01*
X91777619Y-94773809D01*
X91730000Y-94678571D01*
X91682380Y-94630952D01*
X91587142Y-94583333D01*
X91539523Y-94583333D01*
X91444285Y-94630952D01*
X91396666Y-94678571D01*
X91349047Y-94773809D01*
X91349047Y-94964285D01*
X91301428Y-95059523D01*
X91253809Y-95107142D01*
X91158571Y-95154761D01*
X90968095Y-95154761D01*
X90872857Y-95107142D01*
X90825238Y-95059523D01*
X90777619Y-94964285D01*
X90777619Y-94773809D01*
X90825238Y-94678571D01*
X90872857Y-94630952D01*
X90968095Y-94583333D01*
X91158571Y-94583333D01*
X91253809Y-94630952D01*
X91301428Y-94678571D01*
X91349047Y-94773809D01*
M02*
