M48
; DRILL file {KiCad 5.1.4+dfsg1-1} date ven. 17 avril 2020 13:06:49 CEST
; FORMAT={-:-/ absolute / inch / decimal}
; #@! TF.CreationDate,2020-04-17T13:06:49+02:00
; #@! TF.GenerationSoftware,Kicad,Pcbnew,5.1.4+dfsg1-1
; #@! TF.FileFunction,Plated,1,2,PTH
FMAT,2
INCH
T1C0.0157
T2C0.0197
T3C0.0315
T4C0.0327
T5C0.0394
T6C0.0591
T7C0.1063
%
G90
G05
T1
X2.0Y-2.25
X2.0Y-6.05
X2.1Y-3.9
X2.2Y-3.65
X2.2Y-4.2
X2.2Y-4.75
X2.2Y-5.45
X2.25Y-4.85
X2.4Y-3.75
X2.4Y-4.05
X2.4Y-5.1
X2.4Y-5.25
X2.5Y-2.35
X2.5Y-2.45
X2.5Y-5.15
X2.55Y-2.35
X2.55Y-2.45
X2.55Y-2.55
X2.55Y-2.65
X2.6Y-2.35
X2.6Y-2.45
X2.6Y-2.55
X2.6Y-2.65
X2.6Y-3.1
X2.65Y-2.35
X2.65Y-2.45
X2.65Y-2.55
X2.65Y-2.65
X2.65Y-5.2
X2.725Y-3.75
X2.725Y-3.975
X2.8Y-2.35
X2.8Y-2.65
X2.8Y-5.2
X2.8Y-5.75
X2.8Y-6.05
X2.825Y-2.475
X2.825Y-2.525
X2.825Y-2.575
X2.85Y-2.35
X2.85Y-2.45
X2.85Y-2.95
X2.9Y-2.35
X2.9Y-2.45
X2.9Y-5.45
X2.95Y-2.35
X2.95Y-2.45
X2.975Y-2.725
X2.975Y-3.0
X3.0Y-2.85
X3.0Y-3.8469
X3.0Y-4.65
X3.0Y-5.45
X3.025Y-2.775
X3.05Y-2.35
X3.05Y-2.45
X3.05Y-5.8
X3.075Y-2.75
X3.075Y-2.98
X3.1Y-2.35
X3.1Y-2.45
X3.1Y-5.45
X3.125Y-2.75
X3.15Y-2.35
X3.15Y-2.45
X3.2Y-2.35
X3.2Y-2.45
X3.2Y-2.95
X3.2Y-3.65
X3.2Y-5.45
X3.25Y-2.35
X3.25Y-2.45
X3.25Y-2.5
X3.25Y-2.9
X3.25Y-4.05
X3.25Y-4.5
X3.275Y-5.2
X3.3Y-2.79
X3.35Y-2.45
X3.35Y-2.5
X3.35Y-2.79
X3.35Y-2.86
X3.35Y-5.325
X3.35Y-5.45
X3.4Y-2.79
X3.4Y-2.86
X3.4Y-3.65
X3.4Y-4.05
X3.45Y-2.79
X3.45Y-2.86
X3.5Y-2.79
X3.5Y-2.86
X3.5Y-3.55
X3.5Y-3.55
X3.5Y-3.65
X3.55Y-2.79
X3.55Y-2.86
X3.6Y-2.79
X3.6Y-2.86
X3.6Y-4.45
X3.6Y-4.5
X3.6Y-4.55
X3.6Y-4.6
X3.75Y-2.86
X3.8Y-2.79
X3.8Y-2.86
X3.85Y-2.79
X3.85Y-2.86
X3.85Y-5.325
X3.85Y-5.45
X3.9Y-2.79
X3.9Y-2.86
X3.95Y-2.79
X3.95Y-2.86
X4.0Y-2.79
X4.0Y-2.86
X4.05Y-2.79
X4.05Y-2.86
X4.075Y-2.575
X4.1Y-2.79
X4.1Y-2.86
X4.1Y-3.25
X4.125Y-2.525
X4.15Y-2.79
X4.15Y-2.86
X4.15Y-5.9
X4.175Y-2.475
X4.2Y-2.79
X4.2Y-2.86
X4.2Y-4.35
X4.225Y-2.425
X4.25Y-2.86
X4.3Y-3.9
X4.3Y-3.95
X4.3Y-4.0
X4.3Y-4.05
X4.3Y-4.1
X4.35Y-4.85
X4.4Y-3.15
X4.4Y-3.575
X4.4Y-3.65
X4.4Y-3.7
X4.4Y-3.75
X4.4Y-3.8
X4.425Y-3.55
X4.45Y-3.15
X4.45Y-3.525
X4.45Y-4.4
X4.45Y-5.05
X4.475Y-3.5
X4.5Y-3.15
X4.5Y-3.475
X4.5Y-3.625
X4.5Y-3.7
X4.5Y-3.75
X4.5Y-3.8
X4.5Y-4.05
X4.5Y-4.15
X4.525Y-3.45
X4.525Y-3.6
X4.55Y-2.5
X4.55Y-3.425
X4.55Y-3.575
X4.55Y-4.05
X4.55Y-4.15
X4.575Y-3.4
X4.575Y-3.55
X4.6Y-3.525
X4.6Y-4.05
X4.6Y-4.15
X4.65Y-3.4
X4.65Y-3.5
X4.65Y-4.5
X4.7Y-4.05
X4.7Y-4.3
X4.75Y-3.4
X4.75Y-3.5
X4.75Y-4.05
X4.75Y-4.3
X4.8Y-3.05
X4.8Y-3.35
X4.8Y-3.4
X4.8Y-3.5
X4.8Y-4.05
X4.8Y-4.1
X4.8Y-4.15
X4.8Y-4.5
X4.85Y-4.2
X4.85Y-4.3
X4.875Y-4.275
X4.9Y-4.7
X4.9Y-4.75
X4.9Y-4.85
X4.9Y-4.9
X4.95Y-3.2
X4.95Y-3.25
X4.95Y-3.4
X4.95Y-4.675
X5.0Y-3.3
X5.0Y-3.4
X5.0Y-3.45
X5.0Y-3.5
X5.0Y-4.675
X5.0Y-4.85
X5.0Y-4.9
X5.025Y-4.775
X5.05Y-3.3
X5.05Y-4.675
X5.1Y-3.3
X5.1Y-3.4
X5.1Y-3.45
X5.1Y-3.5
X5.1Y-4.35
X5.1Y-4.4
X5.1Y-4.45
X5.1Y-4.5
X5.1Y-4.6
X5.1Y-4.65
X5.15Y-3.3
X5.15Y-3.4
X5.15Y-4.75
X5.175Y-4.725
X5.2Y-3.3
X5.2Y-3.4
X5.2Y-4.35
X5.2Y-4.4
X5.2Y-4.45
X5.2Y-4.5
X5.2Y-4.6
X5.2Y-4.65
X5.2Y-4.7
X5.225Y-4.1
X5.225Y-4.2
X5.25Y-3.3
X5.25Y-3.4
X5.275Y-4.1
X5.275Y-4.2
X5.3Y-3.3
X5.3Y-3.4
X5.325Y-4.1
X5.325Y-4.2
X5.4Y-3.3
X5.4Y-3.4
X5.425Y-4.1
X5.425Y-4.2
X5.475Y-4.1
X5.475Y-4.2
X5.5Y-3.3
X5.5Y-3.4
X5.525Y-4.1
X5.525Y-4.2
X5.55Y-3.3
X5.55Y-3.4
X5.575Y-4.1
X5.575Y-4.2
X5.6Y-3.3
X5.6Y-3.4
X5.7Y-3.15
X5.7Y-3.55
X5.8Y-2.25
X5.8Y-3.15
X5.8Y-3.55
X5.8Y-6.05
T2
X2.0453Y-2.375
X2.0686Y-2.3186
X2.0686Y-2.4314
X2.125Y-2.2953
X2.125Y-2.4547
X2.1814Y-2.3186
X2.1814Y-2.4314
X2.2047Y-2.375
X5.5953Y-5.925
X5.6186Y-5.8686
X5.6186Y-5.9814
X5.675Y-5.8453
X5.675Y-6.0047
X5.7314Y-5.8686
X5.7314Y-5.9814
X5.7547Y-5.925
X2.0453Y-5.925
X2.0686Y-5.8686
X2.0686Y-5.9814
X2.125Y-5.8453
X2.125Y-6.0047
X2.1814Y-5.8686
X2.1814Y-5.9814
X2.2047Y-5.925
X5.5953Y-2.375
X5.6186Y-2.3186
X5.6186Y-2.4314
X5.675Y-2.2953
X5.675Y-2.4547
X5.7314Y-2.3186
X5.7314Y-2.4314
X5.7547Y-2.375
T3
X2.725Y-3.4
X2.85Y-4.3
X3.025Y-3.1
X4.3Y-2.8
X4.3Y-2.9
X4.3Y-3.0
X3.65Y-2.4
X3.65Y-2.5
X3.65Y-2.6
X3.65Y-2.7
X3.95Y-2.4
X3.95Y-2.5
X3.95Y-2.6
X3.95Y-2.7
X4.3Y-2.4
X4.3Y-2.5
X4.3Y-2.6
X2.5Y-4.6
X2.6Y-4.6
X2.7Y-4.6
T4
X4.075Y-5.65
T5
X2.6Y-3.8
X2.6Y-3.9
X2.6Y-4.0
X2.6Y-4.1
X4.35Y-4.95
X4.45Y-4.95
X4.55Y-4.95
X4.65Y-4.95
X4.75Y-4.95
X4.85Y-4.95
X4.95Y-4.95
X2.8Y-3.75
X2.9Y-3.75
X3.0Y-3.75
X3.1Y-3.75
X3.2Y-3.75
X3.3Y-3.75
X3.4Y-3.75
X3.5Y-3.75
X4.175Y-2.3
X2.45Y-2.3
X2.45Y-2.4
X2.45Y-2.5
X2.45Y-2.6
X2.05Y-5.6
X2.15Y-5.6
X2.25Y-5.6
X2.35Y-5.6
X2.45Y-5.6
X2.55Y-5.6
X2.65Y-5.6
X2.75Y-5.6
X2.85Y-5.6
X2.95Y-5.6
X3.05Y-5.6
X3.15Y-5.6
X3.25Y-5.6
X3.35Y-5.6
X3.45Y-5.6
X3.55Y-5.6
X3.65Y-5.6
X3.75Y-5.6
X3.85Y-5.6
X3.95Y-5.6
X2.05Y-5.0
X2.15Y-5.0
X2.25Y-5.0
X2.35Y-5.0
X2.45Y-5.0
X2.55Y-5.0
X2.65Y-5.0
X2.75Y-5.0
X2.85Y-5.0
X2.95Y-5.0
X3.05Y-5.0
X3.15Y-5.0
X3.25Y-5.0
X3.35Y-5.0
X3.45Y-5.0
X3.55Y-5.0
X3.65Y-5.0
X3.75Y-5.0
X3.85Y-5.0
X3.95Y-5.0
X5.675Y-4.675
X5.675Y-4.775
X5.675Y-4.875
X5.675Y-4.975
X3.15Y-4.4
X3.25Y-4.4
X3.35Y-4.4
X3.45Y-4.4
X2.45Y-2.9
X2.45Y-3.0
X2.45Y-3.1
X2.45Y-3.2
X2.45Y-3.3
X2.45Y-3.4
X2.35Y-6.0
X2.45Y-6.0
X2.55Y-6.0
X3.7Y-6.0
X5.475Y-5.975
X2.85Y-4.75
X2.95Y-4.75
X3.05Y-4.75
X3.15Y-4.75
X3.25Y-4.75
X5.675Y-5.175
X5.675Y-5.275
X5.675Y-5.375
X5.675Y-5.475
X5.675Y-5.575
X4.55Y-2.675
X4.45Y-3.9
X4.45Y-4.0
X4.45Y-4.1
X4.45Y-4.2
X4.45Y-4.3
X4.45Y-4.4
X4.45Y-4.5
X2.125Y-2.65
X5.675Y-2.725
X2.975Y-6.025
T6
X4.4433Y-5.6
X5.25Y-5.6
T7
X2.125Y-5.925
X5.675Y-2.375
X2.125Y-2.375
X5.675Y-5.925
T5
G00X5.165Y-2.5787
M15
G01X5.165Y-2.6575
M16
G05
G00X5.3894Y-2.5
M15
G01X5.3106Y-2.5
M16
G05
G00X5.3894Y-2.7362
M15
G01X5.3106Y-2.7362
M16
G05
T0
M30
